<svg width="64" height="56" viewBox="0 0 64 56" fill="none" xmlns="http://www.w3.org/2000/svg">
<path d="M63.5724 54.6553C63.5724 54.9679 49.4377 55.2218 32.0011 55.2218C14.5644 55.2218 0.429688 54.9679 0.429688 54.6553C0.429688 54.3427 14.5644 54.0889 32.0011 54.0889C49.4377 54.0889 63.5724 54.3427 63.5724 54.6553Z" fill="#EED1C6"/>
<path d="M9.62717 13.6514C9.62717 13.6514 3.76893 22.4768 4.60514 23.9065C5.44135 25.3377 8.66719 25.9058 9.01469 25.3647C9.21621 25.0489 11.0092 20.4426 11.1203 17.2263C11.1996 14.9097 9.62717 13.6514 9.62717 13.6514Z" fill="#505D5E"/>
<path d="M21.809 22.1916L21.5154 23.4277L20.062 27.3136L20.4793 28.637C20.4793 28.637 20.1096 29.5192 19.9176 29.5954C19.7383 29.6668 18.9497 29.8508 18.9814 29.6826C19.0465 29.3415 19.5717 28.9639 19.5717 28.6465C19.5717 28.3292 19.194 27.704 19.194 27.704L19.3844 27.0994L19.5431 26.0855L20.319 22.1885H21.809V22.1916Z" fill="#F3BBAA"/>
<path d="M9.02739 25.8213L8.86871 28.6584C8.85443 28.9043 8.86871 29.1503 8.90679 29.393L10.2254 37.5029L9.96356 53.9701H10.9299L14.3747 36.381L15.2601 25.9308L9.02739 25.8213Z" fill="#F37D59"/>
<path d="M13.8867 25.8213L14.907 37.3347L14.139 53.9685H15.2735L18.7279 36.381L19.2674 25.9308L13.8867 25.8213Z" fill="#F37D59"/>
<path d="M19.2408 13.4855L17.8016 10.6516L16.2308 10.1025L11.4039 11.5163L11.1231 15.6482L7.82422 27.0473L9.74417 27.6709C10.912 27.9676 12.1179 28.0819 13.3207 28.0089C15.385 27.8835 18.5331 27.6646 19.198 27.4599L20.7466 21.7984L19.2424 13.4839L19.2408 13.4855Z" fill="#87806E"/>
<path d="M13.647 9.83984L10.0308 10.7903C9.45644 10.941 8.9709 11.3219 8.68687 11.8439C7.64755 13.7559 5.14844 18.1036 5.14844 18.651C5.14844 19.1984 6.10207 21.5389 6.10207 21.5389L9.83249 22.6909L11.0384 18.4273L10.1609 17.81L11.2066 15.8742L14.918 18.202L15.1735 10.6903L13.6438 9.83984H13.647Z" fill="#87806E"/>
<path d="M19.549 4.08664L18.5039 4.3418L18.5438 4.50519L19.5889 4.25003L19.549 4.08664Z" fill="#5B514F"/>
<path d="M18.3438 2.46191C18.3438 2.46191 18.8991 2.91096 18.9166 4.01216L18.5913 3.82334L18.3438 2.93635" fill="#5F322C"/>
<path d="M18.9383 4.0528L18.5733 3.84018L18.3242 2.94526L18.3655 2.93415L18.6098 3.8132L18.8954 3.97981C18.8669 2.92939 18.3369 2.48828 18.3322 2.48352L18.3591 2.4502C18.3591 2.4502 18.9224 2.9167 18.9399 4.01631V4.0528H18.9383Z" fill="#5F322C"/>
<path d="M14.6001 2.8457C14.3827 2.99327 14.4049 3.55339 14.3669 3.81362C14.297 4.29281 14.4732 5.25596 14.754 5.64947C14.8 5.71294 14.9666 5.62091 15.0444 5.62567C15.1983 5.63519 15.265 5.43685 15.2824 5.28294C15.3491 4.68156 15.4157 4.08019 15.4823 3.47881" fill="#3D3541"/>
<path d="M14.556 2.80064C14.2752 3.07991 14.2958 3.67493 14.2895 4.04464C14.2831 4.50004 14.3498 5.21407 14.6417 5.58696C14.7988 5.78847 15.0876 5.77419 15.259 5.55839C15.3859 5.39972 15.37 5.05698 15.3891 4.88086C15.4414 4.41277 15.4922 3.94468 15.5446 3.47818C15.5541 3.39725 15.4272 3.39884 15.4176 3.47818C15.3653 3.94627 15.3177 4.41435 15.2621 4.88086C15.2352 5.103 15.2732 5.59172 14.9273 5.58219C14.6782 5.57585 14.6417 5.29976 14.5814 5.10935C14.4688 4.74916 14.4037 4.36041 14.4164 3.98276C14.4275 3.65907 14.4005 3.1291 14.6433 2.8895C14.7004 2.83237 14.6116 2.74352 14.5545 2.80064H14.556Z" fill="#3D3541"/>
<path d="M15.1948 6.31543C15.1948 6.31543 15.0171 9.27787 13.6445 9.84117C13.6445 9.84117 14.1983 12.5672 16.5737 12.1023C18.949 11.6374 17.1433 10.1585 17.1433 10.1585C17.1433 10.1585 17.0322 9.16997 17.6257 8.66539L15.1948 6.31543Z" fill="#F3BBAA"/>
<g style="mix-blend-mode:multiply" opacity="0.7">
<path d="M17.6247 8.66246L15.1938 6.3125C15.1938 6.3125 14.8225 9.57484 17.1375 10.1016C17.1248 9.88901 17.1137 9.09723 17.6247 8.66405V8.66246Z" fill="#F3BBAA"/>
</g>
<path d="M18.7614 3.3482C18.9026 3.52909 18.9867 3.74806 19.0153 3.97655C19.0692 4.42084 19.166 5.72673 19.2231 6.29637C19.3056 7.1183 19.1232 8.80976 18.3076 9.00017C17.6507 9.15409 16.194 9.13504 15.4546 7.28808C14.7152 5.43953 15.1976 3.7798 15.1976 3.7798C15.1976 3.7798 16.0798 2.72462 17.0255 2.72462C17.6602 2.72462 18.1663 2.58657 18.7614 3.3482Z" fill="#F3BBAA"/>
<path d="M18.9124 4.35494C18.9791 4.25815 18.3666 3.88526 18.146 4.0487C17.9255 4.21213 18.0826 4.41206 18.2 4.3121C18.3729 4.16453 18.868 4.41841 18.9124 4.35494Z" fill="#5F322C"/>
<path d="M16.2405 4.64424C16.1484 4.56808 16.7149 4.04604 16.9847 4.14918C17.2544 4.25232 17.1322 4.48715 16.9847 4.42051C16.7689 4.32055 16.2992 4.69502 16.2389 4.64424H16.2405Z" fill="#5F322C"/>
<path d="M18.5929 4.80844C18.5929 4.80844 18.5199 4.54822 18.3659 4.6101C18.212 4.67198 18.1549 4.92586 18.3326 5.03535C18.5119 5.14483 18.604 4.94173 18.5929 4.80686V4.80844Z" fill="#5F322C"/>
<path d="M16.9444 4.92758C16.9444 4.92758 16.8714 4.66736 16.7175 4.72924C16.5636 4.79112 16.5065 5.045 16.6842 5.15449C16.8619 5.26397 16.9555 5.06087 16.9444 4.926V4.92758Z" fill="#5F322C"/>
<path d="M17.7022 4.7793C17.7022 4.7793 17.7133 5.22358 18.064 5.55363C18.2862 5.76149 18.7955 6.08677 18.1862 6.28829C17.4357 6.5374 17.7022 4.7793 17.7022 4.7793Z" fill="#DD9483"/>
<path d="M18.5937 3.22204C18.7603 3.06971 18.7889 2.90628 18.7809 2.71904C18.7778 2.71428 18.773 2.70952 18.7698 2.70476C18.6381 2.53815 18.4842 2.37948 18.4128 2.17955C18.3827 2.09545 18.3652 2.00025 18.3017 1.93836C18.1827 1.82095 17.9669 1.87331 17.84 1.76541C17.8051 1.73526 17.7797 1.69559 17.7448 1.66545C17.6813 1.60515 17.5925 1.57976 17.5084 1.55913C17.1672 1.47186 16.815 1.42267 16.4627 1.41157C16.2659 1.40522 15.9502 1.41157 15.6408 1.6226C14.9839 1.34175 14.4872 2.10815 14.1127 2.64446C14.0604 2.71904 14.0096 2.79838 13.9921 2.88882C13.9699 2.99831 13.9985 3.10938 14.0382 3.2141C14.1921 3.63618 14.8014 3.83611 15.2298 3.96781C15.6598 4.09951 16.1771 3.95829 16.431 3.58857C16.4928 3.49813 16.5436 3.39341 16.6388 3.34104C16.9181 3.18872 17.2037 3.61714 17.5211 3.59492C17.6543 3.5854 17.7686 3.49654 17.8955 3.45212C17.9939 3.41721 18.4842 3.32359 18.5921 3.22521L18.5937 3.22204Z" fill="#3D3541"/>
<path d="M16.5451 5.52819C16.0183 5.5028 15.5898 5.06803 15.5898 4.55869C15.5898 4.04934 16.0183 3.65742 16.5451 3.68281C17.0719 3.7082 17.5003 4.14296 17.5003 4.6523C17.5003 5.16165 17.0719 5.55357 16.5451 5.52819ZM16.5451 3.80816C16.0881 3.78594 15.7168 4.12551 15.7168 4.56503C15.7168 5.00456 16.0881 5.38062 16.5451 5.40283C17.002 5.42505 17.3733 5.08549 17.3733 4.64596C17.3733 4.20643 17.002 3.83037 16.5451 3.80816Z" fill="#5B514F"/>
<path d="M19 5.4382C18.4811 5.53658 17.9639 5.21288 17.8449 4.71782C17.7259 4.22275 18.0511 3.74038 18.57 3.64359C19.0889 3.54522 19.6061 3.86891 19.7251 4.36397C19.8442 4.85904 19.5189 5.34141 19 5.4382ZM18.6001 3.76577C18.1511 3.84987 17.8687 4.26718 17.9702 4.69402C18.0718 5.12085 18.5208 5.40011 18.9714 5.31602C19.4205 5.23192 19.7029 4.81461 19.6014 4.38777C19.4998 3.96094 19.0508 3.68168 18.6001 3.76577Z" fill="#5B514F"/>
<path d="M17.4672 4.55548L17.3672 4.42061C17.4767 4.33968 17.7353 4.23655 17.9368 4.42378L17.8226 4.54755C17.6718 4.40791 17.4703 4.55389 17.4687 4.55548H17.4672Z" fill="#5B514F"/>
<path d="M15.6158 4.53246L14.6289 5.11426L14.7143 5.25915L15.7012 4.67736L15.6158 4.53246Z" fill="#5B514F"/>
<path d="M17.8008 10.6875L19.3764 11.2905C19.6208 11.3841 19.8397 11.5348 20.0143 11.73L21.1266 12.9772C21.3709 13.2517 21.5153 13.5992 21.5391 13.9657L21.9977 21.3615C22.0056 21.4773 21.9993 21.5932 21.9818 21.7074L21.6169 24.124H19.2701L18.5259 18.2515L17.8024 10.6875H17.8008Z" fill="#87806E"/>
<path d="M15.4827 6.1471C15.4827 6.1471 15.2622 6.48825 14.9686 6.70881C14.6751 6.92937 14.0864 6.02651 13.9896 5.17919C13.8928 4.33187 15.1733 5.06812 15.1733 5.06812L15.4827 6.14552V6.1471Z" fill="#F3BBAA"/>
<path d="M16.9453 7.44258C16.9453 7.44258 17.4134 7.51874 17.8799 7.44258C18.3464 7.36642 18.5257 7.00781 18.5257 7.00781C18.5257 7.00781 18.5781 7.45686 18.0386 7.66631C17.5261 7.86624 16.9469 7.44099 16.9469 7.44099L16.9453 7.44258Z" fill="#5F322C"/>
<path d="M10.6953 10.6139C10.6953 10.6139 11.7394 12.3054 11.9504 13.4018C11.9504 13.4018 13.8323 13.0591 13.9862 12.9576C14.1401 12.856 13.6467 10.6139 13.6467 10.6139L13.2896 9.93164L10.6969 10.6139H10.6953Z" fill="#505D5E"/>
<path d="M10.2437 18.8646L13.1252 17.6777L13.4822 18.6901L9.63281 21.0892V19.5517L10.2437 18.8646Z" fill="#F3BBAA"/>
<path d="M12.8867 17.9896L13.1247 17.6754L13.2342 17.2629L13.8864 16.379C13.8864 16.379 14.629 16.3648 14.6861 16.4108C14.8574 16.5472 14.2228 16.698 14.2228 16.698L13.1993 18.299L12.8867 17.988V17.9896Z" fill="#F3BBAA"/>
<path d="M12.3529 12.9566L13.643 17.3836L13.7366 18.6625L9.29688 23.0816L9.63009 23.6417L14.4078 19.0418V17.2567L13.4795 12.5615L12.3529 12.9566Z" fill="#505D5E"/>
<path d="M13.4829 18.6895H14.016C14.016 18.6895 14.838 18.1881 14.9601 17.8485C15.0506 17.5978 14.8856 16.5918 14.8856 16.5918C14.8856 16.5918 14.0335 16.6346 13.9605 16.7187C13.8875 16.8028 13.1719 18.1817 13.1719 18.1817L13.4829 18.6911V18.6895Z" fill="#F3BBAA"/>
<path d="M19.4827 27.3965L19.1924 27.7059C19.1924 27.7059 18.8068 28.4755 18.8512 28.6627C18.8941 28.8499 19.5415 28.0296 19.5415 28.0296L19.4843 27.3965H19.4827Z" fill="#F3BBAA"/>
<path d="M9.86388 53.04L11.0968 53.1559L11.5839 53.7239L13.0627 54.4935L13.1992 54.7966L11.4157 54.6379L9.77344 54.3967L9.86388 53.04Z" fill="#3D3542"/>
<path d="M14.1245 53.3467L15.3574 53.4435L15.8541 54.0052L17.344 54.7525L17.4852 55.0524L15.7001 54.9223L14.0547 54.7049L14.1245 53.3467Z" fill="#3D3542"/>
<path d="M7.69922 22.4072L9.73977 22.8706L9.82386 23.4592L7.69922 25.038V22.4072Z" fill="#505D5E"/>
<g style="mix-blend-mode:multiply" opacity="0.3">
<path d="M10.6953 10.6178C10.6953 10.6178 11.7394 12.3093 11.9504 13.4057C11.9504 13.4057 13.8323 13.063 13.9862 12.9615C14.1401 12.8599 13.6467 10.6178 13.6467 10.6178L13.2896 9.93555L10.6969 10.6178H10.6953Z" fill="#505D5E"/>
</g>
<g style="mix-blend-mode:multiply" opacity="0.3">
<path d="M7.69922 22.4072L9.73977 22.8706L9.82386 23.4592L7.69922 25.038V22.4072Z" fill="#505D5E"/>
</g>
<g style="mix-blend-mode:multiply" opacity="0.5">
<path d="M19.3518 24.1301L19.1836 24.1206L19.4549 19.3016L19.3201 14.954L19.4882 14.9492L19.6231 19.3032L19.3518 24.1301Z" fill="#87806E"/>
</g>
<g style="mix-blend-mode:multiply" opacity="0.5">
<path d="M11.4827 14.9186L10.0859 17.7734L10.237 17.8474L11.6338 14.9925L11.4827 14.9186Z" fill="#87806E"/>
</g>
<g style="mix-blend-mode:color-burn" opacity="0.7">
<path d="M10.2437 18.8643L9.9216 19.6783L10.0819 20.8096L9.63281 21.0889V19.5513L10.2437 18.8643Z" fill="#F3BBAA"/>
</g>
<g style="mix-blend-mode:multiply" opacity="0.7">
<path d="M20.1366 24.1299L19.9922 24.6821L21.2521 24.1299H20.1366Z" fill="#F3BBAA"/>
</g>
<path d="M59.0214 51.7981L56.3541 35.5816L57.4045 25.4614L50.2578 24.8965L52.3349 37.2223L58.063 51.7981H59.0214Z" fill="#87806E"/>
<path d="M47.1397 25.3018L45.4102 34.4017L46.1718 52.8936H47.0762L49.788 35.0697L54.088 26.2348L47.1397 25.3018Z" fill="#87806E"/>
<path d="M46.0315 15.6628C46.1949 13.7206 46.0965 11.7801 45.6205 9.83789C44.5891 10.3917 43.3277 11.1136 43.1404 11.4294C42.9151 11.807 42.6533 15.1979 42.5026 17.3828C42.455 18.081 42.6708 18.7712 43.1071 19.3187L46.325 23.349L47.2929 22.105L46.0315 15.6612V15.6628Z" fill="#72A0AF"/>
<path d="M54.037 13.6446L53.7768 13.7176C53.7276 13.2923 53.6879 12.8607 53.6244 12.4307C53.4626 11.32 52.866 10.2125 53.3499 9.14459C51.9901 8.82407 50.6906 8.56543 50.6906 8.56543L47.0014 9.12238C47.0014 9.12238 46.3715 9.43655 45.6193 9.83958C45.8748 10.8837 45.5464 12.0388 45.6019 13.0829C45.6543 14.0667 45.7574 15.0203 45.7875 15.9755L45.2734 16.1215L45.6749 18.1731C45.6527 18.3096 45.6305 18.4476 45.6019 18.5857L45.7574 18.592L46.8284 24.0615L46.6063 26.1306L50.5462 26.6067L57.8166 26.1306V18.7333L54.0386 13.6446H54.037Z" fill="#72A0AF"/>
<path d="M47.0566 6.84615C47.0566 6.84615 47.8769 6.8636 47.623 8.23613C47.5723 8.51381 47.4136 8.75817 47.1835 8.9216C47.0645 9.0057 46.9074 9.10566 46.7012 9.21991C46.7012 9.21991 46.4727 11.197 50.9822 8.61854L49.8302 7.9283C49.8302 7.9283 48.8417 6.8874 49.0003 5.32129L47.0582 6.84615H47.0566Z" fill="#F3BBAA"/>
<g style="mix-blend-mode:multiply" opacity="0.7">
<path d="M49.2111 6.88166C49.0508 6.46118 48.9366 5.93121 48.9985 5.32031L47.8719 6.24856L47.207 7.04986C47.4212 7.22599 47.7338 7.56714 47.6418 8.12884C48.102 7.93843 48.9382 7.41798 49.2111 6.88166Z" fill="#F3BBAA"/>
</g>
<path d="M50.5412 2.18951C50.5999 1.81187 50.2667 1.49769 49.9668 1.26127C49.7066 1.05658 49.4463 0.850301 49.1687 0.669413C48.8846 0.483764 48.5831 0.325091 48.2706 0.196565C47.9326 0.0569316 47.5597 -0.050967 47.2027 0.0251965C46.6648 0.141029 46.2729 0.645612 45.7334 0.758271C45.6921 0.766205 45.6493 0.772551 45.608 0.778898C45.5429 0.870929 45.4763 0.96296 45.4128 1.05816C45.159 1.43264 45.0653 1.79759 44.9416 2.22918C44.8067 2.69727 44.7448 3.03366 44.8813 3.50333C45.0177 3.97459 45.0717 4.37287 44.9987 4.85523C45.0304 4.979 45.1145 5.09166 45.2351 5.08372C45.3462 5.07579 45.4208 4.96789 45.4874 4.87745C45.6794 4.61881 45.9523 4.42047 46.2586 4.3205C46.3125 4.30305 46.3728 4.28718 46.4284 4.30622C46.514 4.33478 46.5537 4.43157 46.6203 4.49504C46.8266 4.69021 47.2011 4.49504 47.4375 4.6553C47.5184 4.70925 47.5692 4.79811 47.6263 4.87745C47.8628 5.20273 48.2674 5.39949 48.6688 5.38521C49.0703 5.37092 49.459 5.14719 49.6732 4.80604L49.6463 4.72671C49.532 4.4998 49.6748 4.22847 49.843 4.03806C50.0112 3.84765 50.2207 3.66835 50.2683 3.41923C50.3032 3.23517 50.2429 3.04159 50.2762 2.85753C50.319 2.6211 50.5079 2.42911 50.5459 2.1911L50.5412 2.18951Z" fill="#3D3541"/>
<path d="M45.4314 2.35602C45.2902 2.53691 45.2061 2.75588 45.1775 2.98437C45.1236 3.42865 45.0268 4.73454 44.9696 5.30418C44.8871 6.12611 45.8852 8.00799 46.6992 8.19998C47.3561 8.3539 47.9971 8.14444 48.7366 6.29589C49.476 4.44734 48.9936 2.78761 48.9936 2.78761C48.9936 2.78761 48.1114 1.73243 47.1657 1.73243C46.531 1.73243 46.0248 1.59438 45.4298 2.35602H45.4314Z" fill="#F3BBAA"/>
<path d="M48.9046 4.37405C48.9046 4.37405 49.4742 3.54259 49.901 4.06939C50.3279 4.59619 49.1886 6.82556 48.6428 5.14361C48.0969 3.46167 48.903 4.37405 48.903 4.37405H48.9046Z" fill="#F3BBAA"/>
<path d="M45.7734 6.25682L47.3586 6.0918C47.3586 6.0918 47.3221 6.70745 46.7604 6.83122C46.1987 6.95498 45.7734 6.25682 45.7734 6.25682Z" fill="#A57474"/>
<path d="M45.2785 3.37056C45.2118 3.27377 45.8243 2.90089 46.0449 3.06432C46.2654 3.22776 46.1083 3.42769 45.9909 3.32772C45.818 3.18015 45.3229 3.43403 45.2785 3.37056Z" fill="#3D3541"/>
<path d="M47.9547 3.64717C48.0467 3.57101 47.4802 3.04897 47.2105 3.15211C46.9407 3.25525 47.0629 3.49008 47.2105 3.42344C47.4263 3.32348 47.896 3.69795 47.9563 3.64717H47.9547Z" fill="#3D3541"/>
<path d="M45.6024 3.82016C45.6024 3.82016 45.6754 3.55994 45.8294 3.62182C45.9833 3.6837 46.0404 3.93758 45.8627 4.04707C45.685 4.15655 45.5913 3.95345 45.6024 3.81857V3.82016Z" fill="#3D3541"/>
<path d="M47.247 3.9354C47.247 3.9354 47.32 3.67517 47.4739 3.73705C47.6278 3.79894 47.6849 4.05282 47.5072 4.1623C47.3279 4.27179 47.2359 4.06868 47.247 3.93381V3.9354Z" fill="#3D3541"/>
<path d="M46.519 4.06543C46.519 4.06543 46.5079 4.50972 46.1572 4.83976C45.9351 5.04762 45.4257 5.3729 46.035 5.57442C46.7856 5.82354 46.519 4.06543 46.519 4.06543Z" fill="#DD9483"/>
<path d="M46.5312 15.2436L53.4352 13.8965L56.3389 22.7441L49.1637 24.2722L46.5312 15.2436Z" fill="#C6B1AB"/>
<path d="M46.0781 15.8677L52.982 14.5205L55.8842 23.3682L48.7089 24.8962L46.0781 15.8677Z" fill="#505D5E"/>
<path d="M49.0264 21.7348L47.9379 21.9458C47.9379 21.9458 47.4111 21.6491 47.2762 21.5031C47.1429 21.3571 47.1826 20.5876 47.2175 20.5511C47.2524 20.5162 47.6888 20.7764 47.9585 20.8129C48.2283 20.8478 48.7995 20.8478 48.7995 20.8478L49.0248 21.7332L49.0264 21.7348Z" fill="#F3BBAA"/>
<path d="M47.9647 20.9414C48.1075 20.9494 47.8854 20.5765 47.6505 20.4416C47.4585 20.3321 47.2602 20.2464 47.3649 20.4416C47.4697 20.6368 47.5553 20.7748 47.5553 20.7748" fill="#F3BBAA"/>
<path d="M48.7416 22.6232C48.5909 22.6026 47.5611 22.5772 47.707 22.4344C47.7546 22.3884 47.9974 22.2075 47.9609 22.1075C47.9609 22.1075 47.8943 22.098 47.3754 22.2678C47.2961 22.2932 47.2167 22.3027 47.139 22.3027L46.6328 22.9533L46.847 23.0405L47.1501 23.2706C47.1501 23.2706 47.7864 23.5086 48.0593 23.5086C48.3322 23.5086 48.6432 23.05 48.6432 23.05C48.6432 23.05 48.8923 22.6454 48.7416 22.6248V22.6232Z" fill="#F3BBAA"/>
<path d="M45.8993 51.4629L47.2655 51.6501L47.0782 54.365L43.543 54.7585C43.543 54.7585 43.6778 53.0322 46.0088 53.0258L45.8993 51.4629Z" fill="#3D3542"/>
<path d="M57.4494 50.4087L58.8108 50.1865L59.3804 52.8443L55.9848 54.1534C55.9848 54.1534 55.7896 52.5619 58.0158 51.8701L57.451 50.4087H57.4494Z" fill="#3D3542"/>
<g style="mix-blend-mode:multiply">
<path d="M50.9592 28.2236L50.793 28.249L51.3776 32.065L51.5438 32.0396L50.9592 28.2236Z" fill="#87806E"/>
</g>
<g style="mix-blend-mode:multiply" opacity="0.7">
<path d="M48.186 20.7188L48.0273 20.8203L48.186 21.8993L48.6065 21.8279L48.186 20.7188Z" fill="#F3BBAA"/>
</g>
<path d="M58.8055 15.4959C58.7198 15.0691 58.5817 14.6549 58.3977 14.2598C57.8375 13.0682 56.6142 10.4691 56.4047 10.1137C56.2651 9.87724 54.7751 9.47738 53.3534 9.14258C52.2395 11.5957 53.0932 14.3265 54.718 16.586C54.7228 16.5939 54.7259 16.6018 54.7307 16.6114L55.367 18.6836L47.9648 20.6338L48.4583 22.1047L57.9439 21.2986C58.3278 21.2653 58.6642 21.0273 58.8213 20.675L59.3846 19.4151C59.4814 19.1993 59.5084 18.9566 59.4608 18.7249L58.807 15.4943L58.8055 15.4959Z" fill="#72A0AF"/>
<g style="mix-blend-mode:multiply" opacity="0.7">
<path d="M47.139 22.3037L46.847 23.0415L46.6328 22.9527L47.139 22.3037Z" fill="#F3BBAA"/>
</g>
<g style="mix-blend-mode:multiply">
<path d="M55.1979 18.7361L55.885 18.5743C55.885 18.5743 53.708 14.7915 53.4414 13.5459" stroke="#72A0AF" stroke-miterlimit="10"/>
</g>
<g style="mix-blend-mode:multiply">
<path d="M47.1403 21.8982L45.7266 18.3265L45.8646 16.5938" stroke="#72A0AF" stroke-miterlimit="10"/>
</g>
<path d="M34.1781 13.141C34.9064 12.8427 32.7009 13.5361 32.2566 14.5659C31.8186 15.5814 32.6152 20.6288 32.6152 21.4428C32.6152 22.2568 32.0312 27.766 32.0312 27.766L32.8817 27.7454C32.8817 27.7454 33.5545 24.6433 33.6101 23.8325C33.6704 22.9724 34.405 23.2374 34.9509 16.8476L34.1765 13.141H34.1781Z" fill="#F3BBAA"/>
<g style="mix-blend-mode:multiply" opacity="0.7">
<path d="M32.1914 17.1705L33.2672 18.3225L33.3053 17.1182L32.1914 17.1705Z" fill="#F3BBAA"/>
</g>
<path d="M44.6478 26.792C44.6478 26.792 44.7318 22.338 44.2273 21.3796C43.7227 20.4212 41.7266 17.4873 41.7266 17.4873L42.0344 25.7368L44.6493 26.792H44.6478Z" fill="#505D5E"/>
<path d="M42.128 24.7197C42.128 24.7197 44.6478 26.1748 44.6478 26.7888C44.6478 27.4029 44.3939 28.8294 43.8068 28.9627C43.2181 29.096 41.7266 28.9881 41.7266 28.9881L42.1296 24.7197H42.128Z" fill="#87806E"/>
<path d="M42.128 24.7197C42.128 24.7197 44.6478 26.1748 44.6478 26.7888C44.6478 27.4029 44.3939 28.8294 43.8068 28.9627C43.2181 29.096 41.7266 28.9881 41.7266 28.9881L42.1296 24.7197H42.128Z" fill="#505D5E"/>
<g style="mix-blend-mode:multiply" opacity="0.5">
<path d="M42.128 24.7178C42.128 24.7178 44.6478 26.1728 44.6478 26.7869C44.6478 27.401 44.3939 28.8274 43.8068 28.9607C43.2181 29.094 41.7266 28.9861 41.7266 28.9861L42.1296 24.7178H42.128Z" fill="#505D5E"/>
</g>
<path d="M42.5495 50.4648L41.3769 38.5975L43.208 31.3144C43.3238 30.8511 43.3571 30.3719 43.3063 29.8974L42.9239 26.3828L37.7448 26.9191L37.2148 38.6816L40.5518 50.4648H42.5511H42.5495Z" fill="#72A0AF"/>
<path d="M39.1799 28.7995C39.1799 28.7995 38.6706 29.6199 38.5881 29.4088C38.5071 29.1994 38.9467 28.5107 38.9467 28.5107" fill="#F3BBAA"/>
<path d="M36.6878 50.4652L37.0067 37.4063L38.9521 27.048L34.3775 26.5498L32.832 36.3574L34.7869 50.4652H36.6878Z" fill="#72A0AF"/>
<path d="M41.6291 12.6468C41.0785 12.2977 38.7396 11.7344 38.7396 11.7344L37.4083 13.9415L35.6661 12.4976L34.1746 13.1371C34.1746 13.1371 32.9861 16.4422 33.2225 18.0702C33.4113 19.3745 34.6871 23.2732 34.6109 24.0491C34.5348 24.8234 34.4507 27.0464 34.4507 27.0464L41.5989 26.6005L41.618 26.7545L42.9223 26.5498L42.1702 21.6817L43.1317 14.2494C43.1317 14.2494 42.1194 12.9593 41.6291 12.6499V12.6468Z" fill="#F37D59"/>
<path d="M34.4459 13.0006C34.4459 13.0006 33.5081 16.3693 33.4177 16.9992C33.3701 17.334 33.2907 18.083 33.2273 18.7145C33.1606 19.3714 33.232 20.0331 33.4399 20.6598C33.816 21.7991 34.4031 23.6857 34.4459 24.5061C34.511 25.7215 34.4459 28.968 34.4459 28.968L42.6398 28.2857C42.6398 28.2857 41.0658 23.6143 41.0118 22.6163C40.9595 21.6182 38.8951 17.6482 38.9665 17.0897C39.0633 16.328 39.387 14.754 39.387 14.754L40.2835 12.1549L39.9868 12.0645C39.9868 12.0645 38.9475 14.3494 38.7983 15.2062C38.6619 15.9948 38.2096 17.2055 38.2096 17.2055L36.0295 17.3102L34.0571 17.1087L34.1698 16.2154L34.7728 12.8864L34.4459 13.0006Z" fill="#72A0AF"/>
<g style="mix-blend-mode:multiply" opacity="0.5">
<path d="M33.8516 19.8096C33.8516 19.8096 36.6284 20.0619 36.6918 20.0619C36.7553 20.0619 38.3119 19.9349 38.3119 19.9349L39.091 23.0703H34.6941L33.8532 19.8096H33.8516Z" fill="#617693"/>
</g>
<path d="M33.7617 22.4912L41.6065 22.807L41.332 28.4399L33.3047 27.81L33.7617 22.4912Z" fill="#505D5E"/>
<path d="M41.8703 29.7522L32.6133 29.1762L33.6082 23.832L42.1702 23.9066L41.8703 29.7522Z" fill="#87806E"/>
<path d="M32.7828 27.5596C32.7828 27.5596 32.932 27.7817 32.9796 27.8991C33.0843 28.1578 33.3794 28.61 33.3302 28.6671C33.1906 28.829 32.8288 28.4386 32.8288 28.4386L32.613 29.4494C32.613 29.4494 32.0783 29.946 31.6721 29.6985C31.5452 29.6207 31.5039 29.2352 31.5039 29.2352C31.5039 29.2352 31.6007 29.0844 31.7451 28.7829C31.8546 28.5545 32.0275 27.7643 32.0275 27.7643L32.7828 27.5596Z" fill="#F3BBAA"/>
<path d="M39.8934 28.2301L40.1029 28.9648L40.2774 29.7169L39.1223 29.7502C39.1223 29.7502 38.9747 29.0425 38.9176 28.9632C38.8605 28.8838 38.9493 28.2507 38.9493 28.2507L39.8918 28.2285L39.8934 28.2301Z" fill="#F3BBAA"/>
<path d="M33.8118 7.96883C33.8705 8.73205 33.8879 9.49845 33.8625 10.2633C33.8435 10.8139 33.8054 11.3787 33.9752 11.9039C34.4893 11.7199 35.0573 11.6834 35.5905 11.804C35.9364 11.8817 36.2664 12.023 36.6155 12.0737C37.8024 12.2483 38.8687 11.3898 39.762 10.587C39.8572 10.5013 39.9588 10.4076 39.9889 10.2823C40.0223 10.1443 39.962 10.0014 39.8969 9.87451C39.6954 9.47465 39.4494 9.09859 39.1654 8.75268C39.029 8.58766 38.8798 8.42422 38.8084 8.22112C38.7227 7.98311 38.7529 7.71971 38.7735 7.46742C38.8306 6.76132 38.7894 6.02349 38.4752 5.38879C38.1594 4.75409 37.5216 4.24316 36.8123 4.24316C36.5203 4.24316 36.2363 4.32726 35.9554 4.40977C35.5905 4.51767 35.2271 4.62557 34.8622 4.73347C34.5559 4.82391 34.237 4.92229 34.0133 5.15078C33.642 5.52842 33.6531 6.12821 33.688 6.6566C33.7308 7.29764 33.7737 7.93868 33.8165 8.57973" fill="#3D3541"/>
<path d="M38.6215 11.6413C38.6215 11.6413 37.4759 10.3767 37.6346 8.81055L36.005 10.1529C36.005 10.1529 37.2188 10.4227 36.5334 12.0205C36.5334 12.0205 36.4334 12.2998 35.6702 12.4997C35.6702 12.4997 35.3623 13.0138 35.2418 13.7723C35.091 14.7291 35.2957 15.8811 36.5968 15.432C37.898 14.983 39.2689 11.8698 39.2689 11.8698L38.6215 11.6413Z" fill="#F3BBAA"/>
<g style="mix-blend-mode:multiply" opacity="0.7">
<path d="M37.8441 10.3748C37.6838 9.95434 37.5696 9.42437 37.6315 8.81348L36.5049 9.74172L36.3906 10.3574C36.6048 10.5335 36.8095 10.854 36.7159 11.4157C37.0682 11.192 37.5125 10.8461 37.8441 10.3748Z" fill="#F3BBAA"/>
</g>
<path d="M34.0632 5.92508C33.922 6.08217 33.8379 6.27099 33.8093 6.46933C33.7554 6.85332 33.6586 7.98467 33.6015 8.47815C33.5189 9.18901 34.801 11.0201 35.5452 10.9693C35.7245 10.9566 36.6861 10.7964 37.3684 9.33657C38.1141 7.74031 37.6254 6.29955 37.6254 6.29955C37.6254 6.29955 36.7432 5.38559 35.7975 5.38559C35.1628 5.38559 34.6566 5.265 34.0616 5.92508H34.0632Z" fill="#F3BBAA"/>
<path d="M37.5698 8.05884C37.5698 8.05884 37.9189 7.36544 38.2997 7.72404C38.6805 8.08264 38.0395 9.90422 37.4492 8.6745C36.8589 7.44477 37.5698 8.05884 37.5698 8.05884Z" fill="#F3BBAA"/>
<path d="M34.4062 9.40818L35.9914 9.24316C35.9914 9.24316 35.9549 9.85882 35.3932 9.98259C34.8315 10.1064 34.4062 9.40818 34.4062 9.40818Z" fill="#A57474"/>
<path d="M33.9113 7.02486C33.8446 6.92807 34.4571 6.55518 34.6777 6.71862C34.8982 6.88205 34.7412 7.08198 34.6237 6.98202C34.4508 6.83445 33.9557 7.08833 33.9113 7.02486Z" fill="#3D3541"/>
<path d="M36.5836 7.30928C36.6756 7.23312 36.1091 6.71108 35.8394 6.81422C35.5697 6.91736 35.6918 7.15219 35.8394 7.08555C36.0552 6.98559 36.5249 7.36006 36.5852 7.30928H36.5836Z" fill="#3D3541"/>
<path d="M34.2353 7.47837C34.2353 7.47837 34.3083 7.21814 34.4622 7.28002C34.6161 7.34191 34.6732 7.59578 34.4955 7.70527C34.3162 7.81475 34.2242 7.61165 34.2353 7.47678V7.47837Z" fill="#3D3541"/>
<path d="M35.8798 7.58969C35.8798 7.58969 35.9528 7.32947 36.1067 7.39135C36.2606 7.45323 36.3177 7.70711 36.14 7.8166C35.9607 7.92608 35.8687 7.72298 35.8798 7.58811V7.58969Z" fill="#3D3541"/>
<path d="M34.9838 7.72461C34.9838 7.72461 34.9727 8.00864 34.6221 8.21967C34.3999 8.35296 33.8906 8.56082 34.4999 8.68935C35.2504 8.84802 34.9838 7.72461 34.9838 7.72461Z" fill="#DD9483"/>
<path d="M37.8456 8.94701C37.8833 8.94701 37.9138 8.91646 37.9138 8.87878C37.9138 8.84109 37.8833 8.81055 37.8456 8.81055C37.8079 8.81055 37.7773 8.84109 37.7773 8.87878C37.7773 8.91646 37.8079 8.94701 37.8456 8.94701Z" fill="#3D3541"/>
<path d="M33.9074 5.83452C33.7249 6.1598 34.7896 5.23156 35.6321 5.49655C36.0241 5.62031 36.3827 5.83611 36.6857 6.1122C37.2014 6.58188 37.6156 7.21816 37.6203 7.91474C38.1281 7.20388 38.0884 6.15028 37.5283 5.47909L36.5953 4.93643C36.5953 4.93643 34.6198 4.5572 33.9074 5.83452Z" fill="#3D3541"/>
<path d="M33.8472 5.81653C33.8266 5.86731 33.8187 5.88794 33.844 5.93395C33.8536 5.95141 33.8774 5.96727 33.898 5.96569C34.3216 5.91332 34.6739 5.57376 35.1214 5.53092C36.3495 5.41509 37.4777 6.77968 37.5586 7.91262C37.5634 7.9745 37.6411 7.99989 37.676 7.94435C38.4297 6.75271 37.941 5.3421 36.6288 4.88036C35.6894 4.55031 34.374 4.97873 33.8536 5.80067C33.8107 5.8689 33.9186 5.93237 33.963 5.86414C35.0722 4.11079 38.4472 4.94541 37.8506 7.26047C37.8315 7.33663 37.7014 7.70475 37.6728 7.69682C37.6855 7.69999 37.5459 7.39217 37.6459 7.55401C37.5126 7.33504 37.4856 7.02722 37.3428 6.79396C37.0699 6.3465 36.6764 5.95775 36.2242 5.69277C35.8751 5.48808 35.5054 5.34844 35.096 5.39763C34.8802 5.42302 34.0694 5.6055 33.9694 5.84827C33.9995 5.77369 33.879 5.74037 33.8472 5.81495V5.81653Z" fill="#3D3541"/>
<path d="M36.9665 5.06687C36.4794 5.5413 35.8336 5.81105 35.2037 6.0681C34.7451 6.25533 34.2627 6.44416 33.7708 6.38386C33.2805 6.32356 32.795 5.91736 32.8299 5.42388C32.8553 5.06369 33.1488 4.76697 33.4836 4.63369C33.8184 4.5004 34.1897 4.5004 34.5499 4.51309C35.5639 4.54959 36.5746 4.67177 37.5679 4.87963" fill="#3D3541"/>
<path d="M36.9238 5.02274C36.4129 5.47654 35.8194 5.75581 35.1895 6.0081C34.9594 6.10013 34.7278 6.20169 34.485 6.25405C34.1327 6.36353 33.771 6.34449 33.3981 6.19851C32.9062 5.34961 32.9538 4.85137 33.5425 4.7038C34.0423 4.42612 34.9086 4.58638 35.464 4.63399C36.1669 4.69428 36.8619 4.80377 37.5537 4.94181C37.6331 4.95768 37.6664 4.8355 37.5871 4.81963C36.7509 4.65303 32.381 3.65179 32.784 5.63681C33.1664 7.51392 36.2923 5.74946 37.0111 5.11159C37.0714 5.05764 36.9825 4.96879 36.9222 5.02274H36.9238Z" fill="#3D3541"/>
<path d="M40.2773 14.6426L39.5093 19.7868L38.9492 28.2536L39.7029 28.6678L39.8933 28.2298L41.323 22.251L42.5226 18.0652L42.8383 15.7898L40.2773 14.6426Z" fill="#F3BBAA"/>
<path d="M39.0966 28.5586L38.922 28.7141C38.922 28.7141 38.5825 29.4361 38.7205 29.5233C38.8586 29.6106 39.214 28.8204 39.214 28.8204L39.0982 28.5602L39.0966 28.5586Z" fill="#F3BBAA"/>
<path d="M40.1264 13.3096C40.1264 13.3096 39.5377 14.7122 39.5377 14.9582C39.5377 15.2041 39.2695 17.4875 39.2695 17.4875L43.0365 17.1701L43.1332 14.4203L40.1264 13.3112V13.3096Z" fill="#F37D59"/>
<path d="M33.2529 17.4825L31.4805 16.9557C31.4805 16.9557 32.2072 14.4566 32.4389 14.0742C32.7626 13.5395 34.3779 13.0508 34.3779 13.0508L33.5401 15.4737L33.2529 17.4825Z" fill="#F37D59"/>
<path d="M43.8623 23.9436L42.8389 21.4619L41.8043 20.5781L41.625 21.2033C42.4691 22.0982 43.8623 23.9436 43.8623 23.9436Z" fill="#505D5E"/>
<path d="M39.7401 17.4449C39.7401 17.4449 40.086 15.2583 40.2764 14.6411C40.4668 14.0239 41.1983 12.4514 41.1983 12.4514L40.7143 12.2832L39.7861 14.3301C39.7861 14.3301 39.2656 16.6658 39.2656 17.0752C39.2656 17.3671 39.5116 18.2906 39.6544 18.7999L39.8194 17.6892L39.7369 17.4449H39.7401Z" fill="#505D5E"/>
<path d="M34.5768 49.9336L36.8618 49.54V54.4161L32.879 54.7572C32.879 54.7572 32.7315 53.3673 33.7089 53.1308C34.8656 52.85 35.1306 53.3117 35.1306 53.3117L34.5768 49.9336Z" fill="#3D3541"/>
<path d="M40.2722 49.9336L42.5571 49.54L42.7982 54.4796L38.5743 54.7572C38.5743 54.7572 38.4268 53.3673 39.4042 53.1308C40.5609 52.85 40.9941 53.3117 40.9941 53.3117L40.2722 49.9336Z" fill="#3D3541"/>
<g style="mix-blend-mode:multiply" opacity="0.5">
<path d="M39.7422 17.4446L42.5904 17.5794L42.6443 17.2002L39.7422 17.4446Z" fill="#F3BBAA"/>
</g>
</svg>
