<svg width="21" height="23" viewBox="0 0 21 23" fill="none" xmlns="http://www.w3.org/2000/svg">
<path d="M14.25 10.75C14.25 12.8211 12.5711 14.5 10.5 14.5C8.42887 14.5 6.75 12.8211 6.75 10.75M20.5 5.75L18 0.75H3L0.5 5.75M20.5 5.75H0.5H20.5ZM20.5 5.75V19.5C20.5 20.8808 19.3807 22 18 22H3C1.61929 22 0.5 20.8808 0.5 19.5V5.75" fill="white"/>
<path d="M14.25 10.75C14.25 12.8211 12.5711 14.5 10.5 14.5C8.42887 14.5 6.75 12.8211 6.75 10.75M20.5 5.75L18 0.75H3L0.5 5.75M20.5 5.75H0.5M20.5 5.75V19.5C20.5 20.8807 19.3807 22 18 22H3C1.61929 22 0.5 20.8807 0.5 19.5V5.75" stroke="#F19157" stroke-linecap="round" stroke-linejoin="round"/>
</svg>
