<svg width="59" height="62" viewBox="0 0 59 62" fill="none" xmlns="http://www.w3.org/2000/svg">
<g opacity="0.82" filter="url(#filter0_ddii_621_10771)">
<path d="M13.9373 53.1771C11.8877 53.2175 10.2621 52.5091 9.22833 50.6468C8.78673 49.852 8.592 49.0193 8.59425 48.1193C8.60885 42.1974 8.61055 36.2759 8.63623 30.3534C8.64189 28.9595 8.52944 27.5539 8.84749 26.1757C9.35739 23.9743 11.3796 22.4113 13.6225 22.4317C15.3222 22.4467 17.023 22.4196 18.724 22.4385C19.304 22.4444 19.6866 22.2164 19.9987 21.7378C22.0141 18.6344 24.0447 15.5419 26.0737 12.4473C26.3631 12.0065 26.5581 11.5879 26.3929 11.0104C26.1833 10.2753 26.4701 9.58615 27.0747 9.16866C27.6036 8.8031 28.2615 8.91353 28.8064 9.24065C29.4613 9.63368 29.6155 10.2908 29.4725 10.9928C29.3769 11.4576 29.4871 11.7459 29.8107 12.1119C32.5836 15.2468 35.334 18.4012 38.0558 21.5799C38.6424 22.2645 39.2753 22.5448 40.1776 22.4959C42.1208 22.39 44.0639 22.5083 46.0049 22.6301C48.9237 22.8126 50.5558 25.2249 50.5538 27.7235C50.5493 31.7008 50.5044 35.6772 50.489 39.6532C50.4772 42.4777 50.4821 45.3004 50.4904 48.1253C50.5016 51.2134 48.2341 53.1359 46.0855 53.3026C44.6654 53.4134 43.2325 53.3629 41.8045 53.3661C39.1048 53.3723 36.4059 53.3712 33.7082 53.3592C31.0968 53.3479 28.4845 53.3127 25.8729 53.3032C22.7765 53.2914 19.6794 53.3015 16.5834 53.2861C15.7039 53.2807 14.8241 53.2146 13.9448 53.1761L13.9373 53.1771ZM37.7688 22.4803C36.4892 20.9664 35.4114 19.6632 34.3034 18.384C32.6372 16.4601 30.9304 14.5702 29.2805 12.6335C28.6976 11.9493 27.3375 11.9218 26.8368 12.6819C25.5371 14.6567 24.2375 16.6315 22.9517 18.6134C22.1684 19.8188 21.4073 21.0396 20.5347 22.4148C26.34 22.4363 31.9432 22.4584 37.7688 22.4803ZM40.4457 41.8021C40.9402 43.7367 41.3734 45.4051 41.7933 47.0775C42.1891 48.6553 42.1852 48.6254 43.8304 48.682C44.4546 48.7022 44.7653 48.5247 44.9242 47.909C45.661 45.0594 46.4316 42.2191 47.188 39.3754C47.2331 39.206 47.3372 38.9075 47.1595 38.8871C46.5318 38.8169 45.8893 38.7799 45.263 38.8421C44.8504 38.8829 44.9046 39.3558 44.84 39.6626C44.4154 41.6643 44.0088 43.67 43.5426 45.9389C42.9952 43.6969 42.4913 41.7319 42.0457 39.7553C41.9035 39.1216 41.7289 38.6735 40.9577 38.7815C40.2256 38.8849 39.3601 38.4861 39.0899 39.7357C38.6581 41.7366 38.0328 43.6951 37.4202 45.927C37.0049 43.9262 36.6373 42.1826 36.2848 40.4353C35.9464 38.7575 35.9537 38.7896 34.2638 38.7537C33.5233 38.7385 33.4869 38.9915 33.6534 39.6059C34.3059 42.0051 34.9297 44.4138 35.5366 46.826C36.0286 48.7823 36.0097 48.7709 38.0693 48.627C38.4657 48.599 38.646 48.5168 38.752 48.1064C39.2747 46.081 39.8351 44.0637 40.4495 41.8008L40.4457 41.8021ZM19.5132 44.8729C19.4289 44.8872 19.3448 44.8995 19.2623 44.914C18.2413 43.3398 17.1204 41.8203 16.2308 40.1748C15.5668 38.9484 14.728 38.5085 13.3959 38.7011C12.9792 38.7616 12.8141 38.8235 12.8149 39.2646C12.8182 42.1496 12.8142 45.0337 12.7791 47.9162C12.7728 48.4519 12.9626 48.6225 13.4605 48.575C13.7003 48.551 13.9486 48.5483 14.1876 48.5794C14.7961 48.6566 14.9346 48.4098 14.9281 47.8101C14.9023 45.922 14.9573 44.034 14.9845 41.8764C16.311 43.8936 17.5379 45.6586 18.6462 47.4964C19.1617 48.3511 19.7192 48.7127 20.7386 48.635C21.4577 48.5816 21.673 48.4023 21.6693 47.6982C21.6536 44.9055 21.6859 42.1109 21.6997 39.3179C21.6999 39.1397 21.7702 38.8795 21.5842 38.8196C20.9958 38.6308 20.3637 38.6795 19.7822 38.7836C19.3394 38.8633 19.5361 39.3911 19.5315 39.7195C19.5107 41.4368 19.5176 43.1537 19.5154 44.8695L19.5132 44.8729ZM28.8627 38.6519C25.8867 38.2956 23.6516 40.016 23.2984 42.9336C22.92 46.054 24.5225 48.4042 27.2607 48.7516C30.1655 49.1199 32.5256 47.3183 32.8651 44.4726C33.2292 41.413 31.5524 38.9734 28.8609 38.6516L28.8627 38.6519ZM22.8579 31.1479C22.9032 31.1531 22.9486 31.1583 22.9941 31.1617C23.1897 32.1947 23.3817 33.2273 23.5812 34.2589C23.6492 34.6103 23.6624 34.9756 24.2206 34.9313C24.6766 34.8954 24.9055 34.7747 24.9945 34.287C25.2809 32.7048 25.6246 31.1348 25.9289 29.5565C25.9732 29.3301 26.16 28.9675 25.6673 28.9698C25.3474 28.9717 24.9655 28.9058 24.9139 29.4033C24.8898 29.6449 24.8385 29.8834 24.8109 30.1245C24.7083 31.002 24.6092 31.8818 24.5084 32.7595C24.4103 32.7501 24.3103 32.7404 24.2122 32.731C24.0298 31.7271 23.8361 30.7255 23.6724 29.7183C23.5992 29.2671 23.5179 28.9674 22.9224 28.9689C22.2903 28.9699 22.3551 29.3815 22.2786 29.7439C22.0653 30.7538 21.8611 31.7648 21.6514 32.7751C21.2804 31.6375 21.0871 30.5203 20.9331 29.3965C20.8552 28.8272 20.479 28.9824 20.1269 28.9769C19.5968 28.9694 19.8257 29.2804 19.8698 29.5207C20.1803 31.153 20.5243 32.7817 20.7881 34.4215C20.8802 34.9962 21.2482 34.8473 21.5787 34.9128C21.9901 34.9949 22.0817 34.7886 22.1515 34.4365C22.3678 33.3369 22.6201 32.2433 22.8597 31.1481L22.8579 31.1479ZM29.615 32.6584C29.2907 32.4742 29.253 32.1465 29.1194 31.885C28.6919 31.0477 28.2608 30.21 27.8835 29.3509C27.658 28.8345 27.2562 28.9574 26.8822 28.9825C26.3787 29.0147 26.5756 29.4121 26.5724 29.68C26.5563 31.1976 26.5528 32.7167 26.5475 34.2356C26.5472 34.5901 26.4513 34.9778 27.053 34.9697C27.6255 34.9601 27.5749 34.6162 27.5725 34.2375C27.5632 33.2461 27.5704 32.2547 27.572 31.2646C28.2728 32.3464 28.8371 33.4162 29.3393 34.5156C29.5389 34.9537 29.8652 34.9765 30.2273 34.9593C30.7168 34.9364 30.5699 34.5356 30.5731 34.2677C30.5928 32.7192 30.5996 31.1711 30.5935 29.6234C30.5932 29.3698 30.7728 28.9899 30.2176 28.9923C29.7286 28.995 29.6037 29.203 29.6118 29.6448C29.6297 30.6409 29.6162 31.6389 29.6147 32.6603L29.615 32.6584ZM14.6184 32.3721C14.9112 29.7728 13.7311 28.625 11.1258 28.9286C10.7124 28.9767 10.7147 29.1974 10.7129 29.4691C10.7022 31.1307 10.7024 32.7935 10.6879 34.4565C10.6859 34.6988 10.7118 34.8249 11.0031 34.8803C13.0521 35.2772 14.3945 34.3546 14.6186 32.3703L14.6184 32.3721ZM48.0333 32.5071C48.3426 29.9244 47.2624 28.8339 44.6632 29.0372C44.2163 29.0723 44.1103 29.196 44.1158 29.6119C44.1323 31.2454 44.1211 32.8793 44.1136 34.5137C44.113 34.7267 44.0745 34.8859 44.3788 34.9722C46.2278 35.495 47.8013 34.4482 48.0351 32.5073L48.0333 32.5071ZM19.4397 32.3872C19.4815 31.7507 19.5082 31.1181 19.2873 30.4974C18.8914 29.3845 18.2609 28.8748 17.25 28.8782C16.4061 28.8824 15.7375 29.4414 15.3521 30.4463C14.966 31.4566 15.0091 32.4739 15.3405 33.4765C15.6627 34.4469 16.3614 34.9552 17.2887 34.9753C18.4489 35 19.282 34.0006 19.4399 32.3853L19.4397 32.3872ZM38.8909 32.4572C38.9921 31.7192 38.9307 30.9901 38.6394 30.3099C38.2976 29.51 37.746 28.9378 36.7933 28.9295C35.8518 28.9206 35.2673 29.4507 34.8986 30.2462C34.4467 31.2214 34.4192 32.2453 34.7001 33.2715C35.0069 34.3926 35.7828 35.0604 36.7244 35.0527C37.7099 35.0464 38.5044 34.32 38.7677 33.178C38.8224 32.9418 38.8503 32.6988 38.8889 32.4588L38.8909 32.4572ZM43.5607 34.9279C43.067 33.0505 42.5779 31.2452 42.1287 29.4279C42.0244 29.0081 41.8082 28.9869 41.4706 29.0309C41.133 29.0748 40.7864 28.9413 40.6537 29.4883C40.2621 31.108 39.7844 32.7086 39.3675 34.3235C39.3207 34.5074 38.9634 34.8669 39.4937 34.937C39.8304 34.9811 40.2484 35.1173 40.3773 34.5864C40.4055 34.4684 40.4539 34.3509 40.4602 34.2321C40.4854 33.7886 40.6749 33.5457 41.1515 33.6519C41.5654 33.7435 42.2178 33.3903 42.2685 34.1806C42.3219 35.0117 42.8257 35.0567 43.561 34.9261L43.5607 34.9279ZM32.1225 34.9508C32.5025 34.954 32.958 34.9714 33.4114 34.9591C33.7946 34.9498 34.2382 35.1514 34.2735 34.4113C34.3104 33.642 33.8531 33.8321 33.4773 33.8569C32.8478 33.8986 32.5725 33.72 32.6115 33.0116C32.6769 31.834 32.6126 30.6489 32.6361 29.4683C32.645 29.0541 32.4848 28.9457 32.1073 28.9685C31.8057 28.9872 31.5847 29.0078 31.5883 29.4087C31.6013 31.1042 31.5976 32.8015 31.5848 34.4977C31.5817 34.8446 31.6889 35.0149 32.1241 34.9528L32.1225 34.9508ZM28.7914 10.6518C28.7578 10.1445 28.5244 9.77602 27.9842 9.72871C27.395 9.67578 27.0578 10.0045 27.0255 10.5741C26.9938 11.1217 27.3459 11.4321 27.8547 11.4648C28.3819 11.4978 28.6861 11.1689 28.7914 10.6518Z" fill="#252438"/>
<path d="M40.4488 41.8016C39.8344 44.0645 39.2742 46.0801 38.7512 48.1073C38.6453 48.5177 38.4668 48.6001 38.0686 48.6279C36.009 48.7718 36.0279 48.7832 35.5359 46.8269C34.929 44.4146 34.3052 42.0059 33.6527 39.6068C33.4862 38.9924 33.5226 38.7394 34.2631 38.7545C35.953 38.7905 35.9475 38.7586 36.2841 40.4362C36.6366 42.1835 37.0042 43.9271 37.4194 45.9278C38.0321 43.696 38.6574 41.7375 39.0892 39.7366C39.3594 38.487 40.2231 38.8856 40.957 38.7824C41.7282 38.6743 41.9028 39.1225 42.045 39.7561C42.4906 41.7328 42.9945 43.6978 43.5419 45.9397C44.0081 43.6708 44.4165 41.6654 44.8392 39.6635C44.9038 39.3567 44.8495 38.8856 45.2623 38.843C45.8886 38.7807 46.5311 38.8177 47.1588 38.8879C47.3365 38.9083 47.2324 39.2069 47.1872 39.3763C46.4309 42.22 45.6603 45.0603 44.9235 47.9099C44.7646 48.5256 44.4521 48.7028 43.8297 48.6828C42.1842 48.6281 42.1884 48.6561 41.7925 47.0784C41.3727 45.406 40.9395 43.7375 40.445 41.803L40.4488 41.8016Z" fill="#EFBC29"/>
<path d="M19.5125 44.8722C19.5148 43.1546 19.508 41.4377 19.5285 39.7222C19.5331 39.3938 19.3365 38.866 19.7792 38.7863C20.3607 38.6822 20.9929 38.6335 21.5812 38.8223C21.7672 38.8822 21.6969 39.1424 21.6967 39.3206C21.6829 42.1136 21.6507 44.9082 21.6663 47.7009C21.67 48.405 21.4549 48.5824 20.7357 48.6377C19.7144 48.7152 19.1588 48.3538 18.6432 47.4991C17.5349 45.6613 16.3081 43.8963 14.9815 41.8791C14.9544 44.0367 14.8994 45.9247 14.9252 47.8127C14.9335 48.4127 14.7931 48.6593 14.1846 48.5821C13.9454 48.5528 13.6971 48.5555 13.4575 48.5777C12.9597 48.6252 12.7698 48.4546 12.7762 47.9189C12.8114 45.0346 12.8154 42.1504 12.8119 39.2673C12.8111 38.8262 12.9762 38.7643 13.3929 38.7037C14.7232 38.511 15.564 38.9493 16.2278 40.1775C17.1177 41.8211 18.2384 43.3425 19.2593 44.9167C19.3436 44.9024 19.4277 44.8901 19.5102 44.8756L19.5125 44.8722Z" fill="#EFBC29"/>
<path d="M28.8647 38.6527C31.5562 38.9745 33.2331 41.4122 32.8689 44.4737C32.5294 47.3193 30.1692 49.1209 27.2644 48.7526C24.5262 48.4053 22.9237 46.0551 23.3021 42.9346C23.6554 40.0171 25.8904 38.2966 28.8664 38.6529L28.8647 38.6527ZM25.6871 43.0614C25.5496 44.0194 25.6237 44.9429 26.1617 45.7782C26.6516 46.5363 27.3703 46.8539 28.2588 46.7961C29.1657 46.7385 29.8202 46.2551 30.1608 45.449C30.6378 44.3186 30.6406 43.1412 30.192 41.991C29.8243 41.0485 29.0818 40.5701 28.0739 40.5793C26.7517 40.5893 25.8714 41.5043 25.6871 43.0614Z" fill="#EFBC29"/>
<path d="M22.8587 31.1455C22.6209 32.2408 22.3668 33.3343 22.1505 34.4339C22.0807 34.786 21.9891 34.9923 21.5777 34.9102C21.2472 34.8447 20.8792 34.9935 20.7871 34.4189C20.5233 32.7791 20.1793 31.1503 19.8687 29.518C19.8226 29.2794 19.5958 28.9667 20.1259 28.9743C20.4799 28.98 20.8541 28.8246 20.9321 29.3939C21.0861 30.5176 21.2776 31.6347 21.6504 32.7725C21.8582 31.762 22.0643 30.7512 22.2776 29.7412C22.3541 29.3789 22.2911 28.9674 22.9214 28.9663C23.5187 28.965 23.5982 29.2645 23.6714 29.7157C23.8351 30.7229 24.0306 31.7247 24.2112 32.7284C24.3093 32.7378 24.4093 32.7474 24.5074 32.7569C24.6082 31.8792 24.7091 30.9996 24.8099 30.1219C24.8375 29.8807 24.8888 29.6423 24.9129 29.4007C24.9644 28.9031 25.3464 28.969 25.6663 28.9672C26.1571 28.9647 25.972 29.3293 25.9278 29.5539C25.6236 31.1322 25.2796 32.704 24.9935 34.2844C24.9045 34.7721 24.6777 34.8912 24.2195 34.9286C23.6614 34.973 23.6482 34.6077 23.5802 34.2563C23.3789 33.2245 23.1869 32.1919 22.9931 31.1591C22.9478 31.1539 22.9024 31.1487 22.8569 31.1453L22.8587 31.1455Z" fill="#FFFEFE"/>
<path d="M29.6152 32.6588C29.6167 31.6374 29.6302 30.6395 29.6122 29.6434C29.6042 29.2015 29.7291 28.9936 30.2181 28.9909C30.7733 28.9885 30.5937 29.3684 30.594 29.622C30.6019 31.1699 30.5933 32.7178 30.5735 34.2663C30.5704 34.5341 30.7173 34.935 30.2278 34.9578C29.8639 34.9749 29.5396 34.9505 29.3398 34.5142C28.8374 33.4166 28.2733 32.345 27.5725 31.2632C27.5727 32.2535 27.5655 33.2449 27.573 34.236C27.5754 34.6148 27.6258 34.9605 27.0535 34.9683C26.4515 34.9782 26.5477 34.5887 26.5479 34.2341C26.5532 32.7153 26.5567 31.1962 26.5729 29.6786C26.5761 29.4107 26.3792 29.0133 26.8827 28.981C27.2565 28.9578 27.6583 28.8349 27.884 29.3495C28.261 30.2104 28.6924 31.0463 29.1199 31.8836C29.2536 32.1433 29.2912 32.4728 29.6154 32.657L29.6152 32.6588Z" fill="#D7DEE2"/>
<path d="M14.6199 32.3721C14.3959 34.3564 13.0536 35.2772 11.0044 34.8821C10.7131 34.8266 10.6872 34.7006 10.6893 34.4583C10.7038 32.7953 10.7036 31.1325 10.7142 29.4709C10.716 29.1992 10.714 28.9767 11.1272 28.9304C13.7325 28.6268 14.9124 29.7764 14.6197 32.3739L14.6199 32.3721ZM13.5517 32.2348C13.6998 31.0244 13.282 30.214 12.4303 30.0629C11.9712 29.9808 11.6702 30.0584 11.7007 30.6406C11.741 31.4261 11.713 32.2148 11.7458 33.0013C11.7556 33.2523 11.5556 33.6023 11.8554 33.7433C12.1969 33.9056 12.5799 33.786 12.8909 33.5737C13.3571 33.2579 13.4965 32.7631 13.5517 32.2348Z" fill="#FFFEFE"/>
<path d="M48.0367 32.5083C47.8049 34.4476 46.2312 35.4962 44.3804 34.9732C44.0761 34.8869 44.1146 34.7278 44.1152 34.5147C44.1227 32.8803 44.1339 31.2464 44.1174 29.6129C44.1135 29.1991 44.2177 29.0751 44.6648 29.0382C47.2643 28.8332 48.3444 29.9236 48.0349 32.5081L48.0367 32.5083ZM46.9625 32.3905C47.1198 31.1004 46.6658 30.2692 45.7815 30.1457C45.3294 30.0828 45.1004 30.1888 45.1224 30.7021C45.1552 31.4886 45.1122 32.2792 45.1598 33.0655C45.176 33.3246 44.9108 33.7461 45.3299 33.8402C45.7311 33.9303 46.189 33.8947 46.5024 33.5173C46.7816 33.1819 46.9453 32.7964 46.9623 32.3923L46.9625 32.3905Z" fill="#FFFEFE"/>
<path d="M19.4416 32.3886C19.2822 34.0019 18.4507 35.0033 17.2887 34.9784C16.3631 34.9585 15.6627 34.45 15.3404 33.4796C15.0072 32.4768 14.966 31.4597 15.352 30.4494C15.7356 29.4443 16.4061 28.8855 17.2499 28.8813C18.261 28.8761 18.8913 29.3876 19.2872 30.5005C19.5081 31.1212 19.4816 31.752 19.4396 32.3902L19.4416 32.3886ZM16.1814 31.5312C16.1427 32.0761 16.1745 32.6163 16.3938 33.1228C16.5549 33.4959 16.8172 33.82 17.256 33.8226C17.724 33.8267 18.046 33.5348 18.1965 33.1038C18.4732 32.3106 18.4813 31.5031 18.1876 30.716C18.0599 30.3725 17.8334 30.0727 17.4213 30.0291C16.973 29.9813 16.6906 30.2484 16.466 30.5883C16.2773 30.8716 16.2177 31.1991 16.183 31.5332L16.1814 31.5312Z" fill="#FFFEFE"/>
<path d="M38.8931 32.4586C38.8528 32.6983 38.8249 32.9413 38.772 33.1778C38.5086 34.3197 37.7144 35.0444 36.7287 35.0525C35.7871 35.0602 35.0112 34.3923 34.7044 33.2713C34.4235 32.245 34.451 31.2211 34.9029 30.2459C35.2714 29.4522 35.8561 28.9204 36.7976 28.9292C37.7503 28.9375 38.3019 29.5098 38.6437 30.3096C38.9347 30.9916 38.9964 31.7189 38.8952 32.457L38.8931 32.4586ZM37.8124 32.5256C37.8535 31.8799 37.8933 31.3406 37.6642 30.8237C37.498 30.4464 37.2795 30.109 36.8358 30.0856C36.4065 30.0639 36.0992 30.3079 35.9154 30.6928C35.4848 31.5952 35.4875 32.516 35.9676 33.3758C36.3837 34.1199 37.2193 34.0597 37.5974 33.2946C37.7288 33.0305 37.7627 32.7183 37.814 32.5276L37.8124 32.5256Z" fill="#FFFEFE"/>
<path d="M43.5628 34.9301C42.8276 35.0607 42.324 35.0139 42.2703 34.1846C42.2198 33.3924 41.5672 33.7474 41.1533 33.6558C40.6767 33.5497 40.4872 33.7925 40.462 34.2361C40.4557 34.3548 40.4073 34.4724 40.3791 34.5904C40.2502 35.1213 39.8322 34.9851 39.4955 34.9409C38.9652 34.8709 39.3207 34.5112 39.3693 34.3275C39.7862 32.7125 40.2637 31.1137 40.6556 29.4923C40.7884 28.9434 41.1348 29.0788 41.4724 29.0348C41.81 28.9909 42.028 29.0122 42.1305 29.4319C42.5797 31.2491 43.0707 33.0546 43.5626 34.9319L43.5628 34.9301ZM41.3737 30.3427C41.2156 30.9364 41.1258 31.2862 41.029 31.6334C40.7469 32.6501 40.755 32.6602 41.88 32.4954C41.7291 31.857 41.5796 31.2225 41.3737 30.3427Z" fill="#FFFEFE"/>
<path d="M32.1246 34.9521C31.6893 35.0142 31.5821 34.8439 31.5852 34.497C31.5998 32.801 31.6015 31.1053 31.5887 29.408C31.5851 29.007 31.8079 28.9866 32.1077 28.9678C32.4852 28.945 32.6454 29.0534 32.6365 29.4676C32.613 30.6481 32.6773 31.8333 32.612 33.0108C32.5729 33.7192 32.8482 33.8978 33.4777 33.8562C33.8517 33.8311 34.3106 33.6431 34.2739 34.4106C34.2386 35.1506 33.795 34.9491 33.4118 34.9584C32.9584 34.9706 32.5029 34.9532 32.1229 34.9501L32.1246 34.9521Z" fill="#D7DEE2"/>
<path d="M28.7929 10.6543C28.6876 11.1714 28.3832 11.5021 27.8562 11.4673C27.3474 11.4346 26.9953 11.1241 27.027 10.5765C27.0593 10.007 27.3965 9.67823 27.9857 9.73116C28.526 9.77847 28.7593 10.147 28.7929 10.6543Z" fill="#EFBC29"/>
<path d="M25.6855 43.0589C25.8697 41.5017 26.7501 40.5867 28.0723 40.5768C29.0782 40.5692 29.8227 41.046 30.1904 41.9885C30.6388 43.1405 30.6361 44.3161 30.1591 45.4464C29.8188 46.2507 29.1643 46.7341 28.2572 46.7935C27.3686 46.8514 26.65 46.5337 26.1601 45.7756C25.6221 44.9404 25.548 44.0169 25.6837 43.0587L25.6855 43.0589Z" fill="#252438"/>
<path d="M13.552 32.2359C13.4969 32.7642 13.3574 33.259 12.891 33.5766C12.5802 33.7871 12.1972 33.9067 11.8555 33.7462C11.5559 33.6034 11.7557 33.2552 11.7459 33.0042C11.7149 32.2179 11.743 31.4293 11.7009 30.6435C11.6703 30.0613 11.9713 29.9838 12.4304 30.0658C13.2822 30.2169 13.6997 31.0292 13.55 32.2375L13.552 32.2359Z" fill="#252438"/>
<path d="M46.9604 32.3908C46.9432 32.7967 46.7779 33.1801 46.5005 33.5157C46.1871 33.8932 45.731 33.929 45.328 33.8386C44.907 33.7444 45.1722 33.3228 45.1578 33.064C45.1103 32.2776 45.153 31.4888 45.1204 30.7005C45.0985 30.1872 45.3293 30.0814 45.7796 30.1441C46.6655 30.2697 47.1196 31.099 46.9606 32.389L46.9604 32.3908Z" fill="#252438"/>
<path d="M16.1825 31.5313C16.2172 31.1973 16.2768 30.8697 16.4655 30.5864C16.6919 30.2467 16.9725 29.9794 17.4208 30.0272C17.8329 30.0708 18.0592 30.3724 18.1871 30.7142C18.4806 31.503 18.4724 32.3105 18.196 33.1019C18.0455 33.5329 17.7253 33.825 17.2555 33.8207C16.8169 33.8163 16.5546 33.4922 16.3932 33.1209C16.1739 32.6144 16.1422 32.0742 16.1809 31.5293L16.1825 31.5313Z" fill="#252438"/>
<path d="M37.8103 32.5256C37.759 32.7163 37.725 33.0284 37.5936 33.2926C37.2155 34.0576 36.3799 34.1179 35.9638 33.3738C35.4835 32.5157 35.481 31.5931 35.9116 30.6908C36.0954 30.3058 36.4045 30.062 36.832 30.0836C37.2776 30.1071 37.4943 30.4444 37.6604 30.8217C37.8893 31.3404 37.8495 31.8797 37.8087 32.5236L37.8103 32.5256Z" fill="#252438"/>
<path d="M41.373 30.3437C41.5807 31.2237 41.7302 31.8582 41.8793 32.4963C40.7543 32.6612 40.7444 32.6509 41.0283 31.6343C41.1251 31.2871 41.2148 30.9373 41.373 30.3437Z" fill="#252438"/>
</g>
<defs>
<filter id="filter0_ddii_621_10771" x="0.59375" y="0.94043" width="57.9609" height="60.4346" filterUnits="userSpaceOnUse" color-interpolation-filters="sRGB">
<feFlood flood-opacity="0" result="BackgroundImageFix"/>
<feColorMatrix in="SourceAlpha" type="matrix" values="0 0 0 0 0 0 0 0 0 0 0 0 0 0 0 0 0 0 127 0" result="hardAlpha"/>
<feOffset/>
<feGaussianBlur stdDeviation="4"/>
<feComposite in2="hardAlpha" operator="out"/>
<feColorMatrix type="matrix" values="0 0 0 0 0 0 0 0 0 0 0 0 0 0 0 0 0 0 0.25 0"/>
<feBlend mode="normal" in2="BackgroundImageFix" result="effect1_dropShadow_621_10771"/>
<feColorMatrix in="SourceAlpha" type="matrix" values="0 0 0 0 0 0 0 0 0 0 0 0 0 0 0 0 0 0 127 0" result="hardAlpha"/>
<feOffset/>
<feGaussianBlur stdDeviation="4"/>
<feComposite in2="hardAlpha" operator="out"/>
<feColorMatrix type="matrix" values="0 0 0 0 0 0 0 0 0 0 0 0 0 0 0 0 0 0 0.25 0"/>
<feBlend mode="normal" in2="effect1_dropShadow_621_10771" result="effect2_dropShadow_621_10771"/>
<feBlend mode="normal" in="SourceGraphic" in2="effect2_dropShadow_621_10771" result="shape"/>
<feColorMatrix in="SourceAlpha" type="matrix" values="0 0 0 0 0 0 0 0 0 0 0 0 0 0 0 0 0 0 127 0" result="hardAlpha"/>
<feOffset dx="-4" dy="-4"/>
<feGaussianBlur stdDeviation="4"/>
<feComposite in2="hardAlpha" operator="arithmetic" k2="-1" k3="1"/>
<feColorMatrix type="matrix" values="0 0 0 0 0 0 0 0 0 0 0 0 0 0 0 0 0 0 0.25 0"/>
<feBlend mode="normal" in2="shape" result="effect3_innerShadow_621_10771"/>
<feColorMatrix in="SourceAlpha" type="matrix" values="0 0 0 0 0 0 0 0 0 0 0 0 0 0 0 0 0 0 127 0" result="hardAlpha"/>
<feOffset dx="4" dy="4"/>
<feGaussianBlur stdDeviation="2"/>
<feComposite in2="hardAlpha" operator="arithmetic" k2="-1" k3="1"/>
<feColorMatrix type="matrix" values="0 0 0 0 1 0 0 0 0 1 0 0 0 0 1 0 0 0 0.25 0"/>
<feBlend mode="normal" in2="effect3_innerShadow_621_10771" result="effect4_innerShadow_621_10771"/>
</filter>
</defs>
</svg>
