<svg width="267" height="81" viewBox="0 0 267 81" fill="none" xmlns="http://www.w3.org/2000/svg">
<path d="M236.576 80.0519C236.751 79.6034 236.919 79.1536 237.074 78.6999L245.231 44.5739C250.6 28.8584 241.405 16 224.797 16H56.5382C39.931 16 21.9506 28.8584 16.5819 44.5739L8.42474 78.6999C8.27041 79.1536 8.13059 79.6034 8 80.0519H236.576Z" fill="#D93030"/>
<path d="M266.136 79.5688H236.852L240.831 63.418L266.136 79.5688Z" fill="#18298C"/>
<path d="M1.22411 75.0961L0 74.8033L8.62547 38.7172C14.4136 21.7644 33.6339 8.01953 51.4877 8.01953H66.5568V9.27794H51.489C34.1312 9.27794 15.4438 22.6415 9.83375 39.0667L1.22411 75.0961Z" fill="#D93030"/>
<path d="M225.073 15.5203L111.758 0V15.5203H225.073Z" fill="#18298C"/>
<path d="M82.4883 57L81.1992 52.8984H75.2578L73.9688 57H70.3359L76.207 40.0898H80.3672L86.25 57H82.4883ZM78.1875 43.3242L76.0195 50.25H80.4375L78.2695 43.3242H78.1875ZM91.8867 57.1992C88.7461 57.1992 86.7656 54.7148 86.7656 50.6953C86.7656 46.7109 88.7578 44.2383 91.9102 44.2383C93.7266 44.2383 95.1328 45.1992 95.7422 46.5938H95.8125V40.0898H99.2344V57H95.8594V54.8438H95.8008C95.1914 56.2266 93.7383 57.1992 91.8867 57.1992ZM93.0469 46.9805C91.3242 46.9805 90.2695 48.4219 90.2695 50.7188C90.2695 53.0273 91.3242 54.4453 93.0469 54.4453C94.7461 54.4453 95.8359 53.0156 95.8359 50.7188C95.8359 48.4336 94.7461 46.9805 93.0469 46.9805ZM101.52 57V44.4375H104.824V46.7109H104.895C105.422 45.1992 106.77 44.2031 108.48 44.2031C110.297 44.2031 111.562 45.1406 111.984 46.7812H112.055C112.617 45.1992 114.117 44.2031 115.957 44.2031C118.418 44.2031 120.07 45.8906 120.07 48.4219V57H116.648V49.2773C116.648 47.8242 115.922 47.0273 114.598 47.0273C113.297 47.0273 112.441 47.9766 112.441 49.3711V57H109.148V49.1719C109.148 47.8242 108.387 47.0273 107.121 47.0273C105.82 47.0273 104.941 48.0117 104.941 49.418V57H101.52ZM122.297 57V44.4375H125.719V57H122.297ZM124.008 43.0547C122.977 43.0547 122.18 42.2695 122.18 41.2852C122.18 40.2891 122.977 39.5156 124.008 39.5156C125.039 39.5156 125.836 40.2891 125.836 41.2852C125.836 42.2695 125.039 43.0547 124.008 43.0547ZM127.793 48.1289C127.793 45.7383 129.867 44.168 133.09 44.168C136.242 44.168 138.293 45.7617 138.34 48.1992H135.188C135.117 47.1914 134.309 46.5703 133.043 46.5703C131.859 46.5703 131.086 47.1094 131.086 47.918C131.086 48.5391 131.625 48.9609 132.727 49.2188L135.129 49.7344C137.648 50.2969 138.668 51.293 138.668 53.168C138.668 55.6406 136.395 57.2695 133.078 57.2695C129.727 57.2695 127.664 55.6523 127.477 53.2031H130.816C130.98 54.2578 131.812 54.8672 133.172 54.8672C134.473 54.8672 135.258 54.3516 135.258 53.5312C135.258 52.8984 134.836 52.5469 133.711 52.2773L131.391 51.7617C129.012 51.2227 127.793 49.9805 127.793 48.1289ZM140.168 48.1289C140.168 45.7383 142.242 44.168 145.465 44.168C148.617 44.168 150.668 45.7617 150.715 48.1992H147.562C147.492 47.1914 146.684 46.5703 145.418 46.5703C144.234 46.5703 143.461 47.1094 143.461 47.918C143.461 48.5391 144 48.9609 145.102 49.2188L147.504 49.7344C150.023 50.2969 151.043 51.293 151.043 53.168C151.043 55.6406 148.77 57.2695 145.453 57.2695C142.102 57.2695 140.039 55.6523 139.852 53.2031H143.191C143.355 54.2578 144.188 54.8672 145.547 54.8672C146.848 54.8672 147.633 54.3516 147.633 53.5312C147.633 52.8984 147.211 52.5469 146.086 52.2773L143.766 51.7617C141.387 51.2227 140.168 49.9805 140.168 48.1289ZM152.812 57V44.4375H156.234V57H152.812ZM154.523 43.0547C153.492 43.0547 152.695 42.2695 152.695 41.2852C152.695 40.2891 153.492 39.5156 154.523 39.5156C155.555 39.5156 156.352 40.2891 156.352 41.2852C156.352 42.2695 155.555 43.0547 154.523 43.0547ZM164.285 57.2695C160.488 57.2695 158.062 54.832 158.062 50.707C158.062 46.6406 160.523 44.168 164.285 44.168C168.047 44.168 170.508 46.6289 170.508 50.707C170.508 54.8438 168.082 57.2695 164.285 57.2695ZM164.285 54.6562C165.961 54.6562 167.027 53.2383 167.027 50.7188C167.027 48.2227 165.949 46.7812 164.285 46.7812C162.621 46.7812 161.531 48.2227 161.531 50.7188C161.531 53.2383 162.598 54.6562 164.285 54.6562ZM172.277 57V44.4375H175.582V46.6758H175.652C176.32 45.1172 177.645 44.2031 179.578 44.2031C182.367 44.2031 183.938 45.9609 183.938 48.9023V57H180.516V49.6172C180.516 47.9766 179.742 47.0391 178.207 47.0391C176.672 47.0391 175.699 48.1641 175.699 49.793V57H172.277Z" fill="white"/>
</svg>
