<svg width="58" height="39" viewBox="0 0 58 39" fill="none" xmlns="http://www.w3.org/2000/svg">
<path fill-rule="evenodd" clip-rule="evenodd" d="M34.3702 23.3246C31.7776 25.2521 28.0197 26.2805 24.7841 26.2805C20.2474 26.2805 16.1633 24.5881 13.0734 21.7733C12.8307 21.5519 13.0482 21.2502 13.3395 21.4226C16.674 23.3795 20.7971 24.5567 25.056 24.5567C27.9284 24.5567 31.0881 23.9573 33.9935 22.7135C34.4324 22.5254 34.7994 23.0034 34.3702 23.3246Z" fill="#FF9900"/>
<path fill-rule="evenodd" clip-rule="evenodd" d="M35.4483 22.0809C35.1181 21.6539 33.2575 21.8791 32.4224 21.979C32.168 22.0104 32.1292 21.7871 32.3584 21.6265C33.8402 20.5746 36.2717 20.8782 36.5552 21.2308C36.8387 21.5853 36.4814 24.0436 35.0889 25.217C34.8753 25.3972 34.6714 25.3012 34.7665 25.0622C35.0792 24.2748 35.7803 22.5099 35.4483 22.0809Z" fill="#FF9900"/>
<path fill-rule="evenodd" clip-rule="evenodd" d="M32.4803 14.2006V13.1781C32.4803 13.0233 32.5968 12.9195 32.7366 12.9195H37.2753C37.4209 12.9195 37.5375 13.0253 37.5375 13.1781V14.0537C37.5355 14.2006 37.4132 14.3926 37.1957 14.6962L34.8438 18.083C35.7177 18.0615 36.6402 18.1927 37.4326 18.6432C37.6112 18.745 37.6598 18.894 37.6734 19.0408V20.1319C37.6734 20.2808 37.5102 20.4551 37.3394 20.365C35.943 19.6266 34.0883 19.5462 32.5444 20.3728C32.3871 20.4591 32.222 20.2867 32.222 20.1378V19.1016C32.222 18.9351 32.2239 18.651 32.389 18.3984L35.1137 14.4572H32.7424C32.5968 14.4572 32.4803 14.3534 32.4803 14.2006ZM15.9241 20.5805H14.5432C14.4112 20.5707 14.3063 20.4708 14.2966 20.3434V13.1957C14.2966 13.0527 14.415 12.9391 14.5626 12.9391H15.8502C15.9843 12.945 16.0911 13.0488 16.1008 13.1781V14.1125H16.126C16.462 13.2095 17.0932 12.7884 17.9438 12.7884C18.808 12.7884 19.3479 13.2095 19.7364 14.1125C20.0704 13.2095 20.8298 12.7884 21.6435 12.7884C22.2222 12.7884 22.8553 13.0293 23.2418 13.5699C23.6788 14.1712 23.5894 15.0449 23.5894 15.8108L23.5875 20.3219C23.5875 20.4649 23.469 20.5805 23.3214 20.5805H21.9426C21.8047 20.5707 21.694 20.4591 21.694 20.3219V16.5336C21.694 16.2319 21.7212 15.4797 21.6551 15.1937C21.5522 14.7138 21.2434 14.5786 20.8433 14.5786C20.5093 14.5786 20.1597 14.8039 20.0179 15.1644C19.8762 15.5248 19.8898 16.1281 19.8898 16.5336V20.3219C19.8898 20.4649 19.7713 20.5805 19.6237 20.5805H18.2448C18.105 20.5707 17.9962 20.4591 17.9962 20.3219L17.9943 16.5336C17.9943 15.7363 18.1244 14.563 17.1437 14.563C16.1513 14.563 16.1901 15.7069 16.1901 16.5336V20.3219C16.1901 20.4649 16.0717 20.5805 15.9241 20.5805ZM41.4449 12.7883C43.4938 12.7883 44.6027 14.563 44.6027 16.8195C44.6027 18.9997 43.3773 20.7294 41.4449 20.7294C39.4329 20.7294 38.3376 18.9547 38.3376 16.7431C38.3376 14.5179 39.4465 12.7883 41.4449 12.7883ZM41.4566 14.2476C40.4389 14.2476 40.3748 15.6462 40.3748 16.5179C40.3748 17.3915 40.3613 19.2563 41.4449 19.2563C42.515 19.2563 42.5655 17.7519 42.5655 16.8352C42.5655 16.2319 42.5402 15.511 42.3596 14.9391C42.2043 14.4415 41.8954 14.2476 41.4566 14.2476ZM47.2595 20.5805H45.8845C45.7466 20.5707 45.6359 20.4591 45.6359 20.3219L45.634 13.1722C45.6456 13.041 45.7603 12.9391 45.9 12.9391H47.1799C47.3003 12.945 47.3993 13.0273 47.4265 13.1389V14.232H47.4518C47.8383 13.2545 48.3801 12.7883 49.3336 12.7883C49.9532 12.7883 50.5572 13.0135 50.9456 13.6306C51.3068 14.2025 51.3068 15.1644 51.3068 15.8558V20.3552C51.2913 20.4806 51.1767 20.5805 51.0407 20.5805H49.656C49.5298 20.5707 49.4249 20.4766 49.4113 20.3552V16.4728C49.4113 15.6913 49.5007 14.5473 48.5471 14.5473C48.2112 14.5473 47.9023 14.7745 47.7489 15.1193C47.5547 15.5561 47.5294 15.991 47.5294 16.4729V20.3219C47.5275 20.4649 47.4071 20.5805 47.2595 20.5805ZM28.8622 17.1663C28.8622 17.7088 28.8758 18.1614 28.6038 18.6432C28.3844 19.035 28.0349 19.2759 27.6484 19.2759C27.1182 19.2759 26.8075 18.8685 26.8075 18.2671C26.8075 17.08 27.862 16.8646 28.8622 16.8646V17.1663ZM30.2546 20.5609C30.1634 20.6431 30.0313 20.649 29.9284 20.5942C29.4701 20.2102 29.3865 20.032 29.136 19.6657C28.3786 20.4453 27.8407 20.6784 26.8599 20.6784C25.6966 20.6784 24.7935 19.9556 24.7935 18.5081C24.7935 17.3778 25.3994 16.608 26.2656 16.2319C27.0153 15.8989 28.062 15.8401 28.8622 15.748V15.5679C28.8622 15.2368 28.8874 14.845 28.6932 14.5591C28.5262 14.3025 28.2038 14.1967 27.9183 14.1967C27.392 14.1967 26.924 14.4689 26.8094 15.0331C26.7861 15.1585 26.6948 15.2818 26.5686 15.2877L25.2305 15.1428C25.1179 15.1173 24.9916 15.0253 25.0246 14.8509C25.3315 13.2134 26.7997 12.7197 28.1126 12.7197C28.7845 12.7197 29.6624 12.9 30.1926 13.4132C30.8645 14.0459 30.8004 14.8901 30.8004 15.8088V17.9791C30.8004 18.6315 31.0684 18.9174 31.3209 19.27C31.4083 19.3954 31.4277 19.5462 31.3151 19.6402C31.0335 19.8772 30.5324 20.318 30.2566 20.5648L30.2547 20.5609M10.7601 17.1663C10.7601 17.7088 10.7737 18.1614 10.5017 18.6432C10.2823 19.035 9.93468 19.2759 9.54626 19.2759C9.01609 19.2759 8.70726 18.8685 8.70726 18.2671C8.70726 17.08 9.76184 16.8646 10.7601 16.8646V17.1663ZM12.1525 20.5609C12.0613 20.6431 11.9292 20.649 11.8263 20.5942C11.3679 20.2102 11.2863 20.032 11.0339 19.6657C10.2765 20.4453 9.74051 20.6784 8.75777 20.6784C7.59643 20.6784 6.69141 19.9556 6.69141 18.5081C6.69141 17.3778 7.29929 16.608 8.16349 16.2319C8.91316 15.8989 9.95993 15.8401 10.7601 15.748V15.5679C10.7601 15.2368 10.7853 14.845 10.593 14.5591C10.4241 14.3025 10.1017 14.1967 9.81814 14.1967C9.29186 14.1967 8.82188 14.4689 8.70726 15.0331C8.68397 15.1585 8.59269 15.2818 8.46839 15.2877L7.12837 15.1428C7.01572 15.1173 6.89146 15.0253 6.92251 14.8509C7.2313 13.2134 8.69758 12.7197 10.0104 12.7197C10.6823 12.7197 11.5602 12.9 12.0904 13.4132C12.7623 14.0459 12.6982 14.8901 12.6982 15.8088V17.9791C12.6982 18.6315 12.9662 18.9174 13.2187 19.27C13.3081 19.3954 13.3275 19.5462 13.2148 19.6402C12.9332 19.8772 12.4322 20.318 12.1564 20.5648L12.1525 20.5609Z" fill="black"/>
</svg>
