<svg width="92" height="92" viewBox="0 0 92 92" fill="none" xmlns="http://www.w3.org/2000/svg">
<path fill-rule="evenodd" clip-rule="evenodd" d="M83.5305 30.4587C88.4763 34.0212 91.8346 39.542 91.8346 46.0003C91.8346 52.4587 88.4763 57.9836 83.5305 61.542C84.5305 67.5503 82.9721 73.867 78.418 78.417C73.8555 82.9795 67.543 84.4961 61.5596 83.5211C58.0138 88.4836 52.443 91.8336 46.0013 91.8336C39.543 91.8336 34.0096 88.4711 30.4555 83.517C24.4638 84.4961 18.1471 82.9837 13.5805 78.417C9.01797 73.8545 7.5013 67.5378 8.50963 61.542C3.56797 57.9878 0.167969 52.4628 0.167969 46.0003C0.167969 39.5378 3.56797 34.0087 8.50963 30.4587C7.5013 24.4628 9.01797 18.1462 13.5846 13.5837C18.1388 9.02532 24.4596 7.47116 30.4888 8.47116C34.0221 3.51699 39.5555 0.166992 46.0013 0.166992C52.4388 0.166992 58.0013 3.51283 61.5513 8.47116C67.5596 7.47116 73.868 9.03366 78.418 13.5837C82.9721 18.1337 84.5346 24.4503 83.5305 30.4587ZM65.0888 30.1087C65.5342 30.4265 65.9127 30.829 66.2025 31.2932C66.4924 31.7574 66.688 32.2741 66.7782 32.8138C66.8683 33.3536 66.8512 33.9058 66.728 34.439C66.6047 34.9721 66.3776 35.4758 66.0596 35.9212L45.2263 65.0878C44.8746 65.5804 44.4199 65.9904 43.8936 66.2894C43.3674 66.5884 42.7824 66.7692 42.1792 66.8191C41.5761 66.8691 40.9693 66.7871 40.401 66.5788C39.8328 66.3704 39.3167 66.0408 38.8888 65.6128L26.3888 53.1128C25.6298 52.327 25.2098 51.2745 25.2193 50.182C25.2288 49.0895 25.667 48.0444 26.4396 47.2719C27.2121 46.4994 28.2571 46.0612 29.3496 46.0517C30.4421 46.0422 31.4946 46.4622 32.2805 47.2212L41.3013 56.242L59.2763 31.0753C59.9189 30.1764 60.8923 29.5695 61.9823 29.3882C63.0724 29.207 64.1898 29.4661 65.0888 30.1087Z" fill="#F19157"/>
</svg>
