<svg width="22" height="22" viewBox="0 0 22 22" fill="none" xmlns="http://www.w3.org/2000/svg">
<path d="M15.4839 1.205L5.70141 4.455C-0.874427 6.65417 -0.874427 10.24 5.70141 12.4284L8.60474 13.3925L9.56886 16.2959C11.7572 22.8717 15.3539 22.8717 17.5422 16.2959L20.803 6.52417C22.2547 2.13667 19.8714 -0.257496 15.4839 1.205ZM15.8305 7.03334L11.7139 11.1717C11.5514 11.3342 11.3455 11.41 11.1397 11.41C10.9339 11.41 10.728 11.3342 10.5655 11.1717C10.2514 10.8575 10.2514 10.3375 10.5655 10.0234L14.6822 5.885C14.9964 5.57084 15.5164 5.57084 15.8305 5.885C16.1447 6.19917 16.1447 6.71917 15.8305 7.03334Z" fill="white"/>
</svg>
