<svg width="24" height="24" viewBox="0 0 24 24" fill="none" xmlns="http://www.w3.org/2000/svg">
<path d="M16.8942 0.49326L5.66252 4.22474C-1.88751 6.74971 -1.88751 10.8668 5.66252 13.3793L8.99598 14.4864L10.1029 17.8198C12.6155 25.3698 16.745 25.3698 19.2575 17.8198L23.0014 6.60045C24.6682 1.56295 21.9317 -1.18591 16.8942 0.49326ZM17.2923 7.18505L12.5657 11.9365C12.3791 12.1231 12.1428 12.2101 11.9065 12.2101C11.6702 12.2101 11.4338 12.1231 11.2473 11.9365C10.8865 11.5758 10.8865 10.9788 11.2473 10.618L15.9738 5.86659C16.3345 5.50588 16.9315 5.50588 17.2923 5.86659C17.653 6.2273 17.653 6.82434 17.2923 7.18505Z" fill="#00AD99"/>
</svg>
