<svg width="70" height="55" viewBox="0 0 70 55" fill="none" xmlns="http://www.w3.org/2000/svg">
<path d="M26.7718 48.4209H4.67969V51.8628H26.7718V48.4209Z" fill="#FFCC00"/>
<g style="mix-blend-mode:screen" opacity="0.5">
<path d="M12.2509 48.4209H4.67969V51.8628H12.2509V48.4209Z" fill="#FFCC00"/>
</g>
<g style="mix-blend-mode:multiply" opacity="0.5">
<path d="M26.768 48.4209H19.5156V51.8628H26.768V48.4209Z" fill="#FFCC00"/>
</g>
<path d="M25.9671 44.9873H3.875V48.4292H25.9671V44.9873Z" fill="#FFCC00"/>
<g style="mix-blend-mode:screen" opacity="0.5">
<path d="M9.73811 44.9873H3.875V48.4292H9.73811V44.9873Z" fill="#FFCC00"/>
</g>
<g style="mix-blend-mode:multiply" opacity="0.5">
<path d="M25.9668 44.9873H16.6602V48.4292H25.9668V44.9873Z" fill="#FFCC00"/>
</g>
<path d="M28.3773 41.5352H6.28516V44.977H28.3773V41.5352Z" fill="#FFCC00"/>
<g style="mix-blend-mode:screen" opacity="0.5">
<path d="M14.9221 41.5352H6.28516V44.977H14.9221V41.5352Z" fill="#FFCC00"/>
</g>
<g style="mix-blend-mode:multiply" opacity="0.5">
<path d="M28.3754 41.5352H22.0938V44.977H28.3754V41.5352Z" fill="#FFCC00"/>
</g>
<path d="M27.0062 38.1172H4.91406V41.5591H27.0062V38.1172Z" fill="#FFCC00"/>
<g style="mix-blend-mode:screen" opacity="0.5">
<path d="M11.4968 38.1172H4.91406V41.5591H11.4968V38.1172Z" fill="#FFCC00"/>
</g>
<g style="mix-blend-mode:multiply" opacity="0.5">
<path d="M27.0051 38.1172H18.043V41.5591H27.0051V38.1172Z" fill="#FFCC00"/>
</g>
<g style="mix-blend-mode:multiply" opacity="0.5">
<path d="M25.8832 48.4209H4.67969V48.9344H25.8832V48.4209Z" fill="#FFCC00"/>
</g>
<g style="mix-blend-mode:multiply" opacity="0.5">
<path d="M27.0057 41.5625H6.28516V42.0954H27.0057V41.5625Z" fill="#FFCC00"/>
</g>
<path d="M58.7193 0H31.1907C29.5903 0 28.293 1.29737 28.293 2.89775V46.042C28.293 47.6424 29.5903 48.9397 31.1907 48.9397H58.7193C60.3197 48.9397 61.6171 47.6424 61.6171 46.042V2.89775C61.6171 1.29737 60.3197 0 58.7193 0Z" fill="#F0F1F3"/>
<path d="M58.3984 42.3383V3.21875L31.5138 3.21875L31.5138 42.3383H58.3984Z" fill="white"/>
<path opacity="0.5" d="M34.4918 12.7979H33.043V21.4911H34.4918V12.7979Z" fill="#F3A100"/>
<path opacity="0.5" d="M36.7457 11.1904H35.2969V21.4935H36.7457V11.1904Z" fill="#1E2346"/>
<path opacity="0.5" d="M38.9997 8.12891H37.5508V21.4907H38.9997V8.12891Z" fill="#F3A100"/>
<path opacity="0.5" d="M41.2536 11.6699H39.8047V21.4901H41.2536V11.6699Z" fill="#1E2346"/>
<path opacity="0.5" d="M43.5075 15.376H42.0586V21.4934H43.5075V15.376Z" fill="#F3A100"/>
<path opacity="0.5" d="M45.7614 10.9482H44.3125V21.4928H45.7614V10.9482Z" fill="#F3A100"/>
<path opacity="0.5" d="M48.0153 17.4668H46.5664V21.4914H48.0153V17.4668Z" fill="#1E2346"/>
<path opacity="0.5" d="M50.2692 18.6748H48.8203V21.4921H50.2692V18.6748Z" fill="#F3A100"/>
<path opacity="0.5" d="M52.5231 15.6943H51.0742V21.4898H52.5231V15.6943Z" fill="#F3A100"/>
<path opacity="0.5" d="M54.777 14.0869H53.3281V21.4923H54.777V14.0869Z" fill="#1E2346"/>
<path opacity="0.5" d="M57.0309 12.7979H55.582V21.4911H57.0309V12.7979Z" fill="#F3A100"/>
<path opacity="0.5" d="M55.5824 38.7158H57.0312V30.0226H55.5824V38.7158Z" fill="#F3A100"/>
<path opacity="0.5" d="M53.3285 38.7158H54.7773V28.4127H53.3285V38.7158Z" fill="#1E2346"/>
<path opacity="0.5" d="M51.0746 38.7158H52.5234V25.354H51.0746V38.7158Z" fill="#F3A100"/>
<path opacity="0.5" d="M48.8207 38.7158H50.2695V28.8957H48.8207V38.7158Z" fill="#1E2346"/>
<path opacity="0.5" d="M46.5668 38.7158H48.0156V32.5984H46.5668V38.7158Z" fill="#F3A100"/>
<path opacity="0.5" d="M44.3128 38.7158H45.7617V28.1712H44.3128V38.7158Z" fill="#F3A100"/>
<path opacity="0.5" d="M42.0589 38.7158H43.5078V34.6912H42.0589V38.7158Z" fill="#1E2346"/>
<path opacity="0.5" d="M39.805 38.7158H41.2539V35.8986H39.805V38.7158Z" fill="#F3A100"/>
<path opacity="0.5" d="M37.5511 38.7158H39V32.9203H37.5511V38.7158Z" fill="#F3A100"/>
<path opacity="0.5" d="M35.2972 38.7158H36.7461V31.3105H35.2972V38.7158Z" fill="#1E2346"/>
<path opacity="0.5" d="M33.0433 38.7158H34.4922V30.0226H33.0433V38.7158Z" fill="#F3A100"/>
<path d="M44.956 46.9295C45.8895 46.9295 46.6463 46.1727 46.6463 45.2392C46.6463 44.3056 45.8895 43.5488 44.956 43.5488C44.0224 43.5488 43.2656 44.3056 43.2656 45.2392C43.2656 46.1727 44.0224 46.9295 44.956 46.9295Z" fill="white"/>
<path d="M66.813 19.7002H34.3984V36.4299H66.813V19.7002Z" fill="#6CACAC"/>
<path d="M62.3513 34.5991H38.8618V34.3383C38.8618 32.7526 37.7027 31.4631 36.278 31.4631H36.043V24.6663H36.278C37.7027 24.6663 38.8618 23.3768 38.8618 21.7911V21.5303H62.3513V21.7911C62.3513 23.3768 63.5104 24.6663 64.9351 24.6663H65.1702V31.4631H64.9351C63.5104 31.4631 62.3513 32.7526 62.3513 34.3383V34.5991ZM39.3239 34.0759H61.8909C62.0052 32.4097 63.2045 31.0767 64.7001 30.9496V25.1782C63.2029 25.051 62.0052 23.7165 61.8909 22.0519H39.3239C39.2096 23.7181 38.0118 25.051 36.5147 25.1782V30.9496C38.0118 31.0767 39.2096 32.4113 39.3239 34.0759Z" fill="#5A9997"/>
<path d="M53.7533 25.1805H52.9242C52.8308 24.9454 52.7053 24.7265 52.5539 24.5285H53.4072L54.1284 23.4692L53.7517 23.1826H47.932L47.2108 24.2419L47.5875 24.5285H50.4064C50.6962 24.5285 50.9682 24.6041 51.2033 24.7345C51.3305 24.8633 51.4383 25.0146 51.5172 25.1805H47.8033L47.082 26.2397L47.4587 26.5263H51.5558C51.3079 27.1252 50.7187 27.547 50.0297 27.547H47.2768V28.7592L49.4904 32.6566L49.8671 32.9432H51.3868L49.1346 28.8928H50.3726C50.3839 28.8928 50.3935 28.8928 50.4048 28.8928C50.4128 28.8928 50.4209 28.8928 50.4289 28.8928C51.7973 28.8815 52.9226 27.8528 53.0916 26.5279H53.4056L54.1268 25.4686L53.7501 25.1821L53.7533 25.1805Z" fill="#5A9997"/>
<path d="M52.1772 24.2419H53.0305L53.7517 23.1826H47.932L47.2108 24.2419H50.0297C50.6865 24.2419 51.2516 24.6251 51.5172 25.1805H47.8033L47.082 26.2397H51.646C51.4866 26.9867 50.825 27.5469 50.0313 27.5469H47.2784V28.7592L49.492 32.6566H51.0117L48.7595 28.6062H49.9975C50.0088 28.6062 50.0184 28.6062 50.0297 28.6062C50.0377 28.6062 50.0458 28.6062 50.0538 28.6062C51.4222 28.595 52.5475 27.5663 52.7165 26.2414H53.0305L53.7517 25.1821H52.6425C52.5475 24.8359 52.3881 24.5188 52.1756 24.2435L52.1772 24.2419Z" fill="#A2C2C0"/>
<path d="M66.1294 18.8408H33.7148V35.5705H66.1294V18.8408Z" fill="#7BC3C3"/>
<path d="M61.6638 33.7397H38.1743V33.4789C38.1743 31.8932 37.0152 30.6037 35.5905 30.6037H35.3555V23.8069H35.5905C37.0152 23.8069 38.1743 22.5174 38.1743 20.9317V20.6709H61.6638V20.9317C61.6638 22.5174 62.8229 23.8069 64.2476 23.8069H64.4827V30.6037H64.2476C62.8229 30.6037 61.6638 31.8932 61.6638 33.4789V33.7397ZM38.6364 33.2165H61.2034C61.3177 31.5503 62.517 30.2174 64.0126 30.0902V24.3188C62.5154 24.1917 61.3177 22.8571 61.2034 21.1925H38.6364C38.5221 22.8587 37.3227 24.1917 35.8272 24.3188V30.0902C37.3243 30.2174 38.5221 31.5519 38.6364 33.2165Z" fill="#68B0AE"/>
<path d="M53.0697 24.3211H52.2406C52.1472 24.086 52.0217 23.8671 51.8704 23.6691H52.7236L53.4448 22.6098L53.0681 22.3232H47.2484L46.5272 23.3825L46.9039 23.6691H49.7228C50.0126 23.6691 50.2846 23.7447 50.5197 23.8751C50.6469 24.0039 50.7547 24.1553 50.8336 24.3211H47.1197L46.3984 25.3804L46.7751 25.6669H50.8722C50.6243 26.2658 50.0351 26.6876 49.3461 26.6876H46.5932V27.8998L48.8068 31.7973L49.1835 32.0838H50.7032L48.451 28.0334H49.689C49.7003 28.0334 49.7099 28.0334 49.7212 28.0334C49.7292 28.0334 49.7373 28.0334 49.7453 28.0334C51.1137 28.0221 52.239 26.9934 52.408 25.6685H52.722L53.4432 24.6092L53.0665 24.3227L53.0697 24.3211Z" fill="#68B0AE"/>
<path d="M51.4936 23.3825H52.3469L53.0681 22.3232H47.2484L46.5272 23.3825H49.3461C50.0029 23.3825 50.568 23.7657 50.8336 24.3211H47.1197L46.3984 25.3804H50.9624C50.803 26.1273 50.1414 26.6876 49.3477 26.6876H46.5948V27.8998L48.8084 31.7973H50.3281L48.0759 27.7469H49.3139C49.3252 27.7469 49.3348 27.7469 49.3461 27.7469C49.3541 27.7469 49.3622 27.7469 49.3702 27.7469C50.7386 27.7356 51.8639 26.7069 52.0329 25.382H52.3469L53.0681 24.3227H51.9589C51.8655 23.9766 51.7045 23.6594 51.492 23.3841L51.4936 23.3825Z" fill="#B5D9D7"/>
<path d="M64.9966 17.9102H32.582V34.6398H64.9966V17.9102Z" fill="#86D4D4"/>
<path d="M60.5349 32.813H37.0454V32.5522C37.0454 30.9665 35.8863 29.677 34.4616 29.677H34.2266V22.8801H34.4616C35.8863 22.8801 37.0454 21.5906 37.0454 20.0049V19.7441H60.5349V20.0049C60.5349 21.5906 61.694 22.8801 63.1187 22.8801H63.3538V29.677H63.1187C61.694 29.677 60.5349 30.9665 60.5349 32.5522V32.813ZM37.5075 32.2898H60.0745C60.1888 30.6236 61.3881 29.2906 62.8837 29.1634V23.3921C61.3865 23.2649 60.1888 21.9303 60.0745 20.2657H37.5075C37.3932 21.9319 36.1954 23.2649 34.6983 23.3921V29.1634C36.1954 29.2906 37.3932 30.6252 37.5075 32.2898Z" fill="#72C1BF"/>
<path d="M51.9369 23.3953H51.1078C51.0144 23.1603 50.8889 22.9413 50.7375 22.7433H51.5908L52.312 21.684L51.9353 21.3975H46.1156L45.3944 22.4568L45.7711 22.7433H48.59C48.8798 22.7433 49.1518 22.819 49.3869 22.9494C49.514 23.0782 49.6219 23.2295 49.7008 23.3953H45.9868L45.2656 24.4546L45.6423 24.7411H49.7394C49.4915 25.34 48.9023 25.7618 48.2133 25.7618H45.4604V26.974L47.674 30.8715L48.0507 31.158H49.5704L47.3182 27.1076H48.5562C48.5674 27.1076 48.5771 27.1076 48.5884 27.1076C48.5964 27.1076 48.6045 27.1076 48.6125 27.1076C49.9809 27.0964 51.1062 26.0677 51.2752 24.7427H51.5892L52.3104 23.6835L51.9337 23.3969L51.9369 23.3953Z" fill="#72C1BF"/>
<path d="M50.3608 22.4568H51.2141L51.9353 21.3975H46.1156L45.3944 22.4568H48.2133C48.8701 22.4568 49.4352 22.8399 49.7008 23.3953H45.9868L45.2656 24.4546H49.8296C49.6702 25.2016 49.0085 25.7618 48.2149 25.7618H45.462V26.974L47.6756 30.8715H49.1953L46.9431 26.8211H48.1811C48.1923 26.8211 48.202 26.8211 48.2133 26.8211C48.2213 26.8211 48.2294 26.8211 48.2374 26.8211C49.6058 26.8098 50.7311 25.7811 50.9001 24.4562H51.2141L51.9353 23.3969H50.8261C50.7311 23.0508 50.5717 22.7336 50.3592 22.4584L50.3608 22.4568Z" fill="#C3EAE8"/>
<g opacity="0.5">
<path d="M11.3973 20.6338L10.5586 19.882L22.7758 6.24482L30.4871 14.0285L45.1867 0.78418L50.826 8.84153L55.7264 4.55286L56.4686 5.40126L50.6232 10.5174L44.9951 2.47453L30.4436 15.5836L22.8177 7.88849L11.3973 20.6338Z" fill="#1E2346"/>
<path d="M57.2058 7.36682L58.835 2.5791L53.875 3.56111L57.2058 7.36682Z" fill="#1E2346"/>
</g>
<path d="M56.3034 53.1185C61.75 53.1185 66.1654 48.7032 66.1654 43.2565C66.1654 37.8099 61.75 33.3945 56.3034 33.3945C50.8568 33.3945 46.4414 37.8099 46.4414 43.2565C46.4414 48.7032 50.8568 53.1185 56.3034 53.1185Z" fill="#FFCC00"/>
<path d="M56.3023 50.8244C60.482 50.8244 63.8703 47.4361 63.8703 43.2564C63.8703 39.0768 60.482 35.6885 56.3023 35.6885C52.1227 35.6885 48.7344 39.0768 48.7344 43.2564C48.7344 47.4361 52.1227 50.8244 56.3023 50.8244Z" fill="#D68900"/>
<path d="M56.3048 50.5394C60.3262 50.5394 63.5862 47.2794 63.5862 43.258C63.5862 39.2366 60.3262 35.9766 56.3048 35.9766C52.2834 35.9766 49.0234 39.2366 49.0234 43.258C49.0234 47.2794 52.2834 50.5394 56.3048 50.5394Z" fill="#F3A100"/>
<path d="M59.8582 40.3372H58.976C58.8762 40.0861 58.7442 39.8543 58.5816 39.6434H59.4912L60.2607 38.5149L59.8598 38.209H53.6603L52.8907 39.3375L53.2916 39.6434H56.2956C56.6047 39.6434 56.8929 39.7239 57.1456 39.8623C57.2808 40.0008 57.3951 40.1601 57.4805 40.3372H53.5234L52.7539 41.4657L53.1548 41.7716H57.5191C57.2551 42.4091 56.6272 42.8583 55.8931 42.8583H52.96V44.1494L55.3184 48.3012L55.7193 48.6071H57.3388L54.9401 44.291H56.2586C56.2698 44.291 56.2811 44.291 56.2924 44.291C56.3004 44.291 56.3101 44.291 56.3181 44.291C57.7767 44.2782 58.9744 43.1835 59.1547 41.7716H59.488L60.2575 40.6431L59.8566 40.3372H59.8582Z" fill="#D68900"/>
<path d="M58.1807 39.3375H59.0903L59.8598 38.209H53.6603L52.8907 39.3375H55.8947C56.5934 39.3375 57.1955 39.7464 57.4805 40.3372H53.5234L52.7539 41.4657H57.6157C57.4467 42.261 56.7399 42.8583 55.8947 42.8583H52.9616V44.1494L55.32 48.3012H56.9395L54.5409 43.9852H55.8593C55.8706 43.9852 55.8819 43.9852 55.8931 43.9852C55.9012 43.9852 55.9108 43.9852 55.9189 43.9852C57.3774 43.9723 58.5752 42.8776 58.7555 41.4657H59.0887L59.8582 40.3372H58.6766C58.5768 39.9686 58.4061 39.6321 58.1791 39.3375H58.1807Z" fill="#FFCC00"/>
<path d="M43.6951 43.3838H28.9375V52.1302H43.6951V43.3838Z" fill="#F9A91C"/>
<path d="M39.9254 28.7949C39.9254 28.7949 39.2815 28.5132 38.4766 28.6532L39.362 26.3994L40.3875 26.9226L39.9254 28.7933V28.7949Z" fill="#141930"/>
<path d="M39.3497 27.5872C39.7996 27.5872 40.1643 27.2225 40.1643 26.7726C40.1643 26.3227 39.7996 25.958 39.3497 25.958C38.8999 25.958 38.5352 26.3227 38.5352 26.7726C38.5352 27.2225 38.8999 27.5872 39.3497 27.5872Z" fill="#E6976D"/>
<path d="M36.4841 25.9382C36.4841 25.9382 36.2233 27.2857 35.9609 27.5884C35.6985 27.891 35.3378 28.1711 35.5391 28.4931C35.7403 28.8151 36.204 28.8923 36.5855 28.8344C36.988 28.7732 37.4097 28.6734 37.6721 28.7941C37.9346 28.9149 37.7526 27.2245 37.7526 27.2245L37.2294 25.4746C37.2294 25.4746 36.4052 25.9173 36.4857 25.9382H36.4841Z" fill="#141930"/>
<path d="M29.7146 36.7031C29.7146 36.7031 28.9097 37.0782 27.8359 37.3744C27.8359 37.3744 28.9628 38.2067 30.1702 37.2666L29.7146 36.7031Z" fill="#E6976D"/>
<path d="M35.7518 29.9707C35.7518 29.9707 34.4108 34.4783 29.7148 36.7047L30.1173 37.537C30.1173 37.537 33.337 37.0541 36.7451 32.6801L35.7518 29.9707Z" fill="#E59303"/>
<path d="M28.2718 49.2379C28.2718 49.2379 27.3671 50.587 26.4414 50.9476C26.4414 50.9476 27.4476 51.0281 28.011 50.5049C28.5745 49.9817 28.2718 49.2363 28.2718 49.2363V49.2379Z" fill="#E6976D"/>
<path d="M30.9727 43.0931C30.9727 43.0931 33.8575 49.4714 34.0089 50.6852C34.1602 51.9007 33.0478 53.6715 33.0478 53.6715H33.5533L35.2243 51.5964L33.352 43.7515L35.0231 43.5487L34.1634 41.3722L31.0258 41.3223L30.9759 43.0931H30.9727Z" fill="#E37463"/>
<path d="M31.1498 38.8395C31.1498 38.8395 29.783 38.5353 29.4788 39.7507C29.1745 40.9662 27.7305 50.5319 27.7305 50.5319L29.0457 50.1778L31.2722 41.7244L34.9668 41.8757C34.9668 41.8757 33.1219 39.4964 31.1482 38.8395H31.1498Z" fill="#E6976D"/>
<path d="M29.0482 50.1797C29.0482 50.1797 29.251 50.7866 28.8969 51.2422C28.5427 51.6978 27.9583 52.3997 27.9583 52.3997L27.807 52.1469L28.137 51.1923L26.078 51.445L24.9141 50.7866C24.9141 50.7866 26.3356 50.9766 27.7329 50.5339L29.0482 50.1797Z" fill="#42528E"/>
<path d="M33.5542 53.6708L35.2252 51.5957C35.6309 52.0851 35.5295 52.523 35.5295 52.523L35.4618 54.2439H35.1576L35.0223 52.7596L33.7071 54.0749H32.3242L33.0503 53.6692H33.5558L33.5542 53.6708Z" fill="#42528E"/>
<path d="M39.2438 29.4626L40.7023 30.1001C41.0613 30.2562 41.2513 30.6522 41.1482 31.0306C40.8633 32.0754 40.485 34.8073 40.8681 37.4362H36.1706C36.1706 37.4362 35.496 33.2811 35.5588 30.3061C35.5669 29.931 35.8389 29.6155 36.2076 29.5479L37.5067 29.3145L39.2422 29.4626H39.2438Z" fill="#F9A91C"/>
<path d="M39.9528 30.4246C39.9109 30.988 39.1028 31.3856 38.1465 31.3148C37.1903 31.244 36.4481 30.7304 36.49 30.167C36.5318 29.6035 37.34 29.2059 38.2962 29.2767C39.2525 29.3476 39.9946 29.8611 39.9528 30.4246Z" fill="#E37463"/>
<path d="M39.0649 27.5615C39.0649 27.5615 39.0891 28.7963 39.2871 29.5368C39.2871 29.5368 38.3984 29.759 37.3359 29.5368C37.3359 29.5368 37.7561 29.1166 37.8302 27.8078L39.0649 27.5615Z" fill="#E37463"/>
<path d="M35.9657 30.9756L34.9531 32.9267C34.9531 32.9267 35.2735 33.9892 36.658 33.8653L38.0907 32.9267L35.9673 30.9756H35.9657Z" fill="#F9A91C"/>
<path d="M40.8691 37.4355C40.8691 37.4355 41.5822 39.3593 41.6225 40.6005C41.6611 41.787 41.3166 43.2809 38.6233 43.4854C36.091 43.677 35.6869 43.7414 33.747 43.7414C33.747 43.7414 33.2109 39.8616 31.8828 38.7894C31.8828 38.7894 33.8871 38.1519 36.1715 37.4372H40.8691V37.4355Z" fill="#42528E"/>
<path d="M41.1241 30.5477C41.0484 30.493 40.9792 30.4559 40.9309 30.4318C40.2741 30.1066 39.5883 31.153 39.5883 31.153C39.5883 31.153 38.5402 33.3102 35.8711 35.2292C35.9564 35.9552 36.0417 36.5638 36.0997 36.9566C37.4149 36.3963 38.9121 35.5334 40.1324 34.2214C40.3835 33.9526 40.5944 33.7014 40.7731 33.4664C40.8584 32.4023 41.0146 31.5249 41.1498 31.0291C41.1949 30.8649 41.1804 30.6974 41.1257 30.5477H41.1241Z" fill="#D68505"/>
<path d="M39.6987 30.9086C39.6987 30.9086 37.659 34.7449 32.3867 36.5302L32.7618 37.4156C32.7618 37.4156 37.1616 36.96 40.1269 33.9947C42.7832 31.3384 41.4035 30.4208 41.0655 30.2389C40.4215 29.8895 39.6971 30.9102 39.6971 30.9102L39.6987 30.9086Z" fill="#F3A100"/>
<path d="M32.3861 36.5303L30.4141 37.2676L30.7892 38.1804C30.7892 38.1804 31.7824 38.3414 32.7612 37.4157L32.3861 36.5303Z" fill="#E6976D"/>
<g style="mix-blend-mode:multiply" opacity="0.4">
<path d="M39.1414 28.6824C39.1269 28.5456 39.1141 28.4119 39.1044 28.2864L37.8439 27.8066H37.8326C37.7827 28.7033 37.5702 29.1831 37.4414 29.3972C38.3268 29.336 38.8661 28.9593 39.1446 28.684L39.1414 28.6824Z" fill="#E37463"/>
</g>
<path d="M36.693 25.4131H39.3106V27.6749C39.3106 28.3624 38.752 28.921 38.0646 28.921H37.9374C37.25 28.921 36.6914 28.3624 36.6914 27.6749V25.4131H36.693Z" fill="#E6976D"/>
<path d="M38.6568 25.4742C38.6568 25.4742 38.6761 26.2985 39.2203 26.8023C39.2203 26.8023 39.4408 26.2196 39.7225 26.6011C40.0043 26.9826 39.7418 27.3851 39.2798 27.4463C39.2798 27.4463 39.1398 28.512 39.5809 28.9756C40.022 29.4393 40.0236 28.5925 40.6063 28.673C41.1891 28.7535 41.5723 28.5925 41.2503 28.0693C40.9283 27.5461 40.3858 26.218 40.3246 25.574C40.2634 24.9301 40.0638 23.903 39.3394 24.1445C39.3394 24.1445 39.2396 23.4812 38.5151 23.4393C37.7907 23.3975 37.2884 24.0833 36.725 23.9835C36.1615 23.8837 35.5981 24.1042 35.5176 24.7884C35.4194 25.6304 35.7188 26.2373 36.7652 26.0956C36.7652 26.0956 38.3139 25.8541 38.6568 25.471V25.4742Z" fill="#1E2346"/>
<path d="M44.8995 38.3818H22.0781V39.2495H44.8995V38.3818Z" fill="#1A427D"/>
<path d="M45.1649 38.7266H21.8203V38.9053H45.1649V38.7266Z" fill="#A9BFF8"/>
<path d="M19.7618 37.9679C26.3634 37.9679 31.715 32.6163 31.715 26.0147C31.715 19.4132 26.3634 14.0615 19.7618 14.0615C13.1602 14.0615 7.80859 19.4132 7.80859 26.0147C7.80859 32.6163 13.1602 37.9679 19.7618 37.9679Z" fill="#FFCC00"/>
<path d="M28.7142 28.0068C29.8159 23.0619 26.7004 18.1602 21.7555 17.0586C16.8107 15.9569 11.909 19.0724 10.8073 24.0172C9.70559 28.9621 12.8211 33.8638 17.766 34.9655C22.7108 36.0672 27.6125 32.9516 28.7142 28.0068Z" fill="#D68900"/>
<path d="M28.3606 27.9942C29.4546 23.2445 26.491 18.5073 21.7413 17.4134C16.9916 16.3194 12.2544 19.283 11.1604 24.0327C10.0665 28.7824 13.0301 33.5196 17.7798 34.6136C22.5295 35.7075 27.2667 32.7439 28.3606 27.9942Z" fill="#F3A100"/>
<path d="M24.0698 22.4778H22.9992C22.8785 22.1751 22.7175 21.8918 22.5211 21.6374H23.6239L24.556 20.2707L24.0698 19.9004H16.5566L15.6245 21.2672L16.1106 21.6374H19.7505C20.124 21.6374 20.475 21.734 20.7808 21.9031C20.945 22.0705 21.0835 22.2637 21.1865 22.4778H16.3891L15.457 23.8445L15.9432 24.2148H21.2332C20.9128 24.9876 20.1514 25.5317 19.2627 25.5317H15.7082V27.0965L18.5673 32.1289L19.0535 32.4992H21.0159L18.1085 27.2687H19.7071C19.7199 27.2687 19.7344 27.2687 19.7489 27.2687C19.7602 27.2687 19.7698 27.2687 19.7795 27.2687C21.5471 27.2542 22.9992 25.9261 23.2166 24.2148H23.6206L24.5527 22.848L24.0666 22.4778H24.0698Z" fill="#D68900"/>
<path d="M22.0349 21.2672H23.1377L24.0698 19.9004H16.5566L15.6245 21.2672H19.2643C20.1111 21.2672 20.842 21.763 21.1865 22.4794H16.3891L15.457 23.8462H21.3507C21.1463 24.8105 20.2898 25.5333 19.2643 25.5333H15.7098V27.0981L18.5689 32.1305H20.5313L17.6239 26.9001H19.2225C19.2354 26.9001 19.2499 26.9001 19.2643 26.9001C19.2756 26.9001 19.2853 26.9001 19.2949 26.9001C21.0626 26.8856 22.5147 25.5574 22.732 23.8462H23.1361L24.0682 22.4794H22.637C22.5147 22.0335 22.3086 21.6245 22.0333 21.2672H22.0349Z" fill="#FFCC00"/>
<path d="M44.5435 39.249H22.5898V39.6579H44.5435V39.249Z" fill="#102F54"/>
<path d="M21.212 54.808H20.4844L23.1648 39.6592H24.2756L21.212 54.808Z" fill="#E6976D"/>
<path d="M45.4659 54.808H46.1936L43.5131 39.6592H42.4023L45.4659 54.808Z" fill="#E6976D"/>
<path d="M31.3394 37.9821H23.8938L22.5898 33.1348H30.0354L31.3394 37.9821Z" fill="#F0F1F5"/>
<path d="M31.3566 37.9821H31.136L29.832 33.1348L30.0526 33.365L31.3566 37.9821Z" fill="#CBCED8"/>
<path d="M34.4794 37.9834H23.8945V38.3843H34.4794V37.9834Z" fill="#CBCED8"/>
<path d="M27.0972 35.617C27.1761 36.0388 26.9443 36.4364 26.5788 36.504C26.215 36.5717 25.856 36.2835 25.7771 35.8617C25.6982 35.4399 25.9301 35.0423 26.2955 34.9747C26.6593 34.9071 27.0183 35.1952 27.0972 35.617Z" fill="#CBCED8"/>
<path d="M7.10943 53.3196H2.83365L2.30078 47.999H7.64391L7.10943 53.3196Z" fill="#F0F1F3"/>
<path d="M7.64391 47.9964C7.64391 47.7018 6.44778 47.4619 4.97315 47.4619C3.49852 47.4619 2.30078 47.7002 2.30078 47.9964C2.30078 48.2926 3.49691 48.5309 4.97315 48.5309C6.44939 48.5309 7.64391 48.2926 7.64391 47.9964Z" fill="#F0F1F3"/>
<path d="M7.31545 47.9958C7.31545 47.7366 6.26421 47.5273 4.96827 47.5273C3.67233 47.5273 2.62109 47.7366 2.62109 47.9958C2.62109 48.255 3.67233 48.4643 4.96827 48.4643C6.26421 48.4643 7.31545 48.255 7.31545 47.9958Z" fill="#1E2346"/>
<path d="M7.10782 53.2981C7.10782 53.0035 6.15156 52.7637 4.96993 52.7637C3.78829 52.7637 2.83203 53.0019 2.83203 53.2981C2.83203 53.5944 3.78829 53.8326 4.96993 53.8326C6.15156 53.8326 7.10782 53.5944 7.10782 53.2981Z" fill="#F0F1F3"/>
<path d="M7.53255 46.1549C7.54865 45.9053 7.44079 45.7218 7.34742 45.5592C7.25405 45.3966 7.1816 45.2565 7.28786 45.1004C7.3442 45.0247 7.44884 44.9507 7.57924 44.8718C7.70964 44.7929 7.86419 44.7124 8.03644 44.6335C8.3729 44.4661 8.748 44.2922 9.0265 44.0427C9.16978 43.9204 9.26476 43.7948 9.34043 43.6789C9.41609 43.563 9.46278 43.4471 9.49175 43.3312C9.5481 43.0977 9.54971 42.8852 9.56581 42.6808C9.57547 42.581 9.64147 42.4828 9.75094 42.3974C9.86041 42.3121 10.0037 42.2316 10.1582 42.1527C10.3144 42.0771 10.4866 42.0095 10.6444 41.9338C10.8006 41.8565 10.9535 41.7921 11.0678 41.7036C11.1322 41.6569 11.1821 41.5973 11.224 41.5329C11.2674 41.4718 11.3012 41.4009 11.3286 41.3285C11.3817 41.182 11.4075 41.021 11.4171 40.8761C11.4381 40.6024 11.3125 40.3449 11.0678 40.2177C10.939 40.1501 10.7829 40.0889 10.6154 40.0647C10.5317 40.0519 10.4448 40.0503 10.3595 40.0599C10.2741 40.0728 10.1904 40.1002 10.1083 40.142C9.96183 40.2225 9.80246 40.332 9.65757 40.472C9.51107 40.6105 9.36297 40.757 9.22613 40.8987C9.09251 41.0435 8.96211 41.1756 8.83976 41.2705C8.71741 41.3655 8.60633 41.4315 8.49686 41.4315C8.28275 41.4347 8.03644 41.409 7.77564 41.4879C7.64363 41.5249 7.5068 41.5845 7.36191 41.6794C7.21702 41.7744 7.07535 41.9129 6.92725 42.0932C6.63425 42.4618 6.46522 42.9319 6.36058 43.3473C6.30262 43.5517 6.26559 43.7497 6.22535 43.9139C6.1851 44.0797 6.14164 44.2118 6.0869 44.3019C5.98065 44.4838 5.81966 44.4838 5.62326 44.4854C5.42847 44.487 5.19343 44.4854 4.96483 44.6834C4.87468 44.7607 4.82799 44.8831 4.81028 45.044C4.79418 45.205 4.81511 45.4095 4.84409 45.6365C4.87146 45.8635 4.92458 46.1243 4.9761 46.4044C5.02117 46.6813 5.08557 46.9855 5.1242 47.3011C5.15157 47.5216 5.38983 47.6005 5.55243 47.454C5.78747 47.2447 6.01768 47.0773 6.25272 46.9469C6.48132 46.8149 6.69382 46.7119 6.88539 46.6282C7.07535 46.5444 7.22829 46.4704 7.34098 46.3963C7.45689 46.3239 7.52451 46.2466 7.53094 46.15L7.53255 46.1549Z" fill="#26377C"/>
<path d="M5.10702 48.1035C5.07482 48.0939 5.05872 48.0584 5.06999 48.023C5.06999 48.023 5.11346 47.8862 5.18912 47.6447C5.22454 47.524 5.27766 47.3807 5.34045 47.2165C5.40162 47.0523 5.46924 46.8655 5.55939 46.6691C5.89907 45.8755 6.44481 44.8516 7.15959 43.9436C7.5041 43.4816 7.89852 43.0598 8.27361 42.6718C8.66159 42.2951 9.03669 41.9587 9.37959 41.6947C9.71605 41.4226 10.0187 41.2262 10.2232 41.0797C10.4373 40.9461 10.5596 40.8704 10.5596 40.8704C10.5902 40.8511 10.6304 40.8575 10.6465 40.8865C10.6643 40.9139 10.653 40.9525 10.6208 40.9718C10.6208 40.9718 10.5001 41.0475 10.2875 41.1795C10.0847 41.3244 9.78527 41.5192 9.45203 41.788C9.11235 42.0488 8.74047 42.3837 8.35733 42.7556C7.98545 43.1403 7.59425 43.5573 7.25457 44.0161C6.54784 44.9144 6.00693 45.9302 5.67047 46.7158C5.58032 46.9106 5.51431 47.0957 5.45314 47.2583C5.39035 47.4209 5.33723 47.5626 5.30342 47.6833C5.22776 47.9216 5.18429 48.0568 5.18429 48.0568C5.17302 48.0922 5.13922 48.1132 5.10702 48.1035Z" fill="white"/>
<path d="M5.73141 45.1782C5.56237 44.9577 5.3386 44.9142 5.15185 44.8772C4.96511 44.8401 4.81056 44.8112 4.75744 44.6309C4.72846 44.5407 4.72041 44.4151 4.72524 44.2606C4.73007 44.1061 4.74456 43.9225 4.74134 43.7277C4.74617 43.3349 4.70431 42.8777 4.51596 42.4946C4.41776 42.3062 4.31795 42.1565 4.20526 42.0487C4.09096 41.9408 3.97505 41.8651 3.86075 41.812C3.63537 41.7025 3.39872 41.6929 3.1991 41.6623C3.09606 41.6494 3.01074 41.5737 2.91737 41.4691C2.82561 41.3661 2.73546 41.226 2.64369 41.0747C2.54871 40.925 2.44407 40.7688 2.33943 40.6223C2.28791 40.5483 2.22996 40.479 2.172 40.4195C2.11405 40.3583 2.05448 40.3036 1.99492 40.2585C1.92892 40.2086 1.85647 40.1732 1.78242 40.1522C1.70515 40.1329 1.62465 40.1265 1.54577 40.1297C1.388 40.1345 1.23185 40.178 1.10145 40.2279C0.853529 40.3245 0.690933 40.5595 0.652297 40.8219C0.632978 40.9604 0.6201 41.1149 0.636198 41.2582C0.644248 41.329 0.658736 41.3983 0.684494 41.4594C0.707032 41.5238 0.740839 41.5834 0.785915 41.6333C0.827772 41.6784 0.877677 41.7219 0.934022 41.7621C0.991977 41.8023 1.05154 41.8442 1.11272 41.8861C1.23668 41.9714 1.37673 42.0503 1.50069 42.1372C1.62143 42.2257 1.73412 42.3159 1.81301 42.4044C1.89189 42.4946 1.92892 42.5912 1.91282 42.6829C1.8774 42.8697 1.82588 43.0645 1.81623 43.2802C1.81301 43.3864 1.82588 43.4959 1.86613 43.607C1.90477 43.7197 1.96111 43.8404 2.06092 43.966C2.2525 44.2187 2.55515 44.4184 2.82722 44.6115C2.96728 44.7049 3.09284 44.7983 3.19427 44.8852C3.29569 44.9722 3.37618 45.0543 3.40838 45.1283C3.46794 45.2796 3.36169 45.3891 3.22968 45.5147C3.09767 45.6386 2.94474 45.7787 2.89161 45.9912C2.87229 46.0749 2.91415 46.1506 3.00269 46.2327C3.08963 46.3148 3.21358 46.4049 3.36974 46.5112C3.52912 46.6174 3.70298 46.7446 3.88651 46.9008C4.07647 47.0569 4.25194 47.2453 4.4242 47.4707C4.54333 47.6284 4.79286 47.6188 4.87818 47.4352C4.99892 47.1712 5.14059 46.9201 5.25811 46.6883C5.38207 46.4548 5.50442 46.2375 5.59296 46.0427C5.68311 45.8479 5.75877 45.6724 5.78775 45.5259C5.81512 45.3794 5.80385 45.2603 5.73624 45.175L5.73141 45.1782Z" fill="#86D4D4"/>
<path d="M4.68155 48.1276C4.64935 48.1276 4.62198 48.1018 4.62037 48.0696C4.62037 48.0696 4.61555 47.9441 4.6075 47.7251C4.6075 47.6157 4.59462 47.482 4.57852 47.3307C4.56403 47.1794 4.55115 47.0071 4.51734 46.822C4.40626 46.0799 4.15996 45.0962 3.72529 44.1899C3.52245 43.7311 3.26165 43.2996 3.01051 42.902C2.74489 42.514 2.48248 42.1615 2.23134 41.8813C1.98825 41.5932 1.75804 41.3807 1.60511 41.2229C1.4409 41.0764 1.34753 40.9927 1.34753 40.9927C1.32338 40.9718 1.32177 40.9331 1.3427 40.909C1.36363 40.8848 1.40066 40.8816 1.4248 40.9026C1.4248 40.9026 1.51978 40.9879 1.6856 41.1344C1.84015 41.2937 2.07358 41.5095 2.31988 41.8009C2.57424 42.0842 2.83987 42.4416 3.10872 42.8344C3.36307 43.2368 3.62548 43.6731 3.83154 44.1368C4.27104 45.0544 4.52217 46.0493 4.63325 46.8011C4.66706 46.9894 4.68155 47.1633 4.69604 47.3162C4.71214 47.4708 4.72502 47.6044 4.72502 47.7155C4.73307 47.9376 4.73789 48.0648 4.73789 48.0648C4.73789 48.097 4.71375 48.1244 4.67994 48.1244L4.68155 48.1276Z" fill="white"/>
<path d="M6.21028 44.7886C6.11047 44.5181 5.93338 44.3877 5.77562 44.2702C5.61946 44.1527 5.49067 44.0496 5.51643 43.8307C5.53253 43.7212 5.5937 43.5876 5.67581 43.4347C5.75791 43.2817 5.86094 43.1111 5.98168 42.9324C6.21028 42.5702 6.4743 42.1742 6.61918 41.7572C6.69646 41.5495 6.72866 41.366 6.74797 41.2034C6.76729 41.0424 6.75924 40.8975 6.73509 40.7655C6.68358 40.4999 6.59182 40.289 6.51776 40.0781C6.48396 39.9751 6.50006 39.8382 6.56445 39.6901C6.62723 39.542 6.72705 39.3762 6.83491 39.2056C6.9476 39.0365 7.07961 38.8675 7.1923 38.6985C7.24864 38.6131 7.30499 38.531 7.3565 38.4522C7.40802 38.3717 7.45309 38.2944 7.48851 38.2171C7.52715 38.1334 7.54968 38.0465 7.56095 37.9579C7.57544 37.8726 7.57544 37.7857 7.569 37.7004C7.55451 37.5297 7.50461 37.3623 7.44987 37.2206C7.34523 36.9518 7.11019 36.7908 6.82203 36.8198C6.6707 36.8359 6.49523 36.8729 6.3278 36.9502C6.24409 36.9888 6.16198 37.0371 6.08632 37.0983C6.01388 37.1611 5.94787 37.2351 5.89153 37.3236C5.84001 37.4041 5.79333 37.4943 5.74664 37.5909C5.69996 37.6875 5.6581 37.7905 5.62268 37.9C5.55024 38.1173 5.47941 38.3427 5.41662 38.5584C5.35867 38.7757 5.29749 38.977 5.22666 39.1396C5.15582 39.3022 5.08499 39.431 4.98518 39.4937C4.79038 39.6209 4.55212 39.7384 4.3525 39.9622C4.24947 40.0733 4.15127 40.2101 4.06112 40.3824C3.97258 40.5546 3.90657 40.7704 3.85184 41.0295C3.75202 41.5527 3.81159 42.1065 3.90335 42.5782C3.9436 42.8133 3.99833 43.0306 4.03697 43.2173C4.07561 43.4041 4.09654 43.5602 4.08688 43.681C4.074 43.9208 3.92911 44.0094 3.75524 44.114C3.58138 44.2203 3.3721 44.3442 3.2578 44.6614C3.21111 44.7853 3.22721 44.9335 3.28356 45.1041C3.34312 45.2747 3.4542 45.4695 3.5846 45.6853C3.71178 45.901 3.8792 46.1392 4.05307 46.3984C4.22049 46.6592 4.41851 46.9393 4.59881 47.2452C4.72599 47.4593 4.97391 47.4239 5.05118 47.1905C5.16226 46.854 5.28944 46.561 5.43916 46.3034C5.58244 46.0459 5.72249 45.8269 5.85611 45.637C5.98651 45.447 6.08793 45.2876 6.15716 45.1492C6.22638 45.0107 6.25214 44.8916 6.21511 44.7853L6.21028 44.7886Z" fill="#F3CE87"/>
<path d="M4.95447 48.0849C4.92227 48.0913 4.89008 48.0607 4.88364 48.0189C4.88364 48.0189 4.85788 47.8547 4.81441 47.5681C4.80475 47.4957 4.78866 47.4168 4.779 47.3298C4.76934 47.2429 4.75968 47.1479 4.74841 47.0481C4.72748 46.8469 4.70011 46.6199 4.69045 46.3704C4.62767 45.3771 4.6486 44.0393 4.88686 42.7305C4.98989 42.0737 5.16053 41.4297 5.32957 40.8308C5.51631 40.2368 5.71111 39.6878 5.91073 39.2322C6.10069 38.7702 6.29387 38.4032 6.41944 38.1408C6.5595 37.8864 6.63999 37.7399 6.63999 37.7399C6.66092 37.7029 6.69956 37.6852 6.72854 37.7013C6.75751 37.7174 6.76395 37.7608 6.74303 37.7979C6.74303 37.7979 6.66414 37.9427 6.52408 38.1955C6.40012 38.4563 6.20694 38.8201 6.01859 39.2789C5.82058 39.7329 5.62739 40.277 5.44226 40.8663C5.27483 41.4603 5.10419 42.0994 5.00277 42.7514C4.76612 44.0506 4.7468 45.3787 4.80797 46.3639C4.81763 46.6118 4.845 46.8356 4.86593 47.0352C4.8772 47.135 4.88686 47.2284 4.89491 47.3154C4.90457 47.4023 4.91905 47.4796 4.92871 47.552C4.97218 47.837 4.99794 47.9995 4.99794 47.9995C5.00438 48.0414 4.98345 48.08 4.95125 48.0849H4.95447Z" fill="white"/>
<path d="M65.0665 53.3196H60.7907L60.2578 47.999H65.6009L65.0665 53.3196Z" fill="#F0F1F3"/>
<path d="M65.5993 47.9964C65.5993 47.7018 64.4032 47.4619 62.9286 47.4619C61.4539 47.4619 60.2578 47.7002 60.2578 47.9964C60.2578 48.2926 61.4539 48.5309 62.9286 48.5309C64.4032 48.5309 65.5993 48.2926 65.5993 47.9964Z" fill="#F0F1F3"/>
<path d="M65.2725 47.9958C65.2725 47.7366 64.2212 47.5273 62.9253 47.5273C61.6294 47.5273 60.5781 47.7366 60.5781 47.9958C60.5781 48.255 61.6294 48.4643 62.9253 48.4643C64.2212 48.4643 65.2725 48.255 65.2725 47.9958Z" fill="#1E2346"/>
<path d="M65.0649 53.2981C65.0649 53.0035 64.1086 52.7637 62.927 52.7637C61.7453 52.7637 60.7891 53.0019 60.7891 53.2981C60.7891 53.5944 61.7453 53.8326 62.927 53.8326C64.1086 53.8326 65.0649 53.5944 65.0649 53.2981Z" fill="#F0F1F3"/>
<path d="M65.4896 46.1549C65.5057 45.9053 65.3978 45.7218 65.3045 45.5592C65.2111 45.3966 65.1386 45.2565 65.2449 45.1004C65.2996 45.0247 65.4059 44.9507 65.5363 44.8718C65.6667 44.7929 65.8212 44.7124 65.9935 44.6335C66.3299 44.4661 66.705 44.2922 66.9835 44.0427C67.1268 43.9204 67.2218 43.7948 67.2975 43.6789C67.3731 43.563 67.4198 43.4471 67.4488 43.3312C67.5051 43.0977 67.5067 42.8852 67.5228 42.6808C67.5325 42.581 67.5985 42.4828 67.708 42.3974C67.8174 42.3121 67.9607 42.2316 68.1153 42.1527C68.2714 42.0771 68.4437 42.0095 68.6014 41.9338C68.7576 41.8565 68.9105 41.7921 69.0248 41.7036C69.0892 41.6569 69.1391 41.5973 69.181 41.5329C69.2245 41.4718 69.2583 41.4009 69.2856 41.3285C69.3388 41.182 69.3645 41.021 69.3742 40.8761C69.3951 40.6024 69.2695 40.3449 69.0248 40.2177C68.896 40.1501 68.7399 40.0889 68.5725 40.0647C68.4888 40.0519 68.4018 40.0503 68.3165 40.0599C68.2312 40.0728 68.1475 40.1002 68.0654 40.142C67.9189 40.2225 67.7595 40.332 67.6146 40.472C67.4681 40.6105 67.32 40.757 67.1832 40.8987C67.0495 41.0435 66.9191 41.1756 66.7968 41.2705C66.6744 41.3655 66.5634 41.4315 66.4539 41.4315C66.2398 41.4347 65.9935 41.409 65.7327 41.4879C65.6007 41.5249 65.4638 41.5845 65.3189 41.6794C65.1741 41.7744 65.0324 41.9129 64.8843 42.0932C64.5913 42.4618 64.4222 42.9319 64.3176 43.3473C64.2597 43.5517 64.2226 43.7497 64.1824 43.9139C64.1421 44.0797 64.0987 44.2118 64.0439 44.3019C63.9377 44.4838 63.7767 44.4838 63.5803 44.4854C63.3855 44.487 63.1505 44.4854 62.9219 44.6834C62.8317 44.7607 62.785 44.8831 62.7673 45.044C62.7512 45.205 62.7721 45.4095 62.8011 45.6365C62.8285 45.8635 62.8816 46.1243 62.9331 46.4044C62.9782 46.6813 63.0426 46.9855 63.0812 47.3011C63.1086 47.5216 63.3469 47.6005 63.5095 47.454C63.7445 47.2447 63.9747 47.0773 64.2097 46.9469C64.4383 46.8149 64.6508 46.7119 64.8424 46.6282C65.0324 46.5444 65.1853 46.4704 65.298 46.3963C65.4139 46.3239 65.4815 46.2466 65.488 46.15L65.4896 46.1549Z" fill="#26377C"/>
<path d="M63.064 48.1035C63.0318 48.0939 63.0158 48.0584 63.027 48.023C63.027 48.023 63.0705 47.8862 63.1462 47.6447C63.1816 47.524 63.2347 47.3807 63.2975 47.2165C63.3587 47.0523 63.4263 46.8655 63.5164 46.6691C63.8561 45.8755 64.4018 44.8516 65.1166 43.9436C65.4611 43.4816 65.8555 43.0598 66.2306 42.6718C66.6186 42.2951 66.9937 41.9587 67.3366 41.6947C67.6731 41.4226 67.9757 41.2262 68.1802 41.0797C68.3943 40.9461 68.5166 40.8704 68.5166 40.8704C68.5472 40.8511 68.5875 40.8575 68.6036 40.8865C68.6213 40.9139 68.61 40.9525 68.5778 40.9718C68.5778 40.9718 68.4571 41.0475 68.2446 41.1795C68.0417 41.3244 67.7423 41.5192 67.4091 41.788C67.0694 42.0488 66.6975 42.3837 66.3144 42.7556C65.9425 43.1403 65.5529 43.5573 65.2116 44.0161C64.5049 44.9144 63.964 45.9302 63.6275 46.7158C63.5373 46.9106 63.4713 47.0957 63.4102 47.2583C63.3474 47.4209 63.2959 47.5626 63.2604 47.6833C63.1848 47.9216 63.1413 48.0568 63.1413 48.0568C63.1301 48.0922 63.0962 48.1132 63.064 48.1035Z" fill="white"/>
<path d="M63.6884 45.1782C63.5194 44.9577 63.2956 44.9142 63.1089 44.8772C62.9221 44.8401 62.7676 44.8112 62.7145 44.6309C62.6855 44.5407 62.6774 44.4151 62.6823 44.2606C62.6871 44.1061 62.7016 43.9225 62.6984 43.7277C62.7032 43.3349 62.6613 42.8777 62.473 42.4946C62.3748 42.3062 62.275 42.1565 62.1623 42.0487C62.048 41.9408 61.9321 41.8651 61.8178 41.812C61.5924 41.7025 61.3557 41.6929 61.1561 41.6623C61.0531 41.6494 60.9678 41.5737 60.8744 41.4691C60.7826 41.3661 60.6925 41.226 60.6007 41.0747C60.5057 40.925 60.4011 40.7688 60.2965 40.6223C60.2449 40.5483 60.187 40.479 60.129 40.4195C60.0711 40.3583 60.0115 40.3036 59.952 40.2585C59.8859 40.2086 59.8135 40.1732 59.7394 40.1522C59.6622 40.1329 59.5817 40.1265 59.5028 40.1297C59.345 40.1345 59.1889 40.178 59.0585 40.2279C58.8106 40.3245 58.648 40.5595 58.6093 40.8219C58.59 40.9604 58.5771 41.1149 58.5932 41.2582C58.6013 41.329 58.6158 41.3983 58.6415 41.4594C58.6641 41.5238 58.6979 41.5834 58.7429 41.6333C58.7848 41.6784 58.8347 41.7219 58.8911 41.7621C58.949 41.8023 59.0086 41.8442 59.0697 41.8861C59.1937 41.9714 59.3338 42.0503 59.4577 42.1372C59.5785 42.2257 59.6912 42.3159 59.77 42.4044C59.8489 42.4946 59.8859 42.5912 59.8698 42.6829C59.8344 42.8697 59.7829 43.0645 59.7733 43.2802C59.77 43.3864 59.7829 43.4959 59.8232 43.607C59.8618 43.7197 59.9181 43.8404 60.018 43.966C60.2095 44.2187 60.5122 44.4184 60.7842 44.6115C60.9243 44.7049 61.0499 44.7983 61.1513 44.8852C61.2527 44.9722 61.3332 45.0543 61.3654 45.1283C61.425 45.2796 61.3187 45.3891 61.1867 45.5147C61.0547 45.6386 60.9018 45.7787 60.8486 45.9912C60.8293 46.0749 60.8712 46.1506 60.9597 46.2327C61.0467 46.3148 61.1706 46.4049 61.3268 46.5112C61.4861 46.6174 61.66 46.7446 61.8435 46.9008C62.0335 47.0569 62.209 47.2453 62.3812 47.4707C62.5004 47.6284 62.7499 47.6188 62.8352 47.4352C62.956 47.1712 63.0976 46.9201 63.2151 46.6883C63.3391 46.4548 63.4614 46.2375 63.55 46.0427C63.6401 45.8479 63.7158 45.6724 63.7448 45.5259C63.7721 45.3794 63.7609 45.2603 63.6933 45.175L63.6884 45.1782Z" fill="#86D4D4"/>
<path d="M62.6386 48.1276C62.6064 48.1276 62.579 48.1018 62.5774 48.0696C62.5774 48.0696 62.5726 47.9441 62.5645 47.7251C62.5645 47.6157 62.5516 47.482 62.5356 47.3307C62.5211 47.1794 62.5082 47.0071 62.4744 46.822C62.3633 46.0799 62.117 45.0962 61.6823 44.1899C61.4795 43.7311 61.2187 43.2996 60.9675 42.902C60.7019 42.514 60.4395 42.1615 60.1884 41.8813C59.9453 41.5932 59.7151 41.3807 59.5621 41.2229C59.3979 41.0764 59.3046 40.9927 59.3046 40.9927C59.2804 40.9718 59.2788 40.9331 59.2997 40.909C59.3207 40.8848 59.3577 40.8816 59.3818 40.9026C59.3818 40.9026 59.4768 40.9879 59.6426 41.1344C59.7972 41.2937 60.0306 41.5095 60.2769 41.8009C60.5313 42.0842 60.7969 42.4416 61.0657 42.8344C61.3201 43.2368 61.5825 43.6731 61.7886 44.1368C62.2281 45.0544 62.4792 46.0493 62.5903 46.8011C62.6241 46.9894 62.6386 47.1633 62.6531 47.3162C62.6692 47.4708 62.682 47.6044 62.682 47.7155C62.6901 47.9376 62.6949 48.0648 62.6949 48.0648C62.6949 48.097 62.6708 48.1244 62.637 48.1244L62.6386 48.1276Z" fill="white"/>
<path d="M64.1673 44.7886C64.0675 44.5181 63.8904 44.3877 63.7326 44.2702C63.5765 44.1527 63.4477 44.0496 63.4735 43.8307C63.4896 43.7212 63.5507 43.5876 63.6328 43.4347C63.7149 43.2817 63.818 43.1111 63.9387 42.9324C64.1673 42.5702 64.4313 42.1742 64.5762 41.7572C64.6535 41.5495 64.6857 41.366 64.705 41.2034C64.7243 41.0424 64.7163 40.8975 64.6921 40.7655C64.6406 40.4999 64.5488 40.289 64.4748 40.0781C64.441 39.9751 64.4571 39.8382 64.5215 39.6901C64.5843 39.542 64.6841 39.3762 64.7919 39.2056C64.9046 39.0365 65.0366 38.8675 65.1493 38.6985C65.2057 38.6131 65.262 38.531 65.3135 38.4522C65.365 38.3717 65.4101 38.2944 65.4455 38.2171C65.4842 38.1334 65.5067 38.0465 65.518 37.9579C65.5325 37.8726 65.5325 37.7857 65.526 37.7004C65.5115 37.5297 65.4616 37.3623 65.4069 37.2206C65.3023 36.9518 65.0672 36.7908 64.7791 36.8198C64.6277 36.8359 64.4523 36.8729 64.2848 36.9502C64.2011 36.9888 64.119 37.0371 64.0434 37.0983C63.9709 37.1611 63.9049 37.2351 63.8486 37.3236C63.797 37.4041 63.7504 37.4943 63.7037 37.5909C63.657 37.6875 63.6151 37.7905 63.5797 37.9C63.5073 38.1173 63.4364 38.3427 63.3737 38.5584C63.3157 38.7757 63.2545 38.977 63.1837 39.1396C63.1129 39.3022 63.042 39.431 62.9422 39.4937C62.7474 39.6209 62.5092 39.7384 62.3095 39.9622C62.2065 40.0733 62.1083 40.2101 62.0181 40.3824C61.9296 40.5546 61.8636 40.7704 61.8089 41.0295C61.7091 41.5527 61.7686 42.1065 61.8604 42.5782C61.9006 42.8133 61.9554 43.0306 61.994 43.2173C62.0326 43.4041 62.0536 43.5602 62.0439 43.681C62.031 43.9208 61.8861 44.0094 61.7123 44.114C61.5384 44.2203 61.3291 44.3442 61.2148 44.6614C61.1681 44.7853 61.1842 44.9335 61.2406 45.1041C61.3002 45.2747 61.4112 45.4695 61.5416 45.6853C61.6688 45.901 61.8362 46.1392 62.0101 46.3984C62.1775 46.6592 62.3755 46.9393 62.5558 47.2452C62.683 47.4593 62.9309 47.4239 63.0082 47.1905C63.1193 46.854 63.2465 46.561 63.3962 46.3034C63.5395 46.0459 63.6795 45.8269 63.8131 45.637C63.9435 45.447 64.045 45.2876 64.1142 45.1492C64.1834 45.0107 64.2092 44.8916 64.1721 44.7853L64.1673 44.7886Z" fill="#F3CE87"/>
<path d="M62.9099 48.0849C62.8777 48.0913 62.8455 48.0607 62.8391 48.0189C62.8391 48.0189 62.8133 47.8547 62.7698 47.5681C62.7602 47.4957 62.7441 47.4168 62.7344 47.3298C62.7248 47.2429 62.7151 47.1479 62.7054 47.0481C62.6845 46.8469 62.6571 46.6199 62.6475 46.3704C62.5847 45.3771 62.6056 44.0393 62.8439 42.7305C62.9469 42.0737 63.1176 41.4297 63.2866 40.8308C63.4733 40.2368 63.6681 39.6878 63.8678 39.2322C64.0577 38.7702 64.2509 38.4032 64.3765 38.1408C64.5165 37.8864 64.597 37.7399 64.597 37.7399C64.618 37.7029 64.6566 37.6852 64.6856 37.7013C64.7145 37.7174 64.721 37.7608 64.7001 37.7979C64.7001 37.7979 64.6212 37.9427 64.4811 38.1955C64.3572 38.4563 64.164 38.8201 63.9756 39.2789C63.7776 39.7329 63.5844 40.277 63.3993 40.8663C63.2319 41.4603 63.0612 42.0994 62.9598 42.7514C62.7231 44.0506 62.7038 45.3787 62.765 46.3639C62.7747 46.6118 62.802 46.8356 62.823 47.0352C62.8342 47.135 62.8439 47.2284 62.8519 47.3154C62.8616 47.4023 62.8761 47.4796 62.8857 47.552C62.9292 47.837 62.955 47.9995 62.955 47.9995C62.9614 48.0414 62.9405 48.08 62.9083 48.0849H62.9099Z" fill="white"/>
</svg>
