<svg width="44" height="42" viewBox="0 0 44 42" fill="none" xmlns="http://www.w3.org/2000/svg">
<path d="M4.98198 41.2884C4.98198 41.2884 0.224433 34.3945 3.87261 26.1003C7.52201 17.8049 9.2776 18.5675 8.31857 14.3059C7.35954 10.0454 8.52711 6.1608 12.8579 3.60865C18.395 0.346018 35.084 1.27716 37.9393 12.3296C40.7339 23.1493 36.408 27.006 38.8983 29.7606C41.3886 32.5153 46.0298 35.9161 41.8506 41.2884H4.98198Z" fill="#C3F4F3"/>
<path d="M37.8237 22.2852C36.2912 25.3247 33.3025 27.1434 30.1333 27.3277C28.3971 24.67 28.083 21.1855 29.6155 18.146C31.148 15.1064 34.1367 13.2878 37.306 13.1035C39.0421 15.7611 39.3562 19.2457 37.8237 22.2852Z" fill="#6AC7CE"/>
<path d="M36.8673 13.8074L30.4727 26.4941L30.6004 26.5585L36.995 13.8718L36.8673 13.8074Z" fill="white"/>
<path d="M35.268 17.1481L37.8129 16.2558L37.7656 16.1212L35.3614 16.9638L34.6097 14.5293L34.4727 14.5717L35.268 17.1481Z" fill="white"/>
<path d="M34.2289 19.2067L36.7738 18.3144L36.7265 18.1798L34.3223 19.0224L33.5706 16.5879L33.4336 16.6303L34.2289 19.2067Z" fill="white"/>
<path d="M33.1899 21.2653L35.7348 20.373L35.6875 20.2372L33.2832 21.081L32.5315 18.6465L32.3945 18.6877L33.1899 21.2653Z" fill="white"/>
<path d="M39.0001 28.0143C36.7971 29.1625 34.251 28.9673 32.293 27.7258C32.3972 25.41 33.6957 23.2119 35.8987 22.0637C38.1017 20.9156 40.6478 21.1108 42.6058 22.3523C42.5016 24.668 41.2031 26.8661 39.0001 28.0143Z" fill="#F77F26"/>
<path d="M42.0444 22.5814L32.8477 27.375L32.8959 27.4675L42.0926 22.6738L42.0444 22.5814Z" fill="white"/>
<path d="M39.6719 23.8789L41.5608 24.4341L41.5899 24.3335L39.8052 23.8085L40.3969 22.0457L40.2987 22.0117L39.6719 23.8789Z" fill="white"/>
<path d="M38.1797 24.6569L40.0686 25.2122L40.0977 25.1128L38.3131 24.5878L38.9059 22.8237L38.8065 22.791L38.1797 24.6569Z" fill="white"/>
<path d="M36.6914 25.4343L38.5804 25.9908L38.6095 25.8901L36.8248 25.3652L37.4177 23.6011L37.3182 23.5684L36.6914 25.4343Z" fill="white"/>
<path d="M4.47158 28.4174C6.94371 30.7573 10.3712 31.4557 13.4156 30.5549C14.1479 27.4656 13.2629 24.0805 10.7907 21.7418C8.3186 19.4018 4.89108 18.7034 1.84669 19.6042C1.11438 22.6935 1.99945 26.0786 4.47158 28.4174Z" fill="#DD2F4C"/>
<path d="M2.5007 20.1207L2.40234 20.2246L12.7198 29.9916L12.8182 29.8877L2.5007 20.1207Z" fill="white"/>
<path d="M5.13635 22.7155L2.43871 22.7385L2.4375 22.5955L4.98601 22.5736L4.86841 20.0275L5.01148 20.0215L5.13635 22.7155Z" fill="white"/>
<path d="M6.80823 24.2995L4.11059 24.3225L4.10938 24.1794L6.65789 24.1576L6.54028 21.6115L6.68335 21.6055L6.80823 24.2995Z" fill="white"/>
<path d="M8.4828 25.8854L5.78637 25.9084L5.78516 25.7654L8.33367 25.7436L8.21606 23.1975L8.35792 23.1914L8.4828 25.8854Z" fill="white"/>
<path d="M5.31163 34.2065C7.77406 34.5399 10.1031 33.4924 11.5229 31.6616C10.6402 29.5181 8.67246 27.8898 6.21125 27.5576C3.74881 27.2241 1.41975 28.2717 0 30.1024C0.882644 32.246 2.85041 33.8743 5.31163 34.2065Z" fill="#57B7CE"/>
<path d="M0.607757 30.1311L0.59375 30.2344L10.8708 31.6275L10.8848 31.5242L0.607757 30.1311Z" fill="white"/>
<path d="M3.27511 30.5454L1.68683 31.7081L1.625 31.6244L3.12598 30.5248L1.97054 29.0674L2.05299 29.002L3.27511 30.5454Z" fill="white"/>
<path d="M4.94308 30.7719L3.3548 31.9346L3.29297 31.851L4.79395 30.7513L3.63972 29.294L3.72095 29.2285L4.94308 30.7719Z" fill="white"/>
<path d="M6.61105 30.9946L5.02277 32.1585L4.96094 32.0736L6.46192 30.9752L5.30648 29.5166L5.38892 29.4512L6.61105 30.9946Z" fill="white"/>
<path d="M7.88495 34.842C7.88495 34.842 9.92304 34.5971 10.6614 33.9121L10.7257 34.1134C10.7257 34.1134 9.31561 35.3682 8.18442 35.4677C7.05323 35.5671 7.88374 34.842 7.88374 34.842H7.88495Z" fill="#F99223"/>
<path d="M19.9943 36.5215H11.3521C10.0342 36.5215 8.96484 37.5908 8.96484 38.9087C8.96484 40.2267 10.0342 41.296 11.3521 41.296H19.9943V36.5215Z" fill="#FF2E56"/>
<path d="M10.9438 40.5341C10.186 40.5341 9.5119 40.1813 9.07422 39.6309C9.37975 40.5972 10.283 41.2967 11.3499 41.2967H19.9921V40.5341H10.9426H10.9438Z" fill="#B92650"/>
<path d="M31.2258 40.5345V37.2852H19.8278C18.9306 37.2852 18.2031 38.0126 18.2031 38.9098C18.2031 39.807 18.9306 40.5345 19.8278 40.5345H31.2258Z" fill="white"/>
<path d="M19.8244 40.5322C18.9272 40.5322 18.1997 39.8047 18.1997 38.9075C18.1997 38.0103 18.9272 37.2829 19.8244 37.2829H31.8019C32.0129 37.2829 32.1826 37.1119 32.1826 36.9022C32.1826 36.6912 32.0117 36.5215 31.8019 36.5215H19.6607C18.3428 36.5215 17.2734 37.5908 17.2734 38.9087C17.2734 40.2267 18.3428 41.296 19.6607 41.296H31.8019C32.0129 41.296 32.1826 41.1251 32.1826 40.9153C32.1826 40.7043 32.0117 40.5346 31.8019 40.5346H19.8244V40.5322Z" fill="#FF82A0"/>
<path d="M19.2718 38.7141C19.2015 38.7141 19.1445 38.7711 19.1445 38.8414C19.1445 38.9117 19.2015 38.9687 19.2718 38.9687H31.2215V38.7129H19.2718V38.7141Z" fill="#EAE6FF"/>
<path d="M24.4375 38.9688V40.14L24.9601 39.7059L25.4838 40.14V38.9688H24.4375Z" fill="#FCC922"/>
<path d="M29.7502 37.9141H26.0353C25.9683 37.9141 25.9141 37.9683 25.9141 38.0353V38.0486C25.9141 38.1156 25.9683 38.1699 26.0353 38.1699H29.7502C29.8171 38.1699 29.8714 38.1156 29.8714 38.0486V38.0353C29.8714 37.9683 29.8171 37.9141 29.7502 37.9141Z" fill="#EAE6FF"/>
<path d="M17.276 29.3638C17.276 28.0459 18.3454 26.9766 19.6633 26.9766H11.3521C10.0342 26.9766 8.96484 28.0459 8.96484 29.3638C8.96484 30.6817 10.0342 31.7511 11.3521 31.7511H19.6633C18.3454 31.7511 17.276 30.6817 17.276 29.3638Z" fill="#F99223"/>
<path d="M17.9167 30.9892H10.9477C10.1899 30.9892 9.51581 30.6364 9.07812 30.0859C9.07934 30.0908 9.08055 30.0944 9.08297 30.0993C9.09752 30.1441 9.11328 30.1878 9.13026 30.2314C9.13632 30.246 9.14117 30.2593 9.14723 30.2739C9.15451 30.292 9.16299 30.3102 9.17027 30.3284C9.17633 30.343 9.18239 30.3563 9.18967 30.3709C9.19815 30.389 9.20664 30.406 9.21513 30.4242C9.2224 30.4375 9.22847 30.4509 9.23574 30.4654C9.24423 30.4824 9.25393 30.5006 9.26241 30.5176C9.26969 30.5309 9.27817 30.5442 9.28545 30.5576C9.30242 30.5879 9.32061 30.617 9.3388 30.6461C9.34728 30.6594 9.35577 30.674 9.36547 30.6873C9.37638 30.7031 9.38608 30.7176 9.39699 30.7334C9.40669 30.7467 9.41518 30.76 9.42488 30.7734C9.43579 30.7879 9.4467 30.8025 9.45761 30.817C9.46731 30.8304 9.47822 30.8437 9.48914 30.857C9.50005 30.8704 9.51096 30.8849 9.52308 30.8983C9.53521 30.9128 9.54854 30.9274 9.56067 30.9419C9.57764 30.9625 9.59583 30.9819 9.61402 31.0013C9.62857 31.0159 9.6419 31.0316 9.65645 31.0462C9.66857 31.0583 9.67949 31.0692 9.69161 31.0813C9.70495 31.0947 9.71828 31.1068 9.73162 31.1189C9.74375 31.1298 9.75587 31.142 9.76921 31.1529C9.78376 31.165 9.79709 31.1771 9.81164 31.1905C9.82377 31.2002 9.83589 31.2111 9.84801 31.2208C9.86499 31.2353 9.88317 31.2486 9.90015 31.262C9.90985 31.2693 9.91955 31.2777 9.93046 31.285C9.95713 31.3044 9.9838 31.3238 10.0117 31.3432C10.0226 31.3505 10.0347 31.3578 10.0456 31.3663C10.0638 31.3784 10.082 31.3893 10.1002 31.4014C10.1123 31.4087 10.1257 31.4172 10.1378 31.4245C10.156 31.4354 10.1742 31.4463 10.1923 31.456C10.2045 31.4632 10.2178 31.4693 10.2299 31.4766C10.2518 31.4875 10.2724 31.4984 10.2942 31.5093C10.3039 31.5142 10.3136 31.519 10.3245 31.5239C10.356 31.5384 10.3875 31.553 10.4191 31.5663C10.4288 31.5699 10.4385 31.5736 10.4482 31.5784C10.4712 31.5881 10.4954 31.5978 10.5197 31.6063C10.5318 31.6112 10.5452 31.6148 10.5573 31.6197C10.5791 31.6269 10.6009 31.6354 10.6228 31.6415C10.6349 31.6451 10.6482 31.65 10.6603 31.6536C10.6846 31.6609 10.7088 31.6681 10.7331 31.6742C10.744 31.6766 10.7537 31.6803 10.7646 31.6827C10.7998 31.6912 10.8349 31.6997 10.8701 31.7069C10.8761 31.7082 10.8822 31.7094 10.8883 31.7106C10.9174 31.7166 10.9477 31.7215 10.978 31.7263C10.9901 31.7288 11.0022 31.73 11.0144 31.7312C11.0386 31.7348 11.0641 31.7385 11.0883 31.7409C11.1017 31.7421 11.115 31.7433 11.1283 31.7445C11.1538 31.747 11.1793 31.7494 11.2059 31.7506C11.2181 31.7506 11.229 31.7518 11.2411 31.753C11.2787 31.7542 11.3163 31.7554 11.3538 31.7554H19.665C18.9739 31.7554 18.3532 31.462 17.9167 30.9928V30.9892Z" fill="#D67A1E"/>
<path d="M31.2258 30.9895V27.7402H19.8278C18.9306 27.7402 18.2031 28.4677 18.2031 29.3649C18.2031 30.2621 18.9306 30.9895 19.8278 30.9895H31.2258Z" fill="white"/>
<path d="M19.8283 30.9873C18.9311 30.9873 18.2036 30.2598 18.2036 29.3626C18.2036 28.4654 18.9311 27.738 19.8283 27.738H31.8058C32.0168 27.738 32.1865 27.567 32.1865 27.3573C32.1865 27.1463 32.0156 26.9766 31.8058 26.9766H19.6646C18.3467 26.9766 17.2773 28.0459 17.2773 29.3638C17.2773 30.6817 18.3467 31.7511 19.6646 31.7511H31.8058C32.0168 31.7511 32.1865 31.5801 32.1865 31.3704C32.1865 31.1594 32.0156 30.9897 31.8058 30.9897H19.8283V30.9873Z" fill="#FFA750"/>
<path d="M19.2757 29.4245C19.2054 29.4245 19.1484 29.3675 19.1484 29.2972C19.1484 29.2269 19.2054 29.1699 19.2757 29.1699H31.2254V29.4257H19.2757V29.4245Z" fill="#EAE6FF"/>
<path d="M29.8679 28.9206H26.1664C26.096 28.9206 26.0391 28.8636 26.0391 28.7933C26.0391 28.723 26.096 28.666 26.1664 28.666H29.8679C29.9382 28.666 29.9952 28.723 29.9952 28.7933C29.9952 28.8636 29.9382 28.9206 29.8679 28.9206Z" fill="#EAE6FF"/>
<path d="M23.7206 30.0261H22.1468C22.0765 30.0261 22.0195 29.9691 22.0195 29.8988C22.0195 29.8285 22.0765 29.7715 22.1468 29.7715H23.7206C23.7909 29.7715 23.8479 29.8285 23.8479 29.8988C23.8479 29.9691 23.7909 30.0261 23.7206 30.0261Z" fill="#EAE6FF"/>
<path d="M20.207 29.4238V30.5962L20.7296 30.161L21.2534 30.5962V29.4238H20.207Z" fill="#FF2E56"/>
<path d="M30.2994 31.7461H21.9883C23.3062 31.7461 24.3755 32.8155 24.3755 34.1334C24.3755 35.4513 23.3062 36.5206 21.9883 36.5206H30.2994C31.6173 36.5206 32.6867 35.4513 32.6867 34.1334C32.6867 32.8155 31.6173 31.7461 30.2994 31.7461Z" fill="#770FBA"/>
<path d="M30.4488 36.5153C30.4743 36.5141 30.4998 36.5116 30.5264 36.5092C30.5398 36.508 30.5531 36.5068 30.5664 36.5056C30.5919 36.5032 30.6162 36.4995 30.6404 36.4959C30.6525 36.4947 30.6647 36.4922 30.6768 36.491C30.7071 36.4862 30.7362 36.4813 30.7665 36.4753C30.7726 36.4741 30.7786 36.4728 30.7847 36.4716C30.8198 36.4644 30.855 36.4559 30.8902 36.4474C30.9011 36.445 30.912 36.4413 30.9217 36.4389C30.9459 36.4328 30.9702 36.4256 30.9944 36.4183C31.0078 36.4146 31.0199 36.4098 31.0332 36.4062C31.0551 36.3989 31.0769 36.3916 31.0987 36.3843C31.1108 36.3795 31.1242 36.3758 31.1363 36.371C31.1605 36.3625 31.1836 36.3528 31.2066 36.3431C31.2163 36.3395 31.226 36.3358 31.2357 36.331C31.2672 36.3177 31.2987 36.3031 31.3303 36.2886C31.34 36.2837 31.3509 36.2789 31.3606 36.274C31.3824 36.2631 31.403 36.2522 31.4248 36.2413C31.437 36.234 31.4503 36.2279 31.4624 36.2207C31.4806 36.211 31.4988 36.2 31.517 36.1891C31.5303 36.1819 31.5424 36.1734 31.5558 36.1661C31.574 36.1552 31.5922 36.1431 31.6103 36.1309C31.6225 36.1237 31.6334 36.1164 31.6455 36.1079C31.6734 36.0897 31.7001 36.0703 31.7267 36.0497C31.7364 36.0424 31.7473 36.0339 31.757 36.0267C31.774 36.0133 31.7922 36 31.8092 35.9854C31.8213 35.9757 31.8334 35.9648 31.8456 35.9539C31.8601 35.9418 31.8734 35.9297 31.888 35.9176C31.9001 35.9066 31.9134 35.8957 31.9256 35.8836C31.9389 35.8715 31.9522 35.8581 31.9656 35.846C31.9777 35.8339 31.9898 35.823 32.002 35.8109C32.0165 35.7963 32.0298 35.7818 32.0444 35.7672C32.0626 35.7478 32.082 35.7272 32.0989 35.7066C32.1111 35.692 32.1244 35.6787 32.1365 35.6642C32.1487 35.6508 32.1596 35.6363 32.1705 35.6217C32.1802 35.6084 32.1911 35.5963 32.2008 35.5829C32.2117 35.5684 32.2226 35.5538 32.2335 35.5381C32.2432 35.5247 32.2517 35.5126 32.2614 35.4993C32.2723 35.4835 32.2832 35.469 32.2929 35.4532C32.3014 35.4399 32.3099 35.4265 32.3184 35.4132C32.3378 35.3829 32.356 35.3538 32.373 35.3223C32.3802 35.3089 32.3875 35.2968 32.3948 35.2835C32.4045 35.2665 32.413 35.2483 32.4227 35.2313C32.4299 35.218 32.436 35.2046 32.4433 35.1913C32.4518 35.1731 32.4603 35.1562 32.4687 35.138C32.4748 35.1246 32.4809 35.1101 32.4869 35.0967C32.4954 35.0786 32.5027 35.0604 32.51 35.0422C32.516 35.0288 32.5209 35.0143 32.5269 35.001C32.5451 34.9537 32.5633 34.9052 32.5791 34.8555C32.1414 35.4059 31.4673 35.7587 30.7095 35.7587H23.7405C23.304 36.2279 22.6833 36.5213 21.9922 36.5213H30.3033C30.3409 36.5213 30.3785 36.5213 30.4161 36.5189C30.4282 36.5189 30.4391 36.5177 30.4513 36.5165L30.4488 36.5153Z" fill="#5A0E96"/>
<path d="M10.4297 35.7591V32.5098H21.8277C22.7249 32.5098 23.4523 33.2372 23.4523 34.1344C23.4523 35.0316 22.7249 35.7591 21.8277 35.7591H10.4297Z" fill="white"/>
<path d="M21.827 35.7568C22.7242 35.7568 23.4516 35.0293 23.4516 34.1321C23.4516 33.2349 22.7242 32.5075 21.827 32.5075H9.84945C9.63849 32.5075 9.46875 32.3365 9.46875 32.1268C9.46875 31.9158 9.6397 31.7461 9.84945 31.7461H21.9907C23.3086 31.7461 24.3779 32.8155 24.3779 34.1334C24.3779 35.4513 23.3086 36.5206 21.9907 36.5206H9.84945C9.63849 36.5206 9.46875 36.3497 9.46875 36.1399C9.46875 35.929 9.6397 35.7592 9.84945 35.7592H21.827V35.7568Z" fill="#9839E2"/>
<path d="M22.3793 34.1941C22.4497 34.1941 22.5066 34.1371 22.5066 34.0668C22.5066 33.9964 22.4497 33.9395 22.3793 33.9395H10.4297V34.1953H22.3793V34.1941Z" fill="#EAE6FF"/>
<path d="M17.6023 33.6452H13.9007C13.8304 33.6452 13.7734 33.5883 13.7734 33.5179C13.7734 33.4476 13.8304 33.3906 13.9007 33.3906H17.6023C17.6726 33.3906 17.7296 33.4476 17.7296 33.5179C17.7296 33.5883 17.6726 33.6452 17.6023 33.6452Z" fill="#EAE6FF"/>
<path d="M20.2752 35.1355H18.7015C18.6312 35.1355 18.5742 35.0785 18.5742 35.0082C18.5742 34.9378 18.6312 34.8809 18.7015 34.8809H20.2752C20.3456 34.8809 20.4026 34.9378 20.4026 35.0082C20.4026 35.0785 20.3456 35.1355 20.2752 35.1355Z" fill="#EAE6FF"/>
<path d="M16.7539 34.1934V35.3658L17.2765 34.9305L17.8002 35.3658V34.1934H16.7539Z" fill="#5652E5"/>
<path d="M31.4969 2.53381L21.0518 7.1495L10.6602 2.53381L17.2667 1.06677L17.8413 0.939468L21.0518 0.226562L24.2781 0.939468L24.8564 1.06677L25.2141 1.14558L25.4723 1.20256L31.4969 2.53381Z" fill="#2C2256"/>
<path d="M21.0518 0.226562V7.1495L10.6602 2.53381L21.0518 0.226562Z" fill="#1C173D"/>
<path d="M27.6751 8.27846L27.1635 8.36212C27.0629 8.37788 26.9635 8.39485 26.8628 8.4094C26.4724 8.47002 26.0796 8.52458 25.6856 8.57308C24.6223 8.70402 23.5493 8.7901 22.4739 8.83011C20.0526 8.92226 17.6169 8.78283 15.2381 8.41304C14.9665 8.37061 14.6949 8.32575 14.4258 8.27725L14.8162 6.4962L15.2381 4.57814C17.6157 4.20957 20.0526 4.07014 22.4739 4.16228C23.5493 4.20108 24.6223 4.28716 25.6856 4.4181C26.0796 4.4666 26.4712 4.52116 26.8628 4.58178L27.2835 6.49499L27.6751 8.27604V8.27846Z" fill="#251E4F"/>
<path d="M25.4922 3.87035V1.30123C25.4922 1.26607 25.4849 1.23333 25.4716 1.2006C25.4073 1.04904 25.1988 0.9375 24.9527 0.9375H24.2773L24.8557 1.0648H24.9527C25.0557 1.0648 25.1503 1.09511 25.2133 1.14361C25.2691 1.18605 25.3031 1.24061 25.3031 1.30001V3.86914C25.1406 4.06919 25.0557 4.29228 25.0557 4.519V5.40286H25.742V4.519C25.742 4.29228 25.6571 4.06798 25.4946 3.86914L25.4922 3.87035Z" fill="#FF2E56"/>
<path d="M23.0789 22.3906H19.0742V26.1091H23.0789V22.3906Z" fill="#D7D4FF"/>
<path d="M23.0789 25.0195H19.0742V26.1071H23.0789V25.0195Z" fill="#B6B6DD"/>
<path d="M23.0789 22.3906H19.0742V23.9074H23.0789V22.3906Z" fill="#B6B6DD"/>
<path d="M25.8434 26.1097H16.3125V26.0164C16.3125 25.6042 16.6471 25.2695 17.0594 25.2695H25.0965C25.5087 25.2695 25.8434 25.6042 25.8434 26.0164V26.1097Z" fill="#D7D4FF"/>
<path d="M33.2979 21.1254H8.85547V8.01179C8.85547 7.66261 9.13918 7.37891 9.48835 7.37891H32.665C33.0142 7.37891 33.2979 7.66261 33.2979 8.01179V21.1254Z" fill="#1F143F"/>
<path d="M32.6344 8.04102H9.51953V20.4599H32.6344V8.04102Z" fill="white"/>
<path d="M33.2979 21.1211H8.85547V23.0173C8.85547 23.3665 9.13918 23.6502 9.48835 23.6502H32.665C33.0142 23.6502 33.2979 23.3665 33.2979 23.0173V21.1211Z" fill="#D7D4FF"/>
<path d="M20.5482 9.14062H16.9922V9.43161H20.5482V9.14062Z" fill="#D7D4FF"/>
<path d="M20.5482 9.9668H16.9922V10.2578H20.5482V9.9668Z" fill="#D7D4FF"/>
<path d="M20.5482 10.7969H16.9922V11.0879H20.5482V10.7969Z" fill="#D7D4FF"/>
<path d="M20.5482 11.623H16.9922V11.914H20.5482V11.623Z" fill="#D7D4FF"/>
<path d="M20.5482 12.4551H16.9922V12.7461H20.5482V12.4551Z" fill="#D7D4FF"/>
<path d="M20.5478 13.2773H11.5977V13.5683H20.5478V13.2773Z" fill="#D7D4FF"/>
<path d="M20.5478 13.9941H11.5977V14.2851H20.5478V13.9941Z" fill="#D7D4FF"/>
<path d="M20.5478 14.7109H11.5977V15.0019H20.5478V14.7109Z" fill="#D7D4FF"/>
<path d="M30.5556 9.14062H21.6055V9.43161H30.5556V9.14062Z" fill="#D7D4FF"/>
<path d="M30.5556 9.9668H21.6055V10.2578H30.5556V9.9668Z" fill="#D7D4FF"/>
<path d="M30.5556 10.7969H21.6055V11.0879H30.5556V10.7969Z" fill="#D7D4FF"/>
<path d="M30.5556 11.623H21.6055V11.914H30.5556V11.623Z" fill="#D7D4FF"/>
<path d="M29.2643 12.4551H21.6055V12.7461H29.2643V12.4551Z" fill="#D7D4FF"/>
<path d="M30.5575 13.2773H22.6367V13.5683H30.5575V13.2773Z" fill="#D7D4FF"/>
<path d="M30.5556 14.1074H21.6055V14.3984H30.5556V14.1074Z" fill="#D7D4FF"/>
<path d="M30.5556 14.9336H21.6055V15.2246H30.5556V14.9336Z" fill="#D7D4FF"/>
<path d="M30.5556 15.7637H21.6055V16.0547H30.5556V15.7637Z" fill="#D7D4FF"/>
<path d="M30.5556 16.5898H21.6055V16.8808H30.5556V16.5898Z" fill="#D7D4FF"/>
<path d="M30.5556 17.418H21.6055V17.709H30.5556V17.418Z" fill="#D7D4FF"/>
<path d="M30.5556 18.2441H21.6055V18.5351H30.5556V18.2441Z" fill="#D7D4FF"/>
<path d="M29.2643 19.0762H21.6055V19.3672H29.2643V19.0762Z" fill="#D7D4FF"/>
<path d="M20.5478 15.4297H11.5977V15.7207H20.5478V15.4297Z" fill="#D7D4FF"/>
<path d="M20.5478 16.1426H11.5977V16.4336H20.5478V16.1426Z" fill="#D7D4FF"/>
<path d="M20.5478 16.8633H11.5977V17.1543H20.5478V16.8633Z" fill="#D7D4FF"/>
<path d="M19.1183 17.5742H11.5977V17.8652H19.1183V17.5742Z" fill="#D7D4FF"/>
<path d="M20.5483 18.291H12.6094V18.582H20.5483V18.291Z" fill="#D7D4FF"/>
<path d="M20.5478 19.0039H11.5977V19.2949H20.5478V19.0039Z" fill="#D7D4FF"/>
<path d="M16.548 9.14062H11.5977V12.7427H16.548V9.14062Z" fill="#D7D4FF"/>
<path d="M30.1671 25.9688H11.9844V26.9714H30.1671V25.9688Z" fill="#FEFEFC"/>
<path d="M30.1671 26.6445H11.9844V26.9707H30.1671V26.6445Z" fill="#D7D4FF"/>
<path d="M13.1225 25.5879H12.3672V25.9662H13.1225V25.5879Z" fill="#FEFEFC"/>
<path d="M14.2514 25.5879H13.4961V25.9662H14.2514V25.5879Z" fill="#FEFEFC"/>
<path d="M15.353 25.5879H14.5977V25.9662H15.353V25.5879Z" fill="#FEFEFC"/>
<path d="M23.1499 25.5879H22.3945V25.9662H23.1499V25.5879Z" fill="#FEFEFC"/>
<path d="M24.2749 25.5879H23.5195V25.9662H24.2749V25.5879Z" fill="#FEFEFC"/>
<path d="M25.3803 25.5879H24.625V25.9662H25.3803V25.5879Z" fill="#FEFEFC"/>
<path d="M26.4233 25.5879H25.668V25.9662H26.4233V25.5879Z" fill="#FEFEFC"/>
<path d="M27.5288 25.5879H26.7734V25.9662H27.5288V25.5879Z" fill="#FEFEFC"/>
<path d="M22.0731 25.5879H15.6836V25.9662H22.0731V25.5879Z" fill="#FEFEFC"/>
<path d="M28.6499 25.5879H27.8945V25.9662H28.6499V25.5879Z" fill="#FEFEFC"/>
<path d="M29.7788 25.5879H29.0234V25.9662H29.7788V25.5879Z" fill="#FEFEFC"/>
<path d="M13.1225 25.8828H12.3672V25.9725H13.1225V25.8828Z" fill="#C7C7EF"/>
<path d="M14.2514 25.8828H13.4961V25.9725H14.2514V25.8828Z" fill="#C7C7EF"/>
<path d="M15.353 25.8828H14.5977V25.9725H15.353V25.8828Z" fill="#C7C7EF"/>
<path d="M23.1499 25.8828H22.3945V25.9725H23.1499V25.8828Z" fill="#C7C7EF"/>
<path d="M24.2749 25.8828H23.5195V25.9725H24.2749V25.8828Z" fill="#C7C7EF"/>
<path d="M25.3803 25.8828H24.625V25.9725H25.3803V25.8828Z" fill="#C7C7EF"/>
<path d="M26.4233 25.8828H25.668V25.9725H26.4233V25.8828Z" fill="#C7C7EF"/>
<path d="M27.5288 25.8828H26.7734V25.9725H27.5288V25.8828Z" fill="#C7C7EF"/>
<path d="M22.0731 25.8828H15.6836V25.9725H22.0731V25.8828Z" fill="#C7C7EF"/>
<path d="M28.6499 25.8828H27.8945V25.9725H28.6499V25.8828Z" fill="#C7C7EF"/>
<path d="M29.7788 25.8828H29.0234V25.9725H29.7788V25.8828Z" fill="#C7C7EF"/>
<path d="M12.1236 39.6875H13.9483L13.5931 41.2903H13.9083L17.4667 25.2051H17.1515L16.7999 26.7958H14.9752L15.3268 25.2051H15.0116L11.4531 41.2903H11.7684L12.1236 39.6875ZM14.4939 37.2202H12.6692L13.0462 35.518H14.8709L14.4939 37.2202ZM14.4296 29.2631H16.2543L15.8773 30.9653H14.0526L14.4296 29.2631ZM15.7936 31.3484L15.4165 33.0519H13.5918L13.9689 31.3484H15.7936ZM15.3329 33.4338L14.9558 35.136H13.1311L13.5082 33.4338H15.3329ZM16.7163 27.1789L16.3392 28.8811H14.5145L14.8916 27.1789H16.7163ZM12.2085 39.3068L12.5855 37.6045H14.4102L14.0332 39.3068H12.2085Z" fill="#251E4F"/>
<path d="M20.2695 17.4258V18.7958C20.2695 19.2432 20.632 19.6069 21.0806 19.6069C21.528 19.6069 21.8918 19.2444 21.8918 18.7958V17.4258H20.2707H20.2695Z" fill="#817DA0"/>
<path d="M21.9199 18.4492H20.2395C20.1806 18.4492 20.1328 18.497 20.1328 18.5559V18.5668C20.1328 18.6257 20.1806 18.6735 20.2395 18.6735H21.9199C21.9789 18.6735 22.0266 18.6257 22.0266 18.5668V18.5559C22.0266 18.497 21.9789 18.4492 21.9199 18.4492Z" fill="#AFAED3"/>
<path d="M21.9199 17.9629H20.2395C20.1806 17.9629 20.1328 18.0107 20.1328 18.0696V18.0805C20.1328 18.1394 20.1806 18.1872 20.2395 18.1872H21.9199C21.9789 18.1872 22.0266 18.1394 22.0266 18.0805V18.0696C22.0266 18.0107 21.9789 17.9629 21.9199 17.9629Z" fill="#AFAED3"/>
<path d="M23.5654 16.54C24.938 15.1674 24.938 12.942 23.5654 11.5693C22.1928 10.1967 19.9673 10.1967 18.5947 11.5693C17.2221 12.942 17.2221 15.1674 18.5947 16.54C19.9673 17.9127 22.1928 17.9127 23.5654 16.54Z" fill="#1F143F"/>
<path d="M21.0793 17.1039C22.7627 17.1039 24.1273 15.7392 24.1273 14.0558C24.1273 12.3725 22.7627 11.0078 21.0793 11.0078C19.3959 11.0078 18.0312 12.3725 18.0312 14.0558C18.0312 15.7392 19.3959 17.1039 21.0793 17.1039Z" fill="#FFCD52"/>
<path d="M18.4094 13.5722C18.407 13.5868 18.4045 13.6025 18.4009 13.6171C18.3827 13.7262 18.4676 13.8268 18.5791 13.8268C18.6652 13.8268 18.7416 13.7662 18.7549 13.6801C18.7574 13.6644 18.7598 13.6498 18.7622 13.634C18.7828 13.5237 18.6992 13.4219 18.5864 13.4219C18.4991 13.4219 18.4251 13.4849 18.4094 13.5722Z" fill="#FCE7B9"/>
<path d="M18.8218 13.0855C18.8909 13.0855 18.9515 13.0455 18.983 12.9836C19.2946 12.3738 19.8645 11.9191 20.5483 11.7603C20.6283 11.7421 20.6829 11.6682 20.6829 11.5869C20.6829 11.4705 20.575 11.3845 20.4622 11.4111C19.6729 11.5954 19.017 12.124 18.6593 12.8285C18.5999 12.9461 18.6896 13.0855 18.8218 13.0855Z" fill="#FCE7B9"/>
<path d="M21.1258 11.2578H21.0312V11.6967H21.1258V11.2578Z" fill="#1F143F"/>
<path d="M21.1258 16.4082H21.0312V16.8471H21.1258V16.4082Z" fill="#1F143F"/>
<path d="M18.2852 14.0031V14.0977H18.7241V14.0031H18.2852Z" fill="#1F143F"/>
<path d="M23.4375 14.0031V14.0977H23.8764V14.0031H23.4375Z" fill="#1F143F"/>
<path d="M21.3392 14.0544C21.3392 14.1974 21.2228 14.3138 21.0798 14.3138C20.9367 14.3138 20.8203 14.1974 20.8203 14.0544C20.8203 13.9113 20.9367 13.7949 21.0798 13.7949C21.2228 13.7949 21.3392 13.9113 21.3392 14.0544Z" fill="#1F143F"/>
<path d="M21.201 12.3359H20.9609V14.0054H21.201V12.3359Z" fill="#1F143F"/>
<path d="M21.0803 13.9102H19.8945V14.1769H21.0803V13.9102Z" fill="#1F143F"/>
<path d="M21.0804 9.13672C20.9907 9.13672 20.918 9.20946 20.918 9.29918V9.98056C20.918 10.0703 20.9907 10.143 21.0804 10.143C21.1702 10.143 21.2429 10.0703 21.2429 9.98056V9.29918C21.2429 9.20946 21.1702 9.13672 21.0804 9.13672Z" fill="#EFB025"/>
<path d="M24.5559 10.5746C24.4928 10.5116 24.3898 10.5116 24.3255 10.5746L23.8442 11.056C23.7811 11.119 23.7811 11.2221 23.8442 11.2863C23.9072 11.3506 24.0103 11.3494 24.0745 11.2863L24.5559 10.805C24.6189 10.7419 24.6189 10.6389 24.5559 10.5746Z" fill="#EFB025"/>
<path d="M18.3137 16.8188C18.2506 16.7557 18.1476 16.7557 18.0833 16.8188L17.602 17.3001C17.5389 17.3631 17.5389 17.4662 17.602 17.5305C17.665 17.5935 17.7681 17.5935 17.8323 17.5305L18.3137 17.0491C18.3767 16.9861 18.3767 16.883 18.3137 16.8188Z" fill="#EFB025"/>
<path d="M25.9946 14.0492C25.9946 13.9595 25.9218 13.8867 25.8321 13.8867H25.1507C25.061 13.8867 24.9883 13.9595 24.9883 14.0492C24.9883 14.1389 25.061 14.2116 25.1507 14.2116H25.8321C25.9218 14.2116 25.9946 14.1389 25.9946 14.0492Z" fill="#EFB025"/>
<path d="M17.1704 14.0492C17.1704 13.9595 17.0976 13.8867 17.0079 13.8867H16.3265C16.2368 13.8867 16.1641 13.9595 16.1641 14.0492C16.1641 14.1389 16.2368 14.2116 16.3265 14.2116H17.0079C17.0976 14.2116 17.1704 14.1389 17.1704 14.0492Z" fill="#EFB025"/>
<path d="M24.5563 17.5305C24.6194 17.4674 24.6194 17.3644 24.5563 17.3001L24.075 16.8188C24.0119 16.7557 23.9089 16.7557 23.8446 16.8188C23.7804 16.8818 23.7816 16.9849 23.8446 17.0491L24.3259 17.5305C24.389 17.5935 24.492 17.5935 24.5563 17.5305Z" fill="#EFB025"/>
<path d="M18.3137 11.2863C18.3767 11.2233 18.3767 11.1202 18.3137 11.056L17.8323 10.5746C17.7693 10.5116 17.6662 10.5116 17.602 10.5746C17.5389 10.6377 17.5389 10.7407 17.602 10.805L18.0833 11.2863C18.1464 11.3494 18.2494 11.3494 18.3137 11.2863Z" fill="#EFB025"/>
<path d="M29.658 9.93359C29.635 10.1324 29.6035 10.3325 29.5586 10.5277L29.9393 10.3446C29.9393 10.3446 29.9599 10.1846 30.0011 9.93359H29.6568H29.658Z" fill="#FCD3B9"/>
<path d="M29.9394 10.4778C29.9527 10.4099 29.977 10.3432 30.0121 10.2838L30.0376 10.239L29.9758 10.2305C29.8145 10.4329 29.4969 10.5324 29.241 10.4936C29.2374 10.4936 29.2325 10.4924 29.2289 10.4911C28.8518 10.4305 28.7852 10.7567 28.7852 10.7567C28.7852 10.7567 29.2968 11.0246 29.6872 10.7263L29.8266 10.6197L29.7357 10.907L29.8545 10.9179L29.9394 10.4766V10.4778Z" fill="#323E49"/>
<path d="M30.198 9.95703C30.238 10.3074 30.2016 10.6869 30.1641 11.0979L30.5169 10.8651C30.5169 10.8651 30.5411 10.4747 30.5411 9.95703H30.198Z" fill="#FCD3B9"/>
<path d="M30.5342 10.9959C30.5378 10.9267 30.5536 10.8576 30.5803 10.7934L30.5997 10.7461H30.5378C30.4057 10.9692 30.1038 11.1098 29.8456 11.1062C29.8419 11.1062 29.8371 11.1062 29.8334 11.1062C29.4515 11.0977 29.4297 11.4299 29.4297 11.4299C29.4297 11.4299 29.9729 11.6263 30.3184 11.2783L30.4421 11.1535L30.3911 11.4505L30.51 11.4457L30.5342 10.9959Z" fill="#323E49"/>
<path d="M31.727 6.05273C31.6009 6.10608 31.0602 6.41525 30.6334 6.40555C30.2903 6.40191 29.5725 6.41889 29.4865 6.6347C29.3919 6.87112 29.5119 7.2203 29.6792 7.68951C29.7738 8.35634 29.8114 9.28869 29.6138 10.1495L29.9945 9.96644C29.9945 9.96644 30.0563 9.65848 30.1193 9.22686C30.1957 9.66455 30.2309 10.1544 30.1812 10.6975L30.534 10.4647C30.534 10.4647 30.6722 8.24358 30.2927 7.36943C30.2927 7.36943 30.3849 7.36821 30.8141 7.35124C30.8141 7.35124 32.7176 7.69921 32.9673 7.07359C33.1904 6.51588 31.9853 6.11942 31.7234 6.05395L31.727 6.05273Z" fill="#323E49"/>
<path d="M32.1392 3.52734L31.9088 4.35664C30.0962 5.31688 28.457 4.76402 28.457 4.76402L28.4958 4.56882C30.2526 4.85252 32.1392 3.52734 32.1392 3.52734Z" fill="#770FBA"/>
<path d="M31.9833 3.61911C31.9833 3.61911 31.8318 2.57037 31.2583 2.69525C30.9879 2.75466 30.9709 2.3097 30.9709 2.3097L30.7321 2.24907C30.8582 2.02841 30.6133 1.40038 30.6133 1.40038C30.6133 1.40038 31.5287 0.957844 31.89 1.72531C31.9821 1.92051 31.9724 2.15087 32.0415 2.35456C32.2404 2.94864 32.4259 3.47241 32.4259 3.47241L31.9845 3.6179L31.9833 3.61911Z" fill="#FCD3B9"/>
<path d="M31.6814 0.747308C31.6814 0.747308 31.3165 0.30356 31.7396 0.0841119C32.1627 -0.135337 32.6441 0.0962361 32.6344 0.426015C32.6247 0.755794 32.3179 1.05526 32.0112 0.936445C31.7044 0.817628 31.6814 0.746095 31.6814 0.746095V0.747308Z" fill="#2C253D"/>
<path d="M31.4648 5.86755C31.603 5.63961 31.7109 5.3947 31.7497 5.1316C31.7558 4.7703 31.4139 4.2623 31.5145 4.08407C31.5836 3.96162 31.7206 3.65609 31.8018 3.47543C31.7958 3.38329 31.7897 3.32994 31.7897 3.32994C31.7897 3.2475 31.7376 2.97228 31.7376 2.97228C31.5824 3.01835 31.4575 2.85346 31.5412 2.8474C31.6236 2.84255 32.1474 2.73828 32.1474 2.73828H32.168C32.168 2.73828 32.3535 3.05594 32.4238 3.27054C33.8763 5.4238 32.6857 7.45946 32.6493 7.07876C32.6142 6.69806 32.0674 6.34282 31.6648 6.21066C31.3872 6.11973 31.3993 5.97788 31.4648 5.86755Z" fill="#770FBA"/>
<path d="M30.6096 1.40521C30.6096 1.40521 30.372 1.39915 30.4314 1.06209C30.4908 0.72504 31.0158 0.0921544 31.7093 0.615922C32.4028 1.1409 32.8502 1.73014 32.0027 2.38606C32.0027 2.38606 31.9833 1.50826 31.3128 1.66588C30.9552 1.74954 30.6096 1.404 30.6096 1.404V1.40521Z" fill="#2C253D"/>
<path d="M30.9844 1.53521C30.9844 1.53521 31.319 1.71587 31.3105 1.94744C31.3105 1.94744 31.3748 1.74133 31.2547 1.59099C31.1347 1.44065 30.9844 1.53521 30.9844 1.53521Z" fill="#2C253D"/>
<path d="M29.1792 5.58462C29.1186 5.47307 28.9173 5.35547 28.9173 5.35547L28.9634 5.52885C28.9295 5.52036 28.8664 5.51066 28.7997 5.50096C28.6809 5.48277 28.5742 5.57492 28.5742 5.69495C28.5742 5.80164 28.6603 5.88893 28.767 5.89136C28.9464 5.895 29.1562 5.88772 29.2326 5.85741L29.1792 5.58462Z" fill="#FCD3B9"/>
<path d="M28.4967 4.56786C28.4858 4.45631 28.3767 4.24414 28.3767 4.24414L28.3536 4.40054C28.3294 4.38236 28.2809 4.35205 28.23 4.32052C28.1402 4.26475 28.0214 4.30234 27.979 4.40054C27.9414 4.48784 27.9814 4.58847 28.0675 4.62727C28.213 4.69274 28.3851 4.75942 28.4579 4.76185L28.4967 4.56786Z" fill="#FCD3B9"/>
<path d="M32.1499 3.61914L32.3645 4.54422C31.0635 6.05005 29.2291 5.85606 29.2291 5.85606L29.1758 5.58327C31.437 5.56144 32.1499 3.61914 32.1499 3.61914Z" fill="#770FBA"/>
<path d="M5.1781 39.9121H4.91016V40.1643H5.22417L5.1781 39.9121Z" fill="#FCBD8D"/>
<path d="M7.43695 40.1224C7.43695 40.1224 7.47332 39.8169 7.46241 39.498H8.49055C8.45054 39.966 8.38749 40.3783 8.28686 40.5298C8.00558 40.953 5.63044 40.1067 5.17578 40.2207V39.863C5.17578 39.863 6.65615 39.8145 7.43695 40.1237V40.1224Z" fill="#323E49"/>
<path d="M4.90856 39.9115C4.90856 39.9115 4.74246 39.8739 4.6685 39.8848C4.6685 39.8848 4.59333 40.2728 4.64062 40.822C4.64062 40.822 4.90735 40.6789 4.90735 40.1637H4.98009C4.98009 40.1637 4.90129 40.1006 4.90735 39.9115H4.90856Z" fill="#323E49"/>
<path d="M5.1781 40.3789H4.91016V40.6311H5.22417L5.1781 40.3789Z" fill="#FCBD8D"/>
<path d="M8.55965 38.0969C8.55965 38.0969 8.56814 40.5751 8.28686 40.9982C8.00558 41.4213 5.63044 40.5751 5.17578 40.689V40.3314C5.17578 40.3314 6.65615 40.2829 7.43695 40.592C7.43695 40.592 7.52788 39.8221 7.38118 39.4511C7.07201 38.6655 7.25751 38.4848 7.32298 37.9805L8.55965 38.0981V38.0969Z" fill="#323E49"/>
<path d="M8.46566 33.1965L8.52749 33.6172L8.58812 33.8403C8.60024 33.8864 8.57963 33.9337 8.53719 33.9555L8.4596 33.9955L8.48385 34.1131C8.50567 34.2222 8.43535 34.3301 8.32623 34.3532L8.05465 34.4114C7.93583 34.4368 7.85824 34.5532 7.88248 34.6733L8.00736 35.3074L7.24718 35.0527L7.22656 33.3505L8.46687 33.1953L8.46566 33.1965Z" fill="#FCBD8D"/>
<path d="M7.24327 34.6047C7.24327 34.6047 7.85069 34.5987 8.24715 34.9939C8.24715 34.9939 7.42877 34.7332 7.22266 34.8581L7.24327 34.6035V34.6047Z" fill="#FFA44A"/>
<path d="M7.22541 34.8559C7.22541 34.8559 6.7853 35.8125 7.02415 36.6527C7.26179 37.4929 7.31513 37.7694 7.22541 37.9524C7.1357 38.1343 7.72251 38.1343 8.46572 38.0931H8.6876C8.6876 38.0931 8.75792 37.7766 8.64638 37.6227C8.53604 37.4687 8.66092 37.2165 8.38813 36.3399C8.16019 35.6064 8.24991 34.9917 8.24991 34.9917C8.24991 34.9917 7.53943 34.3333 7.22541 34.8559Z" fill="#F99223"/>
<path d="M7.90572 34.9916L8.49374 35.3723C8.89869 35.6342 9.40306 35.6899 9.85408 35.5214L11.3223 34.9746L11.5078 35.0813L9.70495 36.0573C9.3582 36.2452 8.95083 36.2913 8.57012 36.1858L8.04151 36.0391L7.86328 34.9916" fill="#F99223"/>
<path d="M4.90856 40.3763C4.90856 40.3763 4.74246 40.3387 4.6685 40.3496C4.6685 40.3496 4.59333 40.7376 4.64062 41.2868C4.64062 41.2868 4.90735 41.1438 4.90735 40.6285H4.98009C4.98009 40.6285 4.90129 40.5655 4.90735 40.3763H4.90856Z" fill="#323E49"/>
<path d="M7.3706 32.8055C7.98167 32.5242 8.46421 32.8406 8.46179 33.1922L8.46542 33.1959L7.99258 33.3704C7.91256 33.3995 7.858 33.4735 7.85315 33.5584C7.84588 33.682 7.73433 33.7742 7.61067 33.7572L7.47245 33.7378L7.36212 34.1743L7.21663 34.264L7.19723 34.1112C7.15601 33.893 7.07356 33.8566 7.07356 33.8566C6.66861 33.2444 7.34999 32.8164 7.37303 32.8055H7.3706Z" fill="#2C253D"/>
<path d="M11.3242 34.9788C11.3242 34.9788 11.5182 34.8151 11.557 34.6587C11.5958 34.5011 11.6346 34.3847 11.7049 34.4235C11.7752 34.4623 11.6734 34.6975 11.6734 34.6975C11.6734 34.6975 11.9135 34.3617 12.0771 34.4854C12.2408 34.609 12.2869 34.8733 11.9838 34.9509C11.6807 35.0285 11.5097 35.0855 11.5097 35.0855L11.3242 34.9788Z" fill="#FCBD8D"/>
<path d="M37.2349 31.1672C37.2349 31.1672 35.8746 32.2245 33.8086 32.1263L33.8619 32.3966C33.8619 32.3966 35.7909 32.6634 37.4277 31.8462L37.2349 31.166V31.1672Z" fill="#DF3132"/>
<path d="M33.2891 28.7159L33.8116 34.618C33.8371 34.8993 34.0844 35.1078 34.3669 35.0824C34.6494 35.0569 34.8567 34.8096 34.8313 34.5271L34.3087 28.625L33.2891 28.7159Z" fill="#1F143F"/>
<path d="M33.9742 29.5554C35.7927 29.3392 37.0917 27.6897 36.8755 25.8712C36.6593 24.0526 35.0098 22.7536 33.1912 22.9699C31.3727 23.1861 30.0737 24.8356 30.2899 26.6541C30.5061 28.4727 32.1556 29.7716 33.9742 29.5554Z" fill="#1F143F"/>
<path d="M35.8033 27.9506C36.7376 26.7246 36.5011 24.9734 35.2751 24.0391C34.0491 23.1048 32.2979 23.3412 31.3636 24.5672C30.4293 25.7932 30.6657 27.5445 31.8917 28.4788C33.1177 29.4131 34.869 29.1766 35.8033 27.9506Z" fill="#C3F4F3"/>
<path d="M31.4327 27.2027C31.4509 27.2451 31.4715 27.2876 31.4921 27.3288C31.543 27.4282 31.6485 27.4864 31.7601 27.4767C31.9516 27.4597 32.0644 27.2548 31.9771 27.0827C31.9613 27.0511 31.9456 27.0196 31.9322 26.9869C31.8849 26.8802 31.777 26.8135 31.6594 26.8232C31.4751 26.839 31.3587 27.0317 31.4327 27.2015V27.2027Z" fill="white"/>
<path d="M31.5642 26.1687C31.6891 26.1578 31.7861 26.0621 31.8079 25.9396C31.9352 25.24 32.4675 24.6678 33.1743 24.5053C33.3041 24.475 33.3889 24.3513 33.3768 24.2192C33.3623 24.0543 33.2046 23.9403 33.0434 23.9779C32.1232 24.1937 31.4297 24.9418 31.2696 25.8559C31.2393 26.0305 31.386 26.1845 31.5618 26.1687H31.5642Z" fill="white"/>
<path d="M34.4958 30.7025L33.4766 30.793L33.5121 31.1939L34.5314 31.1035L34.4958 30.7025Z" fill="#817DA0"/>
<path d="M34.5896 31.7846L33.5703 31.875L33.6059 32.2759L34.6252 32.1855L34.5896 31.7846Z" fill="#817DA0"/>
<path d="M33.8078 32.7599C33.8078 32.7599 33.632 32.7138 33.632 32.6047L33.6151 32.418C33.6151 32.418 33.4453 32.5101 33.4453 32.6993C33.4453 32.8884 33.4599 33.0812 33.86 33.0302L33.8066 32.7599H33.8078Z" fill="#FCD3B9"/>
<path d="M36.957 40.0566C36.957 40.0566 37.0565 40.7235 37.0201 40.9975C37.0201 40.9975 37.0431 41.0339 37.2432 40.989C37.4432 40.9441 37.5014 40.8132 37.5014 40.8132V40.0566H36.957Z" fill="#FCD3B9"/>
<path d="M36.4385 36.0737C36.4445 36.3865 36.4688 37.2631 36.5609 38.1991C36.6276 38.8744 36.7282 39.5776 36.8034 40.1062H37.5709C37.6072 39.4612 37.6388 38.3821 37.4896 37.7153C37.4896 37.7153 37.6557 36.3319 37.6436 35.9537C37.6775 35.7172 37.7321 35.4905 37.7321 35.4905C37.8085 35.2796 38.1055 34.877 37.7588 34.2441C37.7588 34.2441 36.5924 34.4393 36.3633 34.2878C36.3633 34.2878 36.3742 35.8591 36.436 36.0761H36.4385V36.0737Z" fill="#2C253D"/>
<path d="M37.5088 31.4899L37.4445 31.1746L37.6106 30.7757C37.7416 30.4605 37.6785 30.0968 37.4494 29.8434C37.2554 29.63 36.9692 29.5245 36.6831 29.5609L36.3776 29.5391L36.2224 29.8313C36.1897 29.8907 36.203 29.9634 36.2527 30.0083C36.3 30.0507 36.3145 30.1198 36.2867 30.1768L36.1484 30.4726L36.3582 30.5563C36.3582 30.5563 36.3255 31.0049 36.6322 30.9685C36.7801 30.9503 36.8371 30.9418 36.8565 30.9382L36.962 31.6172L37.5112 31.4886L37.5088 31.4899Z" fill="#FCD3B9"/>
<path d="M37.7645 32.9479C38.007 31.6894 37.4772 31.3535 37.4772 31.3535C37.4275 31.573 36.957 31.6203 36.957 31.6203C36.957 31.6203 36.5642 31.9888 36.5679 32.0203C36.4284 32.161 36.2478 32.3913 36.2975 32.6059C36.3496 32.8327 36.4745 33.0994 36.5533 33.2534C36.4927 33.7529 36.386 34.1542 36.3472 34.3591C36.272 34.758 37.8591 34.3931 37.7851 34.2949C37.71 34.1966 37.6008 33.7965 37.7645 32.9466V32.9479Z" fill="#DF3132"/>
<path d="M37.6422 40.6382C37.6422 40.6382 37.5319 40.6042 37.4846 40.7073C37.4373 40.8103 37.3658 40.9692 37.0421 40.9522C36.7184 40.9352 36.5329 41.0952 36.5195 41.2323C36.5195 41.2323 37.2446 41.3959 37.4519 41.1462L37.521 41.0249L37.5768 41.2371L37.641 41.2238V40.637L37.6422 40.6382Z" fill="#323E49"/>
<path d="M37.2349 31.7981C37.2349 31.7981 35.8746 32.8553 33.8086 32.7571L33.8619 33.0275C33.8619 33.0275 35.7909 33.413 37.4277 32.5959L37.2349 31.7969V31.7981Z" fill="#DF3132"/>
<path d="M38.0979 30.2775C38.0772 30.2775 38.0578 30.28 38.0384 30.2836C38.0991 29.9102 37.859 29.5258 37.545 29.3052C37.0709 28.973 36.6454 29.173 36.4284 29.327C36.3993 29.3476 36.3762 29.3731 36.3556 29.3998C36.3556 29.3998 36.3556 29.4022 36.3532 29.4046C36.3277 29.4385 36.2744 29.4725 36.2635 29.5113C36.2077 29.6071 36.1483 29.7271 36.0258 29.7016C35.8234 29.6604 36.1507 29.9538 36.6296 29.9878C36.7933 30.0605 36.9764 30.1078 37.0915 30.1624C37.3643 30.2909 36.8309 30.5928 37.1206 30.56C37.4104 30.5273 37.5498 30.9068 37.5498 30.9068C37.6286 30.8607 37.6953 30.811 37.7535 30.7601C37.8032 30.9032 37.9366 31.0062 38.0966 31.0062C38.2979 31.0062 38.4604 30.8437 38.4604 30.6425C38.4604 30.4412 38.2979 30.2788 38.0966 30.2788L38.0979 30.2775Z" fill="#2C253D"/>
<path d="M13.2957 26.228L12.7188 26.2402L12.7264 26.6027L13.3034 26.5905L13.2957 26.228Z" fill="#FCBD8D"/>
<path d="M13.3022 26.5935C13.3022 26.5935 13.7023 26.5147 13.9654 26.6214C14.083 26.6687 14.1582 26.785 14.1606 26.9111V26.9354L13.2658 26.9548C13.244 26.9548 13.2222 26.9524 13.2016 26.9463L12.9906 26.8808C12.953 26.9318 12.8936 26.9633 12.8306 26.9645L12.7324 26.9669L12.7251 26.6068L12.7227 26.5195C12.7227 26.5195 13.0439 26.5983 13.3022 26.5935Z" fill="#251E4F"/>
<path d="M11.9624 20.3623C11.9624 20.3623 11.8047 20.977 12.1115 21.7336C12.5455 22.8042 12.6595 26.3166 12.6595 26.3166L13.296 26.3032C13.296 26.3032 13.4088 22.358 13.3882 21.9579C13.3615 21.4196 13.3288 20.9079 13.3785 20.332L11.9611 20.3623H11.9624Z" fill="#251E4F"/>
<path d="M12.3789 16.9573C12.3789 16.9573 14.3746 16.9391 16.0356 15.957L16.2671 16.225C16.2671 16.225 14.2873 17.4386 12.7257 17.6326L12.3789 16.9573Z" fill="#57B7CE"/>
<path d="M16.0352 15.9607C16.0352 15.9607 16.0885 15.6952 16.074 15.5206C16.0594 15.346 16.2922 15.4891 16.2097 15.7328C16.2097 15.7328 16.3067 15.3897 16.5977 15.5206C16.8887 15.6516 16.6389 16.0723 16.2667 16.2287L16.0352 15.9607Z" fill="#FCBD8D"/>
<path d="M12.6719 17.7073C12.6719 17.7073 14.6675 17.6891 16.3285 16.707L16.5601 16.975C16.5601 16.975 14.5802 18.1886 13.0186 18.3826L12.6719 17.7073Z" fill="#57B7CE"/>
<path d="M16.332 16.7068C16.332 16.7068 16.3854 16.4413 16.3708 16.2667C16.3563 16.0921 16.5891 16.2352 16.5066 16.4789C16.5066 16.4789 16.6036 16.1358 16.8946 16.2667C17.1856 16.3977 16.9358 16.8184 16.5636 16.9748L16.332 16.7068Z" fill="#FCBD8D"/>
<path d="M13.0021 17.6127L12.7354 16.9992C12.7075 16.9349 12.7536 16.8622 12.8239 16.8598L13.0615 16.7725C13.3574 16.7179 13.1016 16.3202 13.1016 16.3202C13.1016 16.3202 13.5259 16.2814 13.3659 16.1117C13.2058 15.942 13.0046 15.2715 13.0046 15.2715C13.0046 15.2715 11.8406 15.4255 11.9898 16.5918C12.1292 17.6866 12.0989 17.723 12.0989 17.723L13.0021 17.6139V17.6127Z" fill="#FCBD8D"/>
<path d="M13.004 15.2676C13.004 15.2676 12.5748 14.8918 11.9855 15.2155C11.3054 15.5889 11.4569 16.2703 11.7091 16.4982C11.7491 16.5346 11.7855 16.5746 11.8122 16.6207C11.8849 16.7431 12.0146 16.9699 12.051 17.1069L12.1177 17.0826C12.1177 17.0826 11.9431 16.5576 12.1322 16.2982C12.1322 16.2982 12.2656 16.3103 12.2789 16.4994L12.3869 16.4522C12.3869 16.4522 12.1601 16.0921 12.2789 15.9381C12.3978 15.7841 13.4138 15.8193 13.004 15.27V15.2676Z" fill="#3C4454"/>
<path d="M13.434 20.3967C13.36 20.7483 12.3295 20.5676 11.9778 20.4803C11.4953 20.3615 12.2361 19.8305 12.1003 18.8738C12.0179 18.2931 12.1003 17.716 12.1003 17.716L12.1064 17.7063C12.1064 17.6723 12.1003 17.5705 12.0688 17.2844L12.8132 17.168L12.8435 17.2371C12.8435 17.2371 13.731 18.9951 13.434 20.3954V20.3967Z" fill="#57B7CE"/>
</svg>
