<svg width="26" height="26" viewBox="0 0 26 26" fill="none" xmlns="http://www.w3.org/2000/svg">
<path d="M1.95 5.2002C0.873045 5.2002 0 6.07324 0 7.1502V20.1502C0 21.2271 0.873045 22.1002 1.95 22.1002H24.05C25.127 22.1002 26 21.2271 26 20.1502V7.1502C26 6.07324 25.127 5.2002 24.05 5.2002H1.95ZM1.9043 6.5002C1.91953 6.49966 1.93476 6.49966 1.95 6.5002H24.05C24.409 6.5002 24.7 6.79121 24.7 7.1502V7.8002H1.3V7.1502C1.29915 6.80833 1.56327 6.52423 1.9043 6.5002ZM1.3 9.1002H24.7V11.6951H1.3V9.1002ZM1.3 13.0002H24.7V20.1502C24.7 20.5092 24.409 20.8002 24.05 20.8002H1.95C1.59102 20.8002 1.3 20.5092 1.3 20.1502V13.0002ZM2.6 14.3002V15.6002H16.9V14.3002H2.6Z" fill="#00027B"/>
</svg>
