<svg width="46" height="46" viewBox="0 0 46 46" fill="none" xmlns="http://www.w3.org/2000/svg">
<circle cx="23" cy="23" r="22.5" fill="#51D7E0" stroke="black"/>
<path d="M36.4334 27.8532L27.8633 33.3999L28.5381 26.3064L36.4334 27.8532Z" fill="url(#paint0_linear_1464_16117)"/>
<path d="M12.0049 22.0821L36.4331 19.3516V27.8542L12.0049 30.5847V22.0821Z" fill="url(#paint1_linear_1464_16117)"/>
<path d="M40.5529 15.5123L37.3916 19.1867L43.0001 16.7836L40.5529 15.5123Z" fill="url(#paint2_linear_1464_16117)"/>
<path d="M41.0396 18.9408L38.1846 19.5722L40.9039 20.5641L41.0396 18.9408Z" fill="url(#paint3_linear_1464_16117)"/>
<path d="M39.1346 15.5426L37.6992 18.0026L37.9462 15.4L39.1346 15.5426Z" fill="url(#paint4_linear_1464_16117)"/>
<path d="M7.44726 34.8959L10.6085 31.2215L5 33.6246L7.44726 34.8959Z" fill="url(#paint5_linear_1464_16117)"/>
<path d="M6.96094 31.469L9.81603 30.8376L7.09671 29.8457L6.96094 31.469Z" fill="url(#paint6_linear_1464_16117)"/>
<path d="M8.86523 34.8691L10.3006 32.409L10.0536 35.0116L8.86523 34.8691Z" fill="url(#paint7_linear_1464_16117)"/>
<path d="M17.8752 23.434C18.1919 23.5394 18.4361 23.7145 18.6076 23.9592C18.7792 24.2039 18.865 24.5024 18.865 24.8543C18.865 25.2063 18.7792 25.5237 18.6076 25.8069C18.436 26.09 18.1919 26.3197 17.8752 26.4959C17.5584 26.672 17.1866 26.7839 16.7599 26.8316L16.0935 26.9061V28.0412L14.5361 28.2152V23.596L16.7599 23.3474C17.1866 23.2997 17.5584 23.3286 17.8752 23.434ZM17.136 25.4467C17.2416 25.3403 17.2944 25.2014 17.2944 25.0298C17.2944 24.8582 17.2416 24.7311 17.136 24.6482C17.0305 24.5655 16.8722 24.5358 16.6609 24.5594L16.0935 24.6229V25.7052L16.6609 25.6417C16.8722 25.6181 17.0305 25.5532 17.136 25.4467Z" fill="white"/>
<path d="M21.4845 26.275L21.0622 26.3222V27.4836L19.5049 27.6577V23.0385L21.7288 22.7899C22.1554 22.7422 22.5272 22.7711 22.8439 22.8764C23.1607 22.9818 23.4048 23.1569 23.5764 23.4017C23.7479 23.6464 23.8337 23.9448 23.8337 24.2967C23.8337 24.6266 23.7588 24.9232 23.6094 25.1863C23.4598 25.4494 23.2442 25.6692 22.9627 25.8458L23.9327 27.1628L22.2698 27.3487L21.4845 26.275ZM22.1049 24.0908C21.9993 24.008 21.841 23.9783 21.6297 24.0019L21.0622 24.0654V25.1476L21.6297 25.0842C21.841 25.0606 21.9993 24.9957 22.1049 24.8893C22.2104 24.7829 22.2632 24.6438 22.2632 24.4723C22.2632 24.3007 22.2104 24.1736 22.1049 24.0908Z" fill="white"/>
<path d="M25.6352 26.7673C25.2392 26.6048 24.9291 26.3524 24.7047 26.0102C24.4804 25.6679 24.3682 25.2657 24.3682 24.8038C24.3682 24.3419 24.4804 23.9147 24.7047 23.5223C24.9291 23.13 25.2393 22.8083 25.6352 22.5571C26.031 22.3062 26.4775 22.1529 26.9747 22.0973C27.4718 22.0418 27.9184 22.0953 28.3143 22.2577C28.7102 22.4202 29.0204 22.6727 29.2448 23.0148C29.4691 23.3572 29.5813 23.7592 29.5813 24.2211C29.5813 24.683 29.4691 25.1103 29.2448 25.5027C29.0204 25.8952 28.7102 26.2168 28.3143 26.4678C27.9184 26.7188 27.4718 26.8721 26.9747 26.9277C26.4776 26.9832 26.031 26.9298 25.6352 26.7673ZM27.4993 25.4668C27.6555 25.3548 27.7798 25.2067 27.8722 25.0226C27.9645 24.8385 28.0108 24.63 28.0108 24.3968C28.0108 24.1636 27.9645 23.9653 27.8722 23.8018C27.7798 23.6384 27.6555 23.5182 27.4993 23.441C27.3432 23.3639 27.1683 23.3361 26.9747 23.3577C26.7811 23.3793 26.6062 23.4463 26.4502 23.5582C26.2939 23.6703 26.1696 23.8183 26.0773 24.0024C25.9849 24.1866 25.9387 24.3952 25.9387 24.6283C25.9387 24.8615 25.9849 25.0598 26.0773 25.2233C26.1696 25.3867 26.2939 25.507 26.4502 25.5841C26.6063 25.6613 26.7811 25.6889 26.9747 25.6673C27.1683 25.6457 27.3431 25.5789 27.4993 25.4668Z" fill="white"/>
<path d="M30.8853 26.3634C30.5223 26.3182 30.2242 26.236 29.9912 26.1169L30.4927 24.9258C30.7125 25.0289 30.959 25.1037 31.2317 25.1501C31.5045 25.1966 31.7663 25.2058 32.0171 25.1777C32.2324 25.1536 32.3865 25.1157 32.4789 25.0634C32.5713 25.0113 32.6174 24.9435 32.6174 24.8599C32.6174 24.7632 32.5569 24.6973 32.4361 24.6624C32.315 24.6276 32.1159 24.597 31.8388 24.5708C31.4825 24.5358 31.1856 24.4887 30.9479 24.4295C30.7105 24.3703 30.5035 24.2527 30.3277 24.0765C30.1516 23.9004 30.0637 23.6452 30.0637 23.3108C30.0637 23.0205 30.1451 22.7474 30.3079 22.4917C30.4705 22.2359 30.7136 22.0218 31.037 21.8493C31.3604 21.6768 31.753 21.5647 32.2149 21.5131C32.5317 21.4777 32.8428 21.4769 33.1487 21.5109C33.4544 21.5451 33.7239 21.615 33.957 21.7209L33.4885 22.9016C33.0354 22.7236 32.6065 22.6571 32.2017 22.7022C31.8014 22.747 31.6012 22.8662 31.6012 23.0597C31.6012 23.1521 31.6606 23.2149 31.7795 23.2477C31.8982 23.2806 32.0939 23.3082 32.3667 23.3306C32.7185 23.3572 33.0156 23.3998 33.2576 23.4586C33.4994 23.5173 33.7096 23.6336 33.8877 23.8072C34.0659 23.9809 34.1551 24.2349 34.1551 24.5692C34.1551 24.8596 34.0736 25.1316 33.9109 25.3851C33.7481 25.6387 33.505 25.8528 33.1817 26.0275C32.8583 26.2022 32.4657 26.3154 32.0038 26.367C31.6212 26.4098 31.2482 26.4086 30.8853 26.3634Z" fill="white"/>
<path d="M28.1441 10L21.9451 17.0001L19.491 14.8631L17.7861 16.7881L21.9451 20.4096L29.8488 11.4846L28.1441 10Z" fill="url(#paint8_linear_1464_16117)"/>
<defs>
<linearGradient id="paint0_linear_1464_16117" x1="32.1906" y1="31.7402" x2="31.72" y2="28.5937" gradientUnits="userSpaceOnUse">
<stop offset="0.3738" stop-color="#4ACC04"/>
<stop offset="0.5008" stop-color="#43C804"/>
<stop offset="0.6845" stop-color="#30BE03"/>
<stop offset="0.9015" stop-color="#11AC01"/>
<stop offset="1" stop-color="#00A300"/>
</linearGradient>
<linearGradient id="paint1_linear_1464_16117" x1="28.7588" y1="18.1435" x2="14.1247" y2="42.2579" gradientUnits="userSpaceOnUse">
<stop offset="0.3738" stop-color="#4ACC04"/>
<stop offset="0.5008" stop-color="#43C804"/>
<stop offset="0.6845" stop-color="#30BE03"/>
<stop offset="0.9015" stop-color="#11AC01"/>
<stop offset="1" stop-color="#00A300"/>
</linearGradient>
<linearGradient id="paint2_linear_1464_16117" x1="35.6142" y1="22.2642" x2="42.2719" y2="15.7601" gradientUnits="userSpaceOnUse">
<stop offset="0.3738" stop-color="#4ACC04"/>
<stop offset="0.5008" stop-color="#43C804"/>
<stop offset="0.6845" stop-color="#30BE03"/>
<stop offset="0.9015" stop-color="#11AC01"/>
<stop offset="1" stop-color="#00A300"/>
</linearGradient>
<linearGradient id="paint3_linear_1464_16117" x1="36.4593" y1="23.13" x2="43.117" y2="16.626" gradientUnits="userSpaceOnUse">
<stop offset="0.3738" stop-color="#4ACC04"/>
<stop offset="0.5008" stop-color="#43C804"/>
<stop offset="0.6845" stop-color="#30BE03"/>
<stop offset="0.9015" stop-color="#11AC01"/>
<stop offset="1" stop-color="#00A300"/>
</linearGradient>
<linearGradient id="paint4_linear_1464_16117" x1="33.9415" y1="20.5536" x2="40.5992" y2="14.0494" gradientUnits="userSpaceOnUse">
<stop offset="0.3738" stop-color="#4ACC04"/>
<stop offset="0.5008" stop-color="#43C804"/>
<stop offset="0.6845" stop-color="#30BE03"/>
<stop offset="0.9015" stop-color="#11AC01"/>
<stop offset="1" stop-color="#00A300"/>
</linearGradient>
<linearGradient id="paint5_linear_1464_16117" x1="6.87452" y1="33.6828" x2="12.9259" y2="28.5444" gradientUnits="userSpaceOnUse">
<stop offset="0.3738" stop-color="#4ACC04"/>
<stop offset="0.5008" stop-color="#43C804"/>
<stop offset="0.6845" stop-color="#30BE03"/>
<stop offset="0.9015" stop-color="#11AC01"/>
<stop offset="1" stop-color="#00A300"/>
</linearGradient>
<linearGradient id="paint6_linear_1464_16117" x1="5.93606" y1="32.5779" x2="11.9875" y2="27.4395" gradientUnits="userSpaceOnUse">
<stop offset="0.3738" stop-color="#4ACC04"/>
<stop offset="0.5008" stop-color="#43C804"/>
<stop offset="0.6845" stop-color="#30BE03"/>
<stop offset="0.9015" stop-color="#11AC01"/>
<stop offset="1" stop-color="#00A300"/>
</linearGradient>
<linearGradient id="paint7_linear_1464_16117" x1="8.30591" y1="35.3707" x2="14.3573" y2="30.2322" gradientUnits="userSpaceOnUse">
<stop offset="0.3738" stop-color="#4ACC04"/>
<stop offset="0.5008" stop-color="#43C804"/>
<stop offset="0.6845" stop-color="#30BE03"/>
<stop offset="0.9015" stop-color="#11AC01"/>
<stop offset="1" stop-color="#00A300"/>
</linearGradient>
<linearGradient id="paint8_linear_1464_16117" x1="23.8153" y1="14.1084" x2="24.2962" y2="20.3598" gradientUnits="userSpaceOnUse">
<stop offset="0.3738" stop-color="#4ACC04"/>
<stop offset="0.5008" stop-color="#43C804"/>
<stop offset="0.6845" stop-color="#30BE03"/>
<stop offset="0.9015" stop-color="#11AC01"/>
<stop offset="1" stop-color="#00A300"/>
</linearGradient>
</defs>
</svg>
