<svg width="30" height="29" viewBox="0 0 30 29" fill="none" xmlns="http://www.w3.org/2000/svg">
<path d="M15.0003 1.93359C11.8779 1.93359 9.02899 3.07983 6.83079 4.96387L9.57409 7.70716C11.0628 6.51719 12.9461 5.80026 15.0003 5.80026C17.0544 5.80026 18.9378 6.51719 20.4264 7.70716L23.1697 4.96387C20.9715 3.07983 18.1226 1.93359 15.0003 1.93359ZM5.46387 6.33079C3.57983 8.52899 2.43359 11.3779 2.43359 14.5003C2.43359 21.4409 8.05959 27.0669 15.0003 27.0669C21.9409 27.0669 27.5669 21.4409 27.5669 14.5003C27.5669 11.3779 26.4207 8.52899 24.5367 6.33079L21.7934 9.07409C22.9833 10.5628 23.7003 12.4461 23.7003 14.5003C23.7003 15.9049 23.3605 17.2283 22.7695 18.4028L17.9059 13.5393C17.9059 13.5393 15.9447 10.6336 15.9669 10.6336V16.4336L20.6454 21.1121C19.1254 22.4113 17.1569 23.2003 15.0003 23.2003C12.8436 23.2003 10.8751 22.4113 9.35508 21.1121L14.0336 16.4336V10.6336C14.0558 10.6336 12.0946 13.5393 12.0946 13.5393L7.23105 18.4028C6.64001 17.2283 6.30026 15.9049 6.30026 14.5003C6.30026 12.4461 7.01719 10.5628 8.20716 9.07409L5.46387 6.33079Z" fill="white"/>
</svg>
