<svg width="19" height="18" viewBox="0 0 19 18" fill="none" xmlns="http://www.w3.org/2000/svg">
<path d="M9.49922 1.2002C7.56122 1.2002 5.79292 1.91165 4.42852 3.08105L6.13125 4.78379C7.05525 4.04519 8.22422 3.6002 9.49922 3.6002C10.7742 3.6002 11.9432 4.04519 12.8672 4.78379L14.5699 3.08105C13.2055 1.91165 11.4372 1.2002 9.49922 1.2002ZM3.58008 3.92949C2.41068 5.29389 1.69922 7.0622 1.69922 9.0002C1.69922 13.3082 5.19122 16.8002 9.49922 16.8002C13.8072 16.8002 17.2992 13.3082 17.2992 9.0002C17.2992 7.0622 16.5878 5.29389 15.4184 3.92949L13.7156 5.63223C14.4542 6.55623 14.8992 7.7252 14.8992 9.0002C14.8992 9.87205 14.6883 10.6935 14.3215 11.4225L11.3027 8.40371C11.3027 8.40371 10.0854 6.6002 10.0992 6.6002V10.2002L13.0031 13.1041C12.0597 13.9105 10.8378 14.4002 9.49922 14.4002C8.16063 14.4002 6.93878 13.9105 5.99531 13.1041L8.89922 10.2002V6.6002C8.91302 6.6002 7.6957 8.40371 7.6957 8.40371L4.67695 11.4225C4.3101 10.6935 4.09922 9.87205 4.09922 9.0002C4.09922 7.7252 4.54421 6.55623 5.28281 5.63223L3.58008 3.92949Z" fill="#557FFD"/>
</svg>
