<svg width="62" height="57" viewBox="0 0 62 57" fill="none" xmlns="http://www.w3.org/2000/svg">
<g clip-path="url(#clip0_1021_28378)">
<path d="M55.0459 40.1718H32.6329C32.2324 40.1718 31.9062 39.8257 31.9062 39.4007V4.76126C31.9062 4.33627 32.2324 3.99023 32.6329 3.99023H55.0459C55.4464 3.99023 55.7725 4.33627 55.7725 4.76126V39.4007C55.7725 39.8257 55.4464 40.1718 55.0459 40.1718ZM32.6329 4.02313C32.2497 4.02313 31.9373 4.35469 31.9373 4.76126V39.4007C31.9373 39.8073 32.2497 40.1389 32.6329 40.1389H55.0459C55.4291 40.1389 55.7415 39.8073 55.7415 39.4007V4.76126C55.7415 4.35469 55.4291 4.02313 55.0459 4.02313H32.6329Z" fill="#E0E0E0"/>
<path d="M29.2009 40.1718H6.78914C6.38862 40.1718 6.0625 39.8257 6.0625 39.4007V4.76126C6.0625 4.33627 6.38862 3.99023 6.78914 3.99023H29.2009C29.6014 3.99023 29.9275 4.33627 29.9275 4.76126V39.4007C29.9275 39.8257 29.6014 40.1718 29.2009 40.1718ZM6.78914 4.02313C6.40598 4.02313 6.0935 4.35469 6.0935 4.76126V39.4007C6.0935 39.8073 6.40598 40.1389 6.78914 40.1389H29.2009C29.5841 40.1389 29.8965 39.8073 29.8965 39.4007V4.76126C29.8965 4.35469 29.5841 4.02313 29.2009 4.02313H6.78914Z" fill="#E0E0E0"/>
<path d="M62 48.207H0V48.2399H62V48.207Z" fill="#E0E0E0"/>
<path d="M8.39769 50.085H6.40625V50.1179H8.39769V50.085Z" fill="#E0E0E0"/>
<path d="M27.7627 49.7275H21.125V49.7604H27.7627V49.7275Z" fill="#E0E0E0"/>
<path d="M13.0184 51.3066H8.52344V51.3395H13.0184V51.3066Z" fill="#E0E0E0"/>
<path d="M52.2696 49.7109H46.9141V49.7438H52.2696V49.7109Z" fill="#E0E0E0"/>
<path d="M54.1599 49.7109H53.375V49.7438H54.1599V49.7109Z" fill="#E0E0E0"/>
<path d="M45.8933 50.5303H39.2109V50.5632H45.8933V50.5303Z" fill="#E0E0E0"/>
<path d="M43.4402 11.7034L43.2976 11.6706L43.1165 12.5824L42.6441 13.8942L42.2584 13.6586L42.499 12.9863L42.68 13.0981L42.7544 12.9613L42.5498 12.8363L42.6255 12.6245L43.0111 10.6693L42.8685 10.6377L42.4829 12.581L42.4196 12.7574L41.9608 12.4732L41.8864 12.61L42.3676 12.9073L42.1282 13.5797L42.1022 13.5639L42.029 13.7007L42.0749 13.7297L41.7104 14.7494L41.5653 14.7257L41.543 14.8796L41.657 14.8967L41.6223 14.9954V15.8257H41.5492V15.9809H41.6223V16.8559H41.5492V17.0138H41.6223V17.8874H41.5492V18.0427H41.6223V18.9176H41.5492V19.0729H41.6223V20.3347H41.7686V19.0729H42.256V20.3347H42.4023V19.0729H42.4754V18.9176H42.4023V18.0427H42.4754V17.8874H42.4023V17.0138H42.4754V16.8585H42.4023V15.9835H42.4754V15.8283H42.4023V15.0165L42.4556 15.0244L42.4779 14.8704H42.4556L42.7197 14.1297L42.8264 14.1955L42.8995 14.0586L42.7706 13.9797L43.2504 12.6324L43.4377 11.7061L43.4402 11.7034ZM42.2584 18.9124H41.7823V18.0374H42.2584V18.9124ZM42.2584 17.8822H41.7823V17.0125H42.2584V17.8822ZM42.2584 16.8532H41.7823V15.9783H42.2584V16.8532ZM42.2584 14.9928V15.823H41.7823V15.0217L41.8182 14.9178L42.2597 14.9875V14.9928H42.2584ZM42.313 14.8389L41.8703 14.7691L42.2138 13.806L42.5994 14.0415L42.313 14.8389Z" fill="#E6E6E6"/>
<path d="M26.4429 10.2461H18.8156L18.0208 11.2342H18.4759V13.4197L17.9266 14.8762H18.4759V17.0616H17.5124V18.5181H18.4759V20.7023H17.1664V20.2155L16.3555 20.5391V31.1795L18.0741 32.5268L20.1933 30.5374L21.9094 32.2624L20.1933 31.8084L18.1361 34.1794L16.3555 33.1215V48.2552H26.4429V27.6244L25.591 28.6941L25.4645 27.9862H24.2803V25.8008H25.0714L24.8098 24.3456H24.2803V22.1601H24.4155L24.2803 21.4022L24.5568 20.7023H24.2803V18.5181H25.4223L26.4429 15.9446V10.2461Z" fill="#EBEBEB"/>
<path d="M20.8497 11.2344H19.5391V13.4198H20.8497V11.2344Z" fill="#FAFAFA"/>
<path d="M25.5919 11.2344H24.2812V13.4198H25.5919V11.2344Z" fill="#FAFAFA"/>
<path d="M23.2208 14.876H21.9102V17.0614H23.2208V14.876Z" fill="#FAFAFA"/>
<path d="M25.5919 14.876H24.2812V17.0614H25.5919V14.876Z" fill="#FAFAFA"/>
<path d="M23.2208 18.5186H21.9102V20.704H23.2208V18.5186Z" fill="#FAFAFA"/>
<path d="M20.8497 22.1602H19.5391V24.3456H20.8497V22.1602Z" fill="#FAFAFA"/>
<path d="M23.2208 22.1602H21.9102V24.3456H23.2208V22.1602Z" fill="#FAFAFA"/>
<path d="M18.4786 25.8037H17.168V27.9892H18.4786V25.8037Z" fill="#FAFAFA"/>
<path d="M20.8497 25.8037H19.5391V27.9892H20.8497V25.8037Z" fill="#FAFAFA"/>
<path d="M23.2208 29.4443H21.9102V31.6298H23.2208V29.4443Z" fill="#FAFAFA"/>
<path d="M25.5919 29.4443H24.2812V31.6298H25.5919V29.4443Z" fill="#FAFAFA"/>
<path d="M20.8497 33.0869H19.5391V35.2724H20.8497V33.0869Z" fill="#FAFAFA"/>
<path d="M25.5919 33.0869H24.2812V35.2724H25.5919V33.0869Z" fill="#FAFAFA"/>
<path d="M18.4786 36.7275H17.168V38.913H18.4786V36.7275Z" fill="#FAFAFA"/>
<path d="M23.2208 36.7275H21.9102V38.913H23.2208V36.7275Z" fill="#FAFAFA"/>
<path d="M25.5919 36.7275H24.2812V38.913H25.5919V36.7275Z" fill="#FAFAFA"/>
<path d="M18.4786 40.3711H17.168V42.5565H18.4786V40.3711Z" fill="#FAFAFA"/>
<path d="M20.8497 40.3711H19.5391V42.5565H20.8497V40.3711Z" fill="#FAFAFA"/>
<path d="M25.5919 40.3711H24.2812V42.5565H25.5919V40.3711Z" fill="#FAFAFA"/>
<path d="M20.8497 44.0117H19.5391V46.1972H20.8497V44.0117Z" fill="#FAFAFA"/>
<path d="M23.2208 44.0117H21.9102V46.1972H23.2208V44.0117Z" fill="#FAFAFA"/>
<path d="M27.8069 28.0757L28.2868 29.423L28.1578 29.502L28.231 29.6388L28.3376 29.573L28.6017 30.3138H28.5794L28.6017 30.4677L28.6551 30.4598V31.2716H28.5819V31.4269H28.6551V32.3019H28.5819V32.4571H28.6551V33.3308H28.5819V33.486H28.6551V34.361H28.5819V34.5163H28.6551V35.7781H28.8014V34.5163H29.2887V35.7781H29.435V34.5163H29.5082V34.361H29.435V33.486H29.5082V33.3308H29.435V32.4571H29.5082V32.2992H29.435V31.4243H29.5082V31.269H29.435V30.4388L29.4003 30.3401L29.5144 30.323L29.4921 30.1691L29.347 30.1927L28.9824 29.173L29.0283 29.1441L28.9551 29.0073L28.9291 29.023L28.6898 28.3507L29.1709 28.0533L29.0965 27.9165L28.6377 28.2007L28.5745 28.0244L28.1888 26.0811L28.0462 26.1126L28.4319 28.0678L28.5075 28.2797L28.3029 28.4047L28.3773 28.5415L28.5583 28.4297L28.7989 29.102L28.4133 29.3375L27.9408 28.0257L27.7598 27.1139L27.6172 27.1468L27.8044 28.0731L27.8069 28.0757ZM28.8014 33.4834H29.2775V34.3584H28.8014V33.4834ZM28.8014 32.4584H29.2775V33.3281H28.8014V32.4584ZM28.8014 31.4243H29.2775V32.2992H28.8014V31.4243ZM28.8001 30.4335L29.2416 30.3638L29.2775 30.4677V31.269H28.8014V30.4335H28.8001ZM28.4579 29.4875L28.8435 29.252L29.187 30.2151L28.7443 30.2848L28.4579 29.4875Z" fill="#E6E6E6"/>
<path d="M34.9563 29.5954L35.6321 31.0717H34.9563L35.4672 32.1927L34.2036 30.648H34.9563L34.1391 29.3389H32.1948L30.372 29.9007L29.4023 29.3389L28.2578 30.6033V48.2079H36.1306V30.0954L34.9563 29.5954Z" fill="#E0E0E0"/>
<path d="M29.9136 31.0713H28.8906V32.1936H29.9136V31.0713Z" fill="#FAFAFA"/>
<path d="M31.7652 31.0713H30.7422V32.1936H31.7652V31.0713Z" fill="#FAFAFA"/>
<path d="M33.6167 31.0713H32.5938V32.1936H33.6167V31.0713Z" fill="#FAFAFA"/>
<path d="M29.9136 32.9414H28.8906V34.0637H29.9136V32.9414Z" fill="#FAFAFA"/>
<path d="M33.6167 32.9414H32.5938V34.0637H33.6167V32.9414Z" fill="#FAFAFA"/>
<path d="M35.4683 32.9414H34.4453V34.0637H35.4683V32.9414Z" fill="#FAFAFA"/>
<path d="M29.9136 34.8105H28.8906V35.9329H29.9136V34.8105Z" fill="#FAFAFA"/>
<path d="M31.7652 34.8105H30.7422V35.9329H31.7652V34.8105Z" fill="#FAFAFA"/>
<path d="M35.4683 34.8105H34.4453V35.9329H35.4683V34.8105Z" fill="#FAFAFA"/>
<path d="M29.9136 36.6797H28.8906V37.802H29.9136V36.6797Z" fill="#FAFAFA"/>
<path d="M31.7652 36.6797H30.7422V37.802H31.7652V36.6797Z" fill="#FAFAFA"/>
<path d="M33.6167 36.6797H32.5938V37.802H33.6167V36.6797Z" fill="#FAFAFA"/>
<path d="M31.7652 38.5488H30.7422V39.6712H31.7652V38.5488Z" fill="#FAFAFA"/>
<path d="M33.6167 38.5488H32.5938V39.6712H33.6167V38.5488Z" fill="#FAFAFA"/>
<path d="M35.4683 38.5488H34.4453V39.6712H35.4683V38.5488Z" fill="#FAFAFA"/>
<path d="M29.9136 40.4199H28.8906V41.5422H29.9136V40.4199Z" fill="#FAFAFA"/>
<path d="M31.7652 40.4199H30.7422V41.5422H31.7652V40.4199Z" fill="#FAFAFA"/>
<path d="M35.4683 40.4199H34.4453V41.5422H35.4683V40.4199Z" fill="#FAFAFA"/>
<path d="M31.7652 42.29H30.7422V43.4124H31.7652V42.29Z" fill="#FAFAFA"/>
<path d="M33.6167 42.29H32.5938V43.4124H33.6167V42.29Z" fill="#FAFAFA"/>
<path d="M35.4683 42.29H34.4453V43.4124H35.4683V42.29Z" fill="#FAFAFA"/>
<path d="M29.9136 44.1592H28.8906V45.2815H29.9136V44.1592Z" fill="#FAFAFA"/>
<path d="M31.7652 44.1592H30.7422V45.2815H31.7652V44.1592Z" fill="#FAFAFA"/>
<path d="M33.6167 44.1592H32.5938V45.2815H33.6167V44.1592Z" fill="#FAFAFA"/>
<path d="M31.7652 46.0303H30.7422V47.1526H31.7652V46.0303Z" fill="#FAFAFA"/>
<path d="M35.4683 46.0303H34.4453V47.1526H35.4683V46.0303Z" fill="#FAFAFA"/>
<path d="M45.3368 19.6892L46.5396 18.4419V12.9092L40.3396 16.8498L40.7389 17.6537L40.1226 18.8168H40.1821V20.4918L41.5523 22.5957L40.1821 24.6995V26.3745H39.7791L40.7389 33.3505L39.6588 32.9216L38.4883 34.7584V48.3644H46.5396V33.8215L45.3368 34.6636L43.762 33.8992L43.2127 35.8109L43.4446 40.0358L42.5133 37.1306L40.5244 38.7174L42.5133 36.257L43.4446 33.0439L45.3368 33.8992L46.5396 32.9676V19.8787L45.8601 20.5602L43.4446 20.0076L42.5133 21.0654L43.4446 19.2681L45.3368 19.6892Z" fill="#EBEBEB"/>
<path d="M42.0727 18.8164H41.0273V20.5598H42.0727V18.8164Z" fill="#FAFAFA"/>
<path d="M43.9672 15.9102H42.9219V17.6535H43.9672V15.9102Z" fill="#FAFAFA"/>
<path d="M43.9672 21.7236H42.9219V23.467H43.9672V21.7236Z" fill="#FAFAFA"/>
<path d="M45.8617 21.7236H44.8164V23.467H45.8617V21.7236Z" fill="#FAFAFA"/>
<path d="M42.0727 24.6309H41.0273V26.3742H42.0727V24.6309Z" fill="#FAFAFA"/>
<path d="M43.9672 24.6309H42.9219V26.3742H43.9672V24.6309Z" fill="#FAFAFA"/>
<path d="M42.0727 27.5371H41.0273V29.2805H42.0727V27.5371Z" fill="#FAFAFA"/>
<path d="M45.8617 27.5371H44.8164V29.2805H45.8617V27.5371Z" fill="#FAFAFA"/>
<path d="M42.0727 30.4453H41.0273V32.1887H42.0727V30.4453Z" fill="#FAFAFA"/>
<path d="M43.9672 30.4453H42.9219V32.1887H43.9672V30.4453Z" fill="#FAFAFA"/>
<path d="M45.8617 30.4453H44.8164V32.1887H45.8617V30.4453Z" fill="#FAFAFA"/>
<path d="M42.0727 33.3506H41.0273V35.0939H42.0727V33.3506Z" fill="#FAFAFA"/>
<path d="M40.182 36.2568H39.1367V38.0002H40.182V36.2568Z" fill="#FAFAFA"/>
<path d="M45.8617 36.2568H44.8164V38.0002H45.8617V36.2568Z" fill="#FAFAFA"/>
<path d="M42.0727 39.165H41.0273V40.9084H42.0727V39.165Z" fill="#FAFAFA"/>
<path d="M45.8617 39.165H44.8164V40.9084H45.8617V39.165Z" fill="#FAFAFA"/>
<path d="M40.182 42.0713H39.1367V43.8146H40.182V42.0713Z" fill="#FAFAFA"/>
<path d="M42.0727 42.0713H41.0273V43.8146H42.0727V42.0713Z" fill="#FAFAFA"/>
<path d="M45.8617 42.0713H44.8164V43.8146H45.8617V42.0713Z" fill="#FAFAFA"/>
<path d="M42.0727 44.9775H41.0273V46.7209H42.0727V44.9775Z" fill="#FAFAFA"/>
<path d="M43.9672 44.9775H42.9219V46.7209H43.9672V44.9775Z" fill="#FAFAFA"/>
<path d="M57.6188 35.69L57.1798 32.1704L56.8735 27.5469L55.8914 23.2129H54.9453V48.1646H58.803V36.0177L58.0577 35.2795L57.6188 35.69Z" fill="#E0E0E0"/>
<path d="M57.385 24.4506L57.7595 24.523L57.7868 24.3704L57.416 24.298L57.5078 23.8414L57.364 23.8099L57.2722 24.2717L56.8866 24.1967L56.8593 24.3493L57.2449 24.423L57.1817 24.7401L57.1693 24.844L56.7068 24.7546L57.0924 22.8099L56.9486 22.7783L56.5629 24.7256L56.4402 24.7019L56.4129 24.8546L56.5418 24.8796L56.2852 26.9913V32.3135H56.4315V27.0005L56.5679 25.8598L57.0316 25.9506L56.9027 26.99V32.3122H57.049V26.9992L57.1718 25.9769L57.4508 26.0308L57.478 25.8782L57.1916 25.8216L57.2871 25.0243H57.3057L57.333 24.8717H57.3057L57.3181 24.7651L57.3863 24.4493L57.385 24.4506ZM57.0515 25.7979L56.5877 25.7085L56.6832 24.9111L57.147 25.0006L57.0515 25.7979Z" fill="#E0E0E0"/>
<path d="M59.5339 27.3128L59.3913 27.2799L59.2103 28.1917L58.7378 29.5035L58.3522 29.268L58.5928 28.5957L58.7738 28.7075L58.8482 28.5707L58.6436 28.4457L58.7192 28.2338L59.1049 26.2786L58.9623 26.2471L58.5766 28.1904L58.5134 28.3667L58.0546 28.0825L57.9802 28.2194L58.4613 28.5167L58.222 29.1891L58.196 29.1733L58.1228 29.3101L58.1687 29.3391L57.8041 30.3588L57.659 30.3351L57.6367 30.489L57.7508 30.5061L57.7161 30.6048V31.435H57.6429V31.5903H57.7161V32.4653H57.6429V32.6231H57.7161V33.4968H57.6429V33.6521H57.7161V34.527H57.6429V34.6823H57.7161V35.9441H57.8624V34.6823H58.3497V35.9441H58.496V34.6823H58.5692V34.527H58.496V33.6521H58.5692V33.4968H58.496V32.6231H58.5692V32.4679H58.496V31.5929H58.5692V31.4377H58.496V30.6259L58.5494 30.6337L58.5717 30.4798H58.5494L58.8135 29.739L58.9201 29.8048L58.9933 29.668L58.8643 29.5891L59.3442 28.2417L59.5314 27.3155L59.5339 27.3128ZM58.3522 34.5218H57.876V33.6468H58.3522V34.5218ZM58.3522 33.4915H57.876V32.6218H58.3522V33.4915ZM58.3522 32.4626H57.876V31.5877H58.3522V32.4626ZM58.3522 30.6022V31.4324H57.876V30.6311L57.912 30.5272L58.3534 30.5969V30.6022H58.3522ZM58.4068 30.4482L57.9641 30.3785L58.3076 29.4154L58.6932 29.6509L58.4068 30.4482Z" fill="#E6E6E6"/>
<path d="M47.9152 24.6112L48.3951 25.9585L48.2661 26.0374L48.3405 26.1743L48.4459 26.1085L48.7101 26.8492H48.6877L48.7101 27.0032L48.7646 26.9953V27.8071H48.6915V27.9624H48.7646V28.8373H48.6915V28.9926H48.7646V29.8662H48.6915V30.0268H48.7646V30.9017H48.6915V31.057H48.7646V32.3188H48.9109V31.057H49.3871V32.3188H49.5334V31.057H49.6066V30.9017H49.5334V30.0268H49.6066V29.8715H49.5334V28.9978H49.6066V28.8426H49.5334V27.9676H49.6066V27.8124H49.5334V26.9821L49.4975 26.8835L49.6115 26.8663L49.5892 26.7124L49.4441 26.7361L49.092 25.7111L49.1391 25.6822L49.0647 25.5453L49.0399 25.5611L48.7993 24.8888L49.2805 24.5914L49.2061 24.4546L48.7473 24.7401L48.6853 24.5638L48.2996 22.6191L48.157 22.652L48.5427 24.6072L48.6171 24.8177L48.4125 24.9441L48.4869 25.0809L48.6691 24.9677L48.9085 25.6414L48.5228 25.8769L48.0541 24.5664L47.8743 23.6546L47.7305 23.6875L47.914 24.6085L47.9152 24.6112ZM48.9159 30.0281H49.3921V30.903H48.9159V30.0281ZM48.9159 28.9992H49.3921V29.8728H48.9159V28.9992ZM48.9159 27.9689H49.3921V28.8439H48.9159V27.9689ZM48.9159 26.9782L49.3573 26.9085L49.3945 27.0124V27.8137H48.9184V26.9834L48.9159 26.9782ZM48.5774 26.0269L48.963 25.7914L49.3065 26.7545L48.8651 26.8242L48.5774 26.0269Z" fill="#EBEBEB"/>
<path d="M47.5487 37.4183V32.0843L47.292 29.9844L47.421 29.9581L47.3949 29.8054L47.2722 29.8304L46.8865 27.8818L46.7439 27.9147L47.1296 29.8581L46.6658 29.9489L46.6534 29.8383L46.5914 29.5291L46.9771 29.4541L46.951 29.3015L46.5654 29.3765L46.4724 28.9147L46.3298 28.9476L46.4215 29.4041L46.0508 29.4765L46.0768 29.6291L46.4525 29.5555L46.5145 29.8633L46.5269 29.9752H46.5009L46.5269 30.1278H46.5468L46.6423 30.9238L46.3558 30.9804L46.3831 31.1343L46.6609 31.0804L46.7898 32.0922V37.4144H46.9361V32.0843L46.8072 31.0541L47.2709 30.9646L47.4073 32.0948V37.417H47.5499L47.5487 37.4183ZM46.7774 30.9015L46.6819 30.1041L47.1457 30.0146L47.2412 30.812L46.7774 30.9015Z" fill="#E0E0E0"/>
<path d="M46.9141 32.4683L47.8899 30.4092H48.4988L48.6947 31.1013L48.2322 32.3131L47.5229 32.4683H46.9141Z" fill="#E0E0E0"/>
<path d="M46.9141 32.4683L47.8899 30.4092H48.4988L48.6947 31.1013L48.2322 32.3131L47.5229 32.4683H46.9141Z" fill="#E0E0E0"/>
<path d="M47.5234 32.4691L48.4993 30.41L49.4777 30.8113L50.5515 30.2402V32.7533L47.5234 32.4691Z" fill="#E0E0E0"/>
<path d="M47.5234 32.4691L48.4993 30.41L49.4777 30.8113L50.5515 30.2402V32.7533L47.5234 32.4691Z" fill="#E0E0E0"/>
<path d="M48.5469 27.9614L48.9871 25.1878H49.865L50.3052 23.2129H50.7938V24.6194V26.8983L50.5495 27.9614L50.232 28.1509L49.0354 27.9614H48.5469Z" fill="#E0E0E0"/>
<path d="M48.5469 27.9614L48.9871 25.1878H49.865L50.3052 23.2129H50.7938V24.6194V26.8983L50.5495 27.9614L50.232 28.1509L49.0354 27.9614H48.5469Z" fill="#E0E0E0"/>
<path d="M49.0352 27.9614L49.4754 25.1878H50.3533L50.7935 23.2129L51.7656 24.4471L51.499 25.3194V28.1509L49.0352 27.9614Z" fill="#E0E0E0"/>
<path d="M49.0352 27.9614L49.4754 25.1878H50.3533L50.7935 23.2129L51.7656 24.4471L51.499 25.3194V28.1509L49.0352 27.9614Z" fill="#E0E0E0"/>
<path d="M53.1375 23.2129L51.688 23.855L51.0655 25.3694L50.1615 26.3654V27.6627H48.366L48.1354 28.518V29.2166H50.1615V32.0152H47.524V32.006L47.1458 32.1704H46.418V48.1646H54.9467V23.2129H53.1375Z" fill="#E0E0E0"/>
<path d="M53.1375 23.2129L51.688 23.855L51.0655 25.3694L50.1615 26.3654V27.6627H48.366L48.1354 28.518V29.2166H50.1615V32.0152H47.524V32.006L47.1458 32.1704H46.418V48.1646H54.9467V23.2129H53.1375Z" fill="#E6E6E6"/>
<path d="M50.1597 38.2314H47.5234V41.0287H50.1597V38.2314Z" fill="#F5F5F5"/>
<path d="M53.8706 38.2314H51.2344V41.0287H53.8706V38.2314Z" fill="#F5F5F5"/>
<path d="M50.1597 33.8789H47.5234V36.6762H50.1597V33.8789Z" fill="#F5F5F5"/>
<path d="M53.8706 33.8789H51.2344V36.6762H53.8706V33.8789Z" fill="#F5F5F5"/>
<path d="M53.8706 29.5283H51.2344V32.3256H53.8706V29.5283Z" fill="#F5F5F5"/>
<path d="M53.8706 25.1758H51.2344V27.973H53.8706V25.1758Z" fill="#F5F5F5"/>
<path d="M58.8033 37.3115H57.8027L58.1139 38.8917L56.4597 41.3535L56.6916 43.1929L56.0195 45.1099L56.1249 48.1637H58.8033V37.3115Z" fill="#EBEBEB"/>
<path d="M57.599 41.126H56.9766V41.4562H57.599V41.126Z" fill="#E0E0E0"/>
<path d="M58.0326 40.6221H57.4102V40.9523H58.0326V40.6221Z" fill="#E0E0E0"/>
<path d="M58.0326 41.6318H57.4102V41.9621H58.0326V41.6318Z" fill="#E0E0E0"/>
<path d="M58.4233 41.126H57.8008V41.4562H58.4233V41.126Z" fill="#E0E0E0"/>
<path d="M57.7553 43.4385H57.1328V43.7687H57.7553V43.4385Z" fill="#E0E0E0"/>
<path d="M58.142 42.9346H57.5195V43.2648H58.142V42.9346Z" fill="#E0E0E0"/>
<path d="M56.9311 45.3477H56.3086V45.6779H56.9311V45.3477Z" fill="#E0E0E0"/>
<path d="M57.3608 44.8418H56.7383V45.172H57.3608V44.8418Z" fill="#E0E0E0"/>
<path d="M58.1928 44.8418H57.5703V45.172H58.1928V44.8418Z" fill="#E0E0E0"/>
<path d="M57.3608 45.8516H56.7383V46.1818H57.3608V45.8516Z" fill="#E0E0E0"/>
<path d="M58.1928 45.8516H57.5703V46.1818H58.1928V45.8516Z" fill="#E0E0E0"/>
<path d="M57.7553 45.3477H57.1328V45.6779H57.7553V45.3477Z" fill="#E0E0E0"/>
<path d="M57.3608 46.8916H56.7383V47.2218H57.3608V46.8916Z" fill="#E0E0E0"/>
<path d="M57.7944 46.3867H57.1719V46.717H57.7944V46.3867Z" fill="#E0E0E0"/>
<path d="M57.7944 47.3975H57.1719V47.7277H57.7944V47.3975Z" fill="#E0E0E0"/>
<path d="M58.6264 47.3975H58.0039V47.7277H58.6264V47.3975Z" fill="#E0E0E0"/>
<path d="M58.185 46.8916H57.5625V47.2218H58.185V46.8916Z" fill="#E0E0E0"/>
<g opacity="0.2">
<path d="M57.603 41.126H56.9805V41.4562H57.603V41.126Z" fill="#E0E0E0"/>
<path d="M58.0365 40.6221H57.4141V40.9523H58.0365V40.6221Z" fill="#E0E0E0"/>
<path d="M58.0365 41.6309H57.4141V41.9611H58.0365V41.6309Z" fill="#E0E0E0"/>
<path d="M58.4272 41.126H57.8047V41.4562H58.4272V41.126Z" fill="#E0E0E0"/>
<path d="M57.7553 43.4375H57.1328V43.7677H57.7553V43.4375Z" fill="#E0E0E0"/>
<path d="M58.1459 42.9336H57.5234V43.2638H58.1459V42.9336Z" fill="#E0E0E0"/>
<path d="M56.9311 45.3467H56.3086V45.6769H56.9311V45.3467Z" fill="#E0E0E0"/>
<path d="M57.3647 44.8418H56.7422V45.172H57.3647V44.8418Z" fill="#E0E0E0"/>
<path d="M58.1928 44.8418H57.5703V45.172H58.1928V44.8418Z" fill="#E0E0E0"/>
<path d="M57.3647 45.8506H56.7422V46.1808H57.3647V45.8506Z" fill="#E0E0E0"/>
<path d="M58.1928 45.8506H57.5703V46.1808H58.1928V45.8506Z" fill="#E0E0E0"/>
<path d="M57.7553 45.3467H57.1328V45.6769H57.7553V45.3467Z" fill="#E0E0E0"/>
<path d="M57.3647 46.8916H56.7422V47.2218H57.3647V46.8916Z" fill="#E0E0E0"/>
<path d="M57.7983 46.3867H57.1758V46.717H57.7983V46.3867Z" fill="#E0E0E0"/>
<path d="M57.7983 47.3965H57.1758V47.7267H57.7983V47.3965Z" fill="#E0E0E0"/>
<path d="M58.6264 47.3965H58.0039V47.7267H58.6264V47.3965Z" fill="#E0E0E0"/>
<path d="M58.1889 46.8916H57.5664V47.2218H58.1889V46.8916Z" fill="#E0E0E0"/>
</g>
<path d="M48.0554 38.2314H47.5234V41.0287H48.0554V38.2314Z" fill="#E0E0E0"/>
<path d="M51.7663 38.2314H51.2344V41.0287H51.7663V38.2314Z" fill="#E0E0E0"/>
<path d="M48.0554 33.8789H47.5234V36.6762H48.0554V33.8789Z" fill="#E0E0E0"/>
<path d="M51.7663 33.8789H51.2344V36.6762H51.7663V33.8789Z" fill="#E0E0E0"/>
<path d="M51.7663 29.5283H51.2344V32.3256H51.7663V29.5283Z" fill="#E0E0E0"/>
<path d="M51.7663 25.1758H51.2344V27.973H51.7663V25.1758Z" fill="#E0E0E0"/>
<g opacity="0.3">
<path d="M48.0554 38.2314H47.5234V41.0287H48.0554V38.2314Z" fill="#E0E0E0"/>
<path d="M51.7663 38.2314H51.2344V41.0287H51.7663V38.2314Z" fill="#E0E0E0"/>
<path d="M48.0554 33.8799H47.5234V36.6771H48.0554V33.8799Z" fill="#E0E0E0"/>
<path d="M51.7663 33.8799H51.2344V36.6771H51.7663V33.8799Z" fill="#E0E0E0"/>
<path d="M51.7663 29.5283H51.2344V32.3256H51.7663V29.5283Z" fill="#E0E0E0"/>
<path d="M51.7663 25.1758H51.2344V27.973H51.7663V25.1758Z" fill="#E0E0E0"/>
</g>
<path d="M52.4122 42.6299H47.1211V43.4864H52.4122V42.6299Z" fill="#E0E0E0"/>
<path d="M52.4122 42.6299H47.1211V43.4864H52.4122V42.6299Z" fill="#E0E0E0"/>
<path d="M54.1042 42.6299H52.4141V43.4864H54.1042V42.6299Z" fill="#E0E0E0"/>
<path d="M54.1042 42.6299H52.4141V43.4864H54.1042V42.6299Z" fill="#E0E0E0"/>
<path d="M48.2341 43.4893H47.5V48.1522H48.2341V43.4893Z" fill="#E0E0E0"/>
<path d="M48.2341 43.4893H47.5V48.1522H48.2341V43.4893Z" fill="#E0E0E0"/>
<path d="M54.1023 44.126H51.6719V48.1521H54.1023V44.126Z" fill="#E0E0E0"/>
<path opacity="0.2" d="M54.1023 44.126H51.6719V48.1521H54.1023V44.126Z" fill="#EBEBEB"/>
<path d="M51.6687 44.126H49.2383V48.1521H51.6687V44.126Z" fill="#E0E0E0"/>
<path opacity="0.1" d="M51.6687 44.126H49.2383V48.1521H51.6687V44.126Z" fill="#E0E0E0"/>
<path d="M50.4557 44.7878L50.1953 45.5299L50.7335 46.193L50.6678 46.8548L51.2729 46.5561L51.6709 46.6509V44.126H50.3193L50.4557 44.7878Z" fill="#F5F5F5"/>
<path d="M54.1019 48.1508V46.1654L53.5501 45.7246L53.441 46.193L53.0107 46.1391L53.1955 47.0627L52.4961 47.414L53.1707 47.6864L53.0516 48.1508H54.1019Z" fill="#EBEBEB"/>
<path d="M47.5 45.8642L47.6897 45.7247L47.7988 45.8207L48.1212 45.4379L48.2353 45.5668V43.4893H47.5V45.8642Z" fill="#E0E0E0"/>
<path d="M47.5 45.8642L47.6897 45.7247L47.7988 45.8207L48.1212 45.4379L48.2353 45.5668V43.4893H47.5V45.8642Z" fill="#E0E0E0"/>
<path d="M52.781 43.4893H52.0469V48.1522H52.781V43.4893Z" fill="#E0E0E0"/>
<path d="M52.781 43.4893H52.0469V48.1522H52.781V43.4893Z" fill="#E0E0E0"/>
<path d="M17.4985 34.189L17.0075 30.2457L16.664 25.0657L15.5641 20.2119H14.5039V48.1635H18.8253V34.5561L17.992 33.7285L17.4985 34.189Z" fill="#E0E0E0"/>
<path d="M17.2404 21.5989L17.6595 21.6805L17.6893 21.5094L17.2739 21.4279L17.3755 20.916L17.2143 20.8805L17.1127 21.3976L16.6799 21.3134L16.6501 21.4844L17.0829 21.5673L17.0122 21.9226L16.9973 22.0384L16.479 21.937L16.9118 19.7582L16.7506 19.7227L16.3178 21.9042L16.1814 21.8778L16.1517 22.0489L16.2955 22.0765L16.0078 24.4422V30.4051H16.1715V24.4527L16.324 23.1752L16.8436 23.2778L16.6997 24.4422V30.4051H16.8634V24.4527L16.9998 23.308L17.3123 23.3686L17.3421 23.1975L17.0209 23.1344L17.1275 22.241H17.1474L17.1771 22.0699H17.1474L17.1623 21.9502L17.2391 21.5976L17.2404 21.5989ZM16.8671 23.1081L16.3476 23.0067L16.4542 22.1134L16.9738 22.2147L16.8671 23.1081Z" fill="#E0E0E0"/>
<path d="M19.6463 24.8034L19.4864 24.7666L19.283 25.7876L18.7548 27.2573L18.322 26.9928L18.5911 26.2389L18.7944 26.3639L18.8775 26.2113L18.6481 26.0705L18.7337 25.8337L19.1664 23.6429L19.0065 23.6074L18.5737 25.785L18.503 25.9823L17.9884 25.6639L17.9054 25.8165L18.4448 26.1494L18.1769 26.9033L18.1484 26.8849L18.0666 27.0376L18.1186 27.0691L17.7107 28.2112L17.5482 28.1849L17.5234 28.3572L17.6512 28.377L17.6127 28.4875V29.4164H17.5309V29.5901H17.6127V30.5703H17.5309V30.7479H17.6127V31.7269H17.5309V31.9005H17.6127V32.8808H17.5309V33.0544H17.6127V34.4689H17.7764V33.0544H18.322V34.4689H18.4857V33.0544H18.5675V32.8808H18.4857V31.9005H18.5675V31.7269H18.4857V30.7479H18.5675V30.5743H18.4857V29.594H18.5675V29.4204H18.4857V28.5112L18.5452 28.5204L18.57 28.348H18.5452L18.8403 27.5178L18.9594 27.5915L19.0412 27.4389L18.8974 27.3507L19.4343 25.8415L19.6451 24.8034H19.6463ZM18.322 32.8794H17.7888V31.8992H18.322V32.8794ZM18.322 31.7255H17.7888V30.7519H18.322V31.7255ZM18.322 30.5729H17.7888V29.5927H18.322V30.5729ZM18.322 28.4888V29.4177H17.7888V28.5204L17.8297 28.4046L18.3245 28.4822V28.4888H18.322ZM18.3828 28.3165L17.8868 28.2388L18.2712 27.1599L18.7039 27.4244L18.3828 28.3178V28.3165Z" fill="#E6E6E6"/>
<path d="M6.62753 21.779L7.16445 23.2882L7.02061 23.3763L7.10369 23.5289L7.22149 23.4553L7.51661 24.2855H7.49181L7.51661 24.4579L7.57737 24.4486V25.3578H7.49553V25.5315H7.57737V26.5117H7.49553V26.6854H7.57737V27.6643H7.49553V27.8446H7.57737V28.8248H7.49553V28.9985H7.57737V30.4129H7.74105V28.9985H8.27425V30.4129H8.43793V28.9985H8.51977V28.8248H8.43793V27.8446H8.51977V27.6709H8.43793V26.692H8.51977V26.5183H8.43793V25.5381H8.51977V25.3644H8.43793V24.4355L8.39701 24.325L8.52473 24.3052L8.49993 24.1329L8.33749 24.1592L7.94317 23.0105L7.99649 22.979L7.91341 22.8263L7.88613 22.8448L7.61705 22.0908L8.15645 21.758L8.07337 21.6053L7.55877 21.9251L7.48933 21.7277L7.05657 19.5488L6.89661 19.5857L7.32937 21.7764L7.41245 22.0119L7.18305 22.154L7.26613 22.3066L7.47073 22.1803L7.73857 22.9355L7.30581 23.2L6.78129 21.7316L6.57917 20.7106L6.41797 20.7475L6.62381 21.779H6.62753ZM7.74849 27.8472H8.28169V28.8274H7.74849V27.8472ZM7.74849 26.6946H8.28169V27.6735H7.74849V26.6946ZM7.74849 25.5407H8.28169V26.5209H7.74849V25.5407ZM7.74849 24.4302L8.24325 24.3526L8.28541 24.4684V25.3657H7.75221V24.4368L7.74973 24.4302H7.74849ZM7.36905 23.3645L7.80181 23.1L8.18621 24.1789L7.69145 24.2565L7.36905 23.3632V23.3645Z" fill="#EBEBEB"/>
<path d="M6.21802 36.1258V30.1511L5.93034 27.7985L6.07418 27.7696L6.04566 27.5985L5.90926 27.6262L5.4765 25.4434L5.31654 25.4802L5.7493 27.6577L5.22974 27.7604L5.21486 27.6367L5.14542 27.2893L5.57818 27.2051L5.54966 27.0341L5.1169 27.1183L5.01274 26.6012L4.85278 26.6381L4.95446 27.1499L4.53906 27.2314L4.56758 27.4025L4.98794 27.3196L5.05738 27.6656L5.07226 27.7906H5.04374L5.07226 27.9617H5.09334L5.19998 28.8524L4.87882 28.9156L4.90858 29.088L5.21982 29.0274L5.36366 30.1603V36.1232H5.52734V30.1524L5.3835 28.9985L5.90306 28.8972L6.05558 30.1629V36.1258H6.21554H6.21802ZM5.35374 28.8248L5.2471 27.9314L5.76666 27.8301L5.8733 28.7235L5.35374 28.8248Z" fill="#E0E0E0"/>
<path d="M5.50781 30.5799L6.60149 28.2734H7.28349L7.50297 29.0484L6.98465 30.4063L6.19105 30.5799H5.50781Z" fill="#E0E0E0"/>
<path d="M5.50781 30.5799L6.60149 28.2734H7.28349L7.50297 29.0484L6.98465 30.4063L6.19105 30.5799H5.50781Z" fill="#E0E0E0"/>
<path d="M6.19141 30.5799L7.28385 28.2735L8.38001 28.7234L9.58281 28.084V30.8984L6.19141 30.5799Z" fill="#E0E0E0"/>
<path d="M6.19141 30.5799L7.28385 28.2735L8.38001 28.7234L9.58281 28.084V30.8984L6.19141 30.5799Z" fill="#E0E0E0"/>
<path d="M7.33594 25.5301L7.82822 22.4237H8.81278L9.30506 20.2119H9.85314V21.7869V24.3394L9.5791 25.5301L9.22322 25.7433L7.88278 25.5301H7.33594Z" fill="#E0E0E0"/>
<path d="M7.33594 25.5301L7.82822 22.4237H8.81278L9.30506 20.2119H9.85314V21.7869V24.3394L9.5791 25.5301L9.22322 25.7433L7.88278 25.5301H7.33594Z" fill="#E0E0E0"/>
<path d="M7.88281 25.5301L8.37633 22.4237H9.35965L9.85317 20.2119L10.9419 21.5934L10.6443 22.571V25.7433L7.88281 25.5301Z" fill="#E0E0E0"/>
<path d="M7.88281 25.5301L8.37633 22.4237H9.35965L9.85317 20.2119L10.9419 21.5934L10.6443 22.571V25.7433L7.88281 25.5301Z" fill="#E0E0E0"/>
<path d="M12.4773 20.2119L10.8529 20.9303L10.156 22.6276L9.1429 23.7434V25.1959H7.13038L6.87246 26.1538V26.9367H9.1429V30.0708H6.18922V30.0629L5.76514 30.2457H4.94922V48.1635H14.5034V20.2119H12.4773Z" fill="#E0E0E0"/>
<path d="M12.4773 20.2119L10.8529 20.9303L10.156 22.6276L9.1429 23.7434V25.1959H7.13038L6.87246 26.1538V26.9367H9.1429V30.0708H6.18922V30.0629L5.76514 30.2457H4.94922V48.1635H14.5034V20.2119H12.4773Z" fill="#E6E6E6"/>
<path d="M9.14509 37.0381H6.19141V40.1722H9.14509V37.0381Z" fill="#F5F5F5"/>
<path d="M13.3013 37.0381H10.3477V40.1722H13.3013V37.0381Z" fill="#F5F5F5"/>
<path d="M9.14509 32.1611H6.19141V35.2952H9.14509V32.1611Z" fill="#F5F5F5"/>
<path d="M13.3013 32.1611H10.3477V35.2952H13.3013V32.1611Z" fill="#F5F5F5"/>
<path d="M13.3013 27.2852H10.3477V30.4192H13.3013V27.2852Z" fill="#F5F5F5"/>
<path d="M13.3013 22.4102H10.3477V25.5442H13.3013V22.4102Z" fill="#F5F5F5"/>
<path d="M18.8244 36.0059H17.7034L18.0519 37.7768L16.1993 40.5333L16.4585 42.5938L15.707 44.7424L15.8248 48.1633H18.8244V36.0059Z" fill="#EBEBEB"/>
<path d="M17.4781 40.2793H16.7812V40.649H17.4781V40.2793Z" fill="#E0E0E0"/>
<path d="M17.9625 39.7139H17.2656V40.0836H17.9625V39.7139Z" fill="#E0E0E0"/>
<path d="M17.9625 40.8457H17.2656V41.2154H17.9625V40.8457Z" fill="#E0E0E0"/>
<path d="M18.4 40.2793H17.7031V40.649H18.4V40.2793Z" fill="#E0E0E0"/>
<path d="M17.65 42.8701H16.9531V43.2398H17.65V42.8701Z" fill="#E0E0E0"/>
<path d="M18.0875 42.3047H17.3906V42.6744H18.0875V42.3047Z" fill="#E0E0E0"/>
<path d="M16.7242 45.0068H16.0273V45.3766H16.7242V45.0068Z" fill="#E0E0E0"/>
<path d="M17.2125 44.4414H16.5156V44.8111H17.2125V44.4414Z" fill="#E0E0E0"/>
<path d="M18.1422 44.4414H17.4453V44.8111H18.1422V44.4414Z" fill="#E0E0E0"/>
<path d="M17.2125 45.5732H16.5156V45.943H17.2125V45.5732Z" fill="#E0E0E0"/>
<path d="M18.1422 45.5732H17.4453V45.943H18.1422V45.5732Z" fill="#E0E0E0"/>
<path d="M17.65 45.0068H16.9531V45.3766H17.65V45.0068Z" fill="#E0E0E0"/>
<path d="M17.2125 46.7383H16.5156V47.108H17.2125V46.7383Z" fill="#E0E0E0"/>
<path d="M17.6969 46.1729H17V46.5426H17.6969V46.1729Z" fill="#E0E0E0"/>
<path d="M17.6969 47.3027H17V47.6725H17.6969V47.3027Z" fill="#E0E0E0"/>
<path d="M18.6266 47.3027H17.9297V47.6725H18.6266V47.3027Z" fill="#E0E0E0"/>
<path d="M18.1344 46.7383H17.4375V47.108H18.1344V46.7383Z" fill="#E0E0E0"/>
<g opacity="0.2">
<path d="M17.4742 40.2793H16.7773V40.649H17.4742V40.2793Z" fill="#E0E0E0"/>
<path d="M17.9625 39.7139H17.2656V40.0836H17.9625V39.7139Z" fill="#E0E0E0"/>
<path d="M17.9625 40.8457H17.2656V41.2154H17.9625V40.8457Z" fill="#E0E0E0"/>
<path d="M18.4 40.2793H17.7031V40.649H18.4V40.2793Z" fill="#E0E0E0"/>
<path d="M17.6461 42.8701H16.9492V43.2398H17.6461V42.8701Z" fill="#E0E0E0"/>
<path d="M18.0836 42.3047H17.3867V42.6744H18.0836V42.3047Z" fill="#E0E0E0"/>
<path d="M16.7242 45.0068H16.0273V45.3766H16.7242V45.0068Z" fill="#E0E0E0"/>
<path d="M17.2086 44.4414H16.5117V44.8111H17.2086V44.4414Z" fill="#E0E0E0"/>
<path d="M18.1383 44.4414H17.4414V44.8111H18.1383V44.4414Z" fill="#E0E0E0"/>
<path d="M17.2086 45.5732H16.5117V45.943H17.2086V45.5732Z" fill="#E0E0E0"/>
<path d="M18.1383 45.5732H17.4414V45.943H18.1383V45.5732Z" fill="#E0E0E0"/>
<path d="M17.6461 45.0068H16.9492V45.3766H17.6461V45.0068Z" fill="#E0E0E0"/>
<path d="M17.2086 46.7383H16.5117V47.108H17.2086V46.7383Z" fill="#E0E0E0"/>
<path d="M17.6969 46.1729H17V46.5426H17.6969V46.1729Z" fill="#E0E0E0"/>
<path d="M17.6969 47.3027H17V47.6725H17.6969V47.3027Z" fill="#E0E0E0"/>
<path d="M18.6266 47.3027H17.9297V47.6725H18.6266V47.3027Z" fill="#E0E0E0"/>
<path d="M18.1344 46.7383H17.4375V47.108H18.1344V46.7383Z" fill="#E0E0E0"/>
</g>
<path d="M6.78785 37.0381H6.19141V40.1722H6.78785V37.0381Z" fill="#E0E0E0"/>
<path d="M10.9441 37.0381H10.3477V40.1722H10.9441V37.0381Z" fill="#E0E0E0"/>
<path d="M6.78785 32.1611H6.19141V35.2952H6.78785V32.1611Z" fill="#E0E0E0"/>
<path d="M10.9441 32.1611H10.3477V35.2952H10.9441V32.1611Z" fill="#E0E0E0"/>
<path d="M10.9441 27.2852H10.3477V30.4192H10.9441V27.2852Z" fill="#E0E0E0"/>
<path d="M10.9441 22.4102H10.3477V25.5442H10.9441V22.4102Z" fill="#E0E0E0"/>
<g opacity="0.3">
<path d="M6.78785 37.0371H6.19141V40.1712H6.78785V37.0371Z" fill="#E0E0E0"/>
<path d="M10.9441 37.0371H10.3477V40.1712H10.9441V37.0371Z" fill="#E0E0E0"/>
<path d="M6.78785 32.1611H6.19141V35.2952H6.78785V32.1611Z" fill="#E0E0E0"/>
<path d="M10.9441 32.1611H10.3477V35.2952H10.9441V32.1611Z" fill="#E0E0E0"/>
<path d="M10.9441 27.2852H10.3477V30.4192H10.9441V27.2852Z" fill="#E0E0E0"/>
<path d="M10.9441 22.4102H10.3477V25.5442H10.9441V22.4102Z" fill="#E0E0E0"/>
</g>
<path d="M11.6655 41.9648H5.73828V42.9253H11.6655V41.9648Z" fill="#E0E0E0"/>
<path d="M11.6655 41.9648H5.73828V42.9253H11.6655V41.9648Z" fill="#E0E0E0"/>
<path d="M13.5614 41.9648H11.668V42.9253H13.5614V41.9648Z" fill="#E0E0E0"/>
<path d="M13.5614 41.9648H11.668V42.9253H13.5614V41.9648Z" fill="#E0E0E0"/>
<path d="M6.98618 42.9268H6.16406V48.1516H6.98618V42.9268Z" fill="#E0E0E0"/>
<path d="M6.98618 42.9268H6.16406V48.1516H6.98618V42.9268Z" fill="#E0E0E0"/>
<path d="M13.559 43.6396H10.8359V48.15H13.559V43.6396Z" fill="#E0E0E0"/>
<path opacity="0.2" d="M13.559 43.6396H10.8359V48.15H13.559V43.6396Z" fill="#EBEBEB"/>
<path d="M10.8363 43.6396H8.11328V48.15H10.8363V43.6396Z" fill="#E0E0E0"/>
<path opacity="0.1" d="M10.8363 43.6396H8.11328V48.15H10.8363V43.6396Z" fill="#E0E0E0"/>
<path d="M9.47623 44.3817L9.18359 45.212L9.78747 45.9554L9.71431 46.6961L10.3914 46.3619L10.8378 46.4685V43.6396H9.32371L9.47623 44.3817Z" fill="#F5F5F5"/>
<path d="M13.5597 48.149V45.9241L12.9422 45.4307L12.8194 45.9556L12.3383 45.8951L12.5442 46.9306L11.7617 47.324L12.5169 47.6293L12.3842 48.149H13.5597Z" fill="#EBEBEB"/>
<path d="M6.16406 45.5872L6.37734 45.4306L6.5001 45.5372L6.8597 45.1096L6.98742 45.253V42.9268H6.16406V45.5872Z" fill="#E0E0E0"/>
<path d="M6.16406 45.5872L6.37734 45.4306L6.5001 45.5372L6.8597 45.1096L6.98742 45.253V42.9268H6.16406V45.5872Z" fill="#E0E0E0"/>
<path d="M12.0773 42.9268H11.2539V48.1516H12.0773V42.9268Z" fill="#E0E0E0"/>
<path d="M12.0773 42.9268H11.2539V48.1516H12.0773V42.9268Z" fill="#E0E0E0"/>
<path d="M28.2219 7.05631L27.4258 5.23006L27.9528 5.13007L28.9944 6.60896L30.3993 6.59712L29.9194 6.09451L30.5754 5.97609L31.0081 6.3616L35.5155 5.52874L36.1715 4.34852L37.5181 4.113C37.5181 4.113 37.5653 3.83933 37.6 3.82749C37.6347 3.81564 37.7637 3.82749 37.7637 3.82749V3.43013L31.8389 0.248675L32.2481 0L37.657 3.0683C37.657 3.0683 37.7513 2.93147 37.9385 2.93147C38.1257 2.93147 38.3254 2.96831 38.3254 2.96831L38.5015 3.16699L45.9117 2.23544C45.9117 2.23544 46.1572 2.52096 46.1225 2.50912C46.0878 2.49727 40.1755 3.32882 40.1755 3.32882C40.1755 3.32882 39.8245 3.16699 39.7886 3.16699C39.7526 3.16699 38.9925 3.29066 38.9925 3.29066L38.9342 3.41434L38.2547 3.52618L38.2076 3.73802L38.4295 3.82486L38.4531 3.97353L38.8623 3.96169L38.9565 4.14853C38.9565 4.14853 39.858 3.99985 40.3032 4.07353C40.7483 4.14853 41.7081 5.00507 42.188 5.27875C42.6679 5.55242 42.7497 6.13529 42.188 6.38397C41.6263 6.63264 40.6429 7.17868 39.367 7.25367C38.091 7.32867 36.2174 7.005 35.8082 6.89316C35.399 6.78132 31.6988 7.08 31.6988 7.08L32.237 7.62603L31.581 7.68787L31.0887 7.19052L29.1221 7.27736L28.5951 8.37074L28.1499 8.2839L28.2665 7.32735H27.8213L27.8325 7.20367L28.2194 7.055L28.2219 7.05631Z" fill="#E0E0E0"/>
<path d="M36.8995 7.19069C37.3546 7.63278 37.2839 8.34854 37.2207 8.93536C37.2132 9.00378 37.2802 9.06036 37.3397 9.06167C37.4092 9.06167 37.4513 9.00246 37.4588 8.93536C37.5294 8.27618 37.5741 7.50384 37.0682 7.01175C36.9553 6.90254 36.7879 7.08017 36.9008 7.18937L36.8995 7.19069Z" fill="#E0E0E0"/>
<path d="M36.7998 9.18127C37.4644 9.07865 38.1278 8.96944 38.7912 8.85102C39.4087 8.7405 40.0448 8.66024 40.6041 8.34183C40.9079 8.16947 41.1832 7.94711 41.456 7.72738C41.5589 7.64449 41.5031 7.46423 41.3642 7.49713C40.1019 7.80238 38.8197 8.01027 37.5301 8.11684C37.1606 8.1471 36.7898 8.16947 36.4191 8.18263C36.2666 8.18789 36.2666 8.44051 36.4191 8.43393C37.7273 8.38394 39.0318 8.23263 40.3189 7.98132C40.6896 7.90895 41.0592 7.82738 41.4274 7.73922C41.3964 7.66291 41.3667 7.5866 41.3357 7.50897C41.0988 7.69975 40.8608 7.89053 40.6053 8.05105C40.3437 8.21421 40.0684 8.32867 39.7733 8.40367C39.1458 8.56288 38.4961 8.65235 37.8587 8.75892C37.4855 8.82208 37.111 8.88129 36.7365 8.93918C36.5865 8.96286 36.6497 9.20496 36.7998 9.18127Z" fill="#E0E0E0"/>
<path d="M38.9779 7.30337C39.2333 7.6823 39.3214 8.16518 39.2085 8.61648C39.1688 8.77305 39.3982 8.84015 39.4367 8.68358C39.5644 8.17176 39.4726 7.60862 39.1825 7.17706C39.1453 7.1218 39.0796 7.09548 39.02 7.13232C38.9692 7.1639 38.9407 7.24942 38.9779 7.30468V7.30337Z" fill="#E0E0E0"/>
<path d="M35.9895 6.91375C35.9176 7.14927 35.8816 7.39663 35.8828 7.64399C35.8828 7.70978 35.9374 7.77293 36.0019 7.7703C36.0651 7.76767 36.1209 7.71504 36.1209 7.64399C36.1209 7.58741 36.1209 7.53084 36.1259 7.47294C36.1284 7.44268 36.1308 7.41242 36.1333 7.38084C36.1346 7.36768 36.1358 7.35453 36.1383 7.34137C36.1358 7.36242 36.1408 7.32032 36.142 7.31637C36.1594 7.2019 36.1854 7.08875 36.2189 6.97823C36.2387 6.91507 36.1966 6.83744 36.1358 6.82297C36.0701 6.80718 36.0106 6.84402 35.9895 6.91112V6.91375Z" fill="#E0E0E0"/>
<path d="M35.4146 7.88406C36.3248 7.73143 37.235 7.58012 38.1451 7.4275C38.2952 7.4025 38.2319 7.1604 38.0819 7.1854C37.1717 7.33803 36.2616 7.48934 35.3514 7.64196C35.2014 7.66696 35.2646 7.90906 35.4146 7.88406Z" fill="#E0E0E0"/>
<path d="M36.0178 20.7062C35.7773 20.5127 35.4263 20.4917 35.1659 20.6535C34.82 19.9128 33.8577 19.5851 33.1708 19.9759C32.9922 19.1773 32.2507 18.5641 31.4769 18.5733C30.7032 18.5839 29.9765 19.2154 29.8153 20.018C29.7893 20.1457 29.7732 20.2851 29.6864 20.3785C29.5463 20.5298 29.3131 20.4785 29.1147 20.4627C28.4885 20.4114 27.8586 20.8772 27.6875 21.5193L36.3129 21.4864C36.3886 21.1759 36.2584 20.8996 36.0178 20.7062Z" fill="#F0F0F0"/>
<path d="M38.9784 14.36C38.8618 14.2666 38.6931 14.2561 38.5667 14.335C38.4005 13.9772 37.9355 13.8193 37.6032 14.0074C37.5164 13.6219 37.1593 13.3259 36.786 13.3311C36.4128 13.3364 36.0619 13.6416 35.9838 14.0285C35.9714 14.0903 35.9627 14.1574 35.9218 14.2021C35.8548 14.2758 35.7419 14.2508 35.6452 14.2429C35.3427 14.2179 35.0389 14.4429 34.957 14.7521L39.1197 14.7363C39.1557 14.5863 39.0937 14.4534 38.9771 14.36H38.9784Z" fill="#F0F0F0"/>
<path d="M13.1782 7.83249C13.0257 7.71013 12.8025 7.69566 12.6375 7.79828C12.4181 7.32857 11.808 7.12068 11.3727 7.36804C11.2587 6.86148 10.7887 6.47202 10.2989 6.4786C9.80785 6.48518 9.34781 6.88648 9.24489 7.39435C9.22877 7.47461 9.21761 7.56408 9.16305 7.62329C9.07501 7.71934 8.92621 7.68645 8.79973 7.67724C8.40293 7.64434 8.00241 7.94038 7.89453 8.34695L13.3642 8.3259C13.4125 8.12985 13.3295 7.95354 13.1769 7.83118L13.1782 7.83249Z" fill="#F0F0F0"/>
<path d="M52.2926 11.3181C52.1475 11.2023 51.9355 11.1879 51.778 11.2866C51.5697 10.8392 50.9881 10.6418 50.5739 10.8774C50.4661 10.3958 50.0184 10.0248 49.5522 10.0313C49.0859 10.0379 48.647 10.4195 48.549 10.9037C48.5341 10.9813 48.523 11.0655 48.4709 11.1208C48.3866 11.2116 48.2465 11.1813 48.1262 11.1721C47.748 11.1405 47.3673 11.4221 47.2656 11.8102L52.4711 11.7905C52.517 11.6036 52.4377 11.4365 52.2926 11.3194V11.3181Z" fill="#E0E0E0"/>
<path d="M24.9221 4.29325C24.7361 4.14457 24.4645 4.12747 24.2624 4.25246C23.9946 3.6788 23.2506 3.42618 22.7186 3.7288C22.5797 3.11172 22.0068 2.63673 21.4079 2.64463C20.8102 2.65252 20.2473 3.14198 20.122 3.76301C20.1022 3.86169 20.0886 3.96958 20.0228 4.04194C19.915 4.15904 19.7339 4.11957 19.5802 4.10641C19.0953 4.06694 18.608 4.42745 18.4766 4.92349L25.149 4.89717C25.2073 4.65771 25.1068 4.44324 24.9208 4.29325H24.9221Z" fill="#E0E0E0"/>
<path d="M56.4677 55.289C56.4677 55.735 44.8712 56.0955 30.5678 56.0955C16.2644 56.0955 4.66797 55.7337 4.66797 55.289C4.66797 54.8443 16.2644 54.4824 30.5678 54.4824C44.8712 54.4824 56.4677 54.8443 56.4677 55.289Z" fill="#F5F5F5"/>
<path d="M51.6653 54.9614L52.1328 53.1918L53.9816 52.5615C53.9816 52.5615 56.262 54.1246 56.3934 54.1694C56.5249 54.2141 56.6563 54.9588 56.6563 54.9588L51.6641 54.9627L51.6653 54.9614Z" fill="#263238"/>
<path opacity="0.3" d="M51.6653 54.9614L52.1328 53.1918L53.9816 52.5615C53.9816 52.5615 56.262 54.1246 56.3934 54.1694C56.5249 54.2141 56.6563 54.9588 56.6563 54.9588L51.6641 54.9627L51.6653 54.9614Z" fill="white"/>
<path d="M47.4648 54.9946L47.724 54.0157L48.747 53.667C48.747 53.667 50.0081 54.5314 50.0812 54.5564C50.1544 54.5814 50.2263 54.9933 50.2263 54.9933L47.4648 54.9959V54.9946Z" fill="#263238"/>
<path opacity="0.3" d="M47.4648 54.9946L47.724 54.0157L48.747 53.667C48.747 53.667 50.0081 54.5314 50.0812 54.5564C50.1544 54.5814 50.2263 54.9933 50.2263 54.9933L47.4648 54.9959V54.9946Z" fill="white"/>
<path d="M12.7453 54.9205L11.9889 52.0562L8.99681 51.0352C8.99681 51.0352 5.30657 53.5653 5.09329 53.6364C4.88001 53.7087 4.66797 54.9126 4.66797 54.9126L12.7466 54.9192L12.7453 54.9205Z" fill="#263238"/>
<path opacity="0.3" d="M12.7453 54.9205L11.9889 52.0562L8.99681 51.0352C8.99681 51.0352 5.30657 53.5653 5.09329 53.6364C4.88001 53.7087 4.66797 54.9126 4.66797 54.9126L12.7466 54.9192L12.7453 54.9205Z" fill="white"/>
<path d="M45.4556 45.2163C45.4556 45.2163 45.8363 45.0808 46.2294 45.1439C46.6225 45.2084 46.8717 45.34 47.0366 45.3229C47.2015 45.3058 47.3764 45.3781 47.2152 45.5597C47.054 45.7413 47.0317 45.8742 46.7638 45.8873C46.7638 45.8873 46.956 45.9347 46.9783 46.3978C47.0007 46.861 46.5791 47.1557 46.5791 47.1557C46.5791 47.1557 46.5431 47.4794 46.2529 47.4741C46.2529 47.4741 46.0917 47.6557 45.8747 47.632C45.6565 47.6083 45.0266 47.286 44.8393 46.9268C44.6521 46.5676 44.7823 46.6899 44.5355 46.5794C44.2888 46.4702 43.8672 46.211 43.8672 46.211L44.3446 44.6992L45.4122 45.1992" fill="#EFB9AF"/>
<path d="M44.1876 46.499L45.0209 44.8214L44.748 44.6662L43.4299 42.957C43.4299 42.957 41.839 44.8767 41.8477 44.8991C41.8551 44.9227 43.916 46.3503 43.916 46.3503L44.1888 46.499H44.1876Z" fill="#407BFF"/>
<path opacity="0.4" d="M44.1876 46.499L45.0209 44.8214L44.748 44.6662L43.4299 42.957C43.4299 42.957 41.839 44.8767 41.8477 44.8991C41.8551 44.9227 43.916 46.3503 43.916 46.3503L44.1888 46.499H44.1876Z" fill="black"/>
<path d="M46.3607 45.877L45.2695 46.7651L45.5746 47.223L46.7451 46.3927L46.3607 45.877Z" fill="#263238"/>
<path d="M46.5338 46.2504C46.4842 46.1859 46.4135 46.1149 46.3379 46.1399C46.2734 46.1623 46.2473 46.2438 46.2411 46.3149C46.2263 46.478 46.2448 46.6649 46.323 46.8083C46.2895 46.7596 46.251 46.703 46.2262 46.6622C46.1742 46.578 46.1233 46.4886 46.0465 46.4307C45.9696 46.3715 45.8567 46.3517 45.7811 46.4136C45.6906 46.4886 45.698 46.6359 45.7377 46.7504C45.7612 46.8175 45.7935 46.8807 45.8319 46.9386C45.7898 46.9043 45.7414 46.8807 45.6893 46.8859C45.5728 46.8978 45.5095 47.0517 45.5381 47.1714C45.5666 47.2912 45.6559 47.3833 45.7414 47.4675L46.8698 46.7478C46.7669 46.5754 46.6553 46.4083 46.535 46.2504H46.5338Z" fill="#EFB9AF"/>
<path d="M31.4864 38.1588C31.0933 38.4298 30.8305 38.8798 30.6606 39.3509C30.3555 40.1942 30.3159 41.1179 30.2799 42.0218C30.2663 42.36 30.2588 42.7218 30.4237 43.0073C30.6668 43.4257 31.7084 43.5494 32.1535 43.4349L33.0079 38.3114C32.6285 38.0259 31.8795 37.8878 31.4877 38.1588H31.4864Z" fill="#407BFF"/>
<g opacity="0.3">
<path d="M31.4864 38.1588C31.0933 38.4298 30.8305 38.8798 30.6606 39.3509C30.3555 40.1942 30.3159 41.1179 30.2799 42.0218C30.2663 42.36 30.2588 42.7218 30.4237 43.0073C30.6668 43.4257 31.7084 43.5494 32.1535 43.4349L33.0079 38.3114C32.6285 38.0259 31.8795 37.8878 31.4877 38.1588H31.4864Z" fill="black"/>
</g>
<path opacity="0.3" d="M32.5581 38.0927C32.5507 38.0914 31.8253 43.4267 31.8253 43.4267C31.8253 43.4267 31.3442 43.3662 32.0646 39.0927C32.2196 38.1769 32.3151 38.0361 32.3151 38.0361C32.4515 38.0559 32.4664 38.0611 32.5569 38.0927H32.5581Z" fill="black"/>
<path d="M33.0674 34.3989C32.7909 34.4923 32.5652 34.716 32.3904 34.9673C32.0779 35.4186 31.9118 35.962 31.7518 36.4949C31.691 36.6949 31.6303 36.9093 31.6861 37.108C31.7667 37.4001 32.3693 37.654 32.6533 37.6632L33.9528 34.7528C33.7705 34.516 33.344 34.3042 33.0687 34.3976L33.0674 34.3989Z" fill="#407BFF"/>
<g opacity="0.3">
<path d="M33.0674 34.3989C32.7909 34.4923 32.5652 34.716 32.3904 34.9673C32.0779 35.4186 31.9118 35.962 31.7518 36.4949C31.691 36.6949 31.6303 36.9093 31.6861 37.108C31.7667 37.4001 32.3693 37.654 32.6533 37.6632L33.9528 34.7528C33.7705 34.516 33.344 34.3042 33.0687 34.3976L33.0674 34.3989Z" fill="black"/>
</g>
<path opacity="0.3" d="M32.5861 37.6581L33.7145 34.5437L33.5198 34.4424C32.8093 35.366 32.5018 36.4397 32.4336 37.6344L32.5861 37.6567V37.6581Z" fill="black"/>
<path d="M36.2221 42.5024C36.4441 40.0591 36.666 37.6157 36.888 35.1724C36.8991 35.0461 36.8917 34.9185 36.8644 34.7961C36.79 34.458 36.5767 34.1935 36.2977 34.0882C36.0001 33.9764 35.6939 33.8935 35.3814 33.8711C34.9077 33.8369 34.4105 33.9488 33.9938 34.2777C33.5462 34.6303 33.2213 35.2079 33.008 35.8224C32.7947 36.4368 32.6819 37.0947 32.5715 37.746C32.3669 38.9433 32.1636 40.1393 31.959 41.3366C31.8325 42.0774 31.706 42.8497 31.8474 43.5668C32.0631 44.6655 32.8741 45.3891 33.726 45.6667C34.1414 45.8023 34.6002 45.8483 35.0069 45.6194C35.4421 45.3746 35.7571 44.8431 35.9344 44.276C36.1117 43.7089 36.1675 43.101 36.2221 42.5024Z" fill="#407BFF"/>
<g opacity="0.3">
<path d="M36.2221 42.5024C36.4441 40.0591 36.666 37.6157 36.888 35.1724C36.8991 35.0461 36.8917 34.9185 36.8644 34.7961C36.79 34.458 36.5767 34.1935 36.2977 34.0882C36.0001 33.9764 35.6939 33.8935 35.3814 33.8711C34.9077 33.8369 34.4105 33.9488 33.9938 34.2777C33.5462 34.6303 33.2213 35.2079 33.008 35.8224C32.7947 36.4368 32.6819 37.0947 32.5715 37.746C32.3669 38.9433 32.1636 40.1393 31.959 41.3366C31.8325 42.0774 31.706 42.8497 31.8474 43.5668C32.0631 44.6655 32.8741 45.3891 33.726 45.6667C34.1414 45.8023 34.6002 45.8483 35.0069 45.6194C35.4421 45.3746 35.7571 44.8431 35.9344 44.276C36.1117 43.7089 36.1675 43.101 36.2221 42.5024Z" fill="black"/>
</g>
<g opacity="0.3">
<path d="M33.5625 40.7694C33.72 39.5629 33.9221 38.3643 34.1217 37.1656C34.3586 36.0473 34.3945 34.5342 35.4547 33.9092C34.4615 34.6249 34.4789 36.0578 34.2433 37.1893C34.03 38.3853 33.8179 39.5826 33.5625 40.7694Z" fill="black"/>
</g>
<path d="M38.1517 32.9527C38.1133 32.6357 38.1715 32.3054 38.3141 32.0225L37.9297 31.7344C37.5677 31.7673 37.1994 31.9002 36.9514 32.1817C36.7381 32.4225 36.6327 32.7528 36.6029 33.0817C36.5744 33.4106 36.6166 33.7422 36.6699 34.0672C36.6798 34.1251 36.6972 34.1935 36.7505 34.2119C36.7765 34.2211 36.8063 34.2145 36.8323 34.208C37.3978 34.0751 37.962 33.9409 38.5274 33.8067C38.3228 33.5711 38.1889 33.2672 38.1505 32.9501L38.1517 32.9527Z" fill="#263238"/>
<path d="M38.3746 32.0049C38.2816 31.8615 38.1886 31.7194 38.0956 31.5759L38.0882 31.5536C38.0423 31.5088 37.9617 31.5246 37.922 31.5759C37.8823 31.6273 37.8786 31.7023 37.8985 31.7654C37.9171 31.8286 37.9555 31.8825 37.9952 31.9351C38.0634 32.0246 38.139 32.1154 38.2407 32.1536C38.2729 32.1654 38.3101 32.172 38.3424 32.1614C38.3759 32.1509 38.4044 32.1193 38.4044 32.0825C38.4044 32.0536 38.3883 32.0286 38.3734 32.0049H38.3746Z" fill="#407BFF"/>
<path d="M38.7866 30.0986L38.2373 30.1723C37.9744 30.5486 37.8976 31.0644 38.0377 31.5078C38.1778 31.9525 38.5324 32.3143 38.9553 32.4459C38.871 31.6657 38.8139 30.8828 38.7866 30.0986Z" fill="#263238"/>
<path d="M38.3919 34.1625C38.3919 34.1625 38.7353 33.3705 38.6857 31.7929C38.6857 31.7916 38.6857 31.7942 38.6857 31.7929C38.6795 31.5719 38.6746 31.2929 38.6585 31.1127C38.6585 31.1074 38.7329 31.1627 38.7329 31.1627L40.3287 32.9165C40.1713 33.3744 40.113 34.3257 40.1155 34.7349C40.1155 34.7349 40.1874 35.4941 39.3095 35.2888C38.6684 35.1388 38.3906 34.1625 38.3906 34.1625H38.3919Z" fill="#EFB9AF"/>
<path opacity="0.2" d="M40.2037 33.5865L39.1758 33.0312C39.1882 33.4181 39.3866 33.926 40.1368 34.1654C40.1368 34.1654 40.1579 33.7417 40.2037 33.5865Z" fill="black"/>
<path d="M42.4707 29.7971C42.5823 30.3221 42.4162 31.3668 41.7689 30.9655C41.1216 30.5642 42.2798 28.8945 42.4707 29.7971Z" fill="#263238"/>
<path d="M38.9513 30.181C38.7727 31.4902 38.6475 32.2244 39.136 33.0178C39.8701 34.2111 41.4536 33.9572 41.9979 32.7283C42.4877 31.6218 42.6973 29.6666 41.6011 28.9008C40.5211 28.1469 39.1298 28.8719 38.9525 30.181H38.9513Z" fill="#EFB9AF"/>
<path d="M39.0497 28.617C39.356 27.9421 41.0907 28.2815 41.4888 28.7499C41.5483 28.8197 42.2539 29.7775 42.3196 29.767L40.0107 29.1894C39.9413 29.1565 39.7825 29.2144 39.6623 29.4368C39.6623 29.4368 39.573 30.8446 38.9319 31.3012C38.4533 30.9262 38.3528 30.6643 38.3107 30.167C38.2474 29.4262 38.6988 28.9499 39.0497 28.6157V28.617Z" fill="#263238"/>
<path d="M40.6011 30.9931C40.575 31.126 40.6209 31.247 40.7027 31.2642C40.7846 31.2813 40.8714 31.1878 40.8974 31.0563C40.9234 30.9234 40.8776 30.8023 40.7957 30.7852C40.7139 30.7681 40.6271 30.8615 40.6011 30.9931Z" fill="#263238"/>
<path d="M41.9292 31.2343C41.9031 31.3672 41.949 31.4883 42.0309 31.5054C42.1127 31.5225 42.1995 31.4291 42.2255 31.2975C42.2516 31.1646 42.2057 31.0435 42.1239 31.0264C42.042 31.0093 41.9552 31.1027 41.9292 31.2343Z" fill="#263238"/>
<path d="M41.4547 31.0732C41.4547 31.0732 41.7213 31.818 41.7945 32.1127C41.5886 32.2403 41.3047 32.0982 41.3047 32.0982L41.4547 31.0732Z" fill="#E27064"/>
<path d="M40.4904 30.4192C40.5016 30.4376 40.5214 30.4495 40.5438 30.4482C40.8104 30.435 40.9418 30.6205 40.943 30.6232C40.9629 30.6508 41.0001 30.6574 41.0261 30.6376C41.0534 30.6179 41.0584 30.5784 41.0398 30.5495C41.0336 30.5389 40.8674 30.3061 40.5376 30.3232C40.5041 30.3245 40.4793 30.3547 40.4805 30.389C40.4805 30.4008 40.4842 30.41 40.4892 30.4192H40.4904Z" fill="#263238"/>
<path d="M40.3824 34.0063L39.6917 33.7563C39.5405 33.7024 39.4598 33.5274 39.5119 33.3682C39.5628 33.2077 39.7277 33.1235 39.8777 33.1774L40.5684 33.4274C40.7197 33.4814 40.799 33.6564 40.7482 33.8156C40.6974 33.9761 40.5325 34.0603 40.3824 34.0063Z" fill="#263238"/>
<path d="M42.4603 30.8692C42.4715 30.8653 42.4802 30.8587 42.4876 30.8482C42.5075 30.8205 42.5025 30.7811 42.4765 30.7587C42.2161 30.5455 41.9581 30.6429 41.9457 30.6455C41.9147 30.6574 41.8986 30.6942 41.9098 30.7271C41.9209 30.76 41.9544 30.7771 41.9854 30.7653C41.9966 30.7613 42.1962 30.689 42.4045 30.86C42.4207 30.8732 42.4417 30.8758 42.4603 30.8692Z" fill="#263238"/>
<path d="M38.257 31.1541C38.2892 31.508 38.474 31.812 38.6897 31.9935C39.0158 32.2646 39.3407 31.9962 39.3866 31.5817C39.4275 31.208 39.3072 30.6173 38.9142 30.5081C38.5273 30.4002 38.2198 30.7502 38.257 31.1554V31.1541Z" fill="#EFB9AF"/>
<path opacity="0.2" d="M38.6055 30.8578C38.6699 30.792 38.7753 30.7855 38.8559 30.8262C38.9365 30.867 38.9948 30.9473 39.032 31.0341C39.0767 31.1381 39.0953 31.2539 39.0853 31.3683" stroke="black" stroke-width="0.5" stroke-linecap="round" stroke-linejoin="round"/>
<path d="M39.6611 30.0778C39.6611 30.0778 39.3424 32.8961 39.4552 33.0501C39.924 33.6856 40.4212 33.7948 40.4212 33.7948C40.4212 33.7948 40.3617 33.8619 40.0715 33.7487C39.7814 33.6356 39.4503 33.4935 39.3114 33.2632C39.1713 33.033 39.2482 31.8238 39.2147 31.5093C39.18 31.1936 39.2345 30.0146 39.2345 30.0146L39.6623 30.0791L39.6611 30.0778Z" fill="#263238"/>
<path d="M39.2774 32.7875L38.6289 32.2139L38.6599 31.9639L39.2427 32.4915L39.2774 32.7875Z" fill="#263238"/>
<path d="M40.3544 32.3239C40.5044 32.3832 40.6445 32.4674 40.7797 32.5568C40.8305 32.591 40.8777 32.5055 40.8268 32.4713C40.6842 32.3766 40.5379 32.2897 40.3792 32.2279C40.3556 32.2187 40.3283 32.2384 40.3221 32.2621C40.3147 32.2897 40.3308 32.3134 40.3544 32.3226V32.3239Z" fill="#263238"/>
<path d="M37.9797 30.3623C37.9797 30.3623 39.8955 30.311 40.9607 30.4057C42.0258 30.5005 42.8975 30.761 42.962 30.6399C43.0972 30.3847 42.8951 30.3176 42.8951 30.3176C42.8951 30.3176 43.0947 27.8927 40.7623 27.6729C38.4286 27.4532 38.1087 29.936 38.1087 29.936C38.1087 29.936 37.8743 30.0623 37.9809 30.361L37.9797 30.3623Z" fill="#407BFF"/>
<path opacity="0.3" d="M38.1094 29.9364C38.1094 29.9364 40.577 29.8075 42.8958 30.318C42.8958 30.318 39.895 29.4299 38.1094 29.9364Z" fill="black"/>
<path d="M40.7439 27.5186C41.4445 27.4962 42.1327 27.8541 42.5431 28.458C42.5778 28.5093 42.6584 28.4593 42.6237 28.408C42.1947 27.7751 41.4792 27.3975 40.7439 27.4199C40.6843 27.4212 40.6843 27.5199 40.7439 27.5186Z" fill="#407BFF"/>
<path d="M40.3038 45.5303C40.4514 45.6671 46.6688 50.0762 47.0532 50.7603C47.4376 51.4445 47.4785 53.1116 46.5559 53.3589C45.6334 53.6063 39.3292 53.7615 39.3292 53.7615C39.3292 53.7615 39.1668 51.1932 39.1928 50.3446C39.1941 50.2893 41.6579 50.8038 41.6579 50.8038L36.9062 49.8064L40.3038 45.5316V45.5303Z" fill="#407BFF"/>
<path opacity="0.4" d="M40.3042 45.5273C40.4518 45.6642 46.6692 50.0732 47.0536 50.7574C47.438 51.4416 47.4789 53.1086 46.5563 53.356C45.6338 53.602 39.3296 53.7586 39.3296 53.7586C39.3296 53.7586 39.1672 51.1903 39.1932 50.3416C39.1944 50.2864 41.6583 50.8008 41.6583 50.8008L37.2266 49.8772L40.3042 45.5287V45.5273Z" fill="black"/>
<path opacity="0.3" d="M38.4874 50.1413L39.4608 49.39L39.932 46.4375C39.932 46.4375 37.7496 49.9637 37.7856 49.9821C37.8216 50.0005 38.4874 50.14 38.4874 50.14V50.1413Z" fill="black"/>
<path opacity="0.3" d="M42.9574 53.6364L42.5644 53.1706L43.048 50.6681C43.048 50.6681 43.2898 50.6615 43.4262 50.3049C43.5626 49.9483 43.7746 48.0787 43.7696 48.0747C43.7659 48.0721 43.167 47.7432 43.167 47.7432L41.6133 52.8351C41.6133 52.8351 41.9853 53.6232 42.0262 53.6377C42.0671 53.6522 42.8979 53.6693 42.8979 53.6693" fill="black"/>
<path d="M42.2855 53.4067C43.3631 54.1658 44.3501 53.954 44.4295 54.5474C44.4691 54.8435 44.5225 55.3276 43.8715 55.2855C42.7902 55.2395 42.8844 55.2053 41.9643 55.1619C41.1769 55.1237 40.2693 55.1184 39.6431 55.0987C39.6331 55.0987 39.6232 55.0974 39.6145 55.0948C39.4781 55.0698 39.3864 54.9316 39.4099 54.7869L39.7199 53.2961C39.7323 53.229 39.5724 50.1002 39.6369 50.1055L42.748 50.2805L42.2855 53.4067Z" fill="#263238"/>
<path d="M36.1032 53.3123C35.4225 54.4793 35.6531 55.5188 35.0964 55.6227C34.8186 55.674 34.3648 55.7464 34.3834 55.0543C34.392 53.9057 34.4268 54.0057 34.4392 53.0281C34.4491 52.1913 34.4255 51.2281 34.4243 50.565C34.4243 50.5545 34.4243 50.5439 34.4268 50.5347C34.4466 50.3887 34.5731 50.2874 34.7107 50.3084L36.1243 50.59C36.1876 50.6018 39.1921 50.2782 39.1896 50.3466L39.4054 53.7636L36.1032 53.3162V53.3123Z" fill="#263238"/>
<path d="M41.1399 43.5301C41.2292 44.1367 41.0928 46.5839 41.0928 46.5839C40.4653 46.8392 34.3013 46.1471 34.1847 45.7682C34.0682 45.3893 35.1308 42.3223 35.1308 42.3223L41.1386 43.5301H41.1399Z" fill="#407BFF"/>
<path d="M35.7133 39.1015C35.7133 39.1015 35.9576 35.2648 36.2787 34.853C36.5999 34.4411 37.143 33.6793 38.1127 33.8741C39.0824 34.0688 40.2728 34.5306 40.2728 34.5306C40.2728 34.5306 41.7372 36.4897 41.664 36.4963C41.5909 36.5029 37.9391 42.2843 37.9391 42.2843L35.4219 41.2922L35.7133 39.1002V39.1015Z" fill="#407BFF"/>
<path opacity="0.3" d="M35.207 43.3402C35.207 43.3402 36.0167 43.8033 37.3584 44.2165C39.6338 44.9164 41.1826 44.4875 41.1826 44.4875L41.2297 44.1349L35.207 43.3389V43.3402Z" fill="black"/>
<path d="M34.7871 42.4298C34.7165 42.9521 35.0351 43.4442 35.5187 43.5652C37.3688 44.031 41.6667 44.9757 41.8279 43.76C41.9866 42.564 41.968 39.4483 41.994 37.8391C42.0126 36.6695 41.4918 36.2471 41.4918 36.2471L40.8148 35.4511L39.8364 35.3866C39.8364 35.3866 39.1879 33.8985 38.062 33.759C36.9361 33.6196 36.2789 34.8537 36.2789 34.8537C36.2789 34.8537 37.0997 33.6788 37.9566 33.9814C38.8134 34.284 38.6001 35.1945 38.7105 36.2063C38.77 36.7537 37.3986 39.1694 36.7848 38.7286C36.171 38.2878 36.2181 37.8694 36.3359 36.9194C36.4165 36.2734 36.259 35.7169 36.259 35.7169C36.259 35.7169 36.3619 34.9419 35.8907 36.551C35.4865 37.9326 35.1319 40.6061 34.9235 41.6022C34.869 41.864 34.8231 42.1587 34.7859 42.4298H34.7871Z" fill="#407BFF"/>
<path opacity="0.7" d="M34.7871 42.4298C34.7165 42.9521 35.0351 43.4442 35.5187 43.5652C37.3688 44.031 41.6667 44.9757 41.8279 43.76C41.9866 42.564 41.968 39.4483 41.994 37.8391C42.0126 36.6695 41.4918 36.2471 41.4918 36.2471L40.8148 35.4511L39.8364 35.3866C39.8364 35.3866 39.1879 33.8985 38.062 33.759C36.9361 33.6196 36.2789 34.8537 36.2789 34.8537C36.2789 34.8537 37.0997 33.6788 37.9566 33.9814C38.8134 34.284 38.6001 35.1945 38.7105 36.2063C38.77 36.7537 37.3986 39.1694 36.7848 38.7286C36.171 38.2878 36.2181 37.8694 36.3359 36.9194C36.4165 36.2734 36.259 35.7169 36.259 35.7169C36.259 35.7169 36.3619 34.9419 35.8907 36.551C35.4865 37.9326 35.1319 40.6061 34.9235 41.6022C34.869 41.864 34.8231 42.1587 34.7859 42.4298H34.7871Z" fill="black"/>
<path d="M38.062 33.7578C36.9745 33.371 35.9279 34.7999 35.9279 34.7999L35.9961 35.242C38.4563 32.9118 38.6708 34.9552 38.9709 35.9788C39.271 37.0038 38.4079 38.5879 38.4079 38.5879C38.4079 38.5879 33.4417 42.1957 33.4926 42.2036C33.5434 42.2115 33.6265 44.064 33.6265 44.064L34.4573 43.6851L38.4079 40.0734C38.9808 39.5497 39.3665 38.8313 39.4991 38.0419C39.5686 37.6287 39.6417 37.1919 39.6963 36.8748C39.8339 36.067 39.1507 34.1447 38.0632 33.7578H38.062Z" fill="#407BFF"/>
<path opacity="0.3" d="M38.062 33.7578C36.9745 33.371 35.9279 34.7999 35.9279 34.7999L35.9961 35.242C38.4563 32.9118 38.6708 34.9552 38.9709 35.9788C39.271 37.0038 38.4079 38.5879 38.4079 38.5879C38.4079 38.5879 33.4417 42.1957 33.4926 42.2036C33.5434 42.2115 33.6265 44.064 33.6265 44.064L34.4573 43.6851L38.4836 40.0036C39.0081 39.5247 39.3603 38.8682 39.4805 38.1458C39.5549 37.7024 39.6355 37.2182 39.6951 36.8735C39.8327 36.0656 39.1495 34.1433 38.062 33.7565V33.7578Z" fill="black"/>
<path opacity="0.3" d="M35.0255 41.0564L33.9492 41.8511L35.3591 39.0762L35.0255 41.0564Z" fill="black"/>
<path opacity="0.3" d="M34.8129 44.823C34.767 44.8901 38.7387 42.71 38.7387 42.71C38.7387 42.71 35.8012 43.3784 34.8129 44.823Z" fill="black"/>
<path d="M43.7383 41.7734C43.7383 41.7734 43.7383 41.776 43.7383 41.7773C43.7408 41.7836 43.7395 41.7824 43.7383 41.7734Z" fill="#CD7A63"/>
<path d="M34.8878 44.7992C34.8878 44.7992 40.9501 41.2282 42.5163 41.3282C44.0824 41.4282 43.8703 42.394 43.9646 43.3571C44.0402 44.1373 43.4847 48.2082 43.2702 49.7292C43.2243 50.0555 42.9527 50.2911 42.6415 50.2753L39.9581 50.1345C39.6407 50.1174 39.4039 49.8161 39.446 49.4806L39.7982 46.7136C39.7982 46.7136 38.9327 50.6674 35.8215 50.6674C33.5511 50.6674 33.3551 49.3108 33.5709 46.8214C33.7209 45.082 34.8865 44.8005 34.8865 44.8005L34.8878 44.7992Z" fill="#407BFF"/>
<path d="M33.1546 46.8754C32.9326 47.8688 32.9773 48.9122 33.2835 49.8793C33.3021 49.9385 33.3927 49.9135 33.3728 49.853C33.0715 48.9017 33.0256 47.878 33.2439 46.9004C33.2575 46.8386 33.1682 46.8123 33.1546 46.8741V46.8754Z" fill="#407BFF"/>
<path opacity="0.3" d="M40.2148 49.2256C40.2248 49.2611 40.5881 50.2032 40.5881 50.2032C40.5881 50.2032 40.1789 50.0992 40.2248 49.2611" fill="black"/>
<g opacity="0.3">
<path d="M42.4835 49.4072C42.393 49.6677 42.1921 50.0927 42.0234 50.3046C42.171 50.2717 42.3558 50.0309 42.4128 49.8822C42.4723 49.7243 42.5058 49.5756 42.4847 49.4085L42.4835 49.4072Z" fill="black"/>
</g>
<path opacity="0.3" d="M41.3008 50.2244C41.3008 50.2244 41.5562 49.4995 41.5835 48.8311C41.5835 48.8311 41.8303 49.7797 41.3008 50.2244Z" fill="black"/>
<path opacity="0.3" d="M39.8165 46.6082L40.0955 44.9043L39.0117 48.6305C39.2027 48.3423 39.7384 47.1871 39.8165 46.6069V46.6082Z" fill="black"/>
<path d="M36.8246 45.2961L36.4688 43.9027L37.7621 43.208L37.9716 44.9895L36.8246 45.2961Z" fill="#263238"/>
<path d="M35.2383 45.8567L36.1013 48.246C36.1013 48.246 39.1542 47.5395 39.4047 46.9764C39.6552 46.4132 39.3514 44.5238 38.6991 44.5712C38.0469 44.6172 35.5024 45.2159 35.2383 45.8567Z" fill="#407BFF"/>
<path d="M38.5611 47.5068L37.3633 47.9121C37.3633 47.9121 37.5877 48.8594 38.7384 49.0489C38.7384 49.0489 39.1328 48.5305 39.325 48.1594C39.325 48.1594 38.7843 48.0016 38.5599 47.5068H38.5611Z" fill="#263238"/>
<path opacity="0.3" d="M35.2383 45.8567L36.1013 48.246C36.1013 48.246 39.1542 47.5395 39.4047 46.9764C39.6552 46.4132 39.3514 44.5238 38.6991 44.5712C38.0469 44.6172 35.5024 45.2159 35.2383 45.8567Z" fill="black"/>
<path opacity="0.3" d="M36.2739 48.1588C36.2739 48.1588 37.4557 47.0234 37.3788 46.7878C37.3019 46.555 35.4258 45.8076 35.4258 45.8076C35.4258 45.8076 37.5177 46.3839 37.5437 46.7602C37.5697 47.1365 36.4451 48.072 36.2739 48.1588Z" fill="black"/>
<path opacity="0.3" d="M36.939 46.8031C36.9787 46.7873 37.0221 46.8084 37.0382 46.8492C37.0531 46.8913 37.0332 46.9373 36.9948 46.9544C36.9551 46.9702 36.9117 46.9492 36.8956 46.9084C36.8807 46.8663 36.9005 46.8202 36.939 46.8031Z" fill="black"/>
<path d="M43.6199 47.1385H39.7461L39.8403 46.4688H43.7029L43.6199 47.1385Z" fill="#263238"/>
<path d="M36.3029 35.3541C36.3029 35.3541 33.2538 39.9526 34.9117 40.7315C36.7642 41.6026 40.5809 41.4578 40.5809 41.4578L41.0831 39.2026L38.8053 38.75L37.5987 38.4829L38.3737 37.1619C38.3737 37.1619 39.8369 34.9357 38.5498 34.2476C37.2367 33.5463 36.3029 35.3541 36.3029 35.3541Z" fill="#407BFF"/>
<path d="M48.5098 47.606L48.6872 47.4073L45.2933 41.8022L46.1228 41.0444L45.9604 40.8536L45.6628 41.0246L44.5741 39.7115L44.1004 40.051L43.5002 39.2787L43.6577 38.9774L43.5201 38.7655L43.2944 38.9616L38.9333 33.1131C38.8205 32.9618 38.6159 32.9315 38.4683 33.046L36.834 34.3117C36.6282 34.4709 36.6567 34.8065 36.8848 34.9249L40.4213 36.7511L42.1003 39.0892L41.9899 39.4194C41.9899 39.4194 42.1958 39.7379 42.7674 40.6115C43.339 41.4865 42.9187 41.6983 42.9187 41.6983L43.3204 42.2404C43.282 42.2483 43.1468 42.3272 42.7091 42.693C42.0073 43.2798 40.7226 44.664 40.7226 44.664L42.0284 45.8534C42.5826 44.6942 43.8326 44.0548 43.8326 44.0548L43.9367 44.1877L44.8084 43.6088L45.2685 44.2469L45.2338 44.5285L47.7113 48.1625L48.0597 47.9468L50.7741 52.3387L51.1932 52.1769L48.5098 47.6073V47.606ZM37.8037 34.592L38.472 34.0328C38.5241 33.9894 38.5998 33.9986 38.6407 34.0539L39.7951 35.592C39.7951 35.592 38.3766 35.0222 37.8359 34.813C37.7466 34.7788 37.728 34.6538 37.8024 34.592H37.8037Z" fill="#263238"/>
<path opacity="0.8" d="M42.693 42.7072C41.9875 43.3019 40.7227 44.6637 40.7227 44.6637L42.0284 45.8531C42.5827 44.6939 43.8326 44.0545 43.8326 44.0545C43.4618 43.5729 43.132 43.1506 42.7327 42.6953L42.693 42.7072Z" fill="black"/>
<path opacity="0.8" d="M48.5092 47.6062L48.6865 47.4075L46.4285 43.6787L45.2393 44.4826L45.2344 44.526L47.7119 48.1601L48.0603 47.9443L48.0678 47.9575C48.2178 47.843 48.379 47.718 48.5154 47.6141L48.5105 47.6049L48.5092 47.6062Z" fill="black"/>
<path opacity="0.8" d="M46.1201 41.0457L45.9577 40.855L45.6601 41.026L44.5713 39.7129L44.0977 40.0524L45.2905 41.8036L46.1201 41.0457Z" fill="black"/>
<path d="M41.0039 44.8131C41.5458 44.125 42.2823 43.4829 42.9941 43" stroke="#263238" stroke-miterlimit="10"/>
<path d="M41.6172 45.3525C42.1467 44.6578 42.7915 44.063 43.5131 43.6025" stroke="#263238" stroke-miterlimit="10"/>
<path opacity="0.3" d="M44.8113 43.6086L43.1039 41.3652L43.0977 41.5126L44.67 43.7033L44.8113 43.6086Z" fill="black"/>
<path d="M46.5078 44.3887C46.6045 44.6018 46.7186 44.8058 46.8476 44.9992" stroke="#263238" stroke-miterlimit="10"/>
<path d="M47.1133 45.3506C47.21 45.5637 47.3241 45.7677 47.453 45.9611" stroke="#263238" stroke-miterlimit="10"/>
<path d="M47.7148 46.3125C47.8116 46.5256 47.9256 46.7296 48.0546 46.923" stroke="#263238" stroke-miterlimit="10"/>
<path d="M41.0055 39.5615C41.0638 39.572 41.5883 39.7405 41.5883 39.7405L42.1637 39.5615C42.1637 39.5615 42.5828 39.8102 42.6113 39.8826C42.6411 39.9549 42.687 40.2931 42.687 40.2931C42.687 40.2931 43.3032 41.247 43.3231 41.4233C43.3429 41.5996 43.5277 42.2706 43.3231 42.3233C43.1185 42.3746 42.9238 42.2101 42.9238 42.2101L42.8754 41.8378C42.8754 41.8378 42.8556 42.0864 42.739 42.1272C42.6225 42.168 42.5245 42.0549 42.5245 42.0549C42.5245 42.0549 42.5828 42.2917 42.398 42.3338C42.2133 42.3759 42.0471 42.2825 42.0471 42.2825C42.0471 42.2825 42.0471 42.4377 41.8524 42.3956C41.6578 42.3548 41.2672 41.0167 41.044 40.9825C40.8195 40.9483 40.6658 41.0917 40.6658 41.0917C40.636 41.0575 41.0068 39.5628 41.0068 39.5628L41.0055 39.5615Z" fill="#EFB9AF"/>
<path opacity="0.3" d="M37.6005 38.4826C37.6005 38.4826 36.8553 38.5984 36.5391 39.0523C36.5391 39.0523 36.6978 38.347 37.7009 38.3115L37.6005 38.4839V38.4826Z" fill="black"/>
<path d="M24.7872 26.1756C24.7872 26.1756 25.1927 26.044 25.6056 26.1243C26.0185 26.2032 26.2777 26.3506 26.4525 26.3374C26.6274 26.3243 26.8084 26.4072 26.6348 26.5927C26.46 26.7795 26.4327 26.919 26.15 26.9243C26.15 26.9243 26.3521 26.9795 26.362 27.469C26.3719 27.9584 25.9193 28.2558 25.9193 28.2558C25.9193 28.2558 25.8722 28.5953 25.5672 28.5808C25.5672 28.5808 25.3923 28.7676 25.1629 28.736C24.9335 28.7045 24.2776 28.3453 24.0903 27.9611C23.9031 27.5769 24.037 27.7098 23.7803 27.5861C23.5237 27.4624 23.0859 27.1769 23.0859 27.1769L23.6315 25.5967L24.7438 26.1559" fill="#CD7A63"/>
<path d="M23.4164 27.4899L24.3018 25.9347L24.0649 25.7123L22.7146 23.7295C22.7146 23.7295 20.9835 25.7044 20.9922 25.7294C20.9997 25.7544 23.1337 27.3241 23.1337 27.3241L23.4164 27.4899Z" fill="#407BFF"/>
<path opacity="0.4" d="M23.4164 27.4899L24.3018 25.9347L24.0649 25.7123L22.7146 23.7295C22.7146 23.7295 20.9835 25.7044 20.9922 25.7294C20.9997 25.7544 23.1337 27.3241 23.1337 27.3241L23.4164 27.4899Z" fill="black"/>
<path d="M25.6691 27.0342L24.5469 27.8026L24.8271 28.296L26.0324 27.5842L25.6691 27.0342Z" fill="#263238"/>
<path opacity="0.5" d="M25.6691 27.0342L24.5469 27.8026L24.8271 28.296L26.0324 27.5842L25.6691 27.0342Z" fill="black"/>
<path d="M25.079 28.4067C25.0009 28.3251 24.9191 28.2369 24.8955 28.1225C24.872 28.0093 24.9352 27.8672 25.0443 27.8593C25.1262 27.8527 25.1956 27.9199 25.2464 27.987C25.2985 28.0541 25.3481 28.1317 25.425 28.1606C25.27 28.0659 25.1497 27.9106 25.0927 27.7317C25.058 27.6238 25.0555 27.4843 25.1423 27.4172C25.2142 27.362 25.3196 27.383 25.3903 27.4409C25.461 27.4988 25.5068 27.583 25.554 27.6633C25.6011 27.7435 25.699 27.8935 25.699 27.8935C25.5775 27.7528 25.554 27.5278 25.5763 27.3396C25.5837 27.2725 25.611 27.1962 25.6718 27.1778C25.7424 27.1567 25.8082 27.2238 25.8528 27.287C25.9619 27.4396 26.0636 27.5988 26.1554 27.7633" fill="#CD7A63"/>
<path d="M18.122 15.6353C18.122 15.6353 18.3713 14.7551 18.1009 13.113C18.1009 13.1117 18.184 13.0828 18.184 13.0815C18.1468 12.8525 18.1047 12.6394 18.0625 12.4538C18.0625 12.4486 18.0625 12.4473 18.0625 12.4473L19.9746 14.0301C19.8741 14.5327 19.9448 15.5366 20.0043 15.9629C20.0043 15.9629 20.1854 16.7445 19.2393 16.6682C18.5486 16.6116 18.1233 15.6353 18.1233 15.6353H18.122Z" fill="#CD7A63"/>
<path opacity="0.2" d="M19.9359 14.7498L18.7852 14.3301C18.8521 14.7314 19.1286 15.2314 19.947 15.3642C19.947 15.3642 19.9098 14.9195 19.9371 14.7498H19.9359Z" fill="black"/>
<path d="M21.7786 10.436C21.9684 10.9676 21.9398 12.0846 21.207 11.7662C20.4754 11.4478 21.4525 9.52287 21.7786 10.436Z" fill="#263238"/>
<path d="M18.1536 11.3882C18.1499 12.7842 18.1202 13.571 18.7402 14.3236C19.6726 15.4551 21.2921 14.9433 21.6901 13.5736C22.0485 12.3408 21.9952 10.2658 20.7428 9.63691C19.509 9.01851 18.1574 9.99348 18.1524 11.3895L18.1536 11.3882Z" fill="#CD7A63"/>
<path d="M18.0417 9.73722C18.2686 8.9833 20.1274 9.06751 20.6085 9.49381C20.6804 9.55696 19.5744 10.0556 19.6401 10.0346L19.1242 10.1846C19.0474 10.1609 18.8886 10.2464 18.7944 10.4977C18.7944 10.4977 18.8973 11.9832 18.291 12.5608C17.7392 12.2437 17.5978 11.9858 17.485 11.4727C17.3163 10.7082 17.7206 10.1412 18.0417 9.73722Z" fill="#263238"/>
<path d="M20.0047 11.9188C19.996 12.0609 20.0605 12.1806 20.1485 12.1859C20.2366 12.1911 20.3147 12.0793 20.3234 11.9372C20.332 11.7951 20.2676 11.6754 20.1795 11.6701C20.0915 11.6648 20.0134 11.7767 20.0047 11.9188Z" fill="#263238"/>
<path d="M21.3172 12.0369C21.3085 12.179 21.373 12.2988 21.461 12.304C21.5491 12.3093 21.6272 12.1975 21.6359 12.0554C21.6446 11.9133 21.5801 11.7935 21.492 11.7883C21.404 11.783 21.3259 11.8948 21.3172 12.0369Z" fill="#263238"/>
<path d="M20.8965 11.9277C20.8965 11.9277 21.2771 12.6632 21.3962 12.9606C21.199 13.1264 20.8828 13.0224 20.8828 13.0224L20.8965 11.9277Z" fill="#AD6359"/>
<path d="M19.8052 11.4806C19.8238 11.4937 19.8474 11.4963 19.8685 11.4845C20.1214 11.3529 20.3223 11.4753 20.3248 11.4766C20.3546 11.495 20.393 11.4845 20.4116 11.4529C20.429 11.4213 20.419 11.3806 20.3893 11.3621C20.3794 11.3556 20.1264 11.2029 19.8127 11.3661C19.7817 11.3819 19.768 11.4227 19.7842 11.4556C19.7891 11.4661 19.7966 11.4753 19.8052 11.4806Z" fill="#263238"/>
<path d="M20.182 15.1606L19.4268 15.008C19.2619 14.9751 19.154 14.8054 19.185 14.6304C19.216 14.4554 19.376 14.3409 19.5409 14.3738L20.296 14.5264C20.461 14.5593 20.5688 14.729 20.5378 14.904C20.5068 15.079 20.3469 15.1935 20.182 15.1606Z" fill="#263238"/>
<path d="M21.9229 11.5529C21.9328 11.5463 21.9427 11.5371 21.9489 11.5253C21.965 11.4924 21.9539 11.4516 21.9241 11.4345C21.6203 11.2582 21.3661 11.4042 21.3537 11.4082C21.3227 11.4253 21.3115 11.4661 21.3277 11.499C21.3438 11.5319 21.381 11.5437 21.412 11.5266C21.4219 11.52 21.6191 11.4108 21.8633 11.5516C21.8819 11.5621 21.9043 11.5621 21.9229 11.5516V11.5529Z" fill="#263238"/>
<path d="M17.5686 12.512C17.6517 12.8764 17.8861 13.1659 18.1378 13.3211C18.516 13.554 18.8185 13.2212 18.8086 12.7817C18.7987 12.3857 18.5916 11.787 18.1663 11.733C17.7472 11.6804 17.4744 12.0949 17.5699 12.512H17.5686Z" fill="#CD7A63"/>
<path opacity="0.2" d="M17.8906 12.1476C17.9489 12.0686 18.058 12.0449 18.1485 12.0752C18.2391 12.1055 18.311 12.1805 18.3618 12.2647C18.4226 12.366 18.4585 12.4844 18.4647 12.6054" stroke="black" stroke-width="0.5" stroke-linecap="round" stroke-linejoin="round"/>
<path d="M18.8848 11.167C18.8848 11.167 18.9443 14.1616 19.0832 14.3037C19.661 14.8945 20.1954 14.93 20.1954 14.93C20.1954 14.93 20.1434 15.009 19.8234 14.9366C19.5048 14.8642 19.139 14.7669 18.9616 14.5484C18.7831 14.33 18.6963 13.0551 18.6169 12.7314C18.5376 12.4077 18.4297 11.167 18.4297 11.167H18.8848Z" fill="#263238"/>
<path d="M18.8584 14.0594L18.164 13.5568L18.1367 13.3213L18.7828 13.7568L18.8584 14.0594Z" fill="#263238"/>
<path d="M19.916 13.4016C20.0822 13.4398 20.2397 13.5043 20.3934 13.5766C20.417 13.5872 20.443 13.5832 20.4567 13.5595C20.4678 13.5385 20.4629 13.503 20.4406 13.4924C20.2781 13.4161 20.1144 13.3464 19.9408 13.3069C19.8826 13.2938 19.8578 13.3885 19.916 13.4016Z" fill="#263238"/>
<path d="M17.1678 11.7283C17.1678 11.7283 19.1629 11.3757 20.2876 11.3073C21.4135 11.2389 22.3609 11.3757 22.4105 11.2389C22.5159 10.9507 22.2952 10.9126 22.2952 10.9126C22.2952 10.9126 22.1674 8.34818 19.6986 8.4837C17.231 8.61923 17.2409 11.2625 17.2409 11.2625C17.2409 11.2625 17.0128 11.431 17.1665 11.727L17.1678 11.7283Z" fill="#407BFF"/>
<path opacity="0.3" d="M17.1678 11.7283C17.1678 11.7283 19.1629 11.3757 20.2876 11.3073C21.4135 11.2389 22.3609 11.3757 22.4105 11.2389C22.5159 10.9507 22.2952 10.9126 22.2952 10.9126C22.2952 10.9126 22.1674 8.34818 19.6986 8.4837C17.231 8.61923 17.2409 11.2625 17.2409 11.2625C17.2409 11.2625 17.0128 11.431 17.1665 11.727L17.1678 11.7283Z" fill="black"/>
<path opacity="0.3" d="M17.2422 11.2634C17.2422 11.2634 19.8015 10.7424 22.2952 10.9134C22.2952 10.9134 19.0377 10.4556 17.2422 11.2634Z" fill="black"/>
<path d="M11.343 20.8781C10.971 21.2215 10.7577 21.7334 10.6461 22.2518C10.4452 23.1807 10.532 24.1517 10.6188 25.1017C10.651 25.4569 10.6932 25.8372 10.9052 26.1082C11.2165 26.5069 12.3226 26.4727 12.7714 26.2845L12.9512 20.7992C12.5148 20.5597 11.7137 20.5334 11.3417 20.8781H11.343Z" fill="#407BFF"/>
<g opacity="0.3">
<path d="M11.343 20.8781C10.971 21.2215 10.7577 21.7334 10.6461 22.2518C10.4452 23.1807 10.532 24.1517 10.6188 25.1017C10.651 25.4569 10.6932 25.8372 10.9052 26.1082C11.2165 26.5069 12.3226 26.4727 12.7714 26.2845L12.9512 20.7992C12.5148 20.5597 11.7137 20.5334 11.3417 20.8781H11.343Z" fill="black"/>
</g>
<path opacity="0.3" d="M12.4509 20.6412C12.4434 20.6412 12.4261 26.3278 12.4261 26.3278C12.4261 26.3278 11.914 26.3396 12.0739 21.7622C12.1086 20.782 12.1892 20.6201 12.1892 20.6201C12.3343 20.6201 12.3504 20.6227 12.4496 20.6412H12.4509Z" fill="black"/>
<path d="M12.4709 16.7027C12.1956 16.8435 11.9898 17.1119 11.8435 17.4013C11.5806 17.921 11.4826 18.5158 11.3884 19.0973C11.3537 19.3157 11.3202 19.5486 11.4045 19.7486C11.5285 20.0407 12.1944 20.2131 12.492 20.1775L13.4455 16.9342C13.2223 16.7158 12.7474 16.5606 12.4721 16.7013L12.4709 16.7027Z" fill="#407BFF"/>
<g opacity="0.3">
<path d="M12.4709 16.7027C12.1956 16.8435 11.9898 17.1119 11.8435 17.4013C11.5806 17.921 11.4826 18.5158 11.3884 19.0973C11.3537 19.3157 11.3202 19.5486 11.4045 19.7486C11.5285 20.0407 12.1944 20.2131 12.492 20.1775L13.4455 16.9342C13.2223 16.7158 12.7474 16.5606 12.4721 16.7013L12.4709 16.7027Z" fill="black"/>
</g>
<path opacity="0.3" d="M12.4241 20.1819L13.1706 16.7518L12.9536 16.6768C12.3398 17.753 12.1674 18.9227 12.2629 20.1819H12.4253H12.4241Z" fill="black"/>
<path d="M16.8945 24.6743C16.7866 22.0876 16.68 19.4995 16.5721 16.9128C16.5659 16.7786 16.5411 16.6457 16.4952 16.5233C16.37 16.1825 16.1108 15.9391 15.8045 15.8733C15.4772 15.8036 15.1473 15.7641 14.8175 15.7904C14.3178 15.8286 13.8143 16.0233 13.425 16.4325C13.0058 16.8707 12.7467 17.5246 12.609 18.2009C12.4714 18.8772 12.4454 19.5811 12.4193 20.2797C12.3722 21.5626 12.3251 22.8441 12.2792 24.127C12.2507 24.9203 12.2259 25.7479 12.4726 26.4742C12.8508 27.5887 13.7982 28.2163 14.727 28.3742C15.1808 28.4505 15.6656 28.4281 16.0587 28.1242C16.4791 27.8005 16.7345 27.1953 16.8412 26.5755C16.9478 25.9558 16.9218 25.3111 16.8945 24.6769V24.6743Z" fill="#407BFF"/>
<g opacity="0.3">
<path d="M16.8945 24.6743C16.7866 22.0876 16.68 19.4995 16.5721 16.9128C16.5659 16.7786 16.5411 16.6457 16.4952 16.5233C16.37 16.1825 16.1108 15.9391 15.8045 15.8733C15.4772 15.8036 15.1473 15.7641 14.8175 15.7904C14.3178 15.8286 13.8143 16.0233 13.425 16.4325C13.0058 16.8707 12.7467 17.5246 12.609 18.2009C12.4714 18.8772 12.4454 19.5811 12.4193 20.2797C12.3722 21.5626 12.3251 22.8441 12.2792 24.127C12.2507 24.9203 12.2259 25.7479 12.4726 26.4742C12.8508 27.5887 13.7982 28.2163 14.727 28.3742C15.1808 28.4505 15.6656 28.4281 16.0587 28.1242C16.4791 27.8005 16.7345 27.1953 16.8412 26.5755C16.9478 25.9558 16.9218 25.3111 16.8945 24.6769V24.6743Z" fill="black"/>
</g>
<path opacity="0.3" d="M15.444 23.3524L14.4297 24.3511L15.5159 21.2314L15.444 23.3524Z" fill="black"/>
<g opacity="0.3">
<path d="M13.9141 23.2793C13.9141 21.9938 13.9587 20.711 14.0009 19.4268C14.0926 18.2216 13.919 16.6374 14.9383 15.8164C14.0095 16.6874 14.2079 18.2413 14.1249 19.4321C14.0691 20.7149 14.0133 21.9978 13.9141 23.2793Z" fill="black"/>
</g>
<path d="M15.893 21.2017C15.893 21.2017 15.6152 17.1558 15.893 16.6756C16.1707 16.1953 16.6333 15.3151 17.6736 15.3664C18.714 15.4177 20.0222 15.7138 20.0222 15.7138C20.0222 15.7138 22.2443 18.0334 22.1686 18.0518C22.093 18.0703 18.6607 24.1792 18.6607 24.1792L15.893 23.5358V21.2004V21.2017Z" fill="#407BFF"/>
<path d="M22.1758 24.9792C22.3531 25.599 22.5503 28.1778 22.5503 28.1778C21.9303 28.5423 15.5567 28.2344 15.3831 27.8568C15.2095 27.4791 15.7303 24.6582 15.7303 24.6582L22.1746 24.9806L22.1758 24.9792Z" fill="#407BFF"/>
<path opacity="0.3" d="M15.9505 25.7095C15.9505 25.7095 16.8606 26.0674 18.3201 26.2884C20.7951 26.6647 22.3526 25.9726 22.3526 25.9726V25.5977L15.9492 25.7082L15.9505 25.7095Z" fill="black"/>
<path d="M15.3828 24.8244C15.3828 25.381 15.7821 25.8454 16.3054 25.8968C18.303 26.0941 22.9245 26.4099 22.9245 25.1139C22.9245 23.8179 22.4719 20.5877 22.276 18.9023C22.1334 17.6773 21.5307 17.3168 21.5307 17.3168L20.7123 16.5905L19.6819 16.676C19.6819 16.676 18.7965 15.2222 17.6012 15.2524C16.4058 15.2827 15.8912 16.676 15.8912 16.676C15.8912 16.676 16.5856 15.3208 17.5231 15.5024C18.4605 15.684 18.9677 16.676 19.2231 17.7155C19.3607 18.2773 17.6607 21.0088 16.9576 20.6456C16.2545 20.2812 16.2459 19.8365 16.2372 18.8247C16.231 18.1378 15.9904 17.58 15.9904 17.58C15.9904 17.58 15.9904 16.755 15.7213 18.5102C15.4907 20.0167 15.4919 22.8653 15.4126 23.9389C15.3915 24.2218 15.3841 24.5363 15.3841 24.8244H15.3828Z" fill="#263238"/>
<path d="M17.6014 15.2522C16.411 15.018 15.5158 16.6758 15.5158 16.6758L15.6484 17.1271C17.8953 14.3075 18.4025 16.4087 18.8588 17.4323C19.3139 18.456 18.6331 20.2454 18.6331 20.2454C18.6331 20.2454 13.9459 24.7913 14.0005 24.7913C14.055 24.7913 14.3998 26.7136 14.3998 26.7136L15.2157 26.1873L18.8414 21.7966C19.3672 21.1598 19.6698 20.3493 19.6983 19.5033C19.7132 19.0612 19.7293 18.5928 19.7417 18.2534C19.7739 17.3876 18.7931 15.4864 17.6027 15.2522H17.6014Z" fill="#407BFF"/>
<path opacity="0.3" d="M17.6014 15.2522C16.411 15.018 15.5158 16.6758 15.5158 16.6758L15.6484 17.1271C17.8953 14.3075 18.4025 16.4087 18.8588 17.4323C19.3139 18.456 18.6331 20.2454 18.6331 20.2454C18.6331 20.2454 13.9459 24.7913 14.0005 24.7913C14.055 24.7913 14.3998 26.7136 14.3998 26.7136L15.2157 26.1873L18.9109 21.7124C19.392 21.1296 19.6685 20.3901 19.6946 19.6152C19.7107 19.1415 19.728 18.6218 19.7417 18.2534C19.7739 17.3876 18.7931 15.4864 17.6027 15.2522H17.6014Z" fill="black"/>
<path d="M23.5839 23.7939L23.4661 23.7979C23.4661 23.7979 22.6477 24.3926 22.3972 25.2031C22.365 25.3084 22.3873 25.4255 22.4592 25.507L23.3173 26.4728C23.4041 26.5702 23.5566 26.5175 23.5752 26.386C23.6162 26.0925 23.7253 25.6662 24.0068 25.3281C24.3478 24.9189 24.5511 24.8939 24.5511 24.8939L23.5839 23.7953V23.7939Z" fill="#263238"/>
<path opacity="0.5" d="M23.5839 23.7939L23.4661 23.7979C23.4661 23.7979 22.6477 24.3926 22.3972 25.2031C22.365 25.3084 22.3873 25.4255 22.4592 25.507L23.3173 26.4728C23.4041 26.5702 23.5566 26.5175 23.5752 26.386C23.6162 26.0925 23.7253 25.6662 24.0068 25.3281C24.3478 24.9189 24.5511 24.8939 24.5511 24.8939L23.5839 23.7953V23.7939Z" fill="black"/>
<path d="M27.3423 28.5949L27.7527 28.066L25.4029 24.1741L25.1525 24.2056L24.2646 22.3478L24.5473 21.1768L24.3551 20.8715L24.0154 21.0965L23.285 19.9426L22.7469 19.8032L19.2972 13.7192C19.2972 13.7192 18.5457 13.5205 18.392 14.5652C18.2382 15.6099 18.3213 16.6441 18.5234 16.8941C18.7255 17.1441 20.7939 18.0032 20.7939 18.0032L22.0029 20.1058L23.5429 22.8438C23.5429 22.8438 23.2937 23.7359 23.5169 24.0372C23.7401 24.3385 24.5337 25.3109 24.5337 25.3109L29.1812 32.3514L29.5483 32.0974L27.3435 28.5976L27.3423 28.5949ZM19.3493 16.3283C19.3493 16.3283 19.4261 15.4902 19.4522 15.4323L20.0846 16.5625L19.3493 16.3283Z" fill="#263238"/>
<path opacity="0.3" d="M27.3423 28.5949L27.7527 28.066L25.4029 24.1741L25.1525 24.2056L24.2646 22.3478L24.5473 21.1768L24.3551 20.8715L24.0154 21.0965L23.285 19.9426L22.7469 19.8032L19.2972 13.7192C19.2972 13.7192 18.5457 13.5205 18.392 14.5652C18.2382 15.6099 18.3213 16.6441 18.5234 16.8941C18.7255 17.1441 20.7939 18.0032 20.7939 18.0032L22.0029 20.1058L23.5429 22.8438C23.5429 22.8438 23.2937 23.7359 23.5169 24.0372C23.7401 24.3385 24.5337 25.3109 24.5337 25.3109L29.1812 32.3514L29.5483 32.0974L27.3435 28.5976L27.3423 28.5949ZM19.3493 16.3283C19.3493 16.3283 19.4261 15.4902 19.4522 15.4323L20.0846 16.5625L19.3493 16.3283Z" fill="black"/>
<path opacity="0.3" d="M22.7461 19.8018L24.2267 22.3556L24.5478 21.1754L24.3544 20.8701L24.0159 21.0951L23.2855 19.9412L22.7461 19.8018Z" fill="black"/>
<path opacity="0.3" d="M23.5447 22.8402L24.8331 24.8954L24.5355 25.3072C24.5355 25.3072 23.5051 24.0349 23.4815 23.9665C23.4579 23.898 23.3786 23.6796 23.453 23.2954C23.5274 22.9112 23.546 22.8389 23.546 22.8389L23.5447 22.8402Z" fill="black"/>
<path opacity="0.4" d="M25.4017 24.1738L24.5312 25.308L26.9356 28.95L27.3411 28.5947L27.7515 28.0658L25.4017 24.1738Z" fill="black"/>
<path d="M28.5664 31.4197L28.6061 31.7724L29.2496 32.6342L29.799 32.2223L29.2546 31.3618L28.9545 31.1553L28.5664 31.4197Z" fill="#263238"/>
<path opacity="0.4" d="M28.5664 31.4197L28.6061 31.7724L29.2496 32.6342L29.799 32.2223L29.2546 31.3618L28.9545 31.1553L28.5664 31.4197Z" fill="black"/>
<path d="M26.5911 37.1904C26.4523 36.7812 26.3146 36.3707 26.1757 35.9615C26.0914 35.7115 26.0009 35.4523 25.8161 35.2734C25.6326 35.0944 25.3239 35.0273 25.1341 35.1997L24.6406 35.4155C24.9308 36.1523 25.2209 36.8891 25.5111 37.6272C25.5929 37.8364 25.6797 38.0522 25.831 38.2127C25.9823 38.3732 26.2167 38.468 26.4151 38.3838C26.611 38.3009 26.7189 38.0667 26.7263 37.843C26.7337 37.6193 26.6618 37.4022 26.5911 37.1917V37.1904Z" fill="#263238"/>
<path d="M25.9759 53.9495C27.041 54.6034 27.9648 54.3415 28.0727 54.8994C28.126 55.1784 28.2041 55.6336 27.5829 55.6336C26.5537 55.656 26.643 55.6178 25.7663 55.6336C25.0173 55.6468 24.1555 55.6968 23.5603 55.7178C23.5517 55.7178 23.5417 55.7178 23.5331 55.7165C23.4016 55.7007 23.3074 55.5757 23.3223 55.4362L23.5343 54.0021C23.543 53.9376 23.2193 50.9785 23.2813 50.9785H26.2412L25.9759 53.9481V53.9495Z" fill="#263238"/>
<path d="M19.8672 34.8197C20.0259 34.9671 22.398 39.9024 22.398 39.9024C22.398 39.9024 22.4526 41.6313 22.4278 43.1602C22.4117 44.1259 22.6956 48.7337 22.8209 50.4481C22.8444 50.7691 22.9734 51.1178 23.2759 51.1178L26.1565 51.1244C26.4578 51.1244 26.6624 50.7757 26.6624 50.4546C26.6698 48.3508 26.5557 41.7826 26.5223 40.1064C26.4826 38.1367 24.4589 33.75 23.8401 32.2698C23.2437 30.8422 22.0781 27.7266 22.0781 27.7266L19.8684 34.8223L19.8672 34.8197Z" fill="#407BFF"/>
<path opacity="0.3" d="M20.6914 36.4042L21.397 37.8384L21.428 31.207L20.6914 36.4042Z" fill="black"/>
<path opacity="0.3" d="M23.5234 50.1787C23.5346 50.2142 23.9364 51.1379 23.9364 51.1379C23.9364 51.1379 23.5234 51.0524 23.5346 50.2142" fill="black"/>
<g opacity="0.3">
<path d="M25.7978 50.2552C25.7185 50.5197 25.535 50.9526 25.375 51.1723C25.5213 51.1315 25.6962 50.8828 25.7458 50.7315C25.7991 50.571 25.8264 50.421 25.7978 50.2539V50.2552Z" fill="black"/>
</g>
<path opacity="0.3" d="M24.6484 51.1259C24.6484 51.1259 24.8741 50.3891 24.8741 49.7207C24.8741 49.7207 25.1593 50.6575 24.6484 51.1259Z" fill="black"/>
<path d="M21.1145 37.4351C21.2174 37.4535 24.9213 34.8154 24.9213 34.8154C25.0676 34.922 25.7893 36.7785 25.6517 36.6877C25.6393 36.6798 22.016 39.1153 22.016 39.1153L21.1133 37.4338L21.1145 37.4351Z" fill="#263238"/>
<path d="M24.3768 38.5259C24.1436 38.1167 23.9093 37.7075 23.6762 37.2996C23.5633 37.1009 23.4356 36.8891 23.231 36.8062C22.9979 36.7102 22.7375 36.8115 22.5056 36.9115L21.8633 38.0325C22.1175 38.2838 22.2762 38.6232 22.4709 38.9272C22.6668 39.2324 22.9297 39.5232 23.2719 39.5877C23.5323 39.6364 23.7964 39.5469 24.0469 39.4574C24.2379 39.3903 24.4512 39.2982 24.5169 39.0969C24.5789 38.9048 24.476 38.6996 24.3768 38.5259Z" fill="#263238"/>
<path d="M22.4648 44.4499L22.5603 44.4473L26.5965 44.3525L26.6114 45.2657L22.4648 45.3854" fill="#263238"/>
<path d="M22.1685 28.1584C22.1685 28.1584 15.6672 27.0742 15.7193 27.0742C15.7714 27.0742 15.2543 27.9623 15.0993 29.7241C15.0993 29.7241 15.2915 32.1503 15.4911 33.4713C15.7441 35.141 15.6685 41.0645 15.6685 41.0645C15.6685 41.0645 14.8203 46.759 15.0993 50.1707C15.1167 50.3786 15.4539 51.1628 15.6499 51.1628H18.5614C18.7585 51.1628 18.9867 50.151 19.0028 49.9418C19.1045 48.5971 19.3934 44.8406 19.5125 44.0854C19.6898 42.9565 19.9936 41.6473 20.2007 40.2C20.4077 38.7527 20.9347 34.316 20.9347 34.316C20.9347 34.316 21.6825 32.3345 21.6564 31.7688C21.6304 31.203 22.1685 28.1584 22.1685 28.1584Z" fill="#407BFF"/>
<path opacity="0.4" d="M15.4416 27.856C15.5731 27.8165 22.274 28.2573 22.274 28.2573L22.434 28.6823C19.9466 28.8705 17.5658 28.7783 15.3164 28.3428L15.4404 27.8573L15.4416 27.856Z" fill="black"/>
<g opacity="0.3">
<path d="M18.6987 29.752C18.6132 30.2927 18.38 30.7993 18.044 31.1703C17.708 31.5427 17.2702 31.7782 16.8164 31.8321C16.8164 31.8321 17.6559 32.1334 18.3949 31.4098C19.134 30.6861 18.6987 29.752 18.6987 29.752Z" fill="black"/>
</g>
<path d="M18.2962 54.1311C19.3613 54.785 20.2851 54.5232 20.393 55.0811C20.4463 55.36 20.5244 55.8152 19.9032 55.8152C18.874 55.8376 18.9633 55.7995 18.0866 55.8152C17.3376 55.8284 16.4758 55.8784 15.8806 55.8995C15.872 55.8995 15.862 55.8995 15.8534 55.8981C15.7219 55.8823 15.6277 55.7574 15.6426 55.6179L15.8546 54.1837C15.8633 54.1193 15.5396 51.1602 15.6016 51.1602H18.5615L18.2962 54.1298V54.1311Z" fill="#263238"/>
<path opacity="0.3" d="M15.9805 50.2021C15.9916 50.2377 16.3934 51.1613 16.3934 51.1613C16.3934 51.1613 15.9805 51.0758 15.9916 50.2377" fill="black"/>
<g opacity="0.3">
<path d="M18.2549 50.2787C18.1755 50.5431 17.992 50.976 17.832 51.1957C17.9784 51.1549 18.1532 50.9063 18.2028 50.755C18.2561 50.5944 18.2834 50.4444 18.2549 50.2773V50.2787Z" fill="black"/>
</g>
<path opacity="0.3" d="M17.1055 51.1493C17.1055 51.1493 17.3311 50.4125 17.3311 49.7441C17.3311 49.7441 17.6163 50.6809 17.1055 51.1493Z" fill="black"/>
<path d="M18.1457 37.1201L20.5377 37.4675L20.3107 39.2766L17.9609 38.7516L18.1457 37.1201Z" fill="#263238"/>
<path d="M18.244 34.79H15.082C15.082 34.79 14.4657 39.0872 14.9976 39.6767C15.5296 40.2661 17.8521 40.7569 18.1038 39.8885C18.3556 39.0201 18.859 35.4321 18.244 34.79Z" fill="#407BFF"/>
<path opacity="0.3" d="M18.244 34.79H15.082C15.082 34.79 14.4657 39.0872 14.9976 39.6767C15.5296 40.2661 17.8521 40.7569 18.1038 39.8885C18.3556 39.0201 18.859 35.4321 18.244 34.79Z" fill="black"/>
<path opacity="0.3" d="M15.1016 35.0547C15.1016 35.0547 15.858 37.123 16.1655 37.1322C16.4693 37.1414 18.2127 35.0547 18.2127 35.0547C18.2127 35.0547 16.5672 37.502 16.1208 37.3599C15.6732 37.2178 15.1226 35.3178 15.1016 35.0547Z" fill="black"/>
<path opacity="0.3" d="M16.3532 36.5568C16.3532 36.616 16.3086 36.6633 16.2528 36.6633C16.197 36.6633 16.1523 36.616 16.1523 36.5568C16.1523 36.4976 16.197 36.4502 16.2528 36.4502C16.3086 36.4502 16.3532 36.4976 16.3532 36.5568Z" fill="black"/>
<path d="M15.2837 44.2197L15.3829 44.2303L19.4922 44.6763L19.4017 45.5828L15.1758 45.1486" fill="#263238"/>
<path d="M15.7357 18.7203C15.7357 18.7203 16.6297 24.1793 18.543 24.1793C20.5531 24.1793 22.9227 23.0648 22.9227 23.0648L22.7119 21.3688L19.5834 21.5162L19.6181 21.1715L19.0378 18.115C19.0378 18.115 18.5468 15.3625 17.0414 15.5862C15.102 15.873 15.7357 18.7203 15.7357 18.7203Z" fill="#407BFF"/>
<g opacity="0.3">
<path d="M19.5679 21.5609C19.0545 21.9819 18.9987 22.0569 18.7656 22.6266C18.7656 22.6266 19.0285 22.1582 19.2157 22.0148C19.4042 21.8714 19.5679 21.5596 19.5679 21.5596V21.5609Z" fill="black"/>
</g>
<path d="M24.8906 24.0752C24.8906 24.0752 24.8906 24.0777 24.8906 24.079C24.8931 24.0854 24.8931 24.0841 24.8906 24.0752Z" fill="#CD7A63"/>
<path d="M25.2356 22.3569C25.119 22.1517 24.7396 21.7556 24.7396 21.7556L24.6515 21.5214C24.2572 21.3899 22.7109 21.3701 22.7109 21.3701L22.8672 22.6319L22.9899 22.5411L24.2361 23.2266L24.7569 23.6542C24.7569 23.6542 24.8735 24.0187 24.8921 24.0779C24.8351 23.895 25.2951 24.1042 25.3819 23.7832C25.4699 23.4608 25.3521 22.5648 25.2356 22.3596V22.3569Z" fill="#CD7A63"/>
<path d="M22.7763 21.2606L22.1289 21.3643L22.404 23.2989L23.0514 23.1952L22.7763 21.2606Z" fill="#407BFF"/>
<path opacity="0.3" d="M22.7763 21.2606L22.1289 21.3643L22.404 23.2989L23.0514 23.1952L22.7763 21.2606Z" fill="black"/>
</g>
<defs>
<clipPath id="clip0_1021_28378">
<rect width="62" height="56.0952" fill="white"/>
</clipPath>
</defs>
</svg>
