<svg width="28" height="27" viewBox="0 0 28 27" fill="none" xmlns="http://www.w3.org/2000/svg">
<g clip-path="url(#clip0_1032_8646)">
<path d="M22.9657 23.2675C22.7361 18.8216 21.3884 16.1044 19.8287 14.5241V10.5068C20.1442 10.1255 20.3457 9.58258 20.4481 8.98348C20.6488 7.81391 20.2838 7.18921 19.6046 6.98134C19.6046 6.98134 19.5845 6.10664 19.5825 6.04827H19.5817C19.5046 3.63067 17.8301 1.61449 15.5565 0.968583V0H12.4445V0.970235C10.1175 1.63156 8.51596 3.72896 8.41189 6.22118C8.40335 6.4161 8.38518 6.99235 8.38518 6.99235C7.73762 7.21591 7.35768 7.84282 7.55233 8.98321C7.65503 9.58093 7.85381 10.1274 8.17181 10.5107V14.523C6.5799 16.1295 5.26303 18.8367 5.03506 23.2664C4.98248 24.2853 5.6672 25.1592 6.5642 25.2189C6.59697 25.2211 8.32131 25.3081 8.32131 25.3081C9.39231 26.5256 11.5993 27.0003 14.0392 27.0003C16.6283 27.0003 18.6588 26.4326 19.6811 25.3081C19.6811 25.3081 21.4049 25.2211 21.4365 25.2189C22.3338 25.1597 23.018 24.2856 22.9657 23.2675ZM13.4905 1.04622H14.5105V3.36856H13.4905V1.04622ZM12.4445 2.05968V4.41451H15.5568V2.06134C17.0264 2.58582 18.1442 3.82835 18.4562 5.35336C18.1305 5.40237 17.7285 5.45606 17.2704 5.50671C16.3613 5.60666 15.2261 5.69283 14.0001 5.69283C12.7669 5.69283 11.626 5.60583 10.7141 5.50506C10.2623 5.45495 9.86614 5.40127 9.54456 5.35336C9.85678 3.82808 10.9743 2.58445 12.4445 2.05968ZM17.4072 6.54413C16.5243 7.0744 15.317 7.60164 14.0004 7.60164C12.6964 7.60164 11.4897 7.07522 10.6037 6.54551C11.5459 6.6493 12.721 6.73851 14.0004 6.73851C15.2842 6.73851 16.4637 6.64875 17.4072 6.54413ZM12.8787 25.3464C11.2805 25.2173 10.0509 24.8131 9.53135 24.2424C9.41351 24.113 9.05229 23.7319 9.05229 23.7319V22.066C9.05229 21.8429 8.87223 21.6626 8.64866 21.6626C8.42593 21.6626 8.24559 21.8429 8.24559 22.066V23.6901C7.89538 23.6727 6.94883 23.6232 6.71645 23.6108C6.68782 23.5764 6.63881 23.4894 6.64625 23.3495C6.85191 19.3455 8.00606 17.1118 9.11809 15.8745L9.44297 19.5236L12.6585 17.7921C12.5271 18.4601 12.9591 19.0058 13.4205 19.2296L12.8787 25.3464ZM10.1382 18.2321L9.76372 14.0282L13.5932 16.3643L10.1382 18.2321ZM14.0004 13.4294C11.8025 13.4294 10.1671 11.24 9.98343 8.14182C9.96773 7.87972 9.97462 7.6344 9.99664 7.40203C11.0734 7.97002 13.8748 9.98483 17.9868 7.41332C18.0278 7.85163 18.0157 8.34171 17.9292 8.89675C17.5184 11.5228 16.0702 13.4294 14.0004 13.4294ZM18.2373 14.0271L17.8631 18.2324L14.3919 16.3643L18.2373 14.0271ZM21.2843 23.6116C21.0412 23.6246 20.1244 23.6708 19.7557 23.6898V22.0665C19.7557 21.8438 19.5748 21.6632 19.3521 21.6632C19.1288 21.6632 18.9485 21.8438 18.9485 22.0665V23.7308C18.9485 23.7308 18.6013 24.0998 18.4865 24.2239C17.9372 24.8192 16.7189 25.2231 15.1209 25.3467L14.5797 19.2299C15.0408 19.006 15.3616 18.5369 15.3616 17.9904C15.3616 17.9221 15.3514 17.8582 15.3417 17.7921L18.557 19.5225L18.8827 15.8723C19.9906 17.1077 21.1472 19.3425 21.3545 23.3492C21.3611 23.4896 21.3126 23.5772 21.2843 23.6116Z" fill="white"/>
</g>
<defs>
<clipPath id="clip0_1032_8646">
<rect width="27" height="27" fill="white" transform="translate(0.5)"/>
</clipPath>
</defs>
</svg>
