<svg width="29" height="28" viewBox="0 0 29 28" fill="none" xmlns="http://www.w3.org/2000/svg">
<path d="M14.4048 0.000142655C11.6987 0.000142655 9.0534 0.802584 6.80339 2.30599C4.55338 3.8094 2.79972 5.94625 1.76415 8.44633C0.728585 10.9464 0.457633 13.6974 0.98556 16.3515C1.51349 19.0056 2.81658 21.4435 4.73006 23.3569C6.64353 25.2704 9.08145 26.5735 11.7355 27.1014C14.3896 27.6294 17.1406 27.3584 19.6407 26.3228C22.1407 25.2873 24.2776 23.5336 25.781 21.2836C27.2844 19.0336 28.0869 16.3883 28.0869 13.6822C28.0951 11.8832 27.7468 10.1003 27.0621 8.4366C26.3775 6.7729 25.37 5.26132 24.0978 3.98918C22.8257 2.71704 21.3141 1.70953 19.6504 1.02486C17.9867 0.340186 16.2038 -0.00809117 14.4048 0.000142655ZM21.0592 7.89845L16.8924 16.1699L8.62096 20.3367C8.49958 20.3789 8.36877 20.386 8.24352 20.3572C8.11827 20.3285 8.00365 20.2651 7.91279 20.1742C7.82193 20.0833 7.75849 19.9687 7.72975 19.8435C7.70101 19.7182 7.70813 19.5874 7.75029 19.466L11.9171 11.1946L20.1886 7.02777C20.3099 6.98561 20.4408 6.97849 20.566 7.00723C20.6912 7.03597 20.8059 7.09941 20.8967 7.19027C20.9876 7.28114 21.051 7.39576 21.0798 7.521C21.1085 7.64625 21.1014 7.77706 21.0592 7.89845ZM14.4048 12.4384C14.1588 12.4384 13.9183 12.5114 13.7137 12.648C13.5092 12.7847 13.3498 12.979 13.2556 13.2062C13.1615 13.4335 13.1368 13.6836 13.1848 13.9249C13.2328 14.1662 13.3513 14.3878 13.5252 14.5618C13.6992 14.7357 13.9208 14.8542 14.1621 14.9022C14.4034 14.9502 14.6535 14.9255 14.8808 14.8314C15.108 14.7372 15.3023 14.5778 15.439 14.3733C15.5756 14.1687 15.6486 13.9282 15.6486 13.6822C15.6486 13.3524 15.5175 13.036 15.2843 12.8027C15.051 12.5695 14.7346 12.4384 14.4048 12.4384Z" fill="#00AD99"/>
</svg>
