<svg width="21" height="20" viewBox="0 0 21 20" fill="none" xmlns="http://www.w3.org/2000/svg">
<path d="M10.7226 0.000104263C8.7448 0.000104263 6.81142 0.586591 5.16693 1.6854C3.52245 2.78421 2.24073 4.34599 1.48386 6.17324C0.726989 8.00049 0.528957 10.0111 0.914807 11.9509C1.30066 13.8907 2.25306 15.6726 3.65158 17.0711C5.05009 18.4696 6.83191 19.422 8.77171 19.8079C10.7115 20.1937 12.7222 19.9957 14.5494 19.2388C16.3767 18.4819 17.9384 17.2002 19.0373 15.5557C20.1361 13.9112 20.7226 11.9779 20.7226 10.0001C20.7286 8.68515 20.474 7.3821 19.9736 6.16613C19.4732 4.95016 18.7368 3.84538 17.8071 2.9156C16.8773 1.98582 15.7725 1.24946 14.5565 0.749047C13.3406 0.248635 12.0375 -0.00591366 10.7226 0.000104263ZM15.5862 5.7728L12.5408 11.8182L6.49536 14.8637C6.40664 14.8945 6.31103 14.8997 6.21949 14.8787C6.12795 14.8577 6.04418 14.8113 5.97777 14.7449C5.91136 14.6785 5.86499 14.5947 5.84399 14.5032C5.82298 14.4116 5.82818 14.316 5.859 14.2273L8.90443 8.18188L14.9499 5.13644C15.0386 5.10563 15.1342 5.10043 15.2257 5.12143C15.3173 5.14244 15.401 5.1888 15.4674 5.25521C15.5339 5.32162 15.5802 5.4054 15.6012 5.49694C15.6222 5.58848 15.617 5.68408 15.5862 5.7728ZM10.7226 9.09096C10.5428 9.09096 10.367 9.14428 10.2175 9.24417C10.068 9.34406 9.95153 9.48604 9.88272 9.65216C9.81391 9.81827 9.79591 10.0011 9.83099 10.1774C9.86606 10.3537 9.95265 10.5157 10.0798 10.6429C10.2069 10.77 10.3689 10.8566 10.5453 10.8917C10.7216 10.9267 10.9044 10.9087 11.0705 10.8399C11.2366 10.7711 11.3786 10.6546 11.4785 10.5051C11.5784 10.3556 11.6317 10.1799 11.6317 10.0001C11.6317 9.75895 11.5359 9.52772 11.3654 9.35723C11.1949 9.18674 10.9637 9.09096 10.7226 9.09096Z" fill="#646464"/>
</svg>
