<svg width="26" height="26" viewBox="0 0 26 26" fill="none" xmlns="http://www.w3.org/2000/svg">
<path d="M23.833 4.87533C23.833 5.16264 23.7189 5.43819 23.5157 5.64136C23.3126 5.84452 23.037 5.95866 22.7497 5.95866H12.9997C12.7124 5.95866 12.4368 5.84452 12.2337 5.64136C12.0305 5.43819 11.9164 5.16264 11.9164 4.87533C11.9164 4.58801 12.0305 4.31246 12.2337 4.10929C12.4368 3.90613 12.7124 3.79199 12.9997 3.79199H22.7497C23.037 3.79199 23.3126 3.90613 23.5157 4.10929C23.7189 4.31246 23.833 4.58801 23.833 4.87533ZM22.7497 9.20866H15.1664C14.8791 9.20866 14.6035 9.32279 14.4003 9.52596C14.1972 9.72912 14.083 10.0047 14.083 10.292C14.083 10.5793 14.1972 10.8549 14.4003 11.058C14.6035 11.2612 14.8791 11.3753 15.1664 11.3753H22.7497C23.037 11.3753 23.3126 11.2612 23.5157 11.058C23.7189 10.8549 23.833 10.5793 23.833 10.292C23.833 10.0047 23.7189 9.72912 23.5157 9.52596C23.3126 9.32279 23.037 9.20866 22.7497 9.20866ZM22.7497 14.6253H17.333C17.0457 14.6253 16.7702 14.7395 16.567 14.9426C16.3638 15.1458 16.2497 15.4213 16.2497 15.7087C16.2497 15.996 16.3638 16.2715 16.567 16.4747C16.7702 16.6779 17.0457 16.792 17.333 16.792H22.7497C23.037 16.792 23.3126 16.6779 23.5157 16.4747C23.7189 16.2715 23.833 15.996 23.833 15.7087C23.833 15.4213 23.7189 15.1458 23.5157 14.9426C23.3126 14.7395 23.037 14.6253 22.7497 14.6253ZM22.7497 20.042H19.4997C19.2124 20.042 18.9368 20.1561 18.7337 20.3593C18.5305 20.5625 18.4164 20.838 18.4164 21.1253C18.4164 21.4126 18.5305 21.6882 18.7337 21.8914C18.9368 22.0945 19.2124 22.2087 19.4997 22.2087H22.7497C23.037 22.2087 23.3126 22.0945 23.5157 21.8914C23.7189 21.6882 23.833 21.4126 23.833 21.1253C23.833 20.838 23.7189 20.5625 23.5157 20.3593C23.3126 20.1561 23.037 20.042 22.7497 20.042ZM6.49971 2.16699C6.21239 2.16699 5.93684 2.28113 5.73368 2.48429C5.53051 2.68746 5.41638 2.96301 5.41638 3.25033V20.1352L4.01563 18.7344C3.81131 18.5371 3.53765 18.4279 3.25361 18.4303C2.96956 18.4328 2.69785 18.5467 2.49699 18.7476C2.29613 18.9485 2.1822 19.2202 2.17973 19.5042C2.17726 19.7883 2.28645 20.0619 2.48379 20.2662L5.73379 23.5162C5.83442 23.6171 5.95397 23.6972 6.08559 23.7518C6.2172 23.8064 6.3583 23.8345 6.50079 23.8345C6.64329 23.8345 6.78438 23.8064 6.916 23.7518C7.04761 23.6972 7.16716 23.6171 7.26779 23.5162L10.5178 20.2662C10.7151 20.0619 10.8243 19.7883 10.8219 19.5042C10.8194 19.2202 10.7055 18.9485 10.5046 18.7476C10.3037 18.5467 10.032 18.4328 9.74798 18.4303C9.46393 18.4279 9.19028 18.5371 8.98596 18.7344L7.58304 20.1352V3.25033C7.58304 2.96301 7.4689 2.68746 7.26574 2.48429C7.06258 2.28113 6.78703 2.16699 6.49971 2.16699Z" fill="#F19157"/>
</svg>
