<svg width="28" height="28" viewBox="0 0 28 28" fill="none" xmlns="http://www.w3.org/2000/svg">
<path fill-rule="evenodd" clip-rule="evenodd" d="M7.77176 26.6715C8.20155 26.9129 8.69026 27.0433 9.19249 27.0433C11.9683 27.0433 16.9703 27.0433 18.9628 27.0433C19.779 27.0433 20.5565 26.6995 21.1051 26.0968L25.5798 21.1826C27.4796 19.2742 27.7297 17.5608 27.3482 16.4452C26.6876 14.5155 24.0064 13.7612 22.0313 15.7363C22.0313 15.7363 19.807 17.9606 18.7339 19.0337C18.5524 19.2152 18.307 19.3167 18.0511 19.3167H16.7917C16.8728 19.0366 16.9191 18.7169 16.9191 18.3508C16.9191 15.4581 14.0304 15.4533 14.0226 15.4533H9.19249C8.69026 15.4533 8.20155 15.5837 7.77176 15.8252C7.25697 15.0206 6.35488 14.4875 5.32916 14.4875H3.3975C1.79711 14.4875 0.5 15.7846 0.5 17.385V25.1116C0.5 26.712 1.79711 28.0091 3.3975 28.0091H5.32916C6.35488 28.0091 7.25697 27.476 7.77176 26.6715ZM6.29499 17.385V25.1116C6.29499 25.6448 5.8623 26.0775 5.32916 26.0775H3.3975C2.86436 26.0775 2.43166 25.6448 2.43166 25.1116V17.385C2.43166 16.8518 2.86436 16.4192 3.3975 16.4192H5.32916C5.8623 16.4192 6.29499 16.8518 6.29499 17.385ZM8.22666 18.3508V24.1458C8.22666 24.4018 8.32807 24.648 8.50965 24.8287C8.69026 25.0102 8.93655 25.1116 9.19249 25.1116H18.9628C19.2352 25.1116 19.4941 24.9967 19.6776 24.7958C21.0037 23.3393 24.1658 19.8662 24.1812 19.8498L24.1977 19.8343C25.3528 18.6782 25.7517 17.7452 25.5209 17.0701C25.2591 16.3061 24.1793 16.3206 23.397 17.102C23.397 17.102 21.1727 19.3263 20.0996 20.3994C19.5559 20.9431 18.8189 21.2483 18.0511 21.2483H11.1242C10.591 21.2483 10.1583 20.8156 10.1583 20.2825C10.1583 19.7493 10.591 19.3167 11.1242 19.3167H14.0217C14.0217 19.3167 14.9875 19.3167 14.9875 18.3508C14.9875 17.386 14.0236 17.385 14.0217 17.385H9.19249C8.93655 17.385 8.69026 17.4864 8.50965 17.668C8.32807 17.8486 8.22666 18.0949 8.22666 18.3508ZM14.9875 0C11.2565 0 8.22666 3.02982 8.22666 6.76083C8.22666 10.4918 11.2565 13.5217 14.9875 13.5217C18.7185 13.5217 21.7483 10.4918 21.7483 6.76083C21.7483 3.02982 18.7185 0 14.9875 0ZM14.9875 1.93167C17.6532 1.93167 19.8166 4.09513 19.8166 6.76083C19.8166 9.42653 17.6532 11.59 14.9875 11.59C12.3218 11.59 10.1583 9.42653 10.1583 6.76083C10.1583 4.09513 12.3218 1.93167 14.9875 1.93167Z" fill="white"/>
</svg>
