<svg width="26" height="26" viewBox="0 0 26 26" fill="none" xmlns="http://www.w3.org/2000/svg">
<g clip-path="url(#clip0_1032_8709)">
<path d="M20.9291 5.62688L19.601 0.314387C19.555 0.132336 19.3862 0 19.1983 0H6.80252C6.61458 0 6.44588 0.132336 6.39988 0.314387L5.07174 5.62688C5.03955 5.75419 5.0722 5.89673 5.15817 5.99631L6.92907 8.07977C7.0775 8.25436 7.33938 8.27573 7.51412 8.1272C7.68876 7.97871 7.71004 7.71684 7.56155 7.54215L6.3719 6.14256H9.61205L12.0909 12.8708L8.80097 9.00033C8.65244 8.8258 8.39071 8.80442 8.21592 8.9529C8.04128 9.10139 8.02 9.36332 8.16849 9.53796L12.4792 14.6093H8.57337C7.85629 14.6093 7.27291 15.1927 7.27291 15.9098C7.27291 16.6269 7.85629 17.2103 8.57337 17.2103H9.5635C8.43032 18.186 7.73619 19.6205 7.71613 21.152C7.69089 23.0796 8.7249 24.8708 10.4145 25.8266C10.7629 26.0238 11.1753 26.0507 11.5457 25.9006C11.9147 25.751 12.1907 25.4462 12.3031 25.0643C12.4752 24.4791 12.2242 23.863 11.6928 23.5658C10.8204 23.0781 10.2935 22.1549 10.3174 21.1563C10.3514 19.7337 11.5371 18.5594 12.9604 18.5387C13.4629 18.5319 13.9557 18.6638 14.3835 18.9216C14.5798 19.04 14.8349 18.9767 14.9532 18.7804C15.0716 18.584 15.0083 18.329 14.812 18.2106C14.2511 17.8727 13.6059 17.6987 12.9483 17.7087C12.0407 17.7219 11.1822 18.0843 10.531 18.7291C9.87982 19.3741 9.50927 20.229 9.48759 21.1365C9.4563 22.4436 10.1461 23.6521 11.2877 24.2904C11.4788 24.3972 11.5689 24.6191 11.5068 24.83C11.4225 25.1167 11.0827 25.251 10.8232 25.1042C9.3974 24.2976 8.52487 22.7874 8.5461 21.1629C8.56839 19.4533 9.58768 17.887 11.1429 17.1724C11.3206 17.0907 11.4186 16.8892 11.3731 16.6989C11.3291 16.5143 11.1594 16.3803 10.9695 16.3803H8.57332C8.31393 16.3803 8.10293 16.1693 8.10293 15.9099C8.10293 15.6505 8.31393 15.4395 8.57332 15.4395H17.4275C17.6868 15.4395 17.8978 15.6505 17.8978 15.9099C17.8978 16.1693 17.6868 16.3803 17.4275 16.3803H15.0313C14.8363 16.3803 14.6675 16.5161 14.6258 16.7066C14.5842 16.8971 14.6808 17.091 14.858 17.1724C16.4356 17.8973 17.4551 19.487 17.4551 21.2223C17.4551 22.8319 16.582 24.3217 15.1765 25.1102C14.9188 25.2549 14.5714 25.12 14.4941 24.8302C14.433 24.6222 14.5229 24.3964 14.7079 24.2934C15.8222 23.6729 16.5144 22.4962 16.5144 21.2224C16.5144 20.6956 16.4005 20.1889 16.176 19.7163C16.0777 19.5092 15.8302 19.421 15.623 19.5194C15.416 19.6177 15.3278 19.8654 15.4262 20.0724C15.5974 20.4329 15.6842 20.8198 15.6842 21.2224C15.6842 22.1954 15.1553 23.0941 14.3041 23.5682C13.7746 23.863 13.5253 24.4783 13.6974 25.0633C13.6975 25.0637 13.6989 25.0686 13.699 25.0689C13.8112 25.4502 14.0865 25.7548 14.4546 25.9047C14.8199 26.0535 15.2387 26.0271 15.5826 25.8342C17.2496 24.8991 18.2851 23.1319 18.2851 21.2224C18.2851 19.6619 17.5902 18.2007 16.4388 17.2104H17.4274C18.1445 17.2104 18.7279 16.627 18.7279 15.91C18.7279 15.1929 18.1445 14.6095 17.4274 14.6095H13.5216L20.8426 5.99647C20.8546 5.9824 20.8655 5.96711 20.8755 5.95147C20.9367 5.85636 20.9569 5.73652 20.9291 5.62688ZM6.00597 5.31249L6.95786 1.50501L9.17889 5.31249H6.00597ZM9.48642 4.19236L7.52514 0.830123H9.48642V4.19236ZM16.5144 0.830072H18.4757L16.5144 4.19231V0.830072ZM15.6843 0.830072V4.19231L13.723 0.830072H15.6843ZM15.3767 5.31249H10.6241L13.0004 1.23876L15.3767 5.31249ZM10.3165 0.830072H12.2778L10.3165 4.19231V0.830072ZM13.0004 12.9384L10.4967 6.14261H15.5042L13.0004 12.9384ZM13.9099 12.8708L16.3888 6.14256H19.629L13.9099 12.8708ZM16.822 5.31249L19.043 1.50501L19.9949 5.31249H16.822Z" fill="white"/>
</g>
<defs>
<clipPath id="clip0_1032_8709">
<rect width="26" height="26" fill="white"/>
</clipPath>
</defs>
</svg>
