<svg width="62" height="57" viewBox="0 0 62 57" fill="none" xmlns="http://www.w3.org/2000/svg">
<g style="mix-blend-mode:multiply">
<path d="M31 56.5585C48.1208 56.5585 62 54.9371 62 52.937C62 50.9368 48.1208 49.3154 31 49.3154C13.8792 49.3154 0 50.9368 0 52.937C0 54.9371 13.8792 56.5585 31 56.5585Z" fill="#CFD4D8"/>
</g>
<path d="M21.0204 34.7127C21.0204 34.7127 20.6885 37.6004 20.5695 38.0387C20.4505 38.4784 19.4001 38.935 18.2028 40.6869C17.004 42.4403 16.3836 43.3435 16.0321 43.4612C15.6806 43.5788 15.2675 43.6838 15.3165 44.0521C15.3655 44.4205 16.448 46.3503 16.7617 46.2564C17.0754 46.1626 16.6119 44.4233 16.7729 44.1348C16.934 43.8449 21.652 39.8452 22.236 39.0176C22.82 38.1899 23.7233 35.3316 23.7765 34.9213C23.8297 34.511 21.7893 33.99 21.0204 34.7127Z" fill="#FFAF98"/>
<path d="M24.6032 35.3497C24.6032 35.3497 24.9295 38.4517 24.9505 38.9068C24.9716 39.362 24.3638 40.2596 24.0935 42.3659C23.8232 44.4721 23.9604 46.1093 23.756 46.4173C23.5515 46.7254 23.2882 47.0616 23.5529 47.322C23.8176 47.5825 25.7404 48.378 25.9295 48.1119C26.1199 47.8458 24.6298 46.7044 24.5794 46.3767C24.529 46.049 26.5288 40.2989 26.8341 39.3326C27.1394 38.3663 27.3747 35.2587 27.3215 34.8484C27.2683 34.438 25.1634 34.4548 24.6032 35.3497Z" fill="#FFAF98"/>
<path d="M19.3178 36.951C19.3178 36.951 22.452 37.5434 25.2038 37.1625C27.4053 36.8572 28.2526 36.3152 28.2526 36.3152L26.6435 30.3438C26.6435 30.3438 25.5007 30.6406 23.5513 30.6406C22.0178 30.6406 20.9255 30.5566 20.9255 30.5566L19.3164 36.951H19.3178Z" fill="#802800"/>
<path d="M22.1988 13.6645C22.1988 13.6645 20.7591 13.558 19.9539 14.9347C19.1486 16.3113 18.0689 20.8207 18.3448 21.7324C18.6207 22.6426 20.7899 24.4856 23.406 24.0823C25.7013 23.7294 26.0948 20.1863 26.0948 19.1486C26.0948 18.1108 26.1648 15.1111 25.1495 14.1224C24.5067 13.495 23.9031 13.3438 23.2575 13.3676C22.6861 13.3886 22.1988 13.6645 22.1988 13.6645Z" fill="#A6684C"/>
<path d="M27.4101 12.3895C27.4101 12.3895 27.1693 11.4541 27.046 11.0059C26.9228 10.5578 26.8122 10.2931 26.8122 10.2931C26.8122 10.2931 26.4256 10.2063 26.1778 10.0704C25.9299 9.93599 25.7352 9.78614 25.9327 9.70772C26.1302 9.63069 26.6175 9.79734 26.6175 9.79734C26.6175 9.79734 26.4509 9.13494 26.3976 8.74002C26.3514 8.39831 26.4046 8.23306 26.5013 8.22046C26.5979 8.20785 26.6511 8.43752 26.6945 8.60417C26.7379 8.77083 26.9382 9.40522 26.9382 9.40522C26.9382 9.40522 26.8416 8.684 26.9368 8.31849C27.0124 8.0272 27.0923 7.91236 27.1763 7.93057C27.2645 7.95017 27.2673 8.14063 27.2323 8.46553C27.2001 8.77223 27.2393 9.23297 27.2393 9.23297C27.2393 9.23297 27.3765 8.40811 27.5264 8.18544C27.6594 7.98798 27.728 8.12243 27.728 8.24566C27.728 8.41091 27.5712 9.24697 27.5712 9.24697C27.5712 9.24697 27.8317 8.55376 27.9969 8.45853C28.1482 8.3717 28.1174 8.61678 28.0361 8.88006C27.9549 9.14334 27.7925 9.79034 27.7477 10.027C27.7028 10.2637 27.8835 10.8743 28.0151 11.223C28.1426 11.5605 28.4605 12.2551 28.4605 12.2551L27.4101 12.3881V12.3895Z" fill="#FFAF98"/>
<path d="M17.3008 27.5186C17.3008 27.5186 17.438 28.2608 17.4856 28.4275C17.5333 28.5955 17.5571 28.7272 17.5571 28.7272C17.5571 28.7272 17.3652 29.0745 17.4492 29.6122C17.5333 30.15 17.7727 30.115 17.8315 30.0786C17.8918 30.0422 17.903 29.9833 17.903 29.9833C17.903 29.9833 17.987 30.0912 18.1186 30.0912C18.2503 30.0912 18.2629 30.0072 18.2629 30.0072C18.2629 30.0072 18.3945 30.1514 18.5136 30.0786C18.6326 30.0072 18.6326 29.9105 18.6326 29.9105C18.6326 29.9105 18.809 30.0632 18.9771 29.9679C19.1452 29.8727 18.9449 29.468 18.9449 29.468C18.9449 29.468 19.2082 29.384 19.1367 28.9778C19.0653 28.5717 18.4491 28.4513 18.4491 28.4513C18.4491 28.4513 18.2405 27.5774 18.2517 27.4458C18.2643 27.3141 17.3008 27.5172 17.3008 27.5172V27.5186Z" fill="#FFAF98"/>
<path d="M24.5274 13.7981C25.0764 14.1286 25.5385 14.5949 25.6926 16.0108C25.8452 17.4266 25.5469 18.4503 24.8299 18.9545C23.97 19.5595 22.9393 19.4278 22.2881 18.8606C21.6369 18.2935 20.9745 17.0177 20.7476 16.19C20.5221 15.3624 21.6691 13.8625 22.3889 13.6496C23.1088 13.4368 24.0358 13.5012 24.5274 13.7981Z" fill="#FFAF98"/>
<path d="M21.6606 17.5345C21.6606 17.5345 20.8539 16.7951 20.599 17.2824C20.3442 17.7698 20.8693 18.2095 21.162 18.1395C21.6914 18.0135 21.6606 17.5345 21.6606 17.5345Z" fill="#FFAF98"/>
<path d="M25.3438 16.3676C25.3438 16.3676 25.6532 15.3173 26.1238 15.6044C26.5943 15.8901 26.3703 16.5371 26.0832 16.6281C25.565 16.792 25.3438 16.3676 25.3438 16.3676Z" fill="#FFAF98"/>
<path d="M22.8555 18.9717C22.8555 18.9717 22.9801 19.3667 22.9955 19.5893C23.0081 19.7644 22.9857 20.0543 22.9857 20.0543C22.9857 20.0543 23.1972 20.8091 23.7475 20.7377C24.2979 20.6649 24.3749 20.0501 24.3749 20.0501C24.3749 20.0501 24.3469 19.0572 24.3483 18.8821C24.3497 18.7071 22.8555 18.9717 22.8555 18.9717Z" fill="#FFAF98"/>
<path d="M20.375 15.8592C20.375 15.8592 20.5809 16.8199 20.8035 17.1462C21.0416 17.4949 21.2489 17.5916 21.2489 17.5916C21.2489 17.5916 22.2222 16.4684 22.4981 15.3313C22.823 13.9994 22.5191 13.6689 22.5191 13.6689C22.5191 13.6689 21.55 13.7012 21.0262 14.3201C20.5024 14.9391 20.375 15.8606 20.375 15.8606V15.8592Z" fill="#A6684C"/>
<path d="M25.6923 16.0143C25.6923 16.0143 25.2176 14.7595 24.3059 14.373C23.6071 14.0761 23.0245 14.0019 22.3999 13.9711C21.8453 13.9431 22.2038 13.7176 22.2038 13.7176C22.2038 13.7176 22.8396 13.3199 23.7597 13.4165C24.6812 13.5117 25.2358 14.3058 25.4276 14.6713C25.7693 15.3225 25.6923 16.0157 25.6923 16.0157V16.0143Z" fill="#A6684C"/>
<path d="M22.5784 16.5955C22.6162 16.7034 22.7226 16.779 22.8361 16.7972C22.8795 16.8042 22.9243 16.8028 22.9649 16.7874C23.0349 16.7608 23.084 16.695 23.1106 16.625C23.196 16.3981 23.0517 16.1152 22.7885 16.1222C22.5672 16.1278 22.5182 16.4261 22.5784 16.5955Z" fill="#193447"/>
<path d="M24.5823 16.1063C24.6201 16.2141 24.7266 16.2897 24.84 16.308C24.8834 16.315 24.9282 16.3136 24.9688 16.2981C25.0388 16.2715 25.0879 16.2057 25.1145 16.1357C25.1999 15.9088 25.0557 15.6259 24.7924 15.6329C24.5711 15.6385 24.5221 15.9368 24.5823 16.1063Z" fill="#193447"/>
<path d="M24.6002 15.4467C24.6002 15.4467 24.6128 15.4397 24.6198 15.4355C24.6324 15.4285 24.6072 15.4397 24.6226 15.4355C24.6254 15.4355 24.6282 15.4327 24.631 15.4327C24.6394 15.4299 24.6478 15.4271 24.6576 15.4257C24.6618 15.4257 24.666 15.4243 24.6702 15.4229C24.673 15.4229 24.687 15.4215 24.6772 15.4229C24.666 15.4229 24.6814 15.4229 24.6842 15.4229C24.6884 15.4229 24.6926 15.4229 24.6982 15.4229C24.7081 15.4229 24.7165 15.4229 24.7263 15.4229C24.7459 15.4229 24.7655 15.4229 24.7851 15.4257C24.7879 15.4257 24.8047 15.4271 24.7921 15.4257C24.7795 15.4257 24.7977 15.4257 24.7991 15.4257C24.8089 15.4271 24.8173 15.4285 24.8271 15.4313C24.8453 15.4355 24.8635 15.4397 24.8803 15.4453C24.8971 15.4509 24.9139 15.458 24.9321 15.4636C24.9419 15.4664 24.9153 15.4566 24.9307 15.4636C24.9391 15.4678 24.9461 15.4706 24.9559 15.472C24.9657 15.4748 24.9615 15.472 24.9545 15.4706C24.9629 15.4734 24.9699 15.4776 24.9783 15.4804C25.0316 15.4986 25.082 15.4313 25.0526 15.3837C24.9979 15.2969 24.8831 15.2745 24.7879 15.2717C24.6982 15.2689 24.6016 15.2941 24.533 15.3543C24.484 15.3991 24.5484 15.4846 24.6058 15.4481L24.6002 15.4467Z" fill="#A6684C"/>
<path d="M22.9473 15.6693C22.8913 15.6455 22.8339 15.6301 22.7723 15.6273C22.7107 15.6245 22.6532 15.6413 22.5972 15.6679C22.5426 15.6931 22.495 15.7393 22.4628 15.7897C22.4432 15.8205 22.4292 15.8555 22.425 15.8919C22.4236 15.9101 22.4292 15.8779 22.4236 15.8961C22.4208 15.9073 22.418 15.9213 22.418 15.9312C22.418 15.9494 22.425 15.969 22.4348 15.9844C22.4502 16.0054 22.474 16.0124 22.4978 16.0012C22.509 15.9956 22.5202 15.9872 22.53 15.9774C22.537 15.969 22.5412 15.962 22.5454 15.9536C22.5482 15.9494 22.5552 15.9396 22.5468 15.948C22.558 15.9354 22.5678 15.9241 22.5776 15.9101C22.5664 15.9255 22.5776 15.9115 22.579 15.9087C22.5832 15.9045 22.586 15.9003 22.5902 15.8961C22.6056 15.8793 22.621 15.8639 22.6378 15.8485C22.642 15.8443 22.6462 15.8415 22.6504 15.8373C22.6364 15.8471 22.6644 15.8247 22.6504 15.8373C22.6602 15.8303 22.67 15.8233 22.6798 15.8177C22.6897 15.8121 22.6981 15.8065 22.7079 15.8009C22.7121 15.7981 22.7177 15.7967 22.7233 15.7939C22.7065 15.7995 22.7289 15.7897 22.7233 15.7939C22.7443 15.7869 22.7653 15.7785 22.7863 15.7743C22.7919 15.7743 22.7975 15.7715 22.8031 15.7701C22.8045 15.7701 22.8227 15.7673 22.8129 15.7687C22.8031 15.7687 22.8213 15.7687 22.8227 15.7687C22.8283 15.7687 22.8339 15.7687 22.8395 15.7687C22.8451 15.7687 22.8507 15.7687 22.8563 15.7687C22.8577 15.7687 22.8745 15.7701 22.8675 15.7687C22.8619 15.7687 22.8773 15.7701 22.8801 15.7701C22.8871 15.7701 22.8941 15.7729 22.8997 15.7743C22.9263 15.7813 22.9557 15.7687 22.9655 15.7421C22.9753 15.7183 22.9683 15.6833 22.9431 15.6721L22.9473 15.6693Z" fill="#A6684C"/>
<path d="M21.8242 20.0186C21.8242 20.0186 22.1715 19.9892 22.467 19.9472C22.7639 19.9052 23.0174 19.8282 23.0174 19.8282C23.0174 19.8282 23.3983 20.1993 23.7904 20.3155C24.0761 20.3477 24.373 19.7441 24.373 19.7441C24.373 19.7441 25.1544 19.8128 25.3015 19.8128C25.4485 19.8128 25.5662 19.8016 25.5662 19.8016C25.5662 19.8016 25.548 21.5535 24.9444 22.6865C24.3408 23.8194 23.9599 24.0519 23.9599 24.0519C23.9599 24.0519 22.9012 23.1094 22.383 22.0507C21.8648 20.9919 21.8242 20.0172 21.8242 20.0172V20.0186Z" fill="#D1E1EF"/>
<path d="M23.7998 20.3262L23.4609 20.962C23.4609 20.962 23.524 21.3009 23.8419 21.2477C24.1598 21.1944 24.234 20.8555 24.234 20.8555L23.7998 20.3262Z" fill="#304859"/>
<path d="M23.9576 21.0557L24.6242 22.9827C24.6242 22.9827 24.3385 23.8089 24.169 23.9462C23.9996 24.0834 23.9996 24.1786 23.7979 23.9994C23.5963 23.8187 23.375 23.47 23.375 23.47L23.7461 20.9814C23.7461 20.9814 23.9156 21.0879 23.9576 21.0557Z" fill="#304859"/>
<path d="M22.9812 19.7705C22.9812 19.7705 23.2038 20.0086 23.4265 20.143C23.6492 20.2775 23.799 20.3251 23.799 20.3251C23.799 20.3251 23.743 20.4833 23.6002 20.7704C23.4573 21.0561 23.2108 21.3978 23.2108 21.3978C23.2108 21.3978 22.7739 20.818 22.6157 20.4525C22.4574 20.087 22.4336 19.9288 22.4336 19.9288L22.9812 19.7705Z" fill="white"/>
<path d="M23.8008 20.3289L24.4198 21.144C24.4198 21.144 24.6438 20.8106 24.7643 20.4241C24.8805 20.0488 24.8707 19.8149 24.8707 19.8149L24.368 19.6875C24.368 19.6875 24.3049 19.8359 24.1621 20.0152C24.0389 20.1706 23.8022 20.3275 23.8022 20.3275L23.8008 20.3289Z" fill="white"/>
<path d="M22.2022 19.9572C22.2022 19.9572 21.3886 19.6701 19.4448 20.6925C17.4337 21.7512 16.5865 23.0004 16.375 24.6095C16.1804 26.0869 16.5025 28.315 16.5025 28.315C16.5025 28.315 17.3497 28.4425 18.1536 28.2086C18.9588 27.9761 19.1283 27.8907 19.1283 27.8907C19.1283 27.8907 18.379 25.4805 18.9588 24.4176C19.5946 23.2524 20.6323 22.7665 20.6323 22.7665C20.6323 22.7665 20.7388 25.3503 20.3999 27.9761C20.061 30.6019 18.3454 34.5399 18.2194 34.8999C18.0919 35.2598 18.7698 35.6407 20.7178 35.9586C22.6658 36.2765 25.2706 36.128 26.7312 35.7051C28.1919 35.2822 28.5098 34.9643 28.5308 34.8368C28.5518 34.7094 27.1752 29.7967 26.9217 28.0825C26.6682 26.367 26.1598 22.8099 26.2439 22.6405C26.3279 22.471 27.895 21.3703 29.2086 18.3635C30.5208 15.3568 30.3093 11.3124 30.2463 11.2059C30.1833 11.0995 28.7955 10.6976 27.5673 10.7928C26.4665 10.8782 25.9904 11.0785 26.0744 11.2689C26.1584 11.4594 27.0267 14.1916 26.7522 16.2881C26.4763 18.3845 25.9162 19.1156 25.503 19.4531C25.2328 19.6757 24.9849 19.7654 24.9849 19.7654C24.9849 19.7654 25.1809 20.6813 24.9051 21.719C24.6292 22.7567 24.1586 23.1796 24.1586 23.1796C24.1586 23.1796 23.4598 22.576 22.8562 21.6069C22.4641 20.9781 22.205 19.9558 22.205 19.9558L22.2022 19.9572Z" fill="#193447"/>
<path d="M22.9822 22.6082C23.8392 23.7202 24.2524 23.8476 24.2524 23.8476C24.2524 23.8476 25.1262 23.0858 25.4119 21.6405C25.594 20.719 25.5632 19.9082 25.5169 19.4404C25.5113 19.4446 25.5071 19.4488 25.5015 19.453C25.2313 19.6757 24.9834 19.7653 24.9834 19.7653C24.9834 19.7653 25.1794 20.6812 24.9036 21.7189C24.6277 22.7567 24.1571 23.1796 24.1571 23.1796C24.1571 23.1796 23.4583 22.576 22.8547 21.6069C22.4626 20.9781 22.2035 19.9558 22.2035 19.9558C22.2035 19.9558 22.0537 19.904 21.7344 19.9236C21.894 20.4627 22.3184 21.7483 22.9822 22.6082Z" fill="#005BA6"/>
<path d="M30.2948 12.3438C29.9979 12.2037 29.3971 12.0146 28.316 12.0146C27.2349 12.0146 26.6845 12.1799 26.375 12.3059C26.424 12.502 26.4744 12.7191 26.522 12.9515C26.7895 12.8689 27.4155 12.7051 28.2516 12.6827C29.0638 12.6602 29.8803 12.9081 30.2766 13.0496C30.2878 12.7947 30.292 12.558 30.2934 12.3452L30.2948 12.3438Z" fill="#005BA6"/>
<path d="M18.8208 26.5254C18.5057 26.6556 17.9203 26.8573 17.3266 26.8475C16.8714 26.8391 16.5507 26.8055 16.3477 26.7747C16.3603 26.9679 16.3743 27.1514 16.3897 27.3208C16.6726 27.3895 17.1711 27.4693 17.7873 27.3881C18.3195 27.318 18.6878 27.1626 18.9132 27.0351C18.881 26.8769 18.8488 26.706 18.8208 26.5254Z" fill="#005BA6"/>
<path d="M24.1523 23.703C24.193 25.3317 24.1341 26.9828 24.438 28.5919C24.5879 29.3915 24.7797 30.1828 24.9212 30.9838C25.0612 31.7737 25.1845 32.5677 25.2419 33.3687C25.2727 33.8085 25.2783 34.2482 25.2979 34.688C25.3077 34.9008 25.3217 35.1151 25.3455 35.3266C25.3693 35.538 25.4127 35.7453 25.4603 35.9525C25.473 36.0072 25.557 35.9848 25.5444 35.9287C25.4646 35.5562 25.4449 35.1641 25.4295 34.7832C25.4141 34.4009 25.4141 34.0186 25.3973 33.6362C25.3623 32.838 25.2601 32.0397 25.1102 31.2541C24.9604 30.4684 24.7923 29.687 24.6411 28.9014C24.4856 28.0905 24.396 27.2741 24.3484 26.4506C24.2966 25.5347 24.284 24.616 24.2252 23.7002C24.2224 23.6553 24.1523 23.6539 24.1537 23.7002L24.1523 23.703Z" fill="#475D6C"/>
<path d="M15.794 43.5271C15.794 43.5271 16.0937 44.5817 16.3472 44.9976C16.6007 45.4135 16.8402 45.2091 16.8402 45.2091C16.8402 45.2091 16.9774 46.0325 16.8598 46.2496C16.7421 46.4666 16.3948 46.2146 16.0447 45.6124C15.6946 45.0102 15.2661 44.0817 15.2283 43.7932C15.1905 43.5047 15.794 43.5257 15.794 43.5257V43.5271Z" fill="#193447"/>
<path d="M23.5582 46.6475C23.5582 46.6475 24.4769 47.2875 24.9348 47.4541C25.3928 47.6194 25.4362 47.3211 25.4362 47.3211C25.4362 47.3211 26.0734 47.8672 26.1182 48.1095C26.1616 48.3518 25.7345 48.3728 25.0847 48.1235C24.4349 47.8742 23.519 47.4177 23.3089 47.2174C23.0988 47.0172 23.5582 46.6489 23.5582 46.6489V46.6475Z" fill="#193447"/>
<path d="M25.5542 16.5103C25.5584 16.4164 25.571 16.3254 25.5794 16.233C25.5878 16.1279 25.6032 16.0229 25.6312 15.9207C25.6551 15.8325 25.6887 15.7414 25.7489 15.67C25.7783 15.6364 25.8119 15.6112 25.8483 15.586C25.8889 15.5566 25.9281 15.5454 25.9772 15.5412C26.008 15.5384 26.008 15.4949 25.9772 15.4935C25.9561 15.4921 25.9351 15.4949 25.9141 15.4963C25.9071 15.4963 25.8889 15.4935 25.8707 15.4963C25.8287 15.5019 25.7909 15.5104 25.7545 15.5314C25.6859 15.5706 25.6312 15.6378 25.5948 15.7064C25.5108 15.8675 25.4884 16.0537 25.4814 16.233C25.4772 16.3254 25.4884 16.4178 25.4926 16.5103C25.494 16.5509 25.5542 16.5509 25.5556 16.5103H25.5542Z" fill="white"/>
<path d="M20.7479 17.1257C20.9958 16.9773 21.3221 17.0291 21.5826 17.1131C21.7128 17.1551 21.8375 17.2111 21.9565 17.2783C22.0209 17.3148 22.0839 17.354 22.1498 17.3876C22.2212 17.424 22.2982 17.4828 22.3794 17.4842C22.406 17.4842 22.4327 17.4548 22.4228 17.4282C22.3892 17.34 22.2968 17.3106 22.217 17.2727C22.1442 17.2377 22.0755 17.1957 22.0041 17.1579C21.8669 17.0837 21.7198 17.0235 21.57 16.9815C21.4187 16.938 21.2605 16.9114 21.1036 16.924C20.9496 16.9352 20.8292 16.9843 20.7213 17.0921C20.7031 17.1103 20.7269 17.1411 20.7479 17.1271V17.1257Z" fill="white"/>
<path d="M22.6353 18.8701C22.5919 18.8435 22.5387 18.8379 22.4897 18.8253C22.4267 18.8085 22.3664 18.7889 22.3062 18.7637C22.1494 18.7007 21.9953 18.6194 21.8497 18.5312C21.7054 18.443 21.5668 18.3449 21.4338 18.2399C21.3819 18.1993 21.3217 18.1545 21.2685 18.1055C21.2391 18.1167 21.2069 18.1279 21.1719 18.1363C21.2027 18.1783 21.2405 18.2175 21.2769 18.2511C21.3735 18.3393 21.4786 18.4178 21.585 18.492C21.8189 18.6558 22.0597 18.8169 22.3244 18.9275C22.4169 18.9653 22.5569 19.027 22.6437 18.9513C22.6703 18.9289 22.6605 18.8855 22.6325 18.8687L22.6353 18.8701Z" fill="white"/>
<path d="M25.8885 16.6649C25.8801 16.763 25.8339 16.8624 25.7807 16.9408C25.7107 17.0417 25.6014 17.1369 25.6098 17.2699C25.6112 17.3063 25.6616 17.3133 25.6729 17.2783C25.6883 17.2307 25.7275 17.1859 25.7583 17.1467C25.7961 17.0991 25.8353 17.0515 25.8703 17.0025C25.9333 16.9156 25.9725 16.8008 25.9865 16.6958C25.9879 16.6832 25.9894 16.6677 25.9908 16.6523C25.9557 16.6593 25.9235 16.6621 25.8913 16.6635L25.8885 16.6649Z" fill="white"/>
<path d="M22.2383 17.359C22.2383 17.359 22.4189 17.8351 22.4609 18.3337C22.503 18.8308 22.4722 19.0745 22.4722 19.0745C22.4722 19.0745 23.1822 19.4876 24.0182 19.3392C24.8543 19.1907 25.161 18.7776 25.4159 18.3645C25.6693 17.9514 25.7548 17.1041 25.7548 17.1041C25.7548 17.1041 25.7436 16.8394 25.6805 16.67C25.6175 16.5005 25.5531 16.4053 25.5531 16.4053C25.5531 16.4053 24.5154 16.4053 23.965 16.5747C23.4146 16.7442 22.2397 17.3576 22.2397 17.3576L22.2383 17.359Z" fill="#D1E1EF"/>
<path d="M33.1408 49.797C33.1408 49.797 31.1928 51.126 31.1074 51.4859C31.0219 51.8458 31.8902 52.0153 32.9924 51.5279C34.0931 51.0406 34.7345 50.8445 34.7555 50.4006C34.7765 49.9566 34.6757 49.1094 34.6757 49.1094L33.1086 49.4483L33.1408 49.797Z" fill="#193447"/>
<path d="M41.5762 49.6405C41.5762 49.6405 43.7091 50.646 43.8505 50.9877C43.9906 51.3294 43.1601 51.6347 41.9964 51.3266C40.8326 51.0199 40.1688 50.9275 40.0778 50.4905C39.9867 50.055 39.9531 49.2021 39.9531 49.2021L41.5538 49.289L41.5776 49.6391L41.5762 49.6405Z" fill="#193447"/>
<path d="M35.1446 23.2325C35.1558 23.4201 35.1908 23.6036 35.2538 23.7815C35.2861 23.8739 35.3281 23.9607 35.3645 24.0517C35.3953 24.1302 35.4247 24.21 35.4835 24.2716C35.5241 24.315 35.6053 24.3892 35.667 24.3934C35.7412 24.399 35.709 24.3178 35.6796 24.2856C35.6236 24.2226 35.5563 24.1806 35.5185 24.1021C35.4779 24.0195 35.4443 23.9327 35.4065 23.8487C35.3183 23.6484 35.2706 23.4341 35.2258 23.2199C35.216 23.1751 35.1418 23.1835 35.1446 23.2311V23.2325Z" fill="white"/>
<path d="M38.0117 25.0401C38.0117 25.0401 37.887 25.435 37.8716 25.6577C37.859 25.8327 37.8814 26.1226 37.8814 26.1226C37.8814 26.1226 37.67 26.8775 37.1196 26.806C36.5692 26.7332 36.4922 26.1184 36.4922 26.1184C36.4922 26.1184 36.5202 25.1255 36.5188 24.9505C36.5174 24.7754 38.0117 25.0401 38.0117 25.0401Z" fill="#A6684C"/>
<path d="M39.1056 26.2793C39.1056 26.2793 38.7611 26.2289 38.4684 26.1673C38.1757 26.1071 37.8382 25.8242 37.8382 25.8242C37.8382 25.8242 37.4348 26.1701 37.0357 26.2611C36.7486 26.2751 36.4909 25.6533 36.4909 25.6533C36.4909 25.6533 35.7067 25.8634 35.5583 25.855C35.4098 25.8452 35.295 25.8284 35.295 25.8284C35.295 25.8284 35.2039 27.3871 35.7361 28.5564C36.2683 29.7258 36.6338 29.9807 36.6338 29.9807C36.6338 29.9807 37.7499 29.1068 38.3339 28.0831C38.9179 27.0594 39.107 26.2793 39.107 26.2793H39.1056Z" fill="#D1E1EF"/>
<path d="M37.021 26.2764L37.3193 26.9318C37.3193 26.9318 37.2353 27.2665 36.9216 27.1937C36.6079 27.1208 36.5547 26.7777 36.5547 26.7777L37.021 26.2764Z" fill="#304859"/>
<path d="M36.8222 26.9933L36.0352 28.874C36.0352 28.874 36.269 29.7157 36.4287 29.8641C36.5897 30.0126 36.5827 30.1078 36.7956 29.9398C37.0071 29.7731 37.2507 29.4384 37.2507 29.4384L37.0365 26.9316C37.0365 26.9316 36.8614 27.0269 36.8208 26.9919L36.8222 26.9933Z" fill="#304859"/>
<path d="M37.8749 25.7729C37.8749 25.7729 37.6382 25.997 37.4072 26.1174C37.1775 26.2378 37.0234 26.2756 37.0234 26.2756C37.0234 26.2756 37.0683 26.4381 37.1943 26.7322C37.3189 27.0263 37.543 27.382 37.543 27.382C37.543 27.382 38.0149 26.8302 38.197 26.4759C38.3791 26.1216 38.4127 25.9647 38.4127 25.9647L37.8763 25.7715L37.8749 25.7729Z" fill="white"/>
<path d="M37.0224 26.2717L36.353 27.0461C36.353 27.0461 36.15 26.6988 36.0547 26.3067C35.9623 25.9244 35.9875 25.6919 35.9875 25.6919L36.4973 25.5967C36.4973 25.5967 36.5519 25.7479 36.6821 25.937C36.7956 26.0994 37.0224 26.2717 37.0224 26.2717Z" fill="white"/>
<path d="M32.8992 36.7422C32.8992 36.7422 32.7088 41.8566 32.804 44.4292C32.8992 47.0018 32.9314 49.8292 32.9314 49.8292C32.9314 49.8292 33.3124 50.0827 33.979 50.0827C34.6456 50.0827 34.8682 49.8923 34.8682 49.8923C34.8682 49.8923 35.5993 42.9363 35.9158 40.7446C36.2337 38.553 36.3611 37.2505 36.3611 37.2505L32.8992 36.7422Z" fill="#005BA6"/>
<path d="M36.7773 37.1876C36.7773 37.1876 38.3332 44.0161 38.906 46.2077C39.4774 48.3994 39.8905 49.8601 39.8905 49.8601C39.8905 49.8601 40.5571 49.9553 41.0977 49.7648C41.6382 49.5744 41.7643 49.4469 41.7643 49.4469C41.7643 49.4469 41.3512 43.222 40.938 40.7447C40.5249 38.2673 40.1118 36.5518 40.1118 36.5518L36.7773 37.1876Z" fill="#005BA6"/>
<path d="M43.9375 20.9842C43.9375 20.9842 44.3856 20.1286 44.6013 19.7168C44.8338 19.2743 44.9836 19.0082 44.9836 19.0082C44.9836 19.0082 44.8114 18.6511 44.7638 18.3724C44.7161 18.0951 44.7119 17.8487 44.8954 17.9551C45.0789 18.0615 45.2511 18.5475 45.2511 18.5475C45.2511 18.5475 45.7525 18.0013 46.0536 17.7408C46.314 17.5153 46.4821 17.4705 46.5451 17.5448C46.6081 17.619 46.4443 17.7884 46.328 17.9159C46.2118 18.0433 45.7889 18.5573 45.7889 18.5573C45.7889 18.5573 46.3406 18.0825 46.6992 17.9635C46.9848 17.8683 47.1249 17.8725 47.1543 17.9523C47.1865 18.0363 47.0269 18.1427 46.737 18.2912C46.4625 18.4312 46.097 18.7155 46.097 18.7155C46.097 18.7155 46.863 18.3808 47.1319 18.385C47.37 18.3892 47.2943 18.5195 47.1921 18.5881C47.0535 18.6791 46.2678 19.0026 46.2678 19.0026C46.2678 19.0026 46.9904 18.843 47.1613 18.9298C47.3167 19.0096 47.0941 19.1174 46.8294 19.1917C46.5647 19.2659 45.9863 19.4648 45.7721 19.5768C45.5578 19.6888 45.3071 20.1846 45.1699 20.5305C45.0368 20.8652 44.803 21.5934 44.803 21.5934L43.9375 20.9842Z" fill="#A6684C"/>
<path d="M30.4471 20.2513C30.4471 20.2513 30.2818 19.4671 30.2608 19.2822C30.2398 19.0988 30.2104 18.9587 30.2104 18.9587C30.2104 18.9587 29.8813 18.6954 29.7469 18.1325C29.611 17.5695 29.8603 17.5079 29.9345 17.5191C30.0073 17.5303 30.0437 17.5835 30.0437 17.5835C30.0437 17.5835 30.083 17.4434 30.2118 17.3902C30.3406 17.337 30.3868 17.414 30.3868 17.414C30.3868 17.414 30.4583 17.2194 30.6053 17.2418C30.7524 17.2642 30.7902 17.358 30.7902 17.358C30.7902 17.358 30.9022 17.1367 31.1053 17.1634C31.3083 17.19 31.2747 17.6675 31.2747 17.6675C31.2747 17.6675 31.5674 17.6437 31.6612 18.0722C31.7551 18.5008 31.1977 18.8677 31.1977 18.8677C31.1977 18.8677 31.3447 19.8116 31.4106 19.9348C31.475 20.0594 30.4471 20.2499 30.4471 20.2499V20.2513Z" fill="#A6684C"/>
<path d="M36.2689 20.0305C35.7353 20.3862 35.395 20.7713 35.3068 22.1927C35.2186 23.6142 35.5533 24.7737 36.2913 25.2443C37.1792 25.8101 38.2015 25.6308 38.8261 25.0342C39.4521 24.4376 40.1425 22.893 40.3302 22.0569C40.5178 21.2194 39.2294 19.896 38.5012 19.7168C37.7716 19.5361 36.7464 19.714 36.2689 20.0319V20.0305Z" fill="#A6684C"/>
<path d="M35.7201 22.9999C35.7201 22.9999 35.363 21.965 34.9064 22.2731C34.4499 22.5812 34.7034 23.217 34.9933 23.294C35.5184 23.4341 35.7201 22.9999 35.7201 22.9999Z" fill="#A6684C"/>
<path d="M32.2667 19.5562C32.2667 19.5562 32.3941 22.0013 33.4095 23.7491C34.4248 25.4968 35.5591 25.7825 35.5591 25.7825C35.5591 25.7825 36.1949 28.6198 36.3532 29.0007C36.5114 29.3816 38.6289 26.4813 38.8305 26.078C39.0532 25.9828 40.969 25.5598 42.2392 23.2085C43.5094 20.8572 43.9855 19.2383 43.9855 19.2383C43.9855 19.2383 45.0499 19.7466 45.7641 20.4132C46.4209 21.0266 46.6534 21.3978 46.6534 21.3978C46.6534 21.3978 45.8915 23.9073 44.239 25.6537C42.5879 27.4 40.6175 28.7346 40.6175 28.7346C40.6175 28.7346 40.9662 33.7538 41.1889 35.4049C41.3457 36.57 41.686 38.7827 41.9087 39.7028C42.1314 40.6243 42.5123 41.8623 42.5123 41.8623C42.5123 41.8623 40.871 43.3762 36.0745 42.8678C31.278 42.3594 30.47 40.6033 30.47 40.6033C30.47 40.6033 32.009 35.6584 32.5146 33.9498C32.8689 32.7497 33.5383 29.9558 33.6489 29.222C33.7596 28.4881 33.789 28.0666 33.789 28.0666C33.789 28.0666 31.9152 27.4952 30.4854 25.0809C29.0555 22.6665 29.2782 20.5813 29.2782 20.5813C29.2782 20.5813 29.851 20.213 30.708 19.9357C31.7878 19.587 32.2639 19.5548 32.2639 19.5548L32.2667 19.5562Z" fill="#193447"/>
<path d="M40.7866 21.6153C40.732 21.4655 40.6437 21.3492 40.5499 21.2596C40.5877 21.0873 40.5737 20.8451 40.5541 20.6728C40.4589 19.8312 39.0374 18.9335 37.9255 18.9657C36.8135 18.9979 36.2548 19.4446 36.0195 20.0062C35.8304 20.4557 35.4803 20.4291 35.2016 21.0299C34.8473 21.7946 35.2815 22.8477 35.2815 22.8477C35.2815 22.8477 35.4621 20.8731 36.0517 20.3703C36.3486 20.1182 36.448 20.2275 37.1945 20.5762C37.9409 20.9249 39.2321 20.7568 39.5906 20.9473C39.8609 21.0901 39.9785 21.2988 39.9337 21.6013C39.8413 22.2399 39.6326 22.9485 39.6746 23.5297C39.6746 23.5297 39.9911 23.3827 40.246 23.1278C40.7964 22.5774 40.9644 22.0985 40.7866 21.6139V21.6153Z" fill="#193447"/>
<path d="M36.0476 22.4889C36.0392 22.6023 36.105 22.7158 36.2002 22.7774C36.2367 22.8012 36.2787 22.8194 36.3221 22.8208C36.3963 22.825 36.4691 22.7844 36.5209 22.7312C36.6918 22.5589 36.675 22.241 36.4327 22.1402C36.2283 22.0548 36.0616 22.3069 36.0476 22.4875V22.4889Z" fill="#193447"/>
<path d="M38.0749 22.8659C38.0665 22.9793 38.1324 23.0927 38.2276 23.1544C38.264 23.1782 38.306 23.1964 38.3494 23.1978C38.4237 23.202 38.4965 23.1614 38.5483 23.1081C38.7191 22.9359 38.7023 22.618 38.4601 22.5172C38.2556 22.4317 38.0889 22.6838 38.0749 22.8645V22.8659Z" fill="#193447"/>
<path d="M36.0309 21.7929C36.0505 21.7803 36.0701 21.7705 36.0911 21.7607C36.0813 21.7649 36.0911 21.7607 36.0953 21.7593C36.1009 21.7579 36.1065 21.7551 36.1121 21.7537C36.1233 21.7495 36.1359 21.7453 36.1471 21.7425C36.1751 21.7327 36.2017 21.7243 36.2298 21.7173C36.2424 21.7145 36.2564 21.7117 36.2704 21.7089C36.2788 21.7075 36.2872 21.7061 36.2942 21.7047C36.2956 21.7047 36.318 21.7005 36.3068 21.7019C36.3026 21.7019 36.3026 21.7019 36.3068 21.7019C36.3152 21.7019 36.325 21.6991 36.3334 21.6977C36.3348 21.6977 36.3572 21.6949 36.346 21.6963C36.3348 21.6977 36.3572 21.6963 36.3586 21.6963C36.367 21.6963 36.3754 21.6949 36.3824 21.6949C36.4104 21.6935 36.437 21.6949 36.465 21.6949C36.479 21.6949 36.4916 21.6963 36.5056 21.6977C36.5098 21.6977 36.5154 21.6977 36.5196 21.6991C36.5421 21.7019 36.5042 21.6963 36.5266 21.6991C36.5364 21.7005 36.5477 21.7019 36.5575 21.7033C36.5659 21.7033 36.5477 21.7005 36.5617 21.7033C36.5813 21.7075 36.5981 21.7103 36.6191 21.7047H36.5883C36.6121 21.7075 36.6317 21.7243 36.6569 21.7187C36.6681 21.7159 36.6765 21.7061 36.6807 21.6949C36.6863 21.6767 36.6793 21.6598 36.6709 21.6444C36.6681 21.6388 36.6639 21.6346 36.6611 21.629C36.6527 21.615 36.6639 21.6346 36.6583 21.6248C36.6485 21.6052 36.6415 21.594 36.6219 21.5814C36.6191 21.58 36.6037 21.5688 36.6149 21.5772C36.5953 21.5632 36.5799 21.5534 36.5575 21.545C36.4902 21.517 36.4132 21.517 36.3418 21.5254C36.2017 21.5394 36.0547 21.5912 35.9497 21.6865C35.8936 21.7383 35.9665 21.8349 36.0323 21.7929H36.0309Z" fill="#193447"/>
<path d="M38.3506 21.9891C38.5299 22.0367 38.6993 22.1109 38.8267 22.2454C38.8548 22.2748 38.9192 22.3392 38.9612 22.3C39.0032 22.2608 38.9556 22.1837 38.9276 22.1501C38.8674 22.0773 38.7805 22.0171 38.6937 21.9807C38.5915 21.9373 38.485 21.9107 38.3758 21.8925C38.3492 21.8883 38.3226 21.8995 38.3142 21.9275C38.3072 21.9527 38.3226 21.9821 38.3492 21.9891H38.3506Z" fill="#193447"/>
<path d="M32.5481 21.4434C32.0397 21.505 31.2443 21.6422 30.5091 21.9419C30.0077 22.1464 29.6688 22.348 29.4531 22.5021C29.5063 22.7402 29.575 22.9936 29.6604 23.2611C29.9377 23.0833 30.4054 22.8242 31.0566 22.5945C31.7512 22.3508 32.3772 22.2458 32.7511 22.2024C32.6713 21.9433 32.6041 21.6884 32.5481 21.4434Z" fill="#005BA6"/>
<path d="M45.2891 22.2784C44.7527 21.6482 43.7851 21.1818 43.3229 20.9844C43.2291 21.2014 43.124 21.4353 43.0078 21.6832C43.3495 21.826 43.9503 22.1257 44.5259 22.6579C45.0496 23.1438 45.3493 23.6284 45.5048 23.9379C45.6574 23.6788 45.7933 23.4253 45.9137 23.1831C45.7863 22.9422 45.5888 22.6327 45.2863 22.277L45.2891 22.2784Z" fill="#005BA6"/>
<path d="M36.2652 29.6177C36.2358 29.9818 36.1952 30.3445 36.1616 30.7086C36.1238 31.1288 36.1 31.5489 36.0789 31.969C36.0341 32.8555 35.9865 33.742 35.9151 34.6284C35.8437 35.5093 35.7456 36.3874 35.656 37.2669C35.5664 38.1435 35.4922 39.0216 35.4137 39.8983C35.3703 40.3814 35.3297 40.8646 35.2751 41.3463C35.2219 41.8127 35.1533 42.2776 35.1056 42.7454C35.1014 42.7888 35.1757 42.8 35.1827 42.7552C35.4431 41.0494 35.5692 39.3283 35.733 37.6114C35.8171 36.7263 35.9165 35.8426 35.9879 34.9562C36.0579 34.0711 36.1042 33.1846 36.142 32.2967C36.163 31.8094 36.1812 31.322 36.219 30.8361C36.2512 30.4285 36.2974 30.0224 36.3282 29.6149C36.331 29.5743 36.2694 29.5757 36.2652 29.6149V29.6177Z" fill="#475D6C"/>
<path d="M39.5121 25.8213C39.1578 25.9796 38.9029 26.0468 38.8301 26.0776C38.6284 26.4795 36.511 29.3812 36.3527 29.0003C36.1945 28.6194 35.5587 25.7821 35.5587 25.7821C35.5587 25.7821 35.3444 25.7275 35.0195 25.5244C35.1946 26.4417 35.6875 28.9079 36.0138 29.4568C36.4158 30.1346 37.305 29.1809 38.1313 28.2076C38.7069 27.5284 39.2418 26.4277 39.5121 25.8241V25.8213Z" fill="#005BA6"/>
<path d="M26.9913 17.8582C26.9913 17.8582 26.7098 17.8288 26.707 18.1257C26.7056 18.473 26.8261 19.0318 27.0628 19.3525C27.3092 19.6858 27.4787 19.8594 27.7644 19.627C28.0501 19.3945 28.2307 18.6103 28.0291 18.2826C27.8274 17.9549 26.9913 17.8596 26.9913 17.8596V17.8582Z" fill="#C69E8C"/>
<path d="M26.7812 17.9224C26.7812 17.9224 27.1916 17.8398 27.5123 18.2795C27.7658 18.6282 27.7924 18.9853 27.756 19.222C27.7083 19.5231 27.5809 19.7276 27.5809 19.7276C27.5809 19.7276 27.6439 19.7192 27.8274 19.6267C28.3763 19.348 29.7194 18.7375 30.2655 18.5974C30.9643 18.4168 32.0973 18.3537 32.7849 18.3957C33.4725 18.4378 34.2666 18.6072 34.2666 18.6072C34.2666 18.6072 34.3744 18.2263 34.2904 17.5905C34.2063 16.9547 33.838 16.543 33.838 16.543C33.838 16.543 32.0651 17.5177 31.138 17.6549C29.5821 17.8846 28.1677 17.7445 27.417 17.7529C26.9619 17.7585 26.7812 17.9224 26.7812 17.9224Z" fill="#FFE2AA"/>
<path d="M31.2153 18.4405C31.2195 18.3438 31.2195 18.2458 31.2069 18.1492C31.1859 17.9797 31.1256 17.8159 31.0444 17.666C30.7657 17.7052 30.4926 17.7332 30.2266 17.7514C30.2924 17.8509 30.34 17.9643 30.3736 18.0777C30.4156 18.2206 30.4408 18.3704 30.4492 18.5189C30.4492 18.5301 30.4492 18.5413 30.4492 18.5525C30.6803 18.5035 30.9436 18.4671 31.2153 18.4391V18.4405Z" fill="#B73E00"/>
<path d="M31.2192 18.3761C31.2108 18.3845 31.1982 18.3859 31.1856 18.3873C30.8369 18.4391 30.484 18.5232 30.1465 18.6254C30.0905 18.6422 30.0344 18.6604 29.9812 18.6842C30.1003 18.8677 30.2109 18.9587 30.2109 18.9587C30.2109 18.9587 30.2403 19.0974 30.2613 19.2822C30.2655 19.3256 30.2795 19.4026 30.2963 19.4951C30.4882 19.4167 30.673 19.3172 30.8775 19.2668C31.0007 19.2374 31.1268 19.2192 31.2542 19.2024C31.222 19.0161 31.1996 18.8677 31.1996 18.8677C31.1996 18.8677 31.757 18.5008 31.6631 18.0722C31.5693 17.6437 31.2766 17.6675 31.2766 17.6675C31.2766 17.6675 31.3102 17.19 31.1072 17.1634C30.9041 17.1367 30.7921 17.358 30.7921 17.358C30.7921 17.358 30.7529 17.2642 30.6072 17.2418C30.4602 17.2194 30.3887 17.414 30.3887 17.414C30.3887 17.414 30.3425 17.337 30.2137 17.3902C30.0849 17.4434 30.0456 17.5835 30.0456 17.5835C30.0456 17.5835 30.0092 17.5289 29.9364 17.5191C29.8818 17.5107 29.7277 17.5429 29.7109 17.7949C29.7614 17.7893 29.844 17.7949 29.8804 17.8258C29.8972 17.8398 29.907 17.8608 29.9168 17.8804C29.956 17.97 29.9784 18.0666 29.9784 18.1647C29.9784 18.2011 29.977 18.2375 29.9882 18.2711C29.9994 18.3047 30.0302 18.3355 30.0666 18.3355C30.1017 18.3355 30.1381 18.3061 30.1591 18.2781C30.1885 18.2347 30.2081 18.1941 30.2193 18.1381C30.2277 18.1899 30.2431 18.2459 30.2865 18.2767C30.3285 18.3061 30.3901 18.3033 30.4294 18.2711C30.4868 18.2249 30.4882 18.1353 30.498 18.0862C30.512 18.1451 30.582 18.2417 30.6422 18.2375C30.7977 18.2291 30.8243 18.089 30.8243 18.0288C30.8481 18.075 30.9041 18.1325 30.9811 18.1325C31.103 18.1325 31.1562 18.0456 31.1828 17.9686C31.1982 17.9658 31.2304 18.0148 31.2416 18.047C31.2766 18.1521 31.2752 18.2501 31.2374 18.3537C31.2346 18.3635 31.2304 18.3733 31.222 18.3789L31.2192 18.3761Z" fill="#A6684C"/>
<path d="M38.573 25.1271C38.6682 25.1033 38.7663 25.0949 38.8601 25.0697C38.9413 25.0473 39.0197 25.0081 39.0884 24.9591C39.2186 24.8652 39.3208 24.7434 39.4301 24.6272C39.5295 24.5221 39.6275 24.4157 39.7087 24.2953C39.762 24.2168 39.888 24.0348 39.783 23.9536C39.7718 23.9452 39.7494 23.9452 39.7382 23.9536C39.6919 23.9872 39.6905 24.0418 39.6723 24.0922C39.6513 24.151 39.6149 24.2056 39.5771 24.2561C39.5015 24.3611 39.4119 24.4549 39.325 24.5516C39.2256 24.6622 39.1332 24.7812 39.0127 24.8681C38.8699 24.9703 38.699 24.9857 38.545 25.0613C38.5086 25.0795 38.5338 25.1355 38.573 25.1257V25.1271Z" fill="white"/>
<path d="M34.9326 22.0856C35.0852 22.2635 35.1903 22.4694 35.2799 22.6836C35.3233 22.7873 35.3653 22.8909 35.4129 22.9931C35.4494 23.0702 35.504 23.2298 35.6034 23.2452C35.6174 23.248 35.6328 23.2424 35.637 23.227C35.651 23.178 35.623 23.129 35.602 23.0856C35.5754 23.0337 35.5488 22.9833 35.5236 22.9301C35.4718 22.8237 35.427 22.7144 35.3793 22.6066C35.2841 22.3909 35.1763 22.1809 34.9984 22.0226C34.955 21.9834 34.8962 22.0422 34.934 22.087L34.9326 22.0856Z" fill="white"/>
<path d="M39.3516 23.6732C39.3516 23.6732 40.0406 22.8231 40.3655 23.267C40.689 23.7124 40.2352 24.2235 39.9355 24.1969C39.3936 24.1493 39.353 23.6718 39.353 23.6718L39.3516 23.6732Z" fill="#A6684C"/>
<path d="M38.8153 24.0793C38.9273 24.0317 39.031 23.9547 39.1304 23.8846C39.2326 23.8132 39.3349 23.7418 39.4357 23.669C39.5281 23.6018 39.6192 23.5331 39.7088 23.4617C39.7648 23.4169 39.8152 23.3679 39.8768 23.3301C39.9833 23.2657 40.1079 23.2152 40.2339 23.2152C40.2886 23.2152 40.3488 23.225 40.388 23.2643C40.4328 23.3091 40.4272 23.3749 40.4608 23.4267C40.472 23.4435 40.4972 23.4449 40.507 23.4267C40.5771 23.3077 40.4566 23.1704 40.3432 23.141C40.2073 23.1046 40.0547 23.1508 39.9259 23.1984C39.7424 23.2657 39.6052 23.3973 39.4511 23.5135C39.3349 23.6004 39.2158 23.6844 39.0954 23.7684C38.9848 23.8454 38.8615 23.9253 38.7719 24.0275C38.7439 24.0583 38.7789 24.0975 38.8139 24.0821L38.8153 24.0793Z" fill="white"/>
<path d="M35.552 23.0081C35.552 23.0081 36.7746 22.6902 37.4902 22.9283C38.2044 23.1664 39.0461 23.9604 39.0461 23.9604C39.0461 23.9604 38.8234 24.6116 38.7926 24.8819C38.7604 25.1522 38.7604 25.1998 38.7604 25.1998C38.7604 25.1998 37.9831 25.6703 37.2619 25.5751C36.4567 25.4687 36.171 25.3104 35.7579 24.7545C35.3447 24.1985 35.552 23.0081 35.552 23.0081Z" fill="#D1E1EF"/>
<path d="M11.1907 22.1613C11.2313 22.0479 11.2775 21.9358 11.3013 21.8168C11.3237 21.7062 11.3587 21.5269 11.2565 21.4555C11.2271 21.4345 11.1837 21.4625 11.1851 21.4961C11.1851 21.5045 11.1865 21.5129 11.1879 21.5213V21.4933C11.1837 21.5213 11.1907 21.5465 11.1949 21.5745C11.1977 21.5913 11.2005 21.6221 11.2019 21.6446C11.2033 21.702 11.1991 21.7608 11.1893 21.8168C11.1725 21.926 11.1501 22.0339 11.1333 22.1431C11.1277 22.1809 11.1767 22.1949 11.1907 22.1585V22.1613Z" fill="white"/>
<path d="M11.5225 46.3161L12.3684 45.2784L11.6906 44.4102L10.8125 45.193L11.5225 46.3161Z" fill="#FFAF98"/>
<path d="M11.0698 45.0537C11.0698 45.0537 11.067 45.3142 11.2491 45.6643C11.4199 45.9934 11.5712 46.1895 11.5712 46.1895C11.5712 46.1895 11.651 45.901 11.8723 45.9136C12.0949 45.9262 11.8947 46.0942 11.8807 46.4499C11.8667 46.8057 11.9367 47.6935 11.8807 47.9512C11.8247 48.2089 11.6188 48.3867 11.4199 48.2425C11.2211 48.0983 10.7771 47.3658 10.5909 46.6012C10.406 45.8366 10.2814 45.4668 10.4158 45.2876C10.5503 45.1083 11.0684 45.0537 11.0684 45.0537H11.0698Z" fill="#193447"/>
<path d="M7.79276 50.5159L7.69753 51.1825C7.69753 51.1825 7.33202 51.373 7.31661 51.6433C7.30121 51.9136 8.14287 52.7552 8.74646 53.1992C9.35004 53.6445 9.81499 53.926 9.74637 53.4218C9.68755 52.9877 8.93692 51.8814 8.85709 51.6111C8.77727 51.3408 8.95232 50.1028 8.95232 50.1028L7.88799 49.96L7.79276 50.5159Z" fill="#FFAF98"/>
<path d="M8.46094 23.961C8.46094 23.961 8.69901 24.3265 8.71442 24.5016C8.72982 24.6766 8.69901 25.0253 8.69901 25.0253C8.69901 25.0253 8.9847 25.7563 9.52527 25.6289C10.0658 25.5015 10.0812 24.8825 10.0812 24.8825C10.0812 24.8825 9.9538 23.898 9.9384 23.7229C9.92299 23.5479 8.46094 23.961 8.46094 23.961Z" fill="#FFAF98"/>
<path d="M7.51953 24.6983C7.51953 24.6983 7.80522 24.7935 8.10211 24.7515C8.399 24.7095 8.69449 24.6241 8.69449 24.6241C8.69449 24.6241 9.07541 24.9952 9.46753 25.1114C9.75322 25.1436 10.0501 24.54 10.0501 24.54C10.0501 24.54 10.833 24.6885 10.9814 24.6885C11.1298 24.6885 11.2461 24.6773 11.2461 24.6773C11.2461 24.6773 11.2251 26.3508 10.6215 27.4824C10.0179 28.6139 9.63699 28.8478 9.63699 28.8478C9.63699 28.8478 8.57826 27.9053 8.0601 26.8466C7.54194 25.7878 7.51953 24.6969 7.51953 24.6969V24.6983Z" fill="#D1E1EF"/>
<path d="M11.5246 39.5241C11.5246 39.5241 12.7682 40.849 12.89 41.6024C13.0118 42.3558 10.9336 44.8318 10.9336 44.8318C10.9336 44.8318 11.0232 45.2463 11.2501 45.5544C11.533 45.9367 11.9349 46.1902 11.9349 46.1902C11.9349 46.1902 15.2301 42.7339 15.6601 41.5002C16.09 40.2664 14.5705 38.2385 13.9571 37.6392C13.3423 37.0398 11.526 39.5255 11.526 39.5255L11.5246 39.5241Z" fill="#B73E00"/>
<path d="M7.33594 39.4417C7.33594 39.4417 7.97173 42.188 7.88211 45.1737C7.79668 48.011 7.45497 50.8833 7.45497 50.8833C7.45497 50.8833 7.87931 51.0737 8.38066 51.1591C8.8134 51.232 9.18591 51.1353 9.18591 51.1353C9.18591 51.1353 9.94355 47.6679 10.4519 43.9623C10.9631 40.2358 10.6648 38.376 10.6648 38.376L7.33594 39.4431V39.4417Z" fill="#B73E00"/>
<path d="M15.1929 19.0726C15.1929 19.0726 15.4044 18.1301 15.4996 17.6749C15.5948 17.2198 15.6158 16.9341 15.6158 16.9341C15.6158 16.9341 15.3119 16.6806 15.1523 16.4468C14.9926 16.2129 14.8876 15.9916 15.0991 16.0126C15.3105 16.0336 15.6676 16.4047 15.6676 16.4047C15.6676 16.4047 16.3301 15.5743 16.6311 15.3138C16.893 15.0897 17.0597 15.0435 17.1241 15.1177C17.1885 15.192 17.0233 15.3614 16.907 15.4889C16.7908 15.6163 16.3665 16.1289 16.3665 16.1289C16.3665 16.1289 16.9182 15.6555 17.2767 15.5365C17.5624 15.4412 17.7025 15.4455 17.7319 15.5253C17.7641 15.6093 17.6044 15.7157 17.3132 15.8642C17.0387 16.0042 16.6732 16.2871 16.6732 16.2871C16.6732 16.2871 17.4406 15.9524 17.7081 15.958C17.9462 15.9622 17.8705 16.0925 17.7683 16.1611C17.6297 16.2521 16.8426 16.5742 16.8426 16.5742C16.8426 16.5742 17.5666 16.416 17.7361 16.5028C17.8915 16.5826 17.6689 16.6904 17.4042 16.7647C17.1395 16.8389 16.7166 16.9341 16.5681 17.1246C16.4197 17.315 16.3034 17.941 16.2614 18.3107C16.2208 18.6678 16.1872 19.4325 16.1872 19.4325L15.1915 19.0726H15.1929Z" fill="#FFAF98"/>
<path d="M3.42325 18.6214C3.42325 18.6214 3.30141 17.6635 3.24819 17.2014C3.19638 16.7392 3.20198 16.4521 3.20198 16.4521C3.20198 16.4521 3.52828 16.2281 3.70894 16.011C3.88959 15.7939 4.01563 15.5825 3.80277 15.5839C3.5899 15.5839 3.19918 15.92 3.19918 15.92C3.19918 15.92 2.618 15.0307 2.34211 14.7436C2.10264 14.4957 1.94019 14.4341 1.87017 14.5027C1.80015 14.57 1.94719 14.7548 2.05082 14.8921C2.15445 15.0293 2.52837 15.5811 2.52837 15.5811C2.52837 15.5811 2.02281 15.0573 1.67691 14.9047C1.40102 14.7828 1.26238 14.7744 1.22457 14.8514C1.18535 14.9327 1.3338 15.0531 1.60969 15.2282C1.87017 15.3934 2.20767 15.7099 2.20767 15.7099C2.20767 15.7099 1.47524 15.3052 1.20776 15.2842C0.969688 15.266 1.03271 15.4032 1.12934 15.4802C1.25958 15.5839 2.01161 15.9788 2.01161 15.9788C2.01161 15.9788 1.30579 15.7533 1.12934 15.8233C0.968288 15.8878 1.17835 16.0166 1.43603 16.116C1.69231 16.2141 2.10544 16.3499 2.23428 16.553C2.36452 16.756 2.42194 17.3904 2.42894 17.7629C2.43594 18.1229 2.39673 18.8875 2.39673 18.8875L3.42185 18.6228L3.42325 18.6214Z" fill="#FFAF98"/>
<path d="M10.0157 18.323C10.0157 18.323 10.7776 19.3398 11.0535 20.7374C11.3294 22.135 11.1515 23.3282 10.4821 23.8926C9.67684 24.5704 8.64052 24.5284 7.94171 24.02C7.24289 23.5116 6.35361 22.072 6.05672 21.2668C5.75983 20.4615 6.88298 18.7894 7.5818 18.5135C8.28061 18.2376 10.0171 18.323 10.0171 18.323H10.0157Z" fill="#FFAF98"/>
<path d="M7.10682 22.6023C7.10682 22.6023 6.23855 21.9357 6.02708 22.4441C5.81562 22.9524 6.37579 23.3445 6.66288 23.2493C7.17824 23.0771 7.10822 22.6037 7.10822 22.6037L7.10682 22.6023Z" fill="#FFAF98"/>
<path d="M10.7709 21.2719C10.7709 21.2719 10.9362 20.2006 11.4291 20.4443C11.9221 20.6893 11.7232 21.4008 11.4445 21.5156C10.9432 21.7243 10.7695 21.2705 10.7695 21.2705L10.7709 21.2719Z" fill="#FFAF98"/>
<path d="M10.9383 24.6476C10.9383 24.6476 12.5586 24.2023 13.7014 22.1072C14.8455 20.0108 15.099 18.1048 15.099 18.1048C15.099 18.1048 16.4966 18.8358 17.1955 19.2797C17.8943 19.7251 17.9895 19.9155 17.9895 19.9155C17.9895 19.9155 17.3537 22.2346 15.5443 23.918C13.735 25.6013 12.4004 26.3953 12.1777 27.0619C11.955 27.7285 11.5419 28.5548 12.0503 31.0644C12.5586 33.574 13.9885 36.1143 14.4646 36.8454C14.9408 37.5764 15.3217 38.0525 15.3217 38.0525C15.3217 38.0525 14.4954 39.3227 11.9872 40.1812C9.47767 41.0383 6.18525 41.0817 6.18525 41.0817C6.18525 41.0817 5.3912 39.0805 5.26376 35.0472C5.19234 32.7925 5.93037 27.2972 5.83514 27.0423C5.73991 26.7889 3.06088 24.2681 1.8537 22.1086C0.64653 19.9491 0.488281 18.7742 0.488281 18.7742C0.488281 18.7742 1.01064 18.0543 2.06097 17.6468C3.1253 17.2337 3.85492 17.2491 3.85492 17.2491C3.85492 17.2491 3.7919 19.3455 4.64897 21.2823C5.50604 23.2205 7.6557 24.6812 7.6557 24.6812C7.6557 24.6812 7.84616 26.0998 8.80966 27.5087C9.45666 28.454 9.66672 28.6836 9.66672 28.6836C9.66672 28.6836 10.2591 27.7481 10.619 26.5872C10.9999 25.359 10.9369 24.649 10.9369 24.649L10.9383 24.6476Z" fill="#193447"/>
<path d="M6.74359 22.525C6.74359 22.525 6.76459 21.6358 6.56293 20.9047C6.41729 20.3768 6.06578 19.9944 6.06578 19.9944C6.06578 19.9944 5.30394 19.825 5.11348 20.2269C4.92302 20.6288 5.25073 21.2969 5.74928 21.7408C6.24643 22.1861 6.74499 22.5236 6.74499 22.5236L6.74359 22.525Z" fill="#802800"/>
<path d="M6.22289 20.357C6.22289 20.357 6.42875 19.6736 7.27041 19.4831C8.11208 19.2927 10.462 19.2772 10.8443 19.007C11.2252 18.7367 11.2252 18.4356 10.9718 18.3236C10.7183 18.2129 10.5264 18.2129 10.5264 18.2129C10.5264 18.2129 10.7799 17.7368 10.3514 17.6892C9.92284 17.6415 9.4775 17.8796 9.4775 17.8796C9.4775 17.8796 9.93824 16.4498 8.76328 16.482C7.58831 16.5142 6.55619 17.9272 6.2537 18.7213C6.04083 19.2814 6.01562 20.1987 6.01562 20.1987L6.22149 20.357H6.22289Z" fill="#802800"/>
<path d="M10.168 18.948C10.168 18.948 10.4831 19.2631 10.7155 19.7715C10.948 20.2798 11.0881 20.8386 11.0881 20.8386C11.0881 20.8386 11.2155 20.2742 11.1203 19.6959C11.0124 19.0447 10.8318 18.7772 10.6945 18.682C10.5573 18.5867 10.168 18.9494 10.168 18.9494V18.948Z" fill="#802800"/>
<path d="M16.3282 20.3699C15.677 19.9595 15.0832 19.6907 14.7611 19.5576C14.7009 19.7607 14.6295 19.9791 14.5469 20.2102C14.834 20.3475 15.3339 20.6051 15.8829 20.9623C16.5047 21.367 16.8996 21.7521 17.0873 21.9552C17.2259 21.7185 17.3463 21.4902 17.45 21.2759C17.2567 21.0645 16.9038 20.7312 16.3282 20.3685V20.3699Z" fill="#005BA6"/>
<path d="M3.99915 19.0221C3.95294 18.7406 3.92213 18.4787 3.89972 18.249C3.58042 18.2952 3.07066 18.4241 2.36204 18.77C1.65062 19.1173 1.11986 19.5206 0.785156 19.8161C0.871983 20.0584 0.982617 20.3385 1.12686 20.6606C1.32012 20.4351 1.63382 20.1354 2.14078 19.7867C2.90541 19.2615 3.62524 19.0837 4.00055 19.0235L3.99915 19.0221Z" fill="#005BA6"/>
<path d="M12.4067 40.0195C12.0482 39.3977 11.8143 38.7227 11.5454 38.0589C11.2276 37.2732 10.9629 36.4666 10.7164 35.6557C10.4783 34.8701 10.2402 34.0774 10.0512 33.2792C9.88734 32.5832 9.80331 31.8718 9.74449 31.1603C9.71228 30.7766 9.69688 30.3901 9.70668 30.005C9.71648 29.6157 9.74869 29.2165 9.85513 28.8412C9.86493 28.8062 9.81171 28.7922 9.80051 28.8258C9.69268 29.1451 9.65346 29.4826 9.63246 29.8187C9.61005 30.1828 9.61425 30.5498 9.63246 30.9139C9.66887 31.6225 9.73749 32.3353 9.87893 33.0313C9.95316 33.3996 10.0512 33.7609 10.1492 34.1237C10.2641 34.548 10.3789 34.9709 10.4979 35.3939C10.736 36.2271 10.9979 37.0562 11.3228 37.86C11.4894 38.2731 11.6575 38.6849 11.8269 39.0966C11.9628 39.4271 12.1056 39.7618 12.3073 40.0573C12.3395 40.0447 12.3717 40.0335 12.4039 40.0209L12.4067 40.0195Z" fill="#475D6C"/>
<path d="M7.68055 51.0639C7.68055 51.0639 7.80379 51.2936 8.13009 51.5134C8.43678 51.7193 8.66505 51.8201 8.66505 51.8201C8.66505 51.8201 8.59643 51.5288 8.7981 51.4336C8.99976 51.3384 8.90453 51.5821 9.06278 51.9C9.22103 52.2179 9.70838 52.9643 9.7826 53.2178C9.85682 53.4712 9.76159 53.7261 9.51792 53.6939C9.27424 53.6617 8.53341 53.2332 8.00405 52.6506C7.47469 52.068 7.189 51.8033 7.22121 51.5807C7.25342 51.358 7.68195 51.0625 7.68195 51.0625L7.68055 51.0639Z" fill="#193447"/>
<path d="M9.47562 25.123L9.13672 25.7588C9.13672 25.7588 9.19974 26.0977 9.51764 26.0445C9.83554 25.9913 9.90976 25.6524 9.90976 25.6524L9.47562 25.123Z" fill="#304859"/>
<path d="M9.63727 25.8516L10.3039 27.7786C10.3039 27.7786 10.0182 28.6048 9.84873 28.7421C9.67928 28.8793 9.67928 28.9745 9.47762 28.7953C9.27596 28.6146 9.05469 28.2659 9.05469 28.2659L9.4258 25.7773C9.4258 25.7773 9.59525 25.8838 9.63727 25.8516Z" fill="#304859"/>
<path d="M7.6975 26.8005C8.3641 28.516 9.73093 29.4837 9.73093 29.4837C9.73093 29.4837 10.6202 28.7695 11.144 27.0217C11.4689 25.9378 11.5249 24.9659 11.5207 24.3819C11.1692 24.5752 10.9367 24.6396 10.9367 24.6396C10.9367 24.6396 10.9997 25.3496 10.6188 26.5778C10.2589 27.7388 9.66651 28.6742 9.66651 28.6742C9.66651 28.6742 9.45504 28.4446 8.80944 27.4993C7.84594 26.0904 7.65548 24.6718 7.65548 24.6718C7.65548 24.6718 7.45382 24.5346 7.14853 24.2881C7.14573 24.6606 7.20594 25.5359 7.6975 26.8005Z" fill="#005BA6"/>
<path d="M8.65695 24.5664C8.65695 24.5664 8.87961 24.8045 9.10228 24.9389C9.32495 25.0734 9.4748 25.121 9.4748 25.121C9.4748 25.121 9.41878 25.2792 9.27594 25.5663C9.13309 25.852 8.88662 26.1937 8.88662 26.1937C8.88662 26.1937 8.44968 25.6139 8.29143 25.2484C8.13318 24.8829 8.10938 24.7247 8.10938 24.7247L8.65695 24.5664Z" fill="white"/>
<path d="M9.47656 25.1199L10.0956 25.935C10.0956 25.935 10.3196 25.6017 10.4401 25.2151C10.5563 24.8398 10.5465 24.606 10.5465 24.606L10.0437 24.4785C10.0437 24.4785 9.98072 24.627 9.83787 24.8062C9.71464 24.9617 9.47796 25.1185 9.47796 25.1185L9.47656 25.1199Z" fill="white"/>
<path d="M6.14677 22.302C6.2266 22.2726 6.32463 22.2838 6.40726 22.2922C6.5389 22.3048 6.66914 22.3342 6.79798 22.365C6.93522 22.3972 7.07106 22.4378 7.2055 22.4784C7.26992 22.498 7.33294 22.5176 7.39596 22.5386C7.45758 22.5596 7.50519 22.5793 7.56961 22.5652C7.59342 22.5596 7.61023 22.5246 7.59482 22.5036C7.55281 22.4476 7.50519 22.4322 7.44077 22.4112C7.37215 22.3888 7.30213 22.3664 7.23211 22.3468C7.08647 22.3062 6.93802 22.2754 6.78957 22.2487C6.65793 22.2263 6.52629 22.2109 6.39325 22.2109C6.30502 22.2109 6.20979 22.2179 6.13137 22.2628C6.11036 22.2754 6.12437 22.3118 6.14818 22.3034L6.14677 22.302Z" fill="white"/>
<path d="M7.18083 23.5126C7.23125 23.6386 7.30127 23.7409 7.4007 23.8333C7.50013 23.9271 7.61076 24.0069 7.7256 24.0826C7.83483 24.1554 7.95947 24.2002 8.08971 24.2184C8.15973 24.2282 8.22976 24.2338 8.29978 24.2296C8.3628 24.2254 8.43982 24.2212 8.48323 24.1694C8.51264 24.1344 8.50004 24.0896 8.45803 24.0728C8.40481 24.0518 8.34599 24.0728 8.29138 24.0756C8.23396 24.0798 8.17654 24.0798 8.11912 24.0728C8.00008 24.0602 7.88805 24.0209 7.78722 23.9579C7.58696 23.8333 7.36569 23.6932 7.24385 23.4846C7.22565 23.4524 7.16683 23.4734 7.18223 23.5112L7.18083 23.5126Z" fill="white"/>
<path d="M11.2237 20.2782C11.0892 20.4099 10.9954 20.5779 10.9282 20.753C10.8946 20.8426 10.868 20.9336 10.8525 21.0275C10.8371 21.1185 10.8245 21.2151 10.8525 21.3048C10.8567 21.3174 10.868 21.3328 10.882 21.3342C10.8904 21.3342 10.8974 21.337 10.9044 21.3342C10.917 21.33 10.9324 21.3188 10.9338 21.3048C10.9464 21.2235 10.945 21.1395 10.9604 21.0583C10.9758 20.9701 11.001 20.8832 11.0318 20.7978C11.092 20.6368 11.1788 20.4785 11.2867 20.3441C11.3231 20.2979 11.2643 20.2348 11.2209 20.2782H11.2237Z" fill="white"/>
<path d="M10.9815 21.0566C10.609 21.0692 9.95637 21.2569 9.21835 21.523C8.60075 21.7471 7.27734 22.4263 7.27734 22.4263C7.27734 22.4263 7.55603 23.0229 7.60365 23.3239C7.67647 23.7819 7.65126 23.9611 7.65126 23.9611C7.65126 23.9611 8.80242 24.7384 9.59646 24.5311C10.6622 24.251 10.9773 23.4976 11.0963 23.0551C11.1832 22.733 11.2924 22.4137 11.2294 21.9599C11.1299 21.67 11.0879 21.3451 10.9815 21.0566Z" fill="#D1E1EF"/>
<path d="M7.80233 21.6558C7.85135 21.7594 7.96338 21.8238 8.07822 21.8308C8.12163 21.8336 8.16645 21.828 8.20566 21.8084C8.27288 21.7748 8.31489 21.7048 8.3345 21.632C8.39752 21.3981 8.22666 21.1306 7.96618 21.1628C7.74632 21.1908 7.72531 21.4905 7.80233 21.6544V21.6558Z" fill="#193447"/>
<path d="M9.75155 20.9751C9.80057 21.0787 9.9126 21.1431 10.0274 21.1502C10.0709 21.153 10.1157 21.1473 10.1549 21.1277C10.2221 21.0941 10.2641 21.0241 10.2837 20.9513C10.3467 20.7174 10.1759 20.4499 9.9154 20.4821C9.69553 20.5088 9.67453 20.8098 9.75155 20.9737V20.9751Z" fill="#193447"/>
<path d="M7.99576 20.4153C7.91174 20.4279 7.82771 20.4461 7.75349 20.4882C7.68627 20.526 7.62325 20.5736 7.57003 20.631C7.465 20.743 7.35716 20.8943 7.35156 21.0525C7.35156 21.0819 7.38797 21.1057 7.41318 21.0875C7.42859 21.0763 7.44539 21.0679 7.458 21.0525C7.4692 21.0385 7.4832 21.0259 7.49581 21.0119C7.51821 20.9853 7.54202 20.9517 7.56443 20.9195C7.57423 20.9055 7.58403 20.8915 7.59384 20.8775C7.59944 20.8705 7.60364 20.8635 7.60924 20.8565C7.61204 20.8523 7.61624 20.8467 7.61904 20.8425C7.61484 20.8481 7.61484 20.8481 7.61904 20.8425C7.64425 20.8089 7.65546 20.7948 7.68627 20.7598C7.70867 20.7346 7.73248 20.7108 7.75629 20.687C7.7857 20.659 7.8025 20.645 7.83191 20.6254C7.89213 20.5848 7.95375 20.5456 8.02377 20.5218C8.05178 20.512 8.06999 20.484 8.06298 20.4531C8.05458 20.4209 8.02517 20.4097 7.99436 20.4139L7.99576 20.4153Z" fill="#802800"/>
<path d="M9.53978 20.1586C9.63781 20.083 9.75265 20.0746 9.86888 20.0816C9.87588 20.0816 9.88149 20.0816 9.88849 20.083C9.89269 20.083 9.91089 20.0858 9.89829 20.083C9.9151 20.0844 9.9305 20.0886 9.94731 20.0914C9.97812 20.0984 10.0075 20.1068 10.0383 20.1166C10.0958 20.1334 10.1812 20.188 10.2386 20.1544C10.2218 20.1572 10.2036 20.1586 10.1854 20.1614C10.191 20.1628 10.1966 20.1642 10.2022 20.167C10.2232 20.174 10.2484 20.167 10.2624 20.1516C10.2652 20.1474 10.2694 20.1432 10.2722 20.139C10.282 20.1208 10.2848 20.0928 10.2722 20.076C10.2652 20.0676 10.2582 20.0578 10.2512 20.0494L10.2708 20.097C10.2764 20.0494 10.226 20.0116 10.191 19.9878C10.1588 19.9668 10.1224 19.9514 10.0859 19.9388C10.0159 19.9121 9.9361 19.9023 9.86188 19.9023C9.71343 19.9023 9.56639 19.957 9.46276 20.0648C9.44175 20.0872 9.43895 20.1208 9.45855 20.1446C9.47536 20.1656 9.51317 20.1796 9.53698 20.16L9.53978 20.1586Z" fill="#802800"/>
<path d="M53.4862 40.4055C53.4862 40.4055 53.6864 43.3058 53.7844 43.7497C53.8825 44.1937 54.776 43.5354 56.6525 44.5284C58.5291 45.5213 59.1719 45.9456 59.5374 45.8868C59.9029 45.828 60.3175 45.7271 60.4449 46.0758C60.5737 46.4245 60.5135 48.6358 60.1928 48.6988C59.8721 48.7619 59.4716 47.0071 59.1943 46.8265C58.917 46.6458 52.6207 45.5045 52.0745 44.6502C51.5283 43.7959 50.7567 40.8998 50.7231 40.4881C50.6881 40.075 52.7509 39.6478 53.4862 40.4055Z" fill="#FFAF98"/>
<path d="M49.6683 41.1633C49.6683 41.1633 49.0984 44.2302 49.0423 44.6811C48.9863 45.1321 49.5213 46.076 49.6235 48.1976C49.7258 50.3193 49.4611 51.9396 49.6403 52.2631C49.821 52.5866 50.0549 52.9423 49.7706 53.1818C49.4863 53.4212 47.5075 54.0612 47.3394 53.7812C47.1714 53.5011 48.7455 52.4802 48.8211 52.1581C48.8967 51.836 47.3576 45.9457 47.1294 44.9584C46.9011 43.9711 46.9123 40.8552 46.9977 40.449C47.0831 40.0443 49.181 40.2264 49.6683 41.1633Z" fill="#FFAF98"/>
<path d="M47.2403 39.0846C47.2403 39.0846 46.9014 40.7791 46.774 41.6684C46.6465 42.5577 46.5625 43.2355 46.5625 43.2355C46.5625 43.2355 48.4685 43.7859 51.0523 43.6584C53.6361 43.531 55.1177 42.6837 55.1177 42.6837L53.8476 37.6436L48.0456 37.6856C48.0456 37.6856 47.3257 38.3214 47.2403 39.0832V39.0846Z" fill="#B73E00"/>
<path d="M54.4997 22.2333C54.6565 22.7067 54.3232 23.2318 54.4507 23.7136C54.5809 24.2093 55.1397 24.4712 55.3666 24.9306C55.5346 25.2723 55.501 25.6882 55.6817 26.0243C55.8973 26.4262 56.1984 26.6909 56.5905 26.9234C56.9827 27.1545 57.372 27.5578 57.2711 28.0031C57.1787 28.4162 56.7138 28.6333 56.5233 29.0114C56.3035 29.4456 56.6213 29.9763 56.26 30.304C55.9701 30.5673 55.4506 30.5239 55.2461 30.8586C55.1621 30.9958 55.1537 31.1695 55.0823 31.3137C54.9408 31.5966 54.5963 31.7031 54.2896 31.7801C53.8765 31.8837 53.3835 31.9691 53.0712 31.6807C52.983 31.5994 52.92 31.4958 52.836 31.409C52.4747 31.0379 51.8655 31.1037 51.3963 30.8852C51.0392 30.7186 50.7689 30.3741 50.6947 29.9875C50.6275 29.6388 50.7003 29.2439 50.4931 28.9554C50.416 28.8476 50.3068 28.7692 50.2032 28.6879C49.8937 28.4457 49.6094 28.1698 49.3601 27.8659C49.2173 27.6922 49.08 27.4906 49.0884 27.2651C49.094 27.1124 49.1696 26.9668 49.1654 26.8141C49.1612 26.6489 49.0674 26.5033 48.9848 26.3604C48.7845 26.0187 48.6305 25.6504 48.5254 25.2681C48.4806 25.1014 48.4442 24.9278 48.475 24.7583C48.5058 24.5889 48.5997 24.4376 48.6431 24.271C48.7985 23.673 48.2734 23.0764 48.3518 22.463C48.3826 22.2207 48.5058 22.0009 48.6263 21.7894C48.884 21.3356 49.1458 20.8735 49.5211 20.5108C49.8965 20.1467 50.4048 19.8876 50.9258 19.931C51.1695 19.952 51.4271 20.0346 51.6484 19.9324C51.7212 19.8988 51.7843 19.8484 51.8529 19.8078C52.21 19.5991 52.6847 19.7181 53.0026 19.98C53.3989 20.3049 53.5614 20.7475 53.7673 21.1914C53.9479 21.5807 54.3638 21.823 54.5011 22.2319L54.4997 22.2333Z" fill="#934826"/>
<path d="M56.2763 19.6703C56.2763 19.6703 56.2861 18.704 56.2833 18.239C56.2805 17.7741 56.2413 17.4898 56.2413 17.4898C56.2413 17.4898 55.8898 17.3049 55.6867 17.1103C55.4822 16.9156 55.3324 16.721 55.5439 16.6971C55.7553 16.6733 56.1825 16.9604 56.1825 16.9604C56.1825 16.9604 56.6544 16.0095 56.8953 15.6916C57.1039 15.4171 57.258 15.3373 57.335 15.3961C57.412 15.455 57.2874 15.6552 57.2006 15.8037C57.1137 15.9521 56.807 16.5431 56.807 16.5431C56.807 16.5431 57.2468 15.9647 57.5731 15.7729C57.8322 15.6202 57.9694 15.595 58.0156 15.6664C58.0646 15.742 57.9316 15.8793 57.6781 16.0852C57.4386 16.2798 57.1404 16.6341 57.1404 16.6341C57.1404 16.6341 57.8196 16.1468 58.0828 16.095C58.3167 16.0487 58.2705 16.193 58.1837 16.2798C58.0674 16.3975 57.3658 16.8778 57.3658 16.8778C57.3658 16.8778 58.0394 16.5711 58.2243 16.6201C58.3923 16.6649 58.1977 16.8176 57.954 16.9464C57.7103 17.0739 57.3168 17.2559 57.2118 17.4744C57.1067 17.6915 57.1235 18.3287 57.16 18.6984C57.195 19.0569 57.3238 19.8117 57.3238 19.8117L56.2749 19.6689L56.2763 19.6703Z" fill="#FFAF98"/>
<path d="M49.6517 20.1691C49.1181 20.5249 48.7778 20.91 48.6896 22.3314C48.6014 23.7529 48.9361 24.9124 49.6741 25.383C50.562 25.9487 51.5843 25.7695 52.2089 25.1729C52.8349 24.5763 53.5253 23.0316 53.713 22.1956C53.9006 21.3581 52.6122 20.0347 51.884 19.8555C51.1544 19.6748 50.1293 19.8526 49.6517 20.1705V20.1691Z" fill="#FFAF98"/>
<path d="M52.8555 23.64C52.8555 23.64 53.6229 22.8586 53.903 23.332C54.1831 23.8053 53.6817 24.2716 53.3862 24.217C52.8513 24.119 52.8555 23.6386 52.8555 23.6386V23.64Z" fill="#FFAF98"/>
<path d="M49.0389 22.8353C49.0389 22.8353 48.6747 21.8031 48.2196 22.114C47.7659 22.4249 48.0221 23.0593 48.3134 23.135C48.84 23.2722 49.0389 22.8353 49.0389 22.8353Z" fill="#FFAF98"/>
<path d="M43.8131 30.5009C43.8131 30.5009 43.0037 29.9743 42.6172 29.7153C42.2306 29.4562 42.0164 29.2671 42.0164 29.2671C42.0164 29.2671 42.057 28.8722 42.008 28.5949C41.959 28.3176 41.8791 28.0838 41.7419 28.2476C41.6046 28.4101 41.6088 28.9254 41.6088 28.9254C41.6088 28.9254 41.0333 28.5571 40.6762 28.3806C40.3667 28.228 40.193 28.2252 40.151 28.3134C40.1076 28.4017 40.3092 28.5249 40.4535 28.6187C40.5977 28.7126 41.1355 29.1047 41.1355 29.1047C41.1355 29.1047 40.4829 28.784 40.1062 28.7574C39.8051 28.7364 39.672 28.7756 39.6622 28.861C39.6524 28.9506 39.8331 29.0136 40.151 29.0851C40.4521 29.1523 40.8764 29.3357 40.8764 29.3357C40.8764 29.3357 40.0502 29.2027 39.7925 29.2741C39.5628 29.3371 39.6678 29.445 39.7855 29.4856C39.9423 29.5388 40.784 29.655 40.784 29.655C40.784 29.655 40.0432 29.6817 39.9003 29.8077C39.7701 29.9225 40.0123 29.9729 40.2868 29.9785C40.5613 29.9841 41.2265 30.0374 41.466 30.0696C41.7055 30.1018 42.2264 30.4687 42.5135 30.704C42.7922 30.9322 43.351 31.4546 43.351 31.4546L43.8117 30.5023L43.8131 30.5009Z" fill="#FFAF98"/>
<path d="M49.0102 21.6417C49.0746 21.5576 49.223 21.3938 49.2679 21.2986C49.3183 21.1907 49.2903 21.0661 49.2973 20.9471C49.3183 20.5941 49.6376 20.3393 49.9443 20.1614C50.2468 19.9864 50.5647 19.8393 50.8938 19.7217C50.4232 19.7623 49.9401 19.6993 49.4793 19.8071C49.0186 19.9149 48.562 20.2707 48.555 20.744C48.5536 20.8896 48.5915 21.0451 48.5228 21.1725C48.4304 21.3434 48.2035 21.5128 48.1993 21.7075C48.1937 21.9792 48.3982 22.4665 48.6755 22.65C48.7385 22.3559 48.8673 21.8237 49.0088 21.6417H49.0102Z" fill="#934826"/>
<path d="M51.5662 25.3213C51.5662 25.3213 51.485 25.7274 51.492 25.9501C51.4976 26.1251 51.5508 26.4122 51.5508 26.4122C51.5508 26.4122 51.4205 27.1853 50.866 27.1726C50.3114 27.1586 50.1686 26.5565 50.1686 26.5565C50.1686 26.5565 50.0901 25.5663 50.0705 25.3927C50.0495 25.219 51.5648 25.3227 51.5648 25.3227L51.5662 25.3213Z" fill="#FFAF98"/>
<path d="M53.0303 23.8225C53.0303 23.8225 52.7712 23.5424 52.9141 23.1125C53.0569 22.684 53.2054 22.6461 53.1899 22.3128C53.1745 21.9795 53.0317 21.8843 53.0317 21.677C53.0317 21.4698 53.7151 21.1211 53.8888 21.4068C54.0638 21.6925 54.4125 21.8829 54.2865 22.1854C54.159 22.4865 53.8047 22.7022 53.8257 22.9318C53.8888 23.6152 53.0639 23.7581 53.0317 23.8211L53.0303 23.8225Z" fill="#934826"/>
<path d="M53.8874 21.5233C53.8019 21.1004 53.9714 20.571 53.6339 20.2097C53.3776 19.9352 52.8819 19.847 52.585 19.5865C52.2755 19.3162 52.0766 18.8793 51.7293 18.6552C51.1887 18.3051 49.1259 18.8891 49.4578 19.7237C49.8009 20.5864 51.312 19.8036 51.6887 20.7363C51.8806 21.2124 52.0598 21.3707 52.5696 21.4743C52.9449 21.5513 53.1816 22.0022 53.1956 22.4182L53.6955 22.4574C54.3117 22.2907 53.9672 21.9252 53.886 21.5205L53.8874 21.5233Z" fill="#934826"/>
<path d="M59.9802 45.8017C59.9802 45.8017 60.1356 46.803 60.0796 47.2876C60.0236 47.7721 59.6133 47.7805 59.6133 47.7805C59.6133 47.7805 59.8345 48.5858 60.032 48.7328C60.2295 48.8799 60.5628 48.4934 60.6286 47.8001C60.693 47.1069 60.6916 46.0846 60.6048 45.8073C60.518 45.53 59.9802 45.8017 59.9802 45.8017Z" fill="#193447"/>
<path d="M49.8022 52.4639C49.8022 52.4639 48.8261 53.0703 48.3597 53.2131C47.8934 53.3559 47.8654 53.0549 47.8654 53.0549C47.8654 53.0549 47.2016 53.5688 47.1455 53.8083C47.0895 54.0478 47.5167 54.0912 48.1777 53.8741C48.8387 53.657 49.742 53.2635 49.9618 53.0731C50.1817 52.8826 49.8036 52.4639 49.8036 52.4639H49.8022Z" fill="#193447"/>
<path d="M49.332 22.5857C49.332 22.7005 49.4049 22.8069 49.5057 22.863C49.5435 22.884 49.5869 22.898 49.6303 22.898C49.7059 22.898 49.7732 22.8518 49.8222 22.7943C49.9804 22.6109 49.9398 22.2944 49.6905 22.2118C49.4805 22.1417 49.332 22.405 49.332 22.5857Z" fill="#193447"/>
<path d="M51.3789 22.8122C51.3789 22.9271 51.4517 23.0335 51.5526 23.0895C51.5904 23.1105 51.6338 23.1245 51.6772 23.1245C51.7528 23.1245 51.82 23.0783 51.8691 23.0209C52.0273 22.8374 51.9867 22.521 51.7374 22.4383C51.5274 22.3683 51.3789 22.6316 51.3789 22.8122Z" fill="#193447"/>
<path d="M52.8177 26.6545C52.8177 26.6545 52.5124 26.6321 52.1413 26.5256C51.8528 26.443 51.4943 26.331 51.4943 26.331C51.4943 26.331 51.1218 26.7105 50.7325 26.8351C50.4468 26.873 50.1373 26.2764 50.1373 26.2764C50.1373 26.2764 49.3741 26.5537 49.2256 26.5565C49.0772 26.5593 48.9609 26.5523 48.9609 26.5523C48.9609 26.5523 49.0043 28.1137 49.6331 29.2327C50.2619 30.3516 50.6485 30.5757 50.6485 30.5757C50.6485 30.5757 51.6848 29.6094 52.1791 28.5395C52.6735 27.4695 52.8149 26.6545 52.8149 26.6545H52.8177Z" fill="#D1E1EF"/>
<path d="M50.7223 26.8486L51.0752 27.476C51.0752 27.476 51.0192 27.8163 50.7013 27.7701C50.382 27.7239 50.3008 27.3878 50.3008 27.3878L50.7223 26.8486Z" fill="#304859"/>
<path d="M50.5788 27.5814L49.957 29.5238C49.957 29.5238 50.2623 30.343 50.4346 30.476C50.6068 30.6091 50.6096 30.7057 50.8057 30.5209C51.0032 30.336 51.2174 29.9817 51.2174 29.9817L50.7903 27.5029C50.7903 27.5029 50.6236 27.6122 50.5802 27.5814H50.5788Z" fill="#304859"/>
<path d="M51.5265 26.2715C51.5265 26.2715 51.3094 26.5152 51.091 26.6552C50.8725 26.7952 50.7227 26.8471 50.7227 26.8471C50.7227 26.8471 50.7815 27.0039 50.9313 27.2868C51.0812 27.5697 51.3346 27.9044 51.3346 27.9044C51.3346 27.9044 51.7576 27.3148 51.9088 26.9465C52.0587 26.5782 52.0797 26.4185 52.0797 26.4185L51.5279 26.2729L51.5265 26.2715Z" fill="white"/>
<path d="M50.7218 26.8471L50.121 27.6762C50.121 27.6762 49.8885 27.3485 49.7611 26.9648C49.6364 26.5922 49.6406 26.3584 49.6406 26.3584L50.1406 26.2197C50.1406 26.2197 50.2078 26.3668 50.3549 26.5432C50.4823 26.6959 50.7218 26.8471 50.7218 26.8471Z" fill="white"/>
<path d="M49.5417 26.4147C49.5417 26.4147 48.7631 26.3349 48.287 26.9077C47.8108 27.4805 46.5658 30.9101 45.8992 30.9409C45.4455 30.9619 42.8337 29.3052 42.8337 29.3052C42.8337 29.3052 42.548 30.004 41.8646 31.179C41.5061 31.7966 41.3086 32.1481 41.3086 32.1481C41.3086 32.1481 45.5337 34.2123 46.423 33.5457C47.3123 32.8791 48.4564 31.1958 48.4564 31.1958C48.4564 31.1958 48.329 33.2923 47.9803 34.8804C47.6316 36.4684 47.1232 37.9291 46.7101 38.8184C46.4818 39.3099 46.2731 39.7048 46.1317 39.9583C46.0169 40.1642 46.0113 40.2034 46.1625 40.3392C46.8697 40.9778 47.2968 41.2971 48.0447 41.5814C49.6328 42.185 50.6495 42.248 52.6507 42.185C54.6519 42.122 56.177 41.5184 56.3353 41.2327C56.4935 40.947 54.9376 38.2148 54.4937 36.0875C54.0497 33.9603 53.8901 31.7042 53.8579 30.6566C53.8257 29.6091 53.8691 28.6456 53.8691 28.6456C53.8691 28.6456 55.446 27.2802 57.1615 24.5592C58.7412 22.0538 59.1949 19.7949 59.1949 19.7949C59.1949 19.7949 58.3379 18.921 57.0509 18.6199C55.8563 18.3398 55.7331 18.5247 55.7331 18.5247C55.7331 18.5247 55.6854 20.9866 55.3367 22.3199C54.988 23.6545 54.3676 24.6544 53.7332 25.4162C53.0974 26.1781 52.3146 26.4637 52.3146 26.4637C52.3146 26.4637 52.0919 27.5337 51.4253 28.5182C50.8021 29.4383 50.3666 29.5769 50.3666 29.5769C50.3666 29.5769 49.9647 28.9411 49.7 28.0098C49.4983 27.3012 49.5459 26.4161 49.5459 26.4161L49.5417 26.4147Z" fill="#193447"/>
<path d="M50.3815 29.6375C50.3703 29.9064 50.3227 30.1697 50.2862 30.4358C50.2512 30.6991 50.2372 30.9665 50.2134 31.2312C50.1616 31.7858 50.1742 32.3432 50.1476 32.8991C50.1098 33.6904 50.0412 34.4802 49.9739 35.2701C49.8465 36.7741 49.7051 38.281 49.4698 39.7725C49.3606 40.4657 49.2261 41.1533 49.0217 41.8241C49.0063 41.8731 49.0791 41.8913 49.0973 41.8451C49.1995 41.586 49.2653 41.3101 49.3269 41.0385C49.4012 40.708 49.4642 40.3746 49.5188 40.0399C49.6462 39.2795 49.7429 38.5135 49.8269 37.746C49.9095 36.9996 49.9809 36.2532 50.0468 35.5053C50.1112 34.7715 50.1798 34.0377 50.226 33.3039C50.2456 32.9874 50.261 32.6723 50.2694 32.3558C50.2764 32.0477 50.2694 31.741 50.2932 31.4343C50.3059 31.276 50.3227 31.1192 50.3339 30.9609C50.3451 30.8069 50.3465 30.6528 50.3619 30.5002C50.3899 30.2117 50.4529 29.9246 50.4053 29.6347C50.4025 29.6207 50.3829 29.6249 50.3815 29.6375Z" fill="#475D6C"/>
<path d="M53.0316 26.0596C52.6324 26.3453 52.3089 26.4643 52.3089 26.4643C52.3089 26.4643 52.0863 27.5342 51.4197 28.5187C50.7965 29.4388 50.3609 29.5775 50.3609 29.5775C50.3609 29.5775 49.959 28.9417 49.6943 28.0104C49.4927 27.3018 49.5403 26.4167 49.5403 26.4167C49.5403 26.4167 49.3386 26.3971 49.0781 26.4517C49.0865 26.9138 49.1467 27.8367 49.4604 28.7512C49.9058 30.0424 50.3917 30.3813 50.3917 30.3813C50.3917 30.3813 51.7474 29.1531 52.3818 27.8619C52.7851 27.0427 52.9573 26.4125 53.0301 26.0596H53.0316Z" fill="#005BA6"/>
<path d="M43.0703 32.9214C43.2566 32.6665 43.5493 32.2351 43.8924 31.6106C44.2117 31.0294 44.4316 30.5924 44.5548 30.339C44.3699 30.2353 44.1837 30.1275 44.0044 30.0225C43.919 30.2367 43.7327 30.6737 43.4261 31.2716C43.132 31.8444 42.7664 32.3976 42.5508 32.7085C42.7146 32.7785 42.8897 32.8499 43.0703 32.9214Z" fill="#005BA6"/>
<path d="M57.5089 20.3254C56.8269 20.0103 56.0048 19.8534 55.6715 19.7988C55.6575 20.0005 55.6421 20.2148 55.6211 20.4346C55.9418 20.4906 56.7288 20.6461 57.275 20.8982C57.9234 21.1979 58.4136 21.5606 58.5942 21.7034C58.6656 21.52 58.7301 21.3463 58.7861 21.1825C58.6348 21.0382 58.1741 20.6335 57.5075 20.3254H57.5089Z" fill="#005BA6"/>
<path d="M49.3318 21.9725C49.4018 21.9109 49.4901 21.8745 49.5797 21.8535C49.6721 21.8311 49.7576 21.8339 49.8556 21.8423C49.8878 21.8451 49.969 21.8661 49.9676 21.8059C49.9676 21.7779 49.9452 21.7639 49.927 21.7471C49.9032 21.7275 49.8822 21.7135 49.8542 21.7023C49.759 21.6658 49.6413 21.677 49.5461 21.7107C49.4369 21.7485 49.3374 21.8143 49.2632 21.9025C49.2226 21.9501 49.2842 22.0145 49.3332 21.9725H49.3318Z" fill="#934826"/>
<path d="M51.6108 22.0926C51.7298 22.0926 51.8348 22.1206 51.9301 22.185C51.9483 22.1976 51.9623 22.2088 51.9847 22.2284C52.0071 22.248 52.0281 22.2704 52.0491 22.2928C52.0897 22.3363 52.1275 22.3937 52.1807 22.4217C52.2031 22.4329 52.2242 22.4189 52.2284 22.3951C52.2368 22.3279 52.1933 22.255 52.1541 22.2032C52.1121 22.1472 52.0617 22.0996 52.0029 22.0632C51.8867 21.9904 51.748 21.9693 51.6122 21.9819C51.5421 21.989 51.5393 22.0926 51.6122 22.0926H51.6108Z" fill="#934826"/>
<path d="M48.1564 22.1101C48.2026 22.1255 48.2502 22.1367 48.2922 22.1647C48.3384 22.1955 48.3762 22.2389 48.4085 22.2837C48.4743 22.3747 48.5219 22.4784 48.5681 22.5806C48.6199 22.6982 48.6731 22.8159 48.7292 22.9321C48.767 23.0119 48.8062 23.0904 48.8398 23.1716C48.8734 23.2486 48.8902 23.3466 48.9378 23.4153C48.9616 23.4489 49.0232 23.4405 49.0218 23.3929C49.019 23.3088 48.9658 23.222 48.9308 23.1464C48.8902 23.0596 48.8468 22.9741 48.8034 22.8901C48.7376 22.7627 48.6745 22.6338 48.6143 22.5022C48.5639 22.3915 48.5065 22.2795 48.4253 22.1871C48.3608 22.1157 48.2586 22.0358 48.1564 22.0694C48.1354 22.0764 48.1354 22.1045 48.1564 22.1115V22.1101Z" fill="white"/>
<path d="M48.4065 23.191C48.4415 23.516 48.5339 23.8367 48.6669 24.1349C48.7216 24.2568 48.7832 24.3786 48.8532 24.4921C48.9008 24.5677 49.0226 24.7623 49.1361 24.7063C49.1473 24.7007 49.1501 24.6881 49.1487 24.6769C49.1403 24.6279 49.0843 24.5887 49.0521 24.5537C49.0058 24.5019 48.9666 24.4444 48.9302 24.3842C48.8686 24.2792 48.8126 24.17 48.7622 24.0579C48.6361 23.7792 48.5297 23.4837 48.4709 23.1826C48.4639 23.1462 48.4023 23.1546 48.4065 23.191Z" fill="white"/>
<path d="M53.1253 24.1224C53.1099 24.1111 53.0791 24.0915 53.0749 24.0859C53.0566 24.1097 53.0496 24.1223 53.0328 24.1476C52.9782 24.2246 52.9222 24.3016 52.862 24.3744C52.7261 24.5341 52.5483 24.6573 52.4264 24.8296C52.4082 24.8548 52.4489 24.887 52.4699 24.8632C52.6071 24.7007 52.799 24.6013 52.9432 24.4472C53.0076 24.3772 53.0664 24.303 53.1211 24.226C53.1379 24.2022 53.1589 24.1784 53.1757 24.1532C53.1645 24.1462 53.1393 24.1336 53.1253 24.1237V24.1224Z" fill="white"/>
<path d="M53.492 23.109C53.5691 23.1132 53.6447 23.1328 53.7105 23.1734C53.7749 23.2126 53.8702 23.2532 53.9262 23.375C53.9374 23.3694 53.936 23.3484 53.9388 23.333C53.9556 23.2126 53.8632 23.0922 53.7623 23.0347C53.6111 22.9507 53.422 22.9563 53.2596 22.9941C53.0635 23.0389 52.8843 23.1356 52.7036 23.2196C52.607 23.2644 52.5075 23.3078 52.4151 23.3638C52.3255 23.4171 52.2429 23.4829 52.1518 23.5333C52.128 23.5459 52.1462 23.5767 52.1686 23.5739C52.3339 23.5515 52.4753 23.4451 52.6252 23.3792C52.7918 23.305 52.9585 23.2224 53.1307 23.1622C53.2456 23.1216 53.3604 23.102 53.492 23.1104V23.109Z" fill="white"/>
<path d="M48.8813 23.1914C48.8659 23.2545 48.8701 24.2656 48.9975 24.6003C49.1249 24.9336 49.6641 25.694 50.6332 25.7332C51.4329 25.7654 51.9202 25.5274 52.1583 25.3201C52.3964 25.1142 52.6344 24.7319 52.6344 24.7319C52.6344 24.7319 52.3585 24.5779 52.3431 24.0695C52.3277 23.5611 52.3585 23.4337 52.3585 23.4337C52.3585 23.4337 51.136 23.0528 50.4372 22.9464C50.0128 22.8819 48.8813 23.19 48.8813 23.19V23.1914Z" fill="#D1E1EF"/>
<path d="M9.69584 7.9146C9.69584 7.9146 8.75054 8.48598 8.2982 8.85009C8.01952 9.07416 7.87667 9.2114 7.80665 9.28282C7.76884 9.32204 7.75343 9.37525 7.76604 9.42847C7.83886 9.75757 8.18197 11.0068 9.36673 11.7616C10.5347 12.5066 11.6761 12.4674 11.9911 12.4394C12.0444 12.4352 12.092 12.4044 12.1186 12.3582C12.2754 12.0879 12.8146 11.109 12.8426 10.3892C12.8748 9.54611 10.6285 7.71434 9.69724 7.9146H9.69584Z" fill="#193447"/>
<path d="M10.9179 10.943C11.8547 10.8072 14.3559 10.5789 14.5142 10.5607C14.7438 10.5355 14.9693 10.6167 14.7018 10.051C14.4329 9.48518 13.4022 7.43214 12.9681 6.50506C12.9191 6.40002 12.8967 6.23477 12.5872 6.24037C12.1796 6.24878 9.53563 6.40282 8.40968 6.46584C8.33266 6.47004 8.1492 6.47985 8.26264 6.78654C8.37607 7.09324 10.1406 10.7134 10.1406 10.7134C10.1406 10.7134 10.2078 11.0018 10.4095 10.9864C10.6112 10.971 10.8128 10.9584 10.9193 10.9416L10.9179 10.943Z" fill="#304859"/>
<path d="M14.8127 10.3546C13.8254 10.4625 10.5176 10.8224 10.4181 10.779C10.3173 10.7355 8.76001 7.43472 8.31187 6.48242C8.24185 6.50903 8.18163 6.57905 8.25865 6.78632C8.37209 7.09301 10.1366 10.7131 10.1366 10.7131C10.1366 10.7131 10.2039 11.0016 10.4055 10.9862C10.6072 10.9708 10.8088 10.9582 10.9153 10.9414C11.8522 10.8056 14.3533 10.5773 14.5116 10.5591C14.6852 10.5395 14.8575 10.5815 14.8127 10.3532V10.3546Z" fill="#526775"/>
<path d="M11.7624 8.2916C11.9739 8.22858 12.1728 8.11935 12.373 8.02692C12.5789 7.93169 12.7861 7.83926 12.9864 7.73423C13.3729 7.52977 13.7636 7.26508 13.9597 6.85896C14.0619 6.64749 14.1138 6.41362 14.0815 6.17975C14.0507 5.95288 13.9429 5.74701 13.7959 5.57336C13.6376 5.3857 13.4443 5.26106 13.2161 5.17564C13.0004 5.09441 12.7609 5.0454 12.5719 4.90675C12.4024 4.78351 12.4738 4.60286 12.5957 4.46982C12.7287 4.32557 12.901 4.24155 13.09 4.20093C13.1433 4.18973 13.1461 4.0987 13.09 4.0903C12.929 4.06509 12.7637 4.15332 12.6377 4.24715C12.5047 4.34378 12.373 4.47542 12.331 4.63927C12.2134 5.08741 12.8618 5.22605 13.1573 5.33669C13.3925 5.42491 13.583 5.56776 13.7244 5.77642C13.8575 5.97248 13.9289 6.20776 13.8953 6.44443C13.8267 6.91638 13.4584 7.24408 13.069 7.47235C12.852 7.59979 12.6237 7.70902 12.3954 7.81545C12.1658 7.92329 11.8941 8.01852 11.7106 8.20057C11.6728 8.23838 11.7106 8.30841 11.7638 8.2916H11.7624Z" fill="#FFBF47"/>
<path d="M14.1483 3.12541C14.2631 3.06939 14.3849 3.01758 14.5138 3.01758C14.5628 3.01758 14.6132 3.02458 14.6538 3.05259C14.7701 3.13101 14.7421 3.30747 14.8009 3.43351C14.8373 3.51193 14.9073 3.57075 14.9549 3.64357C15.0095 3.7304 15.0277 3.83263 15.046 3.93346C15.0586 4.00348 15.0684 4.08471 15.0249 4.14073C14.9885 4.18834 14.9241 4.20375 14.8639 4.21355C14.2939 4.30178 13.6973 4.0623 13.1428 4.22195C12.9943 4.26537 12.9747 4.0679 13.0377 3.97407C13.1162 3.85644 13.2492 3.75141 13.3556 3.65758C13.5951 3.44611 13.8626 3.26546 14.1497 3.12541H14.1483Z" fill="#FFBF47"/>
<path d="M13.1204 3.81157C12.9383 3.81577 12.591 4.00203 12.5462 4.18829C12.507 4.35634 12.6246 4.61542 13.0293 4.46978C13.3556 4.35214 13.4383 4.25691 13.4341 4.16028C13.4229 3.92361 13.2366 3.80877 13.119 3.81157H13.1204Z" fill="#FFD077"/>
<path d="M25.2351 2.15891C25.2351 2.15891 24.6455 3.14622 24.4075 3.70219C24.2604 4.04529 24.196 4.23995 24.1666 4.33938C24.1512 4.394 24.1638 4.45002 24.2002 4.49343C24.4271 4.76092 25.3878 5.6754 26.8456 5.79023C28.2839 5.90367 29.281 5.37571 29.5555 5.19645C29.6017 5.16564 29.6311 5.11523 29.6325 5.06061C29.6437 4.73571 29.6619 3.57195 29.3356 2.89554C28.9533 2.10429 25.9928 1.51891 25.2351 2.15751V2.15891Z" fill="#193447"/>
<path d="M27.6904 4.44721C28.5488 3.96406 30.7811 3.121 30.9268 3.04538C31.1396 2.93474 31.3903 2.92914 30.9169 2.4796C30.4436 2.03006 28.9984 0.953127 27.997 0.25011C27.8976 0.180088 27.6679 -0.0915963 27.3697 0.0316418C26.9775 0.192692 24.5282 0.880305 23.4582 1.36485C23.384 1.39847 23.2104 1.47689 23.4358 1.73177C23.6613 1.98805 25.8978 3.80721 26.7058 4.51023C26.7913 4.58445 26.9761 4.77351 27.1666 4.68388C27.357 4.59285 27.5909 4.50463 27.6889 4.45001L27.6904 4.44721Z" fill="#304859"/>
<path d="M23.3315 1.48438C23.3189 1.53899 23.3385 1.61602 23.438 1.72805C23.6634 1.98433 25.8999 3.80349 26.708 4.50651C26.7934 4.58073 26.9783 4.76979 27.1687 4.68017C27.3592 4.58914 27.593 4.50091 27.6911 4.44629C28.5495 3.96314 30.7818 3.12008 30.9275 3.04446C31.0857 2.96183 31.265 2.93662 31.1501 2.74477C30.0102 3.1747 27.2303 4.51071 27.0203 4.51071C26.8102 4.51071 24.2194 2.26162 23.3301 1.48578L23.3315 1.48438Z" fill="#526775"/>
<path d="M27.3468 2.28202C27.5051 2.33524 27.6619 2.42767 27.809 2.50749C27.9518 2.58592 28.0905 2.67134 28.2263 2.76097C28.5022 2.94163 28.7683 3.13909 29.0442 3.32115C29.5427 3.65165 30.0581 4.08718 30.2863 4.65716C30.418 4.98486 30.4824 5.34477 30.502 5.69628C30.5048 5.7453 30.5748 5.7579 30.5888 5.70748C30.6771 5.38819 30.5958 5.04228 30.5006 4.73418C30.4054 4.42609 30.2457 4.153 30.0399 3.90653C29.827 3.65165 29.5749 3.43458 29.306 3.24132C29.0302 3.04246 28.7445 2.852 28.4574 2.66994C28.2851 2.56071 28.1101 2.45568 27.9252 2.36605C27.746 2.27922 27.5667 2.22741 27.3748 2.17699C27.3076 2.15879 27.281 2.25962 27.3454 2.28202H27.3468Z" fill="#FFBF47"/>
<path d="M31.2242 7.4685C31.2424 7.60014 31.2522 7.73878 31.2116 7.86482C31.1962 7.91243 31.1724 7.96005 31.1318 7.99086C31.017 8.07909 30.8517 7.99366 30.7061 8.01047C30.6164 8.02027 30.5352 8.07068 30.447 8.09309C30.3433 8.1183 30.2355 8.10289 30.1305 8.08749C30.0563 8.07629 29.9736 8.06088 29.933 7.99926C29.898 7.94745 29.9036 7.87882 29.9148 7.81721C30.0156 7.22482 30.4484 6.71366 30.4722 6.11428C30.4792 5.95323 30.6794 5.99944 30.7509 6.09187C30.8419 6.20811 30.9021 6.37476 30.9595 6.5092C31.0898 6.8159 31.1794 7.1394 31.2242 7.4685Z" fill="#FFBF47"/>
<path d="M30.8824 6.22568C30.9384 6.04503 30.8684 5.6389 30.699 5.53527C30.5449 5.44144 30.2508 5.47225 30.262 5.92039C30.2718 6.2817 30.3377 6.39513 30.4343 6.42174C30.671 6.48896 30.846 6.34192 30.8824 6.22568Z" fill="#FFD077"/>
<path d="M37.3203 11.1938C37.3203 11.1938 37.515 12.2791 37.6928 12.8323C37.8021 13.1726 37.8777 13.3547 37.9197 13.4443C37.9421 13.4933 37.9869 13.5269 38.0401 13.5353C38.3734 13.5857 39.6436 13.6431 40.771 12.8085C41.8829 11.985 42.2722 10.9767 42.3591 10.6728C42.3731 10.621 42.3633 10.5664 42.3297 10.5258C42.1336 10.2835 41.4138 9.43064 40.7528 9.14635C39.9783 8.81445 37.4674 10.2541 37.3203 11.1938Z" fill="#193447"/>
<path d="M40.5369 11.3006C40.8534 10.4099 41.9387 8.39612 41.9961 8.24767C42.0801 8.0334 42.258 7.87095 41.632 7.84435C41.006 7.81774 39.2835 7.94658 38.1155 8.06842C38.0007 8.08102 37.6618 8.0278 37.5231 8.30509C37.3411 8.6692 36.0009 10.7082 35.5317 11.7319C35.4995 11.802 35.4225 11.9686 35.746 12.012C36.0695 12.0555 38.8339 11.9644 39.8605 11.9644C39.9683 11.9644 40.2218 11.984 40.303 11.7992C40.3842 11.6143 40.4977 11.4028 40.5341 11.3006H40.5369Z" fill="#304859"/>
<path d="M41.9969 8.25015C42.0628 8.0807 42.186 7.94486 41.9297 7.88184C41.9213 7.92245 41.9101 7.96446 41.8961 8.00647C41.8289 8.20814 40.2562 11.6224 40.1442 11.712C40.0321 11.8016 37.4035 11.8689 36.3714 11.8913C35.9401 11.9011 35.6782 11.8437 35.5185 11.7736C35.4891 11.8535 35.4779 11.9781 35.7496 12.0145C36.0731 12.0579 38.8376 11.9669 39.8641 11.9669C39.9719 11.9669 40.2254 11.9865 40.3066 11.8016C40.3878 11.6168 40.5013 11.4053 40.5377 11.3031C40.8542 10.4124 41.9395 8.3986 41.9969 8.25015Z" fill="#526775"/>
<path d="M38.5595 10.0323C38.6785 9.85725 38.7569 9.65419 38.841 9.46093C38.9292 9.26066 39.0188 9.0604 39.1196 8.86574C39.3171 8.48762 39.5706 8.12491 39.9445 7.90504C40.1602 7.7776 40.401 7.71598 40.6461 7.66977C40.943 7.61515 41.2469 7.59135 41.548 7.61935C42.1208 7.67257 42.6277 7.98627 43.1893 8.0927C43.5982 8.16973 44.2508 8.24535 44.4973 7.81402C44.5239 7.7678 44.4609 7.71739 44.4231 7.7566C44.1024 8.0759 43.5968 8.01288 43.1935 7.92465C42.6291 7.80001 42.1152 7.50172 41.534 7.4527C41.2343 7.4275 40.929 7.4555 40.6349 7.51012C40.3898 7.55494 40.1462 7.61795 39.9249 7.73839C39.5482 7.94285 39.2737 8.28456 39.0664 8.65288C38.9446 8.86994 38.8438 9.09541 38.7499 9.32508C38.6575 9.54775 38.5567 9.77322 38.4937 10.0057C38.4824 10.0477 38.5385 10.0673 38.5609 10.0337L38.5595 10.0323Z" fill="#FFBF47"/>
<path d="M45.8762 6.89177C45.9631 6.79794 46.0485 6.69711 46.0863 6.57527C46.1003 6.52906 46.1087 6.47864 46.0947 6.43243C46.0541 6.29939 45.8776 6.27418 45.7726 6.18035C45.7082 6.12293 45.6732 6.03751 45.6157 5.97169C45.5499 5.89466 45.4561 5.84565 45.3665 5.79943C45.3035 5.76722 45.2292 5.73361 45.162 5.75882C45.106 5.77983 45.0724 5.83725 45.0458 5.89046C44.7951 6.40862 44.8483 7.04862 44.5332 7.53037C44.4492 7.65921 44.6312 7.73623 44.7391 7.70402C44.8749 7.66341 45.0136 7.56678 45.134 7.49396C45.4071 7.32731 45.6564 7.12424 45.8748 6.89177H45.8762Z" fill="#FFBF47"/>
<path d="M44.5265 7.33302C44.3556 7.39464 44.0881 7.68453 44.1064 7.87499C44.1232 8.04725 44.3192 8.25311 44.6539 7.98423C44.9242 7.76716 44.9718 7.65092 44.9354 7.5613C44.8486 7.34143 44.6357 7.29381 44.5251 7.33442L44.5265 7.33302Z" fill="#FFD077"/>
<path d="M51.3909 11.0929C51.3909 11.0929 52.1612 11.8701 52.6191 12.2217C52.9006 12.4373 53.0659 12.5438 53.1499 12.5942C53.1961 12.6208 53.2521 12.6236 53.2997 12.5998C53.5994 12.4541 54.724 11.8309 55.1749 10.5131C55.6202 9.21352 55.3164 8.12258 55.2155 7.82709C55.1987 7.77667 55.1595 7.73886 55.1077 7.72346C54.8108 7.63523 53.7409 7.34394 53.0406 7.48538C52.2214 7.65064 50.9792 10.2428 51.3895 11.0929H51.3909Z" fill="#193447"/>
<path d="M54.0232 9.20852C53.6745 8.33745 52.8706 5.97912 52.8174 5.83208C52.739 5.61781 52.7656 5.37974 52.2824 5.77046C51.7993 6.16118 50.0614 7.63444 49.2701 8.26743C49.1805 8.33886 49.025 8.39907 49.1035 8.69597C49.2071 9.08669 49.9717 11.5991 50.2952 12.669C50.3176 12.7432 50.3695 12.9169 50.6397 12.7362C50.9086 12.5556 53.9854 10.011 53.9854 10.011C53.9854 10.011 54.2473 9.87933 54.1856 9.68887C54.124 9.49841 54.0638 9.30796 54.0246 9.20852H54.0232Z" fill="#304859"/>
<path d="M52.5475 5.59265C52.8822 6.51833 53.9998 9.62169 53.9816 9.72953C53.9634 9.83736 51.1457 12.1061 50.332 12.7601C50.374 12.8217 50.4553 12.8623 50.6373 12.7405C50.9062 12.5598 53.983 10.0152 53.983 10.0152C53.983 10.0152 54.2448 9.88358 54.1832 9.69312C54.1216 9.50266 54.0614 9.3122 54.0222 9.21277C53.6735 8.3417 52.8696 5.98337 52.8164 5.83632C52.7562 5.67247 52.7576 5.49742 52.5489 5.59405L52.5475 5.59265Z" fill="#526775"/>
<path d="M51.5278 8.75006C51.3079 9.06656 51.2533 9.44888 51.2365 9.8256C51.2183 10.2345 51.2547 10.6449 51.2883 11.051C51.3191 11.4221 51.3387 11.7946 51.3583 12.1671C51.3779 12.5592 51.3863 12.9584 51.3247 13.3477C51.2911 13.5592 51.2351 13.7664 51.1497 13.9625C51.0614 14.1627 50.9354 14.3336 50.8094 14.51C50.7925 14.5339 50.8248 14.5647 50.8486 14.5493C51.1693 14.356 51.3387 13.9709 51.4255 13.6222C51.5222 13.2357 51.5362 12.8309 51.5278 12.4346C51.5194 12.0579 51.497 11.6798 51.469 11.3045C51.4382 10.8969 51.3947 10.4908 51.3905 10.0819C51.3863 9.65614 51.4059 9.18 51.6104 8.79488C51.6398 8.74026 51.5628 8.69825 51.5292 8.74726L51.5278 8.75006Z" fill="#FFBF47"/>
<path d="M49.6104 15.483C49.5348 15.5853 49.4634 15.6959 49.4395 15.8205C49.4311 15.8682 49.4297 15.9186 49.4479 15.9634C49.504 16.0908 49.6804 16.0936 49.7939 16.1735C49.8639 16.2225 49.9087 16.3023 49.9717 16.3611C50.0459 16.4297 50.144 16.4661 50.2378 16.5012C50.305 16.5264 50.3806 16.5502 50.4437 16.518C50.4969 16.49 50.5235 16.4311 50.5431 16.3737C50.7293 15.8332 50.6019 15.2086 50.8554 14.696C50.924 14.5588 50.7349 14.5055 50.6327 14.549C50.5039 14.605 50.3778 14.7156 50.2672 14.8024C50.0179 14.9985 49.7953 15.2282 49.6076 15.483H49.6104Z" fill="#FFBF47"/>
<path d="M50.4611 14.6046C50.4961 14.4281 50.7412 14.1214 50.9302 14.1116C51.1011 14.1032 51.3335 14.2643 51.1193 14.6326C50.947 14.9295 50.8392 14.9939 50.7454 14.9729C50.5171 14.9197 50.4373 14.718 50.4611 14.6046Z" fill="#FFD077"/>
</svg>
