<svg width="270" height="30" viewBox="0 0 270 30" fill="none" xmlns="http://www.w3.org/2000/svg">
<path d="M17.388 14.86C18.372 14.86 19.092 15.04 19.548 15.4C20.028 15.736 20.328 16.156 20.448 16.66C20.568 17.14 20.628 17.764 20.628 18.532C20.628 20.548 20.076 22.336 18.972 23.896C17.868 25.432 16.428 26.632 14.652 27.496C12.876 28.336 10.992 28.756 9 28.756C6.12 28.756 4.008 27.952 2.664 26.344C1.32 24.736 0.648 22.768 0.648 20.44C0.648 17.68 1.38 15.052 2.844 12.556C4.332 10.036 6.156 8.02 8.316 6.508C10.5 4.972 12.552 4.204 14.472 4.204C17.16 4.204 19.104 4.744 20.304 5.824C21.504 6.88 22.104 8.428 22.104 10.468C22.104 11.188 21.828 11.8 21.276 12.304C20.748 12.808 20.028 13.06 19.116 13.06C18.396 13.06 17.904 12.868 17.64 12.484C17.4 12.1 17.28 11.608 17.28 11.008L17.316 9.856C17.316 9.424 17.076 9.004 16.596 8.596C16.116 8.188 15.672 7.984 15.264 7.984C13.92 7.984 12.444 8.596 10.836 9.82C9.228 11.02 7.872 12.652 6.768 14.716C5.664 16.756 5.112 18.976 5.112 21.376C5.112 22.48 5.544 23.38 6.408 24.076C7.272 24.772 8.364 25.12 9.684 25.12C10.62 25.12 11.604 24.844 12.636 24.292C13.668 23.716 14.532 22.948 15.228 21.988C15.948 21.004 16.308 19.96 16.308 18.856C15.972 18.904 15.48 19.012 14.832 19.18C13.896 19.42 13.092 19.6 12.42 19.72C11.772 19.84 11.124 19.9 10.476 19.9C9.708 19.9 9.132 19.804 8.748 19.612C8.388 19.396 8.208 19.024 8.208 18.496C8.208 18.136 8.292 17.716 8.46 17.236C8.652 16.756 8.88 16.408 9.144 16.192C10.344 15.88 11.724 15.58 13.284 15.292C14.868 15.004 16.236 14.86 17.388 14.86ZM30.0617 28.756C27.9497 28.756 26.3057 28.036 25.1297 26.596C23.9537 25.156 23.3657 23.32 23.3657 21.088C23.3657 19.216 23.8097 17.452 24.6977 15.796C25.6097 14.14 26.8457 12.808 28.4057 11.8C29.9657 10.792 31.6817 10.288 33.5537 10.288C35.4017 10.288 36.9137 10.9 38.0897 12.124C39.2897 13.324 39.8897 15.1 39.8897 17.452C39.8897 19.108 39.4337 20.824 38.5217 22.6C37.6097 24.376 36.3857 25.852 34.8497 27.028C33.3377 28.18 31.7417 28.756 30.0617 28.756ZM30.6017 25.876C31.3697 25.876 32.1377 25.396 32.9057 24.436C33.6977 23.476 34.3457 22.264 34.8497 20.8C35.3537 19.336 35.6057 17.908 35.6057 16.516C35.6057 14.38 34.7177 13.312 32.9417 13.312C31.9577 13.312 31.0577 13.78 30.2417 14.716C29.4257 15.652 28.7777 16.816 28.2977 18.208C27.8177 19.576 27.5777 20.86 27.5777 22.06C27.5777 22.756 27.7337 23.404 28.0457 24.004C28.3577 24.58 28.7417 25.036 29.1977 25.372C29.6777 25.708 30.1457 25.876 30.6017 25.876ZM45.6069 28.756C44.7909 28.588 44.2149 28.42 43.8789 28.252C43.5429 28.084 43.3269 27.856 43.2309 27.568C43.1349 27.28 43.0749 26.788 43.0509 26.092C42.9789 24.46 42.8709 22.84 42.7269 21.232C42.7029 20.848 42.6309 19.708 42.5109 17.812C42.3909 15.916 42.3309 14.116 42.3309 12.412C42.3309 11.98 42.5469 11.62 42.9789 11.332C43.4349 11.044 43.9989 10.9 44.6709 10.9C45.9669 10.9 46.6149 11.488 46.6149 12.664L46.6509 22.528V25.048C48.2589 22.024 50.0709 18.904 52.0869 15.688C54.1269 12.472 55.4469 10.864 56.0469 10.864C56.8149 10.864 57.4629 11.02 57.9909 11.332C58.5189 11.62 58.7949 11.956 58.8189 12.34C58.6029 12.748 58.1349 13.492 57.4149 14.572C57.1269 14.98 56.6109 15.772 55.8669 16.948L54.6069 18.928C52.5909 22.072 51.1869 24.232 50.3949 25.408C49.6029 26.56 48.9309 27.388 48.3789 27.892C48.1149 28.132 47.7309 28.336 47.2269 28.504C46.7229 28.672 46.1829 28.756 45.6069 28.756ZM64.7173 28.756C62.3653 28.756 60.6493 28.288 59.5693 27.352C58.4893 26.416 57.9493 25.168 57.9493 23.608C57.9493 21.328 58.5133 19.216 59.6413 17.272C60.7933 15.328 62.3173 13.792 64.2133 12.664C66.1333 11.512 68.1973 10.936 70.4053 10.936C71.7493 10.936 72.8773 11.32 73.7893 12.088C74.7013 12.832 75.1573 13.936 75.1573 15.4C75.1573 17.032 74.5453 18.328 73.3213 19.288C72.1213 20.224 70.5973 20.92 68.7493 21.376C66.9253 21.808 64.7293 22.144 62.1613 22.384C62.0653 22.744 62.0173 23.116 62.0173 23.5C62.0173 24.172 62.2933 24.688 62.8453 25.048C63.4213 25.408 64.2253 25.588 65.2573 25.588C66.0253 25.588 66.9013 25.432 67.8853 25.12C68.8933 24.808 69.6613 24.292 70.1893 23.572C70.4773 23.164 70.8373 22.84 71.2693 22.6C71.7253 22.36 72.1573 22.24 72.5653 22.24C72.9493 22.24 73.2613 22.372 73.5013 22.636C73.7413 22.876 73.8613 23.248 73.8613 23.752C73.5733 24.52 73.0093 25.3 72.1693 26.092C71.3293 26.86 70.2613 27.496 68.9653 28C67.6693 28.504 66.2533 28.756 64.7173 28.756ZM63.1693 19.072C64.0093 19.048 65.0653 18.916 66.3373 18.676C67.6093 18.436 68.7613 18.016 69.7933 17.416C70.8253 16.792 71.3413 15.976 71.3413 14.968C71.3413 14.68 71.1853 14.452 70.8733 14.284C70.5613 14.092 70.2253 13.996 69.8653 13.996C69.1453 13.996 68.3173 14.272 67.3813 14.824C66.4693 15.376 65.6173 16.048 64.8253 16.84C64.0333 17.632 63.4813 18.376 63.1693 19.072ZM80.8335 26.632C80.8095 26.776 80.7495 27.064 80.6535 27.496C80.5815 27.904 80.3775 28.192 80.0415 28.36C79.7295 28.528 79.2255 28.612 78.5295 28.612C77.7375 28.612 77.1615 28.528 76.8015 28.36C76.4415 28.192 76.2615 27.832 76.2615 27.28C76.3335 26.992 76.8495 24.94 77.8095 21.124C78.5055 18.172 79.0215 16.096 79.3575 14.896C79.7175 13.192 80.1375 12.076 80.6175 11.548C81.0975 10.996 81.6495 10.72 82.2735 10.72C83.1135 10.72 83.6535 10.84 83.8935 11.08C84.1575 11.32 84.2895 11.632 84.2895 12.016L83.8575 14.14C84.6255 13.204 85.5135 12.436 86.5215 11.836C87.5535 11.212 88.4655 10.9 89.2575 10.9C90.2895 10.9 91.0935 11.08 91.6695 11.44C92.2455 11.8 92.5335 12.268 92.5335 12.844C92.5335 13.276 92.2575 13.624 91.7055 13.888C91.1775 14.128 90.4815 14.284 89.6175 14.356C88.3215 14.476 86.9895 15.04 85.6215 16.048C84.2775 17.056 83.2695 18.244 82.5975 19.612L80.8335 26.632ZM94.9871 10.54C96.1151 9.94 97.0511 9.64 97.7951 9.64C98.6111 9.64 99.0671 10.06 99.1631 10.9L97.7231 16.264C99.3071 13.984 100.783 12.412 102.151 11.548C103.519 10.66 104.743 10.216 105.823 10.216C107.095 10.216 108.019 10.456 108.595 10.936C109.195 11.392 109.507 12.124 109.531 13.132C108.715 15.34 108.031 17.44 107.479 19.432C106.951 21.424 106.687 23.26 106.687 24.94V25.768C106.687 26.44 106.495 26.884 106.111 27.1C105.751 27.292 105.019 27.388 103.915 27.388C103.483 27.388 103.075 27.316 102.691 27.172C102.331 27.028 102.151 26.788 102.151 26.452C102.151 25.492 102.367 24.088 102.799 22.24C103.231 20.392 103.711 18.568 104.239 16.768C104.791 14.968 105.067 14.116 105.067 14.212C105.067 13.876 104.875 13.708 104.491 13.708C103.987 13.708 103.171 14.152 102.043 15.04C100.915 15.928 99.7631 17.32 98.5871 19.216C97.4111 21.088 96.4751 23.44 95.7791 26.272C95.7551 26.416 95.7071 26.68 95.6351 27.064C95.5631 27.448 95.3711 27.724 95.0591 27.892C94.7471 28.036 94.2431 28.108 93.5471 28.108C92.7551 28.108 92.1671 28.024 91.7831 27.856C91.3991 27.688 91.2071 27.328 91.2071 26.776L92.2871 22.168C92.5751 20.92 92.9471 19.336 93.4031 17.416C93.8591 15.472 94.3871 13.18 94.9871 10.54ZM112.986 11.548C112.914 11.476 112.878 11.392 112.878 11.296C112.878 11.056 113.142 10.864 113.67 10.72C114.198 10.552 114.93 10.468 115.866 10.468C116.706 10.468 117.27 10.708 117.558 11.188C117.846 11.644 118.026 12.244 118.098 12.988C118.05 13.18 118.002 13.444 117.954 13.78L117.774 14.644C118.47 13.828 119.502 13.036 120.87 12.268C122.238 11.476 123.306 11.08 124.074 11.08C125.274 11.08 126.102 11.296 126.558 11.728C127.038 12.136 127.314 12.928 127.386 14.104C128.274 13.264 129.294 12.556 130.446 11.98C131.598 11.38 132.606 11.08 133.47 11.08C134.382 11.08 135.222 11.272 135.99 11.656C136.758 12.016 137.142 12.604 137.142 13.42C137.142 13.636 137.13 13.804 137.106 13.924C137.034 14.308 136.89 14.848 136.674 15.544C136.482 16.216 136.338 16.708 136.242 17.02C135.642 18.964 135.174 20.608 134.838 21.952C134.526 23.272 134.334 24.568 134.262 25.84L134.766 27.604C134.478 28.156 134.07 28.588 133.542 28.9C133.038 29.236 132.294 29.404 131.31 29.404C130.734 29.404 130.314 29.212 130.05 28.828C129.786 28.444 129.654 27.964 129.654 27.388C129.654 27.268 129.666 27.136 129.69 26.992C129.714 26.848 129.726 26.716 129.726 26.596C129.774 25.252 129.966 23.896 130.302 22.528C130.662 21.136 131.118 19.576 131.67 17.848C132.174 16.336 132.426 15.412 132.426 15.076C132.426 14.932 132.402 14.788 132.354 14.644C132.33 14.476 132.294 14.392 132.246 14.392C131.694 14.392 130.782 14.656 129.51 15.184C128.262 15.712 127.422 16.24 126.99 16.768C126.534 18.232 125.778 21.28 124.722 25.912L124.506 26.92C124.386 27.544 124.266 27.976 124.146 28.216C124.05 28.456 123.846 28.636 123.534 28.756C123.222 28.876 122.718 28.936 122.022 28.936C120.366 28.936 119.538 28.6 119.538 27.928C119.73 27.4 120.258 25.372 121.122 21.844C121.65 19.66 122.25 17.248 122.922 14.608C122.778 14.68 122.514 14.788 122.13 14.932C120.978 15.388 119.97 15.856 119.106 16.336C118.266 16.816 117.582 17.38 117.054 18.028L116.118 21.844C115.974 22.42 115.842 22.96 115.722 23.464C115.602 23.944 115.494 24.352 115.398 24.688C115.278 25.096 115.194 25.648 115.146 26.344C115.098 26.824 115.026 27.172 114.93 27.388C114.858 27.604 114.654 27.784 114.318 27.928C114.006 28.048 113.502 28.108 112.806 28.108C112.014 28.108 111.414 28.024 111.006 27.856C110.598 27.688 110.394 27.328 110.394 26.776C110.394 26.512 110.694 25.108 111.294 22.564C111.918 20.02 112.758 16.708 113.814 12.628L112.986 11.548ZM145.263 28.756C142.887 28.756 141.147 28.288 140.043 27.352C138.963 26.416 138.423 25.168 138.423 23.608C138.423 21.28 138.903 19.168 139.863 17.272C140.823 15.352 142.155 13.852 143.859 12.772C145.563 11.668 147.507 11.116 149.691 11.116C151.059 11.116 152.199 11.5 153.111 12.268C154.047 13.036 154.515 14.176 154.515 15.688C154.515 17.296 153.987 18.556 152.931 19.468C151.899 20.38 150.543 21.04 148.863 21.448C147.207 21.832 145.119 22.144 142.599 22.384C142.527 22.696 142.491 23.068 142.491 23.5C142.491 24.172 142.779 24.688 143.355 25.048C143.931 25.408 144.735 25.588 145.767 25.588C146.511 25.588 147.375 25.432 148.359 25.12C149.367 24.808 150.135 24.292 150.663 23.572C150.975 23.164 151.335 22.84 151.743 22.6C152.175 22.36 152.595 22.24 153.003 22.24C153.387 22.24 153.699 22.372 153.939 22.636C154.203 22.876 154.335 23.248 154.335 23.752C154.071 24.52 153.519 25.3 152.679 26.092C151.839 26.86 150.771 27.496 149.475 28C148.203 28.504 146.799 28.756 145.263 28.756ZM143.535 19.072C145.071 19.048 146.643 18.76 148.251 18.208C149.859 17.632 150.663 16.636 150.663 15.22C150.663 14.884 150.507 14.632 150.195 14.464C149.883 14.272 149.547 14.176 149.187 14.176C148.491 14.176 147.759 14.44 146.991 14.968C146.247 15.472 145.563 16.108 144.939 16.876C144.315 17.62 143.847 18.352 143.535 19.072ZM159.714 10.54C160.89 9.94 161.826 9.64 162.522 9.64C163.338 9.64 163.794 10.06 163.89 10.9L162.702 15.328C163.206 14.632 163.95 13.948 164.934 13.276C165.918 12.604 166.902 12.052 167.886 11.62C168.894 11.188 169.698 10.972 170.298 10.972C171.57 10.972 172.494 11.212 173.07 11.692C173.646 12.148 173.934 12.88 173.934 13.888C173.694 15.232 173.334 16.852 172.854 18.748C172.374 20.62 172.074 21.808 171.954 22.312C171.426 24.28 171.054 25.756 170.838 26.74C170.694 27.34 170.55 27.76 170.406 28C170.286 28.216 170.058 28.372 169.722 28.468C169.41 28.564 168.858 28.612 168.066 28.612C167.634 28.612 167.226 28.54 166.842 28.396C166.482 28.252 166.302 28.012 166.302 27.676C166.374 26.884 166.614 25.672 167.022 24.04C167.454 22.384 168.03 20.248 168.75 17.632C169.23 16 169.47 15.112 169.47 14.968C169.47 14.632 169.278 14.464 168.894 14.464C168.342 14.464 167.514 14.848 166.41 15.616C165.306 16.36 164.166 17.62 162.99 19.396C161.814 21.148 160.89 23.44 160.218 26.272C160.17 26.416 160.11 26.68 160.038 27.064C159.966 27.448 159.774 27.724 159.462 27.892C159.15 28.036 158.646 28.108 157.95 28.108C157.158 28.108 156.57 28.024 156.186 27.856C155.826 27.688 155.646 27.328 155.646 26.776L156.042 25.228C157.458 19.684 158.682 14.788 159.714 10.54ZM177.32 15.472C177.032 15.472 176.816 15.364 176.672 15.148C176.528 14.908 176.456 14.608 176.456 14.248C176.456 13.744 176.648 13.18 177.032 12.556C177.248 12.34 178.412 12.112 180.524 11.872L182.072 4.888C182.24 4.12 182.516 3.556 182.9 3.196C183.308 2.812 183.752 2.62 184.232 2.62C184.808 2.62 185.324 2.824 185.78 3.232C186.26 3.64 186.512 4.12 186.536 4.672C186.536 4.816 186.512 5.008 186.464 5.248L184.916 11.44C186.5 11.32 187.52 11.26 187.976 11.26C188.384 11.26 188.768 11.356 189.128 11.548C189.512 11.716 189.812 11.92 190.028 12.16C190.244 12.4 190.352 12.604 190.352 12.772C190.352 13.18 190.184 13.552 189.848 13.888C189.536 14.2 189.176 14.392 188.768 14.464L184.052 14.896L180.956 27.28C180.596 28.288 180.104 28.792 179.48 28.792C178.976 28.792 178.52 28.48 178.112 27.856C177.728 27.232 177.536 26.524 177.536 25.732C177.536 25.42 177.572 25.108 177.644 24.796L179.768 15.256L177.32 15.472ZM213.791 3.952C214.439 3.952 215.003 4.024 215.483 4.168C215.987 4.312 216.263 4.528 216.311 4.816C216.311 5.416 215.831 7.732 214.871 11.764C213.911 15.796 213.023 19.372 212.207 22.492C211.751 24.22 210.863 25.648 209.543 26.776C208.247 27.88 206.531 28.432 204.395 28.432C202.643 28.432 201.251 28.108 200.219 27.46C199.211 26.788 198.515 25.996 198.131 25.084C197.723 24.172 197.519 23.272 197.519 22.384C197.519 20.992 197.699 19.984 198.059 19.36C198.395 18.712 198.995 18.388 199.859 18.388C200.699 18.388 201.359 18.508 201.839 18.748C202.319 18.964 202.559 19.252 202.559 19.612C202.559 19.852 202.367 20.236 201.983 20.764C201.575 21.316 201.371 21.712 201.371 21.952C201.395 23.08 201.647 23.86 202.127 24.292C202.631 24.724 203.327 24.94 204.215 24.94C204.839 24.94 205.439 24.688 206.015 24.184C206.615 23.68 207.095 22.756 207.455 21.412L210.947 7.912C209.387 8.176 208.103 8.416 207.095 8.632C206.615 8.464 206.243 8.212 205.979 7.876C205.739 7.516 205.619 7.096 205.619 6.616C205.619 5.92 206.087 5.368 207.023 4.96C208.919 4.576 210.299 4.324 211.163 4.204C212.027 4.06 212.903 3.976 213.791 3.952ZM223.034 28.756C220.922 28.756 219.278 28.036 218.102 26.596C216.926 25.156 216.338 23.32 216.338 21.088C216.338 19.216 216.782 17.452 217.67 15.796C218.582 14.14 219.818 12.808 221.378 11.8C222.938 10.792 224.654 10.288 226.526 10.288C228.374 10.288 229.886 10.9 231.062 12.124C232.262 13.324 232.862 15.1 232.862 17.452C232.862 19.108 232.406 20.824 231.494 22.6C230.582 24.376 229.358 25.852 227.822 27.028C226.31 28.18 224.714 28.756 223.034 28.756ZM223.574 25.876C224.342 25.876 225.11 25.396 225.878 24.436C226.67 23.476 227.318 22.264 227.822 20.8C228.326 19.336 228.578 17.908 228.578 16.516C228.578 14.38 227.69 13.312 225.914 13.312C224.93 13.312 224.03 13.78 223.214 14.716C222.398 15.652 221.75 16.816 221.27 18.208C220.79 19.576 220.55 20.86 220.55 22.06C220.55 22.756 220.706 23.404 221.018 24.004C221.33 24.58 221.714 25.036 222.17 25.372C222.65 25.708 223.118 25.876 223.574 25.876ZM238.436 26.344C238.292 26.68 238.184 26.98 238.112 27.244C237.896 27.796 237.704 28.192 237.536 28.432C237.368 28.696 237.104 28.828 236.744 28.828L235.736 28.864C235.136 28.864 234.656 28.732 234.296 28.468C233.936 28.228 233.732 27.724 233.684 26.956C233.708 26.932 233.828 26.668 234.044 26.164C234.26 25.636 234.476 24.928 234.692 24.04C234.98 22.864 235.268 21.7 235.556 20.548C235.844 19.396 236.12 18.28 236.384 17.2C236.744 15.784 237.272 13.672 237.968 10.864C238.664 8.032 239.204 5.788 239.588 4.132C239.564 3.772 239.54 3.28 239.516 2.656C239.492 2.008 239.48 1.504 239.48 1.144C239.552 0.831998 239.816 0.579998 240.272 0.387999C240.752 0.195999 241.184 0.0999987 241.568 0.0999987C242.168 0.0999987 242.792 0.303999 243.44 0.711999C244.088 1.12 244.424 1.612 244.448 2.188L241.748 12.844C242.396 12.1 243.176 11.584 244.088 11.296C245.024 10.984 245.888 10.828 246.68 10.828C247.808 10.828 248.816 11.152 249.704 11.8C250.616 12.448 251.324 13.312 251.828 14.392C252.356 15.448 252.62 16.564 252.62 17.74C252.62 19.468 252.212 21.172 251.396 22.852C250.58 24.508 249.392 25.876 247.832 26.956C246.272 28.012 244.448 28.54 242.36 28.54C241.76 28.54 241.016 28.324 240.128 27.892C239.264 27.46 238.7 26.944 238.436 26.344ZM239.3 23.356C239.612 23.908 240.08 24.4 240.704 24.832C241.328 25.264 241.892 25.48 242.396 25.48C243.524 25.48 244.556 24.988 245.492 24.004C246.428 22.996 247.172 21.808 247.724 20.44C248.276 19.048 248.552 17.8 248.552 16.696C248.552 15.928 248.348 15.292 247.94 14.788C247.532 14.284 246.932 14.032 246.14 14.032C245.444 14.032 244.7 14.188 243.908 14.5C243.116 14.812 242.408 15.268 241.784 15.868C241.184 16.444 240.776 17.116 240.56 17.884L239.3 23.356ZM260.101 16.156C260.101 16.636 260.317 17.02 260.749 17.308C261.181 17.596 261.865 17.92 262.801 18.28C263.809 18.688 264.625 19.072 265.249 19.432C265.873 19.792 266.413 20.32 266.869 21.016C267.349 21.688 267.589 22.552 267.589 23.608C267.589 25.336 266.869 26.668 265.429 27.604C264.013 28.516 262.105 28.972 259.705 28.972C258.529 28.972 257.425 28.78 256.393 28.396C255.385 28.036 254.581 27.58 253.981 27.028C253.381 26.476 253.081 25.924 253.081 25.372C253.081 24.796 253.333 24.328 253.837 23.968C254.341 23.584 255.049 23.332 255.961 23.212C255.985 23.692 256.237 24.148 256.717 24.58C257.197 24.988 257.761 25.324 258.409 25.588C259.081 25.828 259.657 25.948 260.137 25.948C260.953 25.948 261.697 25.732 262.369 25.3C263.041 24.844 263.377 24.316 263.377 23.716C263.377 22.612 262.309 21.736 260.173 21.088C258.805 20.68 257.749 20.032 257.005 19.144C256.285 18.256 255.925 17.32 255.925 16.336C255.925 14.608 256.633 13.276 258.049 12.34C259.489 11.404 261.409 10.936 263.809 10.936C264.985 10.936 266.029 11.116 266.941 11.476C267.877 11.836 268.597 12.304 269.101 12.88C269.605 13.432 269.857 13.984 269.857 14.536C269.857 15.112 269.605 15.592 269.101 15.976C268.597 16.336 267.889 16.576 266.977 16.696C266.953 16.216 266.737 15.772 266.329 15.364C265.945 14.932 265.477 14.596 264.925 14.356C264.373 14.092 263.857 13.96 263.377 13.96C262.561 13.96 261.805 14.176 261.109 14.608C260.437 15.04 260.101 15.556 260.101 16.156Z" fill="#F19157"/>
</svg>
