<svg width="37" height="15" viewBox="0 0 37 15" fill="none" xmlns="http://www.w3.org/2000/svg">
<path d="M17.4998 7.18057V11.4862H16.1328V0.85084H19.7564C20.6306 0.832241 21.4753 1.16392 22.103 1.77147C22.7384 2.34338 23.0965 3.16172 23.0825 4.01571C23.1011 4.87589 22.7431 5.70043 22.103 6.27389C21.4691 6.87835 20.6864 7.18057 19.7564 7.17902L17.4998 7.18057ZM17.4998 2.16049V5.87402H19.7905C20.2989 5.88952 20.7887 5.68958 21.142 5.32381C21.8596 4.62636 21.8767 3.4779 21.1777 2.7603C21.1653 2.7479 21.1544 2.7355 21.142 2.72465C20.7933 2.35113 20.3005 2.14654 19.7905 2.16049H17.4998ZM26.2319 3.97231C27.2424 3.97231 28.039 4.24199 28.6233 4.78135C29.2077 5.32071 29.499 6.06156 29.499 7.00079V11.4862H28.1925V10.4756H28.1336C27.5679 11.3079 26.8146 11.7233 25.8754 11.7233C25.0741 11.7233 24.403 11.4862 23.8636 11.0103C23.3398 10.5686 23.0422 9.91457 23.0546 9.22797C23.0546 8.47473 23.3398 7.87647 23.9086 7.43165C24.4774 6.98684 25.2368 6.76365 26.1885 6.76365C26.9991 6.76365 27.6686 6.91244 28.1925 7.20847V6.89539C28.1956 6.42733 27.9879 5.98406 27.6283 5.68648C27.2672 5.36101 26.796 5.18277 26.3094 5.18897C25.5468 5.18897 24.9424 5.51135 24.4975 6.15455L23.2948 5.39666C23.9551 4.44657 24.9346 3.97231 26.2319 3.97231ZM24.4634 9.25897C24.4619 9.61234 24.6308 9.94402 24.916 10.1502C25.2182 10.3873 25.5933 10.5144 25.9777 10.5066C26.5542 10.5051 27.1076 10.2757 27.5152 9.86808C27.9677 9.44186 28.194 8.94279 28.194 8.36779C27.7678 8.02836 27.1742 7.85787 26.4117 7.85787C25.8568 7.85787 25.3934 7.99116 25.023 8.25929C24.6494 8.53207 24.4634 8.8622 24.4634 9.25897ZM37.0005 4.20944L32.4392 14.6944H31.0288L32.7212 11.0258L29.7207 4.20944H31.2055L33.3737 9.43721H33.4032L35.5126 4.20944H37.0005Z" fill="#5F6368"/>
<path d="M11.9772 6.24984C11.9772 5.83293 11.9431 5.41756 11.8719 5.00684H6.10938V7.35956H9.40908C9.27269 8.11901 8.83252 8.79011 8.18932 9.21633V10.7445H10.1592C11.3123 9.68284 11.9772 8.10971 11.9772 6.24984Z" fill="#4285F4"/>
<path d="M6.11104 12.2223C7.76012 12.2223 9.14882 11.6814 10.1609 10.7468L8.19099 9.21861C7.64233 9.59058 6.93713 9.80291 6.11104 9.80291C4.51776 9.80291 3.16471 8.72884 2.68114 7.28125H0.652344V8.85593C1.68922 10.9204 3.80171 12.2223 6.11104 12.2223Z" fill="#34A853"/>
<path d="M2.67975 7.28163C2.42402 6.52373 2.42402 5.70074 2.67975 4.94285V3.36816H0.650952C-0.216984 5.09474 -0.216984 7.12974 0.650952 8.85631L2.67975 7.28163Z" fill="#FBBC04"/>
<path d="M6.11104 2.41974C6.98208 2.40579 7.82367 2.73437 8.45447 3.33573L10.1996 1.5921C9.09302 0.553681 7.62838 -0.0166773 6.11104 0.000371479C3.80171 0.000371479 1.68922 1.30383 0.652344 3.36672L2.68114 4.94141C3.16471 3.49381 4.51776 2.41974 6.11104 2.41974Z" fill="#EA4335"/>
</svg>
