<svg width="28" height="28" viewBox="0 0 28 28" fill="none" xmlns="http://www.w3.org/2000/svg">
<g clip-path="url(#clip0_1032_8685)">
<path d="M24.8893 24.3212C24.8893 19.3015 24.1804 15.1246 17.1287 14.2188C16.7538 14.6626 16.2779 15.0211 15.7363 15.2674C15.1947 15.5137 14.6014 15.6416 14.0003 15.6416C13.3992 15.6416 12.8059 15.5137 12.2643 15.2674C11.7227 15.0211 11.2468 14.6626 10.8719 14.2188C3.82863 15.1251 3.11133 19.302 3.11133 24.3207" stroke="white" stroke-width="2" stroke-linecap="round" stroke-linejoin="round"/>
<path d="M18.3249 7.3338C18.3249 10.1951 16.1783 12.6978 14.0043 12.6978C11.8303 12.6978 9.82966 10.1922 9.68315 7.3338C9.53665 4.47545 11.3315 2.15234 14.0043 2.15234C16.6771 2.15234 18.3249 4.47247 18.3249 7.3338Z" stroke="white" stroke-width="2" stroke-linecap="round" stroke-linejoin="round"/>
<path d="M7.22447 19.457C6.46779 21.2776 6.48932 24.0477 6.48932 25.9555C8.87889 26.8573 11.4284 27.3208 14.0016 27.3212C16.5778 27.3219 19.1296 26.8486 21.5143 25.9278C21.5143 24.1965 21.4986 21.7032 20.9635 19.9705" stroke="white" stroke-width="2" stroke-linecap="round" stroke-linejoin="round"/>
<path d="M3.11133 24.3203C3.11133 24.672 4.69086 25.4975 6.47204 25.4975" stroke="white" stroke-width="2" stroke-linecap="round" stroke-linejoin="round"/>
<path d="M24.889 24.3203C24.889 24.672 23.3095 25.4975 21.5283 25.4975" stroke="white" stroke-width="2" stroke-linecap="round" stroke-linejoin="round"/>
<path d="M17.8093 12.9531L14.0001 20.6561L10.1904 12.9531" stroke="white" stroke-width="2" stroke-linecap="round" stroke-linejoin="round"/>
<path d="M14 18.6836V22.0713" stroke="white" stroke-width="2" stroke-linecap="round" stroke-linejoin="round"/>
<path d="M15.7084 23.6879C15.7084 24.0071 15.6082 24.3191 15.4205 24.5845C15.2328 24.8498 14.966 25.0567 14.6539 25.1788C14.3417 25.301 13.9983 25.3329 13.6669 25.2706C13.3356 25.2084 13.0312 25.0547 12.7923 24.829C12.5534 24.6033 12.3907 24.3158 12.3248 24.0028C12.2589 23.6897 12.2927 23.3653 12.422 23.0704C12.5513 22.7755 12.7703 22.5235 13.0512 22.3462C13.3321 22.1689 13.6623 22.0742 14.0002 22.0742C14.2245 22.0742 14.4467 22.1158 14.654 22.1969C14.8612 22.278 15.0496 22.3969 15.2082 22.5467C15.3668 22.6966 15.4927 22.8745 15.5785 23.0703C15.6643 23.2661 15.7084 23.476 15.7084 23.6879Z" stroke="white" stroke-width="2" stroke-linecap="round" stroke-linejoin="round"/>
</g>
<defs>
<clipPath id="clip0_1032_8685">
<rect width="28" height="28" fill="white"/>
</clipPath>
</defs>
</svg>
