<svg width="223" height="223" viewBox="0 0 223 223" fill="none" xmlns="http://www.w3.org/2000/svg">
<g clip-path="url(#clip0_1021_41603)">
<path d="M13.4806 79.4275H41.1897C42.1745 78.5948 41.7508 75.6284 40.7615 74.8011C39.7723 73.9738 38.0619 74.2757 37.4161 75.392C37.541 74.3538 36.8408 73.2762 35.8408 72.968C34.8413 72.6603 33.6563 73.1571 33.1751 74.0853C34.5091 71.5118 31.9379 68.8738 29.6535 67.8926C25.2742 66.0118 22.5514 68.6427 21.9796 72.9007C21.3851 71.7112 19.6519 71.4079 18.5262 72.1157C17.4005 72.8235 16.8925 74.2677 17.017 75.5914C16.7034 74.9581 15.7864 74.7244 15.208 75.1302C14.6295 75.5361 14.5372 76.4781 15.026 76.9883C14.4908 76.4005 13.453 76.3813 12.8964 76.9486C12.3398 77.5155 12.883 78.9034 13.4806 79.4275Z" fill="white"/>
<path d="M166.504 57.4187H194.213C195.198 56.586 194.774 53.6196 193.785 52.7923C192.796 51.965 191.085 52.2669 190.439 53.3833C190.564 52.345 189.864 51.2674 188.864 50.9593C187.865 50.6515 186.68 51.1484 186.198 52.0765C187.532 49.5031 184.961 46.865 182.677 45.8838C178.297 44.003 175.575 46.6339 175.003 50.8919C174.408 49.7024 172.675 49.3991 171.549 50.1069C170.424 50.8147 169.916 52.2584 170.04 53.5826C169.727 52.9493 168.81 52.7156 168.231 53.1215C167.653 53.5273 167.56 54.4693 168.049 54.9795C167.514 54.3917 166.476 54.3725 165.92 54.9398C165.363 55.5067 165.906 56.8946 166.504 57.4187Z" fill="white"/>
<path d="M26.2749 129.657H47.0148C47.7516 129.034 47.4349 126.813 46.6945 126.194C45.9542 125.575 44.6737 125.801 44.1907 126.636C44.2839 125.859 43.7599 125.053 43.0115 124.822C42.2635 124.592 41.3764 124.964 41.0161 125.658C42.0142 123.732 40.0897 121.758 38.3802 121.024C35.1026 119.616 33.0643 121.585 32.6366 124.772C32.1915 123.882 30.8941 123.655 30.0521 124.184C29.2096 124.714 28.8291 125.795 28.9223 126.786C28.6877 126.312 28.0014 126.137 27.5683 126.441C27.1352 126.744 27.0665 127.45 27.4323 127.831C27.0317 127.392 26.2548 127.377 25.8383 127.801C25.4212 128.226 25.8275 129.264 26.2749 129.657Z" fill="white"/>
<path d="M79.9928 36.9652H99.3724C100.061 36.3828 99.7648 34.3084 99.0731 33.7295C98.3813 33.1506 97.1852 33.362 96.7334 34.1425C96.8208 33.416 96.3306 32.6627 95.6317 32.4473C94.9329 32.2318 94.1038 32.5793 93.7675 33.2287C94.7005 31.429 92.9022 29.5839 91.3047 28.8976C88.242 27.5819 86.3376 29.4225 85.9375 32.4C85.5218 31.5682 84.3096 31.3559 83.5224 31.851C82.7352 32.346 82.3797 33.3558 82.4667 34.2817C82.2477 33.8388 81.6059 33.6751 81.2014 33.9592C80.7969 34.2429 80.7322 34.9016 81.0743 35.2589C80.7001 34.8476 79.974 34.8343 79.5847 35.2312C79.1949 35.6281 79.5749 36.5991 79.9928 36.9652Z" fill="white"/>
<path d="M177.67 120.577H202.003C202.868 119.846 202.496 117.241 201.627 116.515C200.758 115.788 199.256 116.054 198.689 117.033C198.798 116.121 198.184 115.175 197.306 114.905C196.428 114.635 195.387 115.071 194.964 115.886C196.136 113.626 193.878 111.31 191.872 110.448C188.026 108.797 185.635 111.107 185.133 114.846C184.611 113.802 183.089 113.535 182.101 114.157C181.113 114.779 180.666 116.047 180.776 117.209C180.501 116.653 179.695 116.448 179.187 116.804C178.679 117.16 178.598 117.988 179.028 118.436C178.557 117.92 177.646 117.903 177.157 118.401C176.668 118.899 177.145 120.117 177.67 120.577Z" fill="white"/>
<path d="M161.635 64.6782L162.22 66.1032C162.249 66.1732 162.304 66.2285 162.374 66.2575L163.799 66.8422C164.033 66.9381 164.033 67.269 163.799 67.3649L162.374 67.9496C162.304 67.9782 162.249 68.0339 162.22 68.1039L161.635 69.5289C161.54 69.7626 161.209 69.7626 161.113 69.5289L160.528 68.1039C160.499 68.0339 160.444 67.9786 160.374 67.9496L158.949 67.3649C158.715 67.269 158.715 66.9381 158.949 66.8422L160.374 66.2575C160.444 66.2289 160.499 66.1732 160.528 66.1032L161.113 64.6782C161.209 64.4445 161.54 64.4445 161.635 64.6782Z" fill="#FFCE5E"/>
<path d="M200.866 154.367L201.451 155.792C201.48 155.862 201.535 155.917 201.605 155.946L203.03 156.531C203.264 156.627 203.264 156.957 203.03 157.053L201.605 157.638C201.535 157.667 201.48 157.722 201.451 157.792L200.866 159.217C200.77 159.451 200.44 159.451 200.343 159.217L199.758 157.792C199.73 157.722 199.674 157.667 199.604 157.638L198.179 157.053C197.945 156.957 197.945 156.627 198.179 156.531L199.604 155.946C199.674 155.917 199.729 155.862 199.758 155.792L200.343 154.367C200.44 154.133 200.77 154.133 200.866 154.367Z" fill="#FFCE5E"/>
<path d="M44.6354 94.6802L45.2201 96.1051C45.2487 96.1752 45.3044 96.2305 45.3744 96.2594L46.7994 96.8442C47.0331 96.94 47.0331 97.271 46.7994 97.3669L45.3744 97.9516C45.3044 97.9801 45.2491 98.0359 45.2201 98.1059L44.6354 99.5309C44.5395 99.7646 44.2086 99.7646 44.1127 99.5309L43.5276 98.1059C43.499 98.0359 43.4433 97.9806 43.3737 97.9516L41.9487 97.3669C41.715 97.271 41.715 96.94 41.9487 96.8442L43.3737 96.2594C43.4437 96.2309 43.499 96.1752 43.5276 96.1051L44.1127 94.6802C44.2086 94.4465 44.5395 94.4465 44.6354 94.6802Z" fill="#FFCE5E"/>
<path d="M104.78 65.7954L105.365 67.2204C105.394 67.2904 105.449 67.3457 105.519 67.3747L106.944 67.9594C107.178 68.0553 107.178 68.3862 106.944 68.4821L105.519 69.0668C105.449 69.0954 105.394 69.1511 105.365 69.2211L104.78 70.6461C104.685 70.8798 104.354 70.8798 104.258 70.6461L103.673 69.2211C103.644 69.1511 103.588 69.0958 103.518 69.0668L102.093 68.4821C101.86 68.3862 101.86 68.0553 102.093 67.9594L103.518 67.3747C103.588 67.3461 103.644 67.2904 103.673 67.2204L104.258 65.7954C104.354 65.5617 104.685 65.5617 104.78 65.7954Z" fill="#FFCE5E"/>
<path d="M166.295 70.7543L166.586 71.4652C166.601 71.5 166.628 71.5277 166.663 71.5419L167.374 71.8336C167.49 71.8813 167.49 72.0468 167.374 72.0945L166.663 72.3862C166.628 72.4005 166.601 72.4281 166.586 72.4629L166.295 73.1738C166.247 73.2902 166.082 73.2902 166.034 73.1738L165.742 72.4629C165.728 72.4281 165.7 72.4005 165.665 72.3862L164.954 72.0945C164.838 72.0468 164.838 71.8813 164.954 71.8336L165.665 71.5419C165.7 71.5277 165.728 71.5 165.742 71.4652L166.034 70.7543C166.082 70.6379 166.247 70.6379 166.295 70.7543Z" fill="#FFCE5E"/>
<path d="M64.8689 35.685L65.1606 36.3959C65.1749 36.4307 65.2025 36.4583 65.2373 36.4726L65.9483 36.7643C66.0647 36.812 66.0647 36.9775 65.9483 37.0252L65.2373 37.3169C65.2025 37.3311 65.1749 37.3588 65.1606 37.3936L64.8689 38.1045C64.8212 38.2209 64.6558 38.2209 64.608 38.1045L64.3163 37.3936C64.3021 37.3588 64.2744 37.3311 64.2396 37.3169L63.5287 37.0252C63.4123 36.9775 63.4123 36.812 63.5287 36.7643L64.2396 36.4726C64.2744 36.4583 64.3021 36.4307 64.3163 36.3959L64.608 35.685C64.6562 35.5686 64.8212 35.5686 64.8689 35.685Z" fill="#FFCE5E"/>
<path d="M47.1346 90.2406L47.4262 90.9516C47.4405 90.9863 47.4682 91.014 47.503 91.0283L48.2139 91.32C48.3303 91.3677 48.3303 91.5331 48.2139 91.5809L47.503 91.8725C47.4682 91.8868 47.4405 91.9145 47.4262 91.9493L47.1346 92.6602C47.0868 92.7766 46.9214 92.7766 46.8737 92.6602L46.582 91.9493C46.5677 91.9145 46.54 91.8868 46.5053 91.8725L45.7943 91.5809C45.6779 91.5331 45.6779 91.3677 45.7943 91.32L46.5053 91.0283C46.54 91.014 46.5677 90.9863 46.582 90.9516L46.8737 90.2406C46.9218 90.1242 47.0868 90.1242 47.1346 90.2406Z" fill="#FFCE5E"/>
<path d="M185.846 133.035L186.137 133.745C186.151 133.78 186.179 133.808 186.214 133.822L186.925 134.114C187.041 134.162 187.041 134.327 186.925 134.375L186.214 134.666C186.179 134.681 186.151 134.708 186.137 134.743L185.846 135.454C185.798 135.571 185.632 135.571 185.585 135.454L185.293 134.743C185.279 134.708 185.251 134.681 185.216 134.666L184.505 134.375C184.389 134.327 184.389 134.162 184.505 134.114L185.216 133.822C185.251 133.808 185.279 133.78 185.293 133.745L185.585 133.035C185.633 132.918 185.798 132.918 185.846 133.035Z" fill="#FFCE5E"/>
<path d="M27.8572 148.701L28.1489 149.412C28.1632 149.446 28.1908 149.474 28.2256 149.488L28.9365 149.78C29.0529 149.828 29.0529 149.993 28.9365 150.041L28.2256 150.332C28.1908 150.347 28.1632 150.374 28.1489 150.409L27.8572 151.12C27.8095 151.237 27.644 151.237 27.5963 151.12L27.3046 150.409C27.2904 150.374 27.2627 150.347 27.2279 150.332L26.517 150.041C26.4006 149.993 26.4006 149.828 26.517 149.78L27.2279 149.488C27.2627 149.474 27.2904 149.446 27.3046 149.412L27.5963 148.701C27.644 148.584 27.8095 148.584 27.8572 148.701Z" fill="#FFCE5E"/>
<path d="M206.508 167.392H23.3594C34.7043 201.814 57.8566 208.336 118.291 208.336C173.271 208.336 197.488 190.549 206.508 167.392Z" fill="#9DC9DD"/>
<path d="M129.613 202.769C143.251 202.769 154.307 199.704 154.307 195.923C154.307 192.143 143.251 189.078 129.613 189.078C115.974 189.078 104.918 192.143 104.918 195.923C104.918 199.704 115.974 202.769 129.613 202.769Z" fill="#74A7CB"/>
<path d="M171.032 156.803C172.917 151.004 176.488 145.032 182.371 143.424C184.425 142.863 186.791 142.949 188.478 144.249C190.681 145.946 191.071 149.25 190.146 151.872C189.222 154.495 187.266 156.601 185.371 158.636C182.646 161.564 179.941 164.514 177.417 167.617C174.873 170.745 172.45 174.177 171.733 178.145C171.622 178.76 171.548 179.399 171.247 179.948C170.947 180.497 170.346 180.94 169.73 180.833C167.961 180.526 168.562 171.206 168.647 169.638C168.884 165.281 169.682 160.954 171.032 156.803Z" fill="#83BAA8"/>
<path d="M186.573 144.172C184.287 145.644 182.297 147.673 180.62 149.8C178.775 152.142 177.393 154.763 176.043 157.409C173.581 162.236 171.136 167.216 169.964 172.538C169.645 173.986 169.434 175.459 169.357 176.94C169.278 178.438 169.296 179.984 169.728 181.432C169.771 181.575 170.009 181.591 170.012 181.416C170.036 180.123 169.958 178.83 170.015 177.536C170.072 176.243 170.234 174.956 170.481 173.685C170.986 171.077 171.821 168.547 172.823 166.09C173.845 163.582 175.062 161.161 176.283 158.745C177.571 156.195 178.841 153.615 180.517 151.292C181.411 150.052 182.416 148.892 183.506 147.82C184.607 146.738 185.811 145.797 187.019 144.84C187.372 144.561 186.963 143.92 186.573 144.172Z" fill="#4D867E"/>
<path d="M180.889 165.857C185.018 162.934 190.353 160.733 195.062 162.579C196.707 163.224 198.238 164.454 198.716 166.156C199.339 168.376 197.961 170.766 196.047 172.052C194.132 173.338 191.787 173.769 189.518 174.184C186.255 174.78 182.993 175.401 179.777 176.214C176.535 177.034 173.222 178.115 170.779 180.398C170.399 180.752 170.033 181.141 169.561 181.357C169.09 181.572 168.47 181.569 168.114 181.192C167.09 180.112 172.109 174.211 172.943 173.211C175.259 170.43 177.935 167.948 180.889 165.857Z" fill="#4D867E"/>
<path d="M197.488 165.16C195.238 165.007 192.909 165.37 190.74 165.953C188.352 166.596 186.133 167.654 183.923 168.744C179.894 170.734 175.799 172.834 172.382 175.793C171.452 176.598 170.581 177.473 169.796 178.42C169.002 179.377 168.246 180.414 167.816 181.591C167.773 181.708 167.924 181.836 168.013 181.722C168.67 180.873 169.259 179.975 169.938 179.143C170.617 178.311 171.363 177.536 172.157 176.813C173.785 175.329 175.595 174.06 177.479 172.922C179.403 171.761 181.412 170.754 183.421 169.752C185.541 168.695 187.665 167.609 189.931 166.894C191.141 166.513 192.384 166.24 193.64 166.068C194.908 165.894 196.176 165.864 197.453 165.827C197.827 165.816 197.873 165.187 197.488 165.16Z" fill="#83BAA8"/>
<path d="M55.5087 149.515C52.351 143.551 47.3214 137.718 40.6024 137.084C38.2556 136.862 35.6924 137.406 34.1002 139.145C32.0219 141.414 32.2239 145.089 33.7309 147.773C35.2375 150.456 37.7703 152.38 40.2229 154.239C43.7508 156.913 47.2603 159.616 50.6018 162.519C53.97 165.447 57.2646 168.727 58.8006 172.917C59.0387 173.567 59.2412 174.249 59.673 174.791C60.1047 175.332 60.8446 175.7 61.4958 175.466C63.3654 174.796 60.9387 164.749 60.548 163.055C59.4624 158.35 57.7685 153.784 55.5087 149.515Z" fill="#83BAA8"/>
<path d="M36.1641 138.699C38.936 139.869 41.4916 141.703 43.7238 143.703C46.1812 145.906 48.1865 148.5 50.1618 151.129C53.7637 155.923 57.3763 160.888 59.6652 166.468C60.2878 167.986 60.7985 169.552 61.1642 171.152C61.5344 172.77 61.8091 174.459 61.6133 176.12C61.5937 176.284 61.3368 176.347 61.2998 176.157C61.0281 174.751 60.8667 173.327 60.5594 171.927C60.2521 170.528 59.8293 169.155 59.3195 167.817C58.2728 165.07 56.8808 162.47 55.3216 159.982C53.7298 157.441 51.9427 155.033 50.1524 152.631C48.2636 150.097 46.3877 147.524 44.1194 145.311C42.9085 144.129 41.5928 143.056 40.2004 142.094C38.7946 141.124 37.3027 140.326 35.8042 139.513C35.3666 139.275 35.69 138.499 36.1641 138.699Z" fill="#4D867E"/>
<path d="M47.5496 159.103C42.6365 155.727 36.3122 153.221 30.7934 155.475C28.8658 156.262 27.0822 157.737 26.5475 159.749C25.8499 162.377 27.5126 165.17 29.7904 166.654C32.0681 168.137 34.8382 168.607 37.5191 169.058C41.3748 169.706 45.2282 170.385 49.0321 171.29C52.8668 172.202 56.7881 173.421 59.7058 176.071C60.1585 176.482 60.596 176.934 61.1557 177.181C61.715 177.427 62.4451 177.413 62.859 176.964C64.0476 175.673 58.0355 168.803 57.0369 167.638C54.2606 164.399 51.0659 161.519 47.5496 159.103Z" fill="#4D867E"/>
<path d="M27.9781 158.556C30.6269 158.338 33.3778 158.727 35.9437 159.379C38.7691 160.097 41.4005 161.307 44.0225 162.556C48.8041 164.834 53.6637 167.241 57.7401 170.671C58.8489 171.604 59.8894 172.621 60.8309 173.724C61.7831 174.839 62.6898 176.048 63.2161 177.428C63.2683 177.565 63.0926 177.72 62.986 177.586C62.1983 176.597 61.4888 175.548 60.6752 174.579C59.8617 173.61 58.9693 172.708 58.0224 171.869C56.0783 170.147 53.9246 168.682 51.6857 167.373C49.3999 166.036 47.0156 164.883 44.6308 163.735C42.115 162.525 39.5937 161.279 36.9119 160.475C35.4803 160.045 34.0111 159.744 32.5282 159.562C31.0305 159.378 29.5364 159.364 28.0307 159.341C27.5901 159.334 27.5254 158.594 27.9781 158.556Z" fill="#83BAA8"/>
<path d="M120.41 199.537C149.849 199.537 173.715 194.642 173.715 188.605C173.715 182.567 149.849 177.673 120.41 177.673C90.9707 177.673 67.1055 182.567 67.1055 188.605C67.1055 194.642 90.9707 199.537 120.41 199.537Z" fill="#74A7CB"/>
<path d="M98.6197 190.736C127.827 190.736 151.505 186.046 151.505 180.26C151.505 174.475 127.827 169.785 98.6197 169.785C69.412 169.785 45.7344 174.475 45.7344 180.26C45.7344 186.046 69.412 190.736 98.6197 190.736Z" fill="#74A7CB"/>
<path d="M125.961 78.0723L133.066 82.7758L64.3866 85.4353L57.8594 79.9437L125.961 78.0723Z" fill="white"/>
<path d="M70.704 82.062C74.1913 81.9166 77.6777 81.7641 81.165 81.6192C82.1341 81.579 83.1028 81.5384 84.072 81.4983C85.0287 81.4586 86.0018 81.4858 86.9255 81.2066C87.0624 81.1651 87.0794 80.9439 86.9255 80.9118C86.1008 80.7388 85.2824 80.8083 84.4471 80.8454C83.6032 80.8828 82.759 80.9203 81.9151 80.9577C80.1485 81.0362 78.3819 81.1134 76.6153 81.1892C73.1196 81.3395 69.622 81.4738 66.1276 81.6606C65.1424 81.7133 64.1568 81.7579 63.172 81.8199C62.2577 81.8774 61.2859 81.8721 60.3867 82.0705L60.7234 82.3537C61.4085 82.4037 62.1101 82.3564 62.7907 82.3448C63.6488 82.3301 64.5069 82.2957 65.365 82.2681C67.145 82.2097 68.9245 82.1361 70.704 82.062Z" fill="#D5F2F9"/>
<path d="M101.59 82.0732C99.735 81.9024 97.8266 82.0389 95.9636 82.0576C94.0882 82.0763 92.2123 82.0986 90.3369 82.1312C86.5544 82.1968 82.7714 82.2739 78.9902 82.3984C77.9417 82.4327 76.8922 82.4662 75.8441 82.5143C74.8223 82.5611 73.7787 82.5545 72.7716 82.748C72.6704 82.7676 72.7083 82.9023 72.7939 82.913C73.7395 83.029 74.7037 82.9652 75.6537 82.9496C76.5751 82.934 77.4966 82.9099 78.4184 82.8894C80.2934 82.8475 82.1684 82.7949 84.0438 82.7534C87.7626 82.6709 91.4818 82.6044 95.201 82.5487C96.25 82.5331 97.299 82.5188 98.348 82.5063C99.4304 82.4934 100.513 82.5295 101.59 82.4158C101.808 82.3917 101.811 82.0937 101.59 82.0732Z" fill="#D5F2F9"/>
<path d="M91.4601 81.0733C92.9225 81.1821 94.388 81.125 95.8527 81.0907C97.2853 81.0572 98.7178 81.0211 100.15 80.9859C103.047 80.9145 105.943 80.8472 108.84 80.7825C114.541 80.6554 120.24 80.4868 125.933 80.1461C126.902 80.0881 127.878 80.039 128.854 79.9886L127.84 79.3174C127.518 79.3415 127.196 79.3664 126.875 79.3874C124.046 79.5725 121.214 79.7179 118.382 79.841C112.659 80.0899 106.926 80.2076 101.201 80.3855C99.6089 80.4351 98.0176 80.4832 96.4258 80.5345C94.7694 80.588 93.1049 80.6014 91.4601 80.8155C91.2986 80.8365 91.2906 81.0608 91.4601 81.0733Z" fill="#D5F2F9"/>
<path d="M129.793 80.6084C129.611 80.632 129.429 80.6579 129.248 80.6771C128.31 80.7774 127.37 80.8715 126.429 80.9478C124.486 81.1048 122.537 81.223 120.59 81.314C118.641 81.405 116.691 81.462 114.74 81.4772C112.8 81.4919 110.822 81.322 108.89 81.4924C108.736 81.5062 108.671 81.7564 108.851 81.7867C110.771 82.1119 112.797 82.0289 114.74 82.0418C116.69 82.0548 118.641 82.0298 120.59 81.9584C122.539 81.8866 124.486 81.7626 126.429 81.5972C127.432 81.512 128.434 81.4255 129.436 81.3247C129.854 81.2828 130.28 81.2502 130.705 81.2123L129.793 80.6084Z" fill="#D5F2F9"/>
<path d="M126.289 77.4014C126.289 77.4014 58.0681 79.0841 55.2685 79.7504C52.469 80.4168 51.4414 86.4462 51.4066 94.604C51.3718 102.762 53.7597 171.821 54.571 176.108C55.3823 180.394 66.1327 184.762 71.0088 184.791C75.8876 184.82 135.268 184.45 137.687 184.144C140.106 183.839 134.1 83.0098 133.756 82.4242C133.412 81.8386 72.3651 84.5177 69.7711 84.4477C67.1772 84.3777 58.5226 80.5805 60.3703 80.8155C62.2181 81.0505 125.334 78.4423 126.492 78.4735C127.649 78.5043 128.143 77.4054 126.289 77.4014Z" fill="#697BAE"/>
<path d="M69.1441 88.6462C69.1263 87.5637 69.9679 86.6615 71.049 86.6035L133.849 83.246C133.828 83.0012 133.81 82.8094 133.794 82.6716C133.794 82.6711 133.794 82.6707 133.794 82.6702C133.794 82.6644 133.793 82.6582 133.793 82.6528C133.79 82.631 133.788 82.6122 133.786 82.5935C133.785 82.5864 133.784 82.5801 133.783 82.5734C133.782 82.565 133.781 82.5556 133.78 82.548C133.778 82.5342 133.776 82.5221 133.774 82.511C133.774 82.5056 133.773 82.5025 133.772 82.4976C133.771 82.4896 133.77 82.4807 133.768 82.4735C133.767 82.4668 133.765 82.4588 133.765 82.4535C133.761 82.4392 133.759 82.4285 133.757 82.4245C133.753 82.4187 133.741 82.4129 133.725 82.4075C133.719 82.4053 133.712 82.4035 133.704 82.4013C133.697 82.3995 133.687 82.3977 133.679 82.3964C131.258 81.933 72.3196 84.5167 69.7716 84.448C67.464 84.3855 60.3659 81.3755 60.1269 80.8769C60.0957 80.8523 60.0818 80.8331 60.0912 80.8202C60.1082 80.7966 60.1974 80.7935 60.3708 80.8158C60.3896 80.818 60.4172 80.8202 60.4489 80.822C60.4569 80.8224 60.4658 80.8229 60.4748 80.8233C60.5069 80.8247 60.5434 80.8265 60.5863 80.8273C60.5898 80.8273 60.5925 80.8274 60.5961 80.8278C60.6434 80.8291 60.6987 80.8296 60.758 80.83C60.7718 80.83 60.7861 80.8305 60.8008 80.8305C60.8588 80.8309 60.9208 80.8309 60.989 80.8309C60.9948 80.8309 60.9997 80.8309 61.0055 80.8309C61.0804 80.8309 61.1629 80.83 61.2499 80.8296C61.2691 80.8296 61.2892 80.8291 61.3083 80.8291C61.3891 80.8282 61.4734 80.8273 61.5635 80.826C61.5733 80.826 61.5826 80.826 61.5924 80.8256C61.6968 80.8242 61.807 80.8224 61.9234 80.8207C61.939 80.8202 61.9555 80.8202 61.9715 80.8198C62.0799 80.818 62.1928 80.8157 62.3109 80.8135C62.3221 80.8131 62.3333 80.8131 62.3448 80.8131C62.4755 80.8104 62.6124 80.8077 62.7547 80.8042C62.769 80.8037 62.7842 80.8037 62.7989 80.8033C62.9291 80.8001 63.0642 80.797 63.2038 80.7939C63.2248 80.7935 63.2453 80.793 63.2667 80.7926C63.4206 80.789 63.5794 80.785 63.7439 80.7805C63.7538 80.7801 63.7645 80.7801 63.7743 80.7796C63.9322 80.7756 64.0949 80.7712 64.2622 80.7667C64.2832 80.7662 64.3041 80.7654 64.3251 80.7649C64.5008 80.76 64.681 80.7551 64.867 80.7497C64.8848 80.7493 64.9031 80.7489 64.9209 80.7484C65.0891 80.7435 65.2612 80.7386 65.437 80.7337C65.4758 80.7324 65.5141 80.7315 65.5534 80.7301C65.7425 80.7248 65.9343 80.719 66.1318 80.7127C66.147 80.7123 66.1631 80.7118 66.1782 80.7114C66.3852 80.7051 66.5966 80.6989 66.8124 80.6922C66.8191 80.6922 66.8258 80.6918 66.8325 80.6918C67.2807 80.6779 67.7486 80.6632 68.2338 80.6476C68.2646 80.6467 68.2954 80.6458 68.3262 80.6445C68.5349 80.6378 68.7476 80.6307 68.9626 80.624C68.9965 80.6226 69.0295 80.6217 69.0634 80.6209C69.2975 80.6133 69.5361 80.6052 69.7774 80.5972C69.8341 80.5954 69.8912 80.5932 69.9482 80.5914C70.1427 80.5847 70.3394 80.5785 70.5379 80.5718C70.5892 80.57 70.64 80.5682 70.6917 80.5664C70.9348 80.5584 71.1814 80.5499 71.4303 80.5415C71.4981 80.5392 71.5663 80.537 71.6346 80.5343C71.8058 80.5285 71.9789 80.5227 72.1528 80.5165C72.2822 80.512 72.4111 80.5076 72.5417 80.5031C72.746 80.496 72.9516 80.4888 73.1595 80.4817C73.2924 80.4772 73.4262 80.4723 73.5604 80.4679C73.6764 80.4639 73.7932 80.4598 73.9101 80.4558C74.0332 80.4514 74.1558 80.4474 74.2798 80.4429C74.4074 80.4384 74.5371 80.434 74.666 80.4291C74.9738 80.4184 75.2837 80.4072 75.5973 80.3961C75.6196 80.3952 75.6419 80.3947 75.6642 80.3938C76.2484 80.3729 76.8434 80.3519 77.4473 80.3301C77.5561 80.326 77.6649 80.322 77.7742 80.3185C77.929 80.3127 78.0842 80.3073 78.2403 80.3015C78.4923 80.2921 78.7443 80.2832 78.9989 80.2739C79.1309 80.269 79.2643 80.264 79.3972 80.2591C79.5069 80.2551 79.6171 80.2511 79.7273 80.2471C80.2183 80.2293 80.7142 80.211 81.2142 80.1927C82.8278 80.1329 84.4843 80.0714 86.1693 80.008C86.4007 79.9996 86.6327 79.9907 86.8646 79.9817C86.9248 79.9795 86.9846 79.9773 87.0448 79.975C87.4876 79.9585 87.9319 79.9416 88.3774 79.9246C89.1361 79.8961 89.8987 79.8671 90.6632 79.8381C90.9433 79.8274 91.2242 79.8167 91.5048 79.806C92.2322 79.7784 92.961 79.7503 93.6893 79.7226C94.1941 79.7034 94.699 79.6838 95.203 79.6646C95.455 79.6548 95.707 79.645 95.959 79.6356C111.317 79.0451 125.94 78.4604 126.491 78.4751C127.07 78.4908 127.483 78.2236 127.519 77.9524C127.542 77.7865 127.42 77.6193 127.113 77.514C127.096 77.5082 127.077 77.5033 127.06 77.498C127.015 77.4846 126.967 77.4725 126.915 77.4618C126.894 77.4574 126.873 77.4529 126.851 77.4489C126.778 77.436 126.7 77.4248 126.613 77.4177C126.612 77.4177 126.611 77.4172 126.609 77.4172C126.511 77.4092 126.405 77.4043 126.289 77.4043C126.289 77.4043 124.458 77.4493 121.388 77.5278C121.346 77.5287 121.303 77.5301 121.262 77.531C121.046 77.5363 120.826 77.5421 120.599 77.5479C120.58 77.5484 120.563 77.5488 120.544 77.5492C118.786 77.5943 116.687 77.6487 114.338 77.7103C114.296 77.7116 114.253 77.7125 114.212 77.7138C113.898 77.7218 113.58 77.7303 113.257 77.7388C113.244 77.7392 113.23 77.7392 113.217 77.7397C112.193 77.7669 111.127 77.795 110.025 77.8244C109.961 77.8262 109.898 77.828 109.834 77.8293C109.519 77.8378 109.202 77.8463 108.882 77.8548C108.788 77.8574 108.693 77.8597 108.599 77.8623C106.336 77.923 103.943 77.9881 101.472 78.0564C101.385 78.0586 101.298 78.0613 101.211 78.0635C100.947 78.0706 100.682 78.0782 100.416 78.0853C99.4382 78.1125 98.4512 78.1402 97.4557 78.1679C97.3554 78.1705 97.2551 78.1736 97.1547 78.1763C96.0839 78.2067 95.0063 78.237 93.9234 78.2682C93.8944 78.2691 93.865 78.27 93.836 78.2709C92.7103 78.303 91.581 78.336 90.4518 78.3686C90.433 78.369 90.4147 78.3694 90.396 78.3703C89.2873 78.4024 88.1794 78.4355 87.076 78.468C86.7593 78.4774 86.4431 78.4867 86.1273 78.4966C85.8575 78.5046 85.5877 78.5126 85.3183 78.5211C84.78 78.5371 84.243 78.5536 83.7082 78.5697C83.3679 78.58 83.0294 78.5907 82.6914 78.6009C82.3047 78.613 81.9193 78.6246 81.5353 78.6366C81.4011 78.6406 81.2673 78.6446 81.1335 78.6491C80.1434 78.6799 79.1635 78.7106 78.1984 78.7419C77.429 78.7664 76.6686 78.7909 75.9189 78.8154C75.7521 78.8208 75.587 78.8261 75.4216 78.8319C75.2985 78.836 75.1758 78.84 75.0536 78.844C74.1139 78.8752 73.1911 78.906 72.2915 78.9368C71.8108 78.9533 71.3362 78.9698 70.8683 78.9858C70.4161 79.0019 69.9706 79.0175 69.5317 79.0331C69.4247 79.0371 69.3194 79.0407 69.2132 79.0447C69.025 79.0514 68.8382 79.0581 68.6526 79.0648C68.3431 79.0759 68.0371 79.0871 67.7352 79.0982C67.5126 79.1062 67.2919 79.1147 67.0738 79.1227C67.014 79.125 66.9534 79.1272 66.894 79.1294C66.494 79.1446 66.1011 79.1593 65.7162 79.1745C65.2644 79.1919 64.8233 79.2093 64.3938 79.2267C63.9848 79.2432 63.5874 79.2592 63.1998 79.2753C63.1619 79.2766 63.1245 79.2784 63.087 79.2797C62.7159 79.2953 62.3555 79.3105 62.0059 79.3257C61.9831 79.3266 61.9604 79.3275 61.9376 79.3288C61.567 79.3448 61.208 79.3609 60.8637 79.377C60.5515 79.3912 60.25 79.4055 59.9601 79.4198C59.7322 79.4309 59.5141 79.4416 59.3004 79.4523C59.2612 79.4546 59.2211 79.4563 59.1823 79.4586C58.9856 79.4688 58.7965 79.4786 58.6127 79.4885C58.5695 79.4907 58.5262 79.4929 58.4834 79.4956C58.3027 79.5054 58.1275 79.5152 57.9602 79.525C57.9268 79.5268 57.8951 79.529 57.8625 79.5308C57.694 79.5406 57.5312 79.5504 57.3777 79.5603C57.3661 79.5612 57.3545 79.5616 57.343 79.5625C57.144 79.575 56.9572 79.5875 56.7841 79.5995C56.6909 79.6062 56.6026 79.6124 56.517 79.6191C56.4795 79.6218 56.4447 79.6249 56.409 79.6276C56.3622 79.6312 56.3149 79.6347 56.2708 79.6383C56.2346 79.6414 56.2012 79.6441 56.1669 79.6468C56.1254 79.6504 56.0843 79.6539 56.0455 79.657C56.0125 79.6602 55.9809 79.6628 55.9492 79.666C55.9153 79.6691 55.8823 79.6722 55.8506 79.6753C55.819 79.6785 55.7882 79.6816 55.7588 79.6847C55.7293 79.6878 55.7017 79.6909 55.6745 79.6941C55.6486 79.6967 55.6232 79.6999 55.5991 79.7025C55.5719 79.7057 55.5474 79.7088 55.5228 79.7119C55.5023 79.7146 55.4809 79.7173 55.4622 79.7199C55.4381 79.7235 55.4171 79.7266 55.3962 79.7302C55.3814 79.7324 55.3658 79.7346 55.3525 79.7373C55.3257 79.7418 55.3025 79.7467 55.282 79.7512C55.278 79.752 55.2726 79.7529 55.2691 79.7538C55.1865 79.7735 55.1058 79.7989 55.026 79.8274C55.0006 79.8368 54.976 79.8484 54.9511 79.8586C54.8975 79.8805 54.844 79.9028 54.7923 79.9287C54.7633 79.9429 54.7347 79.9594 54.7062 79.975C54.6594 80.0009 54.6125 80.0277 54.5666 80.0571C54.5372 80.0758 54.5082 80.0959 54.4796 80.116C54.4355 80.1468 54.3918 80.1793 54.3485 80.2137C54.3204 80.2355 54.2928 80.2583 54.2651 80.2819C54.2218 80.3189 54.1795 80.3582 54.1371 80.3983C54.1112 80.4228 54.0854 80.4469 54.0604 80.4723C54.0149 80.5187 53.9707 80.5678 53.9266 80.6182C53.9061 80.6414 53.8851 80.6632 53.865 80.6873C53.7339 80.8443 53.6086 81.0178 53.4895 81.2087C53.4079 81.3398 53.3298 81.4816 53.2531 81.6284C53.234 81.6649 53.2148 81.7024 53.196 81.7403C53.0462 82.0414 52.9066 82.3723 52.7777 82.7322C52.7616 82.7773 52.7456 82.8228 52.7295 82.8691C52.6029 83.2358 52.4869 83.6309 52.3803 84.0524C52.3669 84.1059 52.3536 84.1594 52.3402 84.2138C52.2358 84.6424 52.1413 85.0965 52.0561 85.5755C52.0454 85.6352 52.0351 85.695 52.0244 85.7557C51.9829 85.9978 51.9428 86.244 51.9058 86.4978C51.9058 86.4982 51.9058 86.4987 51.9058 86.4991C51.8687 86.7538 51.8349 87.016 51.8018 87.2823C51.7938 87.3488 51.7858 87.4157 51.7778 87.4826C51.7149 88.0195 51.66 88.5784 51.6141 89.1577C51.6083 89.2304 51.6025 89.3036 51.5971 89.3772C51.5753 89.6684 51.5543 89.9628 51.536 90.2638C51.536 90.2643 51.536 90.2643 51.536 90.2647C51.5177 90.5667 51.5026 90.8753 51.4883 91.1866C51.4847 91.2646 51.4812 91.3427 51.4781 91.4216C51.4647 91.7343 51.4526 92.05 51.4433 92.3712C51.4433 92.3716 51.4433 92.3716 51.4433 92.3716C51.4339 92.6936 51.4268 93.0214 51.421 93.3515C51.4196 93.4349 51.4183 93.5183 51.417 93.6021C51.412 93.9335 51.408 94.2676 51.4067 94.607C51.4062 94.6707 51.4063 94.7381 51.4063 94.8095C51.4067 95.734 51.4317 97.2763 51.4772 99.3051C51.4807 99.4612 51.4843 99.62 51.4879 99.7819C51.503 100.429 51.5195 101.121 51.5383 101.854C51.557 102.588 51.5775 103.362 51.5994 104.175C51.6105 104.58 51.6217 104.996 51.6337 105.42C51.6694 106.693 51.7086 108.046 51.751 109.465C51.7934 110.885 51.8389 112.372 51.8875 113.912C51.9276 115.196 51.97 116.517 52.0141 117.869C52.0315 118.409 52.0494 118.955 52.0677 119.504C52.0949 120.329 52.1225 121.163 52.1506 122.005C52.1694 122.567 52.1885 123.132 52.2077 123.7C52.5257 133.076 52.9035 143.303 53.2714 152.226C53.3049 153.037 53.3383 153.837 53.3718 154.625C53.4052 155.413 53.4382 156.189 53.4712 156.951C53.5372 158.474 53.6024 159.941 53.6666 161.339C53.688 161.805 53.7089 162.264 53.7304 162.714C53.7513 163.165 53.7723 163.607 53.7932 164.04C53.8035 164.257 53.8138 164.472 53.8245 164.684C54.1237 170.843 54.3882 175.139 54.5724 176.11C54.8008 177.316 55.815 178.528 57.2636 179.648C57.7466 180.021 58.2778 180.384 58.8442 180.734C62.6205 183.063 67.9622 184.775 71.0097 184.794C70.4313 166.549 69.3426 100.799 69.1441 88.6462Z" fill="#495E84"/>
<path d="M122.084 107.03L84.5382 108.383C82.8412 108.444 81.4028 107.106 81.3417 105.409L81.2169 101.948C81.1558 100.251 82.4942 98.8122 84.1908 98.7511L121.737 97.3975C123.434 97.3364 124.872 98.6744 124.933 100.371L125.058 103.833C125.119 105.53 123.781 106.969 122.084 107.03Z" fill="#495E84"/>
<path d="M115.271 118.456L91.1923 119.324C89.733 119.377 88.4958 118.226 88.4431 116.766C88.3905 115.307 89.5416 114.07 91.001 114.017L115.08 113.149C116.539 113.097 117.776 114.248 117.829 115.707C117.881 117.166 116.73 118.404 115.271 118.456Z" fill="#495E84"/>
<path d="M67.9019 110.903C67.5514 110.441 66.8449 110.424 66.3039 110.385C65.6987 110.341 65.0832 110.397 64.4762 110.384C63.2479 110.358 62.0254 110.231 60.8195 109.996C59.6251 109.763 58.4445 109.433 57.2961 109.032C56.1391 108.629 55.0233 107.933 53.7874 107.846C53.5127 107.827 53.3084 108.182 53.464 108.41C54.1937 109.479 55.4951 109.958 56.6507 110.439C57.8571 110.942 59.1015 111.321 60.3802 111.59C61.6446 111.856 62.9362 112.021 64.2269 112.081C64.8892 112.111 65.5604 112.132 66.2205 112.059C66.733 112.003 67.6598 111.845 67.9015 111.32C67.959 111.195 67.9943 111.025 67.9019 110.903Z" fill="#697BAE"/>
<path d="M69.1443 166.91C68.5329 166.749 67.8781 166.72 67.2511 166.641C66.6583 166.566 66.0683 166.468 65.4813 166.356C64.2927 166.127 63.118 165.826 61.9651 165.457C60.8242 165.092 59.6958 164.693 58.6013 164.205C58.0345 163.952 57.4774 163.678 56.9168 163.412C56.3927 163.164 55.8772 162.868 55.2835 162.987C55.0828 163.028 54.9629 163.27 55.0168 163.457C55.1894 164.056 55.7634 164.385 56.2634 164.698C56.7879 165.026 57.3383 165.31 57.8931 165.583C59.0384 166.148 60.223 166.661 61.4343 167.066C62.6086 167.459 63.8079 167.78 65.0215 168.025C65.6281 168.148 66.2386 168.251 66.8514 168.338C67.5276 168.433 68.2501 168.56 68.932 168.485C69.7763 168.393 70.0827 167.157 69.1443 166.91Z" fill="#697BAE"/>
<path d="M66.7216 99.6626C66.4527 98.7037 65.9674 97.871 65.2659 97.1645C64.8841 96.8693 64.5019 96.5745 64.1201 96.2792C63.237 95.7672 62.2848 95.5094 61.2626 95.5063C60.483 95.4769 59.756 95.6397 59.0812 95.9938C58.3792 96.2221 57.7722 96.6124 57.2593 97.1641C56.7071 97.677 56.3169 98.2844 56.0885 98.986C55.734 99.6608 55.5716 100.388 55.601 101.167C55.6684 101.669 55.7357 102.17 55.8031 102.672C56.072 103.631 56.5573 104.464 57.2588 105.17C57.6406 105.465 58.0228 105.76 58.4046 106.056C59.2877 106.568 60.2399 106.825 61.2621 106.828C62.0417 106.858 62.7687 106.696 63.4431 106.341C64.1451 106.113 64.7521 105.722 65.265 105.17C65.8171 104.657 66.2074 104.05 66.4357 103.348C66.7903 102.674 66.9526 101.947 66.9232 101.167C66.8563 100.666 66.789 100.164 66.7216 99.6626Z" fill="#697BAE"/>
<path d="M67.2036 114.083C64.9273 114.766 62.5122 114.716 60.2077 114.19C59.0976 113.937 58.0116 113.585 56.9519 113.17C56.4381 112.968 55.9283 112.755 55.4168 112.548C54.8731 112.328 54.4168 112.076 53.817 112.193C53.5552 112.244 53.4941 112.548 53.5891 112.753C53.8428 113.298 54.3852 113.528 54.8891 113.799C55.4337 114.092 55.9917 114.346 56.5616 114.586C57.7025 115.066 58.871 115.48 60.0752 115.772C62.5697 116.375 65.1824 116.46 67.6675 115.765C68.7473 115.463 68.2821 113.76 67.2036 114.083Z" fill="#697BAE"/>
<path d="M157.57 72.6406L165.601 77.9578L87.9646 80.9639L80.5859 74.756L157.57 72.6406Z" fill="white"/>
<path d="M95.1039 77.151C99.0456 76.9864 102.987 76.8143 106.929 76.6501C108.024 76.6047 109.12 76.5592 110.215 76.5132C111.297 76.4682 112.397 76.499 113.441 76.1836C113.596 76.1368 113.615 75.887 113.441 75.8505C112.509 75.6547 111.584 75.7332 110.639 75.7751C109.685 75.8175 108.731 75.8598 107.777 75.9022C105.781 75.991 103.783 76.0779 101.786 76.164C97.8343 76.3339 93.8809 76.4856 89.9311 76.697C88.8175 76.7567 87.7029 76.8071 86.5902 76.8767C85.5568 76.9418 84.4583 76.9356 83.4414 77.1599L83.8223 77.4801C84.5965 77.5363 85.3895 77.4833 86.1593 77.4699C87.1294 77.4529 88.0994 77.4146 89.069 77.3829C91.0809 77.3178 93.092 77.2349 95.1039 77.151Z" fill="#D5F2F9"/>
<path d="M130.021 77.1622C127.924 76.9696 125.766 77.1234 123.66 77.1444C121.54 77.1654 119.42 77.1908 117.3 77.2278C113.024 77.3018 108.747 77.3893 104.473 77.5302C103.288 77.5694 102.102 77.6069 100.917 77.6609C99.7619 77.7135 98.5822 77.7064 97.4436 77.9254C97.3294 77.9472 97.3717 78.0997 97.469 78.1118C98.538 78.2425 99.6281 78.1711 100.702 78.1528C101.743 78.1354 102.785 78.1078 103.827 78.0846C105.947 78.0373 108.066 77.9775 110.185 77.9307C114.389 77.837 118.593 77.7621 122.797 77.6992C123.983 77.6814 125.169 77.6653 126.355 77.6515C127.579 77.6368 128.802 77.6778 130.021 77.5489C130.268 77.5222 130.271 77.1854 130.021 77.1622Z" fill="#D5F2F9"/>
<path d="M118.566 76.0325C120.219 76.1556 121.876 76.0904 123.532 76.0521C125.151 76.0142 126.77 75.9736 128.39 75.9335C131.664 75.8527 134.939 75.7765 138.213 75.7033C144.658 75.5597 151.099 75.3688 157.535 74.9839C158.631 74.9184 159.733 74.8631 160.837 74.806L159.691 74.0469C159.327 74.0741 158.963 74.1022 158.6 74.1263C155.402 74.3354 152.201 74.5 149 74.6392C142.53 74.9206 136.05 75.0535 129.577 75.2551C127.778 75.3108 125.979 75.3653 124.18 75.4237C122.307 75.4843 120.426 75.4991 118.566 75.7412C118.383 75.7649 118.375 76.0182 118.566 76.0325Z" fill="#D5F2F9"/>
<path d="M161.897 75.5059C161.692 75.5326 161.486 75.5616 161.282 75.5835C160.221 75.6972 159.159 75.8033 158.095 75.8894C155.898 76.0669 153.696 76.2007 151.494 76.3033C149.291 76.4059 147.086 76.471 144.881 76.4879C142.689 76.5049 140.452 76.3127 138.269 76.5049C138.094 76.5205 138.021 76.8033 138.224 76.8376C140.395 77.2051 142.685 77.1115 144.881 77.1262C147.086 77.1409 149.291 77.1128 151.494 77.0321C153.697 76.9509 155.898 76.8104 158.095 76.6235C159.229 76.5272 160.362 76.4291 161.494 76.3154C161.967 76.2676 162.447 76.2315 162.928 76.1882L161.897 75.5059Z" fill="#D5F2F9"/>
<path d="M157.937 71.8818C157.937 71.8818 80.8193 73.784 77.6549 74.5369C74.4906 75.2902 73.3283 82.1059 73.2895 91.3274C73.2507 100.549 75.9494 178.615 76.8668 183.46C77.7843 188.306 89.9364 193.243 95.4481 193.276C100.963 193.308 168.088 192.891 170.822 192.545C173.557 192.199 166.768 78.2213 166.378 77.559C165.989 76.8971 96.981 79.9254 94.0485 79.8461C91.1161 79.7671 81.3331 75.4744 83.4221 75.7402C85.5112 76.006 156.858 73.0575 158.167 73.0927C159.475 73.1289 160.033 71.8863 157.937 71.8818Z" fill="#FFCE5E"/>
<path d="M93.3399 84.5929C93.3198 83.3695 94.2711 82.3495 95.4932 82.284L166.484 78.489C166.46 78.212 166.439 77.9952 166.422 77.8396V77.8382C166.421 77.832 166.421 77.8244 166.42 77.8186C166.417 77.7937 166.414 77.7727 166.412 77.7517C166.411 77.7437 166.41 77.7361 166.409 77.729C166.407 77.7192 166.406 77.7089 166.405 77.7004C166.403 77.6848 166.401 77.671 166.399 77.6585C166.398 77.6527 166.397 77.6487 166.397 77.6433C166.396 77.634 166.394 77.6242 166.392 77.6161C166.391 77.6081 166.39 77.5996 166.388 77.5934C166.385 77.5773 166.382 77.5653 166.379 77.5608C166.375 77.5542 166.361 77.5479 166.343 77.5417C166.336 77.5394 166.328 77.5368 166.319 77.5345C166.312 77.5327 166.301 77.531 166.292 77.5287C163.555 77.0051 96.9297 79.9255 94.0495 79.8475C91.4408 79.777 83.4173 76.3745 83.147 75.8107C83.1118 75.7831 83.0962 75.7612 83.1069 75.7465C83.1265 75.7197 83.2273 75.7162 83.4231 75.7412C83.4445 75.7438 83.4757 75.7461 83.5114 75.7483C83.5207 75.7487 83.5301 75.7492 83.5404 75.7496C83.5769 75.7514 83.618 75.7532 83.6666 75.7541C83.6706 75.7541 83.6737 75.7545 83.6777 75.7545C83.7313 75.7559 83.7937 75.7568 83.8606 75.7572C83.8762 75.7572 83.8927 75.7577 83.9088 75.7577C83.9743 75.7581 84.0443 75.7581 84.1215 75.7581C84.1278 75.7581 84.1336 75.7581 84.1402 75.7581C84.225 75.7581 84.3182 75.7572 84.4163 75.7568C84.4377 75.7568 84.4605 75.7563 84.4828 75.7563C84.5738 75.7554 84.6696 75.7545 84.7713 75.7532C84.7825 75.7532 84.7927 75.7528 84.8043 75.7528C84.9221 75.7514 85.047 75.7492 85.1781 75.747C85.1959 75.7465 85.2142 75.7465 85.2325 75.7461C85.3551 75.7438 85.4827 75.7416 85.6165 75.7389C85.6294 75.7385 85.6419 75.7385 85.6549 75.738C85.8025 75.7349 85.9572 75.7318 86.1183 75.7282C86.1348 75.7278 86.1517 75.7273 86.1682 75.7273C86.3154 75.7242 86.4684 75.7206 86.6258 75.7166C86.6494 75.7162 86.6726 75.7153 86.6967 75.7148C86.8707 75.7108 87.0499 75.7059 87.2359 75.7015C87.2471 75.701 87.2591 75.701 87.2703 75.7006C87.4487 75.6961 87.6329 75.6912 87.822 75.6859C87.8456 75.6854 87.8692 75.6845 87.8929 75.6841C88.0914 75.6787 88.2952 75.6729 88.5052 75.6671C88.5253 75.6667 88.5463 75.6658 88.5663 75.6653C88.7563 75.66 88.9508 75.6542 89.1493 75.6484C89.193 75.6471 89.2367 75.6457 89.2808 75.6448C89.4945 75.6386 89.7117 75.6319 89.9347 75.6252C89.9521 75.6248 89.9699 75.6243 89.9873 75.6234C90.2215 75.6163 90.4601 75.6091 90.7045 75.6016C90.7121 75.6016 90.7196 75.6011 90.7272 75.6011C91.2339 75.5855 91.7628 75.5686 92.3114 75.5512C92.3462 75.5503 92.381 75.5489 92.4158 75.5476C92.6517 75.54 92.8921 75.5324 93.1352 75.5244C93.1735 75.5231 93.2105 75.5222 93.2489 75.5208C93.5138 75.5124 93.7832 75.503 94.0562 75.4941C94.1199 75.4918 94.1846 75.4896 94.2488 75.4874C94.4687 75.4802 94.6908 75.4727 94.9156 75.4651C94.974 75.4629 95.0311 75.4611 95.0895 75.4593C95.3643 75.4499 95.643 75.4406 95.9245 75.4312C96.0012 75.4285 96.0783 75.4258 96.1555 75.4232C96.349 75.4165 96.5448 75.4098 96.7415 75.4031C96.8874 75.3982 97.0332 75.3933 97.1813 75.3879C97.4123 75.3799 97.6447 75.3719 97.8793 75.3638C98.0296 75.3585 98.1808 75.3536 98.3324 75.3482C98.4635 75.3438 98.5955 75.3389 98.728 75.3344C98.8667 75.3295 99.0059 75.3246 99.1459 75.3197C99.2904 75.3148 99.4371 75.3094 99.5825 75.3045C99.9304 75.292 100.281 75.2795 100.636 75.2671C100.661 75.2662 100.686 75.2653 100.711 75.2644C101.371 75.2407 102.044 75.2167 102.727 75.1921C102.85 75.1877 102.973 75.1832 103.096 75.1788C103.271 75.1725 103.447 75.1663 103.623 75.1596C103.907 75.1493 104.193 75.1391 104.481 75.1284C104.63 75.123 104.781 75.1172 104.931 75.1119C105.055 75.1074 105.179 75.1029 105.304 75.098C105.859 75.0775 106.42 75.057 106.985 75.0365C108.809 74.9691 110.682 74.8991 112.587 74.8277C112.848 74.8179 113.11 74.8081 113.373 74.7983C113.441 74.7956 113.508 74.7934 113.576 74.7907C114.077 74.772 114.579 74.7528 115.083 74.7336C115.94 74.7011 116.803 74.6685 117.667 74.6355C117.983 74.6235 118.301 74.6114 118.618 74.5994C119.44 74.5682 120.264 74.5365 121.087 74.5048C121.658 74.483 122.229 74.4611 122.799 74.4393C123.084 74.4286 123.369 74.4174 123.653 74.4063C141.013 73.7386 157.544 73.0776 158.168 73.0946C158.822 73.112 159.289 72.8105 159.33 72.5036C159.355 72.3159 159.219 72.1272 158.87 72.0077C158.851 72.0014 158.831 71.9956 158.81 71.9894C158.76 71.9742 158.705 71.9609 158.647 71.9484C158.623 71.9435 158.599 71.9381 158.574 71.9337C158.491 71.9189 158.403 71.9064 158.305 71.898C158.303 71.898 158.302 71.8975 158.301 71.8975C158.19 71.8882 158.069 71.8833 157.938 71.8828C157.938 71.8828 155.869 71.9337 152.398 72.0224C152.351 72.0238 152.303 72.0246 152.256 72.026C152.012 72.0322 151.763 72.0385 151.506 72.0452C151.485 72.0456 151.465 72.046 151.444 72.0469C149.456 72.0978 147.084 72.1593 144.428 72.2289C144.381 72.2302 144.333 72.2316 144.286 72.2325C143.931 72.2418 143.572 72.2512 143.207 72.261C143.192 72.2615 143.177 72.2619 143.162 72.2624C142.004 72.2927 140.798 72.3248 139.553 72.3582C139.481 72.36 139.409 72.3623 139.337 72.364C138.982 72.3734 138.623 72.3832 138.261 72.393C138.155 72.3957 138.048 72.3988 137.941 72.4015C135.383 72.4702 132.678 72.5438 129.885 72.6209C129.787 72.6236 129.688 72.6263 129.589 72.629C129.291 72.637 128.992 72.6455 128.691 72.6539C127.586 72.6847 126.47 72.7159 125.345 72.7476C125.232 72.7507 125.118 72.7539 125.005 72.757C123.794 72.7909 122.576 72.8257 121.352 72.8609C121.319 72.8618 121.286 72.8627 121.253 72.8636C119.981 72.9001 118.704 72.9372 117.427 72.9742C117.406 72.9746 117.385 72.9755 117.364 72.976C116.111 73.0125 114.858 73.0496 113.611 73.0866C113.253 73.0973 112.896 73.108 112.538 73.1187C112.233 73.128 111.928 73.137 111.624 73.1463C111.015 73.1646 110.409 73.1829 109.804 73.2016C109.42 73.2132 109.037 73.2253 108.655 73.2369C108.218 73.2502 107.782 73.2636 107.348 73.2775C107.196 73.2819 107.045 73.2868 106.894 73.2917C105.775 73.3265 104.667 73.3613 103.576 73.3961C102.706 73.4242 101.846 73.4518 100.999 73.4795C100.811 73.4857 100.624 73.492 100.437 73.4978C100.298 73.5022 100.159 73.5071 100.021 73.5116C98.9581 73.5468 97.9154 73.5816 96.8981 73.6164C96.3544 73.6352 95.8179 73.6534 95.2894 73.6722C94.7782 73.69 94.2747 73.7078 93.7783 73.7257C93.6574 73.7301 93.5384 73.7342 93.4184 73.7386C93.2056 73.7462 92.9942 73.7538 92.7842 73.7614C92.4341 73.7743 92.0884 73.7868 91.7468 73.7993C91.4952 73.8086 91.2459 73.818 90.9988 73.8269C90.9315 73.8296 90.8624 73.8318 90.7955 73.8345C90.3432 73.8515 89.899 73.8684 89.4641 73.8854C88.9535 73.905 88.4548 73.9246 87.9696 73.9442H87.9691C87.5066 73.963 87.058 73.9812 86.62 73.9995C86.5772 74.0013 86.5348 74.0031 86.4924 74.0049C86.0732 74.0223 85.6656 74.0397 85.2704 74.0571C85.245 74.058 85.2191 74.0593 85.1937 74.0602C84.7749 74.0785 84.369 74.0968 83.9792 74.1146C83.6264 74.1307 83.2857 74.1467 82.9579 74.1628C82.7006 74.1753 82.4535 74.1873 82.2122 74.1998C82.1676 74.202 82.1225 74.2042 82.0788 74.2065C81.8567 74.2176 81.6426 74.2292 81.4348 74.2404C81.3857 74.243 81.3367 74.2457 81.2885 74.2484C81.0843 74.2595 80.8862 74.2707 80.6971 74.2814C80.6597 74.2836 80.6235 74.2859 80.5865 74.2881C80.3961 74.2992 80.2123 74.3104 80.0384 74.3211C80.0254 74.322 80.0121 74.3229 79.9991 74.3233C79.7743 74.3376 79.5629 74.3514 79.3676 74.3652C79.2623 74.3728 79.1624 74.38 79.0657 74.3871C79.0233 74.3902 78.984 74.3933 78.9434 74.3965C78.8904 74.4005 78.8373 74.4045 78.7874 74.409C78.7468 74.4121 78.7089 74.4156 78.6701 74.4188C78.6232 74.4228 78.5768 74.4268 78.5331 74.4308C78.4957 74.4344 78.4595 74.4375 78.4243 74.4406C78.386 74.4442 78.3489 74.4478 78.3133 74.4513C78.2776 74.4549 78.2428 74.4585 78.2093 74.462C78.1763 74.4656 78.1447 74.4687 78.1139 74.4723C78.0845 74.4754 78.0559 74.4785 78.0287 74.4821C77.9979 74.4857 77.9703 74.4892 77.9426 74.4928C77.9194 74.4959 77.8953 74.499 77.8739 74.5022C77.8467 74.5062 77.8231 74.5098 77.799 74.5138C77.7825 74.5164 77.7647 74.5191 77.75 74.5218C77.7196 74.5271 77.6938 74.5325 77.6701 74.5379C77.6657 74.5387 77.6599 74.5401 77.6554 74.541C77.5622 74.5633 77.4708 74.5918 77.3811 74.6244C77.3526 74.6346 77.3245 74.648 77.2964 74.6596C77.2357 74.6841 77.1755 74.7096 77.1166 74.739C77.0836 74.7555 77.0515 74.7738 77.0194 74.7916C76.9663 74.8211 76.9133 74.8509 76.8615 74.8844C76.8285 74.9058 76.7955 74.9281 76.763 74.9508C76.713 74.9856 76.6635 75.0222 76.6149 75.061C76.5832 75.086 76.5516 75.1114 76.5203 75.1382C76.4713 75.1801 76.4231 75.2242 76.3758 75.2702C76.3468 75.2978 76.3174 75.325 76.2889 75.354C76.2376 75.4062 76.1876 75.462 76.1377 75.5191C76.1145 75.5454 76.0908 75.5699 76.0681 75.5971C75.92 75.7742 75.7786 75.9704 75.6435 76.1863C75.5512 76.3343 75.4629 76.4949 75.3763 76.6608C75.3545 76.7023 75.3331 76.7447 75.3121 76.787C75.1426 77.1273 74.9852 77.5015 74.8394 77.9083C74.8211 77.9591 74.8028 78.0109 74.7849 78.063C74.6422 78.4778 74.5107 78.9243 74.3898 79.4006C74.3746 79.4608 74.3595 79.5219 74.3443 79.583C74.2266 80.0674 74.1195 80.5807 74.0232 81.1222C74.0111 81.1895 73.9991 81.2573 73.9875 81.3255C73.9407 81.5994 73.8952 81.8777 73.8533 82.1645C73.8533 82.1645 73.8533 82.1653 73.8528 82.1662C73.8109 82.4539 73.7725 82.7509 73.7355 83.0515C73.7261 83.1265 73.7172 83.2023 73.7083 83.2781C73.6369 83.8851 73.5754 84.5167 73.5232 85.1714C73.5165 85.2539 73.5103 85.3364 73.504 85.4198C73.4791 85.749 73.4554 86.0821 73.4354 86.4224V86.4237C73.4148 86.7654 73.3974 87.1142 73.3814 87.4661C73.3774 87.5544 73.3734 87.6427 73.3698 87.7314C73.3551 88.0851 73.3412 88.4415 73.3305 88.8049V88.8054C73.3198 89.1693 73.3118 89.54 73.3056 89.9133C73.3038 90.0074 73.3024 90.1019 73.3011 90.1965C73.2953 90.5711 73.2913 90.9489 73.2895 91.332C73.2891 91.4042 73.2891 91.4805 73.2891 91.5608C73.2895 92.6058 73.3176 94.3492 73.3689 96.643C73.3729 96.8191 73.3769 96.9989 73.3814 97.1817C73.3983 97.9132 73.4175 98.6954 73.4385 99.5246C73.4594 100.354 73.4826 101.229 73.5076 102.147C73.5201 102.606 73.533 103.076 73.5464 103.556C73.5865 104.994 73.6307 106.524 73.6789 108.128C73.7266 109.733 73.7783 111.414 73.8327 113.155C73.8782 114.606 73.926 116.1 73.9755 117.628C73.9955 118.239 74.0156 118.855 74.0361 119.476C74.0669 120.409 74.0981 121.351 74.1302 122.304C74.1516 122.938 74.173 123.577 74.1949 124.22C74.5544 134.819 74.9812 146.379 75.3973 156.466C75.4352 157.383 75.4727 158.288 75.5106 159.178C75.5481 160.069 75.5855 160.946 75.623 161.807C75.6975 163.529 75.7711 165.187 75.8437 166.768C75.8678 167.295 75.8919 167.813 75.9156 168.323C75.9396 168.832 75.9633 169.332 75.9865 169.821C75.9981 170.066 76.0101 170.309 76.0217 170.549C76.3598 177.512 76.659 182.368 76.8669 183.466C77.1251 184.829 78.2718 186.199 79.9095 187.465C80.4554 187.887 81.0557 188.298 81.6962 188.692C85.9648 191.325 92.0037 193.261 95.4486 193.281C94.7947 172.655 93.5647 98.3306 93.3399 84.5929Z" fill="#FF8F3D"/>
<path d="M153.584 105.36L110.337 106.92C108.64 106.981 107.202 105.643 107.141 103.946L106.971 99.2274C106.91 97.5304 108.248 96.0921 109.945 96.031L153.192 94.4717C154.889 94.4106 156.327 95.7486 156.388 97.4457L156.558 102.164C156.619 103.861 155.281 105.299 153.584 105.36Z" fill="#FF8F3D"/>
<path d="M145.484 118.291L118.266 119.272C116.616 119.332 115.218 118.031 115.158 116.381C115.099 114.731 116.4 113.333 118.05 113.273L145.268 112.292C146.918 112.233 148.317 113.534 148.376 115.183C148.435 116.833 147.134 118.231 145.484 118.291Z" fill="#FF8F3D"/>
<path d="M91.5189 95.2196C91.1224 94.6973 90.3241 94.6777 89.7122 94.634C89.028 94.5849 88.3327 94.6469 87.6463 94.6322C86.2579 94.6028 84.8762 94.4596 83.5128 94.1938C82.1627 93.9302 80.8283 93.5574 79.5295 93.1042C78.2214 92.648 76.9601 91.8617 75.5633 91.7636C75.2524 91.7417 75.0218 92.1435 75.1975 92.4009C76.0226 93.6095 77.4935 94.151 78.7999 94.6947C80.1637 95.2624 81.57 95.691 83.0159 95.9948C84.4453 96.2949 85.9051 96.4827 87.364 96.5496C88.1124 96.5839 88.8715 96.6076 89.6176 96.5255C90.1965 96.4622 91.2446 96.2838 91.518 95.6897C91.5836 95.5492 91.6233 95.357 91.5189 95.2196Z" fill="#FFCE5E"/>
<path d="M93.3409 173.063C92.6496 172.881 91.9093 172.848 91.2006 172.758C90.5303 172.674 89.8635 172.564 89.1998 172.436C87.856 172.177 86.5283 171.837 85.2251 171.42C83.9357 171.007 82.6597 170.557 81.4225 170.005C80.7816 169.719 80.1518 169.409 79.5181 169.109C78.9258 168.829 78.3429 168.493 77.6716 168.629C77.4446 168.675 77.309 168.948 77.3701 169.16C77.565 169.837 78.214 170.208 78.7795 170.562C79.3727 170.933 79.9944 171.254 80.6219 171.563C81.9167 172.202 83.2555 172.781 84.6248 173.239C85.9525 173.684 87.3079 174.045 88.6798 174.323C89.3657 174.462 90.0557 174.579 90.7488 174.676C91.5132 174.784 92.3294 174.927 93.1005 174.843C94.0554 174.739 94.4015 173.342 93.3409 173.063Z" fill="#FFCE5E"/>
<path d="M110.809 176.682C108.239 177.489 107.075 179.062 107.152 182.458C107.229 185.853 108.223 190.081 109.989 191.257C111.756 192.434 113.566 191.385 114.242 189.878C114.918 188.37 116.53 182.757 115.107 180.73C113.685 178.703 110.809 176.682 110.809 176.682Z" fill="#697BAE"/>
<path d="M114.891 173.249C114.891 173.249 110.95 176.282 109.817 177.693C108.683 179.104 110.84 182.899 112.378 182.727C113.917 182.556 119.707 179.278 119.707 179.278L114.891 173.249Z" fill="#EBBA9D"/>
<path d="M144.994 120.396C144.994 120.396 149.036 138.591 149.172 148.708C149.309 158.826 119.23 181.385 119.23 181.385L112.941 172.772C112.941 172.772 128.254 154.724 130.715 149.802C133.176 144.88 129.348 137.224 129.348 137.224L130.306 122.321L144.994 120.396Z" fill="#222859"/>
<path d="M134.817 189.042C133.724 191.503 134.133 193.417 136.731 195.605C139.329 197.793 143.157 199.843 145.208 199.297C147.259 198.75 147.669 196.699 146.985 195.195C146.302 193.691 143.157 188.769 140.696 188.495C138.235 188.222 134.817 189.042 134.817 189.042Z" fill="#697BAE"/>
<path d="M133.535 185.487C133.535 185.487 135.036 190.228 135.973 191.776C136.91 193.324 141.214 192.596 141.58 191.092C141.946 189.588 140.849 183.025 140.849 183.025L133.535 185.487Z" fill="#EBBA9D"/>
<path d="M112.688 123.36C112.688 123.36 112.37 127.003 113.874 138.624C115.378 150.246 132.084 186.171 132.084 186.171L142.885 184.12C142.885 184.12 134.681 138.591 134.135 134.353C133.588 130.115 132.084 120.544 132.084 120.544L112.688 123.36Z" fill="#222859"/>
<path d="M120.922 74.066C120.922 74.066 113.651 76.7522 110.539 80.2346C107.427 83.7174 104.537 98.9818 104.907 102.909C105.278 106.836 109.353 112.245 113.873 109.281C113.873 109.281 111.798 121.878 111.206 124.101C111.206 124.101 133.917 130.399 146.736 120.693C146.736 120.693 145.069 108.522 143.791 103.853C143.791 103.853 145.18 104.409 147.736 103.353C151.353 101.859 151.293 98.0737 148.737 93.9616C146.375 90.1621 142.179 77.7156 139.511 76.3076C136.844 74.8996 131.231 73.9826 131.231 73.9826L124.544 73.0469L120.922 74.066Z" fill="#697BAE"/>
<path d="M111.207 124.101C111.207 124.101 133.918 130.399 146.738 120.692L111.207 124.101Z" fill="#697BAE"/>
<path d="M121.284 73.4543C119.654 74.0471 119.506 74.4917 119.654 75.381C119.802 76.2704 124.767 78.1226 125.581 78.3452C126.397 78.5673 127.73 76.1963 127.73 76.1963C127.73 76.1963 129.731 77.6044 130.842 77.4558C131.954 77.3078 132.25 74.1956 131.732 73.7509C131.213 73.3063 121.284 73.4543 121.284 73.4543Z" fill="white"/>
<path d="M131.732 48.0387C127.437 45.3239 123.197 46.343 121.177 47.5008C121.215 46.871 121.153 46.194 120.723 46.1178C119.9 45.971 119.376 48.8348 119.376 48.8348C119.376 48.8348 117.355 47.1458 116.531 47.66C116.107 47.9249 116.678 48.5409 117.331 49.0756C111.504 50.4087 110.159 57.3231 111.726 63.9702C113.493 71.4621 120.84 71.6026 120.84 71.6026C120.84 71.6026 122.156 69.5229 130.399 68.5645C139.958 67.4526 138.47 52.2975 131.732 48.0387Z" fill="#222859"/>
<path d="M121.367 68.8142L120.922 74.0659C120.922 74.0659 126.396 77.1781 131.231 73.9825L130.564 68.7861L121.367 68.8142Z" fill="#EBBA9D"/>
<path d="M130.564 68.7861L121.366 68.8138L120.969 73.5088C121.756 73.8803 122.671 74.0592 123.545 74.1595C126.125 74.4548 128.915 74.3112 131.101 72.9696L130.564 68.7861Z" fill="#EB977D"/>
<path d="M115.614 61.9328C115.614 61.9328 113.141 61.8766 113.535 63.9001C113.928 65.9236 115.389 65.9236 116.12 65.6988C116.12 65.6988 118.289 73.5644 126.405 73.4547C134.724 73.3423 136.634 64.5182 134.049 56.7623C134.049 56.7623 124.953 57.5053 121.507 54.6152C121.507 54.6152 118.874 61.146 115.614 61.9328Z" fill="#EBBA9D"/>
<path d="M115.936 64.1338C115.838 63.8288 115.614 63.6138 115.361 63.4305C115.243 63.3453 115.116 63.274 114.983 63.216C114.872 63.1674 114.777 63.1268 114.656 63.1152C114.474 63.0973 114.327 63.2062 114.306 63.3881C114.291 63.5286 114.393 63.6245 114.5 63.6923C114.523 63.707 114.546 63.7168 114.572 63.728C114.616 63.7467 114.622 63.7494 114.59 63.7356C114.564 63.7249 114.564 63.7244 114.588 63.7351C114.618 63.749 114.648 63.7628 114.677 63.7779C114.722 63.8007 114.765 63.8266 114.808 63.8529C114.777 63.8863 114.749 63.922 114.728 63.963C114.64 64.1388 114.605 64.3372 114.659 64.5295C114.759 64.8822 115.181 65.0985 115.527 64.9853C115.884 64.8689 116.048 64.4817 115.936 64.1338Z" fill="#EB977D"/>
<path d="M134.048 56.7613C134.048 56.7613 124.952 57.5043 121.506 54.6143C121.506 54.6143 118.873 61.145 115.613 61.9322C118.617 61.8948 121.284 58.7268 122.007 56.3372C122.007 56.3372 129.918 58.6305 134.048 56.7613Z" fill="#EB977D"/>
<path d="M116.179 84.8902C116.171 84.8746 116.145 84.8706 116.134 84.8844C115.984 85.0655 115.979 85.317 115.941 85.5427C115.898 85.8018 115.853 86.0605 115.811 86.3201C115.721 86.8776 115.65 87.4387 115.572 87.9984C115.419 89.1009 115.266 90.2039 115.105 91.3055C114.943 92.4084 114.79 93.5127 114.621 94.6148C114.454 95.7066 114.218 96.8006 114.114 97.9009C114.1 98.0503 114.335 98.0762 114.372 97.9357C114.659 96.8475 114.802 95.7088 114.992 94.6001C115.18 93.5034 115.366 92.4062 115.527 91.3055C115.685 90.2226 115.835 89.1388 115.968 88.0524C116.037 87.4917 116.108 86.9298 116.155 86.3669C116.177 86.1047 116.194 85.8424 116.214 85.5797C116.231 85.3509 116.284 85.1016 116.179 84.8902Z" fill="#222859"/>
<path d="M144.106 104.192C143.981 103.738 143.835 103.289 143.693 102.84C143.556 102.406 143.414 101.973 143.27 101.542C143.145 101.169 143.035 100.685 142.791 100.371C142.748 100.315 142.656 100.364 142.656 100.427C142.657 100.63 142.737 100.823 142.795 101.016C142.861 101.234 142.928 101.451 142.998 101.667C143.139 102.1 143.276 102.534 143.41 102.968C143.543 103.403 143.666 103.842 143.802 104.276C143.925 104.67 144.008 105.142 144.231 105.494C144.274 105.561 144.38 105.534 144.382 105.453C144.392 105.039 144.215 104.587 144.106 104.192Z" fill="#222859"/>
<path d="M146.429 118.524C142.732 120.585 138.758 122.074 134.584 122.877C132.083 123.359 129.549 123.565 127.005 123.594C124.337 123.624 121.664 123.504 119.01 123.224C116.531 122.963 114.083 122.549 111.639 122.084C111.617 122.196 111.595 122.309 111.574 122.415C113.658 122.919 115.783 123.28 117.905 123.542C120.61 123.877 123.334 124.06 126.059 124.08C128.642 124.099 131.216 123.953 133.766 123.524C136.203 123.114 138.599 122.472 140.914 121.608C142.837 120.89 144.712 120.041 146.504 119.04C146.48 118.878 146.455 118.705 146.429 118.524Z" fill="#222859"/>
<path d="M133.852 118.341C133.698 116.811 133.536 115.282 133.376 113.752C133.06 110.736 132.758 107.718 132.429 104.703C132.101 101.687 131.713 98.6825 131.207 95.6907C130.701 92.6962 130.181 89.704 129.676 86.71C129.099 83.2981 128.569 79.8751 127.942 76.4721C127.915 76.3267 127.662 76.3584 127.681 76.5073C128.073 79.541 128.576 82.5636 129.062 85.583C129.547 88.5864 130.057 91.5853 130.578 94.5824C131.105 97.6085 131.574 100.637 131.913 103.691C132.247 106.703 132.556 109.718 132.874 112.732C133.055 114.451 133.232 116.17 133.419 117.888C133.603 119.582 133.736 121.288 133.977 122.975C134.004 123.163 134.321 123.119 134.309 122.93C134.208 121.398 134.006 119.869 133.852 118.341Z" fill="#222859"/>
<path d="M121.43 81.2351L122.097 80.1237L134.175 84.3103L142.659 79.0488L143.771 79.7901L134.064 84.7545L121.43 81.2351Z" fill="#D5F2F9"/>
<path d="M119.355 82.8275L121.134 80.7527L134.176 84.3096L143.66 79.3447L145.587 80.9008L134.102 87.866L119.355 82.8275Z" fill="white"/>
<path d="M118.199 81.8516L118.94 101.414L134.946 106.453L147.29 96.5366L145.912 79.5547L134.056 86.2978L118.199 81.8516Z" fill="#ED6C6B"/>
<path d="M115.115 107.021C110.557 105.409 110.539 100.463 110.539 100.463C110.539 100.463 116.504 96.7392 118.227 95.2947C119.95 93.8496 121.172 90.1817 121.784 89.6817C122.395 89.1813 122.839 89.8486 122.728 90.5153C122.617 91.1821 122.339 92.1825 122.339 92.1825C122.339 92.1825 124.229 89.2371 124.84 88.7371C125.452 88.2367 126.118 88.5146 125.951 89.126C125.785 89.7375 124.173 92.2382 124.173 92.2382C124.173 92.2382 126.73 89.4039 127.119 89.2371C127.508 89.0703 128.286 89.1813 128.008 90.0149C128.008 90.0149 128.786 90.3485 128.286 91.2931C128.286 91.2931 128.897 91.5153 128.508 92.4603C128.119 93.405 124.284 96.6286 123.729 97.3507C123.173 98.0732 115.115 107.021 115.115 107.021Z" fill="#EBBA9D"/>
<path d="M146.224 93.4908C144.861 91.8696 143.934 88.426 143.407 87.9011C142.881 87.3757 142.402 87.96 142.445 88.5955C142.488 89.2311 142.656 90.1944 142.656 90.1944C142.656 90.1944 141.156 87.2588 140.629 86.7339C140.102 86.2085 139.451 86.4074 139.551 86.9961C139.651 87.5844 140.931 90.0776 140.931 90.0776C140.931 90.0776 138.796 87.1848 138.447 86.9926C138.098 86.8003 137.358 86.8329 137.541 87.6402C137.541 87.6402 136.781 87.881 137.163 88.8127C137.163 88.8127 136.57 88.9648 136.847 89.8862C137.125 90.8077 140.369 94.2196 140.877 94.9117C141.499 95.7587 143.678 101.298 143.678 101.298C143.678 101.298 147.624 101.909 148.809 97.6297C148.809 97.6297 146.844 94.2276 146.224 93.4908Z" fill="#EBBA9D"/>
<path d="M110.617 100.415C110.567 100.446 110.539 100.464 110.539 100.464C110.539 100.464 110.549 103.013 112.241 105.048C112.949 105.862 113.877 106.579 115.094 107.014C115.101 107.016 115.107 107.019 115.115 107.022C115.115 107.022 115.163 106.968 115.244 106.878C115.276 106.842 115.312 106.802 115.354 106.755C115.507 106.586 115.727 106.341 115.999 106.039C113.953 105.177 111.605 102.506 110.617 100.415Z" fill="#EB977D"/>
<path d="M143.328 100.416C143.543 100.949 143.68 101.297 143.68 101.297C143.68 101.297 147.625 101.908 148.811 97.6289C148.811 97.6289 148.803 97.6151 148.79 97.5928C147.301 99.0467 145.371 100.027 143.328 100.416Z" fill="#EB977D"/>
<path d="M122.813 90.0002C122.801 89.932 122.707 89.9458 122.688 90.0002C122.62 90.1947 122.598 90.3905 122.566 90.5934C122.534 90.7946 122.496 90.9944 122.451 91.1933C122.406 91.3922 122.36 91.5911 122.306 91.7878C122.279 91.8864 122.248 91.9832 122.224 92.0822C122.203 92.1665 122.173 92.2557 122.207 92.3391C122.223 92.3783 122.264 92.402 122.305 92.3788C122.459 92.2913 122.503 92.0121 122.549 91.8543C122.608 91.6513 122.662 91.4466 122.703 91.2397C122.781 90.8427 122.884 90.4034 122.813 90.0002Z" fill="#EB977D"/>
<path d="M125.967 88.9774C125.953 88.9109 125.859 88.9194 125.841 88.9774C125.755 89.249 125.681 89.5046 125.539 89.7548C125.393 90.0126 125.236 90.2654 125.082 90.5183C124.924 90.7788 124.763 91.0383 124.599 91.2961C124.438 91.5508 124.249 91.8028 124.117 92.0735C124.062 92.1864 124.211 92.3273 124.304 92.2171C124.504 91.9781 124.66 91.6913 124.822 91.4259C124.997 91.14 125.17 90.8524 125.34 90.5629C125.498 90.2944 125.661 90.0264 125.796 89.7454C125.908 89.5112 126.022 89.2419 125.967 88.9774Z" fill="#EB977D"/>
<path d="M128.402 91.1639C128.552 90.7808 128.579 90.3678 128.263 90.0494C128.214 89.9998 128.141 90.0302 128.116 90.081C128.122 90.0489 128.133 90.0177 128.137 89.9847C128.159 89.8304 128.192 89.6479 128.097 89.5137C128.083 89.4927 128.049 89.4878 128.035 89.5137C127.959 89.66 127.979 89.8388 127.938 89.9981C127.888 90.1934 127.806 90.3789 127.704 90.5524C127.507 90.8869 127.241 91.1728 126.975 91.4525C126.696 91.7459 126.415 92.0372 126.134 92.3293C125.986 92.4832 125.839 92.637 125.692 92.7914C125.548 92.9426 125.376 93.0875 125.271 93.2695C125.206 93.3828 125.339 93.529 125.456 93.4537C125.633 93.3395 125.768 93.1629 125.912 93.0103C126.076 92.8373 126.239 92.6634 126.402 92.4899C126.708 92.1643 127.022 91.8449 127.316 91.51C127.573 91.2179 127.811 90.9101 127.969 90.552C128.032 90.4102 128.076 90.2625 128.109 90.1113C128.108 90.1274 128.107 90.1435 128.118 90.16C128.559 90.8236 127.971 91.4378 127.557 91.9297C127.057 92.5251 126.556 93.1201 126.06 93.719C125.934 93.8707 126.151 94.0906 126.279 93.9376C126.858 93.2454 127.454 92.5603 128.005 91.8454C128.112 91.7076 128.22 91.5421 128.31 91.3655C128.431 91.5635 128.495 91.7749 128.434 92.0162C128.348 92.3543 128.092 92.629 127.872 92.8877C127.627 93.1767 127.381 93.4648 127.14 93.7578C127.02 93.9046 126.899 94.0504 126.779 94.1976C126.673 94.3278 126.526 94.4679 126.487 94.6333C126.466 94.7225 126.554 94.7752 126.63 94.7431C126.811 94.6663 126.948 94.45 127.074 94.3042C127.22 94.136 127.367 93.9684 127.512 93.7993C127.796 93.4684 128.085 93.1366 128.352 92.7918C128.566 92.5171 128.747 92.2031 128.749 91.8449C128.751 91.5778 128.648 91.2919 128.402 91.1639Z" fill="#EB977D"/>
<path d="M139.56 90.7255C139.421 90.5533 139.287 90.3781 139.153 90.2019C138.89 89.8562 138.647 89.4986 138.406 89.1377C138.173 88.7894 137.947 88.4348 137.745 88.0678C137.636 87.8711 137.522 87.6298 137.567 87.3979C137.588 87.2864 137.651 87.182 137.74 87.1134C137.823 87.0496 137.913 87.054 138.006 87.0197C138.062 86.9987 138.082 86.9184 138.023 86.885C137.731 86.72 137.438 87.1263 137.399 87.3756C137.392 87.4224 137.392 87.4697 137.393 87.517C137.137 87.558 136.973 87.9897 136.929 88.1953C136.884 88.4027 136.889 88.6101 136.926 88.8131C136.724 88.9736 136.615 89.2751 136.592 89.5155C136.559 89.8442 136.672 90.1475 136.856 90.4151C137.07 90.7246 137.326 91.0078 137.563 91.2986C137.699 91.4645 137.835 91.6304 137.97 91.7964C138.11 91.9676 138.243 92.1639 138.409 92.3101C138.468 92.3623 138.557 92.2972 138.519 92.2254C138.353 91.9163 138.085 91.6385 137.871 91.3606C137.65 91.0738 137.426 90.7888 137.209 90.4989C137.03 90.2599 136.863 89.9976 136.863 89.6885C136.863 89.5507 136.892 89.4116 136.946 89.2845C136.966 89.2376 136.994 89.1975 137.021 89.156C137.039 89.2029 137.054 89.2506 137.074 89.2965C137.254 89.7046 137.529 90.0708 137.8 90.4227C138.107 90.8201 138.437 91.1969 138.788 91.5555C138.893 91.663 139.061 91.4957 138.953 91.3905C138.368 90.8174 137.799 90.1774 137.381 89.47C137.286 89.3103 137.203 89.1382 137.147 88.9598C137.154 88.9482 137.163 88.9375 137.17 88.9254C137.211 88.8492 137.166 88.7738 137.099 88.7493C137.076 88.6235 137.064 88.4959 137.079 88.3662C137.099 88.1994 137.151 88.033 137.242 87.8907C137.288 87.8176 137.356 87.7565 137.412 87.6887C137.484 88.0566 137.74 88.425 137.909 88.7212C138.175 89.1872 138.47 89.6328 138.79 90.0632C138.94 90.2643 139.094 90.4624 139.255 90.6546C139.404 90.8325 139.578 91.1202 139.79 91.2188C139.832 91.2384 139.891 91.2054 139.875 91.1537C139.821 90.986 139.669 90.8598 139.56 90.7255Z" fill="#EB977D"/>
<path d="M140.935 89.7577C140.866 89.6034 140.798 89.4477 140.727 89.2943C140.583 88.9883 140.432 88.6859 140.284 88.3822C140.133 88.0722 139.965 87.7649 139.836 87.4447C139.719 87.1521 139.659 86.8194 139.833 86.5367C139.893 86.4385 139.745 86.3565 139.681 86.4479C139.282 87.0134 139.719 87.7025 139.966 88.2333C140.129 88.5838 140.293 88.9339 140.457 89.284C140.539 89.4589 140.627 89.6306 140.714 89.8032C140.792 89.9588 140.853 90.1341 140.964 90.2684C141.026 90.3433 141.13 90.2603 141.115 90.1809C141.084 90.0329 140.997 89.8964 140.935 89.7577Z" fill="#EB977D"/>
<path d="M142.785 87.9198C142.823 87.8779 142.8 87.7878 142.733 87.7954C142.525 87.8181 142.396 88.0014 142.324 88.182C142.224 88.4323 142.237 88.715 142.241 88.9795C142.248 89.4844 142.269 90.0579 142.554 90.4937C142.586 90.5423 142.639 90.5646 142.696 90.5512C142.719 90.5459 142.735 90.5351 142.751 90.5186C142.78 90.4901 142.8 90.4366 142.783 90.3964C142.612 89.979 142.518 89.5642 142.492 89.1142C142.48 88.8907 142.458 88.6544 142.491 88.4318C142.524 88.2079 142.638 88.0804 142.785 87.9198Z" fill="#EB977D"/>
<path d="M115.381 106.997C115.045 106.885 114.698 106.824 114.367 106.696C114.04 106.569 113.722 106.407 113.431 106.212C112.831 105.808 112.309 105.28 111.902 104.684C111.014 103.384 110.725 101.779 110.753 100.229C110.756 100.043 110.56 99.9614 110.41 100.032C109.958 100.243 109.488 100.414 109.035 100.621C108.615 100.813 108.156 100.994 107.796 101.289C107.739 101.335 107.801 101.416 107.862 101.403C108.326 101.305 108.77 101.072 109.213 100.906C109.569 100.774 109.929 100.644 110.295 100.536C110.284 102.111 110.738 103.694 111.665 104.976C112.101 105.578 112.637 106.099 113.254 106.514C113.718 106.825 114.272 107.146 114.84 107.294C114.846 107.329 114.86 107.36 114.879 107.389C114.457 108.273 113.811 109.057 112.945 109.534C112.435 109.816 111.861 109.988 111.277 110.016C110.981 110.03 110.683 110.02 110.39 109.969C110.13 109.923 109.88 109.808 109.618 109.784C109.587 109.781 109.576 109.822 109.594 109.843C109.801 110.071 110.166 110.177 110.456 110.252C110.799 110.343 111.154 110.379 111.51 110.362C112.219 110.327 112.905 110.107 113.503 109.723C114.068 109.361 114.555 108.875 114.928 108.318C115.11 108.046 115.281 107.75 115.4 107.444C115.411 107.414 115.419 107.384 115.424 107.354C115.554 107.283 115.545 107.052 115.381 106.997Z" fill="#222859"/>
<path d="M148.951 97.3248C148.913 97.2405 148.803 97.2654 148.759 97.3248C148.604 97.5335 148.574 97.8328 148.496 98.0758C148.406 98.355 148.289 98.6204 148.142 98.8742C147.853 99.3728 147.466 99.809 146.999 100.148C146.503 100.51 145.933 100.777 145.344 100.946C145.059 101.027 144.766 101.086 144.474 101.134C144.156 101.187 143.827 101.184 143.513 101.251C143.414 101.273 143.421 101.42 143.513 101.445C144.143 101.618 144.92 101.479 145.537 101.31C146.188 101.132 146.798 100.84 147.331 100.423C147.819 100.041 148.246 99.5601 148.551 99.0196C148.8 98.5798 149.182 97.831 148.951 97.3248Z" fill="#222859"/>
<path d="M135.084 104.3C135.058 103.67 135.03 103.04 135.008 102.41C134.963 101.13 134.917 99.8509 134.87 98.5718C134.778 96.051 134.686 93.5298 134.559 91.0108C134.523 90.2851 134.483 89.5595 134.444 88.8343C134.426 88.4917 134.408 88.1497 134.381 87.8076C134.355 87.4615 134.361 87.0967 134.235 86.7702C134.209 86.7051 134.115 86.6957 134.092 86.7702C134.014 87.0364 134.027 87.3058 134.03 87.5815C134.032 87.9231 134.037 88.2638 134.048 88.605C134.067 89.2352 134.087 89.865 134.106 90.4952C134.146 91.7747 134.203 93.0539 134.253 94.333C134.354 96.8922 134.484 99.4504 134.609 102.009C134.644 102.734 134.675 103.46 134.706 104.185C134.736 104.88 134.72 105.601 134.831 106.288C134.861 106.468 135.119 106.408 135.132 106.247C135.182 105.606 135.11 104.942 135.084 104.3Z" fill="#222859"/>
<path d="M122.504 59.5172C122.123 59.5012 121.739 59.5596 121.388 59.7077C121.061 59.8455 120.794 60.0591 120.586 60.3472C120.491 60.4792 120.426 60.6385 120.392 60.7972C120.338 61.0483 120.453 61.3637 120.766 61.3039C120.932 61.2722 121.002 61.1193 121.085 60.9935C121.09 60.9863 121.114 60.9542 121.115 60.9524C121.125 60.9404 121.136 60.9279 121.146 60.9159C121.181 60.874 121.215 60.8325 121.252 60.7937C121.274 60.7723 121.296 60.7509 121.318 60.7308C121.323 60.7268 121.351 60.704 121.364 60.6924C121.376 60.6844 121.39 60.6741 121.393 60.6724C121.418 60.6554 121.443 60.638 121.469 60.622C121.516 60.5925 121.564 60.5662 121.613 60.5421C121.625 60.5363 121.636 60.5319 121.644 60.5283C121.673 60.5176 121.702 60.5069 121.731 60.4975C121.793 60.4775 121.857 60.461 121.921 60.4476C121.95 60.4418 121.979 60.4369 122.008 60.432C121.932 60.4458 122.027 60.4302 122.042 60.4288C122.181 60.4164 122.321 60.4159 122.46 60.4253C122.489 60.4271 122.519 60.4297 122.548 60.4324C122.546 60.432 122.598 60.4382 122.62 60.4404C122.64 60.4436 122.671 60.4485 122.677 60.4498C122.699 60.4538 122.721 60.4583 122.742 60.4636C122.762 60.4685 122.781 60.4752 122.801 60.481C122.805 60.4837 122.803 60.4837 122.814 60.4891C122.912 60.5395 123.011 60.5626 123.122 60.5676C123.336 60.5778 123.563 60.3651 123.544 60.1452C123.497 59.6042 122.941 59.536 122.504 59.5172Z" fill="#222859"/>
<path d="M130.855 58.6393C130.566 58.489 130.249 58.4016 129.922 58.394C129.324 58.3798 128.609 58.6759 128.38 59.2655C128.291 59.4974 128.578 59.6402 128.758 59.5563C128.852 59.5131 128.943 59.4622 129.033 59.4132C129.072 59.3918 129.152 59.3529 129.167 59.3463C129.165 59.3471 129.243 59.3141 129.266 59.3048C129.273 59.3017 129.272 59.3021 129.275 59.3008C129.278 59.2999 129.278 59.2999 129.287 59.2968C129.386 59.2606 129.487 59.233 129.591 59.2142C129.596 59.2134 129.594 59.2133 129.597 59.2129C129.6 59.2129 129.598 59.2129 129.604 59.2125C129.63 59.2102 129.656 59.2084 129.682 59.2067C129.742 59.2031 129.801 59.2022 129.861 59.2053C129.885 59.2067 129.909 59.2084 129.933 59.2107C129.939 59.2116 129.945 59.212 129.954 59.2138C130.007 59.2241 130.059 59.2356 130.112 59.2504C130.16 59.2642 130.208 59.2807 130.256 59.299C130.262 59.3017 130.267 59.3039 130.276 59.3079C130.3 59.3199 130.324 59.332 130.348 59.3449C130.392 59.3686 130.434 59.3953 130.476 59.4225C130.486 59.4292 130.5 59.4395 130.51 59.4479C130.53 59.4658 130.55 59.4836 130.57 59.5024C130.609 59.5398 130.646 59.5791 130.683 59.6183C130.699 59.6362 130.715 59.6544 130.732 59.6727C130.733 59.6781 130.733 59.6803 130.741 59.6959C130.828 59.865 131.068 59.9613 131.249 59.9024C131.449 59.8378 131.562 59.675 131.579 59.4689C131.61 59.0903 131.149 58.7923 130.855 58.6393Z" fill="#222859"/>
<path d="M123.626 63.4821C123.559 62.9059 123.263 62.3453 122.778 62.2801C122.524 62.2463 122.295 62.3435 122.107 62.5103C121.826 62.7591 121.732 63.169 121.734 63.5298C121.737 63.9014 121.804 64.305 122.067 64.5851C122.218 64.7461 122.422 64.8411 122.638 64.8701C122.899 64.9053 123.148 64.8161 123.339 64.6355C123.59 64.3973 123.679 63.9353 123.626 63.4821Z" fill="#222859"/>
<path d="M130.986 62.4802C130.919 61.9039 130.622 61.3433 130.137 61.2782C129.884 61.2443 129.655 61.3415 129.467 61.5083C129.185 61.7572 129.091 62.1671 129.094 62.5279C129.096 62.8994 129.163 63.303 129.427 63.5831C129.578 63.7441 129.781 63.8391 129.997 63.8681C130.258 63.9034 130.507 63.8142 130.698 63.6335C130.949 63.3958 131.038 62.9333 130.986 62.4802Z" fill="#222859"/>
<path d="M127.202 64.6885C127.111 64.7331 127.041 64.8081 126.964 64.8718C126.961 64.875 126.935 64.8955 126.932 64.8986C126.919 64.9084 126.905 64.9182 126.892 64.928C126.859 64.9517 126.825 64.9735 126.792 64.9958C126.72 65.0435 126.651 65.0922 126.575 65.1323C126.553 65.1439 126.531 65.155 126.508 65.1658C126.504 65.1675 126.496 65.1707 126.49 65.1729C126.451 65.1876 126.412 65.2005 126.372 65.2112C126.338 65.2202 126.303 65.2277 126.268 65.2331H126.267C126.265 65.2331 126.266 65.2327 126.26 65.2331C126.238 65.2344 126.215 65.2362 126.193 65.2371C126.157 65.238 126.122 65.2362 126.086 65.2344C126.08 65.234 126.072 65.2331 126.067 65.2326C126.048 65.2295 126.029 65.2255 126.01 65.2219C125.937 65.2077 125.866 65.1934 125.796 65.1666C125.749 65.1479 125.666 65.1265 125.607 65.0953C125.51 65.0444 125.369 65.1301 125.409 65.2474C125.439 65.3348 125.479 65.4334 125.544 65.5016C125.611 65.5716 125.704 65.6309 125.792 65.6724C125.978 65.7603 126.203 65.7835 126.406 65.7598C126.632 65.734 126.847 65.6613 127.045 65.5493C127.15 65.49 127.246 65.4093 127.336 65.3303C127.426 65.2523 127.522 65.1702 127.576 65.0623C127.701 64.813 127.451 64.5663 127.202 64.6885Z" fill="#EB977D"/>
<path d="M123.457 67.8069C123.837 67.1634 129.409 66.6884 129.897 66.943C130.384 67.1977 129.646 70.0213 127.147 70.2867C124.645 70.5521 123.117 68.3841 123.457 67.8069Z" fill="#222859"/>
<path d="M129.372 69.0098C128.887 68.7436 128.315 68.5973 127.762 68.5732C126.644 68.525 125.47 68.9278 124.711 69.7199C125.338 70.1199 126.165 70.3907 127.144 70.2867C128.176 70.1775 128.903 69.6307 129.372 69.0098Z" fill="#ED6C6B"/>
<path d="M129.894 66.943C129.407 66.6884 123.835 67.1634 123.455 67.8069C123.407 67.8877 123.4 68.0014 123.423 68.1334C123.902 68.3466 124.507 68.2913 125.049 68.2124C126.399 68.0152 127.749 67.8185 129.099 67.6214C129.405 67.5768 129.723 67.5228 130.028 67.4377C130.046 67.1857 130.002 66.9992 129.894 66.943Z" fill="white"/>
<path d="M123.138 62.0654C122.543 62.0654 122.542 62.9904 123.138 62.9904C123.734 62.9904 123.735 62.0654 123.138 62.0654Z" fill="white"/>
<path d="M130.576 61.1025C129.98 61.1025 129.979 62.0275 130.576 62.0275C131.171 62.0275 131.172 61.1025 130.576 61.1025Z" fill="white"/>
<path d="M134.875 134.606C134.88 134.604 134.884 134.603 134.889 134.602C134.889 134.602 134.886 134.602 134.875 134.606Z" fill="#697BAE"/>
<path d="M135.407 141.453C135.259 140.368 135.12 139.282 134.977 138.197C134.86 137.312 134.837 136.325 134.6 135.448C134.678 135.429 134.756 135.411 134.831 135.382C134.963 135.333 135.097 135.264 135.206 135.172C135.32 135.075 135.4 134.967 135.42 134.816C135.408 134.86 135.396 134.905 135.384 134.95C135.396 134.924 135.411 134.899 135.426 134.874C135.528 134.703 135.36 134.49 135.171 134.541C135.112 134.556 135.181 134.548 135.205 134.554C135.155 134.541 135.102 134.544 135.051 134.554C135.012 134.562 134.973 134.577 134.934 134.588C134.919 134.592 134.904 134.597 134.889 134.601C134.887 134.604 134.732 134.665 134.777 134.647C134.81 134.634 134.751 134.656 134.745 134.659C134.726 134.666 134.706 134.672 134.686 134.68C134.678 134.683 134.628 134.703 134.606 134.712C134.596 134.716 134.572 134.725 134.568 134.727C134.529 134.742 134.489 134.756 134.448 134.768C134.363 134.795 134.275 134.817 134.187 134.833C134.171 134.835 134.155 134.838 134.139 134.841C134.134 134.841 134.132 134.841 134.121 134.842C134.079 134.846 134.037 134.849 133.995 134.851C133.913 134.856 133.831 134.866 133.749 134.866C133.726 134.866 133.641 134.856 133.705 134.866C133.659 134.858 133.615 134.845 133.569 134.839C133.579 134.841 133.53 134.833 133.515 134.831C133.509 134.83 133.503 134.829 133.501 134.828C133.497 134.827 133.455 134.816 133.478 134.822C133.504 134.829 133.451 134.802 133.476 134.821C133.318 134.694 133.117 134.814 133.148 135.012C133.212 135.423 133.699 135.531 134.067 135.525C134.041 136.332 134.215 137.183 134.304 137.973C134.412 138.941 134.532 139.907 134.657 140.873C134.893 142.687 135.144 144.5 135.413 146.31C135.969 150.055 136.612 153.785 137.339 157.5C137.756 159.634 138.203 161.759 138.701 163.874C138.782 164.219 139.294 164.071 139.228 163.729C137.789 156.332 136.426 148.923 135.407 141.453Z" fill="#697BAE"/>
<path d="M119.674 126.713C119.495 126.904 119.374 127.145 119.225 127.359C119.088 127.555 118.94 127.744 118.783 127.925C118.46 128.297 118.1 128.631 117.721 128.945C117.35 129.252 116.945 129.519 116.522 129.749C116.307 129.866 116.095 130.006 115.873 130.105C115.79 130.142 115.702 130.168 115.62 130.189C115.566 130.204 115.511 130.206 115.49 130.27C115.429 130.456 115.678 130.608 115.833 130.625C116.079 130.652 116.385 130.531 116.609 130.44C117.126 130.23 117.62 129.947 118.075 129.627C118.532 129.305 118.95 128.93 119.326 128.516C119.518 128.305 119.698 128.082 119.869 127.853C120.044 127.618 120.235 127.374 120.327 127.093C120.447 126.722 119.936 126.432 119.674 126.713Z" fill="#697BAE"/>
<path d="M145.597 127.782C145.181 127.517 144.636 127.525 144.167 127.407C143.69 127.287 143.238 127.098 142.81 126.856C142.378 126.612 141.995 126.309 141.639 125.966C141.466 125.799 141.303 125.622 141.157 125.432C140.998 125.225 140.868 125.016 140.649 124.866C140.533 124.787 140.381 124.894 140.379 125.022C140.369 125.55 140.829 126.073 141.152 126.453C141.51 126.872 141.96 127.224 142.428 127.51C142.901 127.798 143.427 128.013 143.964 128.148C144.471 128.276 145.14 128.412 145.598 128.08C145.702 128.004 145.714 127.856 145.597 127.782Z" fill="#697BAE"/>
<path d="M127.393 174.45C127.072 173.387 126.482 172.349 126.028 171.334C125.525 170.21 125.03 169.082 124.554 167.945C124.097 166.852 123.658 165.751 123.222 164.65C123.003 164.099 122.804 163.539 122.574 162.993C122.437 162.667 122.377 162.299 122.021 162.183C121.999 162.176 121.975 162.188 121.964 162.206C121.745 162.557 122.003 162.986 122.126 163.346C122.318 163.906 122.532 164.459 122.741 165.012C123.159 166.119 123.603 167.217 124.057 168.311C124.492 169.362 124.94 170.407 125.4 171.447C125.865 172.497 126.302 173.688 126.946 174.64C127.095 174.858 127.477 174.729 127.393 174.45Z" fill="#697BAE"/>
<path d="M121.845 178.985C120.988 177.702 120.106 176.435 119.215 175.175C118.344 173.944 117.463 172.721 116.554 171.519C116.15 170.986 115.736 170.465 115.315 169.946C115.211 170.071 115.11 170.191 115.012 170.309C115.376 170.843 115.739 171.376 116.11 171.905C116.973 173.137 117.839 174.367 118.687 175.61C119.535 176.853 120.365 178.109 121.188 179.368C121.262 179.481 121.334 179.595 121.406 179.708C121.599 179.558 121.798 179.401 122.012 179.232C121.956 179.15 121.9 179.068 121.845 178.985Z" fill="#697BAE"/>
<path d="M142.228 180.465C140.848 180.917 139.475 181.387 138.083 181.799C136.534 182.258 134.98 182.694 133.41 183.077C132.588 183.277 131.752 183.449 130.922 183.638C130.995 183.8 131.066 183.954 131.133 184.102C131.838 183.973 132.538 183.818 133.23 183.666C134.842 183.312 136.45 182.92 138.036 182.459C139.482 182.038 140.908 181.56 142.339 181.092C142.304 180.891 142.266 180.682 142.228 180.465Z" fill="#697BAE"/>
</g>
<defs>
<clipPath id="clip0_1021_41603">
<rect width="223" height="223" fill="white"/>
</clipPath>
</defs>
</svg>
