<svg width="46" height="46" viewBox="0 0 46 46" fill="none" xmlns="http://www.w3.org/2000/svg">
<circle cx="23" cy="23" r="22.5" fill="#51D7E0" stroke="black"/>
<path d="M36.4333 27.7495L27.8633 33.376L28.5381 26.1804L36.4333 27.7495Z" fill="url(#paint0_linear_1464_16136)"/>
<path d="M12.0049 21.8943L36.433 19.1245V27.7495L12.0049 30.5192V21.8943Z" fill="url(#paint1_linear_1464_16136)"/>
<path d="M40.5529 15.2319L37.3916 18.9593L43.0001 16.5215L40.5529 15.2319Z" fill="url(#paint2_linear_1464_16136)"/>
<path d="M41.0397 18.709L38.1846 19.3495L40.9039 20.3556L41.0397 18.709Z" fill="url(#paint3_linear_1464_16136)"/>
<path d="M39.1346 15.2617L37.6992 17.7572L37.9463 15.1171L39.1346 15.2617Z" fill="url(#paint4_linear_1464_16136)"/>
<path d="M7.44723 34.895L10.6085 31.1677L5 33.6054L7.44723 34.895Z" fill="url(#paint5_linear_1464_16136)"/>
<path d="M6.96094 31.418L9.81603 30.7775L7.09671 29.7714L6.96094 31.418Z" fill="url(#paint6_linear_1464_16136)"/>
<path d="M8.86523 34.8653L10.3007 32.3699L10.0536 35.01L8.86523 34.8653Z" fill="url(#paint7_linear_1464_16136)"/>
<path d="M15.4237 27.8096C15.0321 27.6466 14.7252 27.3913 14.5032 27.0439C14.281 26.6965 14.1699 26.2863 14.1699 25.8132C14.1699 25.3402 14.281 24.9048 14.5032 24.5069C14.7252 24.1091 15.0321 23.7843 15.4237 23.5323C15.8152 23.2804 16.2552 23.1268 16.7435 23.0715C17.1923 23.0206 17.5925 23.0555 17.9445 23.1762C18.2964 23.297 18.5867 23.4962 18.8156 23.7737L17.8323 24.7754C17.5464 24.442 17.2098 24.2971 16.8227 24.3409C16.497 24.3778 16.2354 24.5137 16.0374 24.748C15.8394 24.9825 15.7405 25.2782 15.7405 25.6352C15.7405 25.9923 15.8394 26.2655 16.0374 26.455C16.2354 26.6445 16.497 26.7207 16.8227 26.6838C17.2098 26.6399 17.5464 26.419 17.8323 26.0205L18.8156 26.7993C18.5867 27.1288 18.2964 27.3937 17.9445 27.5943C17.5925 27.7948 17.1923 27.9205 16.7435 27.9714C16.2552 28.0267 15.8152 27.9728 15.4237 27.8096Z" fill="white"/>
<path d="M20.3793 27.2445C19.9834 27.0797 19.6732 26.8236 19.4488 26.4765C19.2245 26.1293 19.1123 25.7214 19.1123 25.2529C19.1123 24.7843 19.2245 24.3509 19.4488 23.9528C19.6732 23.5549 19.9834 23.2285 20.3793 22.9738C20.7752 22.7192 21.2216 22.5637 21.7188 22.5073C22.216 22.451 22.6625 22.5052 23.0584 22.67C23.4545 22.8349 23.7645 23.091 23.9889 23.438C24.2133 23.7853 24.3254 24.1932 24.3254 24.6617C24.3254 25.1303 24.2133 25.5637 23.9889 25.9617C23.7645 26.3598 23.4545 26.6861 23.0584 26.9408C22.6625 27.1953 22.216 27.3508 21.7188 27.4072C21.2217 27.4635 20.7752 27.4093 20.3793 27.2445ZM22.2434 25.9252C22.3996 25.8117 22.524 25.6615 22.6164 25.4747C22.7086 25.288 22.7549 25.0764 22.7549 24.8398C22.7549 24.6033 22.7086 24.4022 22.6164 24.2363C22.524 24.0706 22.3996 23.9486 22.2434 23.8703C22.0873 23.7921 21.9124 23.7639 21.7189 23.7858C21.5254 23.8077 21.3504 23.8757 21.1943 23.9893C21.0382 24.1029 20.9139 24.2532 20.8215 24.4398C20.7291 24.6266 20.6828 24.8382 20.6828 25.0747C20.6828 25.3113 20.7291 25.5124 20.8215 25.6782C20.9139 25.844 21.0382 25.966 21.1943 26.0442C21.3504 26.1226 21.5254 26.1506 21.7189 26.1286C21.9124 26.1067 22.0873 26.039 22.2434 25.9252Z" fill="white"/>
<path d="M29.5787 21.7233V26.409L28.2985 26.5542L26.5433 24.6245V26.7531L25.0254 26.9252V22.2395L26.3057 22.0944L28.061 24.024V21.8954L29.5787 21.7233Z" fill="white"/>
<path d="M31.0661 26.2169C30.7032 26.171 30.405 26.0877 30.1719 25.9668L30.6733 24.7586C30.8933 24.8632 31.1396 24.939 31.4124 24.9861C31.6852 25.0333 31.947 25.0426 32.1977 25.0141C32.4133 24.9897 32.5673 24.9512 32.6596 24.8982C32.7519 24.8453 32.7982 24.7765 32.7982 24.6917C32.7982 24.5936 32.7377 24.5269 32.6167 24.4914C32.4956 24.4561 32.2966 24.4251 32.0195 24.3985C31.6633 24.363 31.3663 24.3153 31.1287 24.2551C30.8911 24.1951 30.6843 24.0758 30.5083 23.8971C30.3322 23.7185 30.2444 23.4596 30.2444 23.1204C30.2444 22.8259 30.3257 22.5489 30.4885 22.2895C30.6513 22.03 30.8944 21.8128 31.2177 21.6378C31.541 21.4629 31.9336 21.3491 32.3956 21.2968C32.7125 21.2609 33.0236 21.2601 33.3293 21.2946C33.635 21.3293 33.9045 21.4002 34.1378 21.5076L33.6693 22.7054C33.2161 22.5248 32.7871 22.4572 32.3825 22.5031C31.9822 22.5485 31.782 22.6695 31.782 22.8658C31.782 22.9595 31.8414 23.0231 31.9601 23.0564C32.0788 23.0898 32.2746 23.1178 32.5473 23.1405C32.8993 23.1675 33.1962 23.2108 33.4384 23.2704C33.6803 23.3299 33.8904 23.4478 34.0685 23.6241C34.2467 23.8002 34.3358 24.0579 34.3358 24.397C34.3358 24.6915 34.2543 24.9674 34.0915 25.2246C33.9288 25.4819 33.6858 25.699 33.3625 25.8762C33.039 26.0535 32.6464 26.1682 32.1846 26.2206C31.8018 26.264 31.4291 26.2627 31.0661 26.2169Z" fill="white"/>
<path d="M26.1637 14.9393L29.1611 11.5059L27.4563 10L24.4589 13.4334L21.4616 10.7858L19.7568 12.7386L22.7542 15.3862L19.7568 18.8197L21.4616 20.3255L24.4589 16.892L27.4563 19.5396L29.1612 17.5869L26.1637 14.9393Z" fill="url(#paint8_linear_1464_16136)"/>
<defs>
<linearGradient id="paint0_linear_1464_16136" x1="32.1905" y1="31.6924" x2="31.7067" y2="28.5027" gradientUnits="userSpaceOnUse">
<stop offset="0.3738" stop-color="#FF0000"/>
<stop offset="0.5369" stop-color="#F80000"/>
<stop offset="0.7721" stop-color="#E50000"/>
<stop offset="1" stop-color="#CC0000"/>
</linearGradient>
<linearGradient id="paint1_linear_1464_16136" x1="28.7588" y1="17.8991" x2="13.8171" y2="42.1711" gradientUnits="userSpaceOnUse">
<stop offset="0.3738" stop-color="#FF0000"/>
<stop offset="0.5369" stop-color="#F80000"/>
<stop offset="0.7721" stop-color="#E50000"/>
<stop offset="1" stop-color="#CC0000"/>
</linearGradient>
<linearGradient id="paint2_linear_1464_16136" x1="35.6142" y1="22.0811" x2="42.3647" y2="15.5798" gradientUnits="userSpaceOnUse">
<stop offset="0.3738" stop-color="#FF0000"/>
<stop offset="0.5369" stop-color="#F80000"/>
<stop offset="0.7721" stop-color="#E50000"/>
<stop offset="1" stop-color="#CC0000"/>
</linearGradient>
<linearGradient id="paint3_linear_1464_16136" x1="36.4593" y1="22.9585" x2="43.2099" y2="16.4572" gradientUnits="userSpaceOnUse">
<stop offset="0.3738" stop-color="#FF0000"/>
<stop offset="0.5369" stop-color="#F80000"/>
<stop offset="0.7721" stop-color="#E50000"/>
<stop offset="1" stop-color="#CC0000"/>
</linearGradient>
<linearGradient id="paint4_linear_1464_16136" x1="33.9415" y1="20.3448" x2="40.6921" y2="13.8435" gradientUnits="userSpaceOnUse">
<stop offset="0.3738" stop-color="#FF0000"/>
<stop offset="0.5369" stop-color="#F80000"/>
<stop offset="0.7721" stop-color="#E50000"/>
<stop offset="1" stop-color="#CC0000"/>
</linearGradient>
<linearGradient id="paint5_linear_1464_16136" x1="6.87449" y1="33.6644" x2="12.9981" y2="28.5383" gradientUnits="userSpaceOnUse">
<stop offset="0.3738" stop-color="#FF0000"/>
<stop offset="0.5369" stop-color="#F80000"/>
<stop offset="0.7721" stop-color="#E50000"/>
<stop offset="1" stop-color="#CC0000"/>
</linearGradient>
<linearGradient id="paint6_linear_1464_16136" x1="5.93607" y1="32.5429" x2="12.0597" y2="27.4169" gradientUnits="userSpaceOnUse">
<stop offset="0.3738" stop-color="#FF0000"/>
<stop offset="0.5369" stop-color="#F80000"/>
<stop offset="0.7721" stop-color="#E50000"/>
<stop offset="1" stop-color="#CC0000"/>
</linearGradient>
<linearGradient id="paint7_linear_1464_16136" x1="8.30592" y1="35.3742" x2="14.4296" y2="30.2481" gradientUnits="userSpaceOnUse">
<stop offset="0.3738" stop-color="#FF0000"/>
<stop offset="0.5369" stop-color="#F80000"/>
<stop offset="0.7721" stop-color="#E50000"/>
<stop offset="1" stop-color="#CC0000"/>
</linearGradient>
<linearGradient id="paint8_linear_1464_16136" x1="24.306" y1="14.2486" x2="25.1959" y2="19.4151" gradientUnits="userSpaceOnUse">
<stop offset="0.3738" stop-color="#FF0000"/>
<stop offset="0.5369" stop-color="#F80000"/>
<stop offset="0.7721" stop-color="#E50000"/>
<stop offset="1" stop-color="#CC0000"/>
</linearGradient>
</defs>
</svg>
