<svg width="194" height="38" viewBox="0 0 194 38" fill="none" xmlns="http://www.w3.org/2000/svg">
<path d="M8.64844 4.33398L6.24023 13H3.73535L0.37793 0.317383H3.12891L5.12402 9.50195H5.19434L7.56738 0.317383H9.80859L12.1816 9.50195H12.252L14.2559 0.317383H17.0068L13.6406 13H11.1357L8.72754 4.33398H8.64844ZM18.2812 13V0.317383H20.8037V5.25684H20.8564C21.3574 4.07031 22.3857 3.40234 23.8184 3.40234C25.9102 3.40234 27.1055 4.75586 27.1055 6.93555V13H24.5391V7.48047C24.5391 6.26758 23.9414 5.5293 22.7725 5.5293C21.5596 5.5293 20.8477 6.38184 20.8477 7.62109V13H18.2812ZM32.3877 11.2949C33.5039 11.2949 34.4268 10.5654 34.4268 9.5459V8.86035L32.4404 8.9834C31.4824 9.05371 30.9375 9.48438 30.9375 10.1523C30.9375 10.8555 31.5176 11.2949 32.3877 11.2949ZM31.5439 13.1494C29.751 13.1494 28.3887 11.9893 28.3887 10.293C28.3887 8.5791 29.707 7.58594 32.0537 7.44531L34.4268 7.30469V6.68066C34.4268 5.80176 33.8115 5.29199 32.8447 5.29199C31.8867 5.29199 31.2803 5.7666 31.1572 6.46094H28.8105C28.9072 4.63281 30.4629 3.37598 32.959 3.37598C35.376 3.37598 36.9492 4.62402 36.9492 6.52246V13H34.4707V11.5586H34.418C33.8906 12.5605 32.7217 13.1494 31.5439 13.1494ZM39.2959 1.40723H41.8623V3.57812H43.6025V5.51172H41.8623V10.0205C41.8623 10.7412 42.2139 11.084 42.9697 11.084C43.1982 11.084 43.4355 11.0664 43.5938 11.04V12.9297C43.3301 12.9912 42.8906 13.0352 42.3721 13.0352C40.1572 13.0352 39.2959 12.2969 39.2959 10.46V5.51172H37.9688V3.57812H39.2959V1.40723ZM49.2627 1.40723H51.8291V3.57812H53.5693V5.51172H51.8291V10.0205C51.8291 10.7412 52.1807 11.084 52.9365 11.084C53.165 11.084 53.4023 11.0664 53.5605 11.04V12.9297C53.2969 12.9912 52.8574 13.0352 52.3389 13.0352C50.124 13.0352 49.2627 12.2969 49.2627 10.46V5.51172H47.9355V3.57812H49.2627V1.40723ZM56.1797 16.4893C56.0918 16.4893 55.292 16.4805 55.2129 16.4629V14.4854C55.292 14.5029 55.7578 14.5029 55.8545 14.5029C56.7949 14.5029 57.2607 14.2041 57.4365 13.457C57.4365 13.4219 57.5332 13.0439 57.5156 13.0088L54.2373 3.57812H57.0586L59.0625 10.9434H59.1064L61.1104 3.57812H63.8174L60.5742 13.2109C59.7656 15.6279 58.5879 16.4893 56.1797 16.4893ZM70.251 3.42871C72.6416 3.42871 74.1094 5.24805 74.1094 8.28906C74.1094 11.3213 72.6504 13.1494 70.2949 13.1494C68.9238 13.1494 67.8691 12.4814 67.3682 11.418H67.3154V16.0762H64.749V3.57812H67.2803V5.22168H67.333C67.8428 4.11426 68.8887 3.42871 70.251 3.42871ZM69.3896 11.084C70.6729 11.084 71.4814 10.0029 71.4814 8.28906C71.4814 6.58398 70.6729 5.48535 69.3896 5.48535C68.1328 5.48535 67.3066 6.60156 67.3066 8.28906C67.3066 9.99414 68.1328 11.084 69.3896 11.084ZM79.6641 5.27441C78.5391 5.27441 77.7305 6.12695 77.6426 7.30469H81.6416C81.5889 6.10059 80.8066 5.27441 79.6641 5.27441ZM81.6768 10.1172H84.0322C83.751 11.9629 82.0635 13.2021 79.7344 13.2021C76.834 13.2021 75.0938 11.3477 75.0938 8.33301C75.0938 5.32715 76.8516 3.37598 79.6377 3.37598C82.3799 3.37598 84.1113 5.23047 84.1113 8.0957V8.87793H77.6162V9.03613C77.6162 10.3809 78.4688 11.3037 79.7783 11.3037C80.7188 11.3037 81.4395 10.8379 81.6768 10.1172ZM93.3311 13.2021C90.4834 13.2021 88.6641 11.374 88.6641 8.28027C88.6641 5.23047 90.5098 3.37598 93.3311 3.37598C96.1523 3.37598 97.998 5.22168 97.998 8.28027C97.998 11.3828 96.1787 13.2021 93.3311 13.2021ZM93.3311 11.2422C94.5879 11.2422 95.3877 10.1787 95.3877 8.28906C95.3877 6.41699 94.5791 5.33594 93.3311 5.33594C92.083 5.33594 91.2656 6.41699 91.2656 8.28906C91.2656 10.1787 92.0654 11.2422 93.3311 11.2422ZM100.011 13V5.51172H98.7275V3.62207H100.011V2.91016C100.011 1.06445 100.881 0.203125 103.113 0.203125C103.588 0.203125 104.124 0.255859 104.423 0.317383V2.01367C104.238 1.97852 103.983 1.96094 103.729 1.96094C102.885 1.96094 102.516 2.33008 102.516 2.99805V3.62207H104.388V5.51172H102.577V13H100.011ZM108.747 9.26465H111.322C111.34 10.293 112.008 10.9697 113.01 10.9697C114.117 10.9697 114.715 10.2842 114.715 9.00977V0.317383H117.369V9.02734C117.369 11.7256 115.752 13.2637 113.036 13.2637C110.443 13.2637 108.747 11.6904 108.747 9.26465ZM123.688 13.2021C120.841 13.2021 119.021 11.374 119.021 8.28027C119.021 5.23047 120.867 3.37598 123.688 3.37598C126.51 3.37598 128.355 5.22168 128.355 8.28027C128.355 11.3828 126.536 13.2021 123.688 13.2021ZM123.688 11.2422C124.945 11.2422 125.745 10.1787 125.745 8.28906C125.745 6.41699 124.937 5.33594 123.688 5.33594C122.44 5.33594 121.623 6.41699 121.623 8.28906C121.623 10.1787 122.423 11.2422 123.688 11.2422ZM135.281 13.1494C133.901 13.1494 132.847 12.4814 132.328 11.3828H132.275V13H129.744V0.317383H132.311V5.21289H132.363C132.882 4.09668 133.928 3.42871 135.272 3.42871C137.646 3.42871 139.104 5.24805 139.104 8.28906C139.104 11.3213 137.654 13.1494 135.281 13.1494ZM134.394 5.48535C133.154 5.48535 132.302 6.60156 132.302 8.28906C132.302 9.99414 133.146 11.084 134.394 11.084C135.677 11.084 136.477 10.0117 136.477 8.28906C136.477 6.5752 135.668 5.48535 134.394 5.48535ZM145.213 16.4893C145.125 16.4893 144.325 16.4805 144.246 16.4629V14.4854C144.325 14.5029 144.791 14.5029 144.888 14.5029C145.828 14.5029 146.294 14.2041 146.47 13.457C146.47 13.4219 146.566 13.0439 146.549 13.0088L143.271 3.57812H146.092L148.096 10.9434H148.14L150.144 3.57812H152.851L149.607 13.2109C148.799 15.6279 147.621 16.4893 145.213 16.4893ZM157.843 13.2021C154.995 13.2021 153.176 11.374 153.176 8.28027C153.176 5.23047 155.021 3.37598 157.843 3.37598C160.664 3.37598 162.51 5.22168 162.51 8.28027C162.51 11.3828 160.69 13.2021 157.843 13.2021ZM157.843 11.2422C159.1 11.2422 159.899 10.1787 159.899 8.28906C159.899 6.41699 159.091 5.33594 157.843 5.33594C156.595 5.33594 155.777 6.41699 155.777 8.28906C155.777 10.1787 156.577 11.2422 157.843 11.2422ZM172.538 3.57812V13H170.06V11.3037H170.007C169.541 12.4902 168.609 13.1758 167.186 13.1758C165.146 13.1758 163.793 11.8486 163.793 9.65137V3.57812H166.359V9.11523C166.359 10.3721 166.983 11.04 168.117 11.04C169.26 11.04 169.972 10.2227 169.972 8.97461V3.57812H172.538ZM176.353 5.26562H174.437L175.096 0.317383H177.53L176.353 5.26562ZM178.989 13V3.57812H181.468V5.27441H181.521C181.854 4.0791 182.654 3.42871 183.762 3.42871C184.061 3.42871 184.315 3.47266 184.491 3.52539V5.78418C184.28 5.69629 183.929 5.63477 183.56 5.63477C182.294 5.63477 181.556 6.4082 181.556 7.73535V13H178.989ZM189.457 5.27441C188.332 5.27441 187.523 6.12695 187.436 7.30469H191.435C191.382 6.10059 190.6 5.27441 189.457 5.27441ZM191.47 10.1172H193.825C193.544 11.9629 191.856 13.2021 189.527 13.2021C186.627 13.2021 184.887 11.3477 184.887 8.33301C184.887 5.32715 186.645 3.37598 189.431 3.37598C192.173 3.37598 193.904 5.23047 193.904 8.0957V8.87793H187.409V9.03613C187.409 10.3809 188.262 11.3037 189.571 11.3037C190.512 11.3037 191.232 10.8379 191.47 10.1172ZM0.896484 34V21.3174H3.46289V34H0.896484ZM9.51855 34.2021C6.6709 34.2021 4.85156 32.374 4.85156 29.2803C4.85156 26.2305 6.69727 24.376 9.51855 24.376C12.3398 24.376 14.1855 26.2217 14.1855 29.2803C14.1855 32.3828 12.3662 34.2021 9.51855 34.2021ZM9.51855 32.2422C10.7754 32.2422 11.5752 31.1787 11.5752 29.2891C11.5752 27.417 10.7666 26.3359 9.51855 26.3359C8.27051 26.3359 7.45312 27.417 7.45312 29.2891C7.45312 31.1787 8.25293 32.2422 9.51855 32.2422ZM19.8369 34.2021C16.9893 34.2021 15.1699 32.374 15.1699 29.2803C15.1699 26.2305 17.0156 24.376 19.8369 24.376C22.6582 24.376 24.5039 26.2217 24.5039 29.2803C24.5039 32.3828 22.6846 34.2021 19.8369 34.2021ZM19.8369 32.2422C21.0938 32.2422 21.8936 31.1787 21.8936 29.2891C21.8936 27.417 21.085 26.3359 19.8369 26.3359C18.5889 26.3359 17.7715 27.417 17.7715 29.2891C17.7715 31.1787 18.5713 32.2422 19.8369 32.2422ZM28.4941 28.3574L31.6934 24.5781H34.6025L31.0078 28.6211L34.7783 34H31.8252L29.127 30.168L28.459 30.8887V34H25.8926V21.3174H28.459V28.3574H28.4941ZM35.5605 34V24.5781H38.127V34H35.5605ZM36.8438 23.541C36.0703 23.541 35.4727 22.9521 35.4727 22.2139C35.4727 21.4668 36.0703 20.8867 36.8438 20.8867C37.6172 20.8867 38.2148 21.4668 38.2148 22.2139C38.2148 22.9521 37.6172 23.541 36.8438 23.541ZM39.8408 34V24.5781H42.3193V26.2568H42.3721C42.873 25.0879 43.8662 24.4023 45.3164 24.4023C47.4082 24.4023 48.5859 25.7207 48.5859 27.9268V34H46.0195V28.4629C46.0195 27.2324 45.4395 26.5293 44.2881 26.5293C43.1367 26.5293 42.4072 27.373 42.4072 28.5947V34H39.8408ZM54.5625 31.9961C55.8457 31.9961 56.6631 30.9766 56.6631 29.2715C56.6631 27.5752 55.8457 26.4854 54.5625 26.4854C53.2969 26.4854 52.4971 27.5576 52.4971 29.2715C52.4971 30.9941 53.2881 31.9961 54.5625 31.9961ZM54.5186 37.5508C52.04 37.5508 50.3613 36.3467 50.1592 34.668H52.6729C52.875 35.3184 53.6133 35.7666 54.5889 35.7666C55.916 35.7666 56.6543 35.0283 56.6543 33.9385V32.2861H56.6016C56.1621 33.2881 55.0547 33.9736 53.6924 33.9736C51.3896 33.9736 49.8691 32.1982 49.8691 29.2539C49.8691 26.2656 51.3457 24.4287 53.7363 24.4287C55.0898 24.4287 56.1533 25.1406 56.6455 26.2217H56.6895V24.5781H59.2207V33.8682C59.2207 36.1182 57.3398 37.5508 54.5186 37.5508ZM65.1533 34V26.5117H63.8701V24.6221H65.1533V23.9102C65.1533 22.0645 66.0234 21.2031 68.2559 21.2031C68.7305 21.2031 69.2666 21.2559 69.5654 21.3174V23.0137C69.3809 22.9785 69.126 22.9609 68.8711 22.9609C68.0273 22.9609 67.6582 23.3301 67.6582 23.998V24.6221H69.5303V26.5117H67.7197V34H65.1533ZM74.9443 34.2021C72.0967 34.2021 70.2773 32.374 70.2773 29.2803C70.2773 26.2305 72.123 24.376 74.9443 24.376C77.7656 24.376 79.6113 26.2217 79.6113 29.2803C79.6113 32.3828 77.792 34.2021 74.9443 34.2021ZM74.9443 32.2422C76.2012 32.2422 77.001 31.1787 77.001 29.2891C77.001 27.417 76.1924 26.3359 74.9443 26.3359C73.6963 26.3359 72.8789 27.417 72.8789 29.2891C72.8789 31.1787 73.6787 32.2422 74.9443 32.2422ZM80.9385 34V24.5781H83.417V26.2744H83.4697C83.8037 25.0791 84.6035 24.4287 85.7109 24.4287C86.0098 24.4287 86.2646 24.4727 86.4404 24.5254V26.7842C86.2295 26.6963 85.8779 26.6348 85.5088 26.6348C84.2432 26.6348 83.5049 27.4082 83.5049 28.7354V34H80.9385ZM87.1348 24.877C87.1787 22.7148 88.708 21.2031 91.4062 21.2031C93.9199 21.2031 95.5811 22.6006 95.5811 24.6045C95.5811 25.9316 94.9395 26.8545 93.7002 27.584C92.5312 28.2607 92.2061 28.6914 92.2061 29.5527V30.0186H89.877L89.8594 29.5088C89.7451 28.1289 90.2285 27.3379 91.4414 26.626C92.5752 25.9492 92.918 25.5186 92.918 24.6836C92.918 23.8486 92.25 23.2422 91.248 23.2422C90.2373 23.2422 89.5693 23.8838 89.5166 24.877H87.1348ZM91.0723 34.2197C90.2812 34.2197 89.6396 33.6133 89.6396 32.8398C89.6396 32.0664 90.2812 31.46 91.0723 31.46C91.8721 31.46 92.5137 32.0664 92.5137 32.8398C92.5137 33.6133 91.8721 34.2197 91.0723 34.2197Z" fill="white"/>
</svg>
