<svg width="62" height="56" viewBox="0 0 62 56" fill="none" xmlns="http://www.w3.org/2000/svg">
<g clip-path="url(#clip0_1021_28079)">
<path d="M55.0459 35.5876H32.6329C32.2324 35.5876 31.9062 35.2538 31.9062 34.8439V1.43119C31.9062 1.02127 32.2324 0.6875 32.6329 0.6875H55.0459C55.4464 0.6875 55.7725 1.02127 55.7725 1.43119V34.8439C55.7725 35.2538 55.4464 35.5876 55.0459 35.5876ZM32.6329 0.719227C32.2497 0.719227 31.9373 1.03904 31.9373 1.43119V34.8439C31.9373 35.236 32.2497 35.5558 32.6329 35.5558H55.0459C55.4291 35.5558 55.7415 35.236 55.7415 34.8439V1.43119C55.7415 1.03904 55.4291 0.719227 55.0459 0.719227H32.6329Z" fill="#E0E0E0"/>
<path d="M29.2009 35.5876H6.78914C6.38862 35.5876 6.0625 35.2538 6.0625 34.8439V1.43119C6.0625 1.02127 6.38862 0.6875 6.78914 0.6875H29.2009C29.6014 0.6875 29.9275 1.02127 29.9275 1.43119V34.8439C29.9275 35.2538 29.6014 35.5876 29.2009 35.5876ZM6.78914 0.719227C6.40598 0.719227 6.0935 1.03904 6.0935 1.43119V34.8439C6.0935 35.236 6.40598 35.5558 6.78914 35.5558H29.2009C29.5841 35.5558 29.8965 35.236 29.8965 34.8439V1.43119C29.8965 1.03904 29.5841 0.719227 29.2009 0.719227H6.78914Z" fill="#E0E0E0"/>
<path d="M62 50.499H0V50.5308H62V50.499Z" fill="#E0E0E0"/>
<path d="M8.39769 52.3086H6.40625V52.3403H8.39769V52.3086Z" fill="#E0E0E0"/>
<path d="M27.7627 51.9648H21.125V51.9966H27.7627V51.9648Z" fill="#E0E0E0"/>
<path d="M13.0184 53.4873H8.52344V53.519H13.0184V53.4873Z" fill="#E0E0E0"/>
<path d="M52.2696 51.9482H46.9141V51.98H52.2696V51.9482Z" fill="#E0E0E0"/>
<path d="M54.1599 51.9482H53.375V51.98H54.1599V51.9482Z" fill="#E0E0E0"/>
<path d="M45.8933 52.7393H39.2109V52.771H45.8933V52.7393Z" fill="#E0E0E0"/>
<path d="M56.7498 24.147H53.1699C53.0769 24.147 53 24.0531 53 23.9363V23.0505C53 22.9338 53.0756 22.8398 53.1699 22.8398H56.7498C56.8428 22.8398 56.9196 22.9338 56.9196 23.0505V23.9363C56.9196 24.0531 56.844 24.147 56.7498 24.147Z" fill="#F0F0F0"/>
<path d="M56.7498 27.3882H53.1699C53.0769 27.3882 53 27.2943 53 27.1776V26.2917C53 26.175 53.0756 26.0811 53.1699 26.0811H56.7498C56.8428 26.0811 56.9196 26.175 56.9196 26.2917V27.1776C56.9196 27.2943 56.844 27.3882 56.7498 27.3882Z" fill="#F0F0F0"/>
<path d="M57.9477 25.7681H54.3679C54.2749 25.7681 54.1992 25.6742 54.1992 25.5574V24.6716C54.1992 24.5548 54.2749 24.4609 54.3679 24.4609H57.9477C58.0407 24.4609 58.1164 24.5548 58.1164 24.6716V25.5574C58.1164 25.6742 58.0407 25.7681 57.9477 25.7681Z" fill="#F0F0F0"/>
<path d="M53.8462 25.7681H50.2663C50.1733 25.7681 50.0977 25.6742 50.0977 25.5574V24.6716C50.0977 24.5548 50.1733 24.4609 50.2663 24.4609H53.8462C53.9392 24.4609 54.0148 24.5548 54.0148 24.6716V25.5574C54.0148 25.6742 53.9392 25.7681 53.8462 25.7681Z" fill="#EBEBEB"/>
<path d="M14.5974 42.5035H11.0175C10.9245 42.5035 10.8477 42.4095 10.8477 42.2928V41.407C10.8477 41.2902 10.9233 41.1963 11.0175 41.1963H14.5974C14.6904 41.1963 14.7673 41.2902 14.7673 41.407V42.2928C14.7673 42.4095 14.6917 42.5035 14.5974 42.5035Z" fill="#F0F0F0"/>
<path d="M14.5974 45.7456H11.0175C10.9245 45.7456 10.8477 45.6517 10.8477 45.535V44.6491C10.8477 44.5324 10.9233 44.4385 11.0175 44.4385H14.5974C14.6904 44.4385 14.7673 44.5324 14.7673 44.6491V45.535C14.7673 45.6517 14.6917 45.7456 14.5974 45.7456Z" fill="#F0F0F0"/>
<path d="M15.7954 44.1255H12.2155C12.1225 44.1255 12.0469 44.0316 12.0469 43.9149V43.029C12.0469 42.9123 12.1225 42.8184 12.2155 42.8184H15.7954C15.8884 42.8184 15.964 42.9123 15.964 43.029V43.9149C15.964 44.0316 15.8884 44.1255 15.7954 44.1255Z" fill="#F0F0F0"/>
<path d="M11.6951 44.1255H8.11519C8.02219 44.1255 7.94531 44.0316 7.94531 43.9149V43.029C7.94531 42.9123 8.02095 42.8184 8.11519 42.8184H11.6951C11.7881 42.8184 11.8637 42.9123 11.8637 43.029V43.9149C11.8637 44.0316 11.7881 44.1255 11.6951 44.1255Z" fill="#EBEBEB"/>
<path d="M55.9334 39.3189H52.3535C52.2605 39.3189 52.1836 39.225 52.1836 39.1082V38.2224C52.1836 38.1056 52.2592 38.0117 52.3535 38.0117H55.9334C56.0264 38.0117 56.1032 38.1056 56.1032 38.2224V39.1082C56.1032 39.225 56.0276 39.3189 55.9334 39.3189Z" fill="#F0F0F0"/>
<path d="M57.1313 40.94H53.5515C53.4585 40.94 53.3828 40.8461 53.3828 40.7293V39.8435C53.3828 39.7267 53.4585 39.6328 53.5515 39.6328H57.1313C57.2243 39.6328 57.3 39.7267 57.3 39.8435V40.7293C57.3 40.8461 57.2243 40.94 57.1313 40.94Z" fill="#F0F0F0"/>
<path d="M53.9183 4.3125H34.5234V20.6445H53.9183V4.3125Z" fill="#E6E6E6"/>
<path d="M53.3824 4.93945H35.1953V19.8792H53.3824V4.93945Z" fill="#FAFAFA"/>
<path d="M50.5706 6.61719H48.5469V9.59194H50.5706V6.61719Z" fill="#F5F5F5"/>
<path d="M52.0649 8.79199H49.1211V13.1183H52.0649V8.79199Z" fill="#E0E0E0"/>
<path d="M38.5081 14.6338H36.4844V17.6085H38.5081V14.6338Z" fill="#F5F5F5"/>
<path d="M38.3088 8.42773H36.2852V10.4989H38.3088V8.42773Z" fill="#F5F5F5"/>
<path d="M45.6643 16.1211H43.6406V18.1923H45.6643V16.1211Z" fill="#E0E0E0"/>
<path d="M51.6208 12.2676H47.0117V18.8961H51.6208V12.2676Z" fill="#F5F5F5"/>
<path d="M50.9553 13.2266H47.6445V13.2989H50.9553V13.2266Z" fill="#E0E0E0"/>
<path d="M49.3324 13.2969H49.2617V18.2057H49.3324V13.2969Z" fill="#E0E0E0"/>
<path d="M50.8519 13.2969H50.7812V18.2057H50.8519V13.2969Z" fill="#E0E0E0"/>
<path d="M47.9808 13.2969H47.9102V18.2057H47.9808V13.2969Z" fill="#E0E0E0"/>
<path d="M47.7465 13.2969H47.6758V18.2057H47.7465V13.2969Z" fill="#E0E0E0"/>
<path d="M50.7849 13.5557H47.7109V13.628H50.7849V13.5557Z" fill="#E0E0E0"/>
<path d="M46.299 7.92676H44.7031V8.6273H46.299V7.92676Z" fill="#F5F5F5"/>
<path d="M46.6076 13.1953H45.0117V13.7398H46.6076V13.1953Z" fill="#F5F5F5"/>
<path d="M45.2718 7.69727H40.0898V15.1506H45.2718V7.69727Z" fill="#F0F0F0"/>
<path d="M46.2482 14.4004H44.6523V14.9448H46.2482V14.4004Z" fill="#F5F5F5"/>
<path d="M46.5178 9.41797H44.9219V9.96241H46.5178V9.41797Z" fill="#F5F5F5"/>
<path d="M46.1662 10.7705H44.5703V11.3149H46.1662V10.7705Z" fill="#F5F5F5"/>
<path d="M44.232 8.61328H40.6992V9.25417H44.232V8.61328Z" fill="#E0E0E0"/>
<path d="M44.2878 11.3531H40.755L40.6992 11.0625H44.232L44.2878 11.3531Z" fill="#E0E0E0"/>
<path d="M41.9529 9.89648H40.6992V10.5374H41.9529V9.89648Z" fill="#E0E0E0"/>
<path d="M26.5962 1.77832H8.64844V29.423H26.5962V1.77832Z" fill="#E0E0E0"/>
<path d="M25.8539 2.74707H9.4375V28.5046H25.8539V2.74707Z" fill="#F5F5F5"/>
<path d="M14.0763 2.74707L9.4375 24.1414V12.5597L11.5604 2.74707H14.0763Z" fill="white"/>
<path d="M16.1515 2.74707L11.2585 28.5046H10.3359L15.229 2.74707H16.1515Z" fill="white"/>
<path d="M25.852 8.90039V20.4847L24.8128 28.5041H22.2969L25.852 8.90039Z" fill="white"/>
<path d="M17.942 1.77832H17.3047V29.423H17.942V1.77832Z" fill="#E0E0E0"/>
<path d="M26.2527 5.90332H8.96094V6.55563H26.2527V5.90332Z" fill="#E0E0E0"/>
<path d="M24.2355 36.8044C24.2876 36.7207 24.9659 36.5392 25.5499 37.3705L25.4879 38.0139L25.7806 37.6255C25.7806 37.6255 25.9405 37.7524 25.8711 38.0685C25.8017 38.3845 25.7558 38.67 25.7558 38.67C25.7558 38.67 26.0137 37.9098 26.0906 37.9695C26.1662 38.0291 26.9487 39.1408 27.0913 39.401C27.2339 39.6612 27.5538 41.0089 27.3169 41.193C27.0813 41.3782 26.5543 41.5255 25.9678 41.3097C25.3813 41.094 24.8146 40.0051 24.8146 40.0051L25.5388 39.4391L24.6274 39.7843C24.6274 39.7843 23.5325 37.9314 24.2355 36.8044Z" fill="#E6E6E6"/>
<path d="M24.8986 37.9318C24.9172 38.0181 25.0288 38.1183 25.0796 38.1843C25.2247 38.3721 25.3723 38.5574 25.5198 38.7427C25.815 39.1133 26.1113 39.4839 26.4089 39.8519C27.3811 41.0563 27.8262 42.5322 28.0556 44.0564C28.2144 45.1136 28.2863 46.1821 28.3793 47.2469C28.3842 47.3078 28.4772 47.3078 28.4723 47.2469C28.3148 45.4423 28.2404 43.5716 27.6278 41.8533C27.3749 41.1438 27.024 40.4712 26.5565 39.8849C26.306 39.5702 26.0518 39.2592 25.8013 38.9445C25.6203 38.7173 25.4392 38.4902 25.2594 38.2617C25.195 38.1792 25.1292 38.0955 25.066 38.0117C25.0462 37.9863 24.9904 37.9102 24.9891 37.9051C24.9767 37.8455 24.8862 37.8708 24.8998 37.9305L24.8986 37.9318Z" fill="#E0E0E0"/>
<path d="M33.5067 41.598C33.4856 41.5168 32.9821 41.1945 32.3051 41.7148L32.196 42.2504L32.0559 41.8607C32.0559 41.8607 31.8947 41.9217 31.8723 42.1945C31.85 42.4686 31.8165 42.711 31.8165 42.711C31.8165 42.711 31.7967 42.0295 31.7198 42.0587C31.6442 42.0879 30.7365 42.7821 30.5567 42.956C30.3769 43.1298 29.6627 43.9459 29.9305 44.3456C30.0731 44.5576 30.4637 44.8114 30.9907 44.7898C31.5177 44.7682 32.2456 44.0347 32.2456 44.0347L31.8004 43.3887L32.4514 43.904C32.4514 43.904 33.7943 42.692 33.5054 41.5993L33.5067 41.598Z" fill="#E6E6E6"/>
<path d="M33.4936 39.3137C33.4936 39.3137 33.6151 38.4698 32.1593 38.7921V39.7351L31.8196 38.8911C31.8196 38.8911 30.9702 38.9165 30.7036 39.2262V40.2059L30.1939 39.4622C30.1939 39.4622 29.1994 40.362 29.2478 41.1323C29.2962 41.9014 29.6892 42.4789 29.6892 42.4789C29.5913 41.9725 32.7062 39.0637 33.4923 39.3125L33.4936 39.3137Z" fill="#E6E6E6"/>
<path d="M23.1509 42.0022C23.1509 42.0022 23.0294 41.1583 24.4852 41.4806V42.4236L24.8249 41.5796C24.8249 41.5796 25.6743 41.605 25.9409 41.9146V42.8944L26.4506 42.1507C26.4506 42.1507 27.445 43.0505 27.3967 43.8208C27.3483 44.5899 26.9552 45.1673 26.9552 45.1673C25.9508 43.3589 24.4132 42.2624 23.1522 42.0009L23.1509 42.0022Z" fill="#F0F0F0"/>
<path d="M30.5316 32.8097C30.6544 32.7983 31.3562 33.3555 30.9929 34.5966L30.3134 35.0294H30.9197C30.9197 35.0294 30.9197 35.2921 30.5564 35.466C30.1931 35.6398 29.8769 35.8137 29.8769 35.8137C29.8769 35.8137 30.823 35.4913 30.823 35.6157C30.823 35.7401 30.3382 37.4026 30.1919 37.7503C30.0468 38.0981 28.9729 39.4674 28.6084 39.3684C28.2451 39.2694 27.6933 38.843 27.4502 38.0727C27.2072 37.3036 27.8383 35.8797 27.8383 35.8797L28.9543 36.1868L27.9115 35.5167C27.9115 35.5167 28.8812 32.9595 30.5304 32.811L30.5316 32.8097Z" fill="#F0F0F0"/>
<path d="M27.8547 47.3153C27.8609 43.8671 28.3086 40.4241 29.1852 37.0953C29.4308 36.165 29.7098 35.2449 30.0198 34.3363C30.0396 34.2779 29.9503 34.2538 29.9305 34.3109C28.8232 37.5547 28.1288 40.9432 27.8733 44.3684C27.8002 45.3482 27.763 46.3317 27.7617 47.3153C27.7617 47.3762 27.8547 47.3762 27.8547 47.3153Z" fill="#E0E0E0"/>
<path d="M33.4919 39.2656C33.0691 39.272 32.65 39.522 32.3015 39.7441C31.7832 40.0753 31.3058 40.4776 30.8668 40.9104C30.4316 41.3406 30.0199 41.814 29.7012 42.3419C29.3057 42.9968 29.0391 43.7646 28.8444 44.5032C28.5976 45.441 28.5034 46.4182 28.62 47.3853C28.6274 47.4449 28.7204 47.4462 28.713 47.3853C28.6113 46.5426 28.6696 45.6911 28.8531 44.8636C29.0267 44.0793 29.2958 43.2849 29.674 42.5792C29.9517 42.0602 30.3324 41.6008 30.7342 41.1794C31.1595 40.734 31.6245 40.3241 32.1267 39.9738C32.5136 39.7035 33.0034 39.3672 33.4907 39.3608C33.5502 39.3608 33.5502 39.2644 33.4907 39.2656H33.4919Z" fill="#E0E0E0"/>
<path d="M27.4985 48.1695C27.3993 47.0591 27.346 45.8357 26.7818 44.8521C26.5251 44.4054 26.1928 44.0056 25.8469 43.6287C25.5034 43.2556 25.1252 42.913 24.7085 42.6274C24.2398 42.3063 23.7203 42.0627 23.1635 41.9561C23.1052 41.9446 23.0804 42.036 23.1387 42.0474C24.1121 42.234 24.9528 42.8368 25.6398 43.5462C25.9882 43.9067 26.3205 44.295 26.5921 44.7201C26.8798 45.1719 27.0472 45.6517 27.1538 46.1771C27.2865 46.8332 27.346 47.502 27.4055 48.1683C27.4105 48.2292 27.5035 48.2292 27.4985 48.1683V48.1695Z" fill="#E0E0E0"/>
<path d="M32.6192 42.2912C32.5907 42.3394 32.4221 42.4321 32.3576 42.4752C32.179 42.5983 31.9992 42.7202 31.8182 42.842C31.5082 43.0514 31.1957 43.2583 30.8845 43.4664C29.7896 44.2012 29.0642 45.3332 28.5037 46.5211C28.1317 47.3092 27.8192 48.1252 27.4918 48.9336C27.4695 48.9908 27.5588 49.0149 27.5811 48.959C28.1528 47.5491 28.6736 46.063 29.5912 44.8396C29.9669 44.3395 30.4133 43.8953 30.9304 43.5489C31.228 43.3496 31.5268 43.1504 31.8244 42.9499C32.0265 42.8128 32.2299 42.677 32.4308 42.5374C32.5064 42.4854 32.6478 42.4219 32.6974 42.3382C32.7284 42.2861 32.6478 42.2379 32.6168 42.2899L32.6192 42.2912Z" fill="#E0E0E0"/>
<path d="M26.1173 47.3457L27.9959 47.4104L29.8745 47.3457C29.8745 47.3457 30.5515 50.4791 30.1671 51.2862C29.8472 51.9589 28.88 52.087 28.1843 52.1111V52.1162C28.1261 52.1162 28.0628 52.1162 27.9959 52.1162C27.9289 52.1162 27.8657 52.1162 27.8074 52.1162V52.1111C27.1117 52.087 26.1433 51.9589 25.8246 51.2862C25.4415 50.4778 26.1173 47.3457 26.1173 47.3457Z" fill="#EBEBEB"/>
<path d="M28.0272 47.4661C29.0627 47.4661 29.9021 47.3985 29.9021 47.3151C29.9021 47.2317 29.0627 47.1641 28.0272 47.1641C26.9918 47.1641 26.1523 47.2317 26.1523 47.3151C26.1523 47.3985 26.9918 47.4661 28.0272 47.4661Z" fill="#E0E0E0"/>
<path opacity="0.3" d="M29.7657 47.6846C29.7657 47.6846 30.1253 50.0781 29.974 50.757C29.7558 51.7406 28.0954 51.8992 28.0247 51.7761C27.9541 51.653 28.6261 50.9728 28.615 50.2481C28.6038 49.5222 28.4253 47.7937 28.4253 47.7937L29.7645 47.6858L29.7657 47.6846Z" fill="white"/>
<path d="M42.324 1.30717H38.7441C38.6511 1.30717 38.5742 1.21325 38.5742 1.0965V0.210669C38.5742 0.0939129 38.6499 0 38.7441 0H42.324C42.417 0 42.4939 0.0939129 42.4939 0.210669V1.0965C42.4939 1.21325 42.4182 1.30717 42.324 1.30717Z" fill="#F0F0F0"/>
<path d="M43.522 2.92826H39.9421C39.8491 2.92826 39.7734 2.83435 39.7734 2.71759V1.83176C39.7734 1.71501 39.8491 1.62109 39.9421 1.62109H43.522C43.615 1.62109 43.6906 1.71501 43.6906 1.83176V2.71759C43.6906 2.83435 43.615 2.92826 43.522 2.92826Z" fill="#F0F0F0"/>
<path d="M39.4204 2.92826H35.8405C35.7475 2.92826 35.6719 2.83435 35.6719 2.71759V1.83176C35.6719 1.71501 35.7475 1.62109 35.8405 1.62109H39.4204C39.5134 1.62109 39.589 1.71501 39.589 1.83176V2.71759C39.589 2.83435 39.5134 2.92826 39.4204 2.92826Z" fill="#EBEBEB"/>
<path d="M58.2978 54.4128C58.2978 55.2898 46.0764 56.0005 31.0005 56.0005C15.9246 56.0005 3.70312 55.2898 3.70312 54.4128C3.70312 53.5359 15.9246 52.8252 31.0005 52.8252C46.0764 52.8252 58.2978 53.5359 58.2978 54.4128Z" fill="#F5F5F5"/>
<path d="M51.1523 5.77592V7.32548C51.1523 7.44859 51.3383 7.44859 51.3383 7.32548V5.77592C51.3383 5.65282 51.1523 5.65282 51.1523 5.77592Z" fill="#407BFF"/>
<path d="M52.5029 7.80726C52.9815 7.35039 53.4602 6.89351 53.9252 6.42141C54.0144 6.33131 54.1112 6.24247 54.1843 6.1384C54.255 6.03941 54.0938 5.94423 54.0231 6.04195C54.0405 6.01784 54.0182 6.0483 54.007 6.05972C53.9909 6.07876 53.9735 6.09779 53.9562 6.11556C53.9115 6.16378 53.8656 6.21074 53.8198 6.2577C53.6871 6.39349 53.5519 6.52675 53.4155 6.66C53.1328 6.93793 52.8476 7.21206 52.5624 7.48745C52.4979 7.54963 52.4334 7.61055 52.369 7.67274C52.2809 7.7565 52.4124 7.89102 52.5004 7.80726H52.5029Z" fill="#407BFF"/>
<path d="M53.0801 8.74169L52.9647 8.75819C52.8618 8.77342 52.8854 8.95743 52.9895 8.94474C53.5178 8.88256 54.0473 8.82164 54.5755 8.75945C54.6933 8.74549 54.6945 8.55513 54.5755 8.56909C54.0473 8.63128 53.5178 8.69219 52.9895 8.75438C52.9982 8.81656 53.0057 8.87875 53.0143 8.94093C53.0528 8.93586 53.0912 8.92951 53.1297 8.92444C53.2475 8.90794 53.1979 8.72392 53.0801 8.74042V8.74169Z" fill="#407BFF"/>
<path d="M41.3581 27.3223C41.3581 27.3223 40.8844 37.0537 38.8359 38.7301H41.0258C41.0258 38.7301 42.9788 35.4153 43.1251 27.3223H41.3581Z" fill="#263238"/>
<path opacity="0.6" d="M41.3581 27.3223C41.3581 27.3223 40.8844 37.0537 38.8359 38.7301H41.0258C41.0258 38.7301 42.9788 35.4153 43.1251 27.3223H41.3581Z" fill="white"/>
<path d="M42.9961 39.5361H31.6377V38.4929C31.6377 38.1782 31.8869 37.9231 32.1945 37.9231H42.4393C42.7469 37.9231 42.9961 38.1782 42.9961 38.4929V39.5361Z" fill="#407BFF"/>
<path opacity="0.3" d="M42.9961 39.5361H31.6377V38.4929C31.6377 38.1782 31.8869 37.9231 32.1945 37.9231H42.4393C42.7469 37.9231 42.9961 38.1782 42.9961 38.4929V39.5361Z" fill="black"/>
<path d="M42.5681 50.7026L38.1896 50.3117V43.2568H36.6508V50.3092L32.2562 50.7013C31.8693 50.7407 31.5742 51.0732 31.5742 51.4717V52.0681H43.2513V51.4717C43.2513 51.0732 42.9562 50.7407 42.5693 50.7013L42.5681 50.7026Z" fill="#263238"/>
<path opacity="0.5" d="M42.5681 50.7026L38.1896 50.3117V43.2568H36.6508V50.3092L32.2562 50.7013C31.8693 50.7407 31.5742 51.0732 31.5742 51.4717V52.0681H43.2513V51.4717C43.2513 51.0732 42.9562 50.7407 42.5693 50.7013L42.5681 50.7026Z" fill="white"/>
<path d="M32.9903 52.8108C32.9903 53.3793 32.5402 53.8413 31.9834 53.8413C31.4267 53.8413 30.9766 53.3806 30.9766 52.8108C30.9766 52.241 31.4267 51.7803 31.9834 51.7803C32.5402 51.7803 32.9903 52.241 32.9903 52.8108Z" fill="#263238"/>
<path d="M41.832 52.8108C41.832 53.3793 42.2822 53.8413 42.8389 53.8413C43.3957 53.8413 43.8458 53.3806 43.8458 52.8108C43.8458 52.241 43.3957 51.7803 42.8389 51.7803C42.2822 51.7803 41.832 52.241 41.832 52.8108Z" fill="#263238"/>
<path d="M36.3867 52.8108C36.3867 53.3793 36.8368 53.8413 37.3936 53.8413C37.9504 53.8413 38.4005 53.3806 38.4005 52.8108C38.4005 52.241 37.9504 51.7803 37.3936 51.7803C36.8368 51.7803 36.3867 52.241 36.3867 52.8108Z" fill="#263238"/>
<path d="M36.418 38.9648H38.4875V43.5031C38.4875 43.7633 38.2817 43.974 38.0275 43.974H36.8792C36.625 43.974 36.4192 43.7633 36.4192 43.5031V38.9648H36.418Z" fill="#263238"/>
<path opacity="0.6" d="M36.418 38.9648H38.4875V43.5031C38.4875 43.7633 38.2817 43.974 38.0275 43.974H36.8792C36.625 43.974 36.4192 43.7633 36.4192 43.5031V38.9648H36.418Z" fill="white"/>
<path d="M31.4314 39.5361H43.2052C43.3292 39.5361 43.4297 39.4333 43.4297 39.3064V38.96C43.4297 38.8331 43.3292 38.7303 43.2052 38.7303H31.4314C31.3075 38.7303 31.207 38.8331 31.207 38.96V39.3064C31.207 39.4333 31.3075 39.5361 31.4314 39.5361Z" fill="#263238"/>
<path opacity="0.6" d="M31.4314 39.5361H43.2052C43.3292 39.5361 43.4297 39.4333 43.4297 39.3064V38.96C43.4297 38.8331 43.3292 38.7303 43.2052 38.7303H31.4314C31.3075 38.7303 31.207 38.8331 31.207 38.96V39.3064C31.207 39.4333 31.3075 39.5361 31.4314 39.5361Z" fill="white"/>
<path d="M42.7221 37.0203H39.115C38.0585 37.0203 37.2946 36.0481 37.41 34.8501L39.0505 25.469C39.1658 24.2697 40.1156 23.2988 41.1721 23.2988H44.7793C45.8358 23.2988 46.5996 24.271 46.4843 25.469L44.8438 34.8501C44.7284 36.0494 43.7786 37.0203 42.7209 37.0203H42.7221Z" fill="#407BFF"/>
<path opacity="0.3" d="M42.7221 37.0203H39.115C38.0585 37.0203 37.2946 36.0481 37.41 34.8501L39.0505 25.469C39.1658 24.2697 40.1156 23.2988 41.1721 23.2988H44.7793C45.8358 23.2988 46.5996 24.271 46.4843 25.469L44.8438 34.8501C44.7284 36.0494 43.7786 37.0203 42.7209 37.0203H42.7221Z" fill="black"/>
<path opacity="0.3" d="M44.7778 23.2979H44.0884C45.1449 23.2979 45.9087 24.27 45.7934 25.468L44.1529 34.8491C44.0376 36.0484 43.0877 37.0193 42.0312 37.0193H42.7207C43.7772 37.0193 44.7282 36.0472 44.8436 34.8491L46.4841 25.468C46.5994 24.2687 45.8368 23.2979 44.7791 23.2979H44.7778Z" fill="black"/>
<path d="M25.2236 31.2354H24.4102V54.1971H25.2236V31.2354Z" fill="#263238"/>
<path opacity="0.3" d="M25.2236 31.2354H24.4102V54.1971H25.2236V31.2354Z" fill="white"/>
<path opacity="0.2" d="M24.4102 31.5387V33.0159L25.2236 32.6441V31.4131L24.4102 31.5387Z" fill="black"/>
<path d="M19.9931 31.2354H19.1797V54.1971H19.9931V31.2354Z" fill="#263238"/>
<path opacity="0.3" d="M19.9931 31.2354H19.1797V54.1971H19.9931V31.2354Z" fill="white"/>
<path opacity="0.2" d="M19.1797 31.6374V33.1146L19.9931 32.7427V31.5117L19.1797 31.6374Z" fill="black"/>
<path d="M47.4502 31.2354H46.6367V54.5867H47.4502V31.2354Z" fill="#263238"/>
<path opacity="0.3" d="M47.4502 31.2354H46.6367V54.5867H47.4502V31.2354Z" fill="white"/>
<path opacity="0.2" d="M46.6367 31.8659V33.3431L47.4502 32.9725V31.7402L46.6367 31.8659Z" fill="black"/>
<path d="M52.1298 31.2354H51.3164V54.5867H52.1298V31.2354Z" fill="#263238"/>
<path opacity="0.3" d="M52.1298 31.2354H51.3164V54.5867H52.1298V31.2354Z" fill="white"/>
<path opacity="0.2" d="M51.3164 31.8659V33.3431L52.1298 32.9725V31.7402L51.3164 31.8659Z" fill="black"/>
<path d="M53.8815 31.0869H17.2891V31.8141H53.8815V31.0869Z" fill="#B97964"/>
<path opacity="0.3" d="M53.8791 31.0869H44.4688V31.8141H53.8791V31.0869Z" fill="black"/>
<path d="M36.0905 27.9306C36.1228 28.3482 35.8636 28.687 35.5102 28.687H24.3254C23.9708 28.687 23.657 28.3482 23.6248 27.9306L22.9602 19.5064C22.9527 19.4201 22.9589 19.3363 22.975 19.2602C23.0383 18.9632 23.259 18.75 23.5405 18.75H34.7253C35.0799 18.75 35.3936 19.0888 35.4259 19.5064L36.0905 27.9306Z" fill="#263238"/>
<path opacity="0.7" d="M36.0905 27.9306C36.1228 28.3482 35.8636 28.687 35.5102 28.687H24.3254C23.9708 28.687 23.657 28.3482 23.6248 27.9306L22.9602 19.5064C22.9527 19.4201 22.9589 19.3363 22.975 19.2602C23.0383 18.9632 23.259 18.75 23.5405 18.75H34.7253C35.0799 18.75 35.3936 19.0888 35.4259 19.5064L36.0905 27.9306Z" fill="white"/>
<path d="M35.4705 28.6866H24.3254C23.9708 28.6866 23.657 28.3477 23.6248 27.9302L22.9602 19.506C22.9527 19.4197 22.9589 19.3359 22.975 19.2598H34.1202C34.4736 19.2598 34.786 19.5986 34.8208 20.0161L35.4854 28.4404C35.4928 28.5267 35.4866 28.6104 35.4705 28.6866Z" fill="#263238"/>
<path opacity="0.5" d="M35.4705 28.6866H24.3254C23.9708 28.6866 23.657 28.3477 23.6248 27.9302L22.9602 19.506C22.9527 19.4197 22.9589 19.3359 22.975 19.2598H34.1202C34.4736 19.2598 34.786 19.5986 34.8208 20.0161L35.4854 28.4404C35.4928 28.5267 35.4866 28.6104 35.4705 28.6866Z" fill="white"/>
<path d="M28.604 26.958L30.5818 26.9669L30.1999 30.6143L32.1417 30.6447V31.0737L26.9102 31.0864V30.6638L28.1712 30.6384L28.604 26.958Z" fill="#263238"/>
<path opacity="0.3" d="M30.5795 26.9678C30.5733 27.0223 31.0172 28.6874 31.0172 28.6874H30.3984L30.5795 26.9678Z" fill="black"/>
<path opacity="0.3" d="M28.4013 28.6865L28.6046 26.958L28.0938 28.6865H28.4013Z" fill="black"/>
<path opacity="0.6" d="M28.604 26.958L30.5818 26.9669L30.1999 30.6143L32.1417 30.6447V31.0737L26.9102 31.0864V30.6638L28.1712 30.6384L28.604 26.958Z" fill="white"/>
<path d="M30.2918 8.16113H51.1201C51.5206 8.16113 51.8455 8.49364 51.8455 8.90355V13.6969C51.8455 14.1068 51.5206 14.4393 51.1201 14.4393H30.2918C29.8913 14.4393 29.5664 14.1068 29.5664 13.6969V8.90355C29.5664 8.49364 29.8913 8.16113 30.2918 8.16113Z" fill="#407BFF"/>
<path opacity="0.2" d="M30.2918 8.16113H51.1201C51.5206 8.16113 51.8455 8.49364 51.8455 8.90355V13.6969C51.8455 14.1068 51.5206 14.4393 51.1201 14.4393H30.2918C29.8913 14.4393 29.5664 14.1068 29.5664 13.6969V8.90355C29.5664 8.49364 29.8913 8.16113 30.2918 8.16113Z" fill="white"/>
<path d="M34.8373 10.3359V12.5759H34.2309L33.3989 11.5581V12.5759H32.6797V10.3359H33.286L34.1181 11.3538V10.3359H34.8373Z" fill="white"/>
<path d="M37.0105 12.0061V12.5759H35.1914V10.3359H36.9696V10.9058H35.9156V11.1685H36.8406V11.7129H35.9156V12.0073H37.0092L37.0105 12.0061Z" fill="white"/>
<path d="M40.826 10.3359L40.1254 12.5759H39.3343L38.9809 11.3791L38.6089 12.5759H37.8178L37.1172 10.3359H37.8773L38.258 11.6088L38.661 10.3359H39.3393L39.7199 11.6253L40.1229 10.3359H40.8235H40.826Z" fill="white"/>
<path d="M41.7188 12.2932L42.1155 11.8135C42.2309 11.9607 42.34 12.0343 42.4627 12.0343C42.6165 12.0343 42.7008 11.9378 42.7008 11.7563V10.9048H41.9568V10.335H43.4287V11.7107C43.4287 12.3249 43.1137 12.6257 42.5247 12.6257C42.1838 12.6257 41.8998 12.5102 41.7188 12.2932Z" fill="white"/>
<path d="M43.6797 11.4556C43.6797 10.7779 44.2017 10.2842 44.9147 10.2842C45.6277 10.2842 46.1498 10.7766 46.1498 11.4556C46.1498 12.1345 45.6277 12.6269 44.9147 12.6269C44.2017 12.6269 43.6797 12.1345 43.6797 11.4556ZM45.4045 11.4556C45.4045 11.1066 45.185 10.8959 44.9135 10.8959C44.6419 10.8959 44.4224 11.1066 44.4224 11.4556C44.4224 11.8046 44.6419 12.0152 44.9135 12.0152C45.185 12.0152 45.4045 11.8046 45.4045 11.4556Z" fill="white"/>
<path d="M48.5743 11.9578C48.5743 12.3487 48.2519 12.5759 47.6493 12.5759H46.418V10.3359H47.5873C48.1912 10.3359 48.4714 10.5821 48.4714 10.921C48.4714 11.1291 48.3685 11.3017 48.1676 11.4045C48.4243 11.501 48.5743 11.6926 48.5743 11.9578ZM47.1434 10.8639V11.1964H47.4868C47.653 11.1964 47.7274 11.1393 47.7274 11.0301C47.7274 10.921 47.6518 10.8639 47.4868 10.8639H47.1434ZM47.8303 11.8715C47.8303 11.7561 47.7485 11.6951 47.5861 11.6951H47.1421V12.0467H47.5861C47.7485 12.0467 47.8303 11.9858 47.8303 11.8703V11.8715Z" fill="white"/>
<path d="M41.3613 14.4404H39.6836V17.8314H41.3613V14.4404Z" fill="#407BFF"/>
<path d="M38.7383 17.3291L40.5202 18.852L42.302 17.3672C42.302 17.3672 38.9429 17.3291 38.7383 17.3291Z" fill="#407BFF"/>
<g opacity="0.2">
<path d="M41.3613 14.4404H39.6836V17.8314H41.3613V14.4404Z" fill="white"/>
<path d="M38.7383 17.3291L40.5202 18.852L42.302 17.3672C42.302 17.3672 38.9429 17.3291 38.7383 17.3291Z" fill="white"/>
</g>
<path d="M28.946 10.7852C28.9125 11.6418 28.9088 12.4998 28.9361 13.3577C28.9398 13.4795 29.1258 13.4808 29.1221 13.3577C29.096 12.501 29.0985 11.6431 29.132 10.7852C29.137 10.6621 28.951 10.6634 28.946 10.7852Z" fill="#407BFF"/>
<path d="M29.143 10.34V10.0113C29.143 9.9618 29.1009 9.91357 29.05 9.91611C28.9992 9.91865 28.957 9.95799 28.957 10.0113V10.34C28.957 10.3895 28.9992 10.4377 29.05 10.4352C29.1009 10.4326 29.143 10.3933 29.143 10.34Z" fill="#407BFF"/>
<path d="M17.0234 3.89877C18.3217 3.09797 20.0205 3.56881 20.7409 4.95973C21.3758 6.18568 20.9864 7.74031 19.8556 8.50177C18.871 9.16551 17.6298 9.06652 16.7605 8.37105L16.1095 8.49162C16.045 8.50304 15.9905 8.44466 16.0029 8.37994L16.1442 7.67052C16.1368 7.65782 16.1269 7.6464 16.1194 7.63244C15.363 6.34558 15.7673 4.67292 17.0234 3.89877Z" fill="#407BFF"/>
<path d="M21.2603 7.23302C21.6075 6.39542 21.5232 5.41188 21.0334 4.65169C21.0011 4.60093 20.9205 4.64788 20.9528 4.69991C21.424 5.42837 21.5145 6.37892 21.1797 7.1848C21.1561 7.24064 21.2367 7.28886 21.2603 7.23302Z" fill="#407BFF"/>
<path d="M20.8025 4.32263C20.7331 4.19826 20.6376 4.09038 20.526 4.00409C20.5062 3.98886 20.4727 4.00028 20.4628 4.02058C20.4504 4.04597 20.4591 4.07008 20.4789 4.08531C20.4789 4.08531 20.4876 4.09292 20.4863 4.09038C20.4839 4.08785 20.4925 4.09546 20.4938 4.09546C20.5 4.10054 20.5062 4.10561 20.5124 4.11196C20.5248 4.12211 20.5359 4.13226 20.5471 4.14369C20.5707 4.16653 20.593 4.18937 20.6141 4.21475C20.655 4.26298 20.6885 4.31121 20.7219 4.36958C20.7343 4.39116 20.7641 4.40004 20.7852 4.38608C20.8063 4.37212 20.8149 4.3442 20.8013 4.32136L20.8025 4.32263Z" fill="#407BFF"/>
<path d="M18.3269 7.40036L16.9766 6.36986L17.3275 5.8876L18.2327 6.57799L19.4764 5.05762L19.9253 5.44469L18.3269 7.40036Z" fill="white"/>
<path d="M53.4664 49.1844C54.0764 48.923 54.6605 48.588 55.1714 48.1565C55.9947 47.4597 56.5974 46.5358 57.1888 45.6259C57.665 44.8924 58.1486 44.1461 58.4003 43.3035C58.5516 42.7996 58.5801 42.1663 58.1821 41.8326C57.8026 41.514 57.2322 41.6346 56.7933 41.8605C55.562 42.4925 54.7646 43.7476 54.1198 44.9926C53.785 45.6399 53.4738 46.3061 53.3126 47.0194C53.1514 47.7326 53.1514 48.5004 53.4267 49.1755" fill="#407BFF"/>
<path d="M52.4538 51.009C53.7893 48.5165 55.2475 46.0887 56.8484 43.765C57.2923 43.1203 57.7498 42.4832 58.2186 41.8563C58.2545 41.8081 58.1739 41.7598 58.138 41.8081C56.4466 44.0632 54.9214 46.4491 53.5152 48.8998C53.1246 49.5813 52.744 50.2678 52.3732 50.9608C52.3447 51.0141 52.4253 51.0623 52.4538 51.009Z" fill="#263238"/>
<path d="M52.2609 45.7042C52.6627 45.1661 53.1649 44.5253 53.3968 43.8907C53.7712 42.8678 53.8456 41.7586 53.9163 40.6685C53.9734 39.7903 54.0292 38.8956 53.8382 38.0376C53.7241 37.5237 53.4414 36.9602 52.9342 36.8726C52.4506 36.7889 52.0141 37.1848 51.7438 37.6036C50.9837 38.7788 50.9019 40.2738 50.9478 41.6825C50.9726 42.4135 51.0259 43.1508 51.2329 43.8514C51.44 44.5519 51.6942 45.2588 52.2622 45.7042" fill="#407BFF"/>
<path d="M52.3871 51.472C52.3524 49.6724 52.3276 47.8716 52.3251 46.0707C52.3226 44.0173 52.34 41.9614 52.4417 39.9106C52.4875 38.979 52.5483 38.0463 52.6698 37.1224C52.6773 37.0614 52.5843 37.0627 52.5768 37.1224C52.3437 38.9016 52.2991 40.7088 52.2619 42.5008C52.2197 44.5554 52.2247 46.6126 52.2495 48.6673C52.2606 49.6026 52.2755 50.5367 52.2941 51.472C52.2941 51.5329 52.3883 51.5329 52.3871 51.472Z" fill="#263238"/>
<path d="M51.3703 47.8211C51.4162 47.2082 51.4869 46.4657 51.3765 45.887C51.1992 44.953 50.7813 44.1382 50.3696 43.3387C50.0373 42.694 49.6975 42.0404 49.2053 41.5556C48.9114 41.2663 48.4811 41.0416 48.0992 41.2828C47.7359 41.5112 47.6057 42.0455 47.5982 42.4973C47.5771 43.7651 48.1525 44.8527 48.7787 45.8045C49.1036 46.2982 49.452 46.7792 49.8885 47.1434C50.325 47.5077 50.7962 47.849 51.3703 47.8211Z" fill="#407BFF"/>
<path d="M52.317 49.102C51.1192 47.2199 49.8879 45.3531 48.8624 43.3644C48.5673 42.7908 48.2895 42.2083 48.0341 41.6156C48.0105 41.5598 47.9299 41.608 47.9535 41.6639C48.8463 43.7337 50.0119 45.6602 51.2147 47.5524C51.5544 48.0855 51.8954 48.6172 52.2352 49.1502C52.2674 49.201 52.348 49.154 52.3158 49.102H52.317Z" fill="#263238"/>
<path d="M55.2476 49.7806H49.6453C49.6453 49.7806 49.2361 50.8263 50.0545 51.1195L50.5653 54.5511H54.4292L54.8582 51.1816C54.8582 51.1816 55.4919 50.9101 55.2463 49.7793L55.2476 49.7806Z" fill="#263238"/>
<g opacity="0.3">
<path d="M54.8597 51.1813C53.2849 51.1813 51.6307 51.1191 50.0547 51.1191L50.1068 51.4719H54.8225L54.8597 51.1813Z" fill="black"/>
</g>
<path d="M8.62153 14.0821C8.60913 14.0542 8.32517 12.9057 8.39337 10.9449C8.43801 9.65681 8.64509 8.03618 9.31469 7.48793C11.5355 5.66932 12.8301 6.74678 13.1711 7.14273C13.4129 7.4232 13.8692 8.13643 13.9883 8.73671C14.5773 11.714 15.1266 12.9564 14.8476 13.4603C14.5698 13.9641 8.62153 14.0821 8.62153 14.0821Z" fill="#263238"/>
<path d="M12.622 11.1455C12.4409 11.8295 12.1929 13.0682 12.3889 13.9527C12.3889 13.9527 12.9072 14.482 13.1279 14.6431C13.1279 14.6431 12.0417 14.9376 10.4086 15.5467C9.92249 15.4185 9.88281 14.3601 9.88281 14.3601C10.9033 14.1165 10.8141 12.7611 10.6901 12.0478L12.622 11.1455Z" fill="#FFBCB4"/>
<path opacity="0.2" d="M11.169 12.0068L12.3383 12.7823C12.3247 12.9523 12.3173 13.116 12.3321 13.2861C11.9502 13.2696 11.3426 12.9003 11.2335 12.4992C11.1839 12.3406 11.1628 12.1744 11.169 12.0068Z" fill="black"/>
<path d="M9.60755 9.48958C9.88035 10.9719 9.96591 11.6052 10.7967 12.3171C12.0429 13.3806 13.7516 12.8209 13.919 11.3095C14.0691 9.9528 13.5966 7.74965 12.1037 7.25978C11.1203 6.89555 10.0353 7.41588 9.67947 8.42227C9.55795 8.76493 9.53439 9.13423 9.60879 9.49085L9.60755 9.48958Z" fill="#FFBCB4"/>
<path d="M9.57247 11.0644C9.79691 11.336 10.1069 11.4781 10.3723 11.4984C10.7691 11.5301 10.8497 10.8702 10.6475 10.5035C10.4665 10.1735 10.0499 10.006 9.69523 10.1468C9.34555 10.2852 9.31455 10.7535 9.57247 11.0644Z" fill="#FFBCB4"/>
<path opacity="0.2" d="M10.3987 10.8371C10.364 10.7001 10.2747 10.577 10.1544 10.5021C10.0354 10.4285 9.88783 10.4031 9.75391 10.4361" stroke="black" stroke-width="0.5" stroke-linecap="round" stroke-linejoin="round"/>
<path d="M11.7392 9.17541C11.7578 9.17922 11.7764 9.17541 11.7925 9.16399C12.0343 8.97743 12.2786 9.0815 12.2811 9.08277C12.317 9.09799 12.3567 9.0815 12.3691 9.04342C12.3815 9.00535 12.3617 8.9622 12.3245 8.9457C12.3121 8.94063 12.0058 8.80991 11.7057 9.04089C11.676 9.06373 11.671 9.11069 11.6946 9.14495C11.7057 9.16145 11.7218 9.1716 11.7392 9.17541Z" fill="#263238"/>
<path d="M13.5944 8.68995C13.6055 8.67852 13.6117 8.66329 13.6105 8.6468C13.608 8.61126 13.5745 8.57953 13.5361 8.57573C13.1529 8.54654 12.9917 8.78386 12.9855 8.79528C12.9669 8.82447 12.9781 8.86508 13.0116 8.88665C13.045 8.90823 13.0872 8.90315 13.1058 8.87523C13.112 8.86635 13.2397 8.6836 13.5448 8.70644C13.5646 8.70771 13.582 8.70137 13.5931 8.68995H13.5944Z" fill="#263238"/>
<path d="M12.8203 9.73047C12.8203 9.73047 13.1464 10.2419 13.4626 10.5402C13.5184 10.5922 13.5073 10.6848 13.4428 10.7229C13.2779 10.8206 13.0596 10.7965 13.0596 10.7965L12.8203 9.73174V9.73047Z" fill="#FF7168"/>
<path d="M11.8831 8.19473C11.2718 12.5566 10.7287 11.0426 10.7299 13.2863C10.1074 12.318 9.66105 10.9525 9.48993 9.78998C9.38081 9.21127 9.46885 8.72394 9.62385 8.15666C9.81357 7.59826 10.3914 7.07031 10.9407 7.02209C11.1391 6.99671 12.1001 7.1655 12.2564 7.29368C12.4151 7.41805 11.9798 8.01198 11.8819 8.19473H11.8831Z" fill="#263238"/>
<path d="M12.9779 11.1454C12.7919 11.1251 12.6307 11.0349 12.436 10.9537C12.3592 10.922 12.2724 10.974 12.2624 11.0591C12.2451 11.2202 12.2662 11.4538 12.5117 11.521C12.9085 11.6302 12.9779 11.1454 12.9779 11.1454Z" fill="white"/>
<path d="M11.8534 10.0305C11.8857 10.1828 11.9874 10.2944 12.0816 10.2805C12.1758 10.2665 12.2267 10.132 12.1944 9.9797C12.1622 9.82741 12.0605 9.71573 11.9663 9.72969C11.872 9.74365 11.8212 9.87818 11.8534 10.0305Z" fill="#263238"/>
<path d="M13.1497 9.72768C13.1807 9.87489 13.2824 9.98277 13.3754 9.96881C13.4696 9.95485 13.5205 9.82413 13.4895 9.67691C13.4585 9.5297 13.3568 9.42183 13.2638 9.43579C13.1696 9.44975 13.1187 9.58046 13.1497 9.72768Z" fill="#263238"/>
<path d="M11.8906 9.73316L12.2056 9.59863C12.2056 9.59863 12.0667 9.87656 11.8906 9.73316Z" fill="#263238"/>
<path d="M13.2148 9.45777L13.5298 9.32324C13.5298 9.32324 13.3909 9.60117 13.2148 9.45777Z" fill="#263238"/>
<g opacity="0.2">
<path d="M11.4373 6.80647C11.2736 7.43975 10.9463 8.00577 10.5433 8.5096C10.1539 8.99693 9.68271 9.39415 9.26359 9.8523C8.92383 10.2229 8.67831 10.6442 8.69195 11.1645C8.70435 11.6316 8.86803 12.0872 9.07015 12.5009C9.24871 12.8677 9.46819 13.2446 9.74843 13.5415C9.79059 13.586 9.85631 13.5187 9.81415 13.4743C9.57731 13.2243 9.39255 12.9146 9.23011 12.6113C9.00691 12.1912 8.81967 11.7242 8.78743 11.242C8.75023 10.6658 9.03171 10.2241 9.41487 9.82691C9.82779 9.39796 10.268 9.00708 10.6387 8.53625C11.038 8.02988 11.3617 7.46386 11.5241 6.83186C11.539 6.77221 11.4497 6.74683 11.4348 6.80647H11.4373Z" fill="white"/>
</g>
<path d="M16.0183 50.43H16.0245L16.2502 39.2962L15.464 25.585L10.6937 26.8896C10.2263 29.5496 12.0528 31.5027 12.0528 31.5027C11.9511 33.3239 12.3901 35.6666 12.8104 37.4104C13.1564 38.8533 13.4044 39.2531 13.4924 39.8902C13.5904 40.6085 13.3771 41.6809 13.4304 42.6022C13.6214 45.2458 14.0331 47.8677 14.658 50.4402L14.7386 50.8894L15.1168 52.538L16.1262 52.5811L16.0443 50.9338L16.0195 50.4287L16.0183 50.43Z" fill="#FFBCB4"/>
<path opacity="0.2" d="M13.1055 38.5029L13.2257 38.8862L16.2179 38.7314L16.1893 38.2529L13.1055 38.5029Z" fill="black"/>
<path d="M17.6396 54.5581C17.4772 54.4325 17.2924 54.3386 17.0965 54.2827C17.0965 54.2827 16.4988 53.7205 16.1504 51.9692L15.3927 51.7991C15.1274 51.7445 14.8571 51.8651 14.717 52.1012C14.6959 52.1329 14.681 52.1684 14.6735 52.2052C14.6413 52.3918 14.6215 52.5809 14.6153 52.7712C14.5979 53.4185 14.619 54.0645 14.6773 54.7092H14.8137V53.4921C14.8137 53.0771 15.1472 53.5505 15.2514 53.9896C15.3555 54.43 15.5639 54.897 16.4492 54.883C17.4834 54.8614 17.9112 54.7954 17.6396 54.5581Z" fill="#263238"/>
<path d="M15.9968 51.344C15.9968 51.344 16.1865 52.1448 16.4779 53.0256C16.6032 53.4812 16.8127 53.9089 17.0955 54.2833C17.0955 54.2833 16.4383 54.4305 16.1332 53.985C15.8282 53.5396 15.3756 52.0014 14.7109 52.1093C14.7605 51.9926 14.8238 51.8809 14.9007 51.7793C15.0061 51.6144 15.9968 51.3428 15.9968 51.3428V51.344Z" fill="#FFBCB4"/>
<path d="M8.29997 26.1436C7.11081 28.5574 8.31733 30.9648 8.31733 30.9648C7.70229 32.6781 7.46917 35.0488 7.38361 36.8433C7.31541 38.3294 7.44065 38.7825 7.34517 39.4208C7.23729 40.1455 6.73385 41.11 6.52677 42.0098C5.97621 44.5835 5.64141 47.2003 5.52113 49.8324L5.46781 50.3299L5.37109 52.0216L6.32713 52.3567L6.70781 50.7563L6.82437 50.2639L6.83677 50.2665L10.1513 39.6619L13.224 26.292L8.29749 26.1448L8.29997 26.1436Z" fill="#FFBCB4"/>
<path opacity="0.2" d="M7.37891 38.625V39.073L10.2929 39.0514L10.3909 38.625H7.37891Z" fill="black"/>
<path d="M7.22675 54.6921C7.10523 54.5246 6.95519 54.3812 6.78407 54.2695C6.78407 54.2695 6.36619 53.5563 6.52615 51.7783L5.84291 51.3912C5.60359 51.2618 5.31219 51.2986 5.11007 51.4826C5.08279 51.508 5.05799 51.5372 5.03939 51.5702C4.95631 51.7402 4.88563 51.9166 4.82487 52.0968C4.62771 52.7111 4.46775 53.3367 4.34375 53.97L4.47395 54.0093L4.81991 52.8469C4.93399 52.4496 5.12247 53.0004 5.10139 53.4509C5.08031 53.9027 5.14727 54.4193 5.99915 54.6579C6.98867 54.9409 7.41523 55.0081 7.22427 54.6921H7.22675Z" fill="#263238"/>
<path d="M6.55044 51.1329C6.55044 51.1329 6.51076 51.954 6.55044 52.8867C6.54424 53.3601 6.62608 53.8297 6.79224 54.2701C6.79224 54.2701 6.12016 54.2193 5.954 53.704C5.78784 53.1888 5.78412 51.5821 5.11328 51.4895C5.19264 51.393 5.28068 51.3055 5.37864 51.228C5.52868 51.1037 6.55044 51.1329 6.55044 51.1329Z" fill="#FFBCB4"/>
<path d="M16.484 33.8341L16.7022 38.2049C16.7022 38.2049 12.4044 38.6262 10.3881 38.6262H6.78964C6.78964 38.6262 6.74004 30.0192 7.5634 27.0521C8.3198 24.3248 9.24484 23.6268 9.24484 23.6268C9.24484 23.6268 15.2402 23.5215 15.2402 23.8984C16.0264 25.9581 16.4158 30.0319 16.4827 33.8341H16.484Z" fill="#407BFF"/>
<path opacity="0.4" d="M16.484 33.8341L16.7022 38.2049C16.7022 38.2049 12.4044 38.6262 10.3881 38.6262H6.78964C6.78964 38.6262 6.74004 30.0192 7.5634 27.0521C8.3198 24.3248 9.24484 23.6268 9.24484 23.6268C9.24484 23.6268 15.2402 23.5215 15.2402 23.8984C16.0264 25.9581 16.4158 30.0319 16.4827 33.8341H16.484Z" fill="black"/>
<path d="M13.9297 30.608C13.1237 32.3225 12.3177 34.0371 11.5129 35.7516C11.4869 35.8062 11.5675 35.8544 11.5935 35.7998C12.3995 34.0853 13.2055 32.3707 14.0103 30.6562C14.0363 30.6016 13.9557 30.5534 13.9297 30.608Z" fill="#263238"/>
<path opacity="0.2" d="M7.13281 29.7133L10.5403 30.0229C10.5403 30.0229 11.0215 24.5709 11.0624 23.298C11.1033 22.0238 11.0624 19.7598 11.0624 19.7598L7.17249 29.3452L7.13405 29.7133H7.13281Z" fill="black"/>
<path d="M15.302 18.2854C15.302 17.8019 15.1892 17.326 14.9697 16.8983L13.7657 14.5632C13.4644 14.5238 13.1444 14.487 12.8481 14.4604C11.9193 14.3969 10.8033 14.4058 9.87456 14.4693C9.39344 14.5314 8.88628 14.7117 8.36548 14.9617C8.301 15.02 7.84716 15.5772 8.06788 16.3082C9.17024 20.0558 9.37236 21.9607 9.2496 23.627C11.2832 23.8961 14.5407 24.4012 15.1694 24.0255C14.3373 20.6827 15.2996 19.7106 15.3033 18.2867L15.302 18.2854Z" fill="#407BFF"/>
<path opacity="0.8" d="M15.302 18.2854C15.302 17.8019 15.1892 17.326 14.9697 16.8983L13.7657 14.5632C13.4644 14.5238 13.1444 14.487 12.8481 14.4604C11.9193 14.3969 10.8033 14.4058 9.87456 14.4693C9.39344 14.5314 8.88628 14.7117 8.36548 14.9617C8.301 15.02 7.84716 15.5772 8.06788 16.3082C9.17024 20.0558 9.37236 21.9607 9.2496 23.627C11.2832 23.8961 14.5407 24.4012 15.1694 24.0255C14.3373 20.6827 15.2996 19.7106 15.3033 18.2867L15.302 18.2854Z" fill="white"/>
<path d="M10.306 13.6673L9.66738 14.3361L8.21038 14.8463L8.14714 18.3845C8.50054 19.745 8.75846 21.9177 8.76714 21.9481L6.22266 29.2429L10.2378 29.6718C10.2378 29.6718 11.3377 25.0041 11.4344 21.8314C11.5026 19.5495 10.8962 14.6496 10.306 13.666V13.6673Z" fill="#263238"/>
<path opacity="0.2" d="M10.306 13.6673L9.66738 14.3361L8.21038 14.8463L8.14714 18.3845C8.50054 19.745 8.75846 21.9177 8.76714 21.9481L6.22266 29.2429L10.2378 29.6718C10.2378 29.6718 11.3377 25.0041 11.4344 21.8314C11.5026 19.5495 10.8962 14.6496 10.306 13.666V13.6673Z" fill="white"/>
<path opacity="0.2" d="M7.93172 24.3379L7.73828 24.8925L10.9809 25.8913L11.0826 25.2542L7.93172 24.3379Z" fill="black"/>
<path d="M12.3906 13.9531C12.3906 13.9531 14.4106 16.4469 14.9066 18.2477C15.2327 19.4318 14.4763 22.0626 14.6648 23.7429C14.8309 25.2252 15.4299 27.0489 16.2619 29.714L16.8125 29.634L15.2972 23.7353C15.0975 23.536 15.8539 19.1463 15.8118 18.1779C15.7634 17.051 14.0026 14.5293 14.0026 14.5293L13.2661 14.3174L12.3906 13.9544V13.9531Z" fill="#263238"/>
<path opacity="0.2" d="M12.3906 13.9531C12.3906 13.9531 14.4106 16.4469 14.9066 18.2477C15.2327 19.4318 14.4763 22.0626 14.6648 23.7429C14.8309 25.2252 15.4299 27.0489 16.2619 29.714L16.8125 29.634L15.2972 23.7353C15.0975 23.536 15.8539 19.1463 15.8118 18.1779C15.7634 17.051 14.0026 14.5293 14.0026 14.5293L13.2661 14.3174L12.3906 13.9544V13.9531Z" fill="white"/>
<path d="M18.7532 20.7898H15.7809L15.5664 17.1982H19.1376L18.7532 20.7898Z" fill="#263238"/>
<path opacity="0.2" d="M18.7532 20.7898H15.7809L15.5664 17.1982H19.1376L18.7532 20.7898Z" fill="white"/>
<path opacity="0.1" d="M15.7585 19.9536C15.7263 19.9079 16.8138 18.8711 16.9898 19.46C17.1659 20.0488 18.9862 18.8711 18.9862 18.8711L18.8784 19.413C18.8784 19.413 17.4474 20.3052 17.1126 20.0818C16.7778 19.8584 16.7257 19.4523 16.4901 19.6592C16.2545 19.8661 15.7598 20.446 15.7598 20.446V19.9536H15.7585Z" fill="white"/>
<path d="M16.8795 16.303C17.0494 16.8196 16.9762 17.4135 16.6861 17.8704C16.3959 18.3272 15.8962 18.6382 15.3655 18.6902C15.1088 18.7156 14.8137 18.6635 14.6661 18.4465C14.5037 18.2079 14.5198 17.5747 14.6388 17.3107C14.9017 16.7231 15.1894 16.5353 15.704 16.1596C15.859 16.0467 16.2273 15.9223 16.417 15.9248C16.6067 15.9274 16.7778 16.0429 16.8312 16.1875L16.8783 16.303H16.8795Z" fill="#407BFF"/>
<g opacity="0.4">
<path d="M16.8795 16.303C17.0494 16.8196 16.9762 17.4135 16.6861 17.8704C16.3959 18.3272 15.8962 18.6382 15.3655 18.6902C15.1088 18.7156 14.8137 18.6635 14.6661 18.4465C14.5037 18.2079 14.5198 17.5747 14.6388 17.3107C14.9017 16.7231 15.1894 16.5353 15.704 16.1596C15.859 16.0467 16.2273 15.9223 16.417 15.9248C16.6067 15.9274 16.7778 16.0429 16.8312 16.1875L16.8783 16.303H16.8795Z" fill="white"/>
</g>
<path d="M17.5901 16.8084C17.4351 17.2805 17.502 17.825 17.7662 18.2438C18.0315 18.6626 18.4891 18.9468 18.9739 18.9938C19.2095 19.0166 19.4786 18.9697 19.6138 18.7704C19.7626 18.5522 19.7477 17.9722 19.6386 17.7298C19.398 17.1917 19.1339 17.0191 18.6639 16.6764C18.5226 16.5736 18.1853 16.4594 18.0117 16.462C17.8381 16.4645 17.6818 16.5698 17.6322 16.7031L17.5888 16.8084H17.5901Z" fill="#407BFF"/>
<path d="M17.6211 15.4009C17.6546 14.8565 17.9423 14.3361 18.38 14.0252C18.8177 13.7143 19.3955 13.6204 19.9052 13.779C20.1519 13.8551 20.4061 14.0176 20.4619 14.2752C20.5239 14.5582 20.2747 15.1395 20.0676 15.3374C19.6063 15.7791 19.2703 15.8413 18.6553 15.9898C18.4705 16.0342 18.0836 16.0063 17.9088 15.9301C17.7339 15.854 17.6186 15.6814 17.6223 15.5253V15.4009H17.6211Z" fill="#407BFF"/>
<g opacity="0.4">
<path d="M17.6211 15.4009C17.6546 14.8565 17.9423 14.3361 18.38 14.0252C18.8177 13.7143 19.3955 13.6204 19.9052 13.779C20.1519 13.8551 20.4061 14.0176 20.4619 14.2752C20.5239 14.5582 20.2747 15.1395 20.0676 15.3374C19.6063 15.7791 19.2703 15.8413 18.6553 15.9898C18.4705 16.0342 18.0836 16.0063 17.9088 15.9301C17.7339 15.854 17.6186 15.6814 17.6223 15.5253V15.4009H17.6211Z" fill="white"/>
</g>
<path d="M17.1915 15.0723C17.1506 14.4162 16.8046 13.788 16.2764 13.4123C15.7494 13.0379 15.0525 12.925 14.4375 13.1154C14.1399 13.208 13.8336 13.4034 13.7654 13.7144C13.691 14.0558 13.9923 14.7563 14.2416 14.9949C14.7971 15.5279 15.2026 15.6028 15.9441 15.7817C16.1673 15.835 16.6335 15.802 16.8443 15.7107C17.0551 15.6193 17.194 15.4099 17.189 15.2233V15.0723H17.1915Z" fill="#407BFF"/>
<g opacity="0.2">
<path d="M17.1915 15.0723C17.1506 14.4162 16.8046 13.788 16.2764 13.4123C15.7494 13.0379 15.0525 12.925 14.4375 13.1154C14.1399 13.208 13.8336 13.4034 13.7654 13.7144C13.691 14.0558 13.9923 14.7563 14.2416 14.9949C14.7971 15.5279 15.2026 15.6028 15.9441 15.7817C16.1673 15.835 16.6335 15.802 16.8443 15.7107C17.0551 15.6193 17.194 15.4099 17.189 15.2233V15.0723H17.1915Z" fill="white"/>
</g>
<path d="M14.8232 18.5116C15.2473 17.5281 15.9206 16.6702 16.7725 16.0394C16.8208 16.0039 16.7737 15.9214 16.7254 15.9569C15.8611 16.5966 15.1729 17.4634 14.7426 18.4634C14.719 18.5192 14.7984 18.5675 14.8232 18.5116Z" fill="#263238"/>
<path d="M16.7168 16.032C16.816 16.1589 16.9065 16.2947 16.9896 16.4343C17.0739 16.5764 17.1607 16.7312 17.1905 16.8975C17.2017 16.9571 17.2909 16.9318 17.2798 16.8721C17.2488 16.6982 17.1583 16.5345 17.0702 16.386C16.9834 16.2401 16.8879 16.098 16.7838 15.9647C16.7466 15.9165 16.6809 15.985 16.7181 16.032H16.7168Z" fill="#263238"/>
<path d="M17.772 16.5548C18.4156 17.1944 18.9426 17.9482 19.327 18.7782C19.353 18.8341 19.4324 18.7859 19.4076 18.73C19.0195 17.8937 18.4875 17.1335 17.8378 16.4875C17.7944 16.4444 17.7286 16.5116 17.772 16.5548Z" fill="#263238"/>
<path d="M17.399 17.3241C17.4362 16.5081 17.7846 15.6451 18.4183 15.126C18.9763 14.6692 19.7165 14.362 20.4196 14.2504C20.4791 14.2415 20.4531 14.1488 20.3948 14.159C19.6657 14.2757 18.8907 14.6019 18.3203 15.0867C17.6879 15.6235 17.3432 16.4992 17.3047 17.3254C17.3023 17.3863 17.3953 17.3863 17.3977 17.3254L17.399 17.3241Z" fill="#263238"/>
<path d="M13.7591 13.6864C14.8057 13.8476 15.7927 14.3324 16.5665 15.0723C16.6557 15.1573 16.7413 15.2449 16.8244 15.3362C16.8827 15.3997 17.0005 15.4974 17.0352 15.571C17.0587 15.6218 17.0525 15.7144 17.0587 15.769L17.1666 16.6777C17.1939 16.9036 17.2199 17.1295 17.2472 17.3554C17.2547 17.415 17.3377 17.4175 17.3402 17.3554C17.3514 17.1079 17.458 16.5317 17.7891 16.5508C17.8486 16.5546 17.8486 16.4594 17.7891 16.4556C17.3911 16.4327 17.2609 17.0508 17.2472 17.3554H17.3402C17.2782 16.8338 17.2162 16.3122 17.153 15.7906C17.1443 15.722 17.1468 15.6383 17.1269 15.5723C17.1133 15.5266 17.0823 15.4949 17.0513 15.4568C16.9571 15.3426 16.8579 15.2322 16.7549 15.1268C16.3854 14.7486 15.9589 14.4276 15.4976 14.1763C14.9631 13.8844 14.3841 13.6877 13.7851 13.5963C13.7269 13.5874 13.7008 13.6788 13.7603 13.6877L13.7591 13.6864Z" fill="#263238"/>
<path d="M12.7788 17.8398H19.7303V18.7739H12.7788C12.6362 18.463 12.6362 18.1508 12.7788 17.8398Z" fill="#407BFF"/>
<path opacity="0.8" d="M15.9972 17.9199H19.7284V18.6953H15.9972C15.9228 18.4364 15.9228 18.1788 15.9972 17.9199Z" fill="white"/>
<path opacity="0.2" d="M15.8193 18.7739C15.7474 18.4807 15.7437 18.1698 15.8193 17.8398H12.7788C12.6362 18.1508 12.6362 18.463 12.7788 18.7739H15.8193Z" fill="black"/>
<g opacity="0.3">
<path d="M19.6814 18.0996C18.4414 18.0996 17.2026 18.0996 15.9626 18.0996C15.9031 18.0996 15.9031 18.1948 15.9626 18.1948C17.2026 18.1948 18.4414 18.1948 19.6814 18.1948C19.7409 18.1948 19.7409 18.0996 19.6814 18.0996Z" fill="black"/>
</g>
<g opacity="0.3">
<path d="M19.7 18.3467H15.9626C15.9031 18.3467 15.9031 18.4419 15.9626 18.4419H19.7C19.7595 18.4419 19.7595 18.3467 19.7 18.3467Z" fill="black"/>
</g>
<path d="M13.1358 18.2334H14.8929C14.966 18.2334 15.0429 18.2397 15.1148 18.2334C15.1756 18.2283 15.1706 18.2055 15.1768 18.2575C15.1805 18.2867 15.1681 18.3286 15.1768 18.3565C15.188 18.3882 15.1805 18.3654 15.1917 18.3641C15.1421 18.373 15.0826 18.3641 15.0317 18.3641H13.1866C13.1717 18.3641 13.1519 18.3666 13.137 18.3641C13.1643 18.3692 13.1494 18.392 13.1544 18.3704C13.1593 18.3527 13.1544 18.3273 13.1544 18.3095V18.2144C13.1544 18.1902 13.1172 18.1902 13.1172 18.2144V18.3831C13.1172 18.3933 13.1259 18.4022 13.1358 18.4022H15.1954C15.2053 18.4022 15.214 18.3933 15.214 18.3831V18.2144C15.214 18.2042 15.2053 18.1953 15.1954 18.1953H13.1358C13.1122 18.1953 13.1122 18.2334 13.1358 18.2334Z" fill="#263238"/>
<path d="M12.5327 18.7412H20.0942V19.2844H12.5327C12.3901 19.1029 12.3901 18.9227 12.5327 18.7412Z" fill="#263238"/>
<path opacity="0.8" d="M16.3644 18.7871H20.0956V19.2376H16.3644C16.29 19.0879 16.29 18.9369 16.3644 18.7871Z" fill="white"/>
<g opacity="0.3">
<path d="M20.0486 18.8721H16.3298C16.2703 18.8721 16.2703 18.9673 16.3298 18.9673H20.0486C20.1081 18.9673 20.1081 18.8721 20.0486 18.8721Z" fill="black"/>
</g>
<g opacity="0.3">
<path d="M20.0672 19.0156C18.821 19.0156 17.576 19.0156 16.3298 19.0156C16.2703 19.0156 16.2703 19.1108 16.3298 19.1108C17.576 19.1108 18.821 19.1108 20.0672 19.1108C20.1267 19.1108 20.1267 19.0156 20.0672 19.0156Z" fill="black"/>
</g>
<path d="M12.26 19.2656H18.2257V20.0677H12.26C12.1373 19.7999 12.1373 19.5334 12.26 19.2656Z" fill="#407BFF"/>
<path opacity="0.8" d="M15.0249 19.334H18.2266V19.999H15.0249C14.9604 19.7769 14.9604 19.5561 15.0249 19.334Z" fill="white"/>
<path opacity="0.2" d="M14.869 20.0677C14.807 19.8164 14.8033 19.5499 14.869 19.2656H12.26C12.1373 19.5334 12.1373 19.7999 12.26 20.0677H14.869Z" fill="black"/>
<g opacity="0.3">
<path d="M18.1856 19.4814H14.9939C14.9343 19.4814 14.9343 19.5766 14.9939 19.5766H18.1856C18.2451 19.5766 18.2451 19.4814 18.1856 19.4814Z" fill="black"/>
</g>
<g opacity="0.3">
<path d="M18.2017 19.6934H14.9939C14.9343 19.6934 14.9343 19.7885 14.9939 19.7885H18.2017C18.2613 19.7885 18.2613 19.6934 18.2017 19.6934Z" fill="black"/>
</g>
<path d="M12.5694 19.6055H14.3376L14.319 19.5864V19.7311L14.3376 19.7121H12.5694L12.588 19.7311V19.5864C12.588 19.5623 12.5508 19.5623 12.5508 19.5864V19.7311C12.5508 19.7412 12.5595 19.7501 12.5694 19.7501H14.3376C14.3475 19.7501 14.3562 19.7412 14.3562 19.7311V19.5864C14.3562 19.5763 14.3475 19.5674 14.3376 19.5674H12.5694C12.5458 19.5674 12.5458 19.6055 12.5694 19.6055Z" fill="#263238"/>
<path d="M14.7427 21.0819L19.2773 23.7646L22.8189 17.4942L18.2842 14.8114L14.7427 21.0819Z" fill="#B97964"/>
<path d="M18.4095 15.4996L15.3867 20.8516L19.1538 23.0802L22.1766 17.7283L18.4095 15.4996Z" fill="white"/>
<path d="M19.2769 23.7637L19.1529 23.0772L15.3857 20.8486L14.7422 21.0821L19.2769 23.7637Z" fill="#962B19"/>
<path d="M22.8198 17.4936L22.1763 17.7258L18.4092 15.4973L18.2852 14.8107C18.3174 14.7853 22.8198 17.4936 22.8198 17.4936Z" fill="#962B19"/>
<path d="M17.2227 20.7143C17.9009 19.5137 18.5792 18.3119 19.2575 17.1113" stroke="#263238" stroke-linecap="round" stroke-linejoin="round"/>
<path d="M17.6641 20.976C18.3423 19.7754 19.0206 18.5736 19.6989 17.373" stroke="#263238" stroke-linecap="round" stroke-linejoin="round"/>
<path d="M18.7578 20.0813C19.0319 19.5965 19.3047 19.1117 19.5787 18.627" stroke="#263238" stroke-linecap="round" stroke-linejoin="round"/>
<path d="M19.0602 21.0664C18.9672 21.2314 18.8742 21.3951 18.7812 21.5601" stroke="#263238" stroke-linecap="round" stroke-linejoin="round"/>
<path d="M20.3598 18.0127C20.4516 17.8503 20.6462 17.7894 20.7938 17.8769C20.9414 17.9645 20.9872 18.1676 20.8955 18.33C20.8037 18.4925 20.609 18.5534 20.4615 18.4658C20.3139 18.3782 20.268 18.1752 20.3598 18.0127Z" fill="#407BFF"/>
<path d="M17.3789 19.2649C17.6678 18.7548 17.9357 18.2788 18.1998 17.8105" stroke="#263238" stroke-linecap="round" stroke-linejoin="round"/>
<path d="M21.6095 19.7637H11.6523V26.632H21.6095V19.7637Z" fill="#407BFF"/>
<path opacity="0.2" d="M16.2986 19.7637H11.6523V26.632H16.2986V19.7637Z" fill="black"/>
<path d="M16.2539 20.034V26.5482C16.2539 26.6091 16.3469 26.6091 16.3469 26.5482V20.034C16.3469 19.9731 16.2539 19.9731 16.2539 20.034Z" fill="#263238"/>
<path d="M11.6523 19.7637L10.3516 21.0074H15.1504L16.2986 19.7637H11.6523Z" fill="#407BFF"/>
<path d="M21.6078 19.7637H16.2969L17.6138 21.0074H22.6333L21.6078 19.7637Z" fill="#407BFF"/>
<path opacity="0.2" d="M21.6078 19.7637H16.2969L17.6138 21.0074H22.6333L21.6078 19.7637Z" fill="black"/>
<path d="M12.8364 24.217C13.4217 24.1865 14.0045 24.1002 14.5736 23.9581C14.6505 23.9391 14.7299 23.9188 14.8068 23.9365C14.8836 23.9543 14.9568 24.0228 14.9506 24.1028C14.9469 24.1675 14.896 24.217 14.8477 24.2589C14.6964 24.3845 14.038 24.5013 14.3046 24.6751C14.6989 24.9937 15.2259 25.0851 15.7182 25.1802C15.8459 25.2056 15.9748 25.2361 16.0765 25.3186C16.1782 25.4011 16.1236 25.6206 16.022 25.6473C16.0827 25.7082 16.1435 25.7285 16.1187 25.8554C16.1038 25.929 16.0182 26.0153 15.9339 26.0001C15.8868 26.1942 15.6252 26.3605 15.1006 26.2729C15.1738 26.2945 15.1825 26.4075 15.1329 26.4658C15.0833 26.5242 15.0014 26.5534 14.9258 26.5496C13.8892 26.5064 12.9195 26.0572 12.3615 25.1802C12.3255 25.1231 12.3131 25.0533 12.3243 24.9861C12.3937 24.547 12.5028 24.3338 12.8352 24.2183L12.8364 24.217Z" fill="#FFBCB4"/>
<path d="M14.2364 26.1282C14.5265 26.2044 14.8192 26.2704 15.1143 26.3262C15.1726 26.3376 15.1974 26.245 15.1391 26.2348C14.844 26.179 14.5513 26.113 14.2612 26.0369C14.2029 26.0216 14.1781 26.113 14.2364 26.1282Z" fill="#FF7168"/>
<path d="M14.4791 25.8011C14.9466 25.8824 15.4066 26.0004 15.8741 26.0816C15.9324 26.0918 15.9572 26.0004 15.8989 25.9902C15.4314 25.909 14.9714 25.791 14.5039 25.7098C14.4456 25.6996 14.4196 25.791 14.4791 25.8011Z" fill="#FF7168"/>
<path d="M14.6504 25.4193C15.1067 25.4993 15.5606 25.5881 16.0169 25.6681C16.0752 25.6782 16.1 25.5868 16.0417 25.5767C15.5854 25.4967 15.1315 25.4079 14.6752 25.3279C14.6169 25.3178 14.5921 25.4092 14.6504 25.4193Z" fill="#FF7168"/>
<path d="M8.30247 14.8145C8.30247 14.8145 7.25219 15.2091 6.92235 17.3044C6.61235 19.2779 5.97003 22.6409 6.23415 23.3491C6.49827 24.0573 12.2357 25.9812 12.5333 25.6106C12.8297 25.2388 13.0938 24.1588 13.0938 24.1588C13.0938 24.1588 8.75507 22.6917 8.78731 21.7488C8.82079 20.8071 9.30067 17.7118 9.20147 17.3742C9.10227 17.0366 8.30123 14.8145 8.30123 14.8145H8.30247Z" fill="#263238"/>
<path opacity="0.2" d="M8.30247 14.8145C8.30247 14.8145 7.25219 15.2091 6.92235 17.3044C6.61235 19.2779 5.97003 22.6409 6.23415 23.3491C6.49827 24.0573 12.2357 25.9812 12.5333 25.6106C12.8297 25.2388 13.0938 24.1588 13.0938 24.1588C13.0938 24.1588 8.75507 22.6917 8.78731 21.7488C8.82079 20.8071 9.30067 17.7118 9.20147 17.3742C9.10227 17.0366 8.30123 14.8145 8.30123 14.8145H8.30247Z" fill="white"/>
<g opacity="0.3">
<path d="M9.15726 17.8441C9.01218 18.7883 8.87702 19.7351 8.7803 20.6856C8.7555 20.9293 8.73194 21.1742 8.72326 21.4204C8.71954 21.5461 8.70342 21.6971 8.7679 21.8113C8.91174 22.0664 9.21554 22.2555 9.44494 22.4179C9.85414 22.706 10.2869 22.9598 10.7283 23.1896C11.4699 23.5741 12.2473 23.9015 13.0223 24.2061C13.0781 24.2277 13.1029 24.1363 13.0471 24.1147C12.4085 23.8634 11.7786 23.5893 11.1574 23.2962C10.706 23.0829 10.2658 22.8406 9.84422 22.5715C9.5305 22.3723 9.19942 22.1603 8.94274 21.8849C8.82246 21.7555 8.8113 21.659 8.81378 21.4864C8.8175 21.2631 8.83858 21.0397 8.85966 20.8176C8.91794 20.2135 8.9973 19.6132 9.08038 19.0117C9.1337 18.631 9.18826 18.2502 9.24654 17.8695C9.25522 17.8099 9.16594 17.7832 9.15726 17.8441Z" fill="black"/>
</g>
<g opacity="0.3">
<path d="M8.35122 15.1097C8.89062 15.4561 9.2465 16.064 9.28866 16.7151C9.29238 16.776 9.38538 16.776 9.38166 16.7151C9.33702 16.031 8.96626 15.3927 8.3971 15.0272C8.34626 14.9942 8.29914 15.0767 8.34998 15.1097H8.35122Z" fill="black"/>
</g>
</g>
<defs>
<clipPath id="clip0_1021_28079">
<rect width="62" height="56" fill="white"/>
</clipPath>
</defs>
</svg>
