<svg width="62" height="55" viewBox="0 0 62 55" fill="none" xmlns="http://www.w3.org/2000/svg">
<path d="M55.2984 20.7882C52.1364 18.241 49.6414 14.964 47.9969 11.2514C45.3184 5.20339 39.4211 0 32.3897 0C26.2597 0 20.8817 3.21575 17.848 8.05205C16.3647 10.4172 14.1891 12.2825 11.5881 13.2987C4.65671 16.0071 -0.209435 22.8385 0.00693794 30.7787C0.266585 40.3035 8.4604 48.3675 17.9883 48.4839C18.3822 48.4884 18.7732 48.4809 19.1612 48.4615C25.33 48.1467 31.5153 49.0361 37.229 51.3833C39.2599 52.219 41.4789 52.692 43.8053 52.7233C53.7614 52.8561 61.9866 44.7548 62 34.7972C62.0074 29.1342 59.3916 24.083 55.3014 20.7882H55.2984Z" fill="url(#paint0_linear_1021_30258)"/>
<path d="M56.8854 16.5806C58.1237 15.4965 58.0908 13.4334 56.8118 11.9724C55.5329 10.5115 53.4922 10.206 52.2539 11.2901C51.0156 12.3741 51.0485 14.4372 52.3275 15.8982C53.6064 17.3591 55.6471 17.6646 56.8854 16.5806Z" fill="url(#paint1_linear_1021_30258)"/>
<path d="M12.0663 11.3556C13.8277 10.246 14.6491 8.38379 13.901 7.19629C13.1529 6.00879 11.1186 5.94566 9.35723 7.05529C7.59585 8.16492 6.77442 10.0271 7.52252 11.2146C8.27062 12.4021 10.305 12.4652 12.0663 11.3556Z" fill="url(#paint2_linear_1021_30258)"/>
<path d="M8.67155 4.89042C8.88493 5.30525 8.60141 5.87827 8.03586 6.16925C7.4718 6.46024 6.83909 6.36026 6.6257 5.94542C6.41232 5.53058 6.69584 4.95757 7.26139 4.66658C7.82545 4.3756 8.45816 4.47558 8.67155 4.89042Z" fill="url(#paint3_linear_1021_30258)"/>
<path d="M52.0425 18.8936H8.32031V46.8698H52.0425V18.8936Z" fill="url(#paint4_linear_1021_30258)"/>
<path d="M50.1513 20.7871H10.2148V43.3511H50.1513V20.7871Z" fill="url(#paint5_linear_1021_30258)"/>
<path d="M35.5459 46.8662H24.8242V53.232H35.5459V46.8662Z" fill="url(#paint6_linear_1021_30258)"/>
<path d="M35.5459 48.2614V46.8662H24.8242V49.5462L35.5459 48.2614Z" fill="#0D1E3A"/>
<path d="M38.161 53.6423V54.2168C38.161 54.4437 37.9775 54.6272 37.7506 54.6272H22.6135C22.3882 54.6272 22.2031 54.4437 22.2031 54.2168V53.6423C22.2031 53.4155 22.3867 53.2305 22.6135 53.2305H37.7506C37.976 53.2305 38.161 53.414 38.161 53.6423Z" fill="url(#paint7_linear_1021_30258)"/>
<path d="M31.4517 16.7222L27.9748 16.6924L20.8047 30.4776L21.5105 33.1233V43.3525H29.6223H37.7355V33.1233L38.4398 30.4776L31.4517 16.7222Z" fill="white"/>
<path d="M34.6967 43.3525V17.5922C33.0567 17.1177 31.6824 16.7849 31.4571 16.7312L31.4526 16.7237L27.9757 16.6924C27.9757 16.6924 26.5044 17.052 24.7227 17.5832V43.3525H34.6967Z" fill="url(#paint8_linear_1021_30258)"/>
<path d="M31.4564 16.7302C31.4339 16.7242 31.4219 16.7227 31.4219 16.7227H31.4519L31.4549 16.7302H31.4564Z" fill="#43C6C9"/>
<path d="M41.994 35.1225C41.2673 35.7492 38.0859 35.3523 34.694 34.6972C32.4393 34.26 30.0935 33.7123 28.3148 33.2691H28.3133C26.548 32.8319 25.3438 32.5051 25.3438 32.5051L25.6064 29.6415L25.7407 28.1836L29.3265 28.8596H29.328L33.8823 29.7176L34.694 29.8713L37.9083 30.4787L34.694 23.6637V17.5918C37.2443 18.329 40.4331 19.4078 40.9509 20.3136C40.9509 20.3136 43.6996 33.6511 41.994 35.1225Z" fill="white"/>
<path d="M25.7532 29.6096L21.6914 30.4632C21.8362 30.12 22.3942 28.871 22.9195 28.6397C24.2058 28.0741 25.6965 28.1622 25.6965 28.1622L25.7518 29.6096H25.7532Z" fill="url(#paint9_linear_1021_30258)"/>
<path d="M33.9134 28.0616C33.9134 28.0616 35.4056 27.9736 36.6904 28.5391C37.2993 28.8077 37.9544 30.4492 37.9544 30.4492L33.8164 29.7284L33.9119 28.0616H33.9134Z" fill="url(#paint10_linear_1021_30258)"/>
<path d="M33.9443 27.8918L33.8846 29.7198L33.8264 31.4926C33.8264 31.4926 31.3493 32.3551 28.3171 33.2698H28.3156C27.1621 33.6175 25.9311 33.9712 24.7223 34.2905C21.3977 35.1619 18.27 35.7499 17.5418 35.1231C15.8376 33.6518 18.5848 20.3143 18.5848 20.3143C19.0996 19.413 22.2184 18.3281 24.7223 17.582V23.7584L21.6275 30.4793L24.7223 29.8302L25.6087 29.6437L29.3288 28.8618H29.3303L33.9443 27.8933V27.8918Z" fill="white"/>
<g style="mix-blend-mode:multiply" opacity="0.58">
<path d="M33.8211 31.499L23.5799 37.162V43.3548H21.5117V35.0416C26.2898 34.1089 33.545 31.5945 33.8211 31.499Z" fill="#DFE7E8"/>
</g>
<g style="mix-blend-mode:multiply" opacity="0.58">
<path d="M37.7345 43.3531V35.2115C36.787 35.0802 35.7528 34.9026 34.6963 34.6981C33.131 34.3937 31.5194 34.0371 30.0839 33.6984L29.957 33.6924L36.6855 36.7888V43.3531H37.7345Z" fill="#DFE7E8"/>
</g>
<path d="M32.5605 26.3955H32.2382C31.698 26.3955 31.2578 25.9553 31.2578 25.4151V23.0977H31.4011V25.4151C31.4011 25.8762 31.7771 26.2522 32.2382 26.2522H32.5605V26.3955Z" fill="url(#paint11_linear_1021_30258)"/>
<path d="M31.5469 23.0954H31.1172C31.1172 21.8136 32.1603 20.7705 33.4421 20.7705H33.8868V21.2003H33.4421C32.3975 21.2003 31.5484 22.0493 31.5484 23.0939L31.5469 23.0954Z" fill="url(#paint12_linear_1021_30258)"/>
<path d="M32.5959 25.8896H32.6167C32.7824 25.8896 32.9182 26.0254 32.9182 26.1911V26.3985C32.9182 26.5641 32.7824 26.6999 32.6167 26.6999H32.5959C32.5481 26.6999 32.5078 26.6611 32.5078 26.6119V25.9777C32.5078 25.9299 32.5466 25.8896 32.5959 25.8896Z" fill="url(#paint13_linear_1021_30258)"/>
<path d="M35.3184 26.3955H34.9961V26.2522H35.3184C35.7795 26.2522 36.1556 25.8762 36.1556 25.4151V23.0977H36.2988V25.4151C36.2988 25.9553 35.8586 26.3955 35.3184 26.3955Z" fill="url(#paint14_linear_1021_30258)"/>
<path d="M36.4439 23.0968H36.0141C36.0141 22.0523 35.165 21.2032 34.1205 21.2032H33.6758V20.7734H34.1205C35.4023 20.7734 36.4454 21.8165 36.4454 23.0983L36.4439 23.0968Z" fill="url(#paint15_linear_1021_30258)"/>
<path d="M34.9627 26.7002H34.9419C34.7762 26.7002 34.6404 26.5644 34.6404 26.3988V26.1913C34.6404 26.0257 34.7762 25.8899 34.9419 25.8899H34.9627C35.0105 25.8899 35.0508 25.9287 35.0508 25.978V26.6122C35.0508 26.6599 35.012 26.7002 34.9627 26.7002Z" fill="url(#paint16_linear_1021_30258)"/>
<path d="M25.6485 23.5757H25.2188V20.3405C25.2188 17.8992 27.2049 15.9131 29.6462 15.9131C32.0875 15.9131 34.0736 17.8992 34.0736 20.3405V21.012H33.6439V20.3405C33.6439 18.1365 31.8502 16.3428 29.6462 16.3428C27.4422 16.3428 25.6485 18.1365 25.6485 20.3405V23.5757Z" fill="url(#paint17_linear_1021_30258)"/>
<path d="M25.4192 26.0541C26.1749 26.0541 26.7875 25.4415 26.7875 24.6858C26.7875 23.93 26.1749 23.3174 25.4192 23.3174C24.6634 23.3174 24.0508 23.93 24.0508 24.6858C24.0508 25.4415 24.6634 26.0541 25.4192 26.0541Z" fill="url(#paint18_linear_1021_30258)"/>
<path d="M25.9684 24.6854C25.9684 24.9898 25.7222 25.236 25.4178 25.236C25.1134 25.236 24.8672 24.9898 24.8672 24.6854C24.8672 24.381 25.1134 24.1348 25.4178 24.1348C25.7222 24.1348 25.9684 24.381 25.9684 24.6854Z" fill="white"/>
<path d="M33.8326 8.94529C33.6311 8.63192 33.3581 8.72145 33.185 8.82889V8.29468C32.6985 8.13799 31.9658 7.07403 31.9658 7.07403C29.7573 7.92162 27.6324 7.09045 27.6324 7.09045C27.0012 7.95445 26.3729 8.46927 26.3729 8.46927V8.83486C26.1998 8.72145 25.9208 8.62446 25.7134 8.9438C25.6716 9.00498 25.4239 5.80415 27.2907 4.84913C27.2907 4.84913 27.9234 3.95677 29.811 3.98811C31.6987 3.95677 32.3329 4.84913 32.3329 4.84913C34.3071 5.82504 33.946 9.1154 33.8341 8.9438L33.8326 8.94529Z" fill="url(#paint19_linear_1021_30258)"/>
<path d="M31.41 16.7398L29.7775 17.7336L28.0391 16.7398V12.9062H31.41V16.7398Z" fill="url(#paint20_linear_1021_30258)"/>
<path d="M33.1846 8.29481V11.424C33.1846 11.424 32.3057 14.7159 29.851 14.7159C26.8755 14.7159 26.3711 11.4121 26.3711 11.4121V8.47238C26.3711 8.47238 27.0008 7.95756 27.632 7.09356C27.632 7.09356 29.7584 7.92324 31.9669 7.07715C31.9669 7.07715 32.6981 8.13961 33.1861 8.2963L33.1846 8.29481Z" fill="url(#paint21_linear_1021_30258)"/>
<path d="M26.3772 11.4419C25.5938 10.9674 25.4252 9.3901 25.7147 8.94691C25.9221 8.62907 26.1996 8.72606 26.3727 8.83947V11.4151C26.3727 11.4151 26.3742 11.424 26.3772 11.4434V11.4419Z" fill="url(#paint22_linear_1021_30258)"/>
<path d="M33.1797 11.4366C33.1812 11.4291 33.1827 11.4262 33.1827 11.4262V8.83267C33.3573 8.72374 33.6288 8.63421 33.8318 8.94608C34.1183 9.38927 33.9542 10.9516 33.1797 11.4351V11.4366Z" fill="url(#paint23_linear_1021_30258)"/>
<g style="mix-blend-mode:multiply" opacity="0.3">
<path d="M31.41 14.1984V14.5118C30.7295 15.0385 29.5611 15.6235 28.0391 15.1296V14.1895C28.5076 14.5043 29.1015 14.7147 29.8536 14.7147C30.4684 14.7147 30.9832 14.5088 31.41 14.1984Z" fill="#F48260"/>
</g>
<path d="M29.7776 13.324C29.6597 13.324 29.5433 13.2927 29.4418 13.233C29.3971 13.2061 29.3807 13.1479 29.4075 13.1031C29.4344 13.0584 29.4926 13.0435 29.5373 13.0688C29.609 13.1106 29.6925 13.133 29.7761 13.133C30.0372 13.133 30.2491 12.9211 30.2491 12.66C30.2491 12.6077 30.2924 12.5645 30.3446 12.5645C30.3969 12.5645 30.4401 12.6077 30.4401 12.66C30.4401 13.0256 30.1417 13.324 29.7761 13.324H29.7776Z" fill="url(#paint24_linear_1021_30258)"/>
<path d="M31.2386 9.70694C31.2386 9.83527 31.1401 9.94122 31.0177 9.94122C30.8954 9.94122 30.7969 9.83676 30.7969 9.70694C30.7969 9.57711 30.8954 9.47266 31.0177 9.47266C31.1401 9.47266 31.2386 9.57711 31.2386 9.70694Z" fill="url(#paint25_linear_1021_30258)"/>
<path d="M30.5102 9.39244C30.4878 9.39244 30.4654 9.38349 30.4475 9.36558C30.4162 9.33126 30.4192 9.27754 30.4535 9.2477C30.9803 8.76571 31.5234 9.18353 31.5294 9.18652C31.5652 9.21487 31.5727 9.2671 31.5428 9.3044C31.5145 9.34171 31.4608 9.34768 31.4249 9.31932C31.407 9.30589 30.9862 8.98656 30.5669 9.37155C30.5505 9.38648 30.5311 9.39394 30.5102 9.39394V9.39244Z" fill="url(#paint26_linear_1021_30258)"/>
<path d="M28.7503 9.70694C28.7503 9.83527 28.6518 9.94122 28.5294 9.94122C28.4071 9.94122 28.3086 9.83676 28.3086 9.70694C28.3086 9.57711 28.4071 9.47266 28.5294 9.47266C28.6518 9.47266 28.7503 9.57711 28.7503 9.70694Z" fill="url(#paint27_linear_1021_30258)"/>
<path d="M28.0219 9.39244C27.9995 9.39244 27.9772 9.38349 27.9593 9.36558C27.9279 9.33126 27.9309 9.27754 27.9652 9.2477C28.492 8.76571 29.0351 9.18353 29.0411 9.18652C29.0769 9.21487 29.0844 9.2671 29.0545 9.3044C29.0262 9.34171 28.9725 9.34768 28.9367 9.31932C28.9188 9.30589 28.4979 8.98656 28.0786 9.37155C28.0622 9.38648 28.0428 9.39394 28.0219 9.39394V9.39244Z" fill="url(#paint28_linear_1021_30258)"/>
<g style="mix-blend-mode:multiply" opacity="0.3">
<path d="M30.2234 11.3705C30.2234 11.5212 30.001 11.7197 29.725 11.7197C29.4489 11.7197 29.2266 11.5227 29.2266 11.3705C29.2266 11.2183 29.4489 11.3287 29.725 11.3287C30.001 11.3287 30.2234 11.2183 30.2234 11.3705Z" fill="#F48260"/>
</g>
<path d="M45.7814 4.18066H36.7773C36.0386 4.18066 35.4343 4.78502 35.4343 5.52367V11.4553C35.4343 11.5105 35.4388 11.5642 35.4447 11.6179C35.4686 12.0775 35.4313 13.0445 34.918 13.6847C34.7911 13.8428 34.918 14.0756 35.1209 14.0547C35.8133 13.9846 36.8997 13.7682 37.7338 13.1116C37.983 12.9147 38.2859 12.7983 38.6038 12.7983H45.7814C46.52 12.7983 47.1244 12.1939 47.1244 11.4553V5.52367C47.1244 4.78502 46.52 4.18066 45.7814 4.18066Z" fill="url(#paint29_linear_1021_30258)"/>
<path d="M44.3191 6.12793H38.2905C38.1602 6.12793 38.0547 6.23349 38.0547 6.3637V6.4219C38.0547 6.55211 38.1602 6.65767 38.2905 6.65767H44.3191C44.4493 6.65767 44.5548 6.55211 44.5548 6.4219V6.3637C44.5548 6.23349 44.4493 6.12793 44.3191 6.12793Z" fill="white"/>
<path d="M44.3191 8.2168H38.2905C38.1602 8.2168 38.0547 8.32236 38.0547 8.45257V8.51077C38.0547 8.64098 38.1602 8.74654 38.2905 8.74654H44.3191C44.4493 8.74654 44.5548 8.64098 44.5548 8.51077V8.45257C44.5548 8.32236 44.4493 8.2168 44.3191 8.2168Z" fill="white"/>
<path d="M40.9989 10.2246H38.2905C38.1602 10.2246 38.0547 10.3302 38.0547 10.4604V10.5186C38.0547 10.6488 38.1602 10.7544 38.2905 10.7544H40.9989C41.1291 10.7544 41.2346 10.6488 41.2346 10.5186V10.4604C41.2346 10.3302 41.1291 10.2246 40.9989 10.2246Z" fill="white"/>
<path d="M18.2407 41.4116L10.1588 39.7373L2.07686 41.4116C2.07686 41.4116 1.54115 54.0612 10.1588 54.8685C18.7764 54.0597 18.2407 41.4116 18.2407 41.4116Z" fill="url(#paint30_linear_1021_30258)"/>
<g style="mix-blend-mode:multiply">
<path d="M2.07686 41.4101C2.07686 41.4101 1.54115 54.0597 10.1588 54.867V39.7344L2.07686 41.4087V41.4101Z" fill="#18CCDE"/>
</g>
<path d="M10.1606 53.5773C7.22244 53.2758 5.196 51.2748 4.13353 47.6322C3.51426 45.5058 3.41279 43.3973 3.40234 42.4393L10.1606 41.0381L16.9189 42.4393C16.9085 43.3973 16.807 45.5058 16.1877 47.6322C15.1268 51.2763 13.0988 53.2758 10.1606 53.5773Z" fill="url(#paint31_linear_1021_30258)"/>
<g style="mix-blend-mode:multiply" opacity="0.34">
<path d="M10.1602 53.5773C13.0983 53.2758 15.1248 51.2748 16.1873 47.6322C16.8065 45.5058 16.908 43.3958 16.9184 42.4393L10.1602 41.0381L16.147 43.0287C16.147 43.0287 16.1962 52.0656 10.1602 53.5773Z" fill="#E04110"/>
</g>
<path d="M12.6743 46.7737H10.6881V44.7891H9.63459V46.7737H7.64844V47.8287H9.63459V49.8149H10.6881V47.8287H12.6743V46.7737Z" fill="white"/>
<path d="M57.7419 37.6982H42.9883V54.6559H57.7419V37.6982Z" fill="url(#paint32_linear_1021_30258)"/>
<path d="M57.7419 37.6982H42.9883V54.6559L57.7419 37.6982Z" fill="#F98026"/>
<path d="M56.8656 38.6299H43.8594V53.7238H56.8656V38.6299Z" fill="white"/>
<path d="M54.845 41.3193H45.5977V41.7282H54.845V41.3193Z" fill="url(#paint33_linear_1021_30258)"/>
<path d="M54.845 42.8125H45.5977V43.2214H54.845V42.8125Z" fill="url(#paint34_linear_1021_30258)"/>
<path d="M54.845 44.3066H45.5977V44.7155H54.845V44.3066Z" fill="url(#paint35_linear_1021_30258)"/>
<path d="M54.845 45.7998H45.5977V46.2087H54.845V45.7998Z" fill="url(#paint36_linear_1021_30258)"/>
<path d="M54.845 47.293H45.5977V47.7018H54.845V47.293Z" fill="url(#paint37_linear_1021_30258)"/>
<path d="M54.845 48.7871H45.5977V49.196H54.845V48.7871Z" fill="url(#paint38_linear_1021_30258)"/>
<path d="M54.845 50.2832H45.5977V50.6921H54.845V50.2832Z" fill="url(#paint39_linear_1021_30258)"/>
<path d="M54.845 51.7773H45.5977V52.1862H54.845V51.7773Z" fill="url(#paint40_linear_1021_30258)"/>
<path d="M52.37 36.6799C52.1238 36.6799 51.903 36.5277 51.8194 36.2979C51.6015 35.7069 51.0345 35.2861 50.3675 35.2861C49.7004 35.2861 49.1334 35.7069 48.9155 36.2979C48.8305 36.5277 48.6096 36.6799 48.3649 36.6799H46.7936C46.6727 36.6799 46.5742 36.7784 46.5742 36.8992V39.3002C46.5742 39.4211 46.6727 39.5196 46.7936 39.5196H53.9428C54.0637 39.5196 54.1622 39.4211 54.1622 39.3002V36.8992C54.1622 36.7784 54.0637 36.6799 53.9428 36.6799H52.3715H52.37Z" fill="url(#paint41_linear_1021_30258)"/>
<path d="M50.257 47.5107H41.8901C41.4352 47.5107 41.0664 47.8795 41.0664 48.3344V53.9482C41.0664 54.4031 41.4352 54.7719 41.8901 54.7719H50.257C50.7119 54.7719 51.0807 54.4031 51.0807 53.9482V48.3344C51.0807 47.8795 50.7119 47.5107 50.257 47.5107Z" fill="url(#paint42_linear_1021_30258)"/>
<path d="M42.8388 51.7588C43.3089 51.7588 43.6894 52.1393 43.6894 52.6094C43.6894 53.0794 43.3089 53.4599 42.8388 53.4599C42.3688 53.4599 41.9883 53.0794 41.9883 52.6094C41.9883 52.1393 42.3688 51.7588 42.8388 51.7588Z" fill="url(#paint43_linear_1021_30258)"/>
<path d="M42.5003 52.1521L42.3789 52.2734L43.1819 53.0764L43.3032 52.9551L42.5003 52.1521Z" fill="white"/>
<path d="M45.0146 51.7588C45.4847 51.7588 45.8652 52.1393 45.8652 52.6094C45.8652 53.0794 45.4847 53.4599 45.0146 53.4599C44.5446 53.4599 44.1641 53.0794 44.1641 52.6094C44.1641 52.1393 44.5446 51.7588 45.0146 51.7588Z" fill="url(#paint44_linear_1021_30258)"/>
<path d="M44.6721 52.1521L44.5508 52.2734L45.3538 53.0764L45.4751 52.9551L44.6721 52.1521Z" fill="white"/>
<path d="M47.1904 51.7588C47.6605 51.7588 48.041 52.1393 48.041 52.6094C48.041 53.0794 47.6605 53.4599 47.1904 53.4599C46.7204 53.4599 46.3398 53.0794 46.3398 52.6094C46.3398 52.1393 46.7204 51.7588 47.1904 51.7588Z" fill="url(#paint45_linear_1021_30258)"/>
<path d="M46.8479 52.1521L46.7266 52.2734L47.5295 53.0764L47.6509 52.9551L46.8479 52.1521Z" fill="white"/>
<path d="M49.3623 51.7588C49.8323 51.7588 50.2129 52.1393 50.2129 52.6094C50.2129 53.0794 49.8323 53.4599 49.3623 53.4599C48.8922 53.4599 48.5117 53.0794 48.5117 52.6094C48.5117 52.1393 48.8922 51.7588 49.3623 51.7588Z" fill="url(#paint46_linear_1021_30258)"/>
<path d="M49.0237 52.1521L48.9023 52.2734L49.7053 53.0764L49.8267 52.9551L49.0237 52.1521Z" fill="white"/>
<path d="M42.8388 48.8193C43.3089 48.8193 43.6894 49.1999 43.6894 49.6699C43.6894 50.14 43.3089 50.5205 42.8388 50.5205C42.3688 50.5205 41.9883 50.14 41.9883 49.6699C41.9883 49.1999 42.3688 48.8193 42.8388 48.8193Z" fill="url(#paint47_linear_1021_30258)"/>
<path d="M42.5003 49.2097L42.3789 49.3311L43.1819 50.134L43.3032 50.0127L42.5003 49.2097Z" fill="white"/>
<path d="M45.0146 48.8193C45.4847 48.8193 45.8652 49.1999 45.8652 49.6699C45.8652 50.14 45.4847 50.5205 45.0146 50.5205C44.5446 50.5205 44.1641 50.14 44.1641 49.6699C44.1641 49.1999 44.5446 48.8193 45.0146 48.8193Z" fill="url(#paint48_linear_1021_30258)"/>
<path d="M44.676 49.2097L44.5547 49.3311L45.3577 50.134L45.479 50.0127L44.676 49.2097Z" fill="white"/>
<path d="M47.1904 48.8193C47.6605 48.8193 48.041 49.1999 48.041 49.6699C48.041 50.14 47.6605 50.5205 47.1904 50.5205C46.7204 50.5205 46.3398 50.14 46.3398 49.6699C46.3398 49.1999 46.7204 48.8193 47.1904 48.8193Z" fill="url(#paint49_linear_1021_30258)"/>
<path d="M46.8479 49.2097L46.7266 49.3311L47.5295 50.134L47.6509 50.0127L46.8479 49.2097Z" fill="white"/>
<path d="M49.3623 48.8193C49.8323 48.8193 50.2129 49.1999 50.2129 49.6699C50.2129 50.14 49.8323 50.5205 49.3623 50.5205C48.8922 50.5205 48.5117 50.14 48.5117 49.6699C48.5117 49.1999 48.8922 48.8193 49.3623 48.8193Z" fill="url(#paint50_linear_1021_30258)"/>
<path d="M49.0237 49.2097L48.9023 49.3311L49.7053 50.134L49.8267 50.0127L49.0237 49.2097Z" fill="white"/>
<path d="M42.1289 51.1431C42.1289 51.1878 42.1916 51.2237 42.2692 51.2237H49.9989C50.0765 51.2237 50.1392 51.1878 50.1392 51.1431C50.1392 51.0983 50.0765 51.0625 49.9989 51.0625H42.2692C42.1916 51.0625 42.1289 51.0983 42.1289 51.1431Z" fill="#09B2BA"/>
<path d="M40.3624 42.5H39.6327L38.9597 43.1909C38.7299 43.4267 38.6016 43.7415 38.6016 44.0698V53.3455C38.6016 54.1274 39.2417 54.793 40.0237 54.778C40.7817 54.7631 41.392 54.1438 41.392 53.3828V44.0698C41.392 43.7415 41.2637 43.4252 41.0339 43.1909L40.3609 42.5H40.3624Z" fill="url(#paint51_linear_1021_30258)"/>
<path d="M39.6328 38.5858V42.5014H40.3625V38.5858C40.3625 38.3843 40.1999 38.2217 39.9984 38.2217C39.797 38.2217 39.6343 38.3843 39.6343 38.5858H39.6328Z" fill="url(#paint52_linear_1021_30258)"/>
<path d="M40.3625 41.791H39.6328V42.5013H40.3625V41.791Z" fill="#E04110"/>
<path d="M40.2622 51.7694V44.5874C40.2622 44.4411 40.1443 44.3232 39.9981 44.3232C39.8519 44.3232 39.734 44.4411 39.734 44.5874V51.7694C39.4669 51.8754 39.2773 52.135 39.2773 52.4395C39.2773 52.8379 39.5997 53.1602 39.9981 53.1602C40.3965 53.1602 40.7188 52.8379 40.7188 52.4395C40.7188 52.135 40.5293 51.8754 40.2622 51.7694Z" fill="white"/>
<path d="M40.2622 51.77V48.9482H39.734V51.77C39.4669 51.876 39.2773 52.1356 39.2773 52.4401C39.2773 52.8385 39.5997 53.1608 39.9981 53.1608C40.3965 53.1608 40.7188 52.8385 40.7188 52.4401C40.7188 52.1356 40.5293 51.876 40.2622 51.77Z" fill="url(#paint53_linear_1021_30258)"/>
<defs>
<linearGradient id="paint0_linear_1021_30258" x1="11.6926" y1="11.1604" x2="43.1203" y2="42.5881" gradientUnits="userSpaceOnUse">
<stop stop-color="#FFEDDC"/>
<stop offset="1" stop-color="#F9D8B7"/>
</linearGradient>
<linearGradient id="paint1_linear_1021_30258" x1="51.4487" y1="10.8082" x2="57.9996" y2="17.3591" gradientUnits="userSpaceOnUse">
<stop stop-color="#FFEDDC"/>
<stop offset="1" stop-color="#F9D8B7"/>
</linearGradient>
<linearGradient id="paint2_linear_1021_30258" x1="13.3347" y1="11.829" x2="6.94949" y2="5.44372" gradientUnits="userSpaceOnUse">
<stop stop-color="#FFEDDC"/>
<stop offset="1" stop-color="#F9D8B7"/>
</linearGradient>
<linearGradient id="paint3_linear_1021_30258" x1="9.0105" y1="5.85405" x2="5.69166" y2="4.79359" gradientUnits="userSpaceOnUse">
<stop stop-color="#FFEDDC"/>
<stop offset="1" stop-color="#F9D8B7"/>
</linearGradient>
<linearGradient id="paint4_linear_1021_30258" x1="11.2063" y1="13.9065" x2="48.1389" y2="50.8376" gradientUnits="userSpaceOnUse">
<stop stop-color="#59667C"/>
<stop offset="1" stop-color="#2E3D5B"/>
</linearGradient>
<linearGradient id="paint5_linear_1021_30258" x1="14.3856" y1="16.2731" x2="40.4802" y2="42.3677" gradientUnits="userSpaceOnUse">
<stop stop-color="#78E4EA"/>
<stop offset="1" stop-color="#7FDEF4"/>
</linearGradient>
<linearGradient id="paint6_linear_1021_30258" x1="26.406" y1="46.2693" x2="34.5476" y2="54.4124" gradientUnits="userSpaceOnUse">
<stop stop-color="#59667C"/>
<stop offset="1" stop-color="#2E3D5B"/>
</linearGradient>
<linearGradient id="paint7_linear_1021_30258" x1="30.1821" y1="54.9107" x2="30.1821" y2="53.1469" gradientUnits="userSpaceOnUse">
<stop stop-color="#59667C"/>
<stop offset="1" stop-color="#2E3D5B"/>
</linearGradient>
<linearGradient id="paint8_linear_1021_30258" x1="47.3955" y1="48.159" x2="22.4724" y2="23.2343" gradientUnits="userSpaceOnUse">
<stop stop-color="#34B2B2"/>
<stop offset="1" stop-color="#61DBDB"/>
</linearGradient>
<linearGradient id="paint9_linear_1021_30258" x1="27.6812" y1="32.4419" x2="22.1077" y2="28.0667" gradientUnits="userSpaceOnUse">
<stop offset="0.09" stop-color="#FFA683"/>
<stop offset="1" stop-color="#FFD3B3"/>
</linearGradient>
<linearGradient id="paint10_linear_1021_30258" x1="32.3316" y1="25.8277" x2="37.823" y2="31.9384" gradientUnits="userSpaceOnUse">
<stop offset="0.09" stop-color="#FFA683"/>
<stop offset="1" stop-color="#FFD3B3"/>
</linearGradient>
<linearGradient id="paint11_linear_1021_30258" x1="31.2578" y1="24.7466" x2="32.5605" y2="24.7466" gradientUnits="userSpaceOnUse">
<stop stop-color="#FFEDDC"/>
<stop offset="1" stop-color="#F9D8B7"/>
</linearGradient>
<linearGradient id="paint12_linear_1021_30258" x1="31.1172" y1="21.9344" x2="33.8868" y2="21.9344" gradientUnits="userSpaceOnUse">
<stop stop-color="#59667C"/>
<stop offset="1" stop-color="#2E3D5B"/>
</linearGradient>
<linearGradient id="paint13_linear_1021_30258" x1="32.5093" y1="26.2955" x2="32.9182" y2="26.2955" gradientUnits="userSpaceOnUse">
<stop stop-color="#59667C"/>
<stop offset="1" stop-color="#2E3D5B"/>
</linearGradient>
<linearGradient id="paint14_linear_1021_30258" x1="34.9961" y1="24.7466" x2="36.3003" y2="24.7466" gradientUnits="userSpaceOnUse">
<stop stop-color="#FFEDDC"/>
<stop offset="1" stop-color="#F9D8B7"/>
</linearGradient>
<linearGradient id="paint15_linear_1021_30258" x1="33.6743" y1="21.9359" x2="36.4439" y2="21.9359" gradientUnits="userSpaceOnUse">
<stop stop-color="#59667C"/>
<stop offset="1" stop-color="#2E3D5B"/>
</linearGradient>
<linearGradient id="paint16_linear_1021_30258" x1="34.6404" y1="26.2958" x2="35.0493" y2="26.2958" gradientUnits="userSpaceOnUse">
<stop stop-color="#59667C"/>
<stop offset="1" stop-color="#2E3D5B"/>
</linearGradient>
<linearGradient id="paint17_linear_1021_30258" x1="25.2188" y1="19.7436" x2="34.0736" y2="19.7436" gradientUnits="userSpaceOnUse">
<stop stop-color="#59667C"/>
<stop offset="1" stop-color="#2E3D5B"/>
</linearGradient>
<linearGradient id="paint18_linear_1021_30258" x1="24.0508" y1="24.6858" x2="26.7875" y2="24.6858" gradientUnits="userSpaceOnUse">
<stop stop-color="#59667C"/>
<stop offset="1" stop-color="#2E3D5B"/>
</linearGradient>
<linearGradient id="paint19_linear_1021_30258" x1="26.5326" y1="4.32386" x2="32.7477" y2="10.539" gradientUnits="userSpaceOnUse">
<stop stop-color="#59667C"/>
<stop offset="1" stop-color="#2E3D5B"/>
</linearGradient>
<linearGradient id="paint20_linear_1021_30258" x1="29.7238" y1="14.3806" x2="29.7238" y2="18.8229" gradientUnits="userSpaceOnUse">
<stop offset="0.09" stop-color="#FFA683"/>
<stop offset="1" stop-color="#FFD3B3"/>
</linearGradient>
<linearGradient id="paint21_linear_1021_30258" x1="33.1428" y1="13.8145" x2="26.7412" y2="7.4129" gradientUnits="userSpaceOnUse">
<stop stop-color="#FFA683"/>
<stop offset="1" stop-color="#FFD3B3"/>
</linearGradient>
<linearGradient id="paint22_linear_1021_30258" x1="27.8515" y1="11.6389" x2="25.1401" y2="8.92751" gradientUnits="userSpaceOnUse">
<stop offset="0.09" stop-color="#FFA683"/>
<stop offset="1" stop-color="#FFD3B3"/>
</linearGradient>
<linearGradient id="paint23_linear_1021_30258" x1="32.6619" y1="10.6741" x2="34.1198" y2="9.21617" gradientUnits="userSpaceOnUse">
<stop offset="0.09" stop-color="#FFA683"/>
<stop offset="1" stop-color="#FFD3B3"/>
</linearGradient>
<linearGradient id="paint24_linear_1021_30258" x1="29.3956" y1="12.9435" x2="30.4416" y2="12.9435" gradientUnits="userSpaceOnUse">
<stop stop-color="#59667C"/>
<stop offset="1" stop-color="#2E3D5B"/>
</linearGradient>
<linearGradient id="paint25_linear_1021_30258" x1="29.8404" y1="8.52808" x2="31.6415" y2="10.3292" gradientUnits="userSpaceOnUse">
<stop stop-color="#59667C"/>
<stop offset="1" stop-color="#2E3D5B"/>
</linearGradient>
<linearGradient id="paint26_linear_1021_30258" x1="30.0402" y1="8.327" x2="31.8413" y2="10.1266" gradientUnits="userSpaceOnUse">
<stop stop-color="#59667C"/>
<stop offset="1" stop-color="#2E3D5B"/>
</linearGradient>
<linearGradient id="paint27_linear_1021_30258" x1="27.3521" y1="8.52808" x2="29.1532" y2="10.3292" gradientUnits="userSpaceOnUse">
<stop stop-color="#59667C"/>
<stop offset="1" stop-color="#2E3D5B"/>
</linearGradient>
<linearGradient id="paint28_linear_1021_30258" x1="27.5519" y1="8.327" x2="29.353" y2="10.1266" gradientUnits="userSpaceOnUse">
<stop stop-color="#59667C"/>
<stop offset="1" stop-color="#2E3D5B"/>
</linearGradient>
<linearGradient id="paint29_linear_1021_30258" x1="35.6357" y1="4.08516" x2="53.141" y2="21.592" gradientUnits="userSpaceOnUse">
<stop stop-color="#F4AA16"/>
<stop offset="1" stop-color="#F98026"/>
</linearGradient>
<linearGradient id="paint30_linear_1021_30258" x1="16.6873" y1="51.8646" x2="3.88246" y2="39.0583" gradientUnits="userSpaceOnUse">
<stop offset="0.01" stop-color="#18CCDE"/>
<stop offset="1" stop-color="#7FDEF4"/>
</linearGradient>
<linearGradient id="paint31_linear_1021_30258" x1="3.40234" y1="47.3069" x2="16.9189" y2="47.3069" gradientUnits="userSpaceOnUse">
<stop stop-color="#F4AA16"/>
<stop offset="1" stop-color="#F98026"/>
</linearGradient>
<linearGradient id="paint32_linear_1021_30258" x1="42.3854" y1="38.1981" x2="60.0131" y2="55.8258" gradientUnits="userSpaceOnUse">
<stop stop-color="#F4AA16"/>
<stop offset="1" stop-color="#F98026"/>
</linearGradient>
<linearGradient id="paint33_linear_1021_30258" x1="45.5977" y1="41.5238" x2="54.845" y2="41.5238" gradientUnits="userSpaceOnUse">
<stop stop-color="#FFEDDC"/>
<stop offset="1" stop-color="#F9D8B7"/>
</linearGradient>
<linearGradient id="paint34_linear_1021_30258" x1="45.5977" y1="43.0169" x2="54.845" y2="43.0169" gradientUnits="userSpaceOnUse">
<stop stop-color="#FFEDDC"/>
<stop offset="1" stop-color="#F9D8B7"/>
</linearGradient>
<linearGradient id="paint35_linear_1021_30258" x1="45.5977" y1="44.5111" x2="54.845" y2="44.5111" gradientUnits="userSpaceOnUse">
<stop stop-color="#FFEDDC"/>
<stop offset="1" stop-color="#F9D8B7"/>
</linearGradient>
<linearGradient id="paint36_linear_1021_30258" x1="45.5977" y1="46.0042" x2="54.845" y2="46.0042" gradientUnits="userSpaceOnUse">
<stop stop-color="#FFEDDC"/>
<stop offset="1" stop-color="#F9D8B7"/>
</linearGradient>
<linearGradient id="paint37_linear_1021_30258" x1="45.5977" y1="47.4974" x2="54.845" y2="47.4974" gradientUnits="userSpaceOnUse">
<stop stop-color="#FFEDDC"/>
<stop offset="1" stop-color="#F9D8B7"/>
</linearGradient>
<linearGradient id="paint38_linear_1021_30258" x1="45.5977" y1="48.9915" x2="54.845" y2="48.9915" gradientUnits="userSpaceOnUse">
<stop stop-color="#FFEDDC"/>
<stop offset="1" stop-color="#F9D8B7"/>
</linearGradient>
<linearGradient id="paint39_linear_1021_30258" x1="45.5977" y1="50.4876" x2="54.845" y2="50.4876" gradientUnits="userSpaceOnUse">
<stop stop-color="#FFEDDC"/>
<stop offset="1" stop-color="#F9D8B7"/>
</linearGradient>
<linearGradient id="paint40_linear_1021_30258" x1="45.5977" y1="51.9818" x2="54.845" y2="51.9818" gradientUnits="userSpaceOnUse">
<stop stop-color="#FFEDDC"/>
<stop offset="1" stop-color="#F9D8B7"/>
</linearGradient>
<linearGradient id="paint41_linear_1021_30258" x1="46.5727" y1="37.4036" x2="54.1607" y2="37.4036" gradientUnits="userSpaceOnUse">
<stop stop-color="#F4AA16"/>
<stop offset="1" stop-color="#F98026"/>
</linearGradient>
<linearGradient id="paint42_linear_1021_30258" x1="51.315" y1="56.382" x2="44.1732" y2="49.2402" gradientUnits="userSpaceOnUse">
<stop offset="0.01" stop-color="#18CCDE"/>
<stop offset="1" stop-color="#7FDEF4"/>
</linearGradient>
<linearGradient id="paint43_linear_1021_30258" x1="41.9883" y1="52.6094" x2="43.6894" y2="52.6094" gradientUnits="userSpaceOnUse">
<stop stop-color="#F4AA16"/>
<stop offset="1" stop-color="#F98026"/>
</linearGradient>
<linearGradient id="paint44_linear_1021_30258" x1="44.1641" y1="52.6094" x2="45.8652" y2="52.6094" gradientUnits="userSpaceOnUse">
<stop stop-color="#F4AA16"/>
<stop offset="1" stop-color="#F98026"/>
</linearGradient>
<linearGradient id="paint45_linear_1021_30258" x1="46.3398" y1="52.6094" x2="48.0395" y2="52.6094" gradientUnits="userSpaceOnUse">
<stop stop-color="#F4AA16"/>
<stop offset="1" stop-color="#F98026"/>
</linearGradient>
<linearGradient id="paint46_linear_1021_30258" x1="48.5117" y1="52.6094" x2="50.2129" y2="52.6094" gradientUnits="userSpaceOnUse">
<stop stop-color="#F4AA16"/>
<stop offset="1" stop-color="#F98026"/>
</linearGradient>
<linearGradient id="paint47_linear_1021_30258" x1="41.9883" y1="49.6699" x2="43.6894" y2="49.6699" gradientUnits="userSpaceOnUse">
<stop stop-color="#F4AA16"/>
<stop offset="1" stop-color="#F98026"/>
</linearGradient>
<linearGradient id="paint48_linear_1021_30258" x1="44.1641" y1="49.6699" x2="45.8652" y2="49.6699" gradientUnits="userSpaceOnUse">
<stop stop-color="#F4AA16"/>
<stop offset="1" stop-color="#F98026"/>
</linearGradient>
<linearGradient id="paint49_linear_1021_30258" x1="46.3398" y1="49.6699" x2="48.0395" y2="49.6699" gradientUnits="userSpaceOnUse">
<stop stop-color="#F4AA16"/>
<stop offset="1" stop-color="#F98026"/>
</linearGradient>
<linearGradient id="paint50_linear_1021_30258" x1="48.5117" y1="49.6699" x2="50.2129" y2="49.6699" gradientUnits="userSpaceOnUse">
<stop stop-color="#F4AA16"/>
<stop offset="1" stop-color="#F98026"/>
</linearGradient>
<linearGradient id="paint51_linear_1021_30258" x1="45.918" y1="54.6587" x2="36.2752" y2="45.0159" gradientUnits="userSpaceOnUse">
<stop stop-color="#F4AA16"/>
<stop offset="1" stop-color="#F98026"/>
</linearGradient>
<linearGradient id="paint52_linear_1021_30258" x1="50.0545" y1="50.5236" x2="40.4117" y2="40.8823" gradientUnits="userSpaceOnUse">
<stop stop-color="#F4AA16"/>
<stop offset="1" stop-color="#F98026"/>
</linearGradient>
<linearGradient id="paint53_linear_1021_30258" x1="39.9996" y1="52.9892" x2="39.9996" y2="48.8945" gradientUnits="userSpaceOnUse">
<stop stop-color="#78E4EA"/>
<stop offset="1" stop-color="#7FDEF4"/>
</linearGradient>
</defs>
</svg>
