<svg width="26" height="26" viewBox="0 0 26 26" fill="none" xmlns="http://www.w3.org/2000/svg">
<path d="M23.5761 13.9892L20.3754 8.44531L20.1518 10.0453L18.5542 9.49675L21.7626 15.0539L21.7794 15.082C21.9966 15.4324 22.1112 15.837 22.1112 16.2526C22.1112 17.4705 21.1288 18.4633 19.9147 18.48L19.9009 18.479L19.8657 18.4803H15.5337V17.0784L12.4277 19.5317L15.5337 21.985V20.5831H19.8837C19.8851 20.5831 19.8867 20.5831 19.8881 20.5831L19.9002 20.583C22.2804 20.5741 24.2141 18.6348 24.2141 16.2526C24.2142 15.4513 23.9936 14.669 23.5761 13.9892Z" fill="white"/>
<path d="M6.11471 18.4815C5.32137 18.4815 4.58221 18.0546 4.18554 17.3676C3.78894 16.6806 3.78894 15.8269 4.1854 15.1399L6.14359 11.7483L7.34391 12.4572L6.8109 8.53516L3.11897 9.96202L4.33281 10.6789L2.36432 14.0886C1.5934 15.4242 1.5934 17.0835 2.36432 18.4191C3.13551 19.7546 4.57261 20.5844 6.11471 20.5844H11.6678L10.6163 19.4919L11.6678 18.4815H6.11471Z" fill="white"/>
<path d="M8.09062 8.3753L11.0688 3.21655C11.4656 2.52961 12.2047 2.10287 12.9981 2.10287C13.7913 2.10287 14.5306 2.52961 14.9272 3.21662L16.5889 6.09481L15.3295 6.79892L18.9867 8.31271L19.6124 4.40446L18.4247 5.06854L16.7485 2.16525C15.9772 0.829651 14.5403 0 12.9981 0C11.4559 0 10.0189 0.829652 9.24775 2.16518L6.26953 7.32394L7.83435 6.79135L8.09062 8.3753Z" fill="white"/>
</svg>
