<svg width="39" height="28" viewBox="0 0 39 28" fill="none" xmlns="http://www.w3.org/2000/svg">
<path d="M34.3991 11.9238C34.1268 11.0853 33.3847 10.4832 32.513 10.4832H32.4948C31.9282 10.4832 31.4175 10.7372 31.054 11.1449C30.6899 10.7372 30.1792 10.4832 29.6132 10.4832H29.5949C29.0968 10.4832 28.6415 10.6796 28.2918 11.0047V10.8394C28.2799 10.6748 28.1541 10.5455 27.9988 10.5455H26.6617C26.4982 10.5455 26.3661 10.6877 26.3661 10.8645V18.6837C26.3661 18.8605 26.4982 19.0027 26.6617 19.0027H27.9988C28.1478 19.0027 28.2704 18.8829 28.2899 18.7277L28.2893 13.1144C28.2892 13.0957 28.29 13.0769 28.2918 13.0582C28.3132 12.8076 28.4836 12.6017 28.7528 12.576H28.9993C29.1119 12.5868 29.2069 12.6295 29.2817 12.6938C29.3981 12.7934 29.4628 12.9465 29.4628 13.1144L29.4679 18.7C29.4679 18.8767 29.6006 19.0196 29.7634 19.0196H31.1005C31.2584 19.0196 31.3866 18.8842 31.3942 18.7156L31.3936 13.107C31.3929 12.9228 31.4722 12.7561 31.6112 12.6573C31.6797 12.6098 31.7621 12.578 31.8571 12.5685H32.1036C32.3929 12.5956 32.5677 12.832 32.5671 13.107L32.5721 18.6851C32.5721 18.8618 32.7048 19.0041 32.8677 19.0041H34.2048C34.3677 19.0041 34.5004 18.8618 34.5004 18.6851V12.6857C34.5004 12.2766 34.4576 12.1026 34.3991 11.9238ZM25.3475 10.5659H24.5828V9.22756C24.5828 9.06704 24.462 8.93701 24.313 8.93701C24.2954 8.93701 24.2784 8.9397 24.2621 8.9431C23.4143 9.1937 23.5841 10.4582 22.0364 10.5659H21.886C21.8634 10.5659 21.842 10.5693 21.8213 10.574C21.6892 10.6058 21.5898 10.7325 21.5898 10.8842V12.3241C21.5898 12.4995 21.7225 12.6424 21.886 12.6424H22.6929L22.6917 18.7481C22.6917 18.9222 22.8225 19.0631 22.9841 19.0631H24.3061C24.4671 19.0631 24.5979 18.9222 24.5979 18.7481L24.5985 12.6424H25.3475C25.5104 12.6424 25.6431 12.4995 25.6431 12.3241V10.8842C25.6431 10.7088 25.5104 10.5659 25.3475 10.5659Z" fill="#00BAF2"/>
<path d="M20.5366 10.5658H19.1995C19.0367 10.5658 18.9046 10.7087 18.9046 10.8841V13.8614C18.9014 14.0457 18.7631 14.1933 18.5914 14.1933H18.0317C17.8581 14.1933 17.7178 14.0429 17.7178 13.856L17.7128 10.8841C17.7128 10.7087 17.5801 10.5658 17.4172 10.5658H16.0802C15.9167 10.5658 15.7846 10.7087 15.7846 10.8841V14.1473C15.7846 15.3867 16.6053 16.2705 17.7568 16.2705C17.7568 16.2705 18.6209 16.2705 18.6474 16.276C18.8033 16.2949 18.9247 16.4358 18.9247 16.6092C18.9247 16.7805 18.8059 16.9207 18.6518 16.9417C18.6442 16.9431 18.6373 16.9451 18.6291 16.9465L16.6739 16.9539C16.5103 16.9539 16.3783 17.0968 16.3783 17.2722V18.7115C16.3783 18.8876 16.5103 19.0298 16.6739 19.0298H18.8599C20.0121 19.0298 20.8322 18.1466 20.8322 16.9065V10.8841C20.8322 10.7087 20.7001 10.5658 20.5366 10.5658ZM7.59485 13.2041V14.0927C7.59485 14.279 7.4546 14.4307 7.28166 14.4307L6.43326 14.4314V12.6508H7.28166C7.4546 12.6508 7.59485 12.8011 7.59485 12.9881V13.2041ZM7.71245 10.5654H4.78992C4.62955 10.5654 4.5 10.7056 4.5 10.8777V12.2884C4.5 12.2912 4.50062 12.2939 4.50062 12.2966C4.50062 12.3033 4.5 12.3101 4.5 12.3162V18.7016C4.5 18.875 4.62074 19.0166 4.77044 19.0206H6.13262C6.29551 19.0206 6.4282 18.8784 6.4282 18.7023L6.43324 16.514H7.71244C8.78282 16.514 9.52871 15.7141 9.52871 14.5567V12.5255C9.52871 11.368 8.78284 10.5654 7.71245 10.5654ZM13.1425 16.5846V16.8094C13.1425 16.8277 13.14 16.8453 13.1375 16.8623C13.1343 16.8782 13.1301 16.8938 13.1249 16.909C13.0834 17.035 12.9664 17.1264 12.8274 17.1264H12.2708C12.0972 17.1264 11.9557 16.9842 11.9557 16.8094V16.5379C11.9557 16.5345 11.9551 16.5311 11.9551 16.5277L11.9557 15.805V15.5788L11.9564 15.5768C11.957 15.4027 12.0972 15.2619 12.2708 15.2619H12.8274C13.0016 15.2619 13.1425 15.4034 13.1425 15.5788L13.1425 16.5846ZM12.9299 10.5737H11.0747C10.9105 10.5737 10.7778 10.7078 10.7778 10.8724V11.4325C10.7778 11.4359 10.7785 11.4399 10.7785 11.4433C10.7785 11.4474 10.7778 11.4514 10.7778 11.4555V12.2229C10.7778 12.397 10.9187 12.5392 11.0923 12.5392H12.8589C12.9985 12.5629 13.1092 12.6726 13.1249 12.844V13.0295C13.1092 13.1928 12.9997 13.3119 12.8664 13.3255H11.9916C10.8281 13.3255 9.99924 14.1579 9.99924 15.3269V17.0011C9.99924 18.1633 10.7118 18.9903 11.8671 18.9903H14.2915C14.7267 18.9903 15.0795 18.6354 15.0795 18.1986V12.7349C15.0795 11.4101 14.4456 10.5737 12.9299 10.5737Z" fill="#1F336B"/>
</svg>
