<svg width="64" height="57" viewBox="0 0 64 57" fill="none" xmlns="http://www.w3.org/2000/svg">
<path d="M59.9634 21.7574C58.686 28.4021 54.0885 34.6083 49.0785 38.7979C43.5087 43.4567 36.1999 46.4824 28.9126 46.7891C22.685 47.0498 16.3147 45.2341 11.4304 41.3619C6.54617 37.4913 3.27056 31.5213 3.06813 25.2921C2.86571 19.063 5.89595 12.7218 11.113 9.3128C14.6401 7.00638 19.1916 6.11847 23.2048 5.01126C31.4368 2.73858 41.0213 0.636117 49.3714 3.51761C54.4151 5.25816 58.6906 9.06284 59.899 14.4056C60.4542 16.8639 60.4296 19.3405 59.965 21.7589L59.9634 21.7574Z" fill="#949DF2"/>
<path d="M61.6595 28.2213V27.407L60.5094 27.2122C60.425 26.7644 60.2502 26.3489 60.0018 25.9854L60.6765 25.0346L60.1015 24.4596L59.1507 25.1343C58.7872 24.8859 58.3716 24.7111 57.9239 24.6267L57.7291 23.4766H56.9148L56.72 24.6267C56.2723 24.7111 55.8567 24.8859 55.4932 25.1343L54.5424 24.4596L53.9674 25.0346L54.6421 25.9854C54.3937 26.3489 54.2189 26.7644 54.1345 27.2122L52.9844 27.407V28.2213L54.1345 28.416C54.2189 28.8638 54.3937 29.2794 54.6421 29.6429L53.9674 30.5937L54.5424 31.1687L55.4932 30.494C55.8567 30.7424 56.2723 30.9172 56.72 31.0016L56.9148 32.1517H57.7291L57.9239 31.0016C58.3716 30.9172 58.7872 30.7424 59.1507 30.494L60.1015 31.1687L60.6765 30.5937L60.0018 29.6429C60.2502 29.2794 60.425 28.8638 60.5094 28.416L61.6595 28.2213ZM57.3212 29.7563C56.2477 29.7563 55.3782 28.8868 55.3782 27.8134C55.3782 26.7399 56.2477 25.8704 57.3212 25.8704C58.3947 25.8704 59.2642 26.7399 59.2642 27.8134C59.2642 28.8868 58.3947 29.7563 57.3212 29.7563Z" fill="#6265CE"/>
<path d="M57.3205 28.7562C57.8405 28.7562 58.2621 28.3347 58.2621 27.8146C58.2621 27.2946 57.8405 26.873 57.3205 26.873C56.8005 26.873 56.3789 27.2946 56.3789 27.8146C56.3789 28.3347 56.8005 28.7562 57.3205 28.7562Z" fill="#6265CE"/>
<path d="M57.2025 20.904L56.9694 20.4408L56.2594 20.6586C56.083 20.427 55.8653 20.2415 55.6199 20.1065L55.7318 19.3735L55.2396 19.2109L54.8915 19.8658C54.6139 19.8289 54.3271 19.8474 54.0496 19.9271L53.611 19.329L53.1479 19.5621L53.3656 20.2721C53.134 20.4485 52.9485 20.6663 52.8135 20.9116L52.0805 20.7997L51.918 21.2919L52.5728 21.64C52.536 21.9176 52.5544 22.2044 52.6341 22.4819L52.036 22.9205L52.2691 23.3837L52.9792 23.1659C53.1555 23.3975 53.3733 23.583 53.6186 23.718L53.5067 24.451L53.999 24.6135L54.3471 23.9587C54.6246 23.9955 54.9114 23.9771 55.189 23.8974L55.6276 24.4955L56.0907 24.2624L55.8729 23.5523C56.1045 23.376 56.29 23.1582 56.425 22.9129L57.158 23.0248L57.3206 22.5326L56.6658 22.1844C56.7026 21.9069 56.6842 21.6201 56.6044 21.3425L57.2025 20.904ZM55.1736 23.0156C54.5633 23.3223 53.8211 23.0754 53.5144 22.4651C53.2077 21.8547 53.4546 21.1125 54.0649 20.8058C54.6752 20.4991 55.4175 20.746 55.7242 21.3563C56.0309 21.9667 55.784 22.7089 55.1736 23.0156Z" fill="#6265CE"/>
<path d="M54.3503 21.3745C54.0543 21.5233 53.9347 21.8836 54.0835 22.1796C54.2322 22.4756 54.5926 22.5952 54.8886 22.4464C55.1846 22.2977 55.3042 21.9373 55.1554 21.6413C55.0067 21.3454 54.6463 21.2257 54.3503 21.3745Z" fill="#6265CE"/>
<path d="M6.51946 21.0312H1.08618C0.727924 21.0312 0.4375 21.3217 0.4375 21.6799V30.0698C0.4375 30.4281 0.727924 30.7185 1.08618 30.7185H6.51946C6.87772 30.7185 7.16814 30.4281 7.16814 30.0698V21.6799C7.16814 21.3217 6.87772 21.0312 6.51946 21.0312Z" fill="#4D52A8"/>
<path d="M2.73486 26.0264H1.4375V29.3434H2.73486V26.0264Z" fill="#5FC5A9"/>
<path d="M4.56299 25.1396H3.26562V29.3461H4.56299V25.1396Z" fill="#FFB552"/>
<path d="M6.38721 24.3916H5.08984V29.3434H6.38721V24.3916Z" fill="#5FC5A9"/>
<path d="M1.17182 25.2357C1.15035 25.2357 1.13041 25.2204 1.12581 25.1974C1.12121 25.1713 1.13655 25.1468 1.16262 25.1422C3.16233 24.7327 5.01943 23.6761 6.39347 22.1672C6.41034 22.1488 6.44101 22.1472 6.45941 22.1641C6.47935 22.181 6.47935 22.2116 6.46248 22.23C5.07464 23.7528 3.19914 24.8202 1.18102 25.2342C1.17795 25.2342 1.17488 25.2342 1.17182 25.2342V25.2357Z" fill="white"/>
<path d="M18.4685 12.2873L16.705 11.4055L14.9414 12.2873V7.60547H18.4685V12.2873Z" fill="#FFB552"/>
<path d="M19.62 8.74084C21.2292 7.13165 21.2292 4.52264 19.62 2.91346C18.0108 1.30427 15.4018 1.30427 13.7926 2.91346C12.1834 4.52265 12.1834 7.13165 13.7926 8.74084C15.4018 10.35 18.0108 10.35 19.62 8.74084Z" fill="#D35D57"/>
<path d="M16.7057 9.07943C18.5021 9.07943 19.9583 7.62319 19.9583 5.82683C19.9583 4.03046 18.5021 2.57422 16.7057 2.57422C14.9094 2.57422 13.4531 4.03046 13.4531 5.82683C13.4531 7.62319 14.9094 9.07943 16.7057 9.07943Z" fill="#4D52A8"/>
<path d="M16.7074 9.44709C14.7123 9.44709 13.0898 7.82462 13.0898 5.8295C13.0898 3.83438 14.7123 2.21191 16.7074 2.21191C18.7025 2.21191 20.325 3.83438 20.325 5.8295C20.325 7.82462 18.7025 9.44709 16.7074 9.44709ZM16.7074 2.30239C14.7629 2.30239 13.1788 3.88499 13.1788 5.83103C13.1788 7.77708 14.7614 9.35967 16.7074 9.35967C18.6535 9.35967 20.2361 7.77708 20.2361 5.83103C20.2361 3.88499 18.6535 2.30239 16.7074 2.30239Z" fill="white"/>
<g style="mix-blend-mode:soft-light" opacity="0.5">
<path d="M16.6388 3.13167C16.9716 3.48438 16.6726 4.30635 15.9717 4.9673C15.2709 5.62825 14.4336 5.87821 14.1008 5.5255C13.7681 5.17279 14.0671 4.35082 14.7679 3.68987C15.4687 3.02892 16.306 2.77896 16.6388 3.13167Z" fill="white"/>
</g>
<path d="M8.79063 50.0803C6.3968 50.0803 4.44922 48.1327 4.44922 45.7389C4.44922 43.345 6.3968 41.3975 8.79063 41.3975H29.9103V50.0803H8.79063Z" fill="#D35D57"/>
<path d="M28.9558 42.3516H8.7899C6.919 42.3516 5.40234 43.8682 5.40234 45.7391C5.40234 47.61 6.919 49.1267 8.7899 49.1267H29.9096V42.3531H28.9558V42.3516Z" fill="white"/>
<path d="M28.4884 43.752H9.51562V43.847H28.4884V43.752Z" fill="#A9B3FF"/>
<path d="M28.4884 46.4482H9.51562V46.5433H28.4884V46.4482Z" fill="#A9B3FF"/>
<path d="M26.2462 45.2793H7.27344V45.3744H26.2462V45.2793Z" fill="#A9B3FF"/>
<path d="M28.1954 47.7373H9.22266V47.8324H28.1954V47.7373Z" fill="#A9B3FF"/>
<path d="M21.998 46.2378L20.581 45.7287L19.1641 46.2378V43.4023H21.998V46.2378Z" fill="#FFB552"/>
<path d="M29.4744 14.1895H9.26562V41.3988H29.4744V14.1895Z" fill="#5FC5A9"/>
<path d="M11.9339 22.3428H10.4219V33.2431H11.9339V22.3428Z" fill="#93D8C3"/>
<path d="M33.2947 14.1895H13.0859V41.3988H33.2947V14.1895Z" fill="#93D8C3"/>
<path d="M14.7551 14.1895H14.2383V41.3988H14.7551V14.1895Z" fill="#5FC5A9"/>
<path d="M29.6721 16.7344H16.7031V23.0985H29.6721V16.7344Z" fill="#33896E"/>
<g style="mix-blend-mode:soft-light" opacity="0.5">
<path d="M16.0478 29.3672C17.0472 29.3672 17.8574 26.3702 17.8574 22.6733C17.8574 18.9764 17.0472 15.9795 16.0478 15.9795C15.0484 15.9795 14.2383 18.9764 14.2383 22.6733C14.2383 26.3702 15.0484 29.3672 16.0478 29.3672Z" fill="white"/>
</g>
<path d="M13.0841 16.5293H9.26562V17.0062H13.0841V16.5293Z" fill="#93D8C3"/>
<path d="M13.0841 17.7744H9.26562V18.2513H13.0841V17.7744Z" fill="#93D8C3"/>
<path d="M13.0841 37.334H9.26562V37.8109H13.0841V37.334Z" fill="#93D8C3"/>
<path d="M13.0841 38.582H9.26562V39.059H13.0841V38.582Z" fill="#93D8C3"/>
<path d="M52.0987 13.1191H25.9981C25.2808 13.1191 24.6992 13.7007 24.6992 14.418V48.7813C24.6992 49.4986 25.2808 50.0802 25.9981 50.0802H52.0987C52.8161 50.0802 53.3976 49.4986 53.3976 48.7813V14.418C53.3976 13.7007 52.8161 13.1191 52.0987 13.1191Z" fill="#162A45"/>
<path d="M50.2133 15.207H27.8867V45.7871H50.2133V15.207Z" fill="white"/>
<path d="M42.3619 12.0015C42.3787 11.9171 42.3895 11.8312 42.3895 11.7438C42.3895 10.6105 40.8943 9.69043 39.0495 9.69043C37.2046 9.69043 35.7094 10.609 35.7094 11.7438C35.7094 11.8312 35.7186 11.9171 35.737 12.0015H31.5781V15.9273H46.5239V12.0015H42.3649H42.3619Z" fill="#F78721"/>
<g style="mix-blend-mode:soft-light" opacity="0.5">
<path d="M40.102 10.9428C40.102 11.3998 39.3383 11.7694 38.3967 11.7694C37.4551 11.7694 36.6914 11.3998 36.6914 10.9428C36.6914 10.4858 37.4551 10.1162 38.3967 10.1162C39.3383 10.1162 40.102 10.4858 40.102 10.9428Z" fill="white"/>
</g>
<path d="M36.6944 17.707H30.0312V24.3702H36.6944V17.707Z" fill="#D35D57"/>
<path d="M48.1632 32.8916H41.5V39.5548H48.1632V32.8916Z" fill="#FFB552"/>
<path d="M48.2787 26.1543H30.0312V26.4641H48.2787V26.1543Z" fill="#A9B3FF"/>
<path d="M48.2786 23.9033H38.0898V24.2131H48.2786V23.9033Z" fill="#A9B3FF"/>
<path d="M48.2786 21.6602H38.0898V21.9699H48.2786V21.6602Z" fill="#A9B3FF"/>
<path d="M48.2789 19.4131H40.7539V19.7229H48.2789V19.4131Z" fill="#A9B3FF"/>
<path d="M48.2787 28.4014H30.0312V28.7111H48.2787V28.4014Z" fill="#A9B3FF"/>
<path d="M48.2787 30.6484H30.0312V30.9582H48.2787V30.6484Z" fill="#A9B3FF"/>
<path d="M39.9869 32.8916H30.0312V33.2014H39.9869V32.8916Z" fill="#A9B3FF"/>
<path d="M39.9869 35.1426H30.0312V35.4523H39.9869V35.1426Z" fill="#A9B3FF"/>
<path d="M39.9869 37.3896H30.0312V37.6994H39.9869V37.3896Z" fill="#A9B3FF"/>
<path d="M37.484 41.5215H29.9375V42.4002H37.484V41.5215Z" fill="#7B85E8"/>
<path d="M48.1635 41.5215H38.125V42.4002H48.1635V41.5215Z" fill="#A9B3FF"/>
<path d="M33.5582 43.2002H29.9375V44.0789H33.5582V43.2002Z" fill="#A9B3FF"/>
<path d="M48.1615 43.2002H34.3828V44.0789H48.1615V43.2002Z" fill="#7B85E8"/>
<path d="M55.9775 18.0587C55.7781 18.485 52.6129 17.4238 48.9079 15.6894C45.2029 13.955 42.3613 12.2021 42.5607 11.7758C42.76 11.3495 45.9252 12.4107 49.6302 14.1451C53.3352 15.8795 56.1768 17.6324 55.9775 18.0587Z" fill="#383D84"/>
<path d="M57.4798 14.0743L50.5897 12.0899L44.4862 8.4248L42.5586 11.7756L49.2662 14.9162L55.9754 18.0569L57.4798 14.0743Z" fill="#383D84"/>
<path d="M52.4477 8.12603L39.0508 4.82129L50.1673 12.995L63.5626 16.2982L52.4477 8.12603Z" fill="#4D52A8"/>
<path d="M42.3159 13.3017C42.3159 13.3017 42.3098 13.2986 42.3067 13.2971C42.2454 13.2618 42.2239 13.1836 42.2592 13.1222L44.6499 8.95411C44.6775 8.90504 44.7343 8.88051 44.7895 8.89277L51.333 10.4324C51.4021 10.4478 51.4435 10.5168 51.4281 10.5858C51.4113 10.6548 51.3438 10.6977 51.2748 10.6809L44.8232 9.16267L42.48 13.248C42.4463 13.3063 42.3742 13.3277 42.3159 13.3001V13.3017Z" fill="#FFB552"/>
<path d="M42.7716 13.3768C42.6688 13.5976 42.4051 13.6927 42.1842 13.5899C41.9634 13.4872 41.8683 13.2234 41.9711 13.0026C42.0738 12.7818 42.3376 12.6867 42.5584 12.7894C42.7792 12.8922 42.8743 13.1559 42.7716 13.3768Z" fill="#FFB552"/>
<path d="M41.9828 12.9746L41.1562 14.1064C41.512 14.4897 42.1561 14.686 42.1561 14.686L42.7695 13.3749L41.9813 12.9746H41.9828Z" fill="#FFB552"/>
<path d="M21.1398 46.5986H6.625V56.128H21.1398V46.5986Z" fill="#383D84"/>
<path d="M16.2218 47.0558H11.543V45.803C11.543 45.5361 11.7607 45.3184 12.0276 45.3184H15.7372C16.004 45.3184 16.2218 45.5361 16.2218 45.803V47.0558ZM11.8113 46.7875H15.9549V45.8014C15.9549 45.6818 15.8583 45.5852 15.7387 45.5852H12.0291C11.9095 45.5852 11.8129 45.6818 11.8129 45.8014V46.7875H11.8113Z" fill="#162A45"/>
<path d="M21.1398 50.46L13.8832 52.2021L6.625 50.46V46.5986H21.1398V50.46Z" fill="#6265CE"/>
<path d="M18.1735 50.6396H17.3086V51.8235H18.1735V50.6396Z" fill="#162A45"/>
<path d="M10.486 50.6396H9.62109V51.8235H10.486V50.6396Z" fill="#162A45"/>
<g style="mix-blend-mode:soft-light" opacity="0.5">
<path d="M13.9346 48.3236C13.9346 48.9186 12.5575 49.4001 10.8599 49.4001C9.16226 49.4001 7.78516 48.9186 7.78516 48.3236C7.78516 47.7286 9.16226 47.2471 10.8599 47.2471C12.5575 47.2471 13.9346 47.7286 13.9346 48.3236Z" fill="white"/>
</g>
<path d="M25.8379 29.0882L24.3734 54.3131C24.3412 54.879 23.855 55.3114 23.2892 55.2792C22.7478 55.2486 22.3307 54.7992 22.3215 54.2671L22.0041 29.0008C21.9903 27.9411 22.8383 27.0716 23.898 27.0578C24.9576 27.044 25.8272 27.892 25.841 28.9517C25.841 28.9962 25.841 29.0437 25.8379 29.0866V29.0882Z" fill="#FFC1B0"/>
<path d="M24.8253 56.1262H17.7435C17.7435 56.1262 17.7297 55.9437 17.7911 55.7076C17.8969 55.2889 18.2419 54.7016 19.3215 54.6556C21.0115 54.585 22.2229 54.0605 22.2229 54.0605C23.2688 54.2262 24.5048 54.0605 24.5048 54.0605C25.0615 55.1095 24.8253 56.1277 24.8253 56.1277V56.1262Z" fill="#162A45"/>
<path d="M17.7411 56.1257H24.823C24.823 56.1257 24.8598 55.9647 24.869 55.707H17.7871C17.7258 55.9447 17.7396 56.1257 17.7396 56.1257H17.7411Z" fill="#A9B3FF"/>
<path d="M30.2966 28.8465L32.2303 54.1773C32.2748 54.7677 31.8332 55.283 31.2428 55.3274C30.6753 55.3704 30.1785 54.9609 30.0987 54.4073L26.5885 29.2468C26.4459 28.227 27.1574 27.2839 28.1788 27.1412C29.1986 26.9986 30.1417 27.7102 30.2843 28.7315C30.2889 28.7683 30.2935 28.8112 30.2966 28.8465Z" fill="#FFC1B0"/>
<path d="M32.6535 56.1282H25.5716C25.5716 56.1282 25.5578 55.9457 25.6192 55.7095C25.725 55.2909 26.07 54.7035 27.1496 54.6575C28.8396 54.587 29.9698 54.0625 29.9698 54.0625C31.0157 54.2281 32.333 54.0625 32.333 54.0625C32.8896 55.1114 32.6535 56.1297 32.6535 56.1297V56.1282Z" fill="#162A45"/>
<path d="M25.5693 56.1276H32.6511C32.6511 56.1276 32.6879 55.9666 32.6971 55.709H25.6153C25.5539 55.9467 25.5677 56.1276 25.5677 56.1276H25.5693Z" fill="#A9B3FF"/>
<path d="M21.8571 26.2152L21.6562 53.236H25.0346L26.5191 25.7812L21.8571 26.2152Z" fill="#383D84"/>
<path d="M30.9762 26.1066L32.568 53.2332H29.2448L25.8281 25.3721L30.9762 26.1066Z" fill="#383D84"/>
<path d="M26.3593 28.7703C26.344 28.7703 26.3317 28.758 26.3317 28.7442L26.2305 25.4578C26.2305 25.4425 26.2427 25.4302 26.2565 25.4287C26.2734 25.4287 26.2841 25.441 26.2857 25.4548L26.3869 28.7411C26.3869 28.7565 26.3746 28.7687 26.3608 28.7703H26.3593Z" fill="#2A153F"/>
<path d="M26.3404 28.2369H25.9172C25.9018 28.2369 25.8896 28.2247 25.8896 28.2109L25.793 25.9627C25.793 25.9474 25.8037 25.9351 25.819 25.9336C25.8359 25.9336 25.8466 25.9443 25.8482 25.9597L25.9433 28.1817H26.3404C26.3558 28.1817 26.368 28.194 26.368 28.2093C26.368 28.2247 26.3558 28.2369 26.3404 28.2369Z" fill="#2A153F"/>
<path d="M30.5725 28.0143C30.3379 28.0143 30.1247 27.9376 29.9376 27.7843C29.2368 27.2107 29.1218 25.7784 29.1172 25.7171C29.1172 25.7017 29.1279 25.6879 29.1433 25.6879C29.1586 25.6849 29.1724 25.6987 29.1724 25.714C29.1724 25.7293 29.2889 27.1831 29.9729 27.7429C30.1845 27.9161 30.4314 27.9867 30.7075 27.9529C30.7213 27.9529 30.7366 27.9621 30.7381 27.9775C30.7397 27.9928 30.7289 28.0066 30.7136 28.0082C30.666 28.0143 30.6185 28.0174 30.5725 28.0174V28.0143Z" fill="#2A153F"/>
<path d="M22.0052 28.0927C21.9975 28.0927 21.9899 28.0897 21.9837 28.0835C21.973 28.0713 21.9745 28.0544 21.9868 28.0452C21.9945 28.039 22.7244 27.3858 22.5833 25.8492C22.5833 25.8338 22.5926 25.82 22.6079 25.8185C22.6232 25.817 22.637 25.8277 22.6386 25.843C22.7827 27.4103 22.0313 28.0805 22.0236 28.0866C22.019 28.0912 22.0113 28.0927 22.0052 28.0927Z" fill="#2A153F"/>
<path d="M20.7631 21.237C20.6128 21.237 20.4595 21.2094 20.3107 21.1496C19.6881 20.8996 19.3845 20.1926 19.6344 19.5685L22.1295 13.3439C22.3794 12.7213 23.0864 12.4177 23.7105 12.6676C24.3332 12.9176 24.6368 13.6246 24.3868 14.2487L21.8918 20.4733C21.7016 20.9487 21.2446 21.237 20.7631 21.237Z" fill="#FFC1B0"/>
<path d="M22.5048 16.8984C22.1536 19.6802 21.8223 23.8391 21.7227 27.2236C24.9385 27.4965 28.0883 27.4689 31.1646 27.0978C30.9054 24.1596 30.7659 20.0728 31.0342 16.8723L29.631 11.9696L26.1898 11.6016L23.5491 12.1337L22.5032 16.8984H22.5048Z" fill="#4D52A8"/>
<path d="M28.1456 11.8093L25.7963 18.6488L24.9375 11.8553L26.2073 11.5977L28.1456 11.8093Z" fill="white"/>
<path d="M26.1113 12.4961L25.4258 12.7537L25.7125 13.2153L25.4258 15.945L25.7954 18.6486L26.6833 16.0631L26.3459 13.2184L26.6618 12.7813L26.1113 12.4961Z" fill="#D35D57"/>
<path d="M20.6696 18.8231L28.0965 17.9306C28.5259 17.8784 28.9169 18.1851 28.9691 18.6161C29.0166 19.0163 28.7559 19.3813 28.374 19.4718L21.099 21.2169C20.4457 21.3733 19.7878 20.9716 19.6314 20.3167C19.475 19.6619 19.8768 19.0056 20.5316 18.8492C20.5776 18.8384 20.6251 18.8292 20.6696 18.8246V18.8231Z" fill="#FFC1B0"/>
<path d="M25.3046 18.1215L22.0888 18.646L22.2468 18.1997C22.348 18.2074 22.4508 18.2135 22.5566 18.2166L23.5687 12.127C22.713 12.3248 22.0076 12.9244 21.6717 13.7356L20.1781 17.3501C20.1781 17.3501 20.1781 17.3501 20.1796 17.3517L19.3024 19.5001C19.1475 19.8789 19.1552 20.3037 19.3224 20.6764C19.6168 21.3312 20.3376 21.6839 21.0353 21.5137L26.1358 20.2715L25.3046 18.12V18.1215Z" fill="#4D52A8"/>
<path d="M29.632 21.6148C29.5614 21.6148 29.4894 21.6086 29.4173 21.5964C28.7563 21.4783 28.3162 20.848 28.4328 20.1871L29.6059 13.5837C29.724 12.9228 30.3543 12.4811 31.0152 12.5992C31.6762 12.7173 32.1163 13.3475 31.9997 14.0085L30.8266 20.6118C30.7223 21.2007 30.2101 21.6148 29.6305 21.6148H29.632Z" fill="#FFC1B0"/>
<path d="M29.6297 11.9717L30.6756 12.0974C31.677 12.2186 32.3748 13.1525 32.2045 14.1478L31.4592 18.5536C30.283 18.5888 29.2786 18.0291 28.4336 17.4326L29.6313 11.9717H29.6297Z" fill="#4D52A8"/>
<path d="M29.1277 21.5031L23.4475 19.169C23.0472 19.0049 22.8556 18.5449 23.0196 18.1446C23.1699 17.7781 23.5656 17.5864 23.9398 17.683L29.8914 19.1966C30.5431 19.3623 30.9388 20.0263 30.7716 20.678C30.6045 21.3298 29.942 21.7254 29.2902 21.5583C29.2366 21.5445 29.1783 21.5245 29.1277 21.5046V21.5031Z" fill="#FFC1B0"/>
<path d="M28.4953 16.8428L28.1809 18.7873L25.9772 18.1831C25.9772 18.1831 25.1445 19.3256 24.9375 20.1905L28.9446 21.8773C29.4169 22.0752 29.9552 22.0322 30.3876 21.7608C30.768 21.5231 31.0271 21.1336 31.1007 20.6904L31.5531 17.9914L28.4937 16.8443L28.4953 16.8428Z" fill="#4D52A8"/>
<path d="M23.8595 17.6641C23.2967 17.5337 22.1405 17.6748 21.9564 17.7285C21.7724 17.7821 21.5378 17.9692 21.6129 18.0873C21.6129 18.0873 21.2909 18.1793 21.3568 18.3956C21.3568 18.3956 21.0486 18.6333 21.1682 18.7958L21.5332 18.7498C22.0438 19.3494 23.3213 19.3847 23.6955 19.193C24.2 18.9338 23.8595 17.6625 23.8595 17.6625V17.6641Z" fill="#FFC1B0"/>
<path d="M28.4344 17.4617C28.4344 17.4617 28.4313 17.4617 28.4298 17.4617C28.4144 17.4601 28.4037 17.4448 28.4068 17.431C28.4098 17.4111 28.6966 15.4512 28.968 14.1109C28.9711 14.0956 28.9864 14.0864 29.0002 14.0895C29.0156 14.0925 29.0248 14.1063 29.0217 14.1217C28.7518 15.4604 28.4635 17.4187 28.4604 17.4387C28.4589 17.4525 28.4466 17.4617 28.4328 17.4617H28.4344Z" fill="#31184C"/>
<path d="M28.6723 15.9449C28.66 15.9449 28.6477 15.9357 28.6447 15.9235C28.5373 15.3959 28.6002 14.6261 28.6017 14.6184C28.6017 14.6031 28.6171 14.5924 28.6309 14.5939C28.6462 14.5939 28.6569 14.6092 28.6554 14.623C28.6554 14.6307 28.5925 15.3929 28.6983 15.9127C28.7014 15.9281 28.6922 15.9419 28.6769 15.9449C28.6753 15.9449 28.6738 15.9449 28.6707 15.9449H28.6723Z" fill="#31184C"/>
<path d="M22.2723 17.64C22.257 17.64 22.2447 17.6262 22.2462 17.6109C22.2462 17.5878 22.3643 15.329 22.5422 14.323C22.5453 14.3076 22.5591 14.2984 22.5744 14.3C22.5897 14.303 22.5989 14.3168 22.5974 14.3322C22.4195 15.3351 22.303 17.5909 22.3014 17.6139C22.3014 17.6293 22.2892 17.64 22.2738 17.64H22.2723Z" fill="#31184C"/>
<path d="M22.3821 15.9961C22.3729 15.9961 22.3621 15.99 22.3575 15.9808C22.0462 15.3857 22.0922 14.6236 22.0922 14.6159C22.0922 14.6006 22.106 14.5898 22.1214 14.5898C22.1367 14.5898 22.1474 14.6036 22.1474 14.619C22.1474 14.6266 22.1014 15.3735 22.4066 15.9547C22.4143 15.9685 22.4081 15.9854 22.3943 15.9915C22.3897 15.993 22.3851 15.9946 22.3821 15.9946V15.9961Z" fill="#31184C"/>
<path d="M27.6211 17.9912C27.6211 17.9912 29.1592 17.6201 29.5073 17.7091C29.8554 17.7996 31.1896 18.5817 31.1114 18.7197C31.0332 18.8562 29.9122 18.3026 29.9122 18.3026C29.9122 18.3026 31.0869 18.9804 30.981 19.0908C30.8752 19.2012 29.7496 18.6154 29.7496 18.6154C29.7496 18.6154 30.728 19.1613 30.6253 19.3177C30.5225 19.4742 29.5457 18.8853 29.5457 18.8853C29.5457 18.8853 30.3032 19.4604 30.2005 19.5861C30.0793 19.7333 29.2543 19.1107 29.2543 19.1107C29.2543 19.1107 28.7038 19.2779 28.0934 18.7197L27.6211 17.9912Z" fill="#FFC1B0"/>
<path d="M29.591 22.0546C29.3886 22.0546 29.1861 22.0147 28.996 21.935L24.9229 20.2205C24.9107 20.2144 24.903 20.2006 24.9076 20.1868L25.0226 19.8233C25.0272 19.8095 25.0426 19.8003 25.0579 19.8049C25.0717 19.8095 25.0809 19.8248 25.0763 19.8402L24.9689 20.1791L29.019 21.8844C29.4131 22.05 29.8594 22.0377 30.2427 21.8491C30.6261 21.6605 30.9098 21.3154 31.0202 20.9029C31.0248 20.8876 31.0402 20.8784 31.054 20.883C31.0693 20.8876 31.077 20.9014 31.0739 20.9167C30.9604 21.3446 30.666 21.7034 30.2673 21.8982C30.0541 22.0025 29.8241 22.0546 29.5925 22.0546H29.591Z" fill="#31184C"/>
<path d="M22.0868 21.2667C22.0745 21.2667 22.0623 21.2575 22.0592 21.2453C22.0561 21.2299 22.0653 21.2161 22.0791 21.2115L25.4897 20.4049C25.505 20.4018 25.5188 20.411 25.5234 20.4248C25.5265 20.4402 25.5173 20.454 25.5035 20.4586L22.0929 21.2652C22.0929 21.2652 22.0883 21.2652 22.0868 21.2652V21.2667Z" fill="#31184C"/>
<path d="M25.797 25.4049C25.7817 25.4049 25.7694 25.3926 25.7694 25.3788C25.7694 25.3527 25.6529 22.778 25.5977 20.4915C25.5977 20.4761 25.6099 20.4639 25.6237 20.4639C25.6391 20.4639 25.6513 20.4761 25.6513 20.4915C25.7065 22.778 25.8231 25.3527 25.8231 25.3788C25.8231 25.3941 25.8124 25.4064 25.797 25.408V25.4049Z" fill="#31184C"/>
<path d="M26.0799 21.5624C26.0799 21.6161 26.037 21.659 25.9833 21.659C25.9297 21.659 25.8867 21.6161 25.8867 21.5624C25.8867 21.5088 25.9297 21.4658 25.9833 21.4658C26.037 21.4658 26.0799 21.5088 26.0799 21.5624Z" fill="#31184C"/>
<path d="M26.0536 23.286C26.107 23.286 26.1503 23.2427 26.1503 23.1894C26.1503 23.136 26.107 23.0928 26.0536 23.0928C26.0003 23.0928 25.957 23.136 25.957 23.1894C25.957 23.2427 26.0003 23.286 26.0536 23.286Z" fill="#31184C"/>
<path d="M26.2479 24.7919C26.2479 24.8456 26.205 24.8885 26.1513 24.8885C26.0976 24.8885 26.0547 24.8456 26.0547 24.7919C26.0547 24.7383 26.0976 24.6953 26.1513 24.6953C26.205 24.6953 26.2479 24.7383 26.2479 24.7919Z" fill="#31184C"/>
<path d="M27.5559 9.55524L27.7353 12.1178C27.7353 12.1178 26.2723 12.8462 25.3047 12.2788L25.3384 10.3327L27.5574 9.55371L27.5559 9.55524Z" fill="#FFC1B0"/>
<path d="M24.8594 11.8694L25.3148 11.6025L26.1092 12.4966L24.9345 13.064L24.8594 11.8694Z" fill="#CDD7FF"/>
<path d="M26.1094 12.4974L27.6858 11.4316L28.2318 11.8196L27.2948 13.2427L26.1094 12.4974Z" fill="#CDD7FF"/>
<path d="M25.3164 11.6023C26.6015 11.4934 27.0539 10.791 27.0539 10.791L25.3287 10.9122L25.3164 11.6007V11.6023Z" fill="#AD6253"/>
<path d="M29.4562 6.58335C29.3626 6.31192 29.1387 6.09722 28.878 5.97914C28.6772 5.88713 28.4563 5.84879 28.234 5.84726C28.2171 5.55129 28.0361 5.28139 27.803 5.09737C27.5607 4.90721 27.2663 4.79526 26.9749 4.69558C26.6836 4.5959 26.3845 4.50389 26.1208 4.34594C25.9107 4.22019 25.7174 4.04997 25.4782 4.00396C25.2819 3.96563 25.0688 4.02237 24.9154 4.15272C24.7621 4.28307 24.6731 4.48396 24.6793 4.68485C24.3618 4.5683 23.983 4.64498 23.7361 4.87654C23.4892 5.1081 23.388 5.48075 23.4846 5.80586C23.2776 6.12176 23.1749 6.51128 23.2224 6.88699C23.2699 7.26117 23.4555 7.61695 23.7361 7.87151C24.4891 8.55547 24.7529 9.64887 25.4429 10.3972C26.1898 10.4662 26.955 10.4141 27.6896 10.2653C28.3306 9.6458 28.8566 8.89591 29.1863 8.06627C29.2737 7.84698 29.3504 7.60775 29.2982 7.37619C29.5007 7.17376 29.5482 6.85939 29.4547 6.58795L29.4562 6.58335Z" fill="#162A45"/>
<path d="M24.9603 5.28351C27.3541 4.98601 28.61 6.13769 28.4076 8.37357C28.2466 10.154 27.213 11.2612 25.5307 11.2658C23.9803 11.2704 23.7288 10.0052 23.7089 8.67874C23.6798 6.78637 23.5402 5.45987 24.9618 5.28351H24.9603Z" fill="#FFC1B0"/>
<path d="M23.5622 6.9846C23.8076 6.94779 24.0361 6.80211 24.1725 6.59508C24.8289 6.97233 25.7199 6.89105 26.298 6.40032C26.341 6.55521 26.4529 6.68863 26.597 6.75764C26.7412 6.82664 26.916 6.82971 27.0632 6.7653C27.0464 7.14255 27.3255 7.5106 27.692 7.59801C27.6843 8.10407 27.9834 8.60247 28.4327 8.83556C28.4695 8.28809 28.5247 7.73296 28.4327 7.19162C28.3407 6.65182 28.1076 6.11662 27.6874 5.76545C27.2181 5.37286 26.5802 5.25325 25.9714 5.19651C25.4055 5.14283 24.7982 5.1413 24.3136 5.4388C23.8137 5.74551 23.4687 6.40799 23.5622 6.98766V6.9846Z" fill="#162A45"/>
<path d="M23.7695 7.76946C23.7695 7.76946 24.3691 7.66825 24.7387 7.73419C24.5363 7.45509 24.0026 7.59004 23.7695 7.76946Z" fill="#162A45"/>
<path d="M26.6684 7.76946C26.6684 7.76946 26.0688 7.66825 25.6992 7.73419C25.9016 7.45509 26.4353 7.59004 26.6684 7.76946Z" fill="#162A45"/>
<path d="M24.5489 8.65415C24.5489 8.77223 24.4707 8.86884 24.374 8.86884C24.2774 8.86884 24.1992 8.77223 24.1992 8.65415C24.1992 8.53606 24.2774 8.43945 24.374 8.43945C24.4707 8.43945 24.5489 8.53606 24.5489 8.65415Z" fill="#162A45"/>
<path d="M24.376 8.57585C24.376 8.61418 24.3515 8.64485 24.3208 8.64485C24.2902 8.64485 24.2656 8.61418 24.2656 8.57585C24.2656 8.53751 24.2902 8.50684 24.3208 8.50684C24.3515 8.50684 24.376 8.53751 24.376 8.57585Z" fill="white"/>
<path d="M26.2364 8.65415C26.2364 8.77223 26.1582 8.86884 26.0615 8.86884C25.9649 8.86884 25.8867 8.77223 25.8867 8.65415C25.8867 8.53606 25.9649 8.43945 26.0615 8.43945C26.1582 8.43945 26.2364 8.53606 26.2364 8.65415Z" fill="#162A45"/>
<path d="M26.0635 8.57585C26.0635 8.61418 26.039 8.64485 26.0083 8.64485C25.9777 8.64485 25.9531 8.61418 25.9531 8.57585C25.9531 8.53751 25.9777 8.50684 26.0083 8.50684C26.039 8.50684 26.0635 8.53751 26.0635 8.57585Z" fill="white"/>
<path d="M25.0329 9.44402C25.0329 9.44402 25.0267 9.44402 25.0221 9.44402C24.9194 9.42561 24.8473 9.38268 24.812 9.3198C24.7921 9.28453 24.7752 9.22626 24.8059 9.14498C24.8228 9.09897 24.858 9.0407 24.8964 8.97782C24.9301 8.92108 24.9654 8.86128 24.9807 8.82294C24.9915 8.7938 25.0237 8.78 25.0513 8.79073C25.0804 8.80147 25.0942 8.83367 25.0835 8.86128C25.0651 8.90882 25.0298 8.97016 24.9915 9.03457C24.9577 9.08977 24.924 9.14651 24.9102 9.18332C24.8979 9.21705 24.8979 9.24312 24.9102 9.26459C24.9286 9.2968 24.9761 9.32133 25.0436 9.3336C25.0743 9.33974 25.0927 9.36734 25.0881 9.39801C25.0835 9.42408 25.0605 9.44248 25.0344 9.44248L25.0329 9.44402Z" fill="#AD6253"/>
<path d="M24.6133 9.72067C24.9967 9.74828 25.3969 9.72987 25.8125 9.67773C25.5993 10.1547 24.7452 10.0719 24.6133 9.72067Z" fill="white"/>
<path d="M28.01 8.71306C27.8674 9.06423 27.9701 9.40161 28.2247 9.50435C28.4793 9.6071 28.7998 9.40621 28.9408 9.05503C29.0819 8.70386 28.9915 8.33734 28.7384 8.2346C28.4839 8.13185 28.1526 8.36188 28.01 8.71306Z" fill="#FFC1B0"/>
<path d="M28.2548 9.16547C28.2318 9.16547 28.2103 9.15167 28.2026 9.12866C28.1919 9.09953 28.2073 9.06886 28.2364 9.05812C28.2931 9.03819 28.356 8.98451 28.3591 8.91397C28.3591 8.88637 28.3499 8.8603 28.3376 8.82809C28.3253 8.79742 28.3131 8.76215 28.31 8.72228C28.3054 8.64867 28.3345 8.572 28.3867 8.51832C28.4541 8.44778 28.5416 8.41404 28.6213 8.42784C28.7547 8.44931 28.8237 8.57966 28.8237 8.69621C28.8237 8.72688 28.7992 8.75142 28.7685 8.75142C28.7379 8.75142 28.7133 8.72688 28.7133 8.69621C28.7133 8.6272 28.675 8.54899 28.6029 8.53672C28.5508 8.52752 28.4956 8.56279 28.4649 8.595C28.4342 8.6272 28.4158 8.67321 28.4189 8.71615C28.4189 8.73915 28.4296 8.76369 28.4388 8.78822C28.4526 8.82503 28.4695 8.86796 28.4664 8.91857C28.4603 9.03972 28.3637 9.12713 28.2701 9.16087C28.264 9.1624 28.2579 9.16394 28.2517 9.16394L28.2548 9.16547Z" fill="#AD6253"/>
<path d="M53.0358 50.5449H41.2031V53.063H53.0358V50.5449Z" fill="#FFB552"/>
<path d="M42.4877 50.7412H42.207V52.8667H42.4877V50.7412Z" fill="#F78721"/>
<path d="M43.851 50.7412H43.5703V52.8667H43.851V50.7412Z" fill="#F78721"/>
<path d="M45.2142 50.7412H44.9336V52.8667H45.2142V50.7412Z" fill="#F78721"/>
<path d="M46.5775 50.7412H46.2969V52.8667H46.5775V50.7412Z" fill="#F78721"/>
<path d="M47.9408 50.7412H47.6602V52.8667H47.9408V50.7412Z" fill="#F78721"/>
<path d="M49.3041 50.7412H49.0234V52.8667H49.3041V50.7412Z" fill="#F78721"/>
<path d="M50.6674 50.7412H50.3867V52.8667H50.6674V50.7412Z" fill="#F78721"/>
<path d="M52.0345 50.7412H51.7539V52.8667H52.0345V50.7412Z" fill="#F78721"/>
<g style="mix-blend-mode:soft-light" opacity="0.5">
<path d="M44.4234 51.8759C45.7726 51.8759 46.8663 51.6225 46.8663 51.31C46.8663 50.9975 45.7726 50.7441 44.4234 50.7441C43.0742 50.7441 41.9805 50.9975 41.9805 51.31C41.9805 51.6225 43.0742 51.8759 44.4234 51.8759Z" fill="white"/>
</g>
<path d="M58.3953 48.0855C58.9348 44.844 56.7444 41.7788 53.5029 41.2392C50.2613 40.6997 47.1962 42.8901 46.6566 46.1316C46.1171 49.3732 48.3075 52.4384 51.549 52.9779C54.7906 53.5174 57.8557 51.327 58.3953 48.0855Z" fill="#F78721"/>
<path d="M59.157 48.0541C59.6773 44.8094 57.4687 41.7572 54.224 41.237C50.9793 40.7167 47.9272 42.9252 47.4069 46.1699C46.8866 49.4146 49.0952 52.4667 52.3399 52.987C55.5846 53.5073 58.6367 51.2987 59.157 48.0541Z" fill="#FFB552"/>
<path d="M55.0822 51.3801C57.4377 50.3832 58.539 47.6655 57.5421 45.31C56.5452 42.9546 53.8275 41.8532 51.472 42.8502C49.1165 43.8471 48.0152 46.5648 49.0121 48.9203C50.0091 51.2757 52.7267 52.3771 55.0822 51.3801Z" fill="#F78721"/>
<path d="M54.6497 48.7683C54.4151 48.9907 54.0808 49.1256 53.6484 49.1747L53.6253 49.808L52.9399 49.782L52.9629 49.1701C52.6776 49.1409 52.4093 49.0827 52.1578 48.9937C51.9047 48.9063 51.6977 48.802 51.5352 48.6824L51.9369 47.862C52.1118 47.9862 52.3157 48.0889 52.5488 48.1702C52.7819 48.2515 53.0135 48.296 53.242 48.3052C53.676 48.3205 53.8968 48.2208 53.9044 48.0031C53.9091 47.8896 53.8492 47.8022 53.7281 47.7424C53.6069 47.6826 53.4091 47.6166 53.1377 47.5461C52.8386 47.4709 52.5902 47.3912 52.3924 47.3099C52.193 47.2286 52.0243 47.1029 51.8863 46.9342C51.7483 46.7655 51.6839 46.5416 51.6946 46.2641C51.7069 45.9359 51.8357 45.6598 52.0796 45.4344C52.3234 45.209 52.67 45.0786 53.1178 45.0418L53.1408 44.4131L53.8262 44.4392L53.8032 45.0556C54.0195 45.0832 54.2265 45.1292 54.4243 45.1936C54.6221 45.2581 54.797 45.3393 54.9503 45.4359L54.5715 46.2625C54.1989 46.0432 53.8324 45.9267 53.4751 45.9129C53.2512 45.9052 53.0855 45.9313 52.9797 45.9941C52.8739 46.057 52.8202 46.1414 52.8156 46.2487C52.811 46.3561 52.8693 46.4373 52.9889 46.4956C53.1085 46.5539 53.3033 46.6152 53.5717 46.6827C53.8738 46.7594 54.1237 46.8376 54.32 46.9189C54.5179 47.0001 54.6865 47.1244 54.8261 47.2915C54.9672 47.4587 55.0316 47.681 55.0224 47.9586C55.0101 48.2745 54.8874 48.5429 54.6528 48.7652L54.6497 48.7683Z" fill="#FFB552"/>
<g style="mix-blend-mode:soft-light" opacity="0.5">
<path d="M53.6597 43.2344C54.0738 43.8156 53.5324 44.909 52.4513 45.6789C51.3701 46.4487 50.1587 46.602 49.7446 46.0208C49.3306 45.4396 49.8719 44.3462 50.953 43.5764C52.0342 42.8066 53.2456 42.6532 53.6597 43.2344Z" fill="white"/>
</g>
<path d="M38.5995 45.0437C38.2759 44.622 38.2836 43.6513 38.4247 43.1391C38.5658 42.6269 38.7574 42.0871 38.6118 41.5764C38.4783 41.1072 38.0858 40.7621 37.6932 40.4738C37.3006 40.1855 36.8743 39.9141 36.612 39.5016C36.2701 38.9648 36.2685 38.2885 36.2409 37.6521C36.2149 37.0157 36.129 36.3256 35.6781 35.8748C35.3285 35.5251 34.827 35.3887 34.3624 35.223C33.8962 35.0574 33.4085 34.8136 33.2061 34.3643C33.479 34.9654 33.1417 35.6754 32.8135 36.249C32.4853 36.8225 32.1065 37.442 32.2139 38.0938C32.3212 38.7379 32.8733 39.2025 33.4039 39.5828C33.9345 39.9632 34.5142 40.3619 34.7319 40.9768C34.9068 41.4721 34.8117 42.0165 34.7442 42.5395C34.6783 43.0609 34.6537 43.6313 34.942 44.0699C35.2886 44.5959 35.9787 44.7738 36.609 44.7876C37.2377 44.8014 37.9861 44.9042 38.5995 45.0437Z" fill="#5FC5A9"/>
<path d="M33.582 35.5771C35.4008 39.6809 37.583 43.6236 40.0934 47.3439" stroke="#162A45" stroke-width="0.44" stroke-linecap="round" stroke-linejoin="round"/>
<path d="M40.1726 44.8716C40.3214 44.4699 40.2616 44.0205 40.1542 43.6049C40.0469 43.1894 39.8905 42.7845 39.8491 42.3567C39.8077 41.9303 39.9012 41.4611 40.2171 41.1712C40.5315 40.8829 41.0008 40.8231 41.3259 40.5471C41.7522 40.1836 41.8181 39.5595 41.8427 39.0013C41.8672 38.4416 41.9055 37.822 42.3042 37.4294C42.5726 37.1641 42.9529 37.0568 43.3056 36.9295C43.6584 36.8022 44.0295 36.6182 44.1936 36.2793C44.4251 36.6995 44.5923 37.1595 44.8223 37.5813C44.9465 37.8067 45.0707 38.0336 45.1413 38.2821C45.2103 38.529 45.221 38.8019 45.1183 39.0381C44.9204 39.4905 44.3592 39.7083 44.1859 40.1698C43.9835 40.7081 44.3975 41.2817 44.4021 41.8583C44.4067 42.4763 43.9298 43.0069 43.3839 43.2936C42.8364 43.5804 42.2168 43.6832 41.6249 43.8626C41.0345 44.042 40.4993 44.3502 40.1726 44.8747V44.8716Z" fill="#5FC5A9"/>
<path d="M43.9861 37.0625C43.6043 38.8399 42.6105 40.4133 41.6812 41.9759C40.7519 43.5386 39.8533 45.1917 39.6953 47.0028" stroke="#162A45" stroke-width="0.44" stroke-linecap="round" stroke-linejoin="round"/>
<path d="M39.2211 44.4296C39.0601 43.8484 38.5249 43.4619 38.0296 43.1184C37.5327 42.7749 37.0052 42.3747 36.8641 41.7889C36.7276 41.2184 37.0021 40.6341 37.3042 40.1327C37.6079 39.6312 37.9591 39.1221 38.0005 38.5363C38.0787 37.4107 36.9853 36.4277 37.1355 35.3082C37.223 34.6626 37.7045 34.1519 38.1354 33.6627C38.5663 33.1735 38.9911 32.5846 38.9252 31.9375C38.9083 32.4926 39.2718 32.9972 39.6735 33.379C40.0753 33.7609 40.5522 34.063 40.9356 34.4632C41.319 34.8635 41.6104 35.4125 41.5138 35.9584C41.411 36.535 40.908 36.9675 40.7531 37.5333C40.474 38.5455 41.3788 39.5561 41.2607 40.5989C41.204 41.1018 40.9157 41.5481 40.5891 41.933C40.2624 42.3195 39.8898 42.6691 39.6122 43.0908C39.3346 43.5141 39.0969 43.9389 39.2227 44.4281L39.2211 44.4296Z" fill="#33896E"/>
<path d="M39.0039 33.4053L39.03 39.0563C39.0422 41.6832 39.056 44.3316 39.5866 46.9049" stroke="#162A45" stroke-width="0.44" stroke-linecap="round" stroke-linejoin="round"/>
<path d="M41.4463 53.0645H37.177L36.6602 46.9365H41.9631L41.4463 53.0645Z" fill="#4D52A8"/>
<path d="M42.2544 46.0176H36.3672V47.4744H42.2544V46.0176Z" fill="#D35D57"/>
<g style="mix-blend-mode:soft-light" opacity="0.5">
<path d="M37.9308 50.9279C38.378 50.9279 38.7405 50.2729 38.7405 49.4649C38.7405 48.657 38.378 48.002 37.9308 48.002C37.4836 48.002 37.1211 48.657 37.1211 49.4649C37.1211 50.2729 37.4836 50.9279 37.9308 50.9279Z" fill="white"/>
</g>
</svg>
