<svg width="20" height="20" viewBox="0 0 20 20" fill="none" xmlns="http://www.w3.org/2000/svg">
<path d="M18.572 4.60246V19.9999H1.86719V0H13.9696L16.1133 2.14371L18.572 4.60246Z" fill="#B12A27"/>
<path d="M9.44129 1.33984H1.42969V4.92453H9.44129V1.33984Z" fill="#F2F2F2"/>
<path d="M4.30395 2.51488C4.26859 2.42949 4.22148 2.35293 4.15672 2.28816C4.09195 2.2234 4.01242 2.17039 3.92113 2.13504C3.82691 2.09676 3.7209 2.0791 3.60312 2.0791H2.72266V4.35234H3.1673V3.49543H3.60312C3.7209 3.49543 3.82691 3.47777 3.92113 3.43949C4.01242 3.40414 4.09191 3.35117 4.15672 3.28637C4.22152 3.2216 4.26863 3.14797 4.30395 3.05965C4.33633 2.97426 4.35402 2.88297 4.35402 2.78875C4.35398 2.69156 4.33633 2.60027 4.30395 2.51488ZM3.82395 3.0125C3.76504 3.06844 3.68262 3.09789 3.5825 3.09789H3.1673V2.47363H3.5825C3.68262 2.47363 3.76508 2.50309 3.82395 2.56195C3.87988 2.61789 3.90934 2.69445 3.90934 2.78867C3.90937 2.88 3.87992 2.95656 3.82395 3.0125Z" fill="#B12A27"/>
<path d="M6.43121 2.95953C6.42828 2.88004 6.42531 2.80938 6.41648 2.74457C6.40766 2.67977 6.39293 2.6209 6.37231 2.56496C6.35168 2.51195 6.3252 2.45895 6.28984 2.41184C6.21035 2.29699 6.11316 2.2116 6.00422 2.15859C5.8923 2.10559 5.7598 2.0791 5.60375 2.0791H4.78516V4.35234H5.60375C5.7598 4.35234 5.8923 4.32586 6.00422 4.27285C6.11316 4.21984 6.21035 4.13445 6.28984 4.01961C6.3252 3.9725 6.35168 3.91949 6.37231 3.86648C6.39293 3.81055 6.40766 3.75164 6.41648 3.68687C6.42531 3.62211 6.42824 3.55141 6.43121 3.47191C6.43414 3.39535 6.43414 3.30996 6.43414 3.21574C6.43414 3.12152 6.43414 3.03609 6.43121 2.95953ZM5.98656 3.44543C5.98656 3.51316 5.98066 3.56617 5.97477 3.61328C5.96887 3.65746 5.96004 3.69867 5.94828 3.72812C5.93652 3.76051 5.91883 3.78996 5.89824 3.81645C5.82461 3.91066 5.71273 3.95484 5.56551 3.95484H5.22688V2.47367H5.56551C5.71273 2.47367 5.82465 2.52078 5.89824 2.615C5.91887 2.64148 5.93652 2.66801 5.94828 2.70039C5.96004 2.73277 5.96891 2.77105 5.97477 2.81816C5.98066 2.86234 5.98656 2.91828 5.98656 2.98305C5.98949 3.04785 5.98949 3.12734 5.98949 3.21566C5.98953 3.30406 5.98953 3.38063 5.98656 3.44543Z" fill="#B12A27"/>
<path d="M8.33086 2.47367V2.0791H6.83203V4.35234H7.27668V3.4307H8.1748V3.03316H7.27668V2.47367H8.33086Z" fill="#B12A27"/>
<path d="M4.30395 2.51488C4.26859 2.42949 4.22148 2.35293 4.15672 2.28816C4.09195 2.2234 4.01242 2.17039 3.92113 2.13504C3.82691 2.09676 3.7209 2.0791 3.60312 2.0791H2.72266V4.35234H3.1673V3.49543H3.60312C3.7209 3.49543 3.82691 3.47777 3.92113 3.43949C4.01242 3.40414 4.09191 3.35117 4.15672 3.28637C4.22152 3.2216 4.26863 3.14797 4.30395 3.05965C4.33633 2.97426 4.35402 2.88297 4.35402 2.78875C4.35398 2.69156 4.33633 2.60027 4.30395 2.51488ZM3.82395 3.0125C3.76504 3.06844 3.68262 3.09789 3.5825 3.09789H3.1673V2.47363H3.5825C3.68262 2.47363 3.76508 2.50309 3.82395 2.56195C3.87988 2.61789 3.90934 2.69445 3.90934 2.78867C3.90937 2.88 3.87992 2.95656 3.82395 3.0125Z" fill="#B12A27"/>
<path opacity="0.08" d="M18.572 4.6023V19.9998H1.86719V16.3896L9.67633 8.58051L10.1386 8.1182L10.3948 7.86199L10.8218 7.43504L11.3283 6.92855L16.1133 2.14355L18.572 4.6023Z" fill="#040000"/>
<path d="M18.5717 4.60297H13.9688V0L18.5717 4.60297Z" fill="#771B1B"/>
<path d="M16.1894 14.4787C16.0922 14.3079 15.9597 14.1459 15.7949 13.9987C15.6594 13.875 15.5004 13.7602 15.3208 13.6542C14.5964 13.2272 13.5628 13.0211 12.1582 13.0211H12.0169C11.9403 12.9504 11.8608 12.8798 11.7784 12.8061C11.2454 12.3262 10.8214 11.805 10.4916 11.2249C11.1394 9.79672 11.4486 8.52465 11.4103 7.44102C11.4044 7.25844 11.3779 7.08766 11.3308 6.92863C11.2601 6.67246 11.1424 6.4457 10.9774 6.2602C10.9745 6.25727 10.9745 6.25727 10.9715 6.2543C10.7095 5.95984 10.3444 5.79199 9.9733 5.79199C9.59931 5.79199 9.25482 5.95395 9.00451 6.25137C8.75717 6.54582 8.62467 6.94926 8.61877 7.42332C8.60994 8.1477 8.66881 8.83379 8.79252 9.46688C8.80427 9.51695 8.81314 9.56699 8.8249 9.61703C8.94857 10.1913 9.13115 10.736 9.3667 11.2425C9.0899 11.8049 8.81017 12.2907 8.6158 12.6205C8.46857 12.8709 8.30662 13.1329 8.13877 13.395C7.38201 13.5305 6.74006 13.6954 6.1806 13.9015C5.42384 14.1754 4.81724 14.5287 4.38142 14.9498C4.09873 15.2207 3.90732 15.5093 3.8131 15.8096C3.71298 16.1188 3.71888 16.428 3.83076 16.7048C3.93381 16.9609 4.11931 17.1759 4.3667 17.3231C4.4256 17.3585 4.48744 17.3879 4.5522 17.4144C4.74068 17.491 4.94677 17.5322 5.16173 17.5322C5.65939 17.5322 6.17174 17.3172 6.60459 16.9315C7.41142 16.21 8.24474 15.0499 8.7365 14.3166C9.1399 14.2548 9.57865 14.2018 10.0734 14.1488C10.6564 14.0899 11.1717 14.0546 11.6399 14.0369C11.7842 14.1664 11.9226 14.2901 12.0551 14.4079C12.7913 15.0645 13.3508 15.5386 13.8572 15.8714C13.8572 15.8743 13.8602 15.8743 13.8631 15.8743C14.0634 16.0068 14.2548 16.1157 14.4462 16.2041C14.6612 16.3042 14.879 16.3572 15.1028 16.3572C15.3855 16.3572 15.6505 16.2718 15.8714 16.1158C16.0952 15.9538 16.2571 15.7212 16.3308 15.4591C16.4162 15.1441 16.3661 14.7938 16.1894 14.4787ZM9.67885 8.58059C9.63763 8.21543 9.61994 7.83559 9.62584 7.43512C9.63174 7.05527 9.77013 6.79906 9.9733 6.79906C10.1264 6.79906 10.2884 6.93746 10.362 7.20246C10.3826 7.28195 10.3973 7.37324 10.4003 7.47629C10.4062 7.59996 10.4032 7.72953 10.3973 7.86203C10.3797 8.23602 10.3149 8.63352 10.203 9.06051C10.1353 9.33438 10.0469 9.62 9.93799 9.91738C9.81431 9.4993 9.72595 9.05465 9.67885 8.58059ZM4.7672 16.3308C4.71713 16.2072 4.7731 15.9686 5.07935 15.6742C5.54755 15.2266 6.28076 14.8732 7.30256 14.6053C7.10822 14.8703 6.91681 15.1118 6.73131 15.3326C6.44861 15.6741 6.17771 15.9627 5.9333 16.1806C5.72423 16.3691 5.49455 16.4869 5.27666 16.5163C5.23838 16.5222 5.20009 16.5252 5.16181 16.5252C4.97037 16.5252 4.81431 16.4486 4.7672 16.3308ZM9.47271 13.2007L9.49334 13.1683L9.46095 13.1742C9.46685 13.1595 9.47568 13.1448 9.48451 13.133C9.60818 12.9239 9.76424 12.656 9.93209 12.3468L9.94681 12.3792L9.9851 12.2997C10.1088 12.4764 10.2442 12.6501 10.3856 12.8179C10.4533 12.8974 10.524 12.974 10.5946 13.0505L10.5475 13.0535L10.5887 13.0918C10.468 13.1006 10.3414 13.1124 10.2147 13.1241C10.1353 13.133 10.0528 13.1389 9.97033 13.1477C9.79959 13.1654 9.63174 13.183 9.47271 13.2007ZM14.4285 15.0381C14.0781 14.8143 13.6865 14.4993 13.2036 14.0782C13.8897 14.1488 14.4285 14.299 14.8113 14.5228C14.9792 14.62 15.1058 14.7201 15.1912 14.8173C15.3325 14.9674 15.3826 15.1029 15.3561 15.1942C15.3325 15.2855 15.2295 15.3473 15.1028 15.3473C15.0292 15.3473 14.9527 15.3297 14.8731 15.2914C14.7377 15.2266 14.5963 15.1471 14.4462 15.0499C14.4403 15.0499 14.4344 15.044 14.4285 15.0381Z" fill="#F2F2F2"/>
</svg>
