<svg width="36" height="38" viewBox="0 0 36 38" fill="none" xmlns="http://www.w3.org/2000/svg">
<path d="M22.7817 23.2188V21.125C22.5786 18.7031 19.7661 18.7344 19.7661 18.7344H15.3286C12.1411 18.7969 12.2505 21.125 12.2505 21.125V23.2188H22.7817Z" fill="white"/>
<path d="M14.5004 7.00003H15.016V9.34377H19.9535V6.9844H20.4847V9.3594H22.1254V6.64065C21.9379 4.50003 19.4691 4.53128 19.4691 4.53128H18.141L17.6097 5.40627L17.0785 4.53128H15.5629C12.766 4.57815 12.8597 6.64065 12.8597 6.64065V9.34377H14.5004V7.00003Z" fill="white"/>
<path d="M23.875 9.71875H11.125V11.5938H23.875V9.71875Z" fill="white"/>
<path d="M17.6094 3.90625C18.6881 3.90625 19.5625 3.03181 19.5625 1.95312C19.5625 0.874444 18.6881 0 17.6094 0C16.5307 0 15.6562 0.874444 15.6562 1.95312C15.6562 3.03181 16.5307 3.90625 17.6094 3.90625Z" fill="white"/>
<path d="M23.0788 20.8438V23.2188H33.61V20.8438C33.4069 18.4219 30.5944 18.4531 30.5944 18.4531H26.1569C22.9538 18.5156 23.0788 20.8438 23.0788 20.8438Z" fill="white"/>
<path d="M28.4688 17.75C29.6875 17.75 30.6875 16.75 30.6875 15.5313C30.6875 14.3125 29.7031 13.3125 28.4688 13.3125C27.25 13.3125 26.25 14.2969 26.25 15.5313C26.25 16.75 27.25 17.75 28.4688 17.75Z" fill="white"/>
<path d="M0 24.1875V27.8594H2.01563V37.6875H33V27.8594C33 27.8594 34.0156 27.8594 35.0313 27.8594V24.1875H0Z" fill="white"/>
<path d="M21.2813 17.75L22.3594 12.0781H12.625L13.7188 17.7812C14.1563 17.5938 14.6406 17.4688 15.2031 17.4219C14.8906 16.9531 14.7031 16.3906 14.7031 15.7813C14.7031 14.1406 16.0313 12.8125 17.6719 12.8125C19.3125 12.8125 20.6563 14.1563 20.6563 15.7813C20.6563 16.3906 20.4688 16.9531 20.1563 17.4375C20.5 17.4844 20.8906 17.5781 21.2813 17.75Z" fill="white"/>
<path d="M11.9692 23.2188V21.125C11.7661 18.7031 8.95358 18.7344 8.95358 18.7344H4.51608C1.34421 18.7969 1.45358 21.125 1.45358 21.125V23.2188H11.9692Z" fill="white"/>
<path d="M17.6562 18.0313C18.8816 18.0313 19.875 17.0379 19.875 15.8125C19.875 14.5871 18.8816 13.5938 17.6562 13.5938C16.4309 13.5938 15.4375 14.5871 15.4375 15.8125C15.4375 17.0379 16.4309 18.0313 17.6562 18.0313Z" fill="white"/>
<path d="M6.84375 18.0313C8.06913 18.0313 9.0625 17.0379 9.0625 15.8125C9.0625 14.5871 8.06913 13.5938 6.84375 13.5938C5.61837 13.5938 4.625 14.5871 4.625 15.8125C4.625 17.0379 5.61837 18.0313 6.84375 18.0313Z" fill="white"/>
</svg>
