<svg width="46" height="46" viewBox="0 0 46 46" fill="none" xmlns="http://www.w3.org/2000/svg">
<circle cx="23" cy="23" r="22.5" fill="#51D7E0" stroke="black"/>
<g clip-path="url(#clip0_1464_16112)">
<path d="M40 23.5516L35.6687 20.0567L38.4531 15.2253L32.575 14.7117L32.0594 9.05734L27.1094 11.422L23.7063 7L20.5094 11.5231L15.3531 8.85006L15.0437 14.7107L9.26875 15.019L11.4344 20.5702L7 23.2432L11.5375 26.636L9.26875 31.4674L14.9406 32.0841L15.25 37.8416L20.5094 35.3738L24.0156 40L27.1094 35.3738L31.9563 37.7385L32.3687 31.981L38.0406 31.8779L35.9781 27.1486L40 23.5516Z" fill="#F2B851"/>
<path d="M23.2774 20.5578C23.2774 22.9008 21.7955 24.1239 20.1754 24.1239C18.4697 24.1239 17.126 22.8493 17.126 20.7476C17.126 18.749 18.3501 17.2331 20.262 17.2331C22.1915 17.2331 23.2774 18.6459 23.2774 20.5578ZM19.0719 20.6785C19.0719 21.85 19.469 22.6936 20.2269 22.6936C20.9674 22.6936 21.3294 21.9366 21.3294 20.6785C21.3294 19.54 21.0189 18.6624 20.2094 18.6624C19.4349 18.6624 19.0719 19.5575 19.0719 20.6785ZM20.3136 28.8109L26.7403 17.2321H28.1531L21.7089 28.8109H20.3136ZM31.3407 25.2098C31.3407 27.5528 29.8588 28.7769 28.2387 28.7769C26.5506 28.7769 25.2069 27.5023 25.1893 25.4006C25.1893 23.402 26.4134 21.8851 28.3254 21.8851C30.2548 21.884 31.3407 23.2968 31.3407 25.2098ZM27.1539 25.3305C27.1363 26.503 27.5323 27.3466 28.2913 27.3466C29.0328 27.3466 29.3937 26.5886 29.3937 25.3305C29.3937 24.193 29.1009 23.3144 28.2913 23.3144C27.4983 23.3144 27.1539 24.2105 27.1539 25.3305Z" fill="white"/>
</g>
<defs>
<clipPath id="clip0_1464_16112">
<rect width="33" height="33" fill="white" transform="translate(7 7)"/>
</clipPath>
</defs>
</svg>
