<svg width="54" height="36" viewBox="0 0 54 36" fill="none" xmlns="http://www.w3.org/2000/svg">
<path d="M17.3605 19.2965C18.0763 16.2649 16.199 13.227 13.1674 12.5111C10.1358 11.7953 7.09794 13.6726 6.38209 16.7042C5.66625 19.7358 7.54353 22.7737 10.5751 23.4895C13.6067 24.2054 16.6446 22.3281 17.3605 19.2965Z" fill="#5F259F"/>
<path d="M34.7539 21.2237V19.1755C34.7539 18.6713 34.5648 18.4192 34.0922 18.4192C33.9031 18.4192 33.6825 18.4507 33.5565 18.4823V21.4757C33.5565 21.5703 33.462 21.6648 33.3674 21.6648H32.6427C32.5482 21.6648 32.4536 21.5703 32.4536 21.4757V17.9781C32.4536 17.852 32.5482 17.7575 32.6427 17.726C33.1153 17.5685 33.588 17.4739 34.0922 17.4739C35.2265 17.4739 35.8567 18.0726 35.8567 19.1755V21.5072C35.8567 21.6018 35.7622 21.6963 35.6677 21.6963H35.2265C34.9429 21.6963 34.7539 21.4757 34.7539 21.2237ZM37.5898 19.9948L37.5583 20.2783C37.5583 20.6565 37.8104 20.877 38.22 20.877C38.5351 20.877 38.8187 20.7825 39.1338 20.625C39.1653 20.625 39.1968 20.5934 39.2283 20.5934C39.2914 20.5934 39.3229 20.625 39.3544 20.6565C39.3859 20.688 39.4489 20.7825 39.4489 20.7825C39.5119 20.877 39.575 21.0031 39.575 21.0976C39.575 21.2552 39.4804 21.4127 39.3544 21.4757C39.0078 21.6648 38.5981 21.7593 38.157 21.7593C37.6528 21.7593 37.2432 21.6333 36.9281 21.3812C36.613 21.0976 36.4239 20.7195 36.4239 20.2468V19.0179C36.4239 18.0411 37.0541 17.4424 38.1255 17.4424C39.1653 17.4424 39.764 18.0096 39.764 19.0179V19.7742C39.764 19.8687 39.6695 19.9632 39.575 19.9632H37.5898V19.9948ZM37.5583 19.3015H38.7557V18.9864C38.7557 18.6083 38.5351 18.3562 38.157 18.3562C37.7789 18.3562 37.5583 18.5768 37.5583 18.9864V19.3015ZM45.5934 19.9948L45.5619 20.2783C45.5619 20.6565 45.814 20.877 46.2236 20.877C46.5387 20.877 46.8223 20.7825 47.1374 20.625C47.169 20.625 47.2005 20.5934 47.232 20.5934C47.295 20.5934 47.3265 20.625 47.358 20.6565C47.3895 20.688 47.4526 20.7825 47.4526 20.7825C47.5156 20.877 47.5786 21.0031 47.5786 21.0976C47.5786 21.2552 47.4841 21.4127 47.358 21.4757C47.0114 21.6648 46.6018 21.7593 46.1606 21.7593C45.6565 21.7593 45.2468 21.6333 44.9317 21.3812C44.6166 21.0976 44.4276 20.7195 44.4276 20.2468V19.0179C44.4276 18.0411 45.0578 17.4424 46.1291 17.4424C47.169 17.4424 47.7677 18.0096 47.7677 19.0179V19.7742C47.7677 19.8687 47.6731 19.9632 47.5786 19.9632H45.5934V19.9948ZM45.5619 19.3015H46.7593V18.9864C46.7593 18.6083 46.5387 18.3562 46.1606 18.3562C45.7825 18.3562 45.5619 18.5768 45.5619 18.9864V19.3015ZM27.0338 21.6963H27.475C27.5695 21.6963 27.664 21.6018 27.664 21.5072V19.1755C27.664 18.1041 27.0969 17.4739 26.1516 17.4739C25.868 17.4739 25.5529 17.5369 25.3638 17.6V16.4341C25.3638 16.182 25.1432 15.9614 24.8911 15.9614H24.45C24.3555 15.9614 24.2609 16.056 24.2609 16.1505V21.5072C24.2609 21.6018 24.3555 21.6963 24.45 21.6963H25.1747C25.2693 21.6963 25.3638 21.6018 25.3638 21.5072V18.5453C25.5213 18.4823 25.7419 18.4507 25.8995 18.4507C26.3721 18.4507 26.5612 18.6713 26.5612 19.207V21.2552C26.5927 21.4757 26.7818 21.6963 27.0338 21.6963ZM31.7919 19.0494V20.2153C31.7919 21.1921 31.1302 21.7908 30.0273 21.7908C28.956 21.7908 28.2627 21.1921 28.2627 20.2153V19.0494C28.2627 18.0726 28.9245 17.4739 30.0273 17.4739C31.1302 17.4739 31.7919 18.0726 31.7919 19.0494ZM30.689 19.0494C30.689 18.6713 30.4685 18.4192 30.0588 18.4192C29.6492 18.4192 29.4286 18.6398 29.4286 19.0494V20.2153C29.4286 20.5934 29.6492 20.814 30.0588 20.814C30.4685 20.814 30.689 20.5934 30.689 20.2153V19.0494ZM23.6622 18.5138C23.6622 19.5221 22.906 20.2153 21.8977 20.2153C21.6456 20.2153 21.425 20.1838 21.2044 20.0893V21.5072C21.2044 21.6018 21.1099 21.6963 21.0154 21.6963H20.2906C20.1961 21.6963 20.1016 21.6018 20.1016 21.5072V16.4971C20.1016 16.3711 20.1961 16.2765 20.2906 16.245C20.7633 16.0875 21.2359 15.9929 21.7401 15.9929C22.8745 15.9929 23.6622 16.6862 23.6622 17.7575V18.5138ZM22.5279 17.6945C22.5279 17.1903 22.1812 16.9382 21.7086 16.9382C21.425 16.9382 21.2359 17.0328 21.2359 17.0328V19.1125C21.425 19.207 21.5195 19.2385 21.7401 19.2385C22.2128 19.2385 22.5594 18.9549 22.5594 18.4823V17.6945H22.5279ZM44.0179 18.5138C44.0179 19.5221 43.2617 20.2153 42.2533 20.2153C42.0013 20.2153 41.7807 20.1838 41.5601 20.0893V21.5072C41.5601 21.6018 41.4656 21.6963 41.3711 21.6963H40.6463C40.5518 21.6963 40.4573 21.6018 40.4573 21.5072V16.4971C40.4573 16.3711 40.5518 16.2765 40.6463 16.245C41.119 16.0875 41.5916 15.9929 42.0958 15.9929C43.2302 15.9929 44.0179 16.6862 44.0179 17.7575V18.5138ZM42.8835 17.6945C42.8835 17.1903 42.5369 16.9382 42.0643 16.9382C41.7807 16.9382 41.5916 17.0328 41.5916 17.0328V19.1125C41.7807 19.207 41.8752 19.2385 42.0958 19.2385C42.5684 19.2385 42.9151 18.9549 42.9151 18.4823V17.6945H42.8835Z" fill="#5F259F"/>
<path d="M14.431 16.5284C14.431 16.3078 14.2419 16.1187 14.0213 16.1187H13.2651L11.532 14.1336C11.3745 13.9445 11.1224 13.8815 10.8703 13.9445L10.2716 14.1336C10.1771 14.1651 10.1456 14.2911 10.2086 14.3542L12.0992 16.1503H9.23177C9.13724 16.1503 9.07422 16.2133 9.07422 16.3078V16.6229C9.07422 16.8435 9.26328 17.0325 9.48385 17.0325H9.925V18.545C9.925 19.6794 10.5237 20.3411 11.532 20.3411C11.8471 20.3411 12.0992 20.3096 12.4143 20.1836V21.1919C12.4143 21.4755 12.6349 21.6961 12.9185 21.6961H13.3596C13.4542 21.6961 13.5487 21.6015 13.5487 21.507V17.001H14.2734C14.368 17.001 14.431 16.938 14.431 16.8435V16.5284ZM12.4143 19.2383C12.2253 19.3328 11.9732 19.3643 11.7841 19.3643C11.2799 19.3643 11.0279 19.1122 11.0279 18.545V17.0325H12.4143V19.2383Z" fill="white"/>
</svg>
