<svg width="66" height="56" viewBox="0 0 66 56" fill="none" xmlns="http://www.w3.org/2000/svg">
<g clip-path="url(#clip0_1021_29033)">
<path d="M60.2429 6.49546C60.008 6.32099 59.6661 6.30146 59.4127 6.44729C59.0761 5.77675 58.1389 5.47989 57.4696 5.83404C57.2954 5.11141 56.5733 4.55545 55.8196 4.56456C55.0659 4.57368 54.3584 5.14657 54.2013 5.8731C54.1762 5.98898 54.1604 6.11527 54.0759 6.1999C53.9399 6.33662 53.7129 6.29105 53.5189 6.27542C52.909 6.22855 52.2952 6.6504 52.1289 7.23241L60.5294 7.20246C60.6033 6.92253 60.4766 6.67124 60.2416 6.49677L60.2429 6.49546Z" fill="#E6E6E6"/>
<path d="M18.6522 4.45574C18.3697 4.24481 17.9579 4.22138 17.6516 4.39845C17.2464 3.5899 16.1165 3.23314 15.3113 3.6589C15.1014 2.78785 14.2315 2.11861 13.3233 2.12903C12.4165 2.13944 11.5625 2.82951 11.3737 3.70447C11.3433 3.84379 11.3235 3.99613 11.2232 4.09768C11.0595 4.26304 10.7863 4.20705 10.5527 4.18883C9.81743 4.13284 9.07823 4.64063 8.87891 5.34112L18.9993 5.30466C19.0878 4.96613 18.936 4.66406 18.6535 4.45444L18.6522 4.45574Z" fill="#E6E6E6"/>
<path d="M29.0517 9.18293C28.7811 8.98112 28.3851 8.95768 28.0921 9.12695C27.7027 8.35224 26.6203 8.00981 25.8468 8.41865C25.6448 7.58405 24.8106 6.94215 23.9407 6.95127C23.0708 6.96168 22.2524 7.62311 22.0703 8.46292C22.0412 8.59572 22.0227 8.74285 21.9251 8.8405C21.768 8.99935 21.5053 8.94597 21.2809 8.92904C20.576 8.87436 19.8672 9.36261 19.6758 10.0345L29.3817 9.9993C29.4662 9.6751 29.321 9.38475 29.0491 9.18293H29.0517Z" fill="#E6E6E6"/>
<path d="M41.9396 4.19206C41.7601 4.05795 41.4987 4.04363 41.306 4.15561C41.0486 3.64261 40.3332 3.41736 39.821 3.68688C39.6877 3.13482 39.1359 2.71036 38.5604 2.71687C37.9849 2.72338 37.4437 3.16086 37.3235 3.71682C37.3051 3.80536 37.2919 3.90171 37.2285 3.96551C37.1242 4.06967 36.9513 4.03452 36.8035 4.0241C36.3375 3.98764 35.8689 4.31055 35.7422 4.75454L42.16 4.7311C42.2168 4.51627 42.1191 4.32487 41.9409 4.19206H41.9396Z" fill="#F5F5F5"/>
<path d="M17.0163 12.9694C16.8685 12.8587 16.652 12.8457 16.4909 12.9395C16.2784 12.515 15.6844 12.3275 15.262 12.5515C15.1511 12.0944 14.6944 11.7429 14.2179 11.7481C13.7414 11.7533 13.2926 12.1166 13.1936 12.5762C13.1777 12.6491 13.1672 12.7298 13.1144 12.7832C13.0286 12.8704 12.8847 12.8405 12.7619 12.8314C12.3765 12.8014 11.9871 13.0684 11.8828 13.4368L17.1985 13.4173C17.2447 13.2402 17.1655 13.0814 17.0163 12.9707V12.9694Z" fill="#F5F5F5"/>
<path d="M62.3394 22.2127V26.2997H60.8795V24.792H60.1892V19.2453H59.7747V19.1477H59.083V13.6011H58.5906V14.4187H50.4951V11.9384H49.1144V3.13281H48.5718V11.9384H46.6473V14.4187H45.7602V26.094H41.6168V22.5902H43.0978V21.9106H41.6168V21.0356H37.6726V12.0829H36.6866V10.7223H32.0507V12.0829H31.3604V24.4391H29.189V30.1797H28.0788V25.607H27.1416V24.4391H24.9716V20.451H23.7822V17.6295H22.3223V13.5177H21.8022V17.6295H20.3397V20.451H19.1517V24.4391H16.9816V25.607H16.0444V30.1797H14.6214V18.1647H14.0974V22.2517H12.2256V30.1797H11.5353V15.0997H10.8436V9.55309H10.3512V11.5165L6.79121 13.1545V15.0997H5.12273V30.1797H3.97037V34.5181H3.17969V43.6192L62.8622 43.7234V22.2127H62.3394Z" fill="#E6E6E6"/>
<path d="M54.0753 14.9639H53.5156V15.5159H54.0753V14.9639Z" fill="white"/>
<path d="M54.0753 15.8877H53.5156V16.4398H54.0753V15.8877Z" fill="white"/>
<path d="M54.0753 19.585H53.5156V20.137H54.0753V19.585Z" fill="white"/>
<path d="M54.0753 20.5088H53.5156V21.0608H54.0753V20.5088Z" fill="white"/>
<path d="M54.0753 21.4336H53.5156V21.9857H54.0753V21.4336Z" fill="white"/>
<path d="M54.0753 24.2061H53.5156V24.7581H54.0753V24.2061Z" fill="white"/>
<path d="M54.0753 25.1318H53.5156V25.6839H54.0753V25.1318Z" fill="white"/>
<path d="M53.1847 18.6621H52.625V19.2142H53.1847V18.6621Z" fill="white"/>
<path d="M53.1847 19.585H52.625V20.137H53.1847V19.585Z" fill="white"/>
<path d="M53.1847 20.5088H52.625V21.0608H53.1847V20.5088Z" fill="white"/>
<path d="M53.1847 21.4336H52.625V21.9857H53.1847V21.4336Z" fill="white"/>
<path d="M53.1847 22.3574H52.625V22.9095H53.1847V22.3574Z" fill="white"/>
<path d="M53.1847 24.2061H52.625V24.7581H53.1847V24.2061Z" fill="white"/>
<path d="M53.1847 25.1318H52.625V25.6839H53.1847V25.1318Z" fill="white"/>
<path d="M52.298 14.9639H51.7383V15.5159H52.298V14.9639Z" fill="white"/>
<path d="M52.298 15.8877H51.7383V16.4398H52.298V15.8877Z" fill="white"/>
<path d="M52.298 16.8135H51.7383V17.3655H52.298V16.8135Z" fill="white"/>
<path d="M52.298 17.7363H51.7383V18.2884H52.298V17.7363Z" fill="white"/>
<path d="M52.298 18.6621H51.7383V19.2142H52.298V18.6621Z" fill="white"/>
<path d="M52.298 19.585H51.7383V20.137H52.298V19.585Z" fill="white"/>
<path d="M52.298 20.5088H51.7383V21.0608H52.298V20.5088Z" fill="white"/>
<path d="M52.298 21.4336H51.7383V21.9857H52.298V21.4336Z" fill="white"/>
<path d="M52.298 22.3574H51.7383V22.9095H52.298V22.3574Z" fill="white"/>
<path d="M52.298 23.2832H51.7383V23.8353H52.298V23.2832Z" fill="white"/>
<path d="M52.298 25.1318H51.7383V25.6839H52.298V25.1318Z" fill="white"/>
<path d="M51.4112 14.9639H50.8516V15.5159H51.4112V14.9639Z" fill="white"/>
<path d="M51.4112 15.8877H50.8516V16.4398H51.4112V15.8877Z" fill="white"/>
<path d="M51.4112 16.8135H50.8516V17.3655H51.4112V16.8135Z" fill="white"/>
<path d="M51.4112 17.7363H50.8516V18.2884H51.4112V17.7363Z" fill="white"/>
<path d="M51.4112 18.6621H50.8516V19.2142H51.4112V18.6621Z" fill="white"/>
<path d="M51.4112 19.585H50.8516V20.137H51.4112V19.585Z" fill="white"/>
<path d="M51.4112 20.5088H50.8516V21.0608H51.4112V20.5088Z" fill="white"/>
<path d="M51.4112 28.8281H50.8516V29.3802H51.4112V28.8281Z" fill="white"/>
<path d="M50.5245 14.9639H49.9648V15.5159H50.5245V14.9639Z" fill="white"/>
<path d="M50.5245 15.8877H49.9648V16.4398H50.5245V15.8877Z" fill="white"/>
<path d="M50.5245 16.8135H49.9648V17.3655H50.5245V16.8135Z" fill="white"/>
<path d="M50.5245 17.7363H49.9648V18.2884H50.5245V17.7363Z" fill="white"/>
<path d="M50.5245 18.6621H49.9648V19.2142H50.5245V18.6621Z" fill="white"/>
<path d="M50.5245 19.585H49.9648V20.137H50.5245V19.585Z" fill="white"/>
<path d="M50.5245 20.5088H49.9648V21.0608H50.5245V20.5088Z" fill="white"/>
<path d="M50.5245 21.4336H49.9648V21.9857H50.5245V21.4336Z" fill="white"/>
<path d="M50.5245 26.9795H49.9648V27.5315H50.5245V26.9795Z" fill="white"/>
<path d="M50.5245 27.9033H49.9648V28.4554H50.5245V27.9033Z" fill="white"/>
<path d="M50.5245 28.8281H49.9648V29.3802H50.5245V28.8281Z" fill="white"/>
<path d="M50.5245 29.7529H49.9648V30.305H50.5245V29.7529Z" fill="white"/>
<path d="M50.5245 33.4492H49.9648V34.0013H50.5245V33.4492Z" fill="white"/>
<path d="M49.6339 14.9639H49.0742V15.5159H49.6339V14.9639Z" fill="white"/>
<path d="M49.6339 15.8877H49.0742V16.4398H49.6339V15.8877Z" fill="white"/>
<path d="M49.6339 16.8135H49.0742V17.3655H49.6339V16.8135Z" fill="white"/>
<path d="M49.6339 17.7363H49.0742V18.2884H49.6339V17.7363Z" fill="white"/>
<path d="M49.6339 18.6621H49.0742V19.2142H49.6339V18.6621Z" fill="white"/>
<path d="M49.6339 19.585H49.0742V20.137H49.6339V19.585Z" fill="white"/>
<path d="M49.6339 20.5088H49.0742V21.0608H49.6339V20.5088Z" fill="white"/>
<path d="M49.6339 21.4336H49.0742V21.9857H49.6339V21.4336Z" fill="white"/>
<path d="M49.6339 22.3574H49.0742V22.9095H49.6339V22.3574Z" fill="white"/>
<path d="M49.6339 23.2832H49.0742V23.8353H49.6339V23.2832Z" fill="white"/>
<path d="M49.6339 26.0547H49.0742V26.6067H49.6339V26.0547Z" fill="white"/>
<path d="M49.6339 26.9795H49.0742V27.5315H49.6339V26.9795Z" fill="white"/>
<path d="M49.6339 27.9033H49.0742V28.4554H49.6339V27.9033Z" fill="white"/>
<path d="M49.6339 28.8281H49.0742V29.3802H49.6339V28.8281Z" fill="white"/>
<path d="M49.6339 29.7529H49.0742V30.305H49.6339V29.7529Z" fill="white"/>
<path d="M49.6339 33.4492H49.0742V34.0013H49.6339V33.4492Z" fill="white"/>
<path d="M48.7472 14.9639H48.1875V15.5159H48.7472V14.9639Z" fill="white"/>
<path d="M48.7472 15.8877H48.1875V16.4398H48.7472V15.8877Z" fill="white"/>
<path d="M48.7472 16.8135H48.1875V17.3655H48.7472V16.8135Z" fill="white"/>
<path d="M48.7472 17.7363H48.1875V18.2884H48.7472V17.7363Z" fill="white"/>
<path d="M48.7472 18.6621H48.1875V19.2142H48.7472V18.6621Z" fill="white"/>
<path d="M48.7472 19.585H48.1875V20.137H48.7472V19.585Z" fill="white"/>
<path d="M48.7472 20.5088H48.1875V21.0608H48.7472V20.5088Z" fill="white"/>
<path d="M48.7472 21.4336H48.1875V21.9857H48.7472V21.4336Z" fill="white"/>
<path d="M48.7472 22.3574H48.1875V22.9095H48.7472V22.3574Z" fill="white"/>
<path d="M48.7472 23.2832H48.1875V23.8353H48.7472V23.2832Z" fill="white"/>
<path d="M48.7472 24.2061H48.1875V24.7581H48.7472V24.2061Z" fill="white"/>
<path d="M48.7472 25.1318H48.1875V25.6839H48.7472V25.1318Z" fill="white"/>
<path d="M48.7472 26.0547H48.1875V26.6067H48.7472V26.0547Z" fill="white"/>
<path d="M48.7472 26.9795H48.1875V27.5315H48.7472V26.9795Z" fill="white"/>
<path d="M48.7472 27.9033H48.1875V28.4554H48.7472V27.9033Z" fill="white"/>
<path d="M48.7472 28.8281H48.1875V29.3802H48.7472V28.8281Z" fill="white"/>
<path d="M48.7472 29.7529H48.1875V30.305H48.7472V29.7529Z" fill="white"/>
<path d="M48.7472 30.6768H48.1875V31.2288H48.7472V30.6768Z" fill="white"/>
<path d="M47.8605 14.9639H47.3008V15.5159H47.8605V14.9639Z" fill="white"/>
<path d="M47.8605 15.8877H47.3008V16.4398H47.8605V15.8877Z" fill="white"/>
<path d="M47.8605 16.8135H47.3008V17.3655H47.8605V16.8135Z" fill="white"/>
<path d="M47.8605 17.7363H47.3008V18.2884H47.8605V17.7363Z" fill="white"/>
<path d="M47.8605 18.6621H47.3008V19.2142H47.8605V18.6621Z" fill="white"/>
<path d="M47.8605 19.585H47.3008V20.137H47.8605V19.585Z" fill="white"/>
<path d="M47.8605 20.5088H47.3008V21.0608H47.8605V20.5088Z" fill="white"/>
<path d="M47.8605 21.4336H47.3008V21.9857H47.8605V21.4336Z" fill="white"/>
<path d="M47.8605 22.3574H47.3008V22.9095H47.8605V22.3574Z" fill="white"/>
<path d="M47.8605 23.2832H47.3008V23.8353H47.8605V23.2832Z" fill="white"/>
<path d="M47.8605 26.0547H47.3008V26.6067H47.8605V26.0547Z" fill="white"/>
<path d="M47.8605 26.9795H47.3008V27.5315H47.8605V26.9795Z" fill="white"/>
<path d="M47.8605 27.9033H47.3008V28.4554H47.8605V27.9033Z" fill="white"/>
<path d="M47.8605 28.8281H47.3008V29.3802H47.8605V28.8281Z" fill="white"/>
<path d="M46.9737 14.9639H46.4141V15.5159H46.9737V14.9639Z" fill="white"/>
<path d="M46.9737 15.8877H46.4141V16.4398H46.9737V15.8877Z" fill="white"/>
<path d="M46.9737 16.8135H46.4141V17.3655H46.9737V16.8135Z" fill="white"/>
<path d="M46.9737 17.7363H46.4141V18.2884H46.9737V17.7363Z" fill="white"/>
<path d="M46.9737 18.6621H46.4141V19.2142H46.9737V18.6621Z" fill="white"/>
<path d="M46.9737 19.585H46.4141V20.137H46.9737V19.585Z" fill="white"/>
<path d="M46.9737 20.5088H46.4141V21.0608H46.9737V20.5088Z" fill="white"/>
<path d="M46.9737 21.4336H46.4141V21.9857H46.9737V21.4336Z" fill="white"/>
<path d="M46.9737 22.3574H46.4141V22.9095H46.9737V22.3574Z" fill="white"/>
<path d="M46.9737 23.2832H46.4141V23.8353H46.9737V23.2832Z" fill="white"/>
<path d="M46.9737 26.0547H46.4141V26.6067H46.9737V26.0547Z" fill="white"/>
<path d="M46.9737 26.9795H46.4141V27.5315H46.9737V26.9795Z" fill="white"/>
<path d="M46.9737 27.9033H46.4141V28.4554H46.9737V27.9033Z" fill="white"/>
<path d="M36.9776 12.5635H36.418V13.1155H36.9776V12.5635Z" fill="white"/>
<path d="M36.9776 13.4893H36.418V14.0413H36.9776V13.4893Z" fill="white"/>
<path d="M36.9776 14.4121H36.418V14.9642H36.9776V14.4121Z" fill="white"/>
<path d="M36.9776 15.3379H36.418V15.8899H36.9776V15.3379Z" fill="white"/>
<path d="M36.9776 16.2607H36.418V16.8128H36.9776V16.2607Z" fill="white"/>
<path d="M36.9776 17.1846H36.418V17.7366H36.9776V17.1846Z" fill="white"/>
<path d="M36.9776 18.1104H36.418V18.6624H36.9776V18.1104Z" fill="white"/>
<path d="M36.9776 19.0332H36.418V19.5853H36.9776V19.0332Z" fill="white"/>
<path d="M36.9776 21.8076H36.418V22.3597H36.9776V21.8076Z" fill="white"/>
<path d="M36.9776 22.7305H36.418V23.2825H36.9776V22.7305Z" fill="white"/>
<path d="M36.0909 12.5635H35.5312V13.1155H36.0909V12.5635Z" fill="white"/>
<path d="M36.0909 13.4893H35.5312V14.0413H36.0909V13.4893Z" fill="white"/>
<path d="M36.0909 14.4121H35.5312V14.9642H36.0909V14.4121Z" fill="white"/>
<path d="M36.0909 15.3379H35.5312V15.8899H36.0909V15.3379Z" fill="white"/>
<path d="M36.0909 16.2607H35.5312V16.8128H36.0909V16.2607Z" fill="white"/>
<path d="M36.0909 17.1846H35.5312V17.7366H36.0909V17.1846Z" fill="white"/>
<path d="M36.0909 18.1104H35.5312V18.6624H36.0909V18.1104Z" fill="white"/>
<path d="M36.0909 19.0332H35.5312V19.5853H36.0909V19.0332Z" fill="white"/>
<path d="M36.0909 22.7305H35.5312V23.2825H36.0909V22.7305Z" fill="white"/>
<path d="M35.2003 12.5635H34.6406V13.1155H35.2003V12.5635Z" fill="white"/>
<path d="M35.2003 13.4893H34.6406V14.0413H35.2003V13.4893Z" fill="white"/>
<path d="M35.2003 14.4121H34.6406V14.9642H35.2003V14.4121Z" fill="white"/>
<path d="M35.2003 15.3379H34.6406V15.8899H35.2003V15.3379Z" fill="white"/>
<path d="M35.2003 16.2607H34.6406V16.8128H35.2003V16.2607Z" fill="white"/>
<path d="M35.2003 17.1846H34.6406V17.7366H35.2003V17.1846Z" fill="white"/>
<path d="M35.2003 18.1104H34.6406V18.6624H35.2003V18.1104Z" fill="white"/>
<path d="M35.2003 19.0332H34.6406V19.5853H35.2003V19.0332Z" fill="white"/>
<path d="M34.3136 12.5635H33.7539V13.1155H34.3136V12.5635Z" fill="white"/>
<path d="M34.3136 13.4893H33.7539V14.0413H34.3136V13.4893Z" fill="white"/>
<path d="M34.3136 14.4121H33.7539V14.9642H34.3136V14.4121Z" fill="white"/>
<path d="M34.3136 15.3379H33.7539V15.8899H34.3136V15.3379Z" fill="white"/>
<path d="M34.3136 16.2607H33.7539V16.8128H34.3136V16.2607Z" fill="white"/>
<path d="M34.3136 17.1846H33.7539V17.7366H34.3136V17.1846Z" fill="white"/>
<path d="M34.3136 19.0332H33.7539V19.5853H34.3136V19.0332Z" fill="white"/>
<path d="M34.3136 19.959H33.7539V20.511H34.3136V19.959Z" fill="white"/>
<path d="M34.3136 22.7305H33.7539V23.2825H34.3136V22.7305Z" fill="white"/>
<path d="M34.3136 23.6553H33.7539V24.2073H34.3136V23.6553Z" fill="white"/>
<path d="M34.3136 24.5801H33.7539V25.1321H34.3136V24.5801Z" fill="white"/>
<path d="M34.3136 25.5039H33.7539V26.056H34.3136V25.5039Z" fill="white"/>
<path d="M34.3136 26.4287H33.7539V26.9808H34.3136V26.4287Z" fill="white"/>
<path d="M34.3136 27.3535H33.7539V27.9056H34.3136V27.3535Z" fill="white"/>
<path d="M34.3136 28.2764H33.7539V28.8284H34.3136V28.2764Z" fill="white"/>
<path d="M33.4269 12.5635H32.8672V13.1155H33.4269V12.5635Z" fill="white"/>
<path d="M33.4269 13.4893H32.8672V14.0413H33.4269V13.4893Z" fill="white"/>
<path d="M33.4269 14.4121H32.8672V14.9642H33.4269V14.4121Z" fill="white"/>
<path d="M33.4269 15.3379H32.8672V15.8899H33.4269V15.3379Z" fill="white"/>
<path d="M33.4269 16.2607H32.8672V16.8128H33.4269V16.2607Z" fill="white"/>
<path d="M33.4269 17.1846H32.8672V17.7366H33.4269V17.1846Z" fill="white"/>
<path d="M33.4269 19.959H32.8672V20.511H33.4269V19.959Z" fill="white"/>
<path d="M33.4269 20.8818H32.8672V21.4339H33.4269V20.8818Z" fill="white"/>
<path d="M33.4269 21.8076H32.8672V22.3597H33.4269V21.8076Z" fill="white"/>
<path d="M33.4269 22.7305H32.8672V23.2825H33.4269V22.7305Z" fill="white"/>
<path d="M33.4269 23.6553H32.8672V24.2073H33.4269V23.6553Z" fill="white"/>
<path d="M33.4269 24.5801H32.8672V25.1321H33.4269V24.5801Z" fill="white"/>
<path d="M33.4269 25.5039H32.8672V26.056H33.4269V25.5039Z" fill="white"/>
<path d="M33.4269 26.4287H32.8672V26.9808H33.4269V26.4287Z" fill="white"/>
<path d="M33.4269 27.3535H32.8672V27.9056H33.4269V27.3535Z" fill="white"/>
<path d="M33.4269 28.2764H32.8672V28.8284H33.4269V28.2764Z" fill="white"/>
<path d="M33.4269 29.2021H32.8672V29.7542H33.4269V29.2021Z" fill="white"/>
<path d="M33.4269 31.0508H32.8672V31.6028H33.4269V31.0508Z" fill="white"/>
<path d="M32.5362 12.5635H31.9766V13.1155H32.5362V12.5635Z" fill="white"/>
<path d="M32.5362 13.4893H31.9766V14.0413H32.5362V13.4893Z" fill="white"/>
<path d="M32.5362 14.4121H31.9766V14.9642H32.5362V14.4121Z" fill="white"/>
<path d="M32.5362 15.3379H31.9766V15.8899H32.5362V15.3379Z" fill="white"/>
<path d="M32.5362 16.2607H31.9766V16.8128H32.5362V16.2607Z" fill="white"/>
<path d="M32.5362 17.1846H31.9766V17.7366H32.5362V17.1846Z" fill="white"/>
<path d="M32.5362 19.959H31.9766V20.511H32.5362V19.959Z" fill="white"/>
<path d="M32.5362 20.8818H31.9766V21.4339H32.5362V20.8818Z" fill="white"/>
<path d="M32.5362 21.8076H31.9766V22.3597H32.5362V21.8076Z" fill="white"/>
<path d="M32.5362 22.7305H31.9766V23.2825H32.5362V22.7305Z" fill="white"/>
<path d="M32.5362 25.5039H31.9766V26.056H32.5362V25.5039Z" fill="white"/>
<path d="M32.5362 26.4287H31.9766V26.9808H32.5362V26.4287Z" fill="white"/>
<path d="M32.5362 27.3535H31.9766V27.9056H32.5362V27.3535Z" fill="white"/>
<path d="M32.5362 28.2764H31.9766V28.8284H32.5362V28.2764Z" fill="white"/>
<path d="M32.5362 29.2021H31.9766V29.7542H32.5362V29.2021Z" fill="white"/>
<path d="M32.5362 31.0508H31.9766V31.6028H32.5362V31.0508Z" fill="white"/>
<path d="M32.5362 31.9736H31.9766V32.5257H32.5362V31.9736Z" fill="white"/>
<path d="M24.4816 21.1582H23.9219V21.7103H24.4816V21.1582Z" fill="white"/>
<path d="M24.4816 22.082H23.9219V22.6341H24.4816V22.082Z" fill="white"/>
<path d="M24.4816 23.0068H23.9219V23.5589H24.4816V23.0068Z" fill="white"/>
<path d="M24.4816 23.9316H23.9219V24.4837H24.4816V23.9316Z" fill="white"/>
<path d="M24.4816 24.8555H23.9219V25.4075H24.4816V24.8555Z" fill="white"/>
<path d="M24.4816 25.7803H23.9219V26.3323H24.4816V25.7803Z" fill="white"/>
<path d="M24.4816 26.7051H23.9219V27.2571H24.4816V26.7051Z" fill="white"/>
<path d="M24.4816 29.4766H23.9219V30.0286H24.4816V29.4766Z" fill="white"/>
<path d="M24.4816 30.4023H23.9219V30.9544H24.4816V30.4023Z" fill="white"/>
<path d="M24.4816 31.3252H23.9219V31.8773H24.4816V31.3252Z" fill="white"/>
<path d="M23.5948 21.1582H23.0352V21.7103H23.5948V21.1582Z" fill="white"/>
<path d="M23.5948 22.082H23.0352V22.6341H23.5948V22.082Z" fill="white"/>
<path d="M23.5948 23.0068H23.0352V23.5589H23.5948V23.0068Z" fill="white"/>
<path d="M23.5948 23.9316H23.0352V24.4837H23.5948V23.9316Z" fill="white"/>
<path d="M23.5948 24.8555H23.0352V25.4075H23.5948V24.8555Z" fill="white"/>
<path d="M23.5948 25.7803H23.0352V26.3323H23.5948V25.7803Z" fill="white"/>
<path d="M23.5948 26.7051H23.0352V27.2571H23.5948V26.7051Z" fill="white"/>
<path d="M22.7081 21.1582H22.1484V21.7103H22.7081V21.1582Z" fill="white"/>
<path d="M22.7081 22.082H22.1484V22.6341H22.7081V22.082Z" fill="white"/>
<path d="M22.7081 23.0068H22.1484V23.5589H22.7081V23.0068Z" fill="white"/>
<path d="M22.7081 23.9316H22.1484V24.4837H22.7081V23.9316Z" fill="white"/>
<path d="M22.7081 24.8555H22.1484V25.4075H22.7081V24.8555Z" fill="white"/>
<path d="M22.7081 25.7803H22.1484V26.3323H22.7081V25.7803Z" fill="white"/>
<path d="M22.7081 26.7051H22.1484V27.2571H22.7081V26.7051Z" fill="white"/>
<path d="M21.8175 21.1582H21.2578V21.7103H21.8175V21.1582Z" fill="white"/>
<path d="M21.8175 22.082H21.2578V22.6341H21.8175V22.082Z" fill="white"/>
<path d="M21.8175 23.0068H21.2578V23.5589H21.8175V23.0068Z" fill="white"/>
<path d="M21.8175 23.9316H21.2578V24.4837H21.8175V23.9316Z" fill="white"/>
<path d="M21.8175 24.8555H21.2578V25.4075H21.8175V24.8555Z" fill="white"/>
<path d="M21.8175 25.7803H21.2578V26.3323H21.8175V25.7803Z" fill="white"/>
<path d="M21.8175 26.7051H21.2578V27.2571H21.8175V26.7051Z" fill="white"/>
<path d="M21.8175 27.6279H21.2578V28.18H21.8175V27.6279Z" fill="white"/>
<path d="M21.8175 28.5537H21.2578V29.1058H21.8175V28.5537Z" fill="white"/>
<path d="M21.8175 29.4766H21.2578V30.0286H21.8175V29.4766Z" fill="white"/>
<path d="M21.8175 30.4023H21.2578V30.9544H21.8175V30.4023Z" fill="white"/>
<path d="M20.9308 21.1582H20.3711V21.7103H20.9308V21.1582Z" fill="white"/>
<path d="M20.9308 22.082H20.3711V22.6341H20.9308V22.082Z" fill="white"/>
<path d="M20.9308 23.0068H20.3711V23.5589H20.9308V23.0068Z" fill="white"/>
<path d="M20.9308 23.9316H20.3711V24.4837H20.9308V23.9316Z" fill="white"/>
<path d="M20.9308 24.8555H20.3711V25.4075H20.9308V24.8555Z" fill="white"/>
<path d="M20.9308 25.7803H20.3711V26.3323H20.9308V25.7803Z" fill="white"/>
<path d="M20.9308 26.7051H20.3711V27.2571H20.9308V26.7051Z" fill="white"/>
<path d="M20.9308 27.6279H20.3711V28.18H20.9308V27.6279Z" fill="white"/>
<path d="M20.9308 28.5537H20.3711V29.1058H20.9308V28.5537Z" fill="white"/>
<path d="M20.9308 29.4766H20.3711V30.0286H20.9308V29.4766Z" fill="white"/>
<path d="M20.9308 30.4023H20.3711V30.9544H20.9308V30.4023Z" fill="white"/>
<path d="M20.9308 31.3252H20.3711V31.8773H20.9308V31.3252Z" fill="white"/>
<path d="M20.9308 34.0977H20.3711V34.6497H20.9308V34.0977Z" fill="white"/>
<path d="M20.9308 35.0234H20.3711V35.5755H20.9308V35.0234Z" fill="white"/>
<path d="M20.0441 21.1582H19.4844V21.7103H20.0441V21.1582Z" fill="white"/>
<path d="M20.0441 22.082H19.4844V22.6341H20.0441V22.082Z" fill="white"/>
<path d="M20.0441 23.0068H19.4844V23.5589H20.0441V23.0068Z" fill="white"/>
<path d="M20.0441 25.7803H19.4844V26.3323H20.0441V25.7803Z" fill="white"/>
<path d="M20.0441 26.7051H19.4844V27.2571H20.0441V26.7051Z" fill="white"/>
<path d="M20.0441 27.6279H19.4844V28.18H20.0441V27.6279Z" fill="white"/>
<path d="M20.0441 28.5537H19.4844V29.1058H20.0441V28.5537Z" fill="white"/>
<path d="M20.0441 29.4766H19.4844V30.0286H20.0441V29.4766Z" fill="white"/>
<path d="M20.0441 30.4023H19.4844V30.9544H20.0441V30.4023Z" fill="white"/>
<path d="M20.0441 31.3252H19.4844V31.8773H20.0441V31.3252Z" fill="white"/>
<path d="M20.0441 34.0977H19.4844V34.6497H20.0441V34.0977Z" fill="white"/>
<path d="M20.0441 35.0234H19.4844V35.5755H20.0441V35.0234Z" fill="white"/>
<path d="M20.0441 35.9463H19.4844V36.4983H20.0441V35.9463Z" fill="white"/>
<path d="M10.7394 15.6123H10.1797V16.1644H10.7394V15.6123Z" fill="white"/>
<path d="M10.7394 16.5361H10.1797V17.0882H10.7394V16.5361Z" fill="white"/>
<path d="M10.7394 17.4619H10.1797V18.014H10.7394V17.4619Z" fill="white"/>
<path d="M10.7394 18.3848H10.1797V18.9368H10.7394V18.3848Z" fill="white"/>
<path d="M10.7394 19.3105H10.1797V19.8626H10.7394V19.3105Z" fill="white"/>
<path d="M10.7394 20.2334H10.1797V20.7855H10.7394V20.2334Z" fill="white"/>
<path d="M10.7394 21.1582H10.1797V21.7103H10.7394V21.1582Z" fill="white"/>
<path d="M10.7394 22.082H10.1797V22.6341H10.7394V22.082Z" fill="white"/>
<path d="M10.7394 23.0068H10.1797V23.5589H10.7394V23.0068Z" fill="white"/>
<path d="M10.7394 23.9316H10.1797V24.4837H10.7394V23.9316Z" fill="white"/>
<path d="M10.7394 24.8555H10.1797V25.4075H10.7394V24.8555Z" fill="white"/>
<path d="M10.7394 25.7803H10.1797V26.3323H10.7394V25.7803Z" fill="white"/>
<path d="M10.7394 26.7051H10.1797V27.2571H10.7394V26.7051Z" fill="white"/>
<path d="M10.7394 27.6279H10.1797V28.18H10.7394V27.6279Z" fill="white"/>
<path d="M10.7394 28.5537H10.1797V29.1058H10.7394V28.5537Z" fill="white"/>
<path d="M10.7394 29.4766H10.1797V30.0286H10.7394V29.4766Z" fill="white"/>
<path d="M10.7394 30.4023H10.1797V30.9544H10.7394V30.4023Z" fill="white"/>
<path d="M10.7394 31.3252H10.1797V31.8773H10.7394V31.3252Z" fill="white"/>
<path d="M10.7394 32.249H10.1797V32.8011H10.7394V32.249Z" fill="white"/>
<path d="M10.7394 33.1748H10.1797V33.7269H10.7394V33.1748Z" fill="white"/>
<path d="M10.7394 34.0977H10.1797V34.6497H10.7394V34.0977Z" fill="white"/>
<path d="M10.7394 35.0234H10.1797V35.5755H10.7394V35.0234Z" fill="white"/>
<path d="M10.7394 35.9463H10.1797V36.4983H10.7394V35.9463Z" fill="white"/>
<path d="M9.85265 15.6123H9.29297V16.1644H9.85265V15.6123Z" fill="white"/>
<path d="M9.85265 16.5361H9.29297V17.0882H9.85265V16.5361Z" fill="white"/>
<path d="M9.85265 17.4619H9.29297V18.014H9.85265V17.4619Z" fill="white"/>
<path d="M9.85265 18.3848H9.29297V18.9368H9.85265V18.3848Z" fill="white"/>
<path d="M9.85265 19.3105H9.29297V19.8626H9.85265V19.3105Z" fill="white"/>
<path d="M9.85265 20.2334H9.29297V20.7855H9.85265V20.2334Z" fill="white"/>
<path d="M9.85265 21.1582H9.29297V21.7103H9.85265V21.1582Z" fill="white"/>
<path d="M9.85265 22.082H9.29297V22.6341H9.85265V22.082Z" fill="white"/>
<path d="M9.85265 23.0068H9.29297V23.5589H9.85265V23.0068Z" fill="white"/>
<path d="M9.85265 23.9316H9.29297V24.4837H9.85265V23.9316Z" fill="white"/>
<path d="M9.85265 24.8555H9.29297V25.4075H9.85265V24.8555Z" fill="white"/>
<path d="M9.85265 25.7803H9.29297V26.3323H9.85265V25.7803Z" fill="white"/>
<path d="M9.85265 26.7051H9.29297V27.2571H9.85265V26.7051Z" fill="white"/>
<path d="M9.85265 27.6279H9.29297V28.18H9.85265V27.6279Z" fill="white"/>
<path d="M9.85265 28.5537H9.29297V29.1058H9.85265V28.5537Z" fill="white"/>
<path d="M9.85265 29.4766H9.29297V30.0286H9.85265V29.4766Z" fill="white"/>
<path d="M9.85265 30.4023H9.29297V30.9544H9.85265V30.4023Z" fill="white"/>
<path d="M9.85265 31.3252H9.29297V31.8773H9.85265V31.3252Z" fill="white"/>
<path d="M9.85265 32.249H9.29297V32.8011H9.85265V32.249Z" fill="white"/>
<path d="M8.96593 15.6123H8.40625V16.1644H8.96593V15.6123Z" fill="white"/>
<path d="M8.96593 16.5361H8.40625V17.0882H8.96593V16.5361Z" fill="white"/>
<path d="M8.96593 17.4619H8.40625V18.014H8.96593V17.4619Z" fill="white"/>
<path d="M8.96593 18.3848H8.40625V18.9368H8.96593V18.3848Z" fill="white"/>
<path d="M8.96593 19.3105H8.40625V19.8626H8.96593V19.3105Z" fill="white"/>
<path d="M8.96593 20.2334H8.40625V20.7855H8.96593V20.2334Z" fill="white"/>
<path d="M8.96593 21.1582H8.40625V21.7103H8.96593V21.1582Z" fill="white"/>
<path d="M8.96593 22.082H8.40625V22.6341H8.96593V22.082Z" fill="white"/>
<path d="M8.96593 23.0068H8.40625V23.5589H8.96593V23.0068Z" fill="white"/>
<path d="M8.96593 23.9316H8.40625V24.4837H8.96593V23.9316Z" fill="white"/>
<path d="M8.96593 24.8555H8.40625V25.4075H8.96593V24.8555Z" fill="white"/>
<path d="M8.96593 25.7803H8.40625V26.3323H8.96593V25.7803Z" fill="white"/>
<path d="M8.96593 26.7051H8.40625V27.2571H8.96593V26.7051Z" fill="white"/>
<path d="M8.96593 27.6279H8.40625V28.18H8.96593V27.6279Z" fill="white"/>
<path d="M8.96593 28.5537H8.40625V29.1058H8.96593V28.5537Z" fill="white"/>
<path d="M8.96593 29.4766H8.40625V30.0286H8.96593V29.4766Z" fill="white"/>
<path d="M8.96593 30.4023H8.40625V30.9544H8.96593V30.4023Z" fill="white"/>
<path d="M8.96593 31.3252H8.40625V31.8773H8.96593V31.3252Z" fill="white"/>
<path d="M8.96593 32.249H8.40625V32.8011H8.96593V32.249Z" fill="white"/>
<path d="M8.07531 15.6123H7.51562V16.1644H8.07531V15.6123Z" fill="white"/>
<path d="M8.07531 16.5361H7.51562V17.0882H8.07531V16.5361Z" fill="white"/>
<path d="M8.07531 17.4619H7.51562V18.014H8.07531V17.4619Z" fill="white"/>
<path d="M8.07531 18.3848H7.51562V18.9368H8.07531V18.3848Z" fill="white"/>
<path d="M8.07531 19.3105H7.51562V19.8626H8.07531V19.3105Z" fill="white"/>
<path d="M8.07531 20.2334H7.51562V20.7855H8.07531V20.2334Z" fill="white"/>
<path d="M8.07531 21.1582H7.51562V21.7103H8.07531V21.1582Z" fill="white"/>
<path d="M8.07531 22.082H7.51562V22.6341H8.07531V22.082Z" fill="white"/>
<path d="M8.07531 23.0068H7.51562V23.5589H8.07531V23.0068Z" fill="white"/>
<path d="M8.07531 23.9316H7.51562V24.4837H8.07531V23.9316Z" fill="white"/>
<path d="M8.07531 24.8555H7.51562V25.4075H8.07531V24.8555Z" fill="white"/>
<path d="M8.07531 25.7803H7.51562V26.3323H8.07531V25.7803Z" fill="white"/>
<path d="M8.07531 26.7051H7.51562V27.2571H8.07531V26.7051Z" fill="white"/>
<path d="M8.07531 27.6279H7.51562V28.18H8.07531V27.6279Z" fill="white"/>
<path d="M8.07531 28.5537H7.51562V29.1058H8.07531V28.5537Z" fill="white"/>
<path d="M7.18859 15.6123H6.62891V16.1644H7.18859V15.6123Z" fill="white"/>
<path d="M7.18859 16.5361H6.62891V17.0882H7.18859V16.5361Z" fill="white"/>
<path d="M7.18859 17.4619H6.62891V18.014H7.18859V17.4619Z" fill="white"/>
<path d="M7.18859 18.3848H6.62891V18.9368H7.18859V18.3848Z" fill="white"/>
<path d="M7.18859 19.3105H6.62891V19.8626H7.18859V19.3105Z" fill="white"/>
<path d="M7.18859 20.2334H6.62891V20.7855H7.18859V20.2334Z" fill="white"/>
<path d="M7.18859 21.1582H6.62891V21.7103H7.18859V21.1582Z" fill="white"/>
<path d="M7.18859 22.082H6.62891V22.6341H7.18859V22.082Z" fill="white"/>
<path d="M7.18859 23.0068H6.62891V23.5589H7.18859V23.0068Z" fill="white"/>
<path d="M7.18859 23.9316H6.62891V24.4837H7.18859V23.9316Z" fill="white"/>
<path d="M7.18859 24.8555H6.62891V25.4075H7.18859V24.8555Z" fill="white"/>
<path d="M7.18859 25.7803H6.62891V26.3323H7.18859V25.7803Z" fill="white"/>
<path d="M7.18859 26.7051H6.62891V27.2571H7.18859V26.7051Z" fill="white"/>
<path d="M6.30187 15.6123H5.74219V16.1644H6.30187V15.6123Z" fill="white"/>
<path d="M6.30187 16.5361H5.74219V17.0882H6.30187V16.5361Z" fill="white"/>
<path d="M6.30187 17.4619H5.74219V18.014H6.30187V17.4619Z" fill="white"/>
<path d="M6.30187 18.3848H5.74219V18.9368H6.30187V18.3848Z" fill="white"/>
<path d="M6.30187 19.3105H5.74219V19.8626H6.30187V19.3105Z" fill="white"/>
<path d="M6.30187 20.2334H5.74219V20.7855H6.30187V20.2334Z" fill="white"/>
<path d="M6.30187 21.1582H5.74219V21.7103H6.30187V21.1582Z" fill="white"/>
<path d="M6.30187 22.082H5.74219V22.6341H6.30187V22.082Z" fill="white"/>
<path d="M6.30187 23.0068H5.74219V23.5589H6.30187V23.0068Z" fill="white"/>
<path d="M6.30187 23.9316H5.74219V24.4837H6.30187V23.9316Z" fill="white"/>
<path d="M6.30187 24.8555H5.74219V25.4075H6.30187V24.8555Z" fill="white"/>
<path d="M6.30187 25.7803H5.74219V26.3323H6.30187V25.7803Z" fill="white"/>
<path d="M58.1183 15.3379H57.5586V15.8899H58.1183V15.3379Z" fill="white"/>
<path d="M58.1183 16.2607H57.5586V16.8128H58.1183V16.2607Z" fill="white"/>
<path d="M58.1183 17.1846H57.5586V17.7366H58.1183V17.1846Z" fill="white"/>
<path d="M58.1183 18.1104H57.5586V18.6624H58.1183V18.1104Z" fill="white"/>
<path d="M58.1183 19.0332H57.5586V19.5853H58.1183V19.0332Z" fill="white"/>
<path d="M58.1183 19.959H57.5586V20.511H58.1183V19.959Z" fill="white"/>
<path d="M58.1183 20.8818H57.5586V21.4339H58.1183V20.8818Z" fill="white"/>
<path d="M58.1183 21.8076H57.5586V22.3597H58.1183V21.8076Z" fill="white"/>
<path d="M58.1183 22.7305H57.5586V23.2825H58.1183V22.7305Z" fill="white"/>
<path d="M58.1183 23.6553H57.5586V24.2073H58.1183V23.6553Z" fill="white"/>
<path d="M58.1183 24.5801H57.5586V25.1321H58.1183V24.5801Z" fill="white"/>
<path d="M58.1183 25.5039H57.5586V26.056H58.1183V25.5039Z" fill="white"/>
<path d="M58.1183 26.4287H57.5586V26.9808H58.1183V26.4287Z" fill="white"/>
<path d="M58.1183 27.3535H57.5586V27.9056H58.1183V27.3535Z" fill="white"/>
<path d="M58.1183 28.2764H57.5586V28.8284H58.1183V28.2764Z" fill="white"/>
<path d="M58.1183 29.2021H57.5586V29.7542H58.1183V29.2021Z" fill="white"/>
<path d="M58.1183 30.125H57.5586V30.6771H58.1183V30.125Z" fill="white"/>
<path d="M58.1183 31.9736H57.5586V32.5257H58.1183V31.9736Z" fill="white"/>
<path d="M58.1183 32.8994H57.5586V33.4515H58.1183V32.8994Z" fill="white"/>
<path d="M58.1183 33.8232H57.5586V34.3753H58.1183V33.8232Z" fill="white"/>
<path d="M58.1183 34.7461H57.5586V35.2982H58.1183V34.7461Z" fill="white"/>
<path d="M58.1183 35.6719H57.5586V36.2239H58.1183V35.6719Z" fill="white"/>
<path d="M57.2316 15.3379H56.6719V15.8899H57.2316V15.3379Z" fill="white"/>
<path d="M57.2316 16.2607H56.6719V16.8128H57.2316V16.2607Z" fill="white"/>
<path d="M57.2316 17.1846H56.6719V17.7366H57.2316V17.1846Z" fill="white"/>
<path d="M57.2316 18.1104H56.6719V18.6624H57.2316V18.1104Z" fill="white"/>
<path d="M57.2316 19.0332H56.6719V19.5853H57.2316V19.0332Z" fill="white"/>
<path d="M57.2316 19.959H56.6719V20.511H57.2316V19.959Z" fill="white"/>
<path d="M57.2316 20.8818H56.6719V21.4339H57.2316V20.8818Z" fill="white"/>
<path d="M57.2316 21.8076H56.6719V22.3597H57.2316V21.8076Z" fill="white"/>
<path d="M57.2316 22.7305H56.6719V23.2825H57.2316V22.7305Z" fill="white"/>
<path d="M57.2316 23.6553H56.6719V24.2073H57.2316V23.6553Z" fill="white"/>
<path d="M57.2316 24.5801H56.6719V25.1321H57.2316V24.5801Z" fill="white"/>
<path d="M57.2316 25.5039H56.6719V26.056H57.2316V25.5039Z" fill="white"/>
<path d="M57.2316 26.4287H56.6719V26.9808H57.2316V26.4287Z" fill="white"/>
<path d="M57.2316 27.3535H56.6719V27.9056H57.2316V27.3535Z" fill="white"/>
<path d="M57.2316 28.2764H56.6719V28.8284H57.2316V28.2764Z" fill="white"/>
<path d="M57.2316 29.2021H56.6719V29.7542H57.2316V29.2021Z" fill="white"/>
<path d="M57.2316 34.7461H56.6719V35.2982H57.2316V34.7461Z" fill="white"/>
<path d="M57.2316 35.6719H56.6719V36.2239H57.2316V35.6719Z" fill="white"/>
<path d="M56.3409 15.3379H55.7812V15.8899H56.3409V15.3379Z" fill="white"/>
<path d="M56.3409 16.2607H55.7812V16.8128H56.3409V16.2607Z" fill="white"/>
<path d="M56.3409 17.1846H55.7812V17.7366H56.3409V17.1846Z" fill="white"/>
<path d="M56.3409 18.1104H55.7812V18.6624H56.3409V18.1104Z" fill="white"/>
<path d="M56.3409 19.0332H55.7812V19.5853H56.3409V19.0332Z" fill="white"/>
<path d="M56.3409 19.959H55.7812V20.511H56.3409V19.959Z" fill="white"/>
<path d="M56.3409 20.8818H55.7812V21.4339H56.3409V20.8818Z" fill="white"/>
<path d="M56.3409 21.8076H55.7812V22.3597H56.3409V21.8076Z" fill="white"/>
<path d="M56.3409 22.7305H55.7812V23.2825H56.3409V22.7305Z" fill="white"/>
<path d="M56.3409 23.6553H55.7812V24.2073H56.3409V23.6553Z" fill="white"/>
<path d="M56.3409 24.5801H55.7812V25.1321H56.3409V24.5801Z" fill="white"/>
<path d="M56.3409 25.5039H55.7812V26.056H56.3409V25.5039Z" fill="white"/>
<path d="M56.3409 26.4287H55.7812V26.9808H56.3409V26.4287Z" fill="white"/>
<path d="M56.3409 27.3535H55.7812V27.9056H56.3409V27.3535Z" fill="white"/>
<path d="M56.3409 28.2764H55.7812V28.8284H56.3409V28.2764Z" fill="white"/>
<path d="M56.3409 29.2021H55.7812V29.7542H56.3409V29.2021Z" fill="white"/>
<path d="M56.3409 31.0508H55.7812V31.6028H56.3409V31.0508Z" fill="white"/>
<path d="M56.3409 31.9736H55.7812V32.5257H56.3409V31.9736Z" fill="white"/>
<path d="M56.3409 32.8994H55.7812V33.4515H56.3409V32.8994Z" fill="white"/>
<path d="M56.3409 33.8232H55.7812V34.3753H56.3409V33.8232Z" fill="white"/>
<path d="M56.3409 35.6719H55.7812V36.2239H56.3409V35.6719Z" fill="white"/>
<path d="M61.3409 26.9795H60.7812V27.5315H61.3409V26.9795Z" fill="white"/>
<path d="M61.3409 27.9033H60.7812V28.4554H61.3409V27.9033Z" fill="white"/>
<path d="M61.3409 28.8281H60.7812V29.3802H61.3409V28.8281Z" fill="white"/>
<path d="M61.3409 29.7529H60.7812V30.305H61.3409V29.7529Z" fill="white"/>
<path d="M61.3409 30.6768H60.7812V31.2288H61.3409V30.6768Z" fill="white"/>
<path d="M61.3409 31.6006H60.7812V32.1526H61.3409V31.6006Z" fill="white"/>
<path d="M61.3409 32.5264H60.7812V33.0784H61.3409V32.5264Z" fill="white"/>
<path d="M61.3409 34.375H60.7812V34.9271H61.3409V34.375Z" fill="white"/>
<path d="M61.3409 35.2979H60.7812V35.8499H61.3409V35.2979Z" fill="white"/>
<path d="M61.3409 36.2236H60.7812V36.7757H61.3409V36.2236Z" fill="white"/>
<path d="M61.3409 37.1465H60.7812V37.6985H61.3409V37.1465Z" fill="white"/>
<path d="M61.3409 38.0703H60.7812V38.6224H61.3409V38.0703Z" fill="white"/>
<path d="M61.3409 38.9961H60.7812V39.5482H61.3409V38.9961Z" fill="white"/>
<path d="M61.3409 39.9189H60.7812V40.471H61.3409V39.9189Z" fill="white"/>
<path d="M61.3409 40.8447H60.7812V41.3968H61.3409V40.8447Z" fill="white"/>
<path d="M60.4503 26.9795H59.8906V27.5315H60.4503V26.9795Z" fill="white"/>
<path d="M60.4503 27.9033H59.8906V28.4554H60.4503V27.9033Z" fill="white"/>
<path d="M60.4503 28.8281H59.8906V29.3802H60.4503V28.8281Z" fill="white"/>
<path d="M60.4503 29.7529H59.8906V30.305H60.4503V29.7529Z" fill="white"/>
<path d="M60.4503 30.6768H59.8906V31.2288H60.4503V30.6768Z" fill="white"/>
<path d="M60.4503 31.6006H59.8906V32.1526H60.4503V31.6006Z" fill="white"/>
<path d="M60.4503 34.375H59.8906V34.9271H60.4503V34.375Z" fill="white"/>
<path d="M60.4503 35.2979H59.8906V35.8499H60.4503V35.2979Z" fill="white"/>
<path d="M60.4503 36.2236H59.8906V36.7757H60.4503V36.2236Z" fill="white"/>
<path d="M60.4503 37.1465H59.8906V37.6985H60.4503V37.1465Z" fill="white"/>
<path d="M60.4503 38.0703H59.8906V38.6224H60.4503V38.0703Z" fill="white"/>
<path d="M60.4503 38.9961H59.8906V39.5482H60.4503V38.9961Z" fill="white"/>
<path d="M60.4503 39.9189H59.8906V40.471H60.4503V39.9189Z" fill="white"/>
<path d="M60.4503 40.8447H59.8906V41.3968H60.4503V40.8447Z" fill="white"/>
<path d="M59.5636 26.9795H59.0039V27.5315H59.5636V26.9795Z" fill="white"/>
<path d="M59.5636 27.9033H59.0039V28.4554H59.5636V27.9033Z" fill="white"/>
<path d="M59.5636 28.8281H59.0039V29.3802H59.5636V28.8281Z" fill="white"/>
<path d="M59.5636 29.7529H59.0039V30.305H59.5636V29.7529Z" fill="white"/>
<path d="M59.5636 30.6768H59.0039V31.2288H59.5636V30.6768Z" fill="white"/>
<path d="M59.5636 31.6006H59.0039V32.1526H59.5636V31.6006Z" fill="white"/>
<path d="M59.5636 33.4492H59.0039V34.0013H59.5636V33.4492Z" fill="white"/>
<path d="M59.5636 34.375H59.0039V34.9271H59.5636V34.375Z" fill="white"/>
<path d="M59.5636 35.2979H59.0039V35.8499H59.5636V35.2979Z" fill="white"/>
<path d="M59.5636 36.2236H59.0039V36.7757H59.5636V36.2236Z" fill="white"/>
<path d="M59.5636 37.1465H59.0039V37.6985H59.5636V37.1465Z" fill="white"/>
<path d="M59.5636 38.0703H59.0039V38.6224H59.5636V38.0703Z" fill="white"/>
<path d="M59.5636 38.9961H59.0039V39.5482H59.5636V38.9961Z" fill="white"/>
<path d="M59.5636 39.9189H59.0039V40.471H59.5636V39.9189Z" fill="white"/>
<path d="M59.5636 40.8447H59.0039V41.3968H59.5636V40.8447Z" fill="white"/>
<path d="M40.8566 21.8076H40.2969V22.3597H40.8566V21.8076Z" fill="white"/>
<path d="M40.8566 22.7305H40.2969V23.2825H40.8566V22.7305Z" fill="white"/>
<path d="M40.8566 23.6553H40.2969V24.2073H40.8566V23.6553Z" fill="white"/>
<path d="M40.8566 24.5801H40.2969V25.1321H40.8566V24.5801Z" fill="white"/>
<path d="M40.8566 25.5039H40.2969V26.056H40.8566V25.5039Z" fill="white"/>
<path d="M40.8566 26.4287H40.2969V26.9808H40.8566V26.4287Z" fill="white"/>
<path d="M40.8566 27.3535H40.2969V27.9056H40.8566V27.3535Z" fill="white"/>
<path d="M40.8566 28.2764H40.2969V28.8284H40.8566V28.2764Z" fill="white"/>
<path d="M40.8566 29.2021H40.2969V29.7542H40.8566V29.2021Z" fill="white"/>
<path d="M40.8566 30.125H40.2969V30.6771H40.8566V30.125Z" fill="white"/>
<path d="M40.8566 31.0508H40.2969V31.6028H40.8566V31.0508Z" fill="white"/>
<path d="M40.8566 31.9736H40.2969V32.5257H40.8566V31.9736Z" fill="white"/>
<path d="M40.8566 32.8994H40.2969V33.4515H40.8566V32.8994Z" fill="white"/>
<path d="M40.8566 34.7461H40.2969V35.2982H40.8566V34.7461Z" fill="white"/>
<path d="M40.8566 35.6719H40.2969V36.2239H40.8566V35.6719Z" fill="white"/>
<path d="M40.8566 36.5947H40.2969V37.1468H40.8566V36.5947Z" fill="white"/>
<path d="M40.8566 37.5205H40.2969V38.0726H40.8566V37.5205Z" fill="white"/>
<path d="M40.8566 39.3672H40.2969V39.9192H40.8566V39.3672Z" fill="white"/>
<path d="M40.8566 40.293H40.2969V40.845H40.8566V40.293Z" fill="white"/>
<path d="M40.8566 41.2158H40.2969V41.7679H40.8566V41.2158Z" fill="white"/>
<path d="M39.9698 21.8076H39.4102V22.3597H39.9698V21.8076Z" fill="white"/>
<path d="M39.9698 22.7305H39.4102V23.2825H39.9698V22.7305Z" fill="white"/>
<path d="M39.9698 23.6553H39.4102V24.2073H39.9698V23.6553Z" fill="white"/>
<path d="M39.9698 24.5801H39.4102V25.1321H39.9698V24.5801Z" fill="white"/>
<path d="M39.9698 25.5039H39.4102V26.056H39.9698V25.5039Z" fill="white"/>
<path d="M39.9698 26.4287H39.4102V26.9808H39.9698V26.4287Z" fill="white"/>
<path d="M39.9698 27.3535H39.4102V27.9056H39.9698V27.3535Z" fill="white"/>
<path d="M39.9698 28.2764H39.4102V28.8284H39.9698V28.2764Z" fill="white"/>
<path d="M39.9698 29.2021H39.4102V29.7542H39.9698V29.2021Z" fill="white"/>
<path d="M39.9698 30.125H39.4102V30.6771H39.9698V30.125Z" fill="white"/>
<path d="M39.9698 31.0508H39.4102V31.6028H39.9698V31.0508Z" fill="white"/>
<path d="M39.9698 31.9736H39.4102V32.5257H39.9698V31.9736Z" fill="white"/>
<path d="M39.9698 32.8994H39.4102V33.4515H39.9698V32.8994Z" fill="white"/>
<path d="M39.9698 35.6719H39.4102V36.2239H39.9698V35.6719Z" fill="white"/>
<path d="M39.9698 36.5947H39.4102V37.1468H39.9698V36.5947Z" fill="white"/>
<path d="M39.9698 38.4434H39.4102V38.9954H39.9698V38.4434Z" fill="white"/>
<path d="M39.9698 39.3672H39.4102V39.9192H39.9698V39.3672Z" fill="white"/>
<path d="M39.9698 40.293H39.4102V40.845H39.9698V40.293Z" fill="white"/>
<path d="M39.9698 41.2158H39.4102V41.7679H39.9698V41.2158Z" fill="white"/>
<path d="M39.0831 21.8076H38.5234V22.3597H39.0831V21.8076Z" fill="white"/>
<path d="M39.0831 22.7305H38.5234V23.2825H39.0831V22.7305Z" fill="white"/>
<path d="M39.0831 23.6553H38.5234V24.2073H39.0831V23.6553Z" fill="white"/>
<path d="M39.0831 24.5801H38.5234V25.1321H39.0831V24.5801Z" fill="white"/>
<path d="M39.0831 25.5039H38.5234V26.056H39.0831V25.5039Z" fill="white"/>
<path d="M39.0831 26.4287H38.5234V26.9808H39.0831V26.4287Z" fill="white"/>
<path d="M39.0831 27.3535H38.5234V27.9056H39.0831V27.3535Z" fill="white"/>
<path d="M39.0831 28.2764H38.5234V28.8284H39.0831V28.2764Z" fill="white"/>
<path d="M39.0831 29.2021H38.5234V29.7542H39.0831V29.2021Z" fill="white"/>
<path d="M39.0831 30.125H38.5234V30.6771H39.0831V30.125Z" fill="white"/>
<path d="M39.0831 31.0508H38.5234V31.6028H39.0831V31.0508Z" fill="white"/>
<path d="M39.0831 31.9736H38.5234V32.5257H39.0831V31.9736Z" fill="white"/>
<path d="M39.0831 32.8994H38.5234V33.4515H39.0831V32.8994Z" fill="white"/>
<path d="M39.0831 33.8232H38.5234V34.3753H39.0831V33.8232Z" fill="white"/>
<path d="M39.0831 35.6719H38.5234V36.2239H39.0831V35.6719Z" fill="white"/>
<path d="M39.0831 37.5205H38.5234V38.0726H39.0831V37.5205Z" fill="white"/>
<path d="M39.0831 38.4434H38.5234V38.9954H39.0831V38.4434Z" fill="white"/>
<path d="M39.0831 39.3672H38.5234V39.9192H39.0831V39.3672Z" fill="white"/>
<path d="M39.0831 40.293H38.5234V40.845H39.0831V40.293Z" fill="white"/>
<path d="M39.0831 41.2158H38.5234V41.7679H39.0831V41.2158Z" fill="white"/>
<path d="M44.4737 27.0781H43.9141V27.6302H44.4737V27.0781Z" fill="white"/>
<path d="M44.4737 28.001H43.9141V28.553H44.4737V28.001Z" fill="white"/>
<path d="M44.4737 28.9248H43.9141V29.4769H44.4737V28.9248Z" fill="white"/>
<path d="M44.4737 29.8506H43.9141V30.4026H44.4737V29.8506Z" fill="white"/>
<path d="M44.4737 30.7734H43.9141V31.3255H44.4737V30.7734Z" fill="white"/>
<path d="M44.4737 31.6992H43.9141V32.2513H44.4737V31.6992Z" fill="white"/>
<path d="M44.4737 34.4717H43.9141V35.0237H44.4737V34.4717Z" fill="white"/>
<path d="M44.4737 35.3945H43.9141V35.9466H44.4737V35.3945Z" fill="white"/>
<path d="M44.4737 36.3203H43.9141V36.8724H44.4737V36.3203Z" fill="white"/>
<path d="M44.4737 37.2432H43.9141V37.7952H44.4737V37.2432Z" fill="white"/>
<path d="M44.4737 38.1689H43.9141V38.721H44.4737V38.1689Z" fill="white"/>
<path d="M44.4737 39.0918H43.9141V39.6439H44.4737V39.0918Z" fill="white"/>
<path d="M44.4737 40.0166H43.9141V40.5687H44.4737V40.0166Z" fill="white"/>
<path d="M43.587 27.0781H43.0273V27.6302H43.587V27.0781Z" fill="white"/>
<path d="M43.587 28.001H43.0273V28.553H43.587V28.001Z" fill="white"/>
<path d="M43.587 28.9248H43.0273V29.4769H43.587V28.9248Z" fill="white"/>
<path d="M43.587 29.8506H43.0273V30.4026H43.587V29.8506Z" fill="white"/>
<path d="M43.587 30.7734H43.0273V31.3255H43.587V30.7734Z" fill="white"/>
<path d="M43.587 31.6992H43.0273V32.2513H43.587V31.6992Z" fill="white"/>
<path d="M43.587 34.4717H43.0273V35.0237H43.587V34.4717Z" fill="white"/>
<path d="M43.587 35.3945H43.0273V35.9466H43.587V35.3945Z" fill="white"/>
<path d="M43.587 36.3203H43.0273V36.8724H43.587V36.3203Z" fill="white"/>
<path d="M43.587 37.2432H43.0273V37.7952H43.587V37.2432Z" fill="white"/>
<path d="M43.587 38.1689H43.0273V38.721H43.587V38.1689Z" fill="white"/>
<path d="M43.587 39.0918H43.0273V39.6439H43.587V39.0918Z" fill="white"/>
<path d="M43.587 40.9414H43.0273V41.4935H43.587V40.9414Z" fill="white"/>
<path d="M14.0948 23.0068H13.5352V23.5589H14.0948V23.0068Z" fill="white"/>
<path d="M14.0948 23.9316H13.5352V24.4837H14.0948V23.9316Z" fill="white"/>
<path d="M14.0948 24.8555H13.5352V25.4075H14.0948V24.8555Z" fill="white"/>
<path d="M14.0948 25.7803H13.5352V26.3323H14.0948V25.7803Z" fill="white"/>
<path d="M14.0948 26.7051H13.5352V27.2571H14.0948V26.7051Z" fill="white"/>
<path d="M14.0948 27.6279H13.5352V28.18H14.0948V27.6279Z" fill="white"/>
<path d="M14.0948 28.5537H13.5352V29.1058H14.0948V28.5537Z" fill="white"/>
<path d="M14.0948 29.4766H13.5352V30.0286H14.0948V29.4766Z" fill="white"/>
<path d="M14.0948 30.4023H13.5352V30.9544H14.0948V30.4023Z" fill="white"/>
<path d="M14.0948 31.3252H13.5352V31.8773H14.0948V31.3252Z" fill="white"/>
<path d="M14.0948 32.249H13.5352V32.8011H14.0948V32.249Z" fill="white"/>
<path d="M14.0948 34.0977H13.5352V34.6497H14.0948V34.0977Z" fill="white"/>
<path d="M14.0948 35.0234H13.5352V35.5755H14.0948V35.0234Z" fill="white"/>
<path d="M14.0948 35.9463H13.5352V36.4983H14.0948V35.9463Z" fill="white"/>
<path d="M14.0948 36.8721H13.5352V37.4241H14.0948V36.8721Z" fill="white"/>
<path d="M14.0948 37.7949H13.5352V38.347H14.0948V37.7949Z" fill="white"/>
<path d="M14.0948 38.7188H13.5352V39.2708H14.0948V38.7188Z" fill="white"/>
<path d="M14.0948 39.6445H13.5352V40.1966H14.0948V39.6445Z" fill="white"/>
<path d="M14.0948 40.5674H13.5352V41.1194H14.0948V40.5674Z" fill="white"/>
<path d="M13.2081 23.0068H12.6484V23.5589H13.2081V23.0068Z" fill="white"/>
<path d="M13.2081 23.9316H12.6484V24.4837H13.2081V23.9316Z" fill="white"/>
<path d="M13.2081 24.8555H12.6484V25.4075H13.2081V24.8555Z" fill="white"/>
<path d="M13.2081 25.7803H12.6484V26.3323H13.2081V25.7803Z" fill="white"/>
<path d="M13.2081 26.7051H12.6484V27.2571H13.2081V26.7051Z" fill="white"/>
<path d="M13.2081 27.6279H12.6484V28.18H13.2081V27.6279Z" fill="white"/>
<path d="M13.2081 28.5537H12.6484V29.1058H13.2081V28.5537Z" fill="white"/>
<path d="M13.2081 29.4766H12.6484V30.0286H13.2081V29.4766Z" fill="white"/>
<path d="M13.2081 30.4023H12.6484V30.9544H13.2081V30.4023Z" fill="white"/>
<path d="M13.2081 31.3252H12.6484V31.8773H13.2081V31.3252Z" fill="white"/>
<path d="M13.2081 32.249H12.6484V32.8011H13.2081V32.249Z" fill="white"/>
<path d="M13.2081 33.1748H12.6484V33.7269H13.2081V33.1748Z" fill="white"/>
<path d="M13.2081 34.0977H12.6484V34.6497H13.2081V34.0977Z" fill="white"/>
<path d="M13.2081 35.0234H12.6484V35.5755H13.2081V35.0234Z" fill="white"/>
<path d="M13.2081 35.9463H12.6484V36.4983H13.2081V35.9463Z" fill="white"/>
<path d="M13.2081 36.8721H12.6484V37.4241H13.2081V36.8721Z" fill="white"/>
<path d="M13.2081 37.7949H12.6484V38.347H13.2081V37.7949Z" fill="white"/>
<path d="M13.2081 38.7188H12.6484V39.2708H13.2081V38.7188Z" fill="white"/>
<path d="M13.2081 39.6445H12.6484V40.1966H13.2081V39.6445Z" fill="white"/>
<path d="M13.2081 40.5674H12.6484V41.1194H13.2081V40.5674Z" fill="white"/>
<path d="M18.4698 26.6074H17.9102V27.1595H18.4698V26.6074Z" fill="white"/>
<path d="M18.4698 27.5312H17.9102V28.0833H18.4698V27.5312Z" fill="white"/>
<path d="M18.4698 28.4561H17.9102V29.0081H18.4698V28.4561Z" fill="white"/>
<path d="M18.4698 29.3799H17.9102V29.9319H18.4698V29.3799Z" fill="white"/>
<path d="M18.4698 30.3037H17.9102V30.8558H18.4698V30.3037Z" fill="white"/>
<path d="M18.4698 31.2295H17.9102V31.7815H18.4698V31.2295Z" fill="white"/>
<path d="M18.4698 32.1523H17.9102V32.7044H18.4698V32.1523Z" fill="white"/>
<path d="M18.4698 33.0781H17.9102V33.6302H18.4698V33.0781Z" fill="white"/>
<path d="M18.4698 34.001H17.9102V34.553H18.4698V34.001Z" fill="white"/>
<path d="M18.4698 34.9238H17.9102V35.4759H18.4698V34.9238Z" fill="white"/>
<path d="M17.5792 26.6074H17.0195V27.1595H17.5792V26.6074Z" fill="white"/>
<path d="M17.5792 27.5312H17.0195V28.0833H17.5792V27.5312Z" fill="white"/>
<path d="M17.5792 28.4561H17.0195V29.0081H17.5792V28.4561Z" fill="white"/>
<path d="M17.5792 29.3799H17.0195V29.9319H17.5792V29.3799Z" fill="white"/>
<path d="M17.5792 30.3037H17.0195V30.8558H17.5792V30.3037Z" fill="white"/>
<path d="M17.5792 31.2295H17.0195V31.7815H17.5792V31.2295Z" fill="white"/>
<path d="M17.5792 32.1523H17.0195V32.7044H17.5792V32.1523Z" fill="white"/>
<path d="M17.5792 33.0781H17.0195V33.6302H17.5792V33.0781Z" fill="white"/>
<path d="M17.5792 34.001H17.0195V34.553H17.5792V34.001Z" fill="white"/>
<path d="M58.5974 35.8056H34.7384C34.312 35.8056 33.9648 35.4632 33.9648 35.0426V0.762985C33.9648 0.342432 34.312 0 34.7384 0H58.5974C59.0237 0 59.3709 0.342432 59.3709 0.762985V35.0426C59.3709 35.4632 59.0237 35.8056 58.5974 35.8056ZM34.7384 0.0325506C34.3305 0.0325506 33.9978 0.36066 33.9978 0.762985V35.0426C33.9978 35.445 34.3305 35.7731 34.7384 35.7731H58.5974C59.0052 35.7731 59.3379 35.445 59.3379 35.0426V0.762985C59.3379 0.36066 59.0052 0.0325506 58.5974 0.0325506H34.7384Z" fill="#E0E0E0"/>
<path d="M31.0843 35.8056H7.22665C6.80029 35.8056 6.45312 35.4632 6.45312 35.0426V0.762985C6.45312 0.342432 6.80029 0 7.22665 0H31.0843C31.5107 0 31.8578 0.342432 31.8578 0.762985V35.0426C31.8578 35.4632 31.5107 35.8056 31.0843 35.8056ZM7.22665 0.0325506C6.81877 0.0325506 6.48612 0.36066 6.48612 0.762985V35.0426C6.48612 35.445 6.81877 35.7731 7.22665 35.7731H31.0843C31.4922 35.7731 31.8248 35.445 31.8248 35.0426V0.762985C31.8248 0.36066 31.4922 0.0325506 31.0843 0.0325506H7.22665Z" fill="#E0E0E0"/>
<path d="M66 43.7568H0V43.7894H66V43.7568Z" fill="#E0E0E0"/>
<path d="M8.94023 45.6133H6.82031V45.6458H8.94023V45.6133Z" fill="#E0E0E0"/>
<path d="M29.5503 45.2607H22.4844V45.2933H29.5503V45.2607Z" fill="#E0E0E0"/>
<path d="M13.8592 46.8232H9.07422V46.8558H13.8592V46.8232Z" fill="#E0E0E0"/>
<path d="M55.6425 45.2441H49.9414V45.2767H55.6425V45.2441Z" fill="#E0E0E0"/>
<path d="M57.6559 45.2441H56.8203V45.2767H57.6559V45.2441Z" fill="#E0E0E0"/>
<path d="M48.8518 46.0547H41.7383V46.0872H48.8518V46.0547Z" fill="#E0E0E0"/>
<path d="M61.3857 55.2005C61.3857 55.6419 49.6997 55.9986 35.2827 55.9986C20.8656 55.9986 9.17969 55.6406 9.17969 55.2005C9.17969 54.7604 20.8656 54.4023 35.2827 54.4023C49.6997 54.4023 61.3857 54.7604 61.3857 55.2005Z" fill="#F5F5F5"/>
<path d="M12.4883 55.4475L13.8347 53.8239L14.8828 46H16.2292L17.6033 53.8317L18.8731 55.4475H12.4883Z" fill="#407BFF"/>
<g opacity="0.8">
<path d="M14.0742 52.0432H17.2897L16.8264 49.4014H14.428L14.0742 52.0432Z" fill="white"/>
</g>
<path opacity="0.3" d="M13.8347 53.8242L17.6033 53.832L18.8731 55.4478H12.4883L13.8347 53.8242Z" fill="black"/>
<path d="M48.5508 55.4475L49.8972 53.8239L50.9453 46H52.2917L53.6645 53.8317L54.9356 55.4475H48.5508Z" fill="#407BFF"/>
<g opacity="0.8">
<path d="M50.1367 52.0432H53.3522L52.8889 49.4014H50.4905L50.1367 52.0432Z" fill="white"/>
</g>
<path opacity="0.3" d="M49.8972 53.8242L53.6645 53.832L54.9356 55.4478H48.5508L49.8972 53.8242Z" fill="black"/>
<path d="M10.8819 22.8477H9.99219V55.1235H10.8819V22.8477Z" fill="#263238"/>
<g opacity="0.4">
<path d="M10.8819 22.8477H9.99219V55.1235H10.8819V22.8477Z" fill="white"/>
</g>
<path d="M14.6928 14.4639H6.51144C6.31096 14.4639 6.14844 14.6242 6.14844 14.8219V22.8919C6.14844 23.0896 6.31096 23.2499 6.51144 23.2499H14.6928C14.8933 23.2499 15.0558 23.0896 15.0558 22.8919V14.8219C15.0558 14.6242 14.8933 14.4639 14.6928 14.4639Z" fill="#407BFF"/>
<g opacity="0.5">
<path d="M14.6928 14.4639H6.51144C6.31096 14.4639 6.14844 14.6242 6.14844 14.8219V22.8919C6.14844 23.0896 6.31096 23.2499 6.51144 23.2499H14.6928C14.8933 23.2499 15.0558 23.0896 15.0558 22.8919V14.8219C15.0558 14.6242 14.8933 14.4639 14.6928 14.4639Z" fill="white"/>
</g>
<path d="M11.9079 16.4635C12.2392 16.6094 12.4927 16.8164 12.6695 17.0885C12.8464 17.3593 12.9349 17.6809 12.9349 18.0546C12.9349 18.4283 12.8464 18.7434 12.6695 19.0168C12.4927 19.2902 12.2392 19.4998 11.9079 19.6444C11.5766 19.7902 11.1872 19.8618 10.741 19.8618H9.57809V21.3279H8.62109V16.2461H10.741C11.1872 16.2461 11.5766 16.319 11.9079 16.4635ZM11.6465 18.8007C11.863 18.6262 11.9699 18.3775 11.9699 18.0533C11.9699 17.7291 11.8617 17.4804 11.6465 17.3059C11.4301 17.1315 11.1146 17.0442 10.6975 17.0442H9.57809V19.0624H10.6975C11.1146 19.0624 11.4314 18.9751 11.6465 18.8007Z" fill="white"/>
<path d="M24.2662 22.3623L23.9898 22.4257C23.8271 22.463 23.7259 22.6232 23.7637 22.7836L25.7849 31.3645C25.8227 31.5249 25.9852 31.6247 26.1478 31.5875L26.4242 31.5241C26.5868 31.4868 26.688 31.3266 26.6502 31.1662L24.629 22.5853C24.5913 22.4249 24.4288 22.3251 24.2662 22.3623Z" fill="#263238"/>
<path d="M24.3174 23.6403L22.7367 24.0546C22.6254 24.0838 22.5591 24.1964 22.5887 24.3062L22.6392 24.4937C22.6688 24.6035 22.783 24.6689 22.8943 24.6397L24.475 24.2255C24.5863 24.1963 24.6526 24.0836 24.623 23.9738L24.5725 23.7863C24.5429 23.6765 24.4287 23.6112 24.3174 23.6403Z" fill="#263238"/>
<g opacity="0.3">
<path d="M24.2662 22.3623L23.9898 22.4257C23.8271 22.463 23.7259 22.6232 23.7637 22.7836L25.7849 31.3645C25.8227 31.5249 25.9852 31.6247 26.1478 31.5875L26.4242 31.5241C26.5868 31.4868 26.688 31.3266 26.6502 31.1662L24.629 22.5853C24.5913 22.4249 24.4288 22.3251 24.2662 22.3623Z" fill="black"/>
<path d="M24.3174 23.6403L22.7367 24.0546C22.6254 24.0838 22.5591 24.1964 22.5887 24.3062L22.6392 24.4937C22.6688 24.6035 22.783 24.6689 22.8943 24.6397L24.475 24.2255C24.5863 24.1963 24.6526 24.0836 24.623 23.9738L24.5725 23.7863C24.5429 23.6765 24.4287 23.6112 24.3174 23.6403Z" fill="black"/>
</g>
<path d="M30.8012 12.9279C30.8012 12.9279 30.5742 11.9748 30.99 10.2496C30.99 10.2483 30.8976 10.2119 30.8963 10.2106C30.953 9.96971 31.0164 9.74576 31.0758 9.55176C31.0758 9.54655 31.0758 9.54395 31.0758 9.54395L28.7882 11.096C28.8701 11.6376 28.7249 12.6974 28.6285 13.1479C28.6285 13.1479 28.3698 13.9656 29.4561 13.9487C30.2495 13.937 30.7999 12.9266 30.7999 12.9266L30.8012 12.9279Z" fill="#FFAF6B"/>
<g opacity="0.2">
<path d="M30.0181 11.4896C29.7343 11.8098 29.2419 11.9895 28.7892 11.9999C28.7958 11.9609 28.7944 11.901 28.7997 11.8606C28.8076 11.7981 28.8063 11.7031 28.8103 11.638C28.8143 11.5573 28.8156 11.4713 28.8103 11.388C28.8063 11.3554 28.7931 11.3593 28.7892 11.3268L28.7812 11.2591L30.1501 10.8008C30.261 10.8802 30.2465 11.2291 30.0168 11.4896H30.0181Z" fill="black"/>
</g>
<path d="M31.8703 8.17543C32.1977 6.72628 30.9212 5.3917 29.3979 5.73934C27.8509 6.09349 27.2965 8.23402 27.4034 9.59984C27.5209 11.1167 29.2448 12.075 30.5543 11.1232C31.4255 10.4904 31.5429 9.62458 31.8703 8.17543Z" fill="#FFAF6B"/>
<path d="M30.8112 5.89959C30.8112 5.89959 29.5018 7.10136 28.2214 6.48029C26.941 5.85923 29.7644 4.6171 30.8112 5.89959Z" fill="#263238"/>
<path d="M30.4498 6.26137C30.4498 6.26137 30.8048 6.54782 30.7996 6.89806C30.7969 7.10899 30.7058 7.8876 30.6346 8.47351C30.6002 8.75214 30.9038 8.95135 31.1507 8.81073C31.4556 8.63887 31.7896 8.45919 31.9189 8.42403C31.9968 8.4032 31.9994 8.24696 32.039 8.0816C32.1895 7.45663 32.3176 7.10248 31.8463 6.65849C31.5216 6.35382 30.8576 5.79785 30.6293 5.83692C30.158 5.91764 30.4471 6.26007 30.4471 6.26007L30.4498 6.26137Z" fill="#263238"/>
<path d="M32.2804 9.22888C32.1207 9.61167 31.796 9.8851 31.4752 10.0088C30.9921 10.195 30.8641 9.68068 30.9512 9.20284C31.0291 8.77187 31.2059 8.25496 31.7128 8.27189C32.2131 8.29012 32.4626 8.7901 32.2804 9.22757V9.22888Z" fill="#FFAF6B"/>
<path d="M29.7435 8.49626C29.7303 8.6473 29.6379 8.76188 29.5376 8.75276C29.4373 8.74365 29.3673 8.61214 29.3805 8.46111C29.3937 8.31007 29.4861 8.1955 29.5864 8.20461C29.6867 8.21372 29.7567 8.34523 29.7435 8.49626Z" fill="#263238"/>
<path d="M28.2591 8.39665C28.2459 8.54769 28.1535 8.66227 28.0532 8.65315C27.9529 8.64404 27.8829 8.51253 27.8961 8.3615C27.9093 8.21046 28.0017 8.09589 28.102 8.105C28.2024 8.11411 28.2723 8.24562 28.2591 8.39665Z" fill="#263238"/>
<path d="M28.7001 8.21582C28.7001 8.21582 28.1483 8.92412 27.9648 9.21708C28.1615 9.4254 28.5364 9.37071 28.5364 9.37071L28.7001 8.21712V8.21582Z" fill="#E97F3F"/>
<path d="M29.9755 7.74322C29.9517 7.75233 29.924 7.74973 29.9029 7.7341C29.6534 7.54401 29.4171 7.61432 29.3934 7.62213C29.3564 7.63515 29.3142 7.61562 29.301 7.57786C29.2878 7.5414 29.3076 7.50104 29.3445 7.48802C29.3577 7.48411 29.6732 7.38125 29.99 7.62213C30.0217 7.64556 30.027 7.69113 30.0032 7.72108C29.9953 7.7315 29.9847 7.73801 29.9742 7.74322H29.9755Z" fill="#263238"/>
<path opacity="0.2" d="M31.9659 8.77592C31.9118 8.67957 31.7877 8.634 31.6755 8.65093C31.5646 8.66786 31.4683 8.73686 31.393 8.82019C31.3046 8.92045 31.2426 9.04284 31.2148 9.17304" stroke="black" stroke-width="0.5" stroke-linecap="round" stroke-linejoin="round"/>
<path d="M27.8515 7.78657C27.8383 7.78267 27.8264 7.77485 27.8171 7.76314C27.7921 7.73319 27.796 7.68762 27.8277 7.66288C28.1353 7.4155 28.4507 7.51575 28.4653 7.51836C28.5035 7.53007 28.5233 7.57044 28.5115 7.6082C28.4996 7.64595 28.46 7.66548 28.4217 7.65377C28.4085 7.64856 28.1656 7.57434 27.9188 7.77355C27.899 7.78918 27.8739 7.79308 27.8528 7.78657H27.8515Z" fill="#263238"/>
<path d="M28.8164 9.90819C29.1398 9.95246 29.3404 9.68033 29.3774 9.57227" stroke="#263238" stroke-width="0.5" stroke-linecap="round" stroke-linejoin="round"/>
<path d="M32.1531 6.78115C32.1531 6.78115 32.7919 6.75511 32.7537 6.36971C32.7141 5.98301 32.5319 5.8424 31.5274 5.49476C30.5229 5.14712 30.1057 4.7487 28.8663 4.64584C27.6268 4.54298 27.079 4.82552 26.9087 5.3919C26.7384 5.95828 27.6136 6.36971 27.6136 6.36971L27.6532 6.78115H32.1544H32.1531Z" fill="#263238"/>
<path d="M30.6791 6.93587C30.6791 6.93587 29.9228 7.46318 28.6173 7.51527C27.3131 7.56735 26.5172 7.61813 26.6465 7.45147C26.7772 7.28351 27.651 6.78223 27.651 6.78223L30.6778 6.93717L30.6791 6.93587Z" fill="#263238"/>
<path d="M27.5781 6.82258L32.1519 7.05173V6.78091L27.6243 6.50098L27.5781 6.82258Z" fill="#407BFF"/>
<path d="M28.592 5.45996C28.7609 5.6136 29.0236 5.60318 29.1794 5.43652C29.1794 5.83755 28.9391 6.19951 28.5682 6.36226C28.1973 6.19951 27.957 5.83755 27.957 5.43652C27.965 5.44434 27.9729 5.45215 27.9808 5.45996C28.1498 5.6136 28.4124 5.60318 28.5682 5.43652C28.5761 5.44434 28.584 5.45215 28.592 5.45996Z" fill="#407BFF"/>
<path opacity="0.4" d="M28.592 5.45996C28.7609 5.6136 29.0236 5.60318 29.1794 5.43652C29.1794 5.83755 28.9391 6.19951 28.5682 6.36226C28.1973 6.19951 27.957 5.83755 27.957 5.43652C27.965 5.44434 27.9729 5.45215 27.9808 5.45996C28.1498 5.6136 28.4124 5.60318 28.5682 5.43652C28.5761 5.44434 28.584 5.45215 28.592 5.45996Z" fill="white"/>
<path opacity="0.2" d="M28.5682 6.36226V5.43652C28.5603 5.44434 28.5524 5.45215 28.5444 5.45996C28.3755 5.6136 28.1128 5.60318 27.957 5.43652C27.957 5.83755 28.1973 6.19951 28.5682 6.36226Z" fill="white"/>
<path d="M31.6433 13.0022C31.832 13.04 33.9744 13.3525 33.9744 13.3525L33.8582 25.0212C33.8582 25.0212 31.9337 25.503 28.8303 25.5498C25.3746 25.6019 24.9258 25.5563 24.9258 25.5563L25.5343 13.3043L27.5803 13.0452L28.5848 12.1989L29.3861 13.5113L30.7905 12.0049L31.6433 13.0009V13.0022Z" fill="#407BFF"/>
<path d="M29.4849 14.9284L30.6227 23.4657L28.9569 24.7561L27.8164 22.9671L28.9094 14.8789L29.4849 14.9284Z" fill="#263238"/>
<path opacity="0.2" d="M25.6992 17.6605L26.8925 18.0172L28.0409 17.6605L28.1056 17.3232H25.6992V17.6605Z" fill="black"/>
<path d="M25.5808 13.304C25.5808 13.304 25.1188 13.3145 24.8033 13.8001C24.3427 14.5123 22.9844 19.1371 22.9844 19.1371H25.4977L25.5808 13.3027V13.304Z" fill="#407BFF"/>
<path d="M24.8021 17.8755C24.8021 17.8755 25.1176 17.1112 25.404 16.9849C25.6905 16.8574 27.0435 16.9615 27.2652 17.4198C27.384 17.6646 27.8275 19.296 27.8275 19.296L32.3908 20.7829L32.5096 19.9457H35.1892C35.1892 19.9457 34.6203 23.5081 33.6791 23.6578C32.5888 23.831 32.0568 23.5055 30.9097 22.8701C29.9197 22.3219 27.1847 20.322 27.1847 20.322L24.8008 17.8781L24.8021 17.8755Z" fill="#FFAF6B"/>
<path d="M24.7316 15.8978L28.7576 21.7334L28.4303 21.8962L24.5138 21.2022L20.8086 15.6829L20.9868 15.377L24.7316 15.8978Z" fill="#263238"/>
<path opacity="0.3" d="M24.5231 16.2575C24.6194 16.3213 28.4316 21.8965 28.4316 21.8965L24.5231 21.2038L20.8086 15.6846L24.5231 16.2575Z" fill="black"/>
<path opacity="0.2" d="M29.9844 17.6605L31.1777 18.0172L32.3261 17.6605L32.3907 17.3232H29.9844V17.6605Z" fill="black"/>
<path d="M31.3237 15.3304C31.5442 15.5752 31.8874 15.5596 32.0907 15.2939C32.0907 15.9319 31.7778 16.51 31.2934 16.7691C30.8089 16.51 30.4961 15.9319 30.4961 15.2939C30.5053 15.307 30.5159 15.3187 30.5265 15.3304C30.7469 15.5752 31.0901 15.5596 31.2934 15.2939C31.3026 15.307 31.3132 15.3187 31.3237 15.3304Z" fill="#407BFF"/>
<path opacity="0.4" d="M31.3237 15.3304C31.5442 15.5752 31.8874 15.5596 32.0907 15.2939C32.0907 15.9319 31.7778 16.51 31.2934 16.7691C30.8089 16.51 30.4961 15.9319 30.4961 15.2939C30.5053 15.307 30.5159 15.3187 30.5265 15.3304C30.7469 15.5752 31.0901 15.5596 31.2934 15.2939C31.3026 15.307 31.3132 15.3187 31.3237 15.3304Z" fill="white"/>
<path opacity="0.2" d="M31.2934 16.7691V15.2939C31.2841 15.307 31.2736 15.3187 31.263 15.3304C31.0426 15.5752 30.6994 15.5596 30.4961 15.2939C30.4961 15.9319 30.8089 16.51 31.2934 16.7691Z" fill="white"/>
<path d="M33.565 13.1327C33.565 13.1327 33.627 13.4635 33.3142 13.4452C33.0014 13.427 31.75 13.3202 31.75 13.3202L31.882 12.9804C31.882 12.9804 32.9987 12.7877 33.565 13.1327Z" fill="#407BFF"/>
<path opacity="0.4" d="M33.565 13.1327C33.565 13.1327 33.627 13.4635 33.3142 13.4452C33.0014 13.427 31.75 13.3202 31.75 13.3202L31.882 12.9804C31.882 12.9804 32.9987 12.7877 33.565 13.1327Z" fill="black"/>
<path d="M25.8097 13.1327C25.8097 13.1327 25.7477 13.4635 26.0605 13.4452C26.3733 13.427 27.6247 13.3202 27.6247 13.3202L27.4927 12.9804C27.4927 12.9804 26.376 12.7877 25.8097 13.1327Z" fill="#407BFF"/>
<path opacity="0.4" d="M25.8097 13.1327C25.8097 13.1327 25.7477 13.4635 26.0605 13.4452C26.3733 13.427 27.6247 13.3202 27.6247 13.3202L27.4927 12.9804C27.4927 12.9804 26.376 12.7877 25.8097 13.1327Z" fill="black"/>
<path d="M35.7141 20.484C35.7141 20.484 35.5663 15.0481 35.0753 14.2291C34.5855 13.4102 33.7909 13.3047 33.7909 13.3047L31.6406 20.1494L35.7141 20.484Z" fill="#407BFF"/>
<path d="M32.9204 16.0706C32.8042 17.456 32.6682 18.84 32.523 20.2215L32.494 20.1876C33.5672 20.2775 34.6403 20.3738 35.7122 20.4832C34.6258 20.4155 33.5408 20.3335 32.457 20.2462C32.597 18.8531 32.7488 17.4599 32.9204 16.0693V16.0706Z" fill="#263238"/>
<path opacity="0.2" d="M31.6424 13.002L30.094 14.524L29.4486 13.6022C29.4486 13.6022 28.6948 14.3352 28.6064 14.36C28.518 14.3847 27.5781 13.0449 27.5781 13.0449L28.5048 14.7258L29.3826 13.8639C29.3826 13.8639 30.1046 14.9407 30.0795 14.9276C30.0544 14.9146 31.6398 13.002 31.6398 13.002H31.6424Z" fill="black"/>
<path d="M29.9656 14.3411L29.4865 14.9283L28.9109 14.8788L28.7578 14.2461L29.4482 13.6016L29.9656 14.3411Z" fill="#263238"/>
<path opacity="0.3" d="M28.4306 21.8959L28.758 21.7331L24.732 15.8975L24.5234 16.2568L28.4306 21.8959Z" fill="white"/>
<path d="M24.5012 15.8672C24.5012 15.8672 23.9573 15.8737 24.1844 16.457C24.4114 17.0403 25.899 18.703 26.3518 19.6313C26.5485 20.0362 26.2185 20.7042 26.2185 20.7042L23.3858 20.6365C23.3858 20.6365 23.3435 19.8318 22.9832 19.1405C22.6228 18.4491 21.0652 16.4609 20.9372 16.0729C20.8091 15.6862 21.2553 15.3789 21.2553 15.3789L24.5012 15.8685V15.8672Z" fill="#407BFF"/>
<path opacity="0.7" d="M24.5012 15.8672C24.5012 15.8672 23.9573 15.8737 24.1844 16.457C24.4114 17.0403 25.899 18.703 26.3518 19.6313C26.5485 20.0362 26.2185 20.7042 26.2185 20.7042L23.3858 20.6365C23.3858 20.6365 23.3435 19.8318 22.9832 19.1405C22.6228 18.4491 21.0652 16.4609 20.9372 16.0729C20.8091 15.6862 21.2553 15.3789 21.2553 15.3789L24.5012 15.8685V15.8672Z" fill="white"/>
<path d="M22.8814 18.8782C22.8814 18.8782 23.7552 18.8405 23.9994 19.0475C24.2436 19.2545 23.9083 19.4225 23.9083 19.4225C23.9083 19.4225 24.2925 19.2662 24.406 19.4589C24.5433 19.6907 24.1908 19.8652 24.1908 19.8652C24.1908 19.8652 24.5116 19.7532 24.604 19.9303C24.7003 20.1139 24.3202 20.3469 24.3202 20.3469C24.3202 20.3469 24.567 20.3209 24.5763 20.4719C24.5855 20.6229 23.7922 21.1359 23.4411 21.0813C23.0913 21.0266 22.3138 19.8391 22.2795 19.5123C22.2451 19.192 22.2874 18.9069 22.6068 18.5488L22.8814 18.8782Z" fill="#FFAF6B"/>
<path opacity="0.2" d="M23.9199 19.4445C23.9199 19.4445 23.9199 19.4445 23.9186 19.4445L23.2322 19.6776C23.223 19.6802 23.2111 19.6724 23.2058 19.6606C23.2005 19.6476 23.2032 19.6346 23.2124 19.632L23.8988 19.3989C23.9081 19.3963 23.9199 19.4041 23.9252 19.4159C23.9305 19.4276 23.9279 19.4406 23.9199 19.4445Z" fill="black"/>
<path opacity="0.2" d="M24.1832 19.8963L23.5496 20.1854C23.5404 20.1893 23.5285 20.1828 23.5232 20.1697C23.5166 20.1567 23.5192 20.1463 23.5285 20.1398L24.1621 19.8507C24.1713 19.8468 24.1832 19.8533 24.1898 19.8664C24.1964 19.8781 24.1938 19.8924 24.1858 19.8963H24.1832Z" fill="black"/>
<path opacity="0.2" d="M24.3099 20.3797L23.8479 20.6102C23.8386 20.6141 23.8267 20.6076 23.8201 20.5958C23.8135 20.5841 23.8162 20.5698 23.8241 20.5659L24.2861 20.3341C24.2953 20.3302 24.3072 20.3367 24.3138 20.3485C24.3204 20.3602 24.3178 20.3745 24.3099 20.3784V20.3797Z" fill="black"/>
<path d="M33.7609 53.4221L33.8744 52.0068H31.8086L31.9446 53.1383L33.4678 53.732L33.7609 53.4221Z" fill="#263238"/>
<path d="M31.8617 53.1172H32.4108C32.5349 53.1172 32.6497 53.1797 32.7237 53.2786C33.0405 53.7057 33.2781 53.5443 33.6226 53.1432C33.8417 53.1185 33.9011 53.3659 33.9183 53.4323L34.3288 54.9062C34.3644 55.0299 34.2918 55.1575 34.1678 55.1926C34.1453 55.1991 34.1229 55.2017 34.0991 55.2017H29.7471C29.0554 55.2017 28.9115 54.513 29.1966 54.4505C30.4784 54.1705 31.3865 53.7981 31.7838 53.431C31.8578 53.3659 31.7825 53.319 31.8617 53.1185V53.1172Z" fill="#263238"/>
<path d="M31.4805 53.5352C31.6692 53.5612 31.8448 53.6719 31.9464 53.832" stroke="#407BFF" stroke-width="0.5" stroke-linecap="round" stroke-linejoin="round"/>
<path d="M31.1367 53.7891C31.3255 53.8151 31.501 53.9258 31.6027 54.0859" stroke="#407BFF" stroke-width="0.5" stroke-linecap="round" stroke-linejoin="round"/>
<path d="M30.7148 54.0029C30.9036 54.029 31.0792 54.1396 31.1808 54.2998" stroke="#407BFF" stroke-width="0.5" stroke-linecap="round" stroke-linejoin="round"/>
<path d="M26.3448 53.2441L26.5111 51.834H24.4453L24.5813 52.9654L26.1046 53.5592L26.3448 53.2441Z" fill="#263238"/>
<path d="M24.4945 52.9443H25.0436C25.1677 52.9443 25.2826 53.0068 25.3565 53.1058C25.6733 53.5328 25.9109 53.3714 26.2554 52.9704C26.4745 52.9456 26.5339 53.193 26.5511 53.2594L26.9616 54.7333C26.9972 54.8557 26.9246 54.9846 26.8006 55.0198C26.7781 55.0263 26.7557 55.0289 26.7319 55.0289H22.3799C21.6882 55.0289 21.5443 54.3401 21.8294 54.2776C23.1112 53.9977 24.0193 53.6253 24.4166 53.2581C24.4906 53.1943 24.4153 53.1462 24.4945 52.9456V52.9443Z" fill="#263238"/>
<path d="M24.1133 53.3633C24.302 53.3893 24.4776 53.5 24.5792 53.6601" stroke="#407BFF" stroke-width="0.5" stroke-linecap="round" stroke-linejoin="round"/>
<path d="M23.7734 53.6162C23.9622 53.6423 24.1378 53.7529 24.2394 53.9131" stroke="#407BFF" stroke-width="0.5" stroke-linecap="round" stroke-linejoin="round"/>
<path d="M23.3477 53.8301C23.5364 53.8561 23.712 53.9668 23.8136 54.1269" stroke="#407BFF" stroke-width="0.5" stroke-linecap="round" stroke-linejoin="round"/>
<path d="M24.7862 26.4485C24.7862 26.4485 24.7888 26.4368 24.7902 26.4316C24.7941 26.4159 24.7717 26.5045 24.7862 26.4485Z" fill="#263238"/>
<path d="M34.3656 40.0947C34.3577 40.001 34.3445 39.9111 34.3445 39.8239C34.3326 39.7744 34.3326 39.7275 34.3326 39.682C34.2824 39.0362 34.2415 38.255 34.2006 37.4282C34.1597 36.6014 34.124 35.7121 34.0923 34.7955C34.0923 34.7148 34.1029 34.6536 34.0923 34.552C34.0818 34.4517 34.0818 34.3489 34.0818 34.246C33.9973 31.6485 33.9405 28.9911 33.9141 27.3713V25.8714L24.9263 25.7725C24.8906 25.9209 24.8391 26.2399 24.7916 26.4287C24.7916 26.4313 24.7903 26.4365 24.7877 26.4456C23.8557 30.6824 22.248 43.0438 23.9653 52.766H27.0145C27.0145 52.766 26.5538 41.0087 28.2302 34.664L28.9641 32.0157C29.2625 34.7564 29.6136 37.6729 29.9198 39.2237C29.9317 39.2836 29.9462 39.3434 29.9555 39.4072C30.5138 43.3263 31.3058 52.7582 31.3058 52.7582L34.4316 52.766C34.4936 50.3911 34.6824 43.9096 34.3643 40.0921L34.3656 40.0947Z" fill="#263238"/>
<path d="M33.8443 25.8974L24.7852 25.8453L24.8314 25.1188L33.8377 25.0068L33.8443 25.8974Z" fill="black"/>
<path d="M29.9242 24.918H28.3125V25.8971H29.9242V24.918Z" fill="#263238"/>
<path opacity="0.6" d="M29.9242 24.918H28.3125V25.8971H29.9242V24.918Z" fill="white"/>
<path d="M32.1733 25.0068H31.5898V25.9834H32.1733V25.0068Z" fill="#263238"/>
<path d="M26.5359 25.0068H26.0039V25.8974H26.5359V25.0068Z" fill="#263238"/>
<path d="M32.6841 26.1849C32.6854 26.1536 32.6854 26.1224 32.6841 26.0924C32.6577 25.6654 32.2855 25.3399 31.8525 25.3646C31.4195 25.3906 31.0895 25.7578 31.1146 26.1849H31.3324C31.3324 25.8763 31.5859 25.6276 31.8974 25.6276C32.2089 25.6276 32.4623 25.8776 32.4623 26.1849H32.6828H32.6841Z" fill="#263238"/>
<g opacity="0.7">
<path d="M32.6841 26.1849C32.6854 26.1536 32.6854 26.1224 32.6841 26.0924C32.6577 25.6654 32.2855 25.3399 31.8525 25.3646C31.4195 25.3906 31.0895 25.7578 31.1146 26.1849H31.3324C31.3324 25.8763 31.5859 25.6276 31.8974 25.6276C32.2089 25.6276 32.4623 25.8776 32.4623 26.1849H32.6828H32.6841Z" fill="white"/>
</g>
<path d="M33.1589 26.4332L33.0771 26.2014C33.0335 26.0842 32.9213 26.0061 32.7946 26.0061H32.2824C32.1544 26.0009 32.0382 26.0803 32 26.2014L31.9181 26.4332C31.2806 26.7691 31.0403 27.5516 31.3822 28.1805C31.7228 28.8094 32.5161 29.0463 33.1536 28.7091C33.7912 28.3732 34.0314 27.5907 33.6896 26.9618C33.5681 26.7365 33.3807 26.553 33.1536 26.4332H33.1589ZM32.5398 28.4292C32.0554 28.4292 31.6634 28.0425 31.6634 27.5646C31.6634 27.0868 32.0554 26.7001 32.5398 26.7001C33.0243 26.7001 33.4163 27.0868 33.4163 27.5646C33.4163 28.0425 33.0243 28.4292 32.5398 28.4292C32.5372 28.4292 32.5346 28.4292 32.5319 28.4292H32.5398Z" fill="#263238"/>
<path opacity="0.5" d="M33.1589 26.4332L33.0771 26.2014C33.0335 26.0842 32.9213 26.0061 32.7946 26.0061H32.2824C32.1544 26.0009 32.0382 26.0803 32 26.2014L31.9181 26.4332C31.2806 26.7691 31.0403 27.5516 31.3822 28.1805C31.7228 28.8094 32.5161 29.0463 33.1536 28.7091C33.7912 28.3732 34.0314 27.5907 33.6896 26.9618C33.5681 26.7365 33.3807 26.553 33.1536 26.4332H33.1589ZM32.5398 28.4292C32.0554 28.4292 31.6634 28.0425 31.6634 27.5646C31.6634 27.0868 32.0554 26.7001 32.5398 26.7001C33.0243 26.7001 33.4163 27.0868 33.4163 27.5646C33.4163 28.0425 33.0243 28.4292 32.5398 28.4292C32.5372 28.4292 32.5346 28.4292 32.5319 28.4292H32.5398Z" fill="white"/>
<path d="M32.086 26.4339L32.0041 26.2021C31.9606 26.085 31.8484 26.0068 31.7216 26.0068H31.2095C31.0828 26.0068 30.9692 26.085 30.927 26.2021L30.8478 26.4339C30.2102 26.7698 29.97 27.5523 30.3119 28.1812C30.6524 28.8101 31.4458 29.0471 32.0833 28.7098C32.7209 28.3739 32.9611 27.5914 32.6192 26.9625C32.4978 26.7373 32.3104 26.5537 32.0833 26.4339H32.086ZM31.4616 28.4299C30.9772 28.4299 30.5851 28.0432 30.5851 27.5654C30.5851 27.0875 30.9772 26.7008 31.4616 26.7008C31.946 26.7008 32.3381 27.0875 32.3381 27.5654C32.3381 28.0432 31.946 28.4299 31.4616 28.4299Z" fill="#263238"/>
<path opacity="0.7" d="M32.086 26.4339L32.0041 26.2021C31.9606 26.085 31.8484 26.0068 31.7216 26.0068H31.2095C31.0828 26.0068 30.9692 26.085 30.927 26.2021L30.8478 26.4339C30.2102 26.7698 29.97 27.5523 30.3119 28.1812C30.6524 28.8101 31.4458 29.0471 32.0833 28.7098C32.7209 28.3739 32.9611 27.5914 32.6192 26.9625C32.4978 26.7373 32.3104 26.5537 32.0833 26.4339H32.086ZM31.4616 28.4299C30.9772 28.4299 30.5851 28.0432 30.5851 27.5654C30.5851 27.0875 30.9772 26.7008 31.4616 26.7008C31.946 26.7008 32.3381 27.0875 32.3381 27.5654C32.3381 28.0432 31.946 28.4299 31.4616 28.4299Z" fill="white"/>
<path d="M32.3919 16.9785H30.0938V17.2194H32.3919V16.9785Z" fill="white"/>
<path d="M44.8726 12.0696C44.7987 12.6269 44.7947 13.1985 44.8607 13.7675C44.8607 13.7675 41.7455 13.9966 40.9865 13.304C40.2275 12.6126 39.9265 8.8237 41.6161 8.59455C43.3057 8.36539 45.2844 9.77939 44.8726 12.0696Z" fill="#263238"/>
<path d="M43.5776 9.03839C44.3578 9.5618 44.5742 10.3066 44.5597 10.8443C44.4554 11.5695 44.1954 12.0812 43.9895 12.7843L42.0781 8.51758C42.5335 8.61132 42.7394 8.52018 43.5776 9.03839Z" fill="#263238"/>
<path d="M41.0734 8.7002C39.5792 9.2197 39.005 10.1493 39.0855 11.2105C39.166 12.2716 40.4425 13.4409 40.651 13.4903L41.3084 13.6088C41.3084 13.6088 40.3553 12.1714 40.5652 11.7079C40.7751 11.2443 40.9797 11.2053 40.9797 11.2053L41.0734 8.7002Z" fill="#263238"/>
<path d="M42.5751 8.66073C41.8134 8.30267 41.0597 8.71021 40.6201 8.99405C40.1383 9.38986 39.8506 9.97057 39.8295 10.5903C39.8242 11.1684 39.8176 11.8702 40.17 12.1749C40.368 12.352 40.6307 12.4379 40.8973 12.4132L43.8238 9.7987C43.5123 9.32086 43.0833 8.92895 42.5751 8.66073Z" fill="#263238"/>
<path d="M42.6152 16.4861C42.3895 16.7114 42.1875 16.6332 41.8905 16.5108C40.1244 15.8663 40.6576 15.0265 40.6576 15.0265C40.9969 14.6411 41.0167 14.175 40.9005 13.4654C40.8979 13.4446 40.8979 13.4238 40.8979 13.4029C40.9005 13.3079 40.9322 13.2167 40.989 13.1399C41.1394 12.9277 41.4351 12.8756 41.6503 13.024L42.441 13.2545C42.4436 13.2649 42.4449 13.2766 42.4476 13.2883C42.4462 13.6763 42.4317 13.9771 42.433 14.2141C42.4383 14.2427 42.433 14.2727 42.433 14.3C42.4383 14.3287 42.4357 14.3599 42.4357 14.3872C42.4515 14.7115 43.0033 15.1932 43.229 15.3091C43.3663 15.3885 43.3782 15.727 42.6139 16.4848L42.6152 16.4861Z" fill="#FDBBB5"/>
<path opacity="0.2" d="M42.4352 14.0748C42.4352 13.8378 42.4102 13.6672 42.4115 13.2792C42.4075 13.2675 42.4049 13.2558 42.4049 13.2441L41.6195 13.0084C41.4017 12.8639 41.1073 12.9186 40.9595 13.1321C40.9067 13.2089 40.8776 13.3001 40.875 13.3938C41.271 13.8704 41.8439 14.2766 42.4445 14.4432L42.4339 14.0748H42.4352Z" fill="black"/>
<path d="M40.3244 10.7557C40.3415 12.0942 40.3191 12.6593 40.9567 13.391C41.9163 14.4912 43.5452 14.2152 43.9306 12.9053C44.2685 11.7257 44.1893 9.74012 42.9169 9.11385C41.6444 8.48758 40.3072 9.41592 40.3244 10.7557Z" fill="#FDBBB5"/>
<path d="M39.6783 11.8967C39.813 12.1871 40.0572 12.3837 40.2908 12.4657C40.6419 12.5881 40.8822 12.0347 40.7937 11.6676C40.7132 11.3368 40.3806 11.0921 40.0229 11.1298C39.6704 11.1663 39.5239 11.566 39.6783 11.898V11.8967Z" fill="#FDBBB5"/>
<path opacity="0.2" d="M40.4466 11.8952C40.4506 11.7676 40.4004 11.6387 40.3107 11.5462C40.2222 11.4538 40.0942 11.3965 39.9648 11.3926" stroke="black" stroke-width="0.5" stroke-linecap="round" stroke-linejoin="round"/>
<path d="M42.0512 11.3487C42.0446 11.4919 42.1106 11.6156 42.2004 11.6247C42.2902 11.6351 42.368 11.527 42.3746 11.3851C42.3812 11.2432 42.3152 11.1182 42.2255 11.1091C42.1357 11.0987 42.0578 11.2067 42.0512 11.3487Z" fill="#263238"/>
<path d="M43.3911 11.4678C43.3845 11.6058 43.4518 11.7256 43.5402 11.736C43.6287 11.7465 43.7066 11.6423 43.7132 11.5043C43.7198 11.3663 43.6524 11.2465 43.564 11.2361C43.4756 11.2257 43.3977 11.3298 43.3911 11.4678Z" fill="#263238"/>
<path d="M41.8141 10.8276C41.8312 10.8315 41.8497 10.8276 41.8642 10.8171C42.0926 10.6453 42.3209 10.7338 42.3236 10.7351C42.3579 10.7481 42.3948 10.7325 42.4067 10.6974C42.4186 10.6635 42.3988 10.6244 42.3645 10.6101C42.3526 10.6049 42.0648 10.4929 41.7824 10.7065C41.7546 10.7273 41.7494 10.7703 41.7718 10.8002C41.7824 10.8145 41.7982 10.8237 41.8141 10.8276Z" fill="#263238"/>
<path d="M43.9091 10.8365C43.9236 10.8326 43.9355 10.8248 43.9434 10.8105C43.9593 10.7818 43.9474 10.7414 43.9183 10.7206C43.624 10.5188 43.3811 10.6295 43.3705 10.6334C43.3415 10.6464 43.3309 10.6842 43.3481 10.7167C43.3639 10.7493 43.4009 10.7649 43.4299 10.7519C43.4392 10.748 43.6293 10.6659 43.8629 10.8261C43.8774 10.8365 43.8946 10.8391 43.9104 10.8365H43.9091Z" fill="#263238"/>
<path d="M43.032 11.3695C43.032 11.3695 43.197 11.8916 43.4069 12.2262C43.4438 12.2848 43.4095 12.3629 43.3422 12.3798C43.168 12.4254 42.9766 12.3512 42.9766 12.3512L43.0307 11.3682L43.032 11.3695Z" fill="#DE7E73"/>
<path d="M42.1719 11.1097L42.4913 11.0654C42.4913 11.0654 42.2986 11.279 42.1719 11.1097Z" fill="#263238"/>
<path d="M43.5312 11.2367L43.8507 11.1924C43.8507 11.1924 43.658 11.4059 43.5312 11.2367Z" fill="#263238"/>
<path d="M42.8854 12.72C42.7718 12.8437 42.6187 13.0937 42.6187 13.0937C42.5936 13.0846 42.5672 13.0742 42.5435 13.0638C42.2016 12.9244 42.0894 12.7487 42.0696 12.5963C42.059 12.513 42.0762 12.4349 42.0986 12.375C42.1237 12.306 42.158 12.2617 42.158 12.2617C42.294 12.4427 42.6029 12.5963 42.7718 12.6719C42.8418 12.7044 42.888 12.7213 42.888 12.7213L42.8854 12.72Z" fill="#263238"/>
<path d="M42.7709 12.6699L42.689 12.778C42.3669 12.6465 42.1584 12.5111 42.0977 12.373C42.1227 12.304 42.1571 12.2598 42.1571 12.2598C42.293 12.4407 42.6019 12.5944 42.7709 12.6699Z" fill="white"/>
<path d="M42.5442 13.0622C42.2023 12.9228 42.0901 12.7471 42.0703 12.5947C42.1852 12.6468 42.3172 12.7223 42.4188 12.8239C42.4967 12.902 42.531 12.9853 42.5442 13.0635V13.0622Z" fill="#FD504E"/>
<path d="M40.7564 11.0869C40.7564 11.0869 41.5392 10.221 41.5709 9.47364C41.5709 9.47364 44.3495 8.89294 44.071 11.2509C44.071 11.2509 44.69 9.21454 42.4276 8.86169C40.1651 8.50754 39.6701 11.4215 40.6878 12.4475C40.6918 12.437 40.272 11.6298 40.7564 11.0869Z" fill="#263238"/>
<path d="M43.4525 9.16209C43.7481 9.44723 43.9435 9.81701 44.0108 10.2193C44.0082 10.511 43.6043 10.7167 43.6043 10.7167L43.1198 10.0774L43.1145 10.6347C42.312 10.5409 41.8513 10.1152 41.582 9.50582L42.0374 8.7207C42.0374 8.7207 43.1871 8.93163 43.4525 9.16209Z" fill="#263238"/>
<path d="M44.6211 18.7428C44.6211 18.7428 45.2521 22.3038 45.6692 22.5004C46.0863 22.6983 49.1553 20.9823 49.1553 20.9823L49.6609 19.7675L46.5127 20.3963L45.8579 17.5059L44.6211 18.7428Z" fill="#FDBBB5"/>
<path d="M51.302 16.5191L50.168 17.6377L50.2837 17.7519L51.4178 16.6332L51.302 16.5191Z" fill="#263238"/>
<path d="M51.9622 15.9224L50.8281 17.041L50.886 17.0981L52.0201 15.9795L51.9622 15.9224Z" fill="#263238"/>
<path d="M51.4424 18.1845L50.4297 17.1855L47.7117 19.8665L48.7244 20.8655L51.4424 18.1845Z" fill="#263238"/>
<path opacity="0.3" d="M49.3359 18.458L49.8533 18.928L49.46 19.333L48.957 18.8317L49.3359 18.458Z" fill="black"/>
<path opacity="0.3" d="M51.0949 17.8445L48.375 20.5273L48.7176 20.8652L51.4374 18.1824L51.0949 17.8445Z" fill="black"/>
<path d="M50.3415 19.2692L50.0366 19.57C50.0366 19.57 48.908 19.0583 48.6585 19.1664C48.409 19.2744 48.7126 19.5127 48.7126 19.5127C48.7126 19.5127 48.3628 19.2705 48.2374 19.4033C48.0883 19.5622 48.4064 19.8122 48.4064 19.8122C48.4064 19.8122 48.112 19.626 48.0091 19.751C47.9021 19.8812 48.2427 20.1871 48.2427 20.1871C48.2427 20.1871 48.0104 20.0947 47.9893 20.221C47.9681 20.3486 48.677 21.0126 49.0136 21.0647C49.3502 21.1168 50.1818 20.1884 50.3204 19.9502C50.459 19.7106 50.4458 19.6077 50.3415 19.2705V19.2692Z" fill="#FDBBB5"/>
<path opacity="0.2" d="M48.7016 19.5286C48.7016 19.5286 48.7016 19.5286 48.703 19.5286L49.3339 19.9232C49.3418 19.9284 49.355 19.9258 49.3603 19.9153C49.3669 19.9062 49.3643 19.8932 49.3564 19.8893L48.7254 19.4948C48.7175 19.4896 48.7043 19.4922 48.699 19.5026C48.6937 19.5117 48.6937 19.5221 48.7016 19.5286Z" fill="black"/>
<path opacity="0.2" d="M48.4098 19.8402L48.9853 20.266C48.9932 20.2725 49.0051 20.2699 49.0117 20.2608C49.0183 20.2516 49.0183 20.2425 49.0091 20.2334L48.4335 19.8064C48.4256 19.7998 48.4137 19.8024 48.4071 19.8116C48.4005 19.8207 48.4005 19.8324 48.4085 19.8376L48.4098 19.8402Z" fill="black"/>
<path opacity="0.2" d="M48.2522 20.2178L48.6707 20.5472C48.6786 20.5537 48.6905 20.5511 48.6971 20.542C48.7037 20.5329 48.7037 20.5212 48.6957 20.5147L48.2773 20.1853C48.2694 20.1787 48.2575 20.1814 48.2509 20.1905C48.2443 20.1996 48.2443 20.2113 48.2522 20.2178Z" fill="black"/>
<path d="M50.2939 17.4512L49.7227 18.0146L50.2575 18.5422L50.8287 17.9787L50.2939 17.4512Z" fill="#407BFF"/>
<path opacity="0.3" d="M49.6443 18.3512C49.6443 18.3981 49.606 18.4359 49.5585 18.4359C49.5109 18.4359 49.4727 18.3981 49.4727 18.3512C49.4727 18.3044 49.5109 18.2666 49.5585 18.2666C49.606 18.2666 49.6443 18.3044 49.6443 18.3512Z" fill="black"/>
<path opacity="0.3" d="M49.8161 18.5036C49.8161 18.5504 49.7779 18.5882 49.7303 18.5882C49.6828 18.5882 49.6445 18.5504 49.6445 18.5036C49.6445 18.4567 49.6828 18.4189 49.7303 18.4189C49.7779 18.4189 49.8161 18.4567 49.8161 18.5036Z" fill="black"/>
<path d="M44.1034 15.0586C44.1034 15.0586 44.5337 15.2135 44.9284 15.5612C45.3217 15.9101 46.9295 18.897 46.9295 18.897L45.3376 20.0479L43.3945 17.4205L44.1034 15.1797" fill="#407BFF"/>
<path opacity="0.3" d="M45.3356 20.0474C45.3356 20.0474 45.4954 17.0123 44.7812 16.4121C44.7812 16.4121 45.6168 17.1673 45.6643 18.3235C45.7119 19.4797 45.3356 20.0474 45.3356 20.0474Z" fill="black"/>
<path d="M39.4754 23.6565C39.3487 22.2438 38.8405 19.6554 37.9653 16.9368C37.6802 16.0527 38.5936 15.2012 38.5936 15.2012C38.5936 15.2012 39.3553 15.0241 39.4754 15.0111C39.6074 14.9955 40.6343 14.8744 40.769 14.8627C41.5319 14.8002 41.4356 15.4447 42.1009 15.4447C42.3279 15.4447 42.419 14.8653 42.6513 14.8783C42.881 14.8913 43.1159 14.9108 43.3469 14.9291C43.4209 14.9369 43.9053 14.9434 43.9779 14.9512C43.9779 14.9512 44.9283 16.1894 45.2359 17.3404C45.3903 17.9185 45.4312 17.8287 45.3982 19.257C45.3929 20.227 44.9389 22.197 44.8742 23.5602L39.4754 23.6565Z" fill="#407BFF"/>
<path opacity="0.2" d="M40.543 14.8574L41.7046 16.5618L42.1362 15.9121C42.1362 15.9121 42.8926 16.2584 42.9216 16.2688C42.9507 16.2779 42.8741 14.8574 42.8741 14.8574L42.0953 15.6347L40.5443 14.8574H40.543Z" fill="black"/>
<path d="M42.9203 14.8948L42.4755 14.5485L42.1507 15.1604L40.9667 14.3506L40.543 14.8571L41.6148 16.1799L42.1019 15.443L42.6682 15.9716L42.9203 14.8948Z" fill="#407BFF"/>
<path opacity="0.2" d="M45.1752 18.7711L44.1971 19.0641L43.2559 18.7711L43.2031 18.4951H45.1752V18.7711Z" fill="black"/>
<path opacity="0.2" d="M41.6596 18.7711L40.6815 19.0641L39.7403 18.7711L39.6875 18.4951H41.6596V18.7711Z" fill="black"/>
<path d="M43.9773 16.8548C43.7965 17.0501 43.5153 17.0371 43.3477 16.8262C43.3477 17.3353 43.6037 17.7962 44.0011 18.0019C44.3984 17.7962 44.6545 17.3353 44.6545 16.8262C44.6465 16.8366 44.6386 16.8457 44.6294 16.8548C44.4485 17.0501 44.1674 17.0371 43.9997 16.8262C43.9918 16.8366 43.9839 16.8457 43.9747 16.8548H43.9773Z" fill="#407BFF"/>
<path opacity="0.4" d="M43.9773 16.8548C43.7965 17.0501 43.5153 17.0371 43.3477 16.8262C43.3477 17.3353 43.6037 17.7962 44.0011 18.0019C44.3984 17.7962 44.6545 17.3353 44.6545 16.8262C44.6465 16.8366 44.6386 16.8457 44.6294 16.8548C44.4485 17.0501 44.1674 17.0371 43.9997 16.8262C43.9918 16.8366 43.9839 16.8457 43.9747 16.8548H43.9773Z" fill="white"/>
<path opacity="0.2" d="M44.0039 17.9999V16.8242C44.0118 16.8346 44.0197 16.8437 44.029 16.8529C44.2098 17.0482 44.491 17.0351 44.6586 16.8242C44.6586 17.3333 44.4025 17.7942 44.0052 17.9999H44.0039Z" fill="white"/>
<path d="M38.7266 15.0584C38.7266 15.0584 38.6765 15.3293 38.9326 15.3149C39.1886 15.3006 40.2156 15.2121 40.2156 15.2121L40.1073 14.9334C40.1073 14.9334 39.1913 14.7759 38.728 15.0584H38.7266Z" fill="#263238"/>
<path d="M44.6173 14.9425C44.6173 14.9425 44.6675 15.2134 44.4114 15.199C44.2107 15.1873 43.5758 15.1418 43.3105 15.1222C43.2379 15.117 43.1745 15.0727 43.1442 15.0076L43.0742 14.8566C43.0742 14.8566 44.154 14.66 44.6173 14.9425Z" fill="#263238"/>
<path d="M41.6758 16.0501L42.0691 16.5319L42.5404 16.4902L42.6658 15.972L42.0995 15.4434L41.6758 16.0501Z" fill="#263238"/>
<path d="M42.0711 16.5319L41.918 21.783L42.6677 23.0694L43.2221 21.5226L42.5423 16.4902L42.0711 16.5319Z" fill="#263238"/>
<path d="M45.158 18.2119H43.3008V18.4189H45.158V18.2119Z" fill="white"/>
<path d="M39.5906 9.21181C39.5906 9.21181 38.9477 9.18577 38.986 8.79777C39.0256 8.40977 39.2091 8.26655 40.2202 7.9176C41.2313 7.56736 41.6511 7.16634 42.8985 7.06217C44.1459 6.95801 44.6977 7.24315 44.8679 7.81344C45.0382 8.38373 44.1591 8.79777 44.1591 8.79777L44.1195 9.21181H39.5893H39.5906Z" fill="#263238"/>
<path d="M41.0742 9.36783C41.0742 9.36783 41.8359 9.89906 43.1493 9.95114C44.4627 10.0032 45.2639 10.0553 45.1319 9.88604C45.0012 9.71808 44.1208 9.21289 44.1208 9.21289L41.0742 9.36783Z" fill="#263238"/>
<path d="M44.1927 9.25487L39.5898 9.48402V9.2119L44.1465 8.93066L44.1927 9.25487Z" fill="#407BFF"/>
<path d="M43.1734 7.88281C43.0031 8.03775 42.7391 8.02734 42.582 7.85938C42.582 8.2617 42.8236 8.62757 43.1972 8.79032C43.5707 8.62757 43.8123 8.2617 43.8123 7.85938C43.8044 7.86719 43.7964 7.875 43.7885 7.88281C43.6182 8.03775 43.3542 8.02734 43.1972 7.85938C43.1892 7.86719 43.1813 7.875 43.1734 7.88281Z" fill="#407BFF"/>
<path opacity="0.4" d="M43.1734 7.88281C43.0031 8.03775 42.7391 8.02734 42.582 7.85938C42.582 8.2617 42.8236 8.62757 43.1972 8.79032C43.5707 8.62757 43.8123 8.2617 43.8123 7.85938C43.8044 7.86719 43.7964 7.875 43.7885 7.88281C43.6182 8.03775 43.3542 8.02734 43.1972 7.85938C43.1892 7.86719 43.1813 7.875 43.1734 7.88281Z" fill="white"/>
<path opacity="0.2" d="M43.1992 8.79032V7.85938C43.2071 7.86719 43.2151 7.875 43.223 7.88281C43.3933 8.03775 43.6573 8.02734 43.8143 7.85938C43.8143 8.2617 43.5728 8.62757 43.1992 8.79032Z" fill="white"/>
<path d="M39.6124 51.8212L40.2275 50.8018L41.6043 51.8694L40.9126 52.553L39.582 52.1611L39.6124 51.8212Z" fill="#FDBBB5"/>
<path d="M40.9814 52.5834L40.6157 52.2995C40.5326 52.2357 40.423 52.2175 40.3214 52.2448C39.8831 52.3659 39.8105 52.1355 39.7947 51.6902C39.6627 51.56 39.4911 51.6954 39.4436 51.7305L38.3876 52.5C38.2978 52.5638 38.278 52.6862 38.3427 52.7748C38.3546 52.7904 38.3678 52.8047 38.3836 52.8164C38.8284 53.1615 39.0383 53.3242 39.5914 53.7526L41.2836 55.0637C41.7443 55.4218 42.2063 55.0364 42.0492 54.8476C41.343 53.9987 40.9352 53.2826 40.8665 52.8321C40.852 52.7513 40.9272 52.7578 40.98 52.5834H40.9814Z" fill="#263238"/>
<path d="M41.0155 53.0581C40.8756 52.9774 40.7 52.9605 40.5469 53.0152" stroke="#407BFF" stroke-width="0.5" stroke-linecap="round" stroke-linejoin="round"/>
<path d="M41.1053 53.4048C40.9654 53.3241 40.7898 53.3072 40.6367 53.3618" stroke="#407BFF" stroke-width="0.5" stroke-linecap="round" stroke-linejoin="round"/>
<path d="M41.2772 53.7652C41.1373 53.6844 40.9617 53.6675 40.8086 53.7222" stroke="#407BFF" stroke-width="0.5" stroke-linecap="round" stroke-linejoin="round"/>
<path d="M39.3185 53.9173L39.1641 52.7402H40.9144L40.7982 53.6998L39.5073 54.2037L39.3185 53.9173Z" fill="#FDBBB5"/>
<path d="M40.8695 53.6816H40.4036C40.298 53.6816 40.2003 53.7337 40.1383 53.8184C39.8703 54.1803 39.6683 54.0436 39.3766 53.7038C39.1905 53.6829 39.1403 53.8926 39.1258 53.9486L38.7773 55.1972C38.747 55.3014 38.8077 55.4107 38.9146 55.4394C38.9331 55.4446 38.9529 55.4472 38.9727 55.4472H42.6608C43.2469 55.4472 43.3696 54.8639 43.1267 54.8105C42.0404 54.5735 41.2708 54.2584 40.9342 53.946C40.8722 53.8913 40.9355 53.8509 40.8682 53.6816H40.8695Z" fill="#263238"/>
<path d="M41.1929 54.0371C41.0318 54.0592 40.884 54.153 40.7969 54.2884" stroke="#407BFF" stroke-width="0.5" stroke-linecap="round" stroke-linejoin="round"/>
<path d="M41.4819 54.252C41.3222 54.2741 41.1731 54.3678 41.0859 54.5032" stroke="#407BFF" stroke-width="0.5" stroke-linecap="round" stroke-linejoin="round"/>
<path d="M41.8413 54.4316C41.6816 54.4538 41.5324 54.5475 41.4453 54.6829" stroke="#407BFF" stroke-width="0.5" stroke-linecap="round" stroke-linejoin="round"/>
<path d="M45.6012 29.9409L45.7252 29.9371C45.8921 29.9319 46.0231 29.7943 46.0178 29.6297L45.7913 22.5177C45.786 22.3531 45.6465 22.2239 45.4796 22.229L45.3556 22.2329C45.1887 22.238 45.0577 22.3757 45.063 22.5403L45.2896 29.6523C45.2948 29.8169 45.4343 29.9461 45.6012 29.9409Z" fill="#263238"/>
<path d="M45.5763 23.7549H46.8422C46.9574 23.7549 47.0508 23.6628 47.0508 23.5492V23.4645C47.0508 23.3509 46.9574 23.2588 46.8422 23.2588H45.5763C45.4612 23.2588 45.3678 23.3509 45.3678 23.4645V23.5492C45.3678 23.6628 45.4612 23.7549 45.5763 23.7549Z" fill="#263238"/>
<g opacity="0.3">
<path d="M45.6012 29.9409L45.7252 29.9371C45.8921 29.9319 46.0231 29.7943 46.0178 29.6297L45.7913 22.5177C45.786 22.3531 45.6465 22.2239 45.4796 22.229L45.3556 22.2329C45.1887 22.238 45.0577 22.3757 45.063 22.5403L45.2896 29.6523C45.2948 29.8169 45.4343 29.9461 45.6012 29.9409Z" fill="black"/>
<path d="M45.5763 23.7549H46.8422C46.9574 23.7549 47.0508 23.6628 47.0508 23.5492V23.4645C47.0508 23.3509 46.9574 23.2588 46.8422 23.2588H45.5763C45.4612 23.2588 45.3678 23.3509 45.3678 23.4645V23.5492C45.3678 23.6628 45.4612 23.7549 45.5763 23.7549Z" fill="black"/>
</g>
<path d="M41.9472 43.1707C42.5438 41.5483 43.2738 39.9534 44.1516 38.6631C40.5651 28.5151 40.6773 23.9736 40.6773 23.9736L44.9964 23.9697L45.457 25.6676C45.457 25.6676 46.5368 29.8926 46.851 32.3183L47.7525 37.7113V37.7269C47.8132 38.8466 47.5638 39.9586 47.0265 40.9442C46.4391 42.0197 45.4016 43.2983 44.8314 44.4571C44.0816 45.9869 43.3741 47.522 42.7708 48.8943C42.1346 50.3409 41.6158 51.6052 41.2924 52.484C40.9862 52.5179 40.0635 51.971 39.7969 51.475C39.7969 51.475 40.4503 47.2434 41.9472 43.172V43.1707Z" fill="#263238"/>
<path opacity="0.2" d="M42.96 35.4479C42.4333 33.7227 42.0492 32.5509 41.7813 31.2697C41.7786 30.9702 42.5099 28.7099 43.0221 28.1943C43.0221 28.1943 43.7111 31.8101 42.9587 35.4479H42.96Z" fill="black"/>
<path opacity="0.2" d="M42.7708 48.8923C42.1346 50.3389 41.6158 51.6031 41.2924 52.482C40.9862 52.5158 40.0635 51.969 39.7969 51.4729C39.7969 51.4729 40.4503 47.2413 41.9472 43.1699C42.2508 44.8508 42.5913 46.9744 42.7695 48.8923H42.7708Z" fill="black"/>
<path d="M43.9061 24.0661C43.9061 24.0661 42.2627 35.2765 42.0713 37.7998C42.0713 37.7998 41.0562 50.0427 41.2384 53.1207L38.9733 53.2288C38.9733 53.2288 37.45 43.9558 38.2196 38.0055C38.2869 37.2295 37.5846 32.1699 37.4738 30.1543C37.2071 25.3056 39.2016 23.9736 39.2016 23.9736L43.9061 24.0661Z" fill="#263238"/>
<path d="M39.1055 24.0257L45.0626 24.0179L44.9768 23.333H39.1873L39.1055 24.0257Z" fill="black"/>
<path d="M42.2138 24.0605H43.5352V23.2572H42.2138V24.0605Z" fill="#263238"/>
<path opacity="0.6" d="M42.2138 24.0605H43.5352V23.2572H42.2138V24.0605Z" fill="white"/>
<path d="M40.8463 23.3301H40.3672V24.1308H40.8463V23.3301Z" fill="#263238"/>
<path d="M39.9932 24.3667C39.9919 24.3419 39.9919 24.3159 39.9932 24.2899C40.0143 23.9396 40.3192 23.6727 40.6743 23.6935C41.0294 23.7144 41.3 24.0151 41.2789 24.3654H41.1007C41.1007 24.1128 40.8934 23.9084 40.6373 23.9084C40.3813 23.9084 40.174 24.1128 40.174 24.3654H39.9932V24.3667Z" fill="#263238"/>
<g opacity="0.7">
<path d="M39.9932 24.3667C39.9919 24.3419 39.9919 24.3159 39.9932 24.2899C40.0143 23.9396 40.3192 23.6727 40.6743 23.6935C41.0294 23.7144 41.3 24.0151 41.2789 24.3654H41.1007C41.1007 24.1128 40.8934 23.9084 40.6373 23.9084C40.3813 23.9084 40.174 24.1128 40.174 24.3654H39.9932V24.3667Z" fill="white"/>
</g>
<path d="M39.6099 24.5703C39.4238 24.6692 39.2706 24.8202 39.1703 25.0038C38.8905 25.5194 39.0872 26.16 39.6099 26.4361C40.1326 26.7121 40.782 26.5181 41.0619 26.0025C41.3417 25.4869 41.145 24.8463 40.6223 24.5703L40.555 24.3802C40.5233 24.2812 40.4283 24.2148 40.3227 24.22H39.9029C39.7986 24.22 39.7062 24.2838 39.6706 24.3802L39.6033 24.5703H39.6086H39.6099ZM40.1194 26.2069C40.1194 26.2069 40.1141 26.2069 40.1128 26.2069C39.7155 26.2069 39.3947 25.8892 39.3947 25.4986C39.3947 25.1067 39.7168 24.7903 40.1128 24.7903C40.5101 24.7903 40.8309 25.108 40.8309 25.4986C40.8309 25.8892 40.5088 26.2069 40.1128 26.2069H40.1194Z" fill="#263238"/>
<path opacity="0.4" d="M39.6099 24.5703C39.4238 24.6692 39.2706 24.8202 39.1703 25.0038C38.8905 25.5194 39.0872 26.16 39.6099 26.4361C40.1326 26.7121 40.782 26.5181 41.0619 26.0025C41.3417 25.4869 41.145 24.8463 40.6223 24.5703L40.555 24.3802C40.5233 24.2812 40.4283 24.2148 40.3227 24.22H39.9029C39.7986 24.22 39.7062 24.2838 39.6706 24.3802L39.6033 24.5703H39.6086H39.6099ZM40.1194 26.2069C40.1194 26.2069 40.1141 26.2069 40.1128 26.2069C39.7155 26.2069 39.3947 25.8892 39.3947 25.4986C39.3947 25.1067 39.7168 24.7903 40.1128 24.7903C40.5101 24.7903 40.8309 25.108 40.8309 25.4986C40.8309 25.8892 40.5088 26.2069 40.1128 26.2069H40.1194Z" fill="white"/>
<path d="M40.7349 24.57C40.5488 24.6689 40.3956 24.82 40.2953 25.0035C40.0155 25.5191 40.2122 26.1597 40.7349 26.4358C41.2576 26.7118 41.907 26.5178 42.1869 26.0022C42.4667 25.4866 42.27 24.846 41.7473 24.57L41.6826 24.3799C41.647 24.2835 41.5546 24.2197 41.4503 24.2197H41.0306C40.9263 24.2197 40.8339 24.2835 40.7982 24.3799L40.7309 24.57H40.7336H40.7349ZM41.2444 26.2066C40.8471 26.2066 40.5263 25.8889 40.5263 25.4983C40.5263 25.1077 40.8484 24.79 41.2444 24.79C41.6417 24.79 41.9625 25.1077 41.9625 25.4983C41.9625 25.8889 41.6404 26.2066 41.2444 26.2066Z" fill="#263238"/>
<path opacity="0.6" d="M40.7349 24.57C40.5488 24.6689 40.3956 24.82 40.2953 25.0035C40.0155 25.5191 40.2122 26.1597 40.7349 26.4358C41.2576 26.7118 41.907 26.5178 42.1869 26.0022C42.4667 25.4866 42.27 24.846 41.7473 24.57L41.6826 24.3799C41.647 24.2835 41.5546 24.2197 41.4503 24.2197H41.0306C40.9263 24.2197 40.8339 24.2835 40.7982 24.3799L40.7309 24.57H40.7336H40.7349ZM41.2444 26.2066C40.8471 26.2066 40.5263 25.8889 40.5263 25.4983C40.5263 25.1077 40.8484 24.79 41.2444 24.79C41.6417 24.79 41.9625 25.1077 41.9625 25.4983C41.9625 25.8889 41.6404 26.2066 41.2444 26.2066Z" fill="white"/>
<path d="M38.5439 15.7653C38.4634 15.8174 38.1361 15.1494 37.447 15.9892C36.8306 16.7418 33.9451 19.5399 34.0414 20.588C34.1272 21.5241 37.9803 24.5344 37.9803 24.5344L38.6971 23.6647L36.2867 20.6088L38.0806 18.6376L38.5439 15.7666V15.7653Z" fill="#FDBBB5"/>
<path d="M38.5243 23.7866C38.5243 23.7866 39.0998 22.9885 39.344 22.9351C39.5895 22.883 40.7076 23.0197 40.7287 23.1773C40.7498 23.3348 40.5795 23.3556 40.5795 23.3556L40.8567 23.6707C40.8567 23.6707 40.8567 23.7658 40.7287 23.7866C40.7287 23.7866 40.7181 24.0184 40.5901 24.0288C40.4621 24.0392 39.9618 23.8712 39.9618 23.8712L40.3776 24.1551C40.3776 24.1551 40.4409 24.2606 40.1215 24.228C39.8021 24.1968 39.6899 24.0392 39.6899 24.0392C39.6899 24.0392 38.9493 24.659 38.5877 24.659C38.226 24.659 37.9805 24.5327 37.9805 24.5327L38.523 23.7866H38.5243Z" fill="#FDBBB5"/>
<path d="M38.7053 15.0596C38.7053 15.0596 37.7654 15.3265 37.017 16.1806C36.3332 16.9618 35.2852 18.2131 35.2852 18.2131L37.3787 20.377L39.1039 18.6063L38.7066 15.0596H38.7053Z" fill="#407BFF"/>
<path opacity="0.3" d="M38.5991 19.1213L38.248 17.6006L38.1094 19.6252L38.5991 19.1213Z" fill="black"/>
</g>
<defs>
<clipPath id="clip0_1021_29033">
<rect width="66" height="56" fill="white"/>
</clipPath>
</defs>
</svg>
