<svg width="46" height="46" viewBox="0 0 46 46" fill="none" xmlns="http://www.w3.org/2000/svg">
<circle cx="23" cy="23" r="22.5" fill="#51D7E0" stroke="black"/>
<path d="M12.0645 29.9922V35.9904H34.058V29.9922H12.0645Z" fill="#FF9F00"/>
<path d="M23.0615 29.9922H34.0583V35.9904H23.0615V29.9922Z" fill="#FF7816"/>
<path d="M34.1583 21.2784L32.5387 24.4374H13.5844L11.9648 21.2784C14.3441 17.9794 18.483 16 23.0616 16C27.6402 16 31.7791 17.9794 34.1583 21.2784Z" fill="#FF4B00"/>
<path d="M34.1583 21.2784L32.5387 24.4374H23.0615V16C27.6401 16 31.779 17.9794 34.1583 21.2784Z" fill="#CC1E0D"/>
<path d="M37.7977 19.2765L34.0587 31.9928H12.0652L8.32617 19.2765L10.8455 18.3169C11.9853 20.4962 14.1646 21.7758 15.944 21.9958H16.9838C19.2831 21.636 21.0024 18.117 21.7024 14.7578H24.4217C25.1215 18.117 26.841 21.636 29.1401 21.9958H30.1799C31.9593 21.7758 34.1386 20.4962 35.2784 18.3169L37.7977 19.2765Z" fill="#FDBF00"/>
<path d="M37.7973 19.2765L34.0583 31.9928H23.0615V14.7578H24.421C25.1211 18.117 26.8404 21.636 29.1397 21.9958H30.1795C31.9589 21.7758 34.1382 20.4962 35.278 18.3169L37.7973 19.2765Z" fill="#FF9F00"/>
<path d="M9.06576 19.9982C7.41208 19.9982 6 18.6528 6 16.9991C6 15.3454 7.41208 14 9.06576 14C10.7194 14 12.0649 15.3454 12.0649 16.9991C12.0649 18.6528 10.7194 19.9982 9.06576 19.9982Z" fill="#FF9F00"/>
<path d="M37.0577 19.9982C35.404 19.9982 34.0586 18.6528 34.0586 16.9991C34.0586 15.3454 35.404 14 37.0577 14C38.7114 14 40.1235 15.3454 40.1235 16.9991C40.1235 18.6528 38.7114 19.9982 37.0577 19.9982Z" fill="#FF7816"/>
<path d="M23.0616 10C21.4019 10 20.0625 11.3394 20.0625 12.9991C20.0625 14.6585 21.4019 15.9982 23.0616 15.9982C24.7213 15.9982 26.0607 14.6585 26.0607 12.9991C26.0607 11.3394 24.7213 10 23.0616 10Z" fill="#FF9F00"/>
<path d="M23.0616 21.5781L19.6426 24.9972L23.0616 28.4162L26.4807 24.9972L23.0616 21.5781Z" fill="#FF4B00"/>
<path d="M29.0601 25.582L30.4738 26.9957L29.0601 28.4093L27.6465 26.9957L29.0601 25.582Z" fill="#CC1E0D"/>
<path d="M17.0631 25.582L18.4767 26.9957L17.0631 28.4093L15.6494 26.9957L17.0631 25.582Z" fill="#FF4B00"/>
<path d="M23.0615 15.9982V10C24.7212 10 26.0606 11.3394 26.0606 12.9991C26.0606 14.6585 24.7212 15.9982 23.0615 15.9982Z" fill="#FF7816"/>
<path d="M26.4806 24.9972L23.0615 28.4162V21.5781L26.4806 24.9972Z" fill="#CC1E0D"/>
</svg>
