<svg width="26" height="26" viewBox="0 0 26 26" fill="none" xmlns="http://www.w3.org/2000/svg">
<g clip-path="url(#clip0_1032_8704)">
<path d="M12.9807 3.76418C14.9017 3.76418 16.4733 2.32835 16.7061 0.465672C15.5225 0.174627 14.2808 0 12.9807 0C11.7001 0 10.439 0.174627 9.25537 0.465672C9.48821 2.32835 11.0599 3.76418 12.9807 3.76418ZM0.485203 9.23584C2.34789 9.46867 3.78371 11.0403 3.78371 12.9612C3.78371 14.8822 2.34789 16.4538 0.485203 16.6866C0.174755 15.503 0.0195312 14.2418 0.0195312 12.9612C0.0195312 11.6806 0.174755 10.4194 0.485203 9.23584ZM7.15979 12.9613C7.15979 13.6149 6.62987 14.1449 5.9762 14.1449C5.32252 14.1449 4.79262 13.6149 4.79262 12.9613C4.79262 12.3076 5.32252 11.7777 5.9762 11.7777C6.62987 11.7777 7.15979 12.3076 7.15979 12.9613ZM22.236 12.9612C22.236 14.8822 23.6718 16.4538 25.5344 16.6866C25.8449 15.503 26.0001 14.2418 26.0001 12.9612C26.0001 11.6806 25.8449 10.4194 25.5344 9.23584C23.6718 9.46867 22.236 11.0403 22.236 12.9612ZM21.2268 12.9613C21.2268 13.6149 20.6969 14.1449 20.0433 14.1449C19.3896 14.1449 18.8597 13.6149 18.8597 12.9613C18.8597 12.3076 19.3896 11.7777 20.0433 11.7777C20.6969 11.7777 21.2268 12.3076 21.2268 12.9613ZM12.9807 22.2165C11.0599 22.2165 9.48821 23.6523 9.25537 25.5149C10.439 25.8254 11.7001 25.9806 12.9807 25.9806C14.2614 25.9806 15.5225 25.8254 16.7061 25.5149C16.4733 23.6523 14.9017 22.2165 12.9807 22.2165ZM14.1644 20.0432C14.1644 20.6968 13.6346 21.2267 12.9808 21.2267C12.3272 21.2267 11.7973 20.6968 11.7973 20.0432C11.7973 19.3895 12.3272 18.8596 12.9808 18.8596C13.6346 18.8596 14.1644 19.3895 14.1644 20.0432ZM14.1644 5.95667C14.1644 6.61034 13.6346 7.14025 12.9808 7.14025C12.3272 7.14025 11.7973 6.61034 11.7973 5.95667C11.7973 5.303 12.3272 4.77309 12.9808 4.77309C13.6346 4.77309 14.1644 5.303 14.1644 5.95667ZM19.5196 19.4999C18.1615 20.8581 18.0644 22.9925 19.2093 24.4671C21.3824 23.1864 23.2062 21.3627 24.4675 19.2089C23.0122 18.0447 20.8779 18.1418 19.5196 19.4999ZM19.1509 17.9477C19.1509 18.6014 18.621 19.1313 17.9672 19.1313C17.3136 19.1313 16.7837 18.6014 16.7837 17.9477C16.7837 17.2941 17.3136 16.7642 17.9672 16.7642C18.621 16.7642 19.1509 17.2941 19.1509 17.9477ZM6.48086 6.46134C7.83906 5.10312 7.93608 2.96879 6.7913 1.49417C4.61817 2.77477 2.79429 4.59864 1.53309 6.75238C2.98832 7.91655 5.12265 7.80013 6.48086 6.46134ZM9.19702 7.99392C9.19702 8.64759 8.66712 9.1775 8.01344 9.1775C7.35977 9.1775 6.82986 8.64759 6.82986 7.99392C6.82986 7.34023 7.35977 6.81033 8.01344 6.81033C8.66712 6.81033 9.19702 7.34023 9.19702 7.99392ZM19.5001 6.44193C20.8584 7.80014 22.9927 7.89715 24.4672 6.75238C23.1867 4.57924 21.3628 2.75536 19.2091 1.49417C18.0449 2.94939 18.1613 5.08372 19.5001 6.44193ZM19.1509 7.99392C19.1509 8.64759 18.621 9.1775 17.9672 9.1775C17.3136 9.1775 16.7837 8.64759 16.7837 7.99392C16.7837 7.34023 17.3136 6.81033 17.9672 6.81033C18.621 6.81033 19.1509 7.34023 19.1509 7.99392ZM6.46147 19.4808C5.10325 18.1225 2.96892 18.0256 1.49431 19.1703C2.7749 21.3434 4.59879 23.1674 6.75251 24.448C7.91668 22.9733 7.81967 20.839 6.46147 19.4808ZM9.19702 17.9477C9.19702 18.6014 8.66712 19.1313 8.01344 19.1313C7.35977 19.1313 6.82986 18.6014 6.82986 17.9477C6.82986 17.2941 7.35977 16.7642 8.01344 16.7642C8.66712 16.7642 9.19702 17.2941 9.19702 17.9477Z" fill="white"/>
</g>
<defs>
<clipPath id="clip0_1032_8704">
<rect width="26" height="26" fill="white"/>
</clipPath>
</defs>
</svg>
