<svg width="26" height="26" viewBox="0 0 26 26" fill="none" xmlns="http://www.w3.org/2000/svg">
<g clip-path="url(#clip0_1032_8670)">
<path d="M10.3995 4.33385H12.1329M7.79954 6.93385V2.60052C7.79954 1.64323 8.57559 0.867188 9.53288 0.867188H16.4662C17.4235 0.867188 18.1995 1.64323 18.1995 2.60052V11.2672C18.1995 12.2245 17.4235 13.0005 16.4662 13.0005H9.53288C8.57559 13.0005 7.79954 13.7766 7.79954 14.7339V23.4005C7.79954 24.3578 8.57559 25.1339 9.53288 25.1339H16.4662C17.4235 25.1339 18.1995 24.3578 18.1995 23.4005V19.0672M13.8662 7.80052H2.59954C1.64225 7.80052 0.866211 8.57657 0.866211 9.53385V18.2005C0.866211 19.1578 1.64225 19.9339 2.59954 19.9339H7.79954M12.1329 18.2005H23.3995C24.3569 18.2005 25.1329 17.4245 25.1329 16.4672V7.80052C25.1329 6.84324 24.3569 6.06719 23.3995 6.06719H18.1995M13.8662 21.6672H15.5995" stroke="white" stroke-width="2"/>
</g>
<defs>
<clipPath id="clip0_1032_8670">
<rect width="26" height="26" fill="white"/>
</clipPath>
</defs>
</svg>
