<svg width="28" height="27" viewBox="0 0 28 27" fill="none" xmlns="http://www.w3.org/2000/svg">
<path d="M5.89961 1.80078C4.90547 1.80078 4.09961 2.60664 4.09961 3.60078V18.0008C4.09961 18.9949 4.90547 19.8008 5.89961 19.8008H22.0996C23.0937 19.8008 23.8996 18.9949 23.8996 18.0008V3.60078C23.8996 2.60664 23.0937 1.80078 22.0996 1.80078H5.89961ZM10.8496 2.70078H10.8672H17.1672C17.4158 2.70078 17.6172 2.9022 17.6172 3.15078C17.6172 3.39936 17.4158 3.60078 17.1672 3.60078H10.8496C10.601 3.60078 10.3996 3.39936 10.3996 3.15078C10.3996 2.9022 10.601 2.70078 10.8496 2.70078ZM6.79961 5.40078H13.0996V12.6008H6.79961C6.30263 12.6008 5.89961 12.1978 5.89961 11.7008V6.30078C5.89961 5.8038 6.30263 5.40078 6.79961 5.40078ZM14.8996 5.40078H21.1996C21.6966 5.40078 22.0996 5.8038 22.0996 6.30078V11.7008C22.0996 12.1978 21.6966 12.6008 21.1996 12.6008H14.8996V5.40078ZM9.49961 14.4008C10.4937 14.4008 11.2996 15.2066 11.2996 16.2008C11.2996 17.1949 10.4937 18.0008 9.49961 18.0008C8.50547 18.0008 7.69961 17.1949 7.69961 16.2008C7.69961 15.2066 8.50547 14.4008 9.49961 14.4008ZM18.4996 14.4008C19.4937 14.4008 20.2996 15.2066 20.2996 16.2008C20.2996 17.1949 19.4937 18.0008 18.4996 18.0008C17.5055 18.0008 16.6996 17.1949 16.6996 16.2008C16.6996 15.2066 17.5055 14.4008 18.4996 14.4008ZM19.3012 21.5902C19.1847 21.6002 19.0666 21.6342 18.9566 21.6922C18.5547 21.9039 18.374 22.3818 18.5348 22.8066L18.8406 23.4008H9.15859L9.39062 22.9156C9.56648 22.4507 9.33174 21.9313 8.8668 21.7555C8.442 21.5949 7.96402 21.7756 7.75234 22.1773L5.95234 25.7773C5.91418 25.881 5.89709 25.9904 5.89961 26.1008C5.89961 26.5978 6.30263 27.0008 6.79961 27.0008C7.12397 26.999 7.42077 26.8198 7.57305 26.5332V26.4418H7.69961L8.25859 25.2008H19.7406L20.2996 26.4418V26.5332C20.4519 26.8198 20.7487 26.999 21.073 27.0008C21.57 27.0008 21.973 26.5978 21.973 26.1008C22.0089 25.9589 22.0089 25.8102 21.973 25.6684L20.173 22.0684C19.9993 21.7386 19.6506 21.5605 19.3012 21.5902Z" fill="white"/>
</svg>
