<svg width="19" height="18" viewBox="0 0 19 18" fill="none" xmlns="http://www.w3.org/2000/svg">
<path d="M4.09844 1.2002C3.43568 1.2002 2.89844 1.73744 2.89844 2.4002V12.0002C2.89844 12.663 3.43568 13.2002 4.09844 13.2002H14.8984C15.5612 13.2002 16.0984 12.663 16.0984 12.0002V2.4002C16.0984 1.73744 15.5612 1.2002 14.8984 1.2002H4.09844ZM7.39844 1.8002H7.41016H11.6102C11.7759 1.8002 11.9102 1.93448 11.9102 2.1002C11.9102 2.26592 11.7759 2.4002 11.6102 2.4002H7.39844C7.23272 2.4002 7.09844 2.26592 7.09844 2.1002C7.09844 1.93448 7.23272 1.8002 7.39844 1.8002ZM4.69844 3.6002H8.89844V8.4002H4.69844C4.36712 8.4002 4.09844 8.13152 4.09844 7.80019V4.2002C4.09844 3.86888 4.36712 3.6002 4.69844 3.6002ZM10.0984 3.6002H14.2984C14.6298 3.6002 14.8984 3.86888 14.8984 4.2002V7.80019C14.8984 8.13152 14.6298 8.4002 14.2984 8.4002H10.0984V3.6002ZM6.49844 9.60019C7.1612 9.60019 7.69844 10.1374 7.69844 10.8002C7.69844 11.463 7.1612 12.0002 6.49844 12.0002C5.83568 12.0002 5.29844 11.463 5.29844 10.8002C5.29844 10.1374 5.83568 9.60019 6.49844 9.60019ZM12.4984 9.60019C13.1612 9.60019 13.6984 10.1374 13.6984 10.8002C13.6984 11.463 13.1612 12.0002 12.4984 12.0002C11.8357 12.0002 11.2984 11.463 11.2984 10.8002C11.2984 10.1374 11.8357 9.60019 12.4984 9.60019ZM13.0328 14.3932C12.9552 14.3998 12.8764 14.4225 12.8031 14.4611C12.5352 14.6023 12.4147 14.9209 12.5219 15.2041L12.7258 15.6002H6.27109L6.42578 15.2768C6.54302 14.9668 6.38652 14.6206 6.07656 14.5033C5.79336 14.3963 5.47471 14.5167 5.33359 14.7846L4.13359 17.1846C4.10815 17.2537 4.09676 17.3266 4.09844 17.4002C4.09844 17.7315 4.36712 18.0002 4.69844 18.0002C4.91468 17.999 5.11254 17.8795 5.21406 17.6885V17.6275H5.29844L5.67109 16.8002H13.3258L13.6984 17.6275V17.6885C13.8 17.8795 13.9978 17.999 14.2141 18.0002C14.5454 18.0002 14.8141 17.7315 14.8141 17.4002C14.8379 17.3056 14.8379 17.2065 14.8141 17.1119L13.6141 14.7119C13.4982 14.492 13.2658 14.3733 13.0328 14.3932Z" fill="#FD5555"/>
</svg>
