<svg width="60" height="57" viewBox="0 0 60 57" fill="none" xmlns="http://www.w3.org/2000/svg">
<g filter="url(#filter0_ddii_621_10792)">
<path d="M9.6258 25.1749C8.17185 21.6507 7.85859 18.0778 9.52275 14.5632C11.0599 11.313 13.851 9.53742 17.2751 8.81224C21.1885 7.98222 24.8333 8.70182 28.0559 11.162C28.5605 11.5467 29.0163 12.0046 29.4446 12.4734C29.8215 12.8854 30.0787 12.9064 30.4696 12.4691C32.0838 10.661 34.1318 9.53291 36.4534 8.95045C41.5089 7.68054 47.1273 9.35633 49.933 13.6771C51.4431 16.0025 51.8031 18.5791 51.4193 21.2768C51.1884 22.9097 50.9444 24.5499 50.123 26.0251C49.7788 26.2554 49.3933 26.146 49.0294 26.1372C43.4911 25.9987 37.9555 25.8377 32.4169 25.7027C24.8209 25.5175 17.2247 25.3499 9.62753 25.1751L9.6258 25.1749ZM25.1523 20.5261C25.1056 20.5207 25.0592 20.5118 25.011 20.5045C24.8869 19.62 24.7628 18.7355 24.6386 17.8528C24.5932 17.5317 24.5662 17.2497 24.0933 17.2582C23.7064 17.2661 23.5423 17.3506 23.4574 17.7513C23.2617 18.6848 23.0028 19.604 22.7668 20.5381C22.5396 20.3486 22.5848 20.0784 22.5575 19.8297C22.4721 19.0812 22.3651 18.3373 22.2939 17.587C22.2476 17.0922 21.9161 17.1977 21.5985 17.1838C21.0855 17.1596 21.3085 17.4608 21.3435 17.6894C21.5534 19.061 21.7703 20.4316 21.9659 21.8051C22.0186 22.1691 22.127 22.3693 22.5498 22.3849C22.9902 22.3989 23.1505 22.242 23.2361 21.8203C23.4153 20.9376 23.6597 20.0676 23.9378 18.9524C24.121 20.0841 24.2897 20.9615 24.3963 21.8457C24.4457 22.2532 24.5277 22.4696 25.0051 22.4827C25.4929 22.497 25.57 22.2393 25.652 21.8646C25.924 20.6188 26.2338 19.381 26.5076 18.1355C26.5632 17.8823 26.9281 17.5333 26.4011 17.3723C25.9352 17.229 25.7501 17.4795 25.6737 17.9286C25.5239 18.7989 25.3278 19.6605 25.1506 20.5259L25.1523 20.5261ZM29.6729 20.5294C29.6197 20.5338 29.5647 20.5397 29.5115 20.5441C29.1016 19.6283 28.6622 18.7249 28.2982 17.7916C28.1195 17.3342 27.7873 17.3852 27.4559 17.3837C27.0331 17.384 27.1546 17.7436 27.1429 17.9668C27.0769 19.296 27.0248 20.6268 26.987 21.9557C26.9798 22.2005 26.824 22.5614 27.3434 22.5601C27.7909 22.5592 27.8362 22.3644 27.8374 21.9751C27.8402 21.1614 27.917 20.3457 27.9637 19.5319C28.5328 20.3906 28.9566 21.2624 29.3069 22.1625C29.484 22.6181 29.7638 22.6872 30.1749 22.6365C30.659 22.5767 30.4535 22.2144 30.4661 21.9685C30.5341 20.6676 30.5774 19.3674 30.6453 18.0665C30.6622 17.7386 30.6491 17.5178 30.2266 17.4848C29.771 17.4496 29.7831 17.7247 29.7716 18.0216C29.7398 18.8583 29.7064 19.693 29.6729 20.5294ZM14.6413 16.9058C13.3936 16.8177 13.404 16.8189 13.3841 18.0534C13.3687 19.006 13.3941 19.9703 13.2661 20.9099C13.1424 21.8131 13.3708 22.0834 14.313 22.0519C15.8718 21.9988 16.7207 21.211 16.7943 19.4967C16.8678 17.7842 16.2318 17.0177 14.6413 16.9058ZM43.6155 18.0028C42.753 17.9265 42.2998 18.3156 42.256 19.1701C42.2072 20.1539 42.2344 21.1483 42.0959 22.1182C41.9674 23.0174 42.3276 23.2555 43.1182 23.1697C43.262 23.1548 43.4075 23.1558 43.5507 23.146C44.9214 23.0501 45.6153 22.1321 45.6425 20.3792C45.6659 18.8714 45.0326 18.128 43.6138 18.0026L43.6155 18.0028ZM17.1751 19.2074C17.0763 19.8802 17.1259 20.5438 17.3943 21.1661C17.6749 21.8195 18.1669 22.2676 18.9027 22.3071C19.6316 22.3457 20.1567 21.9766 20.5157 21.3445C20.9673 20.5493 21.0321 19.7007 20.9018 18.8242C20.7398 17.7371 20.0095 16.9667 19.1578 16.9595C18.2816 16.9512 17.5148 17.6503 17.2625 18.6947C17.2219 18.8637 17.2036 19.037 17.1767 19.2094L17.1751 19.2074ZM37.708 20.7548C37.8209 20.0819 37.7482 19.4209 37.5012 18.7959C37.2406 18.136 36.7797 17.6915 36.0201 17.6458C35.3129 17.6026 34.7858 17.8978 34.4342 18.4957C33.8092 19.562 33.7511 20.6869 34.1948 21.8259C34.4409 22.4596 34.9187 22.8639 35.621 22.9346C36.3631 23.0098 36.9 22.6754 37.28 22.0597C37.5262 21.6601 37.6813 21.2289 37.7078 20.7566L37.708 20.7548ZM40.0406 17.893C39.6317 17.7878 39.3662 17.9449 39.2258 18.4304C38.8591 19.7055 38.4311 20.9647 38.0679 22.2403C38.0061 22.4559 37.532 22.8239 38.1522 22.9675C38.5469 23.0588 38.8969 23.0361 38.9406 22.4762C38.9736 22.0538 39.1987 21.8675 39.6923 21.8772C40.2382 21.8894 40.5842 21.9768 40.5865 22.5946C40.5885 23.1843 41.0345 23.1201 41.3903 23.077C41.8937 23.0176 41.5409 22.64 41.5083 22.4819C41.2372 21.1242 40.9192 19.777 40.6102 18.429C40.5473 18.1533 40.5259 17.8228 40.0408 17.8913L40.0406 17.893ZM31.876 22.7174C32.1366 22.7247 32.5134 22.7279 32.8901 22.7469C33.2513 22.7641 33.6503 22.9243 33.6562 22.2811C33.6629 21.6468 33.242 21.7368 32.8913 21.7804C32.2771 21.8585 32.1847 21.5952 32.232 21.0498C32.3205 20.0408 32.3258 19.0239 32.3832 18.0113C32.4021 17.6661 32.255 17.5578 31.9346 17.5366C31.6125 17.5151 31.4482 17.6014 31.4374 17.9528C31.3909 19.3719 31.3339 20.7899 31.2699 22.2088C31.2545 22.5701 31.3737 22.7681 31.8777 22.7176L31.876 22.7174Z" fill="#252438"/>
<path d="M9.62633 25.1755C17.2235 25.3503 24.8197 25.5179 32.4157 25.7031C37.9526 25.8379 43.4899 25.9992 49.0282 26.1377C49.3921 26.1464 49.7794 26.2561 50.1218 26.0255C50.2222 27.3879 50.2167 28.7557 50.0902 30.1077C49.8022 33.1761 49.9331 36.2473 49.864 39.3182C49.8305 40.7915 49.7477 41.0678 48.2146 41.0204C45.4052 40.936 42.5993 40.6993 39.784 40.8019C39.4669 40.8127 39.1525 40.8465 38.836 40.8678C38.0003 40.5396 37.1247 40.6928 36.2661 40.6689C31.5567 40.5385 26.8456 40.4237 22.134 40.3124C21.8629 40.3056 21.4692 40.1899 21.35 40.4621C21.2378 40.7193 21.5186 40.9763 21.7383 41.1701C21.7815 41.2067 21.8105 41.2591 21.8457 41.3036C22.3069 42.5498 23.0549 43.6521 23.6352 44.8384C24.1672 45.928 24.7791 46.9777 25.3651 48.0401C25.4999 48.2855 25.8055 48.5401 25.5271 48.7939C25.2975 49.0042 24.9669 48.8291 24.7163 48.6897C23.6286 48.0832 22.5278 47.4981 21.4703 46.8425C19.1817 45.4236 16.7504 44.2688 14.4104 42.9457C12.9251 42.1056 11.487 41.1762 9.91052 40.5027C8.76527 40.0142 9.07272 38.948 9.16112 38.153C9.43727 35.6429 9.19246 33.1322 9.34695 30.6273C9.45874 28.8104 9.35773 26.983 9.6246 25.1753L9.62633 25.1755ZM42.255 35.0123C42.1996 35.0059 42.1455 35.0032 42.0899 34.9985C41.706 33.2507 41.2241 31.516 40.9704 29.7499C40.7985 28.5511 40.0014 28.8905 39.3267 28.7774C38.578 28.6523 38.4186 29.1058 38.2539 29.6955C37.7648 31.4529 37.2211 33.1971 36.698 34.9453C36.2254 33.3118 35.9189 31.6992 35.6177 30.0855C35.4475 29.1699 34.8911 28.6968 33.9485 28.6662C33.9189 28.6645 33.8906 28.6665 33.8613 28.6614C33.3099 28.5748 33.144 28.7504 33.2858 29.3299C33.9235 31.9176 34.5303 34.514 35.1283 37.1112C35.2312 37.5564 35.4283 37.6879 35.8942 37.6944C37.6058 37.7151 37.6066 37.738 38.109 36.0786C38.1768 35.8566 38.2292 35.6311 38.2952 35.4089C38.6518 34.2063 39.01 33.0039 39.3683 31.8015C39.8747 33.3249 40.216 34.8187 40.5699 36.3105C40.9258 37.8147 40.9303 37.7907 42.4827 37.8684C43.0251 37.896 43.2399 37.7226 43.3842 37.2025C44.0191 34.9127 44.7103 32.6366 45.364 30.3508C45.7933 28.8531 46.1274 28.9373 44.2507 28.9028C43.8254 28.894 43.6365 29.0406 43.5506 29.4657C43.3175 30.6318 43.0468 31.7899 42.7761 32.948C42.6154 33.64 42.4272 34.327 42.2511 35.0154L42.255 35.0123ZM20.2687 33.9881C20.2093 34.0005 20.15 34.013 20.0907 34.0254C19.9041 33.7424 19.7102 33.4621 19.5311 33.1748C18.616 31.6971 17.7065 30.2166 16.7897 28.7387C16.5634 28.3739 14.741 28.0071 14.4179 28.2522C14.2852 28.3526 14.284 28.4999 14.2814 28.6434C14.2191 31.3379 14.1567 34.0324 14.0958 36.7288C14.0915 36.9335 14.0911 37.1037 14.3615 37.1928C15.4621 37.5516 16.0417 37.166 16.0512 36.0373C16.0522 35.8918 16.0426 35.7469 16.0471 35.6018C16.0841 34.1587 16.1209 32.7174 16.1659 31.0384C17.331 32.9029 18.4093 34.517 19.3601 36.2023C19.8495 37.0676 20.4351 37.4195 21.4162 37.3856C21.9923 37.3645 22.1656 37.2161 22.175 36.6646C22.2139 34.1428 22.2753 31.6236 22.3423 29.1016C22.3546 28.6311 22.2883 28.2481 21.7036 28.3892C21.2362 28.5019 20.4127 27.8856 20.4132 29.0505C20.4139 30.698 20.3218 32.3451 20.27 33.9918L20.2687 33.9881ZM23.7362 32.4925C23.4343 35.3014 24.9538 37.363 27.5317 37.6452C30.1201 37.9269 32.176 36.2594 32.4643 33.6436C32.7808 30.7698 31.2788 28.6927 28.675 28.4074C26.0505 28.1198 24.0236 29.7942 23.7345 32.4923L23.7362 32.4925Z" fill="#EFBC29"/>
<path d="M21.8451 41.3029C21.8099 41.2584 21.7809 41.206 21.7378 41.1694C21.5181 40.9756 21.2373 40.7186 21.3495 40.4614C21.4686 40.1892 21.8623 40.3049 22.1334 40.3117C26.8433 40.4228 31.5544 40.5376 36.2655 40.6682C37.1242 40.6921 37.9997 40.5389 38.8355 40.8671C36.2735 43.2551 33.5465 45.4468 30.7826 47.5939C30.2604 47.9984 29.8185 47.9052 29.3085 47.5059C26.7602 45.5113 24.275 43.4416 21.8469 41.3031L21.8451 41.3029Z" fill="#252438"/>
<path d="M25.1515 20.5272C25.3288 19.6617 25.5248 18.8002 25.6746 17.9298C25.7511 17.4808 25.9362 17.2303 26.402 17.3736C26.929 17.5345 26.5641 17.8835 26.5085 18.1367C26.233 19.3821 25.925 20.6201 25.6529 21.8658C25.571 22.2405 25.4921 22.4981 25.006 22.484C24.5286 22.4709 24.4466 22.2544 24.3972 21.847C24.2907 20.9627 24.1219 20.0854 23.9387 18.9537C23.6607 20.0689 23.418 20.939 23.237 21.8216C23.1514 22.2433 22.9912 22.4002 22.5507 22.3861C22.1278 22.3723 22.0176 22.1718 21.9669 21.8063C21.7713 20.4329 21.5543 19.0622 21.3445 17.6906C21.3097 17.4603 21.0864 17.1608 21.5994 17.185C21.9169 17.2007 22.2486 17.0934 22.2949 17.5882C22.3662 18.3368 22.473 19.0825 22.5584 19.8309C22.5875 20.0799 22.5405 20.3499 22.7677 20.5393C23.0038 19.6052 23.2627 18.6861 23.4583 17.7526C23.5415 17.3517 23.7074 17.2673 24.0942 17.2594C24.5673 17.2492 24.5942 17.533 24.6395 17.854C24.7636 18.7385 24.8876 19.623 25.0119 20.5058C25.0586 20.5112 25.105 20.52 25.1532 20.5274L25.1515 20.5272Z" fill="#D7DEE2"/>
<path d="M29.6715 20.5286C29.7051 19.6921 29.7367 18.8572 29.7702 18.0207C29.7818 17.7238 29.7699 17.447 30.2253 17.4839C30.6478 17.5169 30.6606 17.7395 30.644 18.0656C30.5761 19.3665 30.531 20.6665 30.4648 21.9676C30.452 22.2152 30.6576 22.5758 30.1736 22.6357C29.7642 22.6866 29.4827 22.6172 29.3056 22.1617C28.9552 21.2615 28.5315 20.3897 27.9623 19.531C27.9156 20.3449 27.8373 21.1586 27.836 21.9742C27.8347 22.3653 27.7894 22.56 27.3421 22.5592C26.8244 22.5608 26.9802 22.1998 26.9857 21.9549C27.022 20.624 27.0756 19.2951 27.1416 17.966C27.1533 17.7428 27.0317 17.3831 27.4546 17.3829C27.7862 17.3826 28.1182 17.3333 28.2969 17.7908C28.6609 18.7241 29.102 19.6276 29.5102 20.5432C29.5633 20.5388 29.6184 20.5329 29.6715 20.5286Z" fill="#D7DEE2"/>
<path d="M14.638 16.9059C16.2286 17.0179 16.8662 17.7845 16.7911 19.4969C16.7177 21.2094 15.8685 21.9989 14.3098 22.0521C13.3676 22.0835 13.1392 21.8132 13.2629 20.91C13.3908 19.9704 13.3654 19.0061 13.3808 18.0535C13.4007 16.819 13.3902 16.8196 14.638 16.9059ZM14.2583 18.7339C14.2389 19.4176 14.2424 20.0548 14.194 20.6861C14.1626 21.0789 14.3455 21.1053 14.6503 21.0792C15.5629 21.0005 16.0983 19.7834 15.7172 18.664C15.5339 18.1252 15.1455 17.8277 14.6133 17.8785C14.0244 17.9349 14.4414 18.5007 14.2583 18.7339Z" fill="#D7DEE2"/>
<path d="M43.6139 18.003C45.0327 18.1284 45.6677 18.872 45.6426 20.3795C45.6151 22.1342 44.9213 23.0522 43.5508 23.1464C43.4058 23.156 43.2604 23.1549 43.1183 23.1701C42.3279 23.2541 41.9675 23.0178 42.096 22.1186C42.2344 21.1487 42.2073 20.1543 42.2561 19.1705C42.2986 18.317 42.7518 17.9279 43.6156 18.0032L43.6139 18.003ZM43.129 19.4504C43.0994 20.2978 43.1272 20.9378 43.0413 21.5595C42.9407 22.2776 43.3338 22.2617 43.7897 22.1267C44.4473 21.9325 44.6178 21.3523 44.6658 20.7701C44.716 20.1689 44.6896 19.5325 44.0966 19.1535C43.5119 18.7789 43.1609 18.9769 43.1292 19.4486L43.129 19.4504Z" fill="#D7DEE2"/>
<path d="M17.173 19.2063C17.2017 19.0342 17.22 18.8609 17.2606 18.6919C17.5131 17.6457 18.2797 16.9483 19.1559 16.9566C20.0074 16.9656 20.7379 17.7343 20.8999 18.8214C21.0302 19.6978 20.9652 20.5482 20.5138 21.3416C20.1546 21.9755 19.6295 22.3446 18.9008 22.3042C18.1651 22.2648 17.6747 21.8169 17.3924 21.1632C17.1242 20.5392 17.0744 19.8773 17.1715 19.2044L17.173 19.2063ZM19.9625 19.8586C19.9334 19.5184 20.0398 19.1746 19.9076 18.8312C19.7576 18.4437 19.6114 18.0391 19.1203 18.0227C18.6503 18.0069 18.4127 18.3321 18.2515 18.7398C18.0181 19.3321 18.0263 19.9295 18.1922 20.5276C18.2989 20.9101 18.5136 21.2226 18.9497 21.259C19.4049 21.2976 19.625 20.9564 19.7899 20.6228C19.9002 20.397 19.9078 20.1189 19.9605 19.8601L19.9625 19.8586Z" fill="#D7DEE2"/>
<path d="M37.7059 20.7509C37.6811 21.2235 37.5258 21.6564 37.2798 22.0543C36.8998 22.67 36.3647 23.0046 35.6208 22.9291C34.9167 22.8583 34.4406 22.4541 34.1946 21.8204C33.7526 20.6816 33.8107 19.5568 34.434 18.4903C34.7838 17.8922 35.3109 17.597 36.0199 17.6403C36.7793 17.6878 37.2387 18.1303 37.501 18.7905C37.7478 19.4172 37.8205 20.0782 37.7078 20.7494L37.7059 20.7509ZM36.7533 20.5987C36.7478 20.1156 36.8295 19.6216 36.5878 19.1621C36.2743 18.5662 35.6926 18.499 35.2654 19.0075C34.8055 19.556 34.7528 20.9832 35.1737 21.5459C35.5139 22.0028 36.0363 22.0053 36.408 21.5675C36.6477 21.2847 36.6587 20.9316 36.7516 20.5985L36.7533 20.5987Z" fill="#D7DEE2"/>
<path d="M40.041 17.8906C40.5261 17.8222 40.5475 18.1527 40.6104 18.4284C40.9193 19.7781 41.2372 21.1253 41.5085 22.4812C41.5411 22.6394 41.8941 23.0153 41.3906 23.0764C41.0347 23.1194 40.5887 23.1837 40.5867 22.594C40.5845 21.9762 40.2384 21.8888 39.6925 21.8766C39.1991 21.8651 38.9741 22.0514 38.9408 22.4756C38.8954 23.0353 38.547 23.0599 38.1525 22.9669C37.5305 22.8231 38.0063 22.4553 38.0681 22.2396C38.4333 20.9626 38.8594 19.7049 39.2261 18.4297C39.3666 17.9425 39.6319 17.7872 40.0408 17.8924L40.041 17.8906ZM39.8789 19.0806C39.7028 19.7234 39.5884 20.1365 39.4757 20.5498C39.4397 20.679 39.3268 20.8519 39.5328 20.9055C39.7183 20.955 39.9379 20.9681 40.1192 20.9171C40.2988 20.866 40.1988 20.6685 40.1763 20.5448C40.1021 20.124 40.0081 19.7078 39.8789 19.0806Z" fill="#D7DEE2"/>
<path d="M31.8741 22.7148C31.37 22.7653 31.2508 22.5673 31.2663 22.206C31.3303 20.7871 31.3872 19.3691 31.4337 17.95C31.4445 17.5986 31.6089 17.5123 31.931 17.5338C32.2513 17.555 32.4002 17.6635 32.3796 18.0085C32.3222 19.0211 32.3169 20.038 32.2283 21.047C32.181 21.5924 32.2734 21.8557 32.8877 21.7776C33.2385 21.7322 33.6594 21.6423 33.6526 22.2783C33.6466 22.9215 33.2478 22.7596 32.8865 22.7441C32.5113 22.7271 32.1346 22.7221 31.8724 22.7146L31.8741 22.7148Z" fill="#D7DEE2"/>
<path d="M42.2541 35.0111C42.4301 34.3227 42.6183 33.6357 42.779 32.9438C43.0497 31.7856 43.3205 30.6275 43.5535 29.4615C43.6395 29.0363 43.8282 28.8915 44.2537 28.8986C46.1301 28.9348 45.7962 28.8488 45.3669 30.3465C44.7132 32.6323 44.0222 34.9068 43.3872 37.1982C43.243 37.7166 43.0282 37.89 42.4856 37.8641C40.9332 37.7864 40.9285 37.8122 40.5728 36.3062C40.2207 34.8146 39.8778 33.3189 39.3713 31.7972C39.013 32.9996 38.6547 34.202 38.2981 35.4047C38.2321 35.6268 38.178 35.8522 38.1119 36.0743C37.6096 37.7338 37.6105 37.7111 35.8971 37.6902C35.431 37.6854 35.2342 37.5521 35.1313 37.1069C34.5315 34.5096 33.9247 31.9132 33.2888 29.3257C33.147 28.7461 33.311 28.5721 33.8643 28.6571C33.8937 28.6605 33.9218 28.6603 33.9514 28.662C34.8964 28.6928 35.4528 29.1659 35.6206 30.0812C35.9218 31.6949 36.2284 33.3075 36.7009 34.9411C37.2241 33.1928 37.7678 31.4487 38.2569 29.6912C38.4216 29.1015 38.581 28.648 39.3297 28.7732C40.006 28.8865 40.8014 28.5468 40.9733 29.7456C41.2271 31.5118 41.709 33.2464 42.0929 34.9942C42.1483 35.0006 42.2023 35.0034 42.2579 35.0081L42.2541 35.0111Z" fill="#252438"/>
<path d="M20.267 33.9888C20.3188 32.3422 20.411 30.695 20.4102 29.0475C20.4096 27.8843 21.2331 28.5006 21.7007 28.3862C22.2854 28.2451 22.3516 28.6281 22.3393 29.0986C22.2725 31.6189 22.2109 34.1398 22.172 36.6616C22.1644 37.2133 21.9911 37.3617 21.4133 37.3826C20.4322 37.4165 19.8446 37.0662 19.3571 36.1993C18.4064 34.514 17.3263 32.8997 16.163 31.0354C16.1199 32.7129 16.0812 34.1557 16.0442 35.5988C16.0397 35.7439 16.0492 35.8888 16.0482 36.0343C16.0386 37.1648 15.4591 37.5486 14.3585 37.1898C14.0879 37.1024 14.0883 36.9323 14.0929 36.7258C14.1535 34.0311 14.2159 31.3366 14.2785 28.6404C14.2812 28.4951 14.2805 28.3494 14.4149 28.2492C14.738 28.0041 16.5604 28.3709 16.7867 28.7357C17.7018 30.2134 18.6131 31.6941 19.5282 33.1718C19.707 33.4609 19.9011 33.7394 20.0877 34.0224C20.147 34.01 20.2064 33.9975 20.2657 33.9851L20.267 33.9888Z" fill="#252438"/>
<path d="M23.7346 32.4942C24.0255 29.7963 26.0506 28.1217 28.6752 28.4093C31.2772 28.6943 32.7809 30.7716 32.4645 33.6455C32.1761 36.2612 30.1202 37.9287 27.5318 37.647C24.9538 37.3666 23.4327 35.303 23.7364 32.4944L23.7346 32.4942ZM30.3099 33.5718C30.3806 33.0204 30.3459 32.4708 30.2398 31.9322C30.0522 30.9754 29.2301 30.2102 28.3617 30.1344C27.3544 30.046 26.4762 30.662 26.0914 31.6684C25.8225 32.3706 25.8111 33.0921 25.9076 33.805C26.0914 35.1438 27.0403 35.9499 28.2554 35.8799C29.3823 35.8137 30.1343 34.969 30.3095 33.5753L30.3099 33.5718Z" fill="#252438"/>
<path d="M14.2591 18.7326C14.4424 18.4977 14.0252 17.9337 14.6141 17.8772C15.1463 17.8264 15.5347 18.124 15.718 18.6627C16.0991 19.7821 15.5635 21.0009 14.6511 21.0779C14.3463 21.1041 14.1636 21.0759 14.1948 20.6848C14.2432 20.0536 14.2397 19.4163 14.2591 18.7326Z" fill="#252438"/>
<path d="M43.1304 19.4524C43.1621 18.9807 43.5131 18.7826 44.0978 19.1573C44.6908 19.5363 44.7175 20.171 44.6671 20.7739C44.6193 21.3543 44.4502 21.9365 43.791 22.1305C43.335 22.2655 42.9419 22.2814 43.0425 21.5632C43.1286 20.9399 43.1006 20.3016 43.1302 19.4541L43.1304 19.4524Z" fill="#252438"/>
<path d="M19.96 19.8628C19.9053 20.1232 19.8997 20.3997 19.7894 20.6256C19.6243 20.9608 19.4042 21.302 18.9492 21.2617C18.5113 21.2251 18.2966 20.9126 18.1917 20.5303C18.0257 19.9322 18.0176 19.3348 18.251 18.7425C18.4121 18.3348 18.6497 18.0097 19.1198 18.0254C19.6091 18.0416 19.7571 18.4464 19.907 18.8339C20.0393 19.1773 19.9328 19.5211 19.9619 19.8613L19.96 19.8628Z" fill="#252438"/>
<path d="M36.7539 20.6025C36.661 20.9356 36.6482 21.2885 36.4103 21.5715C36.0386 22.0092 35.5161 22.0067 35.176 21.5498C34.7551 20.9872 34.8078 19.56 35.2677 19.0114C35.6949 18.5029 36.2748 18.5699 36.5901 19.166C36.8319 19.6238 36.75 20.1196 36.7556 20.6027L36.7539 20.6025Z" fill="#252438"/>
<path d="M39.8768 19.0797C40.0063 19.7052 40.1001 20.1231 40.1742 20.5439C40.1966 20.6693 40.2966 20.8668 40.1172 20.9162C39.9358 20.9672 39.7163 20.9541 39.5308 20.9046C39.3247 20.851 39.4394 20.6783 39.4737 20.5489C39.5864 20.1356 39.701 19.7208 39.8768 19.0797Z" fill="#252438"/>
<path d="M30.3125 33.5712C30.1372 34.9667 29.3836 35.8094 28.2567 35.8756C27.0414 35.9473 26.0927 35.1394 25.9089 33.8007C25.8107 33.0876 25.8221 32.3661 26.0928 31.6641C26.4775 30.6577 27.3555 30.0434 28.363 30.1301C29.2332 30.2061 30.0535 30.9711 30.2411 31.9279C30.3473 32.4664 30.3818 33.0178 30.3129 33.5677L30.3125 33.5712Z" fill="#EFBC29"/>
</g>
<defs>
<filter id="filter0_ddii_621_10792" x="-2.80469" y="-3" width="64.1055" height="62.5791" filterUnits="userSpaceOnUse" color-interpolation-filters="sRGB">
<feFlood flood-opacity="0" result="BackgroundImageFix"/>
<feColorMatrix in="SourceAlpha" type="matrix" values="0 0 0 0 0 0 0 0 0 0 0 0 0 0 0 0 0 0 127 0" result="hardAlpha"/>
<feOffset/>
<feGaussianBlur stdDeviation="4"/>
<feComposite in2="hardAlpha" operator="out"/>
<feColorMatrix type="matrix" values="0 0 0 0 0 0 0 0 0 0 0 0 0 0 0 0 0 0 0.25 0"/>
<feBlend mode="normal" in2="BackgroundImageFix" result="effect1_dropShadow_621_10792"/>
<feColorMatrix in="SourceAlpha" type="matrix" values="0 0 0 0 0 0 0 0 0 0 0 0 0 0 0 0 0 0 127 0" result="hardAlpha"/>
<feOffset/>
<feGaussianBlur stdDeviation="4"/>
<feComposite in2="hardAlpha" operator="out"/>
<feColorMatrix type="matrix" values="0 0 0 0 0 0 0 0 0 0 0 0 0 0 0 0 0 0 0.25 0"/>
<feBlend mode="normal" in2="effect1_dropShadow_621_10792" result="effect2_dropShadow_621_10792"/>
<feBlend mode="normal" in="SourceGraphic" in2="effect2_dropShadow_621_10792" result="shape"/>
<feColorMatrix in="SourceAlpha" type="matrix" values="0 0 0 0 0 0 0 0 0 0 0 0 0 0 0 0 0 0 127 0" result="hardAlpha"/>
<feOffset dx="-4" dy="-4"/>
<feGaussianBlur stdDeviation="4"/>
<feComposite in2="hardAlpha" operator="arithmetic" k2="-1" k3="1"/>
<feColorMatrix type="matrix" values="0 0 0 0 0 0 0 0 0 0 0 0 0 0 0 0 0 0 0.25 0"/>
<feBlend mode="normal" in2="shape" result="effect3_innerShadow_621_10792"/>
<feColorMatrix in="SourceAlpha" type="matrix" values="0 0 0 0 0 0 0 0 0 0 0 0 0 0 0 0 0 0 127 0" result="hardAlpha"/>
<feOffset dx="4" dy="4"/>
<feGaussianBlur stdDeviation="2"/>
<feComposite in2="hardAlpha" operator="arithmetic" k2="-1" k3="1"/>
<feColorMatrix type="matrix" values="0 0 0 0 1 0 0 0 0 1 0 0 0 0 1 0 0 0 0.25 0"/>
<feBlend mode="normal" in2="effect3_innerShadow_621_10792" result="effect4_innerShadow_621_10792"/>
</filter>
</defs>
</svg>
