<svg width="247" height="40" viewBox="0 0 247 40" fill="none" xmlns="http://www.w3.org/2000/svg">
<path d="M23.376 12.704C23.216 12.192 22.592 11.744 21.504 11.36C20.448 10.944 19.056 10.736 17.328 10.736C15.44 10.736 13.968 11.264 12.912 12.32C11.856 13.376 11.328 14.704 11.328 16.304C11.328 17.296 11.68 18.064 12.384 18.608C13.12 19.12 14.24 19.696 15.744 20.336L17.472 21.056L18.912 21.728C20.64 22.496 22 23.2 22.992 23.84C24.016 24.448 24.88 25.296 25.584 26.384C26.288 27.472 26.64 28.864 26.64 30.56C26.64 32.384 26.032 33.968 24.816 35.312C23.632 36.624 21.968 37.616 19.824 38.288C17.68 38.992 15.184 39.344 12.336 39.344C10.224 39.344 8.24 39.008 6.384 38.336C4.56 37.696 3.104 36.88 2.016 35.888C0.96 34.896 0.432 33.92 0.432 32.96C0.432 32.032 0.832 31.28 1.632 30.704C2.432 30.096 3.568 29.68 5.04 29.456C5.2 30.384 5.744 31.216 6.672 31.952C7.6 32.688 8.672 33.28 9.888 33.728C11.136 34.144 12.224 34.352 13.152 34.352C14.848 34.352 16.352 34.016 17.664 33.344C19.008 32.672 19.68 31.744 19.68 30.56C19.68 29.568 19.2 28.752 18.24 28.112C17.312 27.44 15.904 26.72 14.016 25.952L11.472 24.8C9.392 23.776 7.744 22.624 6.528 21.344C5.312 20.064 4.704 18.368 4.704 16.256C4.704 13.92 5.36 12.032 6.672 10.592C7.984 9.12 9.568 8.064 11.424 7.424C13.312 6.784 15.152 6.464 16.944 6.464C19.792 6.464 22.128 6.832 23.952 7.568C25.808 8.304 27.152 9.232 27.984 10.352C28.816 11.472 29.232 12.624 29.232 13.808C29.232 14.48 29.056 15.296 28.704 16.256C28.384 17.216 27.888 18.048 27.216 18.752C26.576 19.456 25.792 19.808 24.864 19.808C23.264 19.808 22.464 18.976 22.464 17.312C22.528 16.8 22.672 15.968 22.896 14.816C23.12 13.632 23.28 12.928 23.376 12.704ZM39.8366 39.008C36.7006 39.008 34.4126 38.384 32.9726 37.136C31.5326 35.888 30.8126 34.224 30.8126 32.144C30.8126 29.104 31.5646 26.288 33.0686 23.696C34.6046 21.104 36.6366 19.056 39.1646 17.552C41.7246 16.016 44.4766 15.248 47.4206 15.248C49.2126 15.248 50.7166 15.76 51.9326 16.784C53.1486 17.776 53.7566 19.248 53.7566 21.2C53.7566 22.32 53.3886 23.248 52.6526 23.984C51.9486 24.688 50.9246 25.328 49.5806 25.904C48.2366 26.448 46.0606 27.232 43.0526 28.256C40.3326 29.152 38.1246 29.904 36.4286 30.512C36.3006 30.992 36.2366 31.488 36.2366 32C36.2366 32.896 36.6046 33.584 37.3406 34.064C38.1086 34.544 39.1806 34.784 40.5566 34.784C41.4206 34.784 42.4126 34.608 43.5326 34.256C44.6526 33.904 45.3566 33.456 45.6446 32.912C46.7326 30.928 47.7246 29.936 48.6206 29.936C49.9326 29.936 50.8126 30.192 51.2606 30.704C51.7406 31.184 51.9966 31.728 52.0286 32.336C51.6446 33.36 50.8926 34.4 49.7726 35.456C48.6526 36.48 47.2286 37.328 45.5006 38C43.7726 38.672 41.8846 39.008 39.8366 39.008ZM37.7726 26.096C40.9406 25.072 43.5486 24.128 45.5966 23.264C47.6446 22.368 48.6686 21.488 48.6686 20.624C48.6686 20.24 48.4606 19.936 48.0446 19.712C47.6286 19.456 47.1806 19.328 46.7006 19.328C45.7406 19.328 44.6366 19.696 43.3886 20.432C42.1726 21.168 41.0366 22.064 39.9806 23.12C38.9246 24.176 38.1886 25.168 37.7726 26.096ZM64.4929 39.008C61.3569 39.008 59.0689 38.384 57.6289 37.136C56.1889 35.888 55.4689 34.224 55.4689 32.144C55.4689 29.104 56.2209 26.288 57.7249 23.696C59.2609 21.104 61.2929 19.056 63.8209 17.552C66.3809 16.016 69.1329 15.248 72.0769 15.248C73.8689 15.248 75.3729 15.76 76.5889 16.784C77.8049 17.776 78.4129 19.248 78.4129 21.2C78.4129 23.376 77.5969 25.104 75.9649 26.384C74.3649 27.632 72.3329 28.56 69.8689 29.168C67.4369 29.744 64.5089 30.192 61.0849 30.512C60.9569 30.992 60.8929 31.488 60.8929 32C60.8929 32.896 61.2609 33.584 61.9969 34.064C62.7649 34.544 63.8369 34.784 65.2129 34.784C66.2369 34.784 67.4049 34.576 68.7169 34.16C70.0609 33.744 71.0849 33.056 71.7889 32.096C72.1729 31.552 72.6529 31.12 73.2289 30.8C73.8369 30.48 74.4129 30.32 74.9569 30.32C75.4689 30.32 75.8849 30.496 76.2049 30.848C76.5249 31.168 76.6849 31.664 76.6849 32.336C76.3009 33.36 75.5489 34.4 74.4289 35.456C73.3089 36.48 71.8849 37.328 70.1569 38C68.4289 38.672 66.5409 39.008 64.4929 39.008ZM62.4289 26.096C63.5489 26.064 64.9569 25.888 66.6529 25.568C68.3489 25.248 69.8849 24.688 71.2609 23.888C72.6369 23.056 73.3249 21.968 73.3249 20.624C73.3249 20.24 73.1169 19.936 72.7009 19.712C72.2849 19.456 71.8369 19.328 71.3569 19.328C70.3969 19.328 69.2929 19.696 68.0449 20.432C66.8289 21.168 65.6929 22.064 64.6369 23.12C63.5809 24.176 62.8449 25.168 62.4289 26.096ZM104.317 16.496C104.445 16.688 104.605 17.056 104.797 17.6C105.021 18.112 105.133 18.512 105.133 18.8C105.133 18.96 105.117 19.056 105.085 19.088C104.925 19.28 104.557 19.44 103.981 19.568C103.405 19.696 103.021 19.776 102.829 19.808C101.837 20.448 100.253 21.472 98.0771 22.88C95.9331 24.256 94.3651 25.264 93.3731 25.904C93.4371 26.672 94.0131 27.856 95.1011 29.456C96.1891 31.024 97.3571 32.512 98.6051 33.92C99.8531 35.328 100.605 36.032 100.861 36.032C101.149 36.032 101.501 36.272 101.917 36.752C102.365 37.232 102.589 37.664 102.589 38.048C102.589 38.4 102.365 38.624 101.917 38.72C101.629 38.784 101.085 38.896 100.285 39.056C99.5171 39.216 98.8451 39.296 98.2691 39.296C97.7571 39.296 97.3571 39.232 97.0691 39.104C96.3331 38.848 95.3251 38 94.0451 36.56C92.7971 35.088 91.5971 33.456 90.4451 31.664C89.2931 29.84 88.5411 28.272 88.1891 26.96C87.1651 31.088 86.4451 33.92 86.0291 35.456C85.6131 36.96 85.2771 37.936 85.0211 38.384C84.7651 38.864 84.4611 39.104 84.1091 39.104L82.7651 39.152C80.6531 39.152 79.5491 38.304 79.4531 36.608C80.0931 35.04 80.5411 33.744 80.7971 32.72C83.9651 20.976 86.2211 12.128 87.5651 6.176C87.5331 5.696 87.5011 5.04 87.4691 4.208C87.4371 3.344 87.4211 2.672 87.4211 2.192C87.5171 1.776 87.8691 1.44 88.4771 1.184C89.1171 0.927999 89.6931 0.799998 90.2051 0.799998C91.0051 0.799998 91.8531 1.072 92.7491 1.616C93.6451 2.16 94.1091 2.816 94.1411 3.584L89.8691 20.336L89.0531 23.648C89.7251 22.816 90.8611 21.792 92.4611 20.576C94.0931 19.36 95.7571 18.272 97.4531 17.312C99.1811 16.352 100.557 15.776 101.581 15.584C101.837 15.584 102.301 15.664 102.973 15.824C103.677 15.984 104.125 16.208 104.317 16.496ZM144.734 5.552C145.886 6.16 146.462 6.928 146.462 7.856C146.462 8.432 146.142 8.976 145.502 9.488C144.894 9.968 144.206 10.304 143.438 10.496C137.454 10.88 133.07 11.216 130.286 11.504L127.646 21.968C130.174 21.552 132.142 21.28 133.55 21.152C134.958 21.024 135.822 20.944 136.142 20.912L137.342 20.816C138.59 21.36 139.214 22.096 139.214 23.024C139.214 23.824 138.846 24.464 138.11 24.944C137.406 25.424 136.59 25.76 135.662 25.952C134.894 26.048 133.774 26.16 132.302 26.288C131.918 26.32 131.134 26.4 129.95 26.528C128.798 26.656 127.614 26.816 126.398 27.008L124.094 36.272C123.934 36.944 123.758 37.44 123.566 37.76C123.406 38.048 123.102 38.256 122.654 38.384C122.238 38.544 121.598 38.624 120.734 38.624C119.742 38.624 119.006 38.448 118.526 38.096C118.078 37.776 117.854 37.216 117.854 36.416C117.854 36.064 117.902 35.728 117.998 35.408L124.238 10.736C123.79 10.032 123.566 9.52 123.566 9.2C123.63 8.272 124.238 7.536 125.39 6.992C127.79 6.672 131.15 6.368 135.47 6.08C139.79 5.76 142.878 5.584 144.734 5.552ZM153.898 38.48C152.01 38.48 150.378 38.032 149.002 37.136C147.626 36.24 146.57 35.024 145.834 33.488C145.13 31.952 144.778 30.208 144.778 28.256C144.778 25.696 145.274 23.392 146.266 21.344C147.29 19.264 148.73 17.632 150.586 16.448C152.442 15.264 154.602 14.672 157.066 14.672C159.786 14.672 161.626 14.912 162.586 15.392C162.842 15.52 163.082 15.728 163.306 16.016C163.562 16.272 163.706 16.528 163.738 16.784C163.674 17.648 163.386 18.256 162.874 18.608C163.61 18.672 164.218 19.04 164.698 19.712C165.21 20.384 165.594 21.168 165.85 22.064C166.106 22.928 166.234 23.712 166.234 24.416C166.234 26.688 165.738 28.912 164.746 31.088C163.754 33.232 162.314 35.008 160.426 36.416C158.57 37.792 156.394 38.48 153.898 38.48ZM154.57 34.496C155.594 34.496 156.57 34 157.498 33.008C158.458 32.016 159.226 30.704 159.802 29.072C160.41 27.408 160.714 25.632 160.714 23.744C160.714 23.392 160.602 23.072 160.378 22.784C160.154 22.496 159.834 22.192 159.418 21.872C159.354 21.84 159.194 21.712 158.938 21.488C158.714 21.264 158.602 21.056 158.602 20.864C158.602 20.736 158.634 20.56 158.698 20.336C158.762 20.08 158.794 19.904 158.794 19.808C158.794 19.36 158.234 19.136 157.114 19.136C155.802 19.136 154.634 19.664 153.61 20.72C152.618 21.744 151.834 23.072 151.258 24.704C150.714 26.304 150.442 27.92 150.442 29.552C150.442 30.48 150.65 31.328 151.066 32.096C151.514 32.832 152.058 33.424 152.698 33.872C153.338 34.288 153.962 34.496 154.57 34.496ZM173.872 36.176C173.84 36.368 173.76 36.752 173.632 37.328C173.536 37.872 173.264 38.256 172.816 38.48C172.4 38.704 171.728 38.816 170.8 38.816C169.744 38.816 168.976 38.704 168.496 38.48C168.016 38.256 167.776 37.776 167.776 37.04C167.872 36.656 168.56 33.92 169.84 28.832C170.768 24.896 171.456 22.128 171.904 20.528C172.384 18.256 172.944 16.768 173.584 16.064C174.224 15.328 174.96 14.96 175.792 14.96C176.912 14.96 177.632 15.12 177.952 15.44C178.304 15.76 178.48 16.176 178.48 16.688L177.904 19.52C178.928 18.272 180.112 17.248 181.456 16.448C182.832 15.616 184.048 15.2 185.104 15.2C186.48 15.2 187.552 15.44 188.32 15.92C189.088 16.4 189.472 17.024 189.472 17.792C189.472 18.368 189.104 18.832 188.368 19.184C187.664 19.504 186.736 19.712 185.584 19.808C183.856 19.968 182.08 20.72 180.256 22.064C178.464 23.408 177.12 24.992 176.224 26.816L173.872 36.176ZM191.591 17.504C191.719 16.48 191.927 15.744 192.215 15.296C192.535 14.848 193.223 14.624 194.279 14.624C195.431 14.624 196.183 14.848 196.535 15.296C196.887 15.712 197.111 16.352 197.207 17.216L196.583 20.768C198.567 17.216 200.935 15.44 203.687 15.44C205.063 15.44 206.167 15.888 206.999 16.784C207.831 17.648 208.247 18.976 208.247 20.768C208.247 21.568 208.151 22.496 207.959 23.552C209.111 21.184 210.199 19.408 211.223 18.224C212.279 17.04 213.223 16.288 214.055 15.968C214.887 15.616 215.751 15.44 216.647 15.44C220.007 15.44 221.751 17.04 221.879 20.24C221.879 20.688 221.815 21.328 221.687 22.16C221.143 25.136 220.375 29.584 219.383 35.504C219.191 36.656 218.967 37.52 218.711 38.096C218.455 38.704 218.071 39.152 217.559 39.44C217.047 39.728 216.311 39.872 215.351 39.872C213.911 39.872 213.159 38.976 213.095 37.184C213.159 36.736 213.191 36.384 213.191 36.128C213.415 34.72 213.943 32 214.775 27.968C215.511 24.576 215.879 22.544 215.879 21.872C215.879 21.2 215.735 20.736 215.447 20.48C215.159 20.192 214.823 20.048 214.439 20.048C213.799 20.048 212.871 21.184 211.655 23.456C210.471 25.696 209.287 28.208 208.103 30.992C206.951 33.776 206.215 35.68 205.895 36.704C205.799 37.024 205.399 37.424 204.695 37.904C204.023 38.384 203.463 38.624 203.015 38.624C200.807 38.624 199.703 38.176 199.703 37.28C199.895 36.736 200.551 33.984 201.671 29.024L203.495 21.2C203.463 20.912 203.319 20.672 203.063 20.48C202.807 20.288 202.535 20.192 202.247 20.192C201.063 20.192 199.815 21.232 198.503 23.312C197.223 25.392 196.087 27.728 195.095 30.32C194.135 32.912 193.575 34.72 193.415 35.744C193.255 36.64 192.951 37.264 192.503 37.616C192.055 37.968 191.287 38.144 190.199 38.144C189.271 38.144 188.567 38.032 188.087 37.808C187.607 37.552 187.351 37.072 187.319 36.368C187.319 36.016 187.703 34.144 188.471 30.752C189.239 27.36 190.279 22.944 191.591 17.504ZM240.675 19.424C240.291 19.232 239.811 19.136 239.235 19.136C237.795 19.136 236.355 19.424 234.915 20C233.475 20.576 232.755 21.312 232.755 22.208C232.755 22.848 233.043 23.36 233.619 23.744C234.195 24.128 235.107 24.56 236.355 25.04C237.699 25.584 238.787 26.096 239.619 26.576C240.451 27.056 241.171 27.76 241.779 28.688C242.419 29.584 242.739 30.736 242.739 32.144C242.739 34.448 241.779 36.224 239.859 37.472C237.971 38.688 235.427 39.296 232.227 39.296C230.659 39.296 229.203 39.056 227.859 38.576C226.515 38.096 225.443 37.488 224.643 36.752C223.875 35.984 223.459 35.232 223.395 34.496C223.395 33.728 223.731 33.104 224.403 32.624C225.075 32.112 226.019 31.776 227.235 31.616C227.267 32.256 227.603 32.864 228.243 33.44C228.883 33.984 229.635 34.432 230.499 34.784C231.395 35.104 232.163 35.264 232.803 35.264C233.891 35.264 234.883 34.976 235.779 34.4C236.675 33.792 237.123 33.088 237.123 32.288C237.123 30.816 235.699 29.648 232.851 28.784C231.027 28.24 229.619 27.376 228.627 26.192C227.667 25.008 227.187 23.76 227.187 22.448C227.187 19.856 228.355 18 230.691 16.88C233.059 15.728 236.067 15.152 239.715 15.152C241.763 15.152 243.347 15.392 244.467 15.872C245.587 16.352 246.147 17.184 246.147 18.368C246.147 19.168 245.843 19.872 245.235 20.48C244.659 21.088 243.827 21.392 242.739 21.392C241.779 21.392 241.155 21.328 240.867 21.2C240.611 21.04 240.467 20.784 240.435 20.432C240.435 20.112 240.515 19.776 240.675 19.424Z" fill="white"/>
</svg>
