<svg width="126" height="35" viewBox="0 0 126 35" fill="none" xmlns="http://www.w3.org/2000/svg">
<path d="M0.160156 19.7754H5.27539C5.52148 21.8672 7.70117 23.2383 10.5137 23.2383C13.3438 23.2383 15.2773 21.8848 15.2773 20.0215C15.2773 18.3691 14.0645 17.4551 11.0059 16.7695L7.70117 16.0488C3.02539 15.0469 0.722656 12.6738 0.722656 8.96484C0.722656 4.28906 4.76562 1.19531 10.4258 1.19531C16.332 1.19531 20.041 4.23633 20.1289 8.82422H15.1543C14.9785 6.67969 13.0977 5.37891 10.4434 5.37891C7.82422 5.37891 6.06641 6.62695 6.06641 8.50781C6.06641 10.0723 7.29688 10.9512 10.2148 11.6191L13.291 12.2695C18.3711 13.3594 20.5859 15.5391 20.5859 19.4062C20.5859 24.3281 16.5957 27.4395 10.3027 27.4395C4.20312 27.4395 0.318359 24.5391 0.160156 19.7754ZM23.5039 27V8.15625H28.6367V27H23.5039ZM26.0703 6.08203C24.5234 6.08203 23.3281 4.9043 23.3281 3.42773C23.3281 1.93359 24.5234 0.773438 26.0703 0.773438C27.6172 0.773438 28.8125 1.93359 28.8125 3.42773C28.8125 4.9043 27.6172 6.08203 26.0703 6.08203ZM40.7656 22.9922C43.332 22.9922 44.9668 20.9531 44.9668 17.543C44.9668 14.1504 43.332 11.9707 40.7656 11.9707C38.2344 11.9707 36.6348 14.1152 36.6348 17.543C36.6348 20.9883 38.2168 22.9922 40.7656 22.9922ZM40.6777 34.1016C35.7207 34.1016 32.3633 31.6934 31.959 28.3359H36.9863C37.3906 29.6367 38.8672 30.5332 40.8184 30.5332C43.4727 30.5332 44.9492 29.0566 44.9492 26.877V23.5723H44.8438C43.9648 25.5762 41.75 26.9473 39.0254 26.9473C34.4199 26.9473 31.3789 23.3965 31.3789 17.5078C31.3789 11.5312 34.332 7.85742 39.1133 7.85742C41.8203 7.85742 43.9473 9.28125 44.9316 11.4434H45.0195V8.15625H50.082V26.7363C50.082 31.2363 46.3203 34.1016 40.6777 34.1016ZM53.4395 27V8.15625H58.3965V11.5137H58.502C59.5039 9.17578 61.4902 7.80469 64.3906 7.80469C68.5742 7.80469 70.9297 10.4414 70.9297 14.8535V27H65.7969V15.9258C65.7969 13.4648 64.6367 12.0586 62.334 12.0586C60.0312 12.0586 58.5723 13.7461 58.5723 16.1895V27H53.4395ZM87.0664 1.63477V17.5078C87.0664 20.7598 88.9824 22.8867 92.3926 22.8867C95.7852 22.8867 97.7012 20.7598 97.7012 17.5078V1.63477H103.01V18.0352C103.01 23.625 98.8789 27.4395 92.3926 27.4395C85.8887 27.4395 81.7578 23.625 81.7578 18.0352V1.63477H87.0664ZM117.811 7.85742C122.592 7.85742 125.527 11.4961 125.527 17.5781C125.527 23.6426 122.609 27.2988 117.898 27.2988C115.156 27.2988 113.047 25.9629 112.045 23.8359H111.939V33.1523H106.807V8.15625H111.869V11.4434H111.975C112.994 9.22852 115.086 7.85742 117.811 7.85742ZM116.088 23.168C118.654 23.168 120.271 21.0059 120.271 17.5781C120.271 14.168 118.654 11.9707 116.088 11.9707C113.574 11.9707 111.922 14.2031 111.922 17.5781C111.922 20.9883 113.574 23.168 116.088 23.168Z" fill="white"/>
</svg>
