<svg width="261" height="80" viewBox="0 0 261 80" fill="none" xmlns="http://www.w3.org/2000/svg">
<path d="M28.9095 0.425781C28.7341 0.874269 28.5666 1.32407 28.4109 1.77783L20.2551 35.9038C14.8864 51.6193 24.0817 64.4777 40.6889 64.4777H208.947C225.554 64.4777 243.534 51.6193 248.903 35.9038L257.06 1.77783C257.215 1.32407 257.354 0.874269 257.485 0.425781H28.9095Z" fill="#F2B705"/>
<path d="M0 0H29.2849L25.3039 16.1521L0 0Z" fill="#18298C"/>
<path d="M213.043 72.4871H175.328V71.2287H213.043C230.4 71.2287 249.087 57.8651 254.699 41.4399L259.497 21.3477L260.721 21.6405L255.905 41.7894C250.116 58.7409 230.897 72.4871 213.043 72.4871Z" fill="#83C691"/>
<path d="M40.8672 64.0508L154.183 79.5711V64.0508H40.8672Z" fill="#18298C"/>
<path d="M61.9688 41.4258H58.4297V27.4336H53.543V24.5156H66.8672V27.4336H61.9688V41.4258ZM66.9375 41.4258V28.8633H70.2422V31.125H70.3125C70.7578 29.5312 71.8242 28.6641 73.3008 28.6641C73.6992 28.6641 74.0391 28.7227 74.2734 28.793V31.8047C73.9922 31.6875 73.5234 31.6055 73.0312 31.6055C71.3438 31.6055 70.3594 32.6367 70.3594 34.4062V41.4258H66.9375ZM80.2266 39.1523C81.7148 39.1523 82.9453 38.1797 82.9453 36.8203V35.9062L80.2969 36.0703C79.0195 36.1641 78.293 36.7383 78.293 37.6289C78.293 38.5664 79.0664 39.1523 80.2266 39.1523ZM79.1016 41.625C76.7109 41.625 74.8945 40.0781 74.8945 37.8164C74.8945 35.5312 76.6523 34.207 79.7812 34.0195L82.9453 33.832V33C82.9453 31.8281 82.125 31.1484 80.8359 31.1484C79.5586 31.1484 78.75 31.7812 78.5859 32.707H75.457C75.5859 30.2695 77.6602 28.5938 80.9883 28.5938C84.2109 28.5938 86.3086 30.2578 86.3086 32.7891V41.4258H83.0039V39.5039H82.9336C82.2305 40.8398 80.6719 41.625 79.1016 41.625ZM99.9375 33.5391H96.7617C96.5625 32.2148 95.6836 31.2773 94.2773 31.2773C92.5898 31.2773 91.5352 32.707 91.5352 35.1328C91.5352 37.6055 92.5898 39.0117 94.2891 39.0117C95.6602 39.0117 96.5508 38.1914 96.7617 36.8203H99.9492C99.7734 39.7852 97.5586 41.6953 94.2539 41.6953C90.4688 41.6953 88.0664 39.2344 88.0664 35.1328C88.0664 31.1016 90.4688 28.5938 94.2305 28.5938C97.6289 28.5938 99.7852 30.6914 99.9375 33.5391ZM105.152 33.9023L109.418 28.8633H113.297L108.504 34.2539L113.531 41.4258H109.594L105.996 36.3164L105.105 37.2773V41.4258H101.684V24.5156H105.105V33.9023H105.152ZM114.574 41.4258V28.8633H117.996V41.4258H114.574ZM116.285 27.4805C115.254 27.4805 114.457 26.6953 114.457 25.7109C114.457 24.7148 115.254 23.9414 116.285 23.9414C117.316 23.9414 118.113 24.7148 118.113 25.7109C118.113 26.6953 117.316 27.4805 116.285 27.4805ZM120.281 41.4258V28.8633H123.586V31.1016H123.656C124.324 29.543 125.648 28.6289 127.582 28.6289C130.371 28.6289 131.941 30.3867 131.941 33.3281V41.4258H128.52V34.043C128.52 32.4023 127.746 31.4648 126.211 31.4648C124.676 31.4648 123.703 32.5898 123.703 34.2188V41.4258H120.281ZM139.91 38.7539C141.621 38.7539 142.711 37.3945 142.711 35.1211C142.711 32.8594 141.621 31.4062 139.91 31.4062C138.223 31.4062 137.156 32.8359 137.156 35.1211C137.156 37.418 138.211 38.7539 139.91 38.7539ZM139.852 46.1602C136.547 46.1602 134.309 44.5547 134.039 42.3164H137.391C137.66 43.1836 138.645 43.7812 139.945 43.7812C141.715 43.7812 142.699 42.7969 142.699 41.3438V39.1406H142.629C142.043 40.4766 140.566 41.3906 138.75 41.3906C135.68 41.3906 133.652 39.0234 133.652 35.0977C133.652 31.1133 135.621 28.6641 138.809 28.6641C140.613 28.6641 142.031 29.6133 142.688 31.0547H142.746V28.8633H146.121V41.25C146.121 44.25 143.613 46.1602 139.852 46.1602ZM152.777 36.6094H156.188C156.352 38.0039 157.805 38.918 159.68 38.918C161.566 38.918 162.855 38.0156 162.855 36.7734C162.855 35.6719 162.047 35.0625 160.008 34.6055L157.805 34.125C154.688 33.457 153.152 31.875 153.152 29.4023C153.152 26.2852 155.848 24.2227 159.621 24.2227C163.559 24.2227 166.031 26.25 166.09 29.3086H162.773C162.656 27.8789 161.402 27.0117 159.633 27.0117C157.887 27.0117 156.715 27.8438 156.715 29.0977C156.715 30.1406 157.535 30.7266 159.48 31.1719L161.531 31.6055C164.918 32.332 166.395 33.7852 166.395 36.3633C166.395 39.6445 163.734 41.7188 159.539 41.7188C155.473 41.7188 152.883 39.7852 152.777 36.6094ZM169.195 25.9688H172.617V28.8633H174.938V31.4414H172.617V37.4531C172.617 38.4141 173.086 38.8711 174.094 38.8711C174.398 38.8711 174.715 38.8477 174.926 38.8125V41.332C174.574 41.4141 173.988 41.4727 173.297 41.4727C170.344 41.4727 169.195 40.4883 169.195 38.0391V31.4414H167.426V28.8633H169.195V25.9688ZM181.547 39.1523C183.035 39.1523 184.266 38.1797 184.266 36.8203V35.9062L181.617 36.0703C180.34 36.1641 179.613 36.7383 179.613 37.6289C179.613 38.5664 180.387 39.1523 181.547 39.1523ZM180.422 41.625C178.031 41.625 176.215 40.0781 176.215 37.8164C176.215 35.5312 177.973 34.207 181.102 34.0195L184.266 33.832V33C184.266 31.8281 183.445 31.1484 182.156 31.1484C180.879 31.1484 180.07 31.7812 179.906 32.707H176.777C176.906 30.2695 178.98 28.5938 182.309 28.5938C185.531 28.5938 187.629 30.2578 187.629 32.7891V41.4258H184.324V39.5039H184.254C183.551 40.8398 181.992 41.625 180.422 41.625ZM190.758 25.9688H194.18V28.8633H196.5V31.4414H194.18V37.4531C194.18 38.4141 194.648 38.8711 195.656 38.8711C195.961 38.8711 196.277 38.8477 196.488 38.8125V41.332C196.137 41.4141 195.551 41.4727 194.859 41.4727C191.906 41.4727 190.758 40.4883 190.758 38.0391V31.4414H188.988V28.8633H190.758V25.9688ZM209.977 28.8633V41.4258H206.672V39.1641H206.602C205.98 40.7461 204.738 41.6602 202.84 41.6602C200.121 41.6602 198.316 39.8906 198.316 36.9609V28.8633H201.738V36.2461C201.738 37.9219 202.57 38.8125 204.082 38.8125C205.605 38.8125 206.555 37.7227 206.555 36.0586V28.8633H209.977ZM211.992 32.5547C211.992 30.1641 214.066 28.5938 217.289 28.5938C220.441 28.5938 222.492 30.1875 222.539 32.625H219.387C219.316 31.6172 218.508 30.9961 217.242 30.9961C216.059 30.9961 215.285 31.5352 215.285 32.3438C215.285 32.9648 215.824 33.3867 216.926 33.6445L219.328 34.1602C221.848 34.7227 222.867 35.7188 222.867 37.5938C222.867 40.0664 220.594 41.6953 217.277 41.6953C213.926 41.6953 211.863 40.0781 211.676 37.6289H215.016C215.18 38.6836 216.012 39.293 217.371 39.293C218.672 39.293 219.457 38.7773 219.457 37.957C219.457 37.3242 219.035 36.9727 217.91 36.7031L215.59 36.1875C213.211 35.6484 211.992 34.4062 211.992 32.5547Z" fill="white"/>
</svg>
