<svg width="46" height="46" viewBox="0 0 46 46" fill="none" xmlns="http://www.w3.org/2000/svg">
<circle cx="23" cy="23" r="22.5" fill="#51D7E0" stroke="black"/>
<path d="M37.2512 18.311C36.7591 16.8164 36.0343 15.4088 35.1035 14.1402L33.9512 14.9855C34.7938 16.1324 35.4494 17.4054 35.8938 18.7574L37.2512 18.311Z" fill="#F19157"/>
<path d="M10.0807 18.8386L8.7205 18.4007C8.24158 19.8886 7.99847 21.4423 8.00001 23.0054V23.0346L9.42852 23.0053C9.42677 21.5909 9.64684 20.1849 10.0807 18.8386Z" fill="#F19157"/>
<path d="M12.0302 30.9991C11.1898 29.8504 10.5365 28.576 10.0946 27.223L8.7373 27.6666C9.22519 29.1626 9.94723 30.5718 10.8765 31.8417L12.0302 30.9991Z" fill="#F19157"/>
<path d="M14.9943 12.0405L14.1503 10.8883C12.8806 11.8164 11.7645 12.9381 10.8428 14.2125L11.9992 15.0494C12.8345 13.8963 13.8451 12.8811 14.9943 12.0405Z" fill="#F19157"/>
<path d="M22.9608 9.42891L22.9552 8.00049C21.3825 8.00505 19.8203 8.25591 18.3252 8.74396L18.7702 10.1026C20.1232 9.66003 21.5373 9.43269 22.9608 9.42891Z" fill="#F19157"/>
<path d="M38.0004 23.0072V22.95L36.5719 23.0072C36.5734 24.4309 36.3508 25.846 35.9121 27.2004L37.2708 27.6412C37.7556 26.1444 38.0019 24.5806 38.0004 23.0072Z" fill="#F19157"/>
<path d="M18.8183 35.9224C17.4645 35.4834 16.188 34.8343 15.0357 33.9988L14.1973 35.1538C15.4699 36.0794 16.8813 36.7974 18.3788 37.2811L18.8183 35.9224Z" fill="#F19157"/>
<path d="M23.0107 36.5644L23.0136 37.9928C24.5863 37.9916 26.1492 37.7436 27.645 37.2577L27.2028 35.8989C25.8489 36.3388 24.4343 36.5633 23.0107 36.5644Z" fill="#F19157"/>
<path d="M31.774 10.8421C30.4994 9.92008 29.0869 9.20541 27.589 8.72452L27.1523 10.0832C28.5072 10.5191 29.7849 11.166 30.9384 11.9998L31.774 10.8421Z" fill="#F19157"/>
<path d="M35.1401 31.8127L33.985 30.9729C33.1474 32.1239 32.1349 33.1367 30.9844 33.9749L31.8256 35.1298C33.0968 34.2039 34.2152 33.0847 35.1401 31.8127Z" fill="#F19157"/>
<path d="M25.317 18.9398L22.9996 14.002L20.6822 18.9398L15.5 19.7318L19.2498 23.5746L18.3649 29.0013L22.9996 26.4394L27.6344 29.0013L26.7494 23.5746L30.4992 19.7318L25.317 18.9398Z" fill="white"/>
</svg>
