<svg width="46" height="46" viewBox="0 0 46 46" fill="none" xmlns="http://www.w3.org/2000/svg">
<path d="M23 0C10.2976 0 0 10.2976 0 23.0003C0 35.7029 10.2976 46.0005 23 46.0005C35.7027 46.0005 46 35.7029 46 23.0003C46 10.2976 35.7027 0 23 0ZM23 44.4901C11.1318 44.4901 1.51048 34.869 1.51048 23.0003C1.51048 11.1318 11.1318 1.51048 23 1.51048C34.8687 1.51048 44.4898 11.1318 44.4898 23.0003C44.4898 34.8687 34.8687 44.4901 23 44.4901Z" fill="#F5F81B"/>
<path d="M22.9985 2.53906C11.699 2.53906 2.53906 11.699 2.53906 22.9988C2.53906 34.2986 11.699 43.4585 22.9985 43.4585C34.2983 43.4585 43.4583 34.2986 43.4583 22.9988C43.4583 11.699 34.2983 2.53906 22.9985 2.53906ZM22.9985 43.0124C11.9456 43.0124 2.98515 34.052 2.98515 22.9988C2.98515 11.9456 11.9456 2.98515 22.9985 2.98515C34.0518 2.98515 43.0122 11.9456 43.0122 22.9988C43.0122 34.0518 34.0518 43.0124 22.9985 43.0124Z" fill="#F5F81B"/>
<path d="M15.4435 29.5136H12.3284L8.8528 20.9005H8.80908V29.5136H5.94531V15.8398H9.16987L12.591 24.3217H12.6458V15.8398H15.4438L15.4435 29.5136Z" fill="#F5F81B"/>
<path d="M25.4034 29.5111H18.5938V15.8594H24.9769V18.4935H21.523V21.2698H24.4852V23.8058H21.523V26.8225H25.4031V29.5111H25.4034Z" fill="#F5F81B"/>
<path d="M41.0237 15.8594L38.2691 29.5111H35.8721L34.1703 20.0019H34.1266L32.4375 29.5111H29.8529L27.1641 15.8594H30.1719L30.7102 18.592L31.3323 24.6363H31.3771L32.9461 15.8594H35.3836L36.9922 25.0078H37.037L37.6234 19.0619C37.7237 18.0855 37.9169 17.0179 38.2026 15.8596L41.0237 15.8594Z" fill="#F5F81B"/>
<path d="M24.7627 11.0339L22.8241 9.88609L20.8865 11.0355L21.379 8.83726L19.6875 7.34985L21.9303 7.13901L22.8219 5.07031L23.716 7.1382L25.959 7.34689L24.268 8.83591L24.7627 11.0339Z" fill="#F5F81B"/>
<path d="M30.4632 11.2972L29.0528 10.4622L27.6424 11.2986L28.0008 9.69875L26.7695 8.61612L28.4018 8.46241L29.0509 6.95703L29.7017 8.46188L31.3334 8.61397L30.103 9.69741L30.4632 11.2972Z" fill="#F5F81B"/>
<path d="M34.8267 13.1356L33.8262 12.5433L32.8267 13.1362L33.0802 12.0023L32.207 11.2348L33.3648 11.1254L33.8253 10.0586L34.2862 11.1254L35.4434 11.233L34.5711 12.0015L34.8267 13.1356Z" fill="#F5F81B"/>
<path d="M12.8189 13.1356L11.8186 12.5433L10.8186 13.1362L11.0729 12.0023L10.1992 11.2348L11.3572 11.1254L11.8173 10.0586L12.2784 11.1254L13.4353 11.233L12.5635 12.0015L12.8189 13.1356Z" fill="#F5F81B"/>
<path d="M17.877 11.2972L16.4669 10.4622L15.0567 11.2986L15.4148 9.69875L14.1836 8.61612L15.8159 8.46241L16.465 6.95703L17.1155 8.46188L18.7475 8.61397L17.5173 9.69741L17.877 11.2972Z" fill="#F5F81B"/>
<path d="M24.7627 40.8191L22.8241 39.6712L20.8865 40.8207L21.379 38.6224L19.6875 37.1347L21.9303 36.9242L22.8219 34.8555L23.716 36.9231L25.959 37.1318L24.268 38.6211L24.7627 40.8191Z" fill="#F5F81B"/>
<path d="M30.4632 38.3519L29.0528 37.5169L27.6424 38.3532L28.0008 36.7534L26.7695 35.6708L28.4018 35.5171L29.0509 34.0117L29.7017 35.5166L31.3334 35.6687L30.103 36.7521L30.4632 38.3519Z" fill="#F5F81B"/>
<path d="M34.8267 34.6359L33.8262 34.0436L32.8267 34.6364L33.0802 33.5023L32.207 32.7351L33.3648 32.6257L33.8253 31.5586L34.2862 32.6257L35.4434 32.7332L34.5711 33.5017L34.8267 34.6359Z" fill="#F5F81B"/>
<path d="M12.8189 34.6359L11.8186 34.0436L10.8186 34.6364L11.0729 33.5023L10.1992 32.7351L11.3572 32.6257L11.8173 31.5586L12.2784 32.6257L13.4353 32.7332L12.5635 33.5017L12.8189 34.6359Z" fill="#F5F81B"/>
<path d="M17.877 38.3519L16.4669 37.5169L15.0567 38.3532L15.4148 36.7534L14.1836 35.6708L15.8159 35.5171L16.465 34.0117L17.1155 35.5166L18.7475 35.6687L17.5173 36.7521L17.877 38.3519Z" fill="#F5F81B"/>
</svg>
