<svg width="94" height="37" viewBox="0 0 94 37" fill="none" xmlns="http://www.w3.org/2000/svg">
<path d="M90.0283 36.5563L74.7085 36.7465L66.7305 36.7976L66.3278 36.7963L51.0213 36.7431L3.56466 36.6212C3.56466 36.6212 -4.51396 26.016 3.65233 11.6954C9.02362 2.27616 20.1259 8.92894 29.4661 3.8087C38.0476 -0.895641 41.939 0.0631342 44.2428 0.112559C49.1915 0.217956 54.1164 1.75044 58.1896 4.69967C58.2652 4.75426 58.3406 4.80951 58.4155 4.86513C58.5277 4.94856 58.6399 5.0299 58.7521 5.10955C58.758 5.11402 58.7643 5.11849 58.7701 5.12258C58.941 5.2441 59.1119 5.36152 59.2828 5.47513C59.2994 5.48612 59.316 5.49711 59.3326 5.50775C59.5098 5.62517 59.6866 5.73774 59.8634 5.84623C59.9759 5.91558 60.0885 5.98285 60.2011 6.04877C60.2251 6.06285 60.2487 6.07692 60.2727 6.09067C60.3834 6.15486 60.4941 6.2177 60.6049 6.2788C60.6746 6.31759 60.7447 6.35568 60.8145 6.39311C60.8289 6.40067 60.8433 6.40857 60.8577 6.41612C61.0909 6.54041 61.3238 6.6578 61.5563 6.76833C71.5872 11.559 81.9109 -0.100502 90.7459 9.40531C95.1653 14.1603 95.2323 31.6252 90.0283 36.5563Z" fill="#E9F3FE"/>
<path d="M44.6839 8.43552H40.5014C40.3094 8.43552 40.1523 8.27849 40.1523 8.08656V4.05111C40.1523 3.85917 40.3094 3.70215 40.5014 3.70215H44.6839C44.8759 3.70215 45.033 3.85917 45.033 4.05111V8.08653C45.033 8.27846 44.8759 8.43552 44.6839 8.43552Z" fill="#C0D8FB"/>
<path d="M44.5023 8.22855H40.6821C40.5068 8.22855 40.3633 8.08512 40.3633 7.9098V4.22402C40.3633 4.0487 40.5068 3.90527 40.6821 3.90527H44.5023C44.6776 3.90527 44.8211 4.0487 44.8211 4.22402V7.9098C44.8211 8.08512 44.6776 8.22855 44.5023 8.22855Z" fill="#DFEBFD"/>
<path d="M42.4883 4.33641C42.4883 4.28059 42.5336 4.23535 42.5894 4.23535C42.6452 4.23535 42.6905 4.28062 42.6905 4.33641C42.6905 4.39222 42.6452 4.43749 42.5894 4.43749C42.5336 4.43749 42.4883 4.39222 42.4883 4.33641Z" fill="#B7D3F3"/>
<path d="M43.3057 4.47778C43.3328 4.42898 43.3944 4.41141 43.4432 4.43852C43.492 4.46562 43.5096 4.52717 43.4825 4.57597C43.4554 4.62476 43.3938 4.64233 43.345 4.61519C43.2962 4.58808 43.2786 4.52654 43.3057 4.47778Z" fill="#B7D3F3"/>
<path d="M44.0033 5.03471C44.0503 5.00445 44.1128 5.01793 44.1431 5.06486C44.1734 5.11177 44.1598 5.17432 44.1129 5.20458C44.066 5.23483 44.0034 5.22136 43.9732 5.17445C43.9429 5.12751 43.9564 5.06496 44.0033 5.03471Z" fill="#B7D3F3"/>
<path d="M44.3472 5.89453C44.403 5.89453 44.4483 5.9398 44.4483 5.99558C44.4483 6.0514 44.403 6.09667 44.3472 6.09667C44.2914 6.09667 44.2461 6.0514 44.2461 5.99558C44.2461 5.93977 44.2913 5.89453 44.3472 5.89453Z" fill="#B7D3F3"/>
<path d="M44.1726 6.89289C44.2121 6.93237 44.2121 6.99637 44.1726 7.03581C44.1331 7.07526 44.0691 7.07526 44.0296 7.03581C43.9901 6.99634 43.9901 6.93233 44.0296 6.89289C44.0691 6.85341 44.1331 6.85341 44.1726 6.89289Z" fill="#B7D3F3"/>
<path d="M43.5398 7.52568C43.5793 7.56515 43.5793 7.62915 43.5398 7.6686C43.5003 7.70804 43.4363 7.70804 43.3968 7.6686C43.3573 7.62912 43.3573 7.56512 43.3968 7.52568C43.4363 7.48623 43.5003 7.48623 43.5398 7.52568Z" fill="#B7D3F3"/>
<path d="M42.4883 7.85301C42.4883 7.79719 42.5336 7.75195 42.5894 7.75195C42.6452 7.75195 42.6905 7.79722 42.6905 7.85301C42.6905 7.90882 42.6452 7.95409 42.5894 7.95409C42.5336 7.95409 42.4883 7.90882 42.4883 7.85301Z" fill="#B7D3F3"/>
<path d="M41.8731 4.48168C41.846 4.43289 41.7844 4.41532 41.7356 4.44243C41.6868 4.46953 41.6692 4.53108 41.6963 4.57987C41.7235 4.62867 41.785 4.64623 41.8338 4.6191C41.8827 4.59199 41.9002 4.53045 41.8731 4.48168Z" fill="#B7D3F3"/>
<path d="M41.1715 5.03471C41.1246 5.00445 41.062 5.01793 41.0318 5.06486C41.0015 5.11177 41.015 5.17432 41.062 5.20458C41.1089 5.23483 41.1714 5.22136 41.2017 5.17445C41.232 5.12751 41.2185 5.06496 41.1715 5.03471Z" fill="#B7D3F3"/>
<path d="M40.8277 5.89355C40.7718 5.89355 40.7266 5.93882 40.7266 5.99461C40.7266 6.05042 40.7718 6.09569 40.8277 6.09569C40.8835 6.09569 40.9288 6.05042 40.9288 5.99461C40.9288 5.93879 40.8835 5.89355 40.8277 5.89355Z" fill="#B7D3F3"/>
<path d="M41.0023 6.89289C40.9628 6.93237 40.9628 6.99637 41.0023 7.03581C41.0417 7.07526 41.1058 7.07526 41.1452 7.03581C41.1847 6.99634 41.1847 6.93233 41.1452 6.89289C41.1058 6.85341 41.0417 6.85341 41.0023 6.89289Z" fill="#B7D3F3"/>
<path d="M41.639 7.52958C41.5995 7.56906 41.5995 7.63306 41.639 7.67251C41.6785 7.71195 41.7425 7.71195 41.782 7.67251C41.8214 7.63303 41.8214 7.56903 41.782 7.52958C41.7425 7.49014 41.6785 7.49014 41.639 7.52958Z" fill="#B7D3F3"/>
<path d="M42.5664 5.99656C42.5664 5.94074 42.6117 5.89551 42.6675 5.89551C42.7233 5.89551 42.7686 5.94078 42.7686 5.99656C42.7686 6.05237 42.7233 6.09764 42.6675 6.09764C42.6117 6.09764 42.5664 6.05237 42.5664 5.99656Z" fill="#B7D3F3"/>
<path d="M42.68 4.73047H42.6523V5.99303H42.68V4.73047Z" fill="#B7D3F3"/>
<path d="M43.2986 5.43564L42.6289 5.96094L42.68 6.02607L43.3497 5.50078L43.2986 5.43564Z" fill="#B7D3F3"/>
<path d="M56.3964 36.404H54.0069C53.9881 36.3999 53.9739 36.3956 53.9645 36.391C53.8052 36.3116 53.855 35.7033 53.8746 35.5149C53.8781 35.4802 53.8807 35.4596 53.8807 35.4596C53.8807 35.4596 54.7182 34.7899 54.8332 35.3027C54.8368 35.3187 54.8409 35.3342 54.8457 35.3497C54.9905 35.8297 55.6409 36.0478 56.0162 36.1085C56.3011 36.1547 56.3766 36.3199 56.3964 36.404Z" fill="#233862"/>
<path d="M54.162 36.4067H51.7725C51.7537 36.4026 51.7395 36.3983 51.7301 36.3938C51.5708 36.3143 51.6206 35.706 51.6402 35.5177C51.6437 35.4829 51.6722 35.1095 51.6722 35.1095C51.6722 35.1095 52.4838 34.7926 52.5989 35.3054C52.6024 35.3214 52.6065 35.3369 52.6114 35.3524C52.7561 35.8325 53.4065 36.0506 53.7819 36.1112C54.0668 36.1574 54.1422 36.3227 54.162 36.4067Z" fill="#203E7A"/>
<path d="M55.521 22.4658C55.521 22.4658 55.1892 31.943 55.165 32.5458C55.1232 33.5925 54.9555 35.2669 54.9555 35.2669C54.9555 35.2669 54.5579 35.6647 53.762 35.4971C53.762 35.4971 53.0529 33.1068 52.8503 30.5778C52.8471 30.5364 52.844 30.4946 52.8408 30.4528C52.6524 27.8783 52.3594 22.457 52.3594 22.457L55.521 22.4658Z" fill="#233862"/>
<path d="M55.7357 21.9047L52.7771 35.4009C52.7771 35.4009 52.1081 35.5623 51.5314 35.3317C51.5314 35.3317 51.3699 29.9817 51.4391 28.3905C51.5083 26.7993 51.3872 22.4063 51.6467 21.8355C51.9063 21.2648 55.7357 21.9047 55.7357 21.9047Z" fill="#2B478B"/>
<path d="M54.7118 14.7509C53.8158 15.0333 52.2656 14.2707 52.2656 14.2707C52.2656 14.2707 53.0917 13.651 53.0485 12.3623L53.7317 12.9126L54.2118 13.2996C54.2118 13.2996 54.2095 13.5638 54.1438 14.0208C54.1331 14.0948 54.1208 14.1738 54.1066 14.2578C54.4914 14.4691 54.7118 14.7509 54.7118 14.7509Z" fill="#FFB27D"/>
<path d="M55.9629 23.0674C55.9359 23.0899 55.9044 23.1034 55.8687 23.1034C55.6314 23.1 55.0739 23.1917 54.4749 23.2162C54.2241 23.2269 53.9659 23.2255 53.7209 23.2003C53.1888 23.1494 52.7033 23.0173 52.2085 22.8257C52.0528 22.7655 51.896 22.6994 51.7365 22.6278C51.6482 22.5884 51.4448 22.4798 51.4493 22.3812C51.4524 22.2729 51.4631 22.1162 51.4766 21.9187C51.5237 21.2324 51.6057 17.7574 51.6046 17.5098C51.5977 15.664 51.8621 14.4675 52.5977 13.9178C52.6607 13.8729 53.0282 13.889 53.3825 14.0636C53.7102 14.2252 54.0563 14.4156 54.3656 14.353L54.675 14.6266C55.0521 14.9763 55.4646 15.4519 55.6442 16.1738C55.7968 16.7882 55.8864 17.8961 55.9359 19.0442C55.9584 19.5644 55.9764 20.0892 55.9809 20.5873V20.605C55.9854 20.6544 55.9854 20.7084 55.9854 20.7578C56.0034 22.0359 55.9854 23.0495 55.9629 23.0674Z" fill="#ADC8FE"/>
<path d="M54.2115 13.2971C54.2115 13.2971 54.2092 13.5613 54.1435 14.0183C53.4456 13.8547 53.0469 12.9818 53.0469 12.9818L53.7314 12.9102L54.2115 13.2971Z" fill="#E8945B"/>
<path d="M54.485 13.2746C54.485 13.2746 53.0051 13.5204 52.8662 12.5967C52.7273 11.6731 52.4427 11.0828 53.3817 10.8868C54.3207 10.6908 54.5577 11.0156 54.6791 11.3126C54.8004 11.6096 54.8664 13.1869 54.485 13.2746Z" fill="#FFB27D"/>
<path d="M54.6791 11.3138C54.6791 11.3138 54.054 11.4826 53.7197 11.4909C53.3853 11.4992 53.4731 12.0046 53.3901 12.0294C53.3071 12.0543 53.1322 11.7813 52.9786 11.9597C52.9074 12.0424 52.9829 12.324 53.0683 12.4687C53.2521 12.7802 52.9627 13.1334 52.9627 13.1334C52.9627 13.1334 51.8696 12.4034 52.0273 11.2667C52.185 10.1299 53.4563 10.165 53.9045 10.2895C54.3527 10.4139 55.0585 10.4588 55.0291 10.7132C55.0002 10.9627 54.9698 11.2556 54.6791 11.3138Z" fill="#233862"/>
<path d="M54.4751 23.2158C54.2243 23.2265 53.9661 23.2251 53.7212 23.1998C53.189 23.149 52.7035 23.0169 52.2087 22.8253C51.9876 22.1698 51.7046 20.8067 51.8471 19.7318C51.9422 19.014 52.6516 16.6445 52.6516 16.6445L54.1914 17.9763C54.1914 17.9763 53.9205 19.3917 53.8686 19.8847C53.7482 21.0255 54.3658 22.8965 54.4751 23.2158Z" fill="#8CB0EA"/>
<path d="M51.473 27.0767L55.4506 26.4265C55.6707 26.3905 55.8214 26.181 55.7854 25.9609L55.5295 24.3967C55.4935 24.1766 55.2839 24.026 55.0638 24.0619L51.0863 24.7121C50.8661 24.7481 50.7154 24.9576 50.7514 25.1777L51.0073 26.7419C51.0433 26.962 51.2529 27.1127 51.473 27.0767Z" fill="#ED7D2B"/>
<path d="M53.4495 23.5406C53.3736 23.5227 53.293 23.5191 53.2113 23.5325L52.724 23.6123L52.6732 23.6206C52.3377 23.6753 52.1094 23.9927 52.1644 24.3282L52.1973 24.5302L52.2591 24.908C52.314 25.2432 52.6315 25.4715 52.9669 25.4166L53.5051 25.3285C53.8405 25.2738 54.0688 24.9564 54.0141 24.6211L53.9524 24.2433L53.9192 24.0414C53.8776 23.7875 53.6856 23.5951 53.4495 23.5406ZM53.7728 24.6604C53.8059 24.8629 53.668 25.0543 53.4658 25.0875L52.9275 25.1753C52.7251 25.2086 52.5336 25.0708 52.5003 24.8684L52.4385 24.4906L52.4054 24.2887C52.3724 24.0864 52.5102 23.8948 52.7127 23.8617L52.811 23.8457L53.2507 23.7737C53.2794 23.7691 53.308 23.7677 53.3358 23.7696C53.5045 23.7811 53.6497 23.9072 53.6779 24.0806L53.7112 24.2828L53.7728 24.6604Z" fill="#ED7D2B"/>
<path d="M53.1911 22.5771C53.1911 22.5771 53.2458 22.918 53.2797 23.0463C53.3543 23.3289 53.6884 23.63 53.1867 23.9932C53.1867 23.9932 52.8987 24.2479 52.858 24.0472C52.8277 23.8981 52.8976 23.8501 52.7629 23.5932C52.6281 23.3364 52.6807 23.0052 52.7554 22.9517L52.8605 22.7457L53.1911 22.5771Z" fill="#FFB27D"/>
<path d="M52.9986 23.0055C53.2791 22.965 53.5566 22.8449 53.5566 22.8449C53.5566 22.8449 53.4954 20.1648 53.5189 19.9098C53.5425 19.6548 54.8489 16.278 54.8489 16.278L53.1193 14.291C53.1193 14.291 52.1204 19.1292 52.0735 19.7765C51.9959 20.846 52.5839 22.978 52.5839 22.978C52.5839 22.978 52.7783 23.0373 52.9986 23.0055Z" fill="#ADC8FE"/>
<path d="M53.332 23.1963C53.332 23.1963 53.5281 23.5018 53.5569 23.548C53.5858 23.5941 53.5137 23.6143 53.4329 23.5364C53.3522 23.4586 53.332 23.1963 53.332 23.1963Z" fill="#FFB27D"/>
<path d="M52.4219 14.0618C52.4219 14.0618 52.6929 13.6525 52.8198 13.543L54.3078 14.2405L54.5558 14.5115C54.5558 14.5115 52.6641 14.0042 52.4219 14.0618Z" fill="#8CB0EA"/>
<path d="M62.1425 27.9868C62.1425 27.9868 62.1206 29.0089 61.9428 29.258C61.7651 29.5072 61.3867 30.2966 61.3867 30.2966C61.3867 30.2966 62.9289 29.9832 63.0303 29.831C63.1318 29.6787 63.452 28.5647 63.1925 28.1164C62.9331 27.6681 62.1425 27.9868 62.1425 27.9868Z" fill="#2B478B"/>
<path d="M71.2243 23.4443C71.2243 23.4443 71.4242 23.5537 71.4143 23.6342C71.4043 23.7148 71.1564 23.7788 71.082 23.687C71.0075 23.5952 71.2243 23.4443 71.2243 23.4443Z" fill="#2B478B"/>
<path d="M61.0898 23.6454C61.0898 23.6454 61.1777 24.0408 61.2656 24.0261C61.3535 24.0115 61.4267 23.6747 61.3754 23.6015C61.3242 23.5283 61.1045 23.499 61.0898 23.6454Z" fill="#2B478B"/>
<path d="M67.3086 35.1266C67.3086 35.1266 67.4798 35.888 67.5969 35.9465C67.7141 36.0051 67.8584 36.0492 67.8212 35.9356C67.6235 35.3316 67.7516 34.8887 67.7516 34.8887L67.3086 35.1266Z" fill="#A1BACE"/>
<path d="M67 36.4037C67 36.4037 67.2246 35.8396 67.4882 35.7616C67.7519 35.6835 68.2695 36.0621 68.3964 36.0827C68.5233 36.1032 68.9725 36.1625 68.9237 36.4037H67Z" fill="#233862"/>
<path d="M65.5703 28.3705C65.5703 28.3705 65.9749 29.2438 65.9914 29.5387C66.0107 29.8833 66.1467 30.5021 66.1467 30.5021C66.1467 30.5021 67.4022 29.8455 67.4174 29.6696C67.4325 29.4938 67.4238 28.6885 66.9962 28.4296C66.5686 28.1706 65.5703 28.3705 65.5703 28.3705Z" fill="#2B478B"/>
<path d="M66.1485 29.1863C66.1446 28.8263 66.4333 28.5313 66.7935 28.5274C67.1536 28.5235 67.4487 28.8122 67.4526 29.1721C67.4565 29.5322 67.1677 29.8272 66.8076 29.8311C66.4475 29.835 66.1524 29.5463 66.1485 29.1863Z" fill="#233862"/>
<path d="M67.3837 28.219C67.367 28.4425 67.3442 28.6255 67.3117 28.7739C67.3079 28.7915 67.3038 28.8082 67.2996 28.8246C67.1825 29.2952 66.9507 29.3845 66.4709 29.3016C66.3956 29.2887 66.287 29.2108 66.1552 29.0805C65.9899 28.9177 65.7887 28.672 65.5719 28.3681H65.5716C65.4146 28.1479 65.2491 27.8969 65.0833 27.6242C64.1075 26.0204 63.1185 23.6683 63.7091 22.4237C64.6491 20.4427 66.1962 21.4293 66.1962 21.4293C66.5078 21.5303 66.8673 23.3432 67.1093 25.0906C67.2985 26.4561 67.4162 27.7815 67.3837 28.219Z" fill="#AEC3FF"/>
<path d="M66.0047 30.4634C66.0047 30.4634 67.4156 28.6515 67.6377 29.3215C67.8598 29.9915 68.0197 35.5105 67.5706 35.5154C67.1214 35.5202 65.9689 31.2084 66.0047 30.4634Z" fill="#ED7D2B"/>
<path d="M67.1093 25.0906C66.7454 25.7662 66.0412 26.8974 65.0833 27.6242C64.1075 26.0204 63.1185 23.6683 63.7091 22.4237C64.6491 20.4427 66.1962 21.4293 66.1962 21.4293C66.5079 21.5303 66.8673 23.3432 67.1093 25.0906Z" fill="#9DB0F4"/>
<path d="M62.1485 29.1042C62.1454 28.8227 62.3712 28.592 62.6529 28.5889C62.9346 28.5858 63.1653 28.8116 63.1684 29.0932C63.1715 29.3747 62.9456 29.6054 62.664 29.6085C62.3823 29.6115 62.1515 29.3857 62.1485 29.1042Z" fill="#233862"/>
<path d="M64.4922 14.3065C64.4955 14.3034 64.8195 13.998 64.847 13.7822C64.8565 13.7076 64.8857 13.2012 64.8821 12.9443H64.9221C64.9226 12.9748 64.9326 13.6932 64.9201 13.7915C64.8893 14.0337 64.5063 14.2933 64.4922 14.3065Z" fill="#8CA3E5"/>
<path d="M65.5603 14.258L65.5312 14.2337C65.5332 14.2313 65.727 13.9996 65.7614 13.8534C65.7887 13.7371 65.663 13.4079 65.6002 13.3057H65.6316C65.6563 13.3459 65.8723 13.7037 65.8331 13.8702C65.7947 14.0335 65.5688 14.248 65.5603 14.258Z" fill="#8CA3E5"/>
<path d="M67.332 20.232C67.332 20.232 67.5029 20.7743 68.1929 21.1466L68.5865 20.7244C68.5865 20.7244 67.8942 20.1127 67.8668 19.7551C67.8394 19.3975 67.332 20.232 67.332 20.232Z" fill="#2B478B"/>
<path d="M71.2964 23.4022C71.2964 23.4022 68.8173 20.15 68.2659 20.4615C67.7145 20.7729 67.6928 21.212 68.233 21.7757C68.7733 22.3395 70.8955 23.6729 70.8955 23.6729C70.8955 23.6729 71.2595 23.7795 71.2964 23.4022Z" fill="#ED7D2B"/>
<path d="M66.9845 20.217C66.9845 20.217 65.4213 15.5468 66.2423 14.6956C67.0631 13.8445 68.3593 18.0651 68.3343 19.0594C68.3092 20.0537 67.2754 21.1632 66.9845 20.217Z" fill="#9DB0F4"/>
<path d="M61.0946 18.7284C61.0946 18.7284 60.8142 19.2231 61.0121 19.9816H61.5894C61.5894 19.9816 61.5651 19.0582 61.8082 18.7944C62.0512 18.5306 61.0946 18.7284 61.0946 18.7284Z" fill="#8CA3E5"/>
<path d="M63.6875 18.1572C63.6875 18.1572 64.2174 20.6752 63.6875 22.7259H66.0545C66.0545 22.7259 65.9097 20.4409 67.7053 18.8355C68.2967 18.3069 63.6875 18.1572 63.6875 18.1572Z" fill="#8CA3E5"/>
<path d="M64.9363 13.1996C64.9363 13.1996 65.1188 13.9254 64.7383 14.4322L65.4936 14.2718C65.4936 14.2718 65.6829 13.4801 65.5567 13.1875C65.4305 12.895 64.9363 13.1996 64.9363 13.1996Z" fill="#2B478B"/>
<path d="M67.7564 19.4333C67.6152 20.245 67.1347 19.3763 66.8447 19.5773C66.6379 19.7207 66.3523 19.8373 66.0298 19.9242C65.2262 20.1409 64.1942 20.1746 63.5834 19.9834C63.3778 19.9193 63.279 19.0077 63.243 18.4111C63.2292 18.1801 63.2248 17.9965 63.2272 17.9274C63.2468 17.3801 63.3634 16.3343 63.5236 15.503C63.6525 14.8341 64.0481 14.2389 64.2066 14.2196C64.2066 14.2196 66.6256 13.9043 67.1681 14.469C67.7106 15.0336 67.8979 18.6218 67.7564 19.4333Z" fill="#AEC3FF"/>
<path d="M61.4996 23.6413C61.4844 23.7359 61.4753 23.7892 61.4753 23.7892C61.1742 24.0196 61.004 23.6808 61.004 23.6808C61.004 23.6808 60.5329 21.2195 60.5771 20.4403C60.6214 19.6607 60.9577 19.3773 61.5614 19.5682C61.5667 19.57 61.5717 19.5717 61.5767 19.5741C62.087 19.7981 61.6156 22.9203 61.4996 23.6413Z" fill="#ED7D2B"/>
<path d="M61.4963 23.6405C61.4154 23.2074 61.0455 21.1765 61.085 20.4819C61.1151 19.9513 61.2804 19.6506 61.5733 19.5732C62.0836 19.7973 61.6123 22.9195 61.4963 23.6405Z" fill="#F99746"/>
<path d="M66.0295 19.923C65.226 20.1398 64.1939 20.1734 63.5832 19.9822C63.3775 19.9181 63.2788 19.0065 63.2427 18.41C63.2263 17.3538 63.0178 17.0442 63.6859 15.7298C63.6859 15.7298 66.328 15.341 66.497 17.1045C66.5981 18.1528 66.5556 19.2361 66.0295 19.923Z" fill="#9DB0F4"/>
<path d="M60.8627 18.4653C60.8627 18.4653 63.2148 14.1382 64.3974 14.1583C65.58 14.1784 63.3747 18.0037 62.63 18.6632C61.8853 19.3227 60.3685 19.3231 60.8627 18.4653Z" fill="#AEC3FF"/>
<path d="M60.7864 35.2137C60.7864 35.2137 60.7662 35.8813 60.8876 35.942C61.009 36.0027 61.3557 36.054 61.3025 35.942C61.048 35.4058 61.2418 34.8486 61.2418 34.8486L60.7864 35.2137Z" fill="#A1BACE"/>
<path d="M66.6983 22.687C66.2179 24.8165 64.2988 27.5053 63.6681 28.2392C63.664 28.2442 63.6596 28.2491 63.6555 28.2538C62.9764 29.0372 62.69 29.0764 62.2263 28.5891C61.7628 28.1016 62.1808 22.2284 64.1886 21.1633C65.0985 20.6807 65.7192 20.8198 66.1261 21.1168C66.2058 21.1747 66.2779 21.2394 66.3426 21.3103C66.6769 21.6749 66.8099 22.1923 66.6983 22.687Z" fill="#AEC3FF"/>
<path d="M66.7014 22.6882C66.221 24.8177 64.3019 27.5065 63.6712 28.2404C63.5705 26.5211 64.1479 22.4161 65.7939 21.5426C65.9913 21.4377 66.175 21.3625 66.3458 21.3115C66.6801 21.6761 66.813 22.1935 66.7014 22.6882Z" fill="#AEC3FF"/>
<path d="M63.3901 29.5596C63.3638 29.9719 62.6739 31.8493 62.0004 33.3732C61.4825 34.5458 60.9745 35.5092 60.7859 35.4354C60.3523 35.2659 61.0542 30.7257 61.3776 30.0238C61.3776 30.0238 61.5918 29.8996 61.8806 29.7558C62.487 29.4536 63.4217 29.065 63.3901 29.5596Z" fill="#ED7D2B"/>
<path d="M60.3906 36.406C60.3906 36.406 60.6234 35.8214 60.8966 35.7405C61.1698 35.6595 61.7061 36.052 61.8377 36.0732C61.9692 36.0945 62.4347 36.156 62.3841 36.406L60.3906 36.406Z" fill="#2B478B"/>
<path d="M63.3912 29.5596C63.3649 29.9719 62.675 31.8493 62.0015 33.3732C61.6567 32.3767 61.7885 30.6147 61.8817 29.7558C62.4881 29.4536 63.4228 29.065 63.3912 29.5596Z" fill="#F99746"/>
<path d="M66.2436 13.3896C66.2436 13.3896 66.2433 13.3896 66.243 13.3896C66.2377 13.3905 66.2043 13.3957 66.1507 13.4016C65.818 13.4385 64.6992 13.5 64.5776 12.6921C64.5592 12.5694 64.5381 12.4525 64.5179 12.3415C64.5179 12.3415 64.5179 12.3415 64.5179 12.3412C64.3861 11.6244 64.2765 11.1511 65.0027 10.9573C65.0361 10.9485 65.0713 10.94 65.1082 10.9324C65.1272 10.9283 65.1457 10.9248 65.1641 10.9212C65.2473 10.9051 65.325 10.8931 65.3973 10.8852C66.1259 10.8026 66.3318 11.0981 66.4434 11.3707C66.5682 11.6762 66.6361 13.2994 66.2436 13.3896Z" fill="#9DB0F4"/>
<path d="M66.2445 13.3895C66.2445 13.3895 66.2442 13.3895 66.2439 13.3895C65.8818 13.3046 65.5329 13.0865 65.4682 12.5743C65.4497 12.4284 65.4286 12.2896 65.4084 12.1581C65.4084 12.1581 65.4084 12.1581 65.4084 12.1579C65.3238 11.61 65.2482 11.1818 65.3982 10.8852C66.1267 10.8026 66.3327 11.0981 66.4443 11.3707C66.569 11.6762 66.637 13.2994 66.2445 13.3895Z" fill="#AEC3FF"/>
<path d="M64.9295 11.9284C64.691 12.0145 64.5246 12.3313 64.5179 12.3439C64.3861 11.6271 64.2765 11.1538 65.0027 10.96V10.9602C65.0027 10.9602 64.7716 11.0572 64.8899 11.2988C65.0086 11.5404 65.1726 11.8405 64.9295 11.9284Z" fill="#8CA3E5"/>
<path d="M63.6875 22.6267C63.6875 21.9883 64.2052 21.4707 64.8439 21.4707C65.4826 21.4707 66.0003 21.9882 66.0003 22.6267C66.0003 23.2651 65.4826 23.7827 64.8439 23.7827C64.2052 23.7827 63.6875 23.2651 63.6875 22.6267Z" fill="#8CA3E5"/>
<path d="M63.6875 22.593C63.6875 21.9877 64.1783 21.4971 64.7838 21.4971C65.3892 21.4971 65.8801 21.9877 65.8801 22.593C65.8801 23.1983 65.3892 23.6889 64.7838 23.6889C64.1783 23.6889 63.6875 23.1983 63.6875 22.593Z" fill="#9DB0F4"/>
<path d="M61.5343 23.9131C61.5343 23.9131 61.9078 24.1686 61.9211 24.282C61.9345 24.3953 61.5302 24.119 61.491 24.0161C61.4519 23.9131 61.5343 23.9131 61.5343 23.9131Z" fill="#2B478B"/>
<path d="M71.2109 23.8613C71.2109 23.8613 71.4072 24.269 71.5173 24.2993C71.6273 24.3296 71.4152 23.8883 71.3193 23.8341C71.2234 23.7798 71.2109 23.8613 71.2109 23.8613Z" fill="#2B478B"/>
<path d="M71.2148 23.8602C71.2148 23.8602 71.272 23.496 71.3926 23.3795C71.513 23.263 72.2084 23.5983 72.2988 23.7719C72.3891 23.9454 72.363 24.1752 72.311 24.2212C72.259 24.2672 71.6405 24.2532 71.2148 23.8602Z" fill="#ED7D2B"/>
<path d="M66.6438 14.5848C66.6438 14.5848 65.568 14.55 65.4809 14.5848C65.3939 14.6195 66.634 15.6346 66.7902 15.6151C66.9465 15.5956 66.839 14.6769 66.6438 14.5848Z" fill="#F99746"/>
<path d="M63.0103 27.3046L60.1925 27.706C59.8258 27.7582 59.483 27.501 59.4307 27.1344L59.2567 25.9137C59.2045 25.5472 59.4618 25.2045 59.8285 25.1523L62.6462 24.7509C63.013 24.6986 63.3558 24.9559 63.408 25.3224L63.582 26.5431C63.6343 26.9096 63.377 27.2523 63.0103 27.3046Z" fill="#233862"/>
<path d="M59.6278 25.8589L59.8039 27.0937C59.8381 27.3327 59.9951 27.5255 60.2018 27.6167C60.2704 27.6471 60.3444 27.6663 60.4214 27.6721C60.4216 27.6721 60.4216 27.6721 60.4217 27.6721H60.4219C60.4699 27.6759 60.519 27.6746 60.5686 27.6675L63.3813 27.2667C63.7493 27.2143 64.0076 26.8704 63.9551 26.5025L63.7792 25.2675C63.7266 24.8996 63.3826 24.6414 63.0145 24.6939L62.046 24.8319L62.0086 24.5685C61.9913 24.4467 61.878 24.3619 61.7563 24.3792L61.6501 24.3943L61.061 24.4782L60.9146 24.4991C60.8559 24.5074 60.8036 24.5384 60.7678 24.586C60.7319 24.6338 60.7168 24.6925 60.7253 24.7513L60.7628 25.0147L60.2017 25.0945C60.1795 25.0977 60.1579 25.1019 60.1367 25.1071C60.1365 25.1073 60.1363 25.1073 60.1362 25.1073H60.136C59.9193 25.1604 59.7483 25.3168 59.6692 25.5148V25.515C59.6268 25.6208 59.6107 25.7385 59.6278 25.8589ZM61.9076 24.8515L60.9011 24.995L60.8636 24.7315C60.8572 24.6862 60.8888 24.644 60.9343 24.6375L61.187 24.6015L61.6507 24.5353L61.7758 24.5175C61.7845 24.5164 61.7928 24.5165 61.8009 24.5179C61.8359 24.5235 61.8648 24.5513 61.8701 24.5882L61.9076 24.8515Z" fill="#2B478B"/>
<path d="M61.5309 23.9131C61.5309 23.9131 61.1622 23.9145 61.0288 24.0161C60.8955 24.1176 60.8756 24.642 61.0335 24.7575C61.1915 24.8731 61.667 24.7507 61.7203 24.7062C61.7737 24.6618 61.8552 24.3931 61.5309 23.9131Z" fill="#ED7D2B"/>
<path d="M10.5615 28.1303C10.5615 28.1303 10.8352 29.1153 10.7369 29.4051C10.6385 29.6949 10.5039 30.5598 10.5039 30.5598C10.5039 30.5598 11.8902 29.8153 11.9434 29.6403C11.9966 29.4652 11.982 28.3063 11.6043 27.9517C11.2266 27.5972 10.5615 28.1303 10.5615 28.1303Z" fill="#2B478B"/>
<path d="M10.8906 29.1964C10.8065 28.9277 10.9562 28.6417 11.225 28.5576C11.4938 28.4735 11.7799 28.6232 11.8641 28.8918C11.9482 29.1606 11.7985 29.4466 11.5297 29.5307C11.2608 29.6148 10.9747 29.4651 10.8906 29.1964Z" fill="#233862"/>
<path d="M11.3477 35.4378C11.3477 35.4378 11.5208 36.0829 11.6546 36.106C11.7884 36.1291 12.1351 36.0783 12.0519 35.9865C11.6535 35.5464 11.6784 34.957 11.6784 34.957L11.3477 35.4378Z" fill="#A1BACE"/>
<path d="M12.2114 29.2761C12.3051 29.6785 12.186 31.675 11.9806 33.3283C11.8229 34.6003 11.6144 35.6693 11.4125 35.653C10.9484 35.6156 10.311 31.0659 10.4182 30.3006C10.4182 30.3006 10.5874 30.12 10.8225 29.8991C11.316 29.4349 12.099 28.7934 12.2114 29.2761Z" fill="#ED7D2B"/>
<path d="M11.1758 36.4239C11.1758 36.4239 11.4063 35.8384 11.6792 35.7564C11.9521 35.6744 12.4899 36.0648 12.6215 36.0856C12.7532 36.1064 13.2189 36.166 13.1693 36.4163L11.1758 36.4239Z" fill="#2B478B"/>
<path d="M12.213 29.2761C12.3067 29.6785 12.1876 31.675 11.9823 33.3283C11.3647 32.4735 10.9827 30.7483 10.8242 29.899C11.3177 29.4349 12.1007 28.7934 12.213 29.2761Z" fill="#F99746"/>
<path d="M11.9739 21.3218C12.5942 23.4149 12.2318 26.698 12.0396 27.6463C12.0384 27.6526 12.037 27.6591 12.0357 27.6652C11.8255 28.6802 11.5945 28.8542 10.9519 28.6551C10.3094 28.4556 7.80709 23.1253 9.03964 21.2162C9.59821 20.3511 10.2079 20.1697 10.708 20.2304C10.8059 20.2421 10.9004 20.2635 10.9915 20.2938C11.4612 20.4489 11.8299 20.8357 11.9739 21.3218Z" fill="#9DB0F4"/>
<path d="M11.9729 21.323C12.5932 23.4161 12.2308 26.6992 12.0385 27.6475C11.1113 26.196 9.61124 22.3313 10.6215 20.7658C10.7427 20.578 10.8662 20.4227 10.9904 20.2949C11.4602 20.4501 11.8289 20.8369 11.9729 21.323Z" fill="#9DB0F4"/>
<path d="M9.31521 22.7408C9.00357 22.1836 9.20279 21.4793 9.76022 21.1677C10.3177 20.8561 11.0222 21.0553 11.3339 21.6126C11.6456 22.1698 11.4463 22.8741 10.8889 23.1857C10.3314 23.4973 9.62688 23.2981 9.31521 22.7408Z" fill="#9DB0F4"/>
<path d="M9.29586 22.7091C9.00037 22.1808 9.18926 21.5131 9.71776 21.2177C10.2462 20.9223 10.9142 21.1111 11.2096 21.6394C11.5051 22.1677 11.3162 22.8354 10.7877 23.1308C10.2593 23.4261 9.59135 23.2373 9.29586 22.7091Z" fill="#9DB0F4"/>
<path d="M9.32422 14.0233C9.32743 14.0202 9.64569 13.7087 9.66908 13.4924C9.67718 13.4177 9.69686 12.9108 9.68839 12.6541L9.72845 12.6533C9.72945 12.6838 9.75301 13.4018 9.74236 13.5004C9.71613 13.7431 9.33814 14.0099 9.32422 14.0233Z" fill="#8CA3E5"/>
<path d="M10.3889 13.9526L10.3594 13.9287C10.3613 13.9263 10.5507 13.691 10.5823 13.5442C10.6075 13.4274 10.4755 13.1006 10.4108 12.9996L10.4422 12.999C10.4677 13.0388 10.6904 13.3925 10.6543 13.5597C10.619 13.7236 10.3971 13.9424 10.3889 13.9526Z" fill="#8CA3E5"/>
<path d="M8.58984 18.4686C8.58984 18.4686 9.75469 20.7632 9.77478 22.8811L11.5376 21.9357C11.5376 21.9357 11.9183 20.9671 12.2816 18.8917C12.4184 18.1105 8.58984 18.4686 8.58984 18.4686Z" fill="#8CA3E5"/>
<path d="M9.74506 12.9065C9.74506 12.9065 9.94125 13.6288 9.57031 14.1428L10.3225 13.9681C10.3225 13.9681 10.4968 13.1729 10.3652 12.8828C10.2335 12.5927 9.74506 12.9065 9.74506 12.9065Z" fill="#2B478B"/>
<path d="M11.0577 13.0722C11.0577 13.0722 11.0574 13.0722 11.0571 13.0722C11.0519 13.0732 11.0186 13.0791 10.9651 13.0859C10.6331 13.1291 9.51572 13.2117 9.37895 12.4061C9.35817 12.2838 9.33489 12.1674 9.3126 12.0568C9.3126 12.0568 9.3126 12.0568 9.3126 12.0565C9.1673 11.3423 9.04882 10.8712 9.77124 10.6637C9.80447 10.6543 9.83948 10.6451 9.8762 10.6368C9.89516 10.6324 9.91355 10.6285 9.93194 10.6246C10.0148 10.607 10.0922 10.5935 10.1644 10.5842C10.8912 10.4879 11.1027 10.7795 11.2194 11.05C11.3499 11.353 11.4485 12.9746 11.0577 13.0722Z" fill="#9DB0F4"/>
<path d="M11.057 13.0722C11.057 13.0722 11.0567 13.0722 11.0564 13.0722C10.6928 12.9941 10.3399 12.7826 10.2655 12.2717C10.2443 12.1262 10.2206 11.9879 10.1979 11.8568C10.1979 11.8568 10.1979 11.8568 10.1979 11.8565C10.1029 11.3103 10.0193 10.8836 10.1637 10.5842C10.8905 10.4879 11.102 10.7795 11.2187 11.05C11.3492 11.353 11.4478 12.9746 11.057 13.0722Z" fill="#AEC3FF"/>
<path d="M9.71626 11.6327C9.47947 11.7233 9.31908 12.0432 9.3126 12.0559C9.1673 11.3417 9.04882 10.8706 9.77124 10.6631L9.77127 10.6634C9.77127 10.6634 9.54201 10.7646 9.6649 11.004C9.78806 11.2432 9.9577 11.5403 9.71626 11.6327Z" fill="#8CA3E5"/>
<path d="M8.29453 28.0598C8.29453 28.0598 8.49677 29.0619 8.37786 29.3439C8.25895 29.6259 8.0625 30.4789 8.0625 30.4789C8.0625 30.4789 9.49871 29.8359 9.5644 29.6651C9.63006 29.4944 9.69874 28.3373 9.34749 27.9566C8.99623 27.5759 8.29453 28.0598 8.29453 28.0598Z" fill="#2B478B"/>
<path d="M8.54495 29.1493C8.48037 28.8753 8.65026 28.6007 8.9244 28.5362C9.19856 28.4716 9.47317 28.6414 9.53776 28.9155C9.60235 29.1895 9.43245 29.4641 9.15832 29.5287C8.88415 29.5932 8.60954 29.4234 8.54495 29.1493Z" fill="#233862"/>
<path d="M8.55078 35.4108C8.55078 35.4108 8.67716 36.0667 8.80892 36.0994C8.94071 36.132 9.29014 36.1063 9.21374 36.0086C8.848 35.5412 8.91517 34.9551 8.91517 34.9551L8.55078 35.4108Z" fill="#A1BACE"/>
<path d="M9.85497 29.3237C9.91949 29.7318 9.6572 31.7146 9.33353 33.3489C9.08478 34.6063 8.79996 35.6575 8.59974 35.6267C8.13958 35.5561 7.83084 30.9724 7.9928 30.2167C7.9928 30.2167 8.17457 30.0487 8.42496 29.8453C8.9505 29.4178 9.77759 28.8342 9.85497 29.3237Z" fill="#ED7D2B"/>
<path d="M8.32422 36.4389C8.32422 36.4389 8.56311 35.8568 8.83719 35.7787C9.11126 35.7006 9.6434 36.0987 9.77472 36.1214C9.90605 36.144 10.3709 36.2104 10.3176 36.4599L8.32422 36.4389Z" fill="#2B478B"/>
<path d="M9.85582 29.3237C9.92034 29.7318 9.65805 31.7146 9.33438 33.3489C8.77987 32.4519 8.52287 30.7038 8.42578 29.8453C8.95135 29.4178 9.77844 28.8342 9.85582 29.3237Z" fill="#F99746"/>
<path d="M11.5788 21.898C11.576 24.081 10.2919 27.1244 9.83708 27.9784C9.83418 27.9842 9.83097 27.99 9.82801 27.9954C9.33686 28.9083 9.06588 29.0093 8.50674 28.6352C7.94783 28.2608 7.07038 22.4384 8.79647 20.9601C9.57869 20.2902 10.2148 20.2902 10.6768 20.4909C10.7673 20.5301 10.8518 20.5775 10.9304 20.6325C11.3364 20.9152 11.5794 21.391 11.5788 21.898Z" fill="#AEC3FF"/>
<path d="M11.5809 21.8964C11.5782 24.0794 10.2941 27.1228 9.83927 27.9768C9.36469 26.3212 9.02971 22.1894 10.4447 20.977C10.6144 20.8315 10.7772 20.7179 10.9326 20.6309C11.3386 20.9136 11.5816 21.3894 11.5809 21.8964Z" fill="#AEC3FF"/>
<path d="M8.62592 22.4999C8.48619 21.877 8.87811 21.2587 9.5013 21.1191C10.1245 20.9794 10.7429 21.3712 10.8826 21.9941C11.0224 22.6171 10.6305 23.2354 10.0073 23.375C9.38408 23.5147 8.76562 23.1229 8.62592 22.4999Z" fill="#8CA3E5"/>
<path d="M8.61663 22.4619C8.48418 21.8713 8.85575 21.2852 9.44653 21.1528C10.0373 21.0203 10.6236 21.3918 10.7561 21.9824C10.8886 22.573 10.517 23.1591 9.92622 23.2915C9.3354 23.4238 8.74909 23.0524 8.61663 22.4619Z" fill="#9DB0F4"/>
<path d="M12.6819 19.0823C12.556 19.8966 12.0592 19.0371 11.7731 19.2434C11.569 19.3908 11.2856 19.5127 10.9648 19.6057C10.1655 19.8375 9.13427 19.8906 8.52 19.7109C8.31319 19.6507 8.1973 18.7411 8.15003 18.1454C8.13189 17.9146 8.12405 17.7311 8.12509 17.662C8.13441 17.1144 8.23128 16.0667 8.3758 15.2324C8.49206 14.5612 8.63963 14.0281 8.79772 14.0057C8.79772 14.0057 11.4471 13.5756 12.0001 14.1299C12.5532 14.6842 12.8081 18.2683 12.6819 19.0823Z" fill="#AEC3FF"/>
<path d="M10.964 19.6051C10.1647 19.8369 9.13346 19.89 8.51918 19.7104C8.31237 19.6501 8.19648 18.7405 8.14922 18.1448C8.11291 17.0891 7.89854 16.7835 8.54176 15.4567C8.54176 15.4567 11.1761 15.0183 11.3783 16.7782C11.4991 17.8245 11.477 18.9083 10.964 19.6051Z" fill="#9DB0F4"/>
<path d="M11.4794 14.2567C11.4794 14.2567 10.4031 14.2423 10.3167 14.2786C10.2304 14.315 11.4894 15.3066 11.6452 15.2841C11.8011 15.2617 11.6764 14.3453 11.4794 14.2567Z" fill="#F99746"/>
<path d="M12.6674 20.5406L10.2695 18.1436L6.84404 21.5679L9.24187 23.9649L12.6674 20.5406Z" fill="#163560"/>
<path d="M6.60938 18.5257C6.60938 18.5257 6.76683 19.0721 7.44746 19.4612L7.85131 19.0489C7.85131 19.0489 7.1743 18.4202 7.15575 18.0621C7.13717 17.7039 6.60938 18.5257 6.60938 18.5257Z" fill="#8CA3E5"/>
<path d="M10.121 21.9712C10.121 21.9712 10.465 22.185 10.5161 22.112C10.5671 22.039 10.3776 21.751 10.2894 21.7364C10.2011 21.7219 10.0266 21.8583 10.121 21.9712Z" fill="#2B478B"/>
<path d="M10.4025 21.6751C10.4594 21.7521 10.4911 21.7959 10.4911 21.7959C10.4452 22.1722 10.0839 22.0568 10.0839 22.0568C10.0839 22.0568 7.99501 20.6715 7.46891 20.0948C6.94262 19.5179 6.97525 19.0793 7.53407 18.7816C7.53901 18.7791 7.54377 18.7768 7.5489 18.7748C8.06606 18.567 9.96822 21.0878 10.4025 21.6751Z" fill="#ED7D2B"/>
<path d="M10.4012 21.6751C10.035 21.4298 8.32449 20.2735 7.85561 19.7593C7.49739 19.3666 7.398 19.0381 7.54765 18.7748C8.06477 18.567 9.96693 21.0878 10.4012 21.6751Z" fill="#F99746"/>
<path d="M10.6219 21.8381C10.6219 21.8381 11.0658 21.7501 11.1561 21.8199C11.2465 21.8896 10.7661 21.9851 10.6652 21.9411C10.5642 21.897 10.6219 21.8381 10.6219 21.8381Z" fill="#2B478B"/>
<path d="M10.6184 21.8418C10.6184 21.8418 10.3614 22.1062 10.3407 22.2725C10.3199 22.4388 10.6809 22.8198 10.874 22.7878C11.0671 22.7558 11.3122 22.3306 11.3178 22.2613C11.3233 22.1921 11.1884 21.9459 10.6184 21.8418Z" fill="#ED7D2B"/>
<path d="M6.01843 18.6159C6.01843 18.6159 7.63613 14.0897 8.81515 13.9958C9.99416 13.9018 8.47431 17.9143 7.79667 18.6425C7.119 19.3708 5.60929 19.5173 6.01843 18.6159Z" fill="#AEC3FF"/>
<path d="M46.7035 24.1084C46.7035 24.1084 46.8682 24.7071 46.7425 24.9499C46.6169 25.1927 46.3758 25.4015 46.2597 25.2637C46.1436 25.126 46.3698 24.2485 46.3698 24.2485L46.7035 24.1084Z" fill="#FFB27D"/>
<path d="M44.7973 12.1776C44.7973 12.1776 44.1655 12.111 43.6051 12.4763C43.0447 12.8416 43.1053 13.7835 42.6195 14.0066C42.1337 14.2297 41.3435 14.9535 41.4204 15.6241C41.4972 16.2947 41.7285 16.5086 41.4193 16.9095C41.1102 17.3103 41.6537 18.3064 42.5506 18.0023C43.4474 17.6982 46.2426 16.7658 46.5227 16.2377C46.8028 15.7096 46.6586 15.0936 46.3756 14.5885C46.0927 14.0835 46.7119 12.2858 44.7973 12.1776Z" fill="#163560"/>
<path d="M45.6831 27.6992C45.2351 30.5831 44.8695 33.6903 45.0433 35.3245C45.1817 35.7815 45.6033 35.9319 45.9755 35.9893L45.7214 36.2694L45.0019 36.3142L44.0394 35.941C44.0394 35.941 44.0939 35.751 44.1364 35.4199C44.1854 35.0353 44.0027 34.1576 44.0027 34.1576C44.0027 34.1576 43.5184 31.1255 43.7814 30.4427C43.8561 30.2486 43.9047 30.0268 43.9343 29.786V29.7858C44.0096 29.1726 43.9618 28.4359 43.9063 27.7199C43.8463 26.9422 43.7773 26.189 43.848 25.6446C44.1708 23.16 44.1636 21.0128 44.1636 21.0128L46.0483 21.0029C46.0483 21.0029 46.5903 22.5167 46.3481 23.8184C46.1426 24.9251 45.9028 26.2853 45.6831 27.6992Z" fill="#E8945B"/>
<path d="M45.8964 16.2471C45.8964 16.2471 46.3076 16.3511 46.5062 16.8343C46.7048 17.3176 46.7933 21.0068 46.8299 21.4045C46.8666 21.8021 46.744 24.2817 46.744 24.2817C46.744 24.2817 46.4533 24.3841 46.2362 24.2181C45.4482 23.6154 45.809 20.274 45.809 20.274L45.8964 16.2471Z" fill="#ADC8FE"/>
<path d="M46.4407 22.4713C46.4407 22.4713 46.6533 19.5703 46.537 18.8186C46.4958 18.5525 46.0189 19.0144 45.9648 19.6949C45.9107 20.3755 46.4407 22.4713 46.4407 22.4713Z" fill="#8CB0EA"/>
<path d="M44.8295 36.421C45.2486 36.3668 45.1384 36.4745 45.7262 36.475C46.314 36.4754 46.5141 36.2786 46.5414 36.1943C46.5658 36.1195 46.2819 36.0605 45.9781 35.9907L45.9673 35.9984C45.9673 35.9984 45.5989 36.2043 45.1142 36.162C44.7192 36.1276 44.3146 35.9684 44.042 35.9424C44.0258 36.0318 44.0097 36.1231 44.0178 36.2154C44.0405 36.4772 44.4104 36.4752 44.8295 36.421Z" fill="#233862"/>
<path d="M44.6243 27.4069C44.1762 30.2908 43.4672 33.7128 43.6409 35.3469C43.7794 35.804 44.201 35.9543 44.5732 36.0118L44.3191 36.2918L43.5995 36.3367L42.6371 35.9634C42.6371 35.9634 42.6916 35.7735 42.7341 35.4424C42.7831 35.0577 42.6003 34.18 42.6003 34.18C42.6003 34.18 42.116 31.1479 42.379 30.4651C42.4537 30.2711 42.5024 30.0492 42.5319 29.8085V29.8082C42.6072 29.195 42.5594 28.4583 42.504 27.7424C42.444 26.9646 42.375 26.2114 42.4457 25.667C42.7685 23.1825 42.7612 21.0352 42.7612 21.0352L44.646 21.0254C44.646 21.0254 45.1879 22.5392 44.9458 23.8408C44.7402 24.9475 44.844 25.993 44.6243 27.4069Z" fill="#FFB27D"/>
<path d="M43.4232 36.4435C43.8423 36.3893 43.7322 36.4969 44.32 36.4974C44.9077 36.4979 45.1078 36.3011 45.1351 36.2168C45.1595 36.142 44.8756 36.083 44.5719 36.0132L44.5611 36.0209C44.5611 36.0209 44.1926 36.2268 43.7079 36.1845C43.3129 36.1501 42.9083 35.9908 42.6358 35.9648C42.6196 36.0542 42.6034 36.1456 42.6115 36.2378C42.6342 36.4997 43.0041 36.4977 43.4232 36.4435Z" fill="#233862"/>
<path d="M42.2515 18.1821C42.2515 18.1821 42.2182 18.6897 42.2574 19.2985C42.2834 19.7021 42.6947 20.2407 42.7534 20.3741C42.9005 20.7088 43.0648 20.7625 43.0648 20.7625L44.3351 21.0667L44.7817 21.1736L46.1863 20.7462C46.1863 20.7462 46.8177 18.9551 46.5552 17.9501C46.2927 16.9451 45.8959 16.2483 45.8959 16.2483C45.8959 16.2483 44.2764 15.8362 43.0254 16.2085L42.2515 18.1821Z" fill="#ADC8FE"/>
<path d="M46.4643 24.2318C46.318 26.1358 46.1424 27.7399 46.1424 27.7399C46.1424 27.7399 45.2578 28.3425 44.002 28.4251L44.0017 28.4253H44.0015C43.4277 28.463 42.7767 28.3923 42.097 28.1061C42.097 28.1061 41.8146 23.5113 41.9752 22.7783C42.1359 22.0454 42.8594 21.0342 42.8594 21.0342L46.138 21.1437C46.138 21.1437 46.6106 22.3276 46.4643 24.2318Z" fill="#2B478B"/>
<path d="M46.2071 20.6797C46.2071 20.6797 45.9285 20.9023 45.373 20.9164C44.7095 20.9332 43.0642 20.7593 43.0642 20.7593C43.0642 20.7593 42.9921 20.9637 42.9963 21.1792C42.9963 21.1792 45.0073 21.6752 46.1686 21.2366C46.1686 21.2366 46.3172 20.9535 46.2071 20.6797Z" fill="#233862"/>
<path d="M45.2305 21.1489C45.2295 20.96 45.3645 20.8056 45.5315 20.8047C45.6985 20.8038 45.8351 20.9568 45.8361 21.1457C45.8371 21.3346 45.7021 21.489 45.5351 21.4899C45.3681 21.4908 45.2315 21.3378 45.2305 21.1489ZM45.3308 21.1484C45.3315 21.282 45.4229 21.3902 45.5345 21.3896C45.6462 21.389 45.7364 21.2799 45.7357 21.1463C45.735 21.0127 45.6436 20.9045 45.532 20.9051C45.4204 20.9056 45.3301 21.0148 45.3308 21.1484Z" fill="white"/>
<path d="M40.9056 21.0984L42.9727 22.8789L45.4107 20.0505L43.3437 18.27L40.9056 21.0984Z" fill="#ED7D2B"/>
<path d="M43.528 21.0957C43.528 21.0957 44.2823 21.1799 44.2809 21.3588C44.2795 21.5377 44.0959 21.9062 44.0029 21.923C43.9098 21.9399 43.3867 21.4292 43.3867 21.4292L43.528 21.0957Z" fill="#FFB27D"/>
<path d="M43.2522 16.1631C43.2522 16.1631 42.246 16.2389 41.8651 17.1785C41.4842 18.1181 40.7603 19.6961 40.7617 19.9609C40.7631 20.2258 41.1763 21.04 43.3748 21.498C43.3748 21.498 43.6008 21.2579 43.586 21.0691C43.586 21.0691 42.209 19.8991 42.212 19.7615C42.2176 19.5013 42.4336 19.1566 43.6309 17.9468C43.9564 17.6179 43.2522 16.1631 43.2522 16.1631Z" fill="#ADC8FE"/>
<path d="M43.4125 16.1166C43.6162 16.0702 43.7843 15.9261 43.8535 15.7291C43.9369 15.4917 44.0024 15.1415 43.9985 14.7031L44.0622 14.7153L45.1343 14.9218C45.1343 14.9218 45.1117 15.2588 45.1127 15.5762C45.1127 15.5789 45.1127 15.5815 45.1127 15.5841C45.1128 15.8598 45.295 16.1021 45.5603 16.1772C45.6958 16.2155 44.9208 17.2466 44.8314 17.2269C44.6455 17.1859 43.3479 16.1313 43.4125 16.1166Z" fill="#FFB27D"/>
<path d="M45.1307 14.9183C45.1307 14.9183 45.1081 15.2554 45.109 15.5728C44.5096 15.559 44.1899 15.0142 44.0586 14.7119L45.1307 14.9183Z" fill="#E8945B"/>
<path d="M45.3336 15.2212C45.3336 15.2212 43.9158 15.2519 43.9102 14.369C43.9046 13.4861 43.7179 12.8954 44.6229 12.8384C45.5279 12.7814 45.7059 13.1173 45.7795 13.4115C45.8531 13.7058 45.7023 15.1904 45.3336 15.2212Z" fill="#FFB27D"/>
<path d="M45.2696 12.8153C45.2696 12.8153 44.8868 13.8532 44.2918 14.0095C43.6968 14.1658 43.4375 14.0075 43.4375 14.0075C43.4375 14.0075 43.8926 13.6422 43.9842 13.0082C43.9842 13.0082 44.9742 12.3238 45.2696 12.8153Z" fill="#163560"/>
<path d="M45.1719 12.8958C45.1719 12.8958 45.4603 13.0019 45.5799 13.2112C45.6968 13.4158 45.797 13.6871 45.7758 14.0207C45.7758 14.0207 46.0646 13.3151 45.7338 12.9186C45.3831 12.4981 45.1719 12.8958 45.1719 12.8958Z" fill="#163560"/>
<path d="M44.8298 17.2246C44.8298 17.2246 43.8654 16.2055 43.8272 15.7871C43.8272 15.7871 43.5831 15.8563 43.2969 16.1375C43.2969 16.1375 43.5304 16.7136 43.8065 16.9025C43.8065 16.9025 44.0067 16.8733 44.1641 16.8076C44.1641 16.8076 44.0649 16.9742 43.986 17.0737C43.986 17.0737 44.4219 17.3178 44.8298 17.2246Z" fill="#D7E6FF"/>
<path d="M45.1569 15.8223C45.1569 15.8223 45.5388 16.5114 44.8281 17.2276C44.8281 17.2276 45.276 17.1395 45.5048 16.8223C45.5048 16.8223 45.4324 16.6531 45.3715 16.6141C45.3715 16.6141 45.5059 16.5598 45.5908 16.638C45.5908 16.638 45.6401 16.2671 45.5882 16.1545C45.5364 16.0419 45.268 15.818 45.1569 15.8223Z" fill="#D7E6FF"/>
<path d="M44.7578 17.2261C44.7576 17.1867 44.7894 17.1545 44.8289 17.1543C44.8684 17.1541 44.9005 17.1859 44.9007 17.2254C44.9009 17.2648 44.8691 17.2969 44.8296 17.2972C44.7902 17.2973 44.758 17.2656 44.7578 17.2261Z" fill="#233862"/>
<path d="M45.1445 18.2349C45.1443 18.1954 45.1762 18.1632 45.2156 18.1631C45.2551 18.1629 45.2872 18.1947 45.2874 18.2341C45.2876 18.2736 45.2558 18.3057 45.2164 18.3059C45.1769 18.3061 45.1448 18.2743 45.1445 18.2349Z" fill="#233862"/>
<path d="M45.2227 19.4243C45.2224 19.3849 45.2543 19.3528 45.2937 19.3525C45.3332 19.3524 45.3653 19.3841 45.3655 19.4236C45.3658 19.463 45.3339 19.4952 45.2945 19.4954C45.255 19.4956 45.2228 19.4638 45.2227 19.4243Z" fill="#233862"/>
<path d="M88.2646 10.0869H73.7695V36.4152H88.2646V10.0869Z" fill="#B3D2FF"/>
<path d="M87.6117 10.7773H74.4219V36.4175H87.6117V10.7773Z" fill="#CCE3FF"/>
<path d="M75.1016 23.2582C75.1016 23.0228 75.2924 22.832 75.5278 22.832C75.7632 22.832 75.9541 23.0228 75.9541 23.2582C75.9541 23.4935 75.7632 23.6843 75.5278 23.6843C75.2924 23.6843 75.1016 23.4935 75.1016 23.2582Z" fill="#B3D2FF"/>
<path d="M75.2852 24.2772C75.2852 24.1435 75.3935 24.0352 75.5273 24.0352C75.661 24.0352 75.7694 24.1435 75.7694 24.2772C75.7694 24.4109 75.661 24.5193 75.5273 24.5193C75.3935 24.5193 75.2852 24.4109 75.2852 24.2772Z" fill="#B3D2FF"/>
<path d="M85.6878 16.0537H76.4258V17.9397H85.6878V16.0537Z" fill="#E9F3FE"/>
<path d="M77.1445 17.278L77.2238 17.1969C77.2639 17.2477 77.304 17.277 77.3617 17.277C77.4262 17.277 77.4702 17.234 77.4702 17.1431V16.6943H77.5934V17.146C77.5934 17.2272 77.57 17.2878 77.5299 17.3279C77.4898 17.3679 77.4321 17.3885 77.3636 17.3885C77.258 17.3885 77.1895 17.3396 77.1445 17.278Z" fill="#B3D2FF"/>
<path d="M77.7266 17.0346C77.7266 16.842 77.8752 16.6807 78.0855 16.6807C78.2957 16.6807 78.4424 16.8401 78.4424 17.0346C78.4424 17.2272 78.2938 17.3885 78.0836 17.3885C77.8733 17.3885 77.7266 17.2292 77.7266 17.0346ZM78.3163 17.0346C78.3163 16.9016 78.2195 16.7912 78.0836 16.7912C77.9476 16.7912 77.8527 16.8997 77.8527 17.0346C77.8527 17.1676 77.9495 17.278 78.0855 17.278C78.2214 17.278 78.3163 17.1695 78.3163 17.0346Z" fill="#B3D2FF"/>
<path d="M78.5898 16.6943H78.8969C78.9752 16.6943 79.0368 16.7158 79.0759 16.7549C79.1062 16.7853 79.1219 16.8224 79.1219 16.8703C79.1219 16.9524 79.0749 16.9964 79.0241 17.0228C79.1043 17.0502 79.16 17.0961 79.16 17.191C79.16 17.3132 79.0593 17.3787 78.9067 17.3787H78.5898V16.6943ZM78.8725 16.9828C78.9498 16.9828 79.0016 16.9524 79.0016 16.8879C79.0016 16.8341 78.9586 16.8009 78.8813 16.8009H78.7082V16.9828H78.8725ZM78.9077 17.2721C78.9898 17.2721 79.0397 17.2399 79.0397 17.1763C79.0397 17.1186 78.9938 17.0844 78.8989 17.0844H78.7082V17.2721H78.9077Z" fill="#B3D2FF"/>
<path d="M79.5977 16.6943H79.718V17.3787H79.5977V16.6943Z" fill="#B3D2FF"/>
<path d="M79.8984 16.6943H80.0099L80.3767 17.1675V16.6943H80.495V17.3787H80.3943L80.0168 16.8918V17.3787H79.8985L79.8984 16.6943Z" fill="#B3D2FF"/>
<path d="M80.8383 16.8058H80.6211V16.6943H81.1766V16.8058H80.9595V17.3787H80.8382L80.8383 16.8058Z" fill="#B3D2FF"/>
<path d="M81.3047 16.6943H81.8123V16.8019H81.4249V16.9798H81.7682V17.0873H81.4249V17.2712H81.8171V17.3787H81.3047V16.6943Z" fill="#B3D2FF"/>
<path d="M81.961 16.6943H82.2661C82.4265 16.6943 82.5204 16.7804 82.5204 16.9123C82.5204 17.0248 82.4529 17.0922 82.357 17.1196L82.5419 17.3787H82.4001L82.2299 17.1401H82.0812V17.3787H81.9609L81.961 16.6943ZM82.2573 17.0336C82.3433 17.0336 82.3981 16.9886 82.3981 16.9173C82.3981 16.8439 82.3453 16.8038 82.2563 16.8038H82.0812V17.0336H82.2573Z" fill="#B3D2FF"/>
<path d="M82.5898 16.6943H82.7229L82.9292 17.2203L83.1346 16.6943H83.2647L82.9801 17.3836H82.8745L82.5898 16.6943Z" fill="#B3D2FF"/>
<path d="M83.3906 16.6943H83.5109V17.3787H83.3906V16.6943Z" fill="#B3D2FF"/>
<path d="M83.6914 16.6943H84.199V16.8019H83.8117V16.9798H84.155V17.0873H83.8117V17.2712H84.2039V17.3787H83.6914V16.6943Z" fill="#B3D2FF"/>
<path d="M84.2891 16.6943H84.4221L84.6285 17.2203L84.8338 16.6943H84.9639L84.6793 17.3836H84.5737L84.2891 16.6943Z" fill="#B3D2FF"/>
<path d="M85.4223 16.1904C85.457 16.1904 85.4851 16.2186 85.4851 16.2533C85.4851 16.288 85.457 16.3162 85.4223 16.3162C85.3875 16.3162 85.3594 16.2881 85.3594 16.2533C85.3594 16.2186 85.3875 16.1904 85.4223 16.1904Z" fill="#B3D2FF"/>
<path d="M85.4262 17.6738C85.4609 17.6738 85.4891 17.702 85.4891 17.7367C85.4891 17.7714 85.4609 17.7996 85.4262 17.7996C85.3914 17.7996 85.3633 17.7714 85.3633 17.7367C85.3633 17.702 85.3914 17.6738 85.4262 17.6738Z" fill="#91B5F8"/>
<path d="M76.7152 16.1895C76.75 16.1895 76.7782 16.2176 76.7782 16.2523C76.7782 16.287 76.75 16.3152 76.7152 16.3152C76.6805 16.3152 76.6523 16.2871 76.6523 16.2523C76.6523 16.2176 76.6805 16.1895 76.7152 16.1895Z" fill="#B3D2FF"/>
<path d="M76.7152 17.6729C76.75 17.6729 76.7782 17.701 76.7782 17.7357C76.7782 17.7705 76.75 17.7986 76.7152 17.7986C76.6805 17.7986 76.6523 17.7705 76.6523 17.7357C76.6523 17.701 76.6805 17.6729 76.7152 17.6729Z" fill="#B3D2FF"/>
<path d="M34.9615 28.4727L38.0735 27.7519C38.4785 27.6582 38.7331 27.2501 38.6393 26.8453L38.3268 25.4971C38.233 25.0923 37.8248 24.8378 37.4198 24.9316L34.3079 25.6523C33.9029 25.7462 33.6483 26.1541 33.7421 26.559L34.0546 27.9071C34.1484 28.312 34.5565 28.5665 34.9615 28.4727Z" fill="#F99746"/>
<path d="M37.7343 25.2472L37.7342 25.2471C37.5711 25.0718 37.3288 24.9773 37.0804 25.0095L37.0803 25.0095C37.0801 25.0096 37.0799 25.0096 37.0797 25.0096C37.0554 25.0128 37.0311 25.017 37.0065 25.0227L36.3869 25.1663L36.3194 24.8754C36.3044 24.8105 36.2648 24.7552 36.208 24.7197C36.1511 24.6844 36.0839 24.6731 36.019 24.6882L35.8573 24.7256L35.2067 24.8762L35.0894 24.9034C34.9551 24.9346 34.8708 25.0693 34.9021 25.2037L34.9696 25.4946L33.9 25.7423C33.4935 25.8364 33.238 26.2459 33.332 26.6523L33.6482 28.0161C33.7424 28.4224 34.152 28.6778 34.5585 28.5837L37.6649 27.8643C37.7197 27.8517 37.7717 27.8332 37.8204 27.8098L37.8205 27.8097C37.8207 27.8097 37.8207 27.8097 37.8209 27.8096C37.8991 27.7723 37.9688 27.7222 38.0282 27.6627C38.2076 27.4835 38.2939 27.2181 38.2328 26.9541L37.9168 25.5904C37.8859 25.4575 37.8214 25.3409 37.7343 25.2472ZM35.0549 25.1683C35.0456 25.1276 35.0645 25.0868 35.0989 25.0667C35.1068 25.062 35.1155 25.0585 35.125 25.0562L35.2631 25.0241L35.7753 24.9056L36.0544 24.841C36.1046 24.8293 36.1549 24.8608 36.1665 24.9108L36.234 25.2017L35.1224 25.459L35.0549 25.1683Z" fill="#ED7D2B"/>
<path d="M35.5163 23.4629C35.5163 23.4629 35.5595 23.8788 35.6133 23.9758C35.846 24.395 36.3307 24.9041 35.3509 25.0149C35.3509 25.0149 35.3666 24.8974 35.2632 24.7022C35.2415 24.661 35.1556 24.5778 35.1155 24.5279C34.8159 24.1552 34.8032 24.2831 34.9364 23.9078L34.9309 23.5093L35.5163 23.4629Z" fill="#FFB27D"/>
<path d="M34.8954 24.0156C34.8954 24.0156 34.8043 24.2672 34.8973 24.5043C34.9903 24.7415 34.9908 24.882 35.0463 24.8275C35.1018 24.773 35.1769 24.4526 35.1769 24.4526L34.8954 24.0156Z" fill="#FFB27D"/>
<path d="M32.8892 13.6331L32.8885 13.7649L32.8861 14.309L32.8851 14.5349L32.8844 14.7016C32.8844 14.7016 32.9235 15.2229 32.3691 15.299C31.8148 15.3754 31.3605 15.3654 31.3754 14.9631C31.4255 14.6515 31.5148 14.1682 31.5186 13.9101C31.52 13.8147 31.5141 13.713 31.4989 13.5981L32.573 13.5732L32.8892 13.6331Z" fill="#FFB27D"/>
<path d="M34.7741 35.9498C34.778 36.143 34.8023 36.3259 34.8724 36.398H37.6828C37.6471 36.2964 37.5459 36.1435 37.2574 36.0967C36.9296 36.0437 36.4185 35.8859 36.1202 35.5706C36.0138 35.4586 35.9346 35.3264 35.8999 35.172C35.7677 34.5835 34.8067 35.3523 34.8067 35.3523C34.8067 35.3523 34.7679 35.6621 34.7741 35.9498Z" fill="#233862"/>
<path d="M30.5436 35.9498C30.5475 36.143 30.5719 36.3259 30.642 36.398H33.4523C33.4166 36.2964 33.3154 36.1435 33.0269 36.0967C32.6991 36.0437 32.188 35.8859 31.8897 35.5706C31.7833 35.4586 31.7041 35.3264 31.6695 35.172C31.5373 34.5835 30.5763 35.3523 30.5763 35.3523C30.5763 35.3523 30.5374 35.6621 30.5436 35.9498Z" fill="#233862"/>
<path d="M32.905 29.5866C32.9441 29.8021 32.9689 29.9789 32.9755 30.1056C33.0648 31.8477 34.4424 35.8307 34.6888 35.9236C35.0701 36.0674 35.6889 35.7912 35.9697 35.6185C36.0821 35.5493 36.2026 35.4889 36.1736 35.3558C35.4914 32.2207 35.2407 27.7062 35.1495 25.0334C35.1034 23.6871 34.8722 22.7572 34.8722 22.7572C34.8722 22.7572 31.5124 21.861 31.4924 22.9946C31.4747 23.9978 32.6053 27.9319 32.905 29.5866Z" fill="#2B478B"/>
<path d="M32.905 29.5866L35.1495 25.0334C35.1034 23.6871 34.8722 22.7572 34.8722 22.7572C34.8722 22.7572 31.5124 21.861 31.4924 22.9946C31.4747 23.9978 32.6053 27.9318 32.905 29.5866Z" fill="#233862"/>
<path d="M33.6518 22.9982L31.9752 35.6181C31.9752 35.6181 31.0593 35.9415 30.4526 35.7911C30.4526 35.7911 29.9689 29.0603 30.0123 27.4057C30.0556 25.7511 29.6391 22.9782 30.1073 22.6725C30.5756 22.3667 33.6518 22.9982 33.6518 22.9982Z" fill="#2B478B"/>
<path d="M31.1016 15.1875L31.5105 23.9587C31.5105 23.9587 34.9235 24.0145 34.8261 23.2423C34.7287 22.4703 33.5959 15.4561 33.5959 15.4561L31.1016 15.1875Z" fill="#F8FBFF"/>
<path d="M32.1231 24.6683C32.1231 24.6683 31.5484 24.6929 30.9196 24.6441C30.5342 24.6144 30.129 24.5569 29.8234 24.4497C29.6591 24.3919 29.5234 24.32 29.4355 24.23C29.4355 24.23 29.4691 23.617 29.5089 22.854C29.5259 22.5171 29.5446 22.1511 29.5619 21.7955C29.5996 21.0138 29.6311 20.2832 29.6311 20.0248C29.6311 19.7993 29.6138 19.4924 29.5861 19.1497C29.5446 18.6301 29.4805 18.0286 29.4193 17.5045C29.3639 17.0251 29.4131 16.2326 29.4535 15.7445C29.475 15.4865 29.649 15.2665 29.8954 15.1866L30.8989 14.8604L32.2273 20.681C32.2273 20.681 32.2384 22.8118 32.1231 24.6683Z" fill="#22407A"/>
<path d="M35.3446 24.2529C35.3865 24.2361 34.5199 24.3587 34.5199 24.3163C34.5199 24.3106 34.1306 18.7645 34.1306 18.7645C33.7814 16.6273 33.1914 14.8779 33.1914 14.8779C34.0441 15.1757 34.4951 15.5182 34.5805 15.7032C35.0791 16.7833 35.3374 24.2557 35.3446 24.2529Z" fill="#22407A"/>
<path d="M31.0078 14.8478C31.0037 14.7641 31.4003 14.6484 31.4003 14.6484C31.4003 14.6484 31.8543 15.2777 32.6022 15.2885C32.6022 15.2885 32.3891 15.7032 32.1379 15.8106C32.1379 15.8106 31.0325 15.3449 31.0078 14.8478Z" fill="#E4EEF9"/>
<path d="M32.6016 15.2743C32.6016 15.2743 32.9978 15.0395 32.9991 14.785C32.9991 14.785 33.255 14.7529 33.3668 14.877C33.3668 14.877 33.4608 15.3132 33.3361 15.5666C33.3361 15.5666 32.7656 15.4798 32.6016 15.2743Z" fill="#E4EEF9"/>
<path d="M32.3311 15.2371L32.8684 15.1084C32.8684 15.1084 32.9386 15.1145 32.9367 15.202C32.9347 15.2895 32.7853 15.5451 32.7192 15.5655C32.653 15.586 32.204 15.4141 32.3311 15.2371Z" fill="#F99746"/>
<path d="M31.1563 14.9056C31.1521 14.8219 31.4418 14.5381 31.4418 14.5381C31.4418 14.5381 31.8539 15.1577 32.6019 15.1686C32.6019 15.1686 32.3887 15.5832 32.1375 15.6906C32.1375 15.6906 31.181 15.4027 31.1563 14.9056Z" fill="#F8FBFF"/>
<path d="M32.6016 15.1663C32.6016 15.1663 32.8826 14.9245 32.8839 14.6699C32.8839 14.6699 33.2455 14.8058 33.3573 14.9299C33.3573 14.9299 33.4608 15.2053 33.3361 15.4586C33.3361 15.4586 32.7656 15.3718 32.6016 15.1663Z" fill="#F8FBFF"/>
<path d="M34.0957 22.4718C34.0941 22.7242 34.0159 22.966 33.8763 23.1499L33.6569 23.4391C33.6018 23.5118 33.5076 23.5106 33.4523 23.437L33.128 23.0048C33.041 22.8889 32.9936 22.7367 32.9953 22.58C32.9998 22.231 33.0066 21.5586 33.0048 20.9105C33.0034 20.3852 32.9964 19.8755 32.978 19.5666C32.9189 18.5806 32.5508 15.4519 32.5508 15.4519L32.7441 15.4473C32.7441 15.4473 33.3032 16.6251 33.6639 18.2629C33.7528 18.666 33.8293 19.0968 33.8829 19.5451C33.8829 19.5451 34.1025 21.3312 34.0957 22.4718Z" fill="#F99746"/>
<path d="M31.4063 14.5732C31.4063 14.5732 32.3978 19.0055 32.2285 20.6832C32.2285 20.6832 31.8374 18.8903 30.8962 17.4218C30.8962 17.4218 31.2397 17.1198 31.221 17.0085C31.221 17.0085 30.9661 16.933 30.7188 16.9838C30.7188 16.9838 30.7461 15.064 30.9003 14.8612C31.0546 14.6584 31.4063 14.5732 31.4063 14.5732Z" fill="#233862"/>
<path d="M33.0078 14.7148C33.012 14.719 33.2772 15.22 33.4749 15.9947C33.8222 17.3553 34.1948 19.4432 34.2521 20.3295C34.2521 20.3295 34.1455 17.8475 34.156 17.1322C34.156 17.1322 33.8253 16.8608 33.8253 16.7788C33.8253 16.6968 34.1855 16.5125 34.1855 16.5125C34.1855 16.5125 33.7848 15.1168 33.622 14.9483C33.4591 14.7799 33.0078 14.7148 33.0078 14.7148Z" fill="#233862"/>
<path d="M32.8871 13.7637L32.8846 14.3078C32.8808 14.3074 32.877 14.3074 32.8732 14.3071C31.9736 14.2666 31.6562 13.9186 31.6562 13.9186L32.8871 13.7637Z" fill="#F2A16B"/>
<path d="M31.301 13.3968C31.4453 14.1736 32.448 14.1481 32.8813 14.0992C33.0033 14.0857 33.08 14.0701 33.08 14.0701C33.2174 14.0334 33.2942 13.8169 33.3298 13.5333C33.4006 12.9721 33.3112 12.1483 33.2164 11.9376C33.0736 11.6206 32.8048 11.2777 31.795 11.5251C30.7852 11.7727 31.1157 12.4015 31.301 13.3968Z" fill="#FFB27D"/>
<path d="M33.2571 12.0594C32.9796 12.1467 32.393 12.0575 32.1477 12.2559C31.9024 12.4545 32.1361 12.7813 31.8557 12.898L31.8547 12.8984C31.7979 12.922 31.732 12.906 31.6936 12.8581C31.616 12.7612 31.5086 12.6647 31.4103 12.7046C31.3298 12.7376 31.3257 12.8417 31.3612 12.9427C31.3911 13.0278 31.3828 13.1232 31.3311 13.1971C31.3088 13.2291 31.2942 13.2641 31.3006 13.2995C31.3239 13.4278 31.3876 13.5945 31.4109 13.6798C31.4109 13.6798 30.8789 13.5808 30.654 12.8774C30.5555 12.5695 30.2388 11.4736 31.2809 11.123C31.2782 11.1208 31.276 11.1186 31.2746 11.1158C31.2602 11.0901 31.2202 11.0959 31.2202 11.0959C31.2774 11.0703 31.3659 11.0865 31.3659 11.0865C31.364 11.0852 31.3676 11.081 31.3756 11.075C31.3872 10.9975 31.4653 10.942 31.4653 10.942C31.4388 10.9804 31.4275 11.0187 31.4228 11.0468C31.5972 10.955 32.1339 10.7514 32.5593 10.9365C32.8471 11.0615 33.1108 11.1282 33.2902 11.1629C33.4378 11.1914 33.5425 11.323 33.537 11.4732C33.5292 11.684 33.4558 11.9869 33.2571 12.0594Z" fill="#233862"/>
<path d="M34.582 15.7012C34.582 15.7012 35.1472 16.8254 35.3318 18.7855C35.5163 20.7457 35.8508 23.5821 35.8508 23.5821L35.1587 23.7435L34.582 15.7012Z" fill="#22407A"/>
<path d="M30.9216 24.6431C30.5361 24.6134 30.1309 24.5559 29.8254 24.4487C29.7285 23.9482 29.5897 23.2498 29.5108 22.853C29.4731 22.6656 29.4492 22.5455 29.4492 22.5455L29.5638 21.7946L30.0575 20.1387C30.0575 20.1387 30.1403 23.4373 30.9216 24.6431Z" fill="#233862"/>
<path d="M29.9976 24.0579C29.9976 24.0579 30.2571 24.9457 30.211 25.2455C30.1649 25.5453 29.8881 26.0065 29.6804 25.9835C29.4728 25.9604 29.5709 25.4358 29.4786 25.2513C29.4026 25.0994 29.277 24.8971 29.4512 24.4197C29.4896 24.3142 29.3981 24.1701 29.4267 24.0233C29.5881 23.1931 29.9976 24.0579 29.9976 24.0579Z" fill="#FFB27D"/>
<path d="M30.1057 24.5303C30.1057 24.5303 30.2672 24.8863 30.3494 24.9727C30.4316 25.0592 30.2412 25.0636 30.1547 24.9641C30.0683 24.8646 30.1057 24.5303 30.1057 24.5303Z" fill="#FFB27D"/>
<path d="M29.8966 15.1875C29.8966 15.1875 29.4656 15.3066 29.1887 16.0907C28.9119 16.8747 28.4102 20.4722 28.4102 21.1179C28.4102 21.7635 29.2291 24.6 29.2291 24.6C29.2291 24.6 29.7135 24.7268 30.1634 24.427C30.2719 24.3547 30.025 21.5329 30.0711 21.0487C30.1173 20.5644 29.8966 15.1875 29.8966 15.1875Z" fill="#22407A"/>
<path d="M19.8673 17.4726C19.7784 17.3012 21.8065 16.6842 21.8386 18.3753C21.8386 18.3753 25.6376 18.282 23.8237 16.1652C23.1957 15.4324 23.2603 14.8265 23.2791 14.2625C23.2982 13.6984 22.888 12.0591 21.4818 12.2242C21.4818 12.2242 21.1135 12.0744 20.654 12.3127C19.6089 12.8548 17.2676 18.0963 19.8673 17.4726Z" fill="#163560"/>
<path d="M23.5547 24.0468C23.5547 24.0468 23.5562 24.3418 23.6122 24.4842C23.6681 24.6264 23.8361 24.8162 23.8921 24.8162C23.948 24.8162 23.8408 24.5197 23.8687 24.5256C23.8967 24.5316 24.0318 25.019 24.1297 25.0309C24.2277 25.0428 24.3166 24.4842 24.2652 24.2647C24.2139 24.0453 23.9923 23.7822 23.9923 23.7822L23.5547 24.0468Z" fill="#FFB27D"/>
<path d="M22.6751 16.4775C22.6751 16.4775 23.3643 16.6466 23.5661 17.5263C23.8129 18.6014 23.4432 21.0724 23.6486 21.7953C23.8539 22.5181 24.1106 23.8395 24.1106 23.8395C24.1106 23.8395 23.8208 24.0723 23.5138 24.0577C23.5138 24.0577 21.9437 21.759 21.9299 21.1379C21.916 20.5169 22.6751 16.4775 22.6751 16.4775Z" fill="white"/>
<path opacity="0.3" d="M23.3522 18.9375C23.3522 18.9375 23.0295 20.93 23.2047 21.4791C23.3799 22.0282 23.1526 22.8625 23.1526 22.8625L21.75 20.6295L23.3522 18.9375Z" fill="#8CB0EA"/>
<path d="M17.2987 34.5385C17.2987 34.5385 16.873 34.9268 16.9561 35.2028C17.0391 35.4787 17.4233 35.6627 17.4752 35.9999C17.5271 36.3372 17.7348 36.5212 17.9217 36.5212C18.1086 36.5212 18.8127 36.5212 18.8127 36.5212C18.8127 36.5212 18.9503 36.2838 18.618 36.2123C18.2858 36.1407 18.1605 35.7444 18.1812 35.3765C18.202 35.0086 18.1501 34.518 18.1501 34.518L17.4441 34.3545L17.2987 34.5385Z" fill="#233862"/>
<path d="M20.9028 34.7041C20.9028 34.7041 20.7497 36.3493 20.9366 36.4413L23.3284 36.4364C23.3284 36.4364 23.3284 36.1605 22.9442 36.0991C22.56 36.0378 21.8851 35.813 21.7709 35.3122C21.6567 34.8114 20.9028 34.7041 20.9028 34.7041Z" fill="#233862"/>
<path d="M19.1983 22.8981C19.6905 21.7947 19.9917 21.478 19.9342 21.1355C19.8914 20.8806 20.0645 16.383 20.0645 16.383C20.1228 16.3649 20.2399 16.3487 20.3039 16.3345C20.5058 16.2897 20.6729 16.148 20.7424 15.9533C20.8262 15.7187 20.8928 15.3724 20.8913 14.9385L20.9543 14.9509L22.0144 15.1608C22.0144 15.1608 21.9903 15.4943 21.9896 15.8084C21.9896 15.8111 21.9896 15.8137 21.9895 15.8163C21.9883 16.0891 22.1673 16.33 22.4296 16.4056C22.5635 16.4443 22.68 16.4773 22.68 16.4773C22.68 16.4773 23.0692 17.5883 23.1436 18.7296C23.2179 19.8709 22.4358 20.3667 23.1495 22.6474C23.8783 24.9768 18.9264 23.5079 19.1983 22.8981Z" fill="#FFB27D"/>
<path d="M22.0133 15.161C22.0133 15.161 21.9891 15.4945 21.9884 15.8087C21.3952 15.792 21.0816 15.251 20.9531 14.9512L22.0133 15.161Z" fill="#E8945B"/>
<path d="M22.2094 15.4613C22.2094 15.4613 20.8058 15.4844 20.8048 14.6104C20.8039 13.7365 20.6221 13.1508 21.5182 13.0991C22.4142 13.0473 22.5887 13.3807 22.66 13.6723C22.7313 13.9639 22.5744 15.4327 22.2094 15.4613Z" fill="#FFB27D"/>
<path d="M22.1595 13.0761C22.1595 13.0761 21.7752 14.1014 21.1854 14.253C20.5957 14.4046 20.3398 14.2466 20.3398 14.2466C20.3398 14.2466 20.7922 13.8874 20.8861 13.2603C20.8861 13.2603 21.8696 12.5881 22.1595 13.0761Z" fill="#163560"/>
<path d="M22.0625 13.1594C22.0625 13.1594 22.3475 13.2659 22.4647 13.4736C22.5794 13.6768 22.6772 13.9459 22.6545 14.276C22.6545 14.276 22.944 13.5791 22.6186 13.1848C22.2736 12.7668 22.0625 13.1594 22.0625 13.1594Z" fill="#163560"/>
<path d="M19.0627 18.3744C19.0627 18.3744 19.0271 18.8768 19.0627 19.4795C19.0864 19.8791 19.4907 20.4143 19.5481 20.5467C19.692 20.8788 19.8544 20.9328 19.8544 20.9328L21.1102 21.2405L21.5517 21.3485L22.9441 20.9328C22.9441 20.9328 23.5783 19.1632 23.3237 18.167C23.069 17.1709 22.6799 16.4791 22.6799 16.4791C22.6799 16.4791 21.5437 17.5912 20.0642 16.3848L19.0627 18.3744Z" fill="white"/>
<path d="M19.4297 19.6425C19.4534 20.042 19.4901 20.4142 19.5475 20.5466C19.6914 20.8786 19.8538 20.9327 19.8538 20.9327L21.1095 21.2404L21.655 21.0801C21.655 21.0801 19.8342 20.8042 20.036 19.2383L19.4297 19.6425Z" fill="#F2CCAA"/>
<path d="M22.8533 21.2021C22.8533 21.2021 23.5428 23.3478 23.5871 24.0783C23.6314 24.8088 22.269 34.4559 22.2142 34.7925C22.1625 35.1098 21.7684 35.312 21.7684 35.312C21.7684 35.312 21.5871 35.4189 21.3284 35.3459C20.9695 35.2446 20.856 35.1233 20.856 35.1233C20.856 35.1233 20.3193 28.243 20.6514 25.7853C20.9836 23.3275 20.9875 21.2021 20.9875 21.2021H22.8533Z" fill="#233862"/>
<path d="M19.9345 21.1357C19.9345 21.1357 18.8826 22.5466 18.7846 23.5003C18.6865 24.454 18.6307 27.804 18.4218 28.7338C18.2129 29.6635 17.4453 31.4527 17.4453 34.3527C17.4453 34.3527 17.5251 34.5188 17.7715 34.6074C17.8502 34.6357 17.9558 34.6632 18.0583 34.6867C18.2614 34.7333 18.4699 34.634 18.5626 34.4473C19.0816 33.4029 20.7346 30.0342 20.8193 29.3349C20.8793 28.84 21.4012 25.5649 22.5397 23.6431C22.8131 23.1817 22.372 21.3468 22.372 21.3468L19.9345 21.1357Z" fill="#2B478B"/>
<path d="M22.9659 20.8711C22.9659 20.8711 22.6891 21.09 22.1392 21.1011C21.4823 21.1143 19.8546 20.9337 19.8546 20.9337C19.8546 20.9337 19.7823 21.1357 19.7852 21.349C19.7852 21.349 21.7732 21.8502 22.925 21.4221C22.925 21.4221 23.0736 21.1427 22.9659 20.8711Z" fill="#233862"/>
<path d="M21.9961 21.3284C21.9961 21.1414 22.1305 20.9893 22.2958 20.9893C22.4611 20.9893 22.5956 21.1414 22.5956 21.3284C22.5956 21.5154 22.4611 21.6675 22.2958 21.6675C22.1305 21.6675 21.9961 21.5154 21.9961 21.3284ZM22.0954 21.3284C22.0954 21.4606 22.1853 21.5682 22.2958 21.5682C22.4063 21.5682 22.4962 21.4606 22.4962 21.3284C22.4962 21.1961 22.4064 21.0885 22.2958 21.0885C22.1853 21.0885 22.0954 21.1961 22.0954 21.3284Z" fill="white"/>
<path d="M17.7132 21.2564L19.75 23.0293L22.1777 20.2422L20.1408 18.4693L17.7132 21.2564Z" fill="#ED7D2B"/>
<path d="M20.3134 21.2646C20.3134 21.2646 21.0597 21.3519 21.0573 21.529C21.055 21.706 20.8713 22.0698 20.7792 22.086C20.687 22.1022 20.1719 21.594 20.1719 21.594L20.3134 21.2646Z" fill="#FFB27D"/>
<path d="M20.0629 16.3848C20.0629 16.3848 19.0665 16.4546 18.6846 17.3827C18.3027 18.3108 17.5781 19.869 17.5781 20.1312C17.5781 20.3933 17.9829 21.2014 20.1567 21.666C20.1567 21.666 20.3815 21.4295 20.3679 21.2426C20.3679 21.2426 19.0109 20.0774 19.0146 19.9413C19.0215 19.6837 19.237 19.3437 20.4284 18.1523C20.7524 17.8284 20.0629 16.3848 20.0629 16.3848Z" fill="white"/>
<path d="M93.2126 36.6361H0.540446C0.483824 36.6361 0.4375 36.5898 0.4375 36.5332V36.5033C0.4375 36.4467 0.483824 36.4004 0.540446 36.4004H93.2126C93.2693 36.4004 93.3156 36.4467 93.3156 36.5033V36.5332C93.3156 36.5898 93.2693 36.6361 93.2126 36.6361Z" fill="#2E3552"/>
</svg>
