<svg width="194" height="78" viewBox="0 0 194 78" fill="none" xmlns="http://www.w3.org/2000/svg">
<path d="M13.1326 19.261C12.3266 21.835 11.3906 24.058 10.3246 25.93C9.25863 27.802 8.15363 29.232 7.00963 30.22C5.86563 31.208 4.77363 31.702 3.73363 31.702C1.34163 31.702 0.145625 29.245 0.145625 24.331C0.145625 21.315 0.509625 18.325 1.23763 15.361C1.96563 12.371 2.77163 9.81 3.65563 7.678C3.91563 7.002 4.25363 6.469 4.66963 6.079C5.08563 5.663 5.67063 5.455 6.42463 5.455C7.12663 5.455 7.68563 5.637 8.10163 6.001C8.51763 6.339 8.72563 6.859 8.72563 7.561L8.68662 8.029C8.68662 8.081 8.53063 8.51 8.21863 9.316C7.43863 11.422 6.73663 13.437 6.11263 15.361C5.51463 17.285 5.13763 19.118 4.98163 20.86C4.90363 21.744 4.86463 22.615 4.86463 23.473C4.86463 24.331 4.95563 25.033 5.13763 25.579C5.31963 26.099 5.57963 26.359 5.91763 26.359C6.67163 26.359 7.58163 25.28 8.64763 23.122C9.73963 20.938 10.7796 18.338 11.7676 15.322C12.7556 12.28 13.4836 9.615 13.9516 7.327C14.0556 6.833 14.3546 6.417 14.8486 6.079C15.3426 5.741 15.7716 5.572 16.1356 5.572C16.7856 5.572 17.2536 5.741 17.5396 6.079C17.8516 6.391 18.0076 6.885 18.0076 7.561L17.9686 8.107C17.9686 8.211 17.9426 8.354 17.8906 8.536C17.8386 8.718 17.7866 8.952 17.7346 9.238C16.4866 15.166 15.7326 19.586 15.4726 22.498C15.4466 22.706 15.4336 23.018 15.4336 23.434C15.4336 24.318 15.5506 25.033 15.7846 25.579C16.0446 26.099 16.3696 26.359 16.7596 26.359C18.0336 26.359 19.3206 24.383 20.6206 20.431C21.9206 16.453 23.0776 12.046 24.0916 7.21C24.1956 6.742 24.4166 6.404 24.7546 6.196C25.1186 5.962 25.5476 5.845 26.0416 5.845C26.6656 5.845 27.3026 5.975 27.9526 6.235C28.6026 6.495 28.9276 6.781 28.9276 7.093L28.3036 9.823C27.3416 14.087 26.3666 17.727 25.3786 20.743C24.4166 23.759 23.1426 26.346 21.5566 28.504C19.9966 30.636 18.0986 31.702 15.8626 31.702C13.6786 31.702 12.5866 29.7 12.5866 25.696C12.5866 23.85 12.8206 21.705 13.2886 19.261H13.1326ZM36.3565 31.819C33.8085 31.819 31.9495 31.312 30.7795 30.298C29.6095 29.284 29.0245 27.932 29.0245 26.242C29.0245 23.772 29.6355 21.484 30.8575 19.378C32.1055 17.272 33.7565 15.608 35.8105 14.386C37.8905 13.138 40.1265 12.514 42.5185 12.514C43.9745 12.514 45.1965 12.93 46.1845 13.762C47.1725 14.568 47.6665 15.764 47.6665 17.35C47.6665 18.26 47.3675 19.014 46.7695 19.612C46.1975 20.184 45.3655 20.704 44.2735 21.172C43.1815 21.614 41.4135 22.251 38.9695 23.083C36.7595 23.811 34.9655 24.422 33.5875 24.916C33.4835 25.306 33.4315 25.709 33.4315 26.125C33.4315 26.853 33.7305 27.412 34.3285 27.802C34.9525 28.192 35.8235 28.387 36.9415 28.387C37.6435 28.387 38.4495 28.244 39.3595 27.958C40.2695 27.672 40.8415 27.308 41.0755 26.866C41.9595 25.254 42.7655 24.448 43.4935 24.448C44.5595 24.448 45.2745 24.656 45.6385 25.072C46.0285 25.462 46.2365 25.904 46.2625 26.398C45.9505 27.23 45.3395 28.075 44.4295 28.933C43.5195 29.765 42.3625 30.454 40.9585 31C39.5545 31.546 38.0205 31.819 36.3565 31.819ZM34.6795 21.328C37.2535 20.496 39.3725 19.729 41.0365 19.027C42.7005 18.299 43.5325 17.584 43.5325 16.882C43.5325 16.57 43.3635 16.323 43.0255 16.141C42.6875 15.933 42.3235 15.829 41.9335 15.829C41.1535 15.829 40.2565 16.128 39.2425 16.726C38.2545 17.324 37.3315 18.052 36.4735 18.91C35.6155 19.768 35.0175 20.574 34.6795 21.328ZM58.6907 9.784C55.7527 22.134 54.0237 29.193 53.5037 30.961C53.4517 31.117 53.1787 31.312 52.6847 31.546C52.2167 31.806 51.8917 31.936 51.7097 31.936C50.9817 31.936 50.2797 31.754 49.6037 31.39C48.9277 31.026 48.5637 30.441 48.5117 29.635C48.5377 29.583 48.6677 29.31 48.9017 28.816C49.1357 28.322 49.3697 27.62 49.6037 26.71C50.2017 24.474 50.8777 21.822 51.6317 18.754C52.4117 15.686 52.9317 13.632 53.1917 12.592L55.0247 5.143C54.9987 4.935 54.9857 3.856 54.9857 1.906C55.0637 1.568 55.3497 1.295 55.8437 1.087C56.3637 0.878999 56.8317 0.774999 57.2477 0.774999C57.8977 0.774999 58.5607 0.995999 59.2367 1.438C59.9387 1.88 60.3027 2.413 60.3287 3.037L58.6907 9.784ZM76.0518 27.451C75.5838 28.777 74.6608 29.843 73.2828 30.649C71.9048 31.429 69.9808 31.819 67.5108 31.819C65.7948 31.819 64.3778 31.52 63.2598 30.922C62.1418 30.324 61.3228 29.544 60.8028 28.582C60.2828 27.62 60.0228 26.58 60.0228 25.462C60.0228 22.966 60.5168 20.743 61.5048 18.793C62.4928 16.817 63.8838 15.283 65.6778 14.191C67.4978 13.073 69.6038 12.514 71.9958 12.514C73.5038 12.514 74.8038 12.956 75.8958 13.84C76.9878 14.724 77.5338 15.894 77.5338 17.35C77.5338 17.922 77.3258 18.403 76.9098 18.793C76.5198 19.157 75.9478 19.339 75.1938 19.339C74.5698 19.339 74.1278 19.183 73.8678 18.871C73.6078 18.533 73.4778 18.143 73.4778 17.701C73.4778 17.129 73.2828 16.674 72.8928 16.336C72.5028 15.998 72.0088 15.829 71.4108 15.829C70.6308 15.829 69.6948 16.245 68.6028 17.077C67.5368 17.909 66.6138 19.066 65.8338 20.548C65.0798 22.004 64.7028 23.642 64.7028 25.462C64.7028 26.268 65.0018 26.957 65.5998 27.529C66.1978 28.101 67.0298 28.387 68.0958 28.387C68.9798 28.387 69.6948 28.218 70.2408 27.88C70.7868 27.542 71.3718 27.061 71.9958 26.437C72.3858 26.047 72.7108 25.761 72.9708 25.579C73.2308 25.397 73.5038 25.306 73.7898 25.306C74.4138 25.306 74.9208 25.488 75.3108 25.852C75.7008 26.19 75.9478 26.723 76.0518 27.451ZM87.3627 31.39C85.0747 31.39 83.2937 30.61 82.0197 29.05C80.7457 27.49 80.1087 25.501 80.1087 23.083C80.1087 21.055 80.5377 19.196 81.3957 17.506C82.2797 15.816 83.5017 14.49 85.0617 13.528C86.6477 12.54 88.4547 12.046 90.4827 12.046C92.7447 12.046 94.2657 12.241 95.0457 12.631C95.2797 12.735 95.4877 12.904 95.6697 13.138C95.8517 13.346 95.9427 13.554 95.9427 13.762C95.9427 14.022 95.8777 14.295 95.7477 14.581C95.6437 14.867 95.4747 15.088 95.2407 15.244C95.8387 15.296 96.3457 15.595 96.7617 16.141C97.1777 16.661 97.4897 17.272 97.6977 17.974C97.9057 18.676 98.0097 19.287 98.0097 19.807C98.0097 21.653 97.5547 23.473 96.6447 25.267C95.7607 27.061 94.5127 28.53 92.9007 29.674C91.2887 30.818 89.4427 31.39 87.3627 31.39ZM87.9477 28.153C88.7797 28.153 89.6247 27.75 90.4827 26.944C91.3667 26.112 92.0947 25.02 92.6667 23.668C93.2387 22.316 93.5247 20.899 93.5247 19.417C93.5247 19.131 93.4207 18.871 93.2127 18.637C93.0307 18.403 92.7707 18.156 92.4327 17.896C92.2507 17.766 92.0817 17.636 91.9257 17.506C91.7957 17.35 91.7307 17.207 91.7307 17.077C91.7307 16.973 91.7567 16.83 91.8087 16.648C91.8867 16.466 91.9257 16.336 91.9257 16.258C91.9257 15.868 91.4447 15.673 90.4827 15.673C89.4167 15.673 88.4287 16.102 87.5187 16.96C86.6347 17.818 85.9327 18.91 85.4127 20.236C84.9187 21.562 84.6717 22.862 84.6717 24.136C84.6717 24.89 84.8407 25.579 85.1787 26.203C85.5167 26.801 85.9327 27.282 86.4267 27.646C86.9467 27.984 87.4537 28.153 87.9477 28.153ZM102.604 14.347C102.708 13.515 102.877 12.917 103.111 12.553C103.371 12.189 103.93 12.007 104.788 12.007C105.724 12.007 106.335 12.189 106.621 12.553C106.907 12.891 107.089 13.411 107.167 14.113L106.66 16.999C108.272 14.113 110.196 12.67 112.432 12.67C113.55 12.67 114.447 13.034 115.123 13.762C115.799 14.464 116.137 15.543 116.137 16.999C116.137 17.649 116.059 18.403 115.903 19.261C116.839 17.337 117.723 15.894 118.555 14.932C119.413 13.97 120.18 13.359 120.856 13.099C121.532 12.813 122.234 12.67 122.962 12.67C125.692 12.67 127.109 13.97 127.213 16.57C127.213 16.934 127.161 17.454 127.057 18.13C126.615 20.548 125.991 24.162 125.185 28.972C125.029 29.908 124.847 30.61 124.639 31.078C124.431 31.572 124.119 31.936 123.703 32.17C123.287 32.404 122.689 32.521 121.909 32.521C120.739 32.521 120.128 31.793 120.076 30.337C120.128 29.973 120.154 29.687 120.154 29.479C120.336 28.335 120.765 26.125 121.441 22.849C122.039 20.093 122.338 18.442 122.338 17.896C122.338 17.35 122.221 16.973 121.987 16.765C121.753 16.531 121.48 16.414 121.168 16.414C120.648 16.414 119.894 17.337 118.906 19.183C117.944 21.003 116.982 23.044 116.02 25.306C115.084 27.568 114.486 29.115 114.226 29.947C114.148 30.207 113.823 30.532 113.251 30.922C112.705 31.312 112.25 31.507 111.886 31.507C110.092 31.507 109.195 31.143 109.195 30.415C109.351 29.973 109.884 27.737 110.794 23.707L112.276 17.35C112.25 17.116 112.133 16.921 111.925 16.765C111.717 16.609 111.496 16.531 111.262 16.531C110.3 16.531 109.286 17.376 108.22 19.066C107.18 20.756 106.257 22.654 105.451 24.76C104.671 26.866 104.216 28.335 104.086 29.167C103.956 29.895 103.709 30.402 103.345 30.688C102.981 30.974 102.357 31.117 101.473 31.117C100.719 31.117 100.147 31.026 99.7574 30.844C99.3674 30.636 99.1594 30.246 99.1334 29.674C99.1334 29.388 99.4454 27.867 100.069 25.111C100.693 22.355 101.538 18.767 102.604 14.347ZM136.83 31.819C134.256 31.819 132.371 31.312 131.175 30.298C130.005 29.284 129.42 27.932 129.42 26.242C129.42 23.72 129.94 21.432 130.98 19.378C132.02 17.298 133.463 15.673 135.309 14.503C137.155 13.307 139.261 12.709 141.627 12.709C143.109 12.709 144.344 13.125 145.332 13.957C146.346 14.789 146.853 16.024 146.853 17.662C146.853 19.404 146.281 20.769 145.137 21.757C144.019 22.745 142.55 23.46 140.73 23.902C138.936 24.318 136.674 24.656 133.944 24.916C133.866 25.254 133.827 25.657 133.827 26.125C133.827 26.853 134.139 27.412 134.763 27.802C135.387 28.192 136.258 28.387 137.376 28.387C138.182 28.387 139.118 28.218 140.184 27.88C141.276 27.542 142.108 26.983 142.68 26.203C143.018 25.761 143.408 25.41 143.85 25.15C144.318 24.89 144.773 24.76 145.215 24.76C145.631 24.76 145.969 24.903 146.229 25.189C146.515 25.449 146.658 25.852 146.658 26.398C146.372 27.23 145.774 28.075 144.864 28.933C143.954 29.765 142.797 30.454 141.393 31C140.015 31.546 138.494 31.819 136.83 31.819ZM134.958 21.328C136.622 21.302 138.325 20.99 140.067 20.392C141.809 19.768 142.68 18.689 142.68 17.155C142.68 16.791 142.511 16.518 142.173 16.336C141.835 16.128 141.471 16.024 141.081 16.024C140.327 16.024 139.534 16.31 138.702 16.882C137.896 17.428 137.155 18.117 136.479 18.949C135.803 19.755 135.296 20.548 134.958 21.328ZM164.293 26.71C164.293 27.308 164.449 27.789 164.761 28.153C165.073 28.491 165.515 28.66 166.087 28.66C166.867 28.66 167.504 28.439 167.998 27.997C168.518 27.529 169.064 26.879 169.636 26.047C170.052 25.449 170.39 25.02 170.65 24.76C170.91 24.5 171.209 24.37 171.547 24.37C172.223 24.37 172.704 24.461 172.99 24.643C173.276 24.799 173.419 25.137 173.419 25.657C173.419 25.891 173.393 26.177 173.341 26.515C173.289 26.827 173.224 27.061 173.146 27.217C172.522 28.543 171.495 29.687 170.065 30.649C168.661 31.611 167.062 32.092 165.268 32.092C163.474 32.092 162.122 31.663 161.212 30.805C160.302 29.921 159.847 28.673 159.847 27.061C159.847 26.827 159.964 26.216 160.198 25.228C160.432 24.24 160.731 23.057 161.095 21.679L162.187 17.233L159.808 17.428C159.496 17.428 159.262 17.311 159.106 17.077C158.95 16.843 158.872 16.557 158.872 16.219C158.872 15.569 159.106 14.919 159.574 14.269C159.626 14.191 159.886 14.113 160.354 14.035C160.822 13.957 161.394 13.879 162.07 13.801L163.123 13.684L164.449 7.99C164.709 7.314 165.099 6.794 165.619 6.43C166.165 6.04 166.672 5.845 167.14 5.845C167.66 5.845 168.102 6.001 168.466 6.313C168.83 6.625 169.025 6.989 169.051 7.405L167.647 13.255C168.661 13.125 169.597 13.021 170.455 12.943C171.339 12.839 172.028 12.787 172.522 12.787C173.51 12.787 174.004 13.359 174.004 14.503C174.004 14.945 173.809 15.348 173.419 15.712C173.055 16.05 172.652 16.258 172.21 16.336L166.75 16.882L164.293 26.71ZM183.073 31.819C180.785 31.819 179.004 31.039 177.73 29.479C176.456 27.919 175.819 25.93 175.819 23.512C175.819 21.484 176.3 19.573 177.262 17.779C178.25 15.985 179.589 14.542 181.279 13.45C182.969 12.358 184.828 11.812 186.856 11.812C188.858 11.812 190.496 12.475 191.77 13.801C193.07 15.101 193.72 17.025 193.72 19.573C193.72 21.367 193.226 23.226 192.238 25.15C191.25 27.074 189.924 28.673 188.26 29.947C186.622 31.195 184.893 31.819 183.073 31.819ZM183.658 28.699C184.49 28.699 185.322 28.179 186.154 27.139C187.012 26.099 187.714 24.786 188.26 23.2C188.806 21.614 189.079 20.067 189.079 18.559C189.079 16.245 188.117 15.088 186.193 15.088C185.127 15.088 184.152 15.595 183.268 16.609C182.384 17.623 181.682 18.884 181.162 20.392C180.642 21.874 180.382 23.265 180.382 24.565C180.382 25.319 180.551 26.021 180.889 26.671C181.227 27.295 181.643 27.789 182.137 28.153C182.657 28.517 183.164 28.699 183.658 28.699ZM29.6092 55.447C29.4792 55.031 28.9722 54.667 28.0882 54.355C27.2302 54.017 26.0992 53.848 24.6952 53.848C23.1612 53.848 21.9652 54.277 21.1072 55.135C20.2492 55.993 19.8202 57.072 19.8202 58.372C19.8202 59.178 20.1062 59.802 20.6782 60.244C21.2762 60.66 22.1862 61.128 23.4082 61.648L24.8122 62.233L25.9822 62.779C27.3862 63.403 28.4912 63.975 29.2972 64.495C30.1292 64.989 30.8312 65.678 31.4032 66.562C31.9752 67.446 32.2612 68.577 32.2612 69.955C32.2612 71.437 31.7672 72.724 30.7792 73.816C29.8172 74.882 28.4652 75.688 26.7232 76.234C24.9812 76.806 22.9532 77.092 20.6392 77.092C18.9232 77.092 17.3112 76.819 15.8032 76.273C14.3212 75.753 13.1382 75.09 12.2542 74.284C11.3962 73.478 10.9672 72.685 10.9672 71.905C10.9672 71.151 11.2922 70.54 11.9422 70.072C12.5922 69.578 13.5152 69.24 14.7112 69.058C14.8412 69.812 15.2832 70.488 16.0372 71.086C16.7912 71.684 17.6622 72.165 18.6502 72.529C19.6642 72.867 20.5482 73.036 21.3022 73.036C22.6802 73.036 23.9022 72.763 24.9682 72.217C26.0602 71.671 26.6062 70.917 26.6062 69.955C26.6062 69.149 26.2162 68.486 25.4362 67.966C24.6822 67.42 23.5382 66.835 22.0042 66.211L19.9372 65.275C18.2472 64.443 16.9082 63.507 15.9202 62.467C14.9322 61.427 14.4382 60.049 14.4382 58.333C14.4382 56.435 14.9712 54.901 16.0372 53.731C17.1032 52.535 18.3902 51.677 19.8982 51.157C21.4322 50.637 22.9272 50.377 24.3832 50.377C26.6972 50.377 28.5952 50.676 30.0772 51.274C31.5852 51.872 32.6772 52.626 33.3532 53.536C34.0292 54.446 34.3672 55.382 34.3672 56.344C34.3672 56.89 34.2242 57.553 33.9382 58.333C33.6782 59.113 33.2752 59.789 32.7292 60.361C32.2092 60.933 31.5722 61.219 30.8182 61.219C29.5182 61.219 28.8682 60.543 28.8682 59.191C28.9202 58.775 29.0372 58.099 29.2192 57.163C29.4012 56.201 29.5312 55.629 29.6092 55.447ZM42.9835 76.819C40.4355 76.819 38.5765 76.312 37.4065 75.298C36.2365 74.284 35.6515 72.932 35.6515 71.242C35.6515 68.772 36.2625 66.484 37.4845 64.378C38.7325 62.272 40.3835 60.608 42.4375 59.386C44.5175 58.138 46.7535 57.514 49.1455 57.514C50.6015 57.514 51.8235 57.93 52.8115 58.762C53.7995 59.568 54.2935 60.764 54.2935 62.35C54.2935 63.26 53.9945 64.014 53.3965 64.612C52.8245 65.184 51.9925 65.704 50.9005 66.172C49.8085 66.614 48.0405 67.251 45.5965 68.083C43.3865 68.811 41.5925 69.422 40.2145 69.916C40.1105 70.306 40.0585 70.709 40.0585 71.125C40.0585 71.853 40.3575 72.412 40.9555 72.802C41.5795 73.192 42.4505 73.387 43.5685 73.387C44.2705 73.387 45.0765 73.244 45.9865 72.958C46.8965 72.672 47.4685 72.308 47.7025 71.866C48.5865 70.254 49.3925 69.448 50.1205 69.448C51.1865 69.448 51.9015 69.656 52.2655 70.072C52.6555 70.462 52.8635 70.904 52.8895 71.398C52.5775 72.23 51.9665 73.075 51.0565 73.933C50.1465 74.765 48.9895 75.454 47.5855 76C46.1815 76.546 44.6475 76.819 42.9835 76.819ZM41.3065 66.328C43.8805 65.496 45.9995 64.729 47.6635 64.027C49.3275 63.299 50.1595 62.584 50.1595 61.882C50.1595 61.57 49.9905 61.323 49.6525 61.141C49.3145 60.933 48.9505 60.829 48.5605 60.829C47.7805 60.829 46.8835 61.128 45.8695 61.726C44.8815 62.324 43.9585 63.052 43.1005 63.91C42.2425 64.768 41.6445 65.574 41.3065 66.328ZM63.0167 76.819C60.4687 76.819 58.6097 76.312 57.4397 75.298C56.2697 74.284 55.6847 72.932 55.6847 71.242C55.6847 68.772 56.2957 66.484 57.5177 64.378C58.7657 62.272 60.4167 60.608 62.4707 59.386C64.5507 58.138 66.7867 57.514 69.1787 57.514C70.6347 57.514 71.8567 57.93 72.8447 58.762C73.8327 59.568 74.3267 60.764 74.3267 62.35C74.3267 64.118 73.6637 65.522 72.3377 66.562C71.0377 67.576 69.3867 68.33 67.3847 68.824C65.4087 69.292 63.0297 69.656 60.2477 69.916C60.1437 70.306 60.0917 70.709 60.0917 71.125C60.0917 71.853 60.3907 72.412 60.9887 72.802C61.6127 73.192 62.4837 73.387 63.6017 73.387C64.4337 73.387 65.3827 73.218 66.4487 72.88C67.5407 72.542 68.3727 71.983 68.9447 71.203C69.2567 70.761 69.6467 70.41 70.1147 70.15C70.6087 69.89 71.0767 69.76 71.5187 69.76C71.9347 69.76 72.2727 69.903 72.5327 70.189C72.7927 70.449 72.9227 70.852 72.9227 71.398C72.6107 72.23 71.9997 73.075 71.0897 73.933C70.1797 74.765 69.0227 75.454 67.6187 76C66.2147 76.546 64.6807 76.819 63.0167 76.819ZM61.3397 66.328C62.2497 66.302 63.3937 66.159 64.7717 65.899C66.1497 65.639 67.3977 65.184 68.5157 64.534C69.6337 63.858 70.1927 62.974 70.1927 61.882C70.1927 61.57 70.0237 61.323 69.6857 61.141C69.3477 60.933 68.9837 60.829 68.5937 60.829C67.8137 60.829 66.9167 61.128 65.9027 61.726C64.9147 62.324 63.9917 63.052 63.1337 63.91C62.2757 64.768 61.6777 65.574 61.3397 66.328ZM95.3739 58.528C95.4779 58.684 95.6079 58.983 95.7639 59.425C95.9459 59.841 96.0369 60.166 96.0369 60.4C96.0369 60.53 96.0239 60.608 95.9979 60.634C95.8679 60.79 95.5689 60.92 95.1009 61.024C94.6329 61.128 94.3209 61.193 94.1649 61.219C93.3589 61.739 92.0719 62.571 90.3039 63.715C88.5619 64.833 87.2879 65.652 86.4819 66.172C86.5339 66.796 87.0019 67.758 87.8859 69.058C88.7699 70.332 89.7189 71.541 90.7329 72.685C91.7469 73.829 92.3579 74.401 92.5659 74.401C92.7999 74.401 93.0859 74.596 93.4239 74.986C93.7879 75.376 93.9699 75.727 93.9699 76.039C93.9699 76.325 93.7879 76.507 93.4239 76.585C93.1899 76.637 92.7479 76.728 92.0979 76.858C91.4739 76.988 90.9279 77.053 90.4599 77.053C90.0439 77.053 89.7189 77.001 89.4849 76.897C88.8869 76.689 88.0679 76 87.0279 74.83C86.0139 73.634 85.0389 72.308 84.1029 70.852C83.1669 69.37 82.5559 68.096 82.2699 67.03C81.4379 70.384 80.8529 72.685 80.5149 73.933C80.1769 75.155 79.9039 75.948 79.6959 76.312C79.4879 76.702 79.2409 76.897 78.9549 76.897L77.8629 76.936C76.1469 76.936 75.2499 76.247 75.1719 74.869C75.6919 73.595 76.0559 72.542 76.2639 71.71C78.8379 62.168 80.6709 54.979 81.7629 50.143C81.7369 49.753 81.7109 49.22 81.6849 48.544C81.6589 47.842 81.6459 47.296 81.6459 46.906C81.7239 46.568 82.0099 46.295 82.5039 46.087C83.0239 45.879 83.4919 45.775 83.9079 45.775C84.5579 45.775 85.2469 45.996 85.9749 46.438C86.7029 46.88 87.0799 47.413 87.1059 48.037L83.6349 61.648L82.9719 64.339C83.5179 63.663 84.4409 62.831 85.7409 61.843C87.0669 60.855 88.4189 59.971 89.7969 59.191C91.2009 58.411 92.3189 57.943 93.1509 57.787C93.3589 57.787 93.7359 57.852 94.2819 57.982C94.8539 58.112 95.2179 58.294 95.3739 58.528ZM118.082 49.636C119.018 50.13 119.486 50.754 119.486 51.508C119.486 51.976 119.226 52.418 118.706 52.834C118.212 53.224 117.653 53.497 117.029 53.653C112.167 53.965 108.605 54.238 106.343 54.472L104.198 62.974C106.252 62.636 107.851 62.415 108.995 62.311C110.139 62.207 110.841 62.142 111.101 62.116L112.076 62.038C113.09 62.48 113.597 63.078 113.597 63.832C113.597 64.482 113.298 65.002 112.7 65.392C112.128 65.782 111.465 66.055 110.711 66.211C110.087 66.289 109.177 66.38 107.981 66.484C107.669 66.51 107.032 66.575 106.07 66.679C105.134 66.783 104.172 66.913 103.184 67.069L101.312 74.596C101.182 75.142 101.039 75.545 100.883 75.805C100.753 76.039 100.506 76.208 100.142 76.312C99.8036 76.442 99.2836 76.507 98.5816 76.507C97.7756 76.507 97.1776 76.364 96.7876 76.078C96.4236 75.818 96.2416 75.363 96.2416 74.713C96.2416 74.427 96.2806 74.154 96.3586 73.894L101.429 53.848C101.065 53.276 100.883 52.86 100.883 52.6C100.935 51.846 101.429 51.248 102.365 50.806C104.315 50.546 107.045 50.299 110.555 50.065C114.065 49.805 116.574 49.662 118.082 49.636ZM125.528 76.39C123.994 76.39 122.668 76.026 121.55 75.298C120.432 74.57 119.574 73.582 118.976 72.334C118.404 71.086 118.118 69.669 118.118 68.083C118.118 66.003 118.521 64.131 119.327 62.467C120.159 60.777 121.329 59.451 122.837 58.489C124.345 57.527 126.1 57.046 128.102 57.046C130.312 57.046 131.807 57.241 132.587 57.631C132.795 57.735 132.99 57.904 133.172 58.138C133.38 58.346 133.497 58.554 133.523 58.762C133.471 59.464 133.237 59.958 132.821 60.244C133.419 60.296 133.913 60.595 134.303 61.141C134.719 61.687 135.031 62.324 135.239 63.052C135.447 63.754 135.551 64.391 135.551 64.963C135.551 66.809 135.148 68.616 134.342 70.384C133.536 72.126 132.366 73.569 130.832 74.713C129.324 75.831 127.556 76.39 125.528 76.39ZM126.074 73.153C126.906 73.153 127.699 72.75 128.453 71.944C129.233 71.138 129.857 70.072 130.325 68.746C130.819 67.394 131.066 65.951 131.066 64.417C131.066 64.131 130.975 63.871 130.793 63.637C130.611 63.403 130.351 63.156 130.013 62.896C129.961 62.87 129.831 62.766 129.623 62.584C129.441 62.402 129.35 62.233 129.35 62.077C129.35 61.973 129.376 61.83 129.428 61.648C129.48 61.44 129.506 61.297 129.506 61.219C129.506 60.855 129.051 60.673 128.141 60.673C127.075 60.673 126.126 61.102 125.294 61.96C124.488 62.792 123.851 63.871 123.383 65.197C122.941 66.497 122.72 67.81 122.72 69.136C122.72 69.89 122.889 70.579 123.227 71.203C123.591 71.801 124.033 72.282 124.553 72.646C125.073 72.984 125.58 73.153 126.074 73.153ZM141.756 74.518C141.73 74.674 141.665 74.986 141.561 75.454C141.483 75.896 141.262 76.208 140.898 76.39C140.56 76.572 140.014 76.663 139.26 76.663C138.402 76.663 137.778 76.572 137.388 76.39C136.998 76.208 136.803 75.818 136.803 75.22C136.881 74.908 137.44 72.685 138.48 68.551C139.234 65.353 139.793 63.104 140.157 61.804C140.547 59.958 141.002 58.749 141.522 58.177C142.042 57.579 142.64 57.28 143.316 57.28C144.226 57.28 144.811 57.41 145.071 57.67C145.357 57.93 145.5 58.268 145.5 58.684L145.032 60.985C145.864 59.971 146.826 59.139 147.918 58.489C149.036 57.813 150.024 57.475 150.882 57.475C152 57.475 152.871 57.67 153.495 58.06C154.119 58.45 154.431 58.957 154.431 59.581C154.431 60.049 154.132 60.426 153.534 60.712C152.962 60.972 152.208 61.141 151.272 61.219C149.868 61.349 148.425 61.96 146.943 63.052C145.487 64.144 144.395 65.431 143.667 66.913L141.756 74.518ZM156.153 59.347C156.257 58.515 156.426 57.917 156.66 57.553C156.92 57.189 157.479 57.007 158.337 57.007C159.273 57.007 159.884 57.189 160.17 57.553C160.456 57.891 160.638 58.411 160.716 59.113L160.209 61.999C161.821 59.113 163.745 57.67 165.981 57.67C167.099 57.67 167.996 58.034 168.672 58.762C169.348 59.464 169.686 60.543 169.686 61.999C169.686 62.649 169.608 63.403 169.452 64.261C170.388 62.337 171.272 60.894 172.104 59.932C172.962 58.97 173.729 58.359 174.405 58.099C175.081 57.813 175.783 57.67 176.511 57.67C179.241 57.67 180.658 58.97 180.762 61.57C180.762 61.934 180.71 62.454 180.606 63.13C180.164 65.548 179.54 69.162 178.734 73.972C178.578 74.908 178.396 75.61 178.188 76.078C177.98 76.572 177.668 76.936 177.252 77.17C176.836 77.404 176.238 77.521 175.458 77.521C174.288 77.521 173.677 76.793 173.625 75.337C173.677 74.973 173.703 74.687 173.703 74.479C173.885 73.335 174.314 71.125 174.99 67.849C175.588 65.093 175.887 63.442 175.887 62.896C175.887 62.35 175.77 61.973 175.536 61.765C175.302 61.531 175.029 61.414 174.717 61.414C174.197 61.414 173.443 62.337 172.455 64.183C171.493 66.003 170.531 68.044 169.569 70.306C168.633 72.568 168.035 74.115 167.775 74.947C167.697 75.207 167.372 75.532 166.8 75.922C166.254 76.312 165.799 76.507 165.435 76.507C163.641 76.507 162.744 76.143 162.744 75.415C162.9 74.973 163.433 72.737 164.343 68.707L165.825 62.35C165.799 62.116 165.682 61.921 165.474 61.765C165.266 61.609 165.045 61.531 164.811 61.531C163.849 61.531 162.835 62.376 161.769 64.066C160.729 65.756 159.806 67.654 159 69.76C158.22 71.866 157.765 73.335 157.635 74.167C157.505 74.895 157.258 75.402 156.894 75.688C156.53 75.974 155.906 76.117 155.022 76.117C154.268 76.117 153.696 76.026 153.306 75.844C152.916 75.636 152.708 75.246 152.682 74.674C152.682 74.388 152.994 72.867 153.618 70.111C154.242 67.355 155.087 63.767 156.153 59.347Z" fill="url(#paint0_linear_28_44)"/>
<defs>
<linearGradient id="paint0_linear_28_44" x1="-20" y1="19.5" x2="223" y2="58.5" gradientUnits="userSpaceOnUse">
<stop stop-color="#7E20FB"/>
<stop offset="1" stop-color="#0FCB29"/>
</linearGradient>
</defs>
</svg>
