<svg width="38" height="57" viewBox="0 0 38 57" fill="none" xmlns="http://www.w3.org/2000/svg">
<g filter="url(#filter0_d_1464_35647)">
<path fill-rule="evenodd" clip-rule="evenodd" d="M66.8458 33.0789C65.3925 34.518 63.6797 35.5565 61.828 36.202C61.5965 39.522 60.2789 42.6696 57.8458 45.0789C52.0693 50.799 42.193 50.1913 35.7865 43.7216C35.1519 43.0808 34.5752 42.4064 34.0566 41.706C28.3509 44.3394 20.9442 42.9302 15.7865 37.7216C13.7131 35.6278 12.2573 33.1766 11.4322 30.6247C10.6627 30.0602 9.92452 29.4256 9.22743 28.7216C2.82091 22.252 2.31018 12.3702 8.08668 6.65008C12.3933 2.38555 18.9786 1.63811 24.7059 4.21478C30.4102 -1.13399 40.0067 -0.367074 46.3188 6.00731C46.6648 6.35668 46.9938 6.71577 47.3058 7.08336C53.0286 4.36851 60.5083 5.75934 65.7051 11.0073C72.1116 17.477 72.6223 27.3588 66.8458 33.0789Z" fill="white"/>
</g>
<defs>
<filter id="filter0_d_1464_35647" x="0.0673828" y="0.662598" width="74.7976" height="56.3384" filterUnits="userSpaceOnUse" color-interpolation-filters="sRGB">
<feFlood flood-opacity="0" result="BackgroundImageFix"/>
<feColorMatrix in="SourceAlpha" type="matrix" values="0 0 0 0 0 0 0 0 0 0 0 0 0 0 0 0 0 0 127 0" result="hardAlpha"/>
<feOffset dy="4"/>
<feGaussianBlur stdDeviation="2"/>
<feComposite in2="hardAlpha" operator="out"/>
<feColorMatrix type="matrix" values="0 0 0 0 1 0 0 0 0 1 0 0 0 0 1 0 0 0 0.25 0"/>
<feBlend mode="normal" in2="BackgroundImageFix" result="effect1_dropShadow_1464_35647"/>
<feBlend mode="normal" in="SourceGraphic" in2="effect1_dropShadow_1464_35647" result="shape"/>
</filter>
</defs>
</svg>
