<svg width="325" height="343" viewBox="0 0 325 343" fill="none" xmlns="http://www.w3.org/2000/svg">
<g filter="url(#filter0_d_1500_1550)">
<circle cx="153.5" cy="145.5" r="5.5" fill="white"/>
</g>
<g filter="url(#filter1_d_1500_1550)">
<circle cx="153.5" cy="60.5" r="5.5" fill="white"/>
</g>
<g filter="url(#filter2_d_1500_1550)">
<rect x="152" y="41" width="3" height="113" fill="white"/>
</g>
<g filter="url(#filter3_ddd_1500_1550)">
<path fill-rule="evenodd" clip-rule="evenodd" d="M153 167C142.839 167 127 166 127 166L95.2022 229.596C94.4139 229.888 94 230.19 94 230.5C94 232.985 120.639 235 153.5 235C186.361 235 213 232.985 213 230.5C213 230.289 212.808 230.081 212.436 229.878L179 166C179 166 163.161 167 153 167Z" fill="white"/>
</g>
<path d="M136.5 154.5H171.5V165.542C171.491 165.543 171.481 165.544 171.472 165.545C171.159 165.572 170.704 165.611 170.136 165.658C169.001 165.752 167.413 165.876 165.606 166.001C161.988 166.251 157.502 166.5 154 166.5C150.498 166.5 146.012 166.251 142.394 166.001C140.587 165.876 138.999 165.752 137.864 165.658C137.296 165.611 136.841 165.572 136.528 165.545C136.519 165.544 136.509 165.543 136.5 165.542V154.5Z" fill="white" stroke="#979797"/>
<defs>
<filter id="filter0_d_1500_1550" x="138" y="134" width="31" height="31" filterUnits="userSpaceOnUse" color-interpolation-filters="sRGB">
<feFlood flood-opacity="0" result="BackgroundImageFix"/>
<feColorMatrix in="SourceAlpha" type="matrix" values="0 0 0 0 0 0 0 0 0 0 0 0 0 0 0 0 0 0 127 0" result="hardAlpha"/>
<feOffset dy="4"/>
<feGaussianBlur stdDeviation="5"/>
<feComposite in2="hardAlpha" operator="out"/>
<feColorMatrix type="matrix" values="0 0 0 0 1 0 0 0 0 1 0 0 0 0 1 0 0 0 0.5 0"/>
<feBlend mode="normal" in2="BackgroundImageFix" result="effect1_dropShadow_1500_1550"/>
<feBlend mode="normal" in="SourceGraphic" in2="effect1_dropShadow_1500_1550" result="shape"/>
</filter>
<filter id="filter1_d_1500_1550" x="138" y="49" width="31" height="31" filterUnits="userSpaceOnUse" color-interpolation-filters="sRGB">
<feFlood flood-opacity="0" result="BackgroundImageFix"/>
<feColorMatrix in="SourceAlpha" type="matrix" values="0 0 0 0 0 0 0 0 0 0 0 0 0 0 0 0 0 0 127 0" result="hardAlpha"/>
<feOffset dy="4"/>
<feGaussianBlur stdDeviation="5"/>
<feComposite in2="hardAlpha" operator="out"/>
<feColorMatrix type="matrix" values="0 0 0 0 1 0 0 0 0 1 0 0 0 0 1 0 0 0 0.5 0"/>
<feBlend mode="normal" in2="BackgroundImageFix" result="effect1_dropShadow_1500_1550"/>
<feBlend mode="normal" in="SourceGraphic" in2="effect1_dropShadow_1500_1550" result="shape"/>
</filter>
<filter id="filter2_d_1500_1550" x="148" y="41" width="11" height="121" filterUnits="userSpaceOnUse" color-interpolation-filters="sRGB">
<feFlood flood-opacity="0" result="BackgroundImageFix"/>
<feColorMatrix in="SourceAlpha" type="matrix" values="0 0 0 0 0 0 0 0 0 0 0 0 0 0 0 0 0 0 127 0" result="hardAlpha"/>
<feOffset dy="4"/>
<feGaussianBlur stdDeviation="2"/>
<feComposite in2="hardAlpha" operator="out"/>
<feColorMatrix type="matrix" values="0 0 0 0 1 0 0 0 0 1 0 0 0 0 1 0 0 0 0.79 0"/>
<feBlend mode="normal" in2="BackgroundImageFix" result="effect1_dropShadow_1500_1550"/>
<feBlend mode="normal" in="SourceGraphic" in2="effect1_dropShadow_1500_1550" result="shape"/>
</filter>
<filter id="filter3_ddd_1500_1550" x="66" y="154" width="175" height="180" filterUnits="userSpaceOnUse" color-interpolation-filters="sRGB">
<feFlood flood-opacity="0" result="BackgroundImageFix"/>
<feColorMatrix in="SourceAlpha" type="matrix" values="0 0 0 0 0 0 0 0 0 0 0 0 0 0 0 0 0 0 127 0" result="hardAlpha"/>
<feOffset dy="16"/>
<feGaussianBlur stdDeviation="14"/>
<feComposite in2="hardAlpha" operator="out"/>
<feColorMatrix type="matrix" values="0 0 0 0 1 0 0 0 0 1 0 0 0 0 1 0 0 0 0.73 0"/>
<feBlend mode="normal" in2="BackgroundImageFix" result="effect1_dropShadow_1500_1550"/>
<feColorMatrix in="SourceAlpha" type="matrix" values="0 0 0 0 0 0 0 0 0 0 0 0 0 0 0 0 0 0 127 0" result="hardAlpha"/>
<feOffset dy="48"/>
<feGaussianBlur stdDeviation="7.55"/>
<feComposite in2="hardAlpha" operator="out"/>
<feColorMatrix type="matrix" values="0 0 0 0 1 0 0 0 0 1 0 0 0 0 1 0 0 0 0.25 0"/>
<feBlend mode="normal" in2="effect1_dropShadow_1500_1550" result="effect2_dropShadow_1500_1550"/>
<feColorMatrix in="SourceAlpha" type="matrix" values="0 0 0 0 0 0 0 0 0 0 0 0 0 0 0 0 0 0 127 0" result="hardAlpha"/>
<feOffset dy="84"/>
<feGaussianBlur stdDeviation="7.5"/>
<feComposite in2="hardAlpha" operator="out"/>
<feColorMatrix type="matrix" values="0 0 0 0 1 0 0 0 0 1 0 0 0 0 1 0 0 0 0.25 0"/>
<feBlend mode="normal" in2="effect2_dropShadow_1500_1550" result="effect3_dropShadow_1500_1550"/>
<feBlend mode="normal" in="SourceGraphic" in2="effect3_dropShadow_1500_1550" result="shape"/>
</filter>
</defs>
</svg>
